<svg width="205" height="201" viewBox="0 0 205 201" fill="none" xmlns="http://www.w3.org/2000/svg">
<path d="M113.195 174.377C112.129 165.805 106.817 157.36 98.642 154.57C101.866 163.393 101.865 173.072 98.64 181.894C97.3839 185.291 95.6329 188.94 96.8145 192.364C97.5497 194.495 99.3481 196.125 101.358 197.145C103.369 198.164 105.6 198.65 107.803 199.126L108.237 199.485C111.735 191.587 114.261 182.949 113.195 174.377Z" fill="#F0F0F0"/>
<path d="M98.5603 154.732C103.321 160.066 106.28 166.765 107.017 173.876C107.202 175.404 107.146 176.952 106.85 178.463C106.514 179.925 105.792 181.271 104.76 182.36C103.819 183.394 102.735 184.344 102.061 185.59C101.726 186.232 101.53 186.939 101.487 187.662C101.444 188.386 101.554 189.111 101.81 189.789C102.405 191.496 103.578 192.886 104.772 194.207C106.098 195.673 107.498 197.174 108.061 199.118C108.13 199.353 108.491 199.234 108.423 198.999C107.442 195.617 104.16 193.697 102.595 190.651C101.864 189.23 101.558 187.58 102.242 186.08C102.841 184.768 103.957 183.788 104.92 182.749C105.942 181.701 106.692 180.419 107.105 179.015C107.477 177.524 107.593 175.981 107.447 174.451C107.175 171.003 106.361 167.619 105.037 164.423C103.546 160.767 101.441 157.393 98.8122 154.447C98.6494 154.265 98.3986 154.551 98.5603 154.732H98.5603Z" fill="white"/>
<path d="M106.915 171.573C108.092 171.287 109.128 170.593 109.84 169.613C110.551 168.634 110.892 167.434 110.8 166.227C110.781 165.983 110.4 166.001 110.42 166.246C110.507 167.37 110.19 168.488 109.526 169.398C108.861 170.309 107.893 170.952 106.796 171.211C106.558 171.268 106.678 171.629 106.915 171.573Z" fill="white"/>
<path d="M105.308 181.898C103.183 180.629 101.615 178.606 100.915 176.233C100.846 175.998 100.485 176.117 100.554 176.352C101.286 178.821 102.923 180.923 105.137 182.238C105.348 182.363 105.518 182.022 105.308 181.898Z" fill="white"/>
<path d="M103.194 161.127C102.762 161.332 102.286 161.427 101.808 161.403C101.33 161.378 100.866 161.236 100.457 160.988C100.247 160.86 100.077 161.201 100.285 161.328C100.739 161.6 101.252 161.756 101.78 161.784C102.307 161.812 102.834 161.711 103.314 161.488C103.361 161.471 103.399 161.437 103.422 161.392C103.444 161.347 103.449 161.296 103.435 161.248C103.419 161.2 103.384 161.16 103.339 161.138C103.294 161.115 103.242 161.111 103.194 161.127L103.194 161.127Z" fill="white"/>
<path d="M73.7239 169.88C73.8524 169.964 73.9809 170.047 74.1095 170.134C75.8311 171.266 77.4579 172.536 78.9738 173.932C79.0928 174.038 79.2117 174.147 79.3273 174.256C82.9437 177.658 85.8972 181.701 88.0377 186.18C88.8878 187.963 89.601 189.808 90.1711 191.7C90.9584 194.312 91.6041 197.207 93.1624 199.343C93.3225 199.568 93.4963 199.783 93.6829 199.986H107.765C107.797 199.97 107.83 199.957 107.862 199.941L108.424 199.967C108.401 199.867 108.376 199.764 108.353 199.665C108.34 199.607 108.324 199.549 108.312 199.491C108.302 199.453 108.292 199.414 108.286 199.379C108.283 199.366 108.279 199.353 108.276 199.343C108.27 199.308 108.26 199.276 108.254 199.244C108.112 198.669 107.967 198.094 107.817 197.518C107.817 197.515 107.817 197.515 107.814 197.512C106.713 193.119 105.095 188.871 102.994 184.859C102.93 184.74 102.866 184.618 102.795 184.499C101.822 182.723 100.705 181.03 99.4566 179.436C98.7699 178.565 98.0397 177.73 97.2686 176.933C95.2721 174.878 92.9649 173.15 90.4314 171.811C85.3805 169.145 79.533 168.123 74.1351 169.752C73.997 169.794 73.8619 169.835 73.7239 169.88Z" fill="#F0F0F0"/>
<path d="M73.7558 170.059C80.7683 171.452 87.1638 175.019 92.0337 180.253C93.1021 181.361 93.9891 182.631 94.6621 184.016C95.2741 185.386 95.5081 186.894 95.3398 188.385C95.2108 189.778 94.9176 191.189 95.1295 192.589C95.2486 193.304 95.5176 193.986 95.9188 194.59C96.3199 195.194 96.8442 195.706 97.4573 196.093C98.9597 197.098 100.733 197.502 102.482 197.837C104.423 198.21 106.445 198.566 108.065 199.778C108.261 199.925 108.478 199.612 108.282 199.465C105.463 197.356 101.686 197.798 98.6024 196.309C97.1636 195.614 95.9255 194.482 95.5691 192.872C95.2574 191.464 95.5586 190.009 95.7014 188.6C95.8869 187.148 95.714 185.672 95.1979 184.303C94.5976 182.888 93.761 181.587 92.7239 180.453C90.4297 177.864 87.7428 175.651 84.7614 173.897C81.3698 171.875 77.6575 170.449 73.785 169.679C73.5453 169.632 73.5177 170.012 73.7558 170.059Z" fill="white"/>
<path d="M90.5653 178.475C91.3326 177.539 91.7421 176.361 91.7207 175.15C91.6993 173.94 91.2483 172.777 90.4484 171.868C90.2859 171.685 89.9934 171.929 90.1561 172.112C90.9026 172.957 91.3226 174.04 91.3402 175.168C91.3579 176.295 90.972 177.391 90.2524 178.259C90.0962 178.447 90.41 178.663 90.5653 178.475Z" fill="white"/>
<path d="M95.4989 187.688C93.0386 187.954 90.5685 187.283 88.5808 185.809C88.384 185.663 88.1675 185.976 88.3641 186.122C90.4353 187.652 93.0073 188.345 95.5668 188.062C95.8108 188.035 95.7415 187.661 95.4988 187.688H95.4989Z" fill="white"/>
<path d="M81.3051 172.376C81.0837 172.8 80.7605 173.162 80.3644 173.431C79.9682 173.699 79.5117 173.865 79.0357 173.913C78.7915 173.937 78.8611 174.311 79.1037 174.288C79.6293 174.232 80.1333 174.048 80.5717 173.753C81.01 173.457 81.3693 173.059 81.6181 172.593C81.6453 172.551 81.6554 172.5 81.6464 172.451C81.6375 172.401 81.6102 172.357 81.57 172.328C81.5284 172.299 81.4773 172.288 81.4277 172.297C81.3781 172.306 81.3341 172.334 81.3052 172.376H81.3051Z" fill="white"/>
<path d="M132.6 0H63.3342V41.5289H132.6V0Z" fill="#EF293D"/>
<path d="M118.781 60.6072H77.5679C77.0536 60.6064 76.5607 60.4015 76.1973 60.0376C75.834 59.6736 75.6299 59.1803 75.6299 58.666C75.6299 58.1517 75.834 57.6585 76.1973 57.2945C76.5607 56.9306 77.0536 56.7257 77.5679 56.7249H118.781C119.296 56.7249 119.789 56.9294 120.153 57.2934C120.517 57.6575 120.722 58.1512 120.722 58.666C120.722 59.1809 120.517 59.6746 120.153 60.0387C119.789 60.4027 119.296 60.6072 118.781 60.6072Z" fill="#E4E4E4"/>
<path d="M112.136 53.9615H84.2131C83.9579 53.9619 83.7052 53.912 83.4693 53.8146C83.2334 53.7172 83.0191 53.5743 82.8385 53.394C82.6579 53.2137 82.5146 52.9996 82.4169 52.7639C82.3191 52.5282 82.2688 52.2755 82.2688 52.0203C82.2688 51.7651 82.3191 51.5124 82.4169 51.2767C82.5146 51.041 82.6579 50.8269 82.8385 50.6466C83.0191 50.4663 83.2334 50.3233 83.4693 50.226C83.7052 50.1286 83.9579 50.0787 84.2131 50.0791H112.136C112.391 50.0787 112.644 50.1286 112.88 50.226C113.116 50.3233 113.33 50.4663 113.511 50.6466C113.691 50.8269 113.835 51.041 113.933 51.2767C114.03 51.5124 114.081 51.7651 114.081 52.0203C114.081 52.2755 114.03 52.5282 113.933 52.7639C113.835 52.9996 113.691 53.2137 113.511 53.394C113.33 53.5743 113.116 53.7172 112.88 53.8146C112.644 53.912 112.391 53.9619 112.136 53.9615Z" fill="#E4E4E4"/>
<path d="M132.6 75.5176H63.3342V117.047H132.6V75.5176Z" fill="#F0F0F0"/>
<path d="M118.78 136.126H77.5676C77.0528 136.126 76.5591 135.921 76.195 135.557C75.831 135.193 75.6265 134.699 75.6265 134.185C75.6265 133.67 75.831 133.176 76.195 132.812C76.5591 132.448 77.0528 132.243 77.5676 132.243H118.78C119.295 132.243 119.789 132.448 120.153 132.812C120.517 133.176 120.722 133.67 120.722 134.185C120.722 134.699 120.517 135.193 120.153 135.557C119.789 135.921 119.295 136.126 118.78 136.126Z" fill="#E4E4E4"/>
<path d="M112.135 129.482H84.2117C83.6969 129.482 83.2031 129.277 82.8391 128.913C82.475 128.549 82.2705 128.055 82.2705 127.541C82.2705 127.026 82.475 126.532 82.8391 126.168C83.2031 125.804 83.6969 125.599 84.2117 125.599H112.135C112.65 125.599 113.143 125.804 113.507 126.168C113.871 126.532 114.076 127.026 114.076 127.541C114.076 128.055 113.871 128.549 113.507 128.913C113.143 129.277 112.65 129.482 112.135 129.482Z" fill="#E4E4E4"/>
<path d="M46.9222 196.761H50.9641L52.8872 181.169L46.9216 181.17L46.9222 196.761Z" fill="#FFB6B6"/>
<path d="M45.8909 195.441L53.8514 195.441H53.8518C55.1972 195.441 56.4875 195.976 57.4389 196.927C58.3903 197.878 58.9248 199.168 58.9249 200.514V200.679L45.8911 200.679L45.8909 195.441Z" fill="#2F2E41"/>
<path d="M26.2613 196.761H30.3033L32.2264 181.169L26.2603 181.17L26.2613 196.761Z" fill="#FFB6B6"/>
<path d="M25.2305 195.441L33.191 195.441H33.1914C34.5368 195.441 35.8271 195.976 36.7785 196.927C37.7299 197.878 38.2644 199.168 38.2645 200.514V200.679L25.2307 200.679L25.2305 195.441Z" fill="#2F2E41"/>
<path d="M73.4645 23.0175C73.4647 22.339 73.3147 21.6689 73.025 21.0554C72.7354 20.4419 72.3134 19.9002 71.7893 19.4693C71.2653 19.0384 70.6523 18.729 69.9944 18.5633C69.3365 18.3976 68.65 18.3798 67.9844 18.5112C67.3188 18.6425 66.6905 18.9198 66.1449 19.3229C65.5992 19.7261 65.1497 20.2452 64.8286 20.8429C64.5076 21.4406 64.323 22.1019 64.2881 22.7795C64.2532 23.457 64.3689 24.1339 64.6269 24.7614L55.3377 39.4584L49.5549 51.1124L54.327 55.3479L57.9994 51.4827L70.0102 27.461C70.9977 27.2091 71.8732 26.6356 72.4986 25.831C73.1241 25.0264 73.4639 24.0365 73.4645 23.0175Z" fill="#FFB6B6"/>
<path d="M25.2562 71.2254L16.1508 69.8142L13.9816 86.2871L2.16379 111.718C1.39297 112.198 0.781862 112.897 0.407745 113.724C0.0336285 114.552 -0.0867095 115.472 0.0619277 116.368C0.210565 117.264 0.621506 118.096 1.24282 118.758C1.86413 119.421 2.66794 119.884 3.5526 120.09C4.43727 120.296 5.3631 120.235 6.21306 119.915C7.06303 119.594 7.79896 119.029 8.32787 118.291C8.85677 117.553 9.1549 116.674 9.18455 115.766C9.2142 114.858 8.97405 113.962 8.49446 113.191L20.8507 90.8787L25.2562 71.2254Z" fill="#FFB6B6"/>
<path d="M30.3015 98.667C30.3015 98.667 22.2943 106.071 23.3118 124.689L25.5549 153.45L24.9892 193.542L33.2135 192.896L40.3985 125.707L47.2853 153.254L44.8131 189.95L52.7351 190.134L61.059 148.663L59.086 117.922L55.7718 98.667H30.3015Z" fill="#2F2E41"/>
<path d="M38.8686 55.3093L19.7385 60.6657L29.4655 89.8092L28.0116 100.958L57.5075 101.149L50.6765 79.5999C50.6765 79.5999 54.51 71.7169 50.1327 66.1913L38.8686 55.3093Z" fill="#EF293D"/>
<path d="M36.5735 59.8994L38.8691 55.3082C38.8691 55.3082 38.795 54.1544 44.1884 53.5835L50.5168 47.2937L56.3093 53.0668L46.5211 67.5514L36.5735 59.8994Z" fill="#EF293D"/>
<path d="M27.3903 64.4918C27.3903 64.4918 20.5035 56.8398 16.6774 60.6658C12.8514 64.4918 14.8131 76.6577 14.8131 76.6577L26.7298 78.5068L27.3903 64.4918Z" fill="#EF293D"/>
<path d="M30.8841 35.0774C42.6125 35.13 42.6115 52.9627 30.8836 53.0137C19.1557 52.9611 19.1567 35.1284 30.8841 35.0774Z" fill="#FFB6B6"/>
<path d="M32.1892 43.4526C33.7746 44.3862 35.4219 45.341 37.2508 45.5412C39.0797 45.7414 41.1503 44.9717 41.8841 43.2846C42.1135 42.7 42.2352 42.0787 42.2434 41.4508C42.4044 38.2465 41.2957 35.1079 39.1577 32.7158C38.0847 31.5433 36.7715 30.6159 35.3075 29.9969C33.8436 29.378 32.2634 29.082 30.6747 29.1291C27.6443 29.2609 24.8439 30.6954 22.1548 32.0988C19.6818 33.3894 17.0708 34.8114 15.7271 37.2559C13.7361 40.8782 15.1874 45.3131 15.5741 49.4284C15.8455 52.497 15.4958 55.5888 14.546 58.5193C13.5961 61.4497 12.0655 64.1588 10.0457 66.4847L26.7327 68.0658C28.7635 68.2583 30.8344 68.4485 32.8252 68.0038C34.5427 67.6202 36.1241 66.7784 37.4014 65.5678C38.6786 64.3573 39.6039 62.8232 40.079 61.1287C40.554 59.4343 40.5611 57.6427 40.0993 55.9446C39.6375 54.2465 38.7241 52.7052 37.4564 51.4847C35.0878 49.2044 31.2786 47.59 31.1851 44.3034" fill="#2F2E41"/>
<path d="M156.549 196.387H152.122L150.016 179.31H156.55L156.549 196.387Z" fill="#9F616A"/>
<path d="M157.679 200.679L143.404 200.678V200.497C143.404 199.024 143.989 197.611 145.031 196.569C146.073 195.527 147.487 194.941 148.96 194.941H148.961L157.679 194.942L157.679 200.679Z" fill="#2F2E41"/>
<path d="M197.717 196.387H193.29L191.184 179.31H197.718L197.717 196.387Z" fill="#9F616A"/>
<path d="M198.846 200.679L184.571 200.678V200.497C184.571 199.024 185.157 197.611 186.199 196.569C187.241 195.527 188.654 194.941 190.127 194.941H190.128L198.847 194.942L198.846 200.679Z" fill="#2F2E41"/>
<path d="M154.786 109.729C154.786 109.729 151.07 119.815 151.601 124.062C152.132 128.309 147.885 158.038 148.415 160.693C148.946 163.347 147.885 176.619 148.415 178.743C148.946 180.866 146.925 183.403 147.987 185.526C149.049 187.65 150.539 192.014 150.539 192.014L157.44 191.484L158.502 185.644C158.502 185.644 161.687 185.113 161.156 181.928C160.626 178.743 163.811 157.508 163.811 157.508L172.836 127.779L185.577 154.853C185.577 154.853 186.108 173.965 187.7 176.088C189.293 178.212 186.108 184.051 187.7 186.175C189.293 188.298 190.885 192.014 190.885 192.014H198.849V187.767C198.849 187.767 203.626 185.113 198.849 177.15L195.62 129.328L192.435 107.562L154.786 109.729Z" fill="#2F2E41"/>
<path d="M174.576 42.9757C180.052 42.9757 184.491 38.5364 184.491 33.0602C184.491 27.5841 180.052 23.1448 174.576 23.1448C169.099 23.1448 164.66 27.5841 164.66 33.0602C164.66 38.5364 169.099 42.9757 174.576 42.9757Z" fill="#A0616A"/>
<path d="M166.137 32.3759C166.837 34.1635 167.536 35.9511 168.236 37.7387C169.096 39.9363 170.081 42.2875 172.098 43.5139C174.587 45.0282 177.911 44.2899 180.319 42.6495C182.485 41.1742 184.148 39.0715 185.084 36.6237C186.02 34.1759 186.184 31.5003 185.555 28.9564C184.926 26.4124 183.533 24.1219 181.564 22.3924C179.595 20.663 177.144 19.5775 174.541 19.2817L174.441 21.0767L172.238 19.2305C172.075 19.51 171.851 19.7489 171.583 19.9294C171.314 20.1099 171.008 20.2272 170.688 20.2725C170.368 20.3178 170.041 20.2899 169.733 20.191C169.425 20.092 169.144 19.9246 168.91 19.7012C169.488 20.9005 168.821 22.3632 167.856 23.282C166.672 24.4106 163.283 25.767 163.424 27.7846C163.517 29.131 165.591 30.9806 166.137 32.3759Z" fill="#2F2E41"/>
<path d="M201.869 124.395C202.211 123.885 202.437 123.306 202.53 122.7C202.624 122.093 202.584 121.474 202.413 120.884C202.241 120.295 201.942 119.75 201.538 119.289C201.133 118.827 200.632 118.46 200.07 118.214L200.268 108.621L194.468 107.079L194.379 120.629C194.027 121.601 194.043 122.668 194.425 123.628C194.807 124.588 195.528 125.375 196.451 125.839C197.375 126.303 198.436 126.412 199.435 126.146C200.433 125.88 201.299 125.257 201.869 124.395V124.395Z" fill="#9F616A"/>
<path d="M181.941 49.1039C181.941 49.1039 174.257 45.2621 167 47.8233C159.743 50.3845 155.901 53.3726 155.901 53.3726L160.597 78.1312L154.194 111.427C154.194 111.427 187.063 108.866 190.051 111.427C193.039 113.988 193.039 108.439 193.039 108.439L190.478 76.8505L195.174 56.7876L181.941 49.1039Z" fill="#3F3D56"/>
<path d="M149.511 124.964C149.982 124.571 150.361 124.079 150.621 123.523C150.882 122.967 151.017 122.361 151.018 121.747C151.019 121.133 150.885 120.527 150.626 119.97C150.367 119.414 149.989 118.921 149.519 118.526L152.403 109.375L147.269 106.267L143.379 119.247C142.768 120.08 142.484 121.109 142.581 122.138C142.678 123.167 143.149 124.124 143.905 124.829C144.661 125.534 145.649 125.937 146.682 125.961C147.715 125.986 148.722 125.631 149.511 124.964Z" fill="#9F616A"/>
<path d="M158.89 53.3728H155.901C155.901 53.3728 151.206 56.3609 151.206 60.6296C151.206 64.8983 144.376 114.842 144.376 114.842L151.633 116.123L158.036 81.1194L162.731 71.7283L158.89 53.3728Z" fill="#3F3D56"/>
<path d="M187.063 56.7878H195.174C195.174 56.7878 197.735 59.3491 199.016 65.3253C200.296 71.3015 201.577 94.7794 201.577 94.7794L200.723 116.123H194.32L193.466 88.3763L189.198 70.4478L187.063 56.7878Z" fill="#3F3D56"/>
<path d="M203.802 201H10.5782C10.4437 201 10.3147 200.947 10.2196 200.852C10.1245 200.757 10.071 200.628 10.071 200.493C10.071 200.359 10.1245 200.23 10.2196 200.135C10.3147 200.04 10.4437 199.986 10.5782 199.986H203.802C203.937 199.986 204.066 200.04 204.161 200.135C204.256 200.23 204.309 200.359 204.309 200.493C204.309 200.628 204.256 200.757 204.161 200.852C204.066 200.947 203.937 201 203.802 201Z" fill="#CACACA"/>
</svg>
