<svg width="207" height="231" viewBox="0 0 207 231" fill="none" xmlns="http://www.w3.org/2000/svg">
<g clip-path="url(#clip0_1376_61857)">
<path d="M191.489 35.7336C169.13 4.47767 121.898 -8.2011 75.4459 5.45423C50.8883 12.6734 27.2102 27.1381 15.4759 55.1463C-5.50039 105.214 38.542 121.205 67.3409 126.301C81.2665 128.765 94.382 132.905 106.367 138.541C127.929 148.68 166.096 157.665 194.876 115.429C215.736 84.8162 206.383 56.5532 191.489 35.7336Z" fill="#DDE1EA"/>
<path d="M61.8591 41.9174C61.7966 41.4206 61.6701 40.9342 61.4828 40.4701C61.4589 40.3824 61.4171 40.3006 61.36 40.23C61.3029 40.1593 61.2318 40.1014 61.1513 40.0599C61.0435 40.0318 60.9306 40.0305 60.8223 40.0562L59.1334 40.3158C58.992 40.3223 58.8567 40.3752 58.748 40.4663C58.5281 40.6987 58.7447 41.0729 58.7379 41.3935C58.7304 41.754 58.4115 42.0467 58.0657 42.1435C57.7127 42.2151 57.3486 42.2106 56.9975 42.1302L54.6359 41.7615C55.3315 41.5384 55.9505 41.1234 56.4225 40.5638C56.7333 40.194 56.8986 39.5035 56.4495 39.3283C56.316 39.2915 56.1769 39.2803 56.0393 39.2952C54.9693 39.3036 54.1273 38.4062 53.1257 38.0282C52.4846 37.8019 51.7887 37.7851 51.1375 37.9801C50.4863 38.1751 49.9131 38.572 49.5 39.114L50.7581 39.1749C50.8764 39.1683 50.9938 39.1998 51.0932 39.2647C51.3689 39.4922 51.0261 39.9293 51.065 40.2857C51.1154 40.7486 51.7273 40.8475 52.1886 40.8943C52.6498 40.9411 53.235 41.3176 53.0131 41.7265C50.6948 42.5287 48.3356 40.1584 45.9008 40.4502C45.2846 40.524 44.7027 40.7672 44.1011 40.9201C40.4259 41.8542 36.6263 39.3619 32.8719 39.8897C32.0372 40.0327 31.2169 40.25 30.4206 40.5392C29.9097 40.7077 29.3767 40.8899 29.0054 41.2807C28.6341 41.6716 28.4928 42.3401 28.8445 42.7488C27.8751 42.829 26.8991 42.7359 25.9621 42.4736C26.2155 42.6151 26.4263 42.8225 26.5724 43.0741C26.7184 43.3257 26.7944 43.6121 26.7923 43.9033C25.2786 44.1513 23.805 44.6027 22.4111 45.2453C22.6713 45.6799 22.9751 46.0865 23.3179 46.4588L21.4016 47.6956C22.049 47.8594 22.3838 48.7463 22.0073 49.3002C22.6786 49.0002 23.0946 48.2241 23.8124 48.0667C24.2827 47.9636 24.7612 48.1569 25.2074 48.3384C25.6535 48.52 26.1439 48.696 26.6057 48.5598C27.0676 48.4235 27.4082 47.8219 27.1147 47.4386C29.0888 46.8601 31.1289 46.5399 33.1846 46.486C33.3431 46.466 33.504 46.4967 33.6442 46.5736C33.9118 46.7601 33.8414 47.163 33.827 47.4898C33.8126 47.8167 34.0662 48.2462 34.357 48.0989C34.0149 48.3969 34.3073 48.958 34.6356 49.2714C34.9638 49.5848 35.3594 50.0172 35.1585 50.4249C35.106 50.5313 35.0171 50.6164 34.9666 50.7238C34.8177 51.0407 35.0542 51.4102 35.3331 51.6206C35.6121 51.8311 35.9538 51.9782 36.1476 52.2696C36.3413 52.561 36.2533 53.0711 35.9068 53.1118L34.9219 51.8556C34.5854 52.2061 34.3548 52.6453 34.2566 53.1222C35.301 53.9798 35.4581 55.7256 34.5838 56.7575C34.1369 57.2848 33.5015 57.6052 32.947 58.0166C32.3924 58.4279 31.8792 59.0136 31.8806 59.7061C31.883 60.9025 31.7857 62.014 32.232 63.1232C33.0549 65.1685 34.005 67.1598 35.0767 69.0853C35.3581 69.591 35.7219 70.1452 36.292 70.2322C35.5715 68.4702 34.9229 66.6807 34.3462 64.8638C34.7218 64.8653 35.1558 64.8953 35.376 65.201C35.5584 65.4541 35.5192 65.7983 35.5759 66.1055C35.6479 66.4032 35.7681 66.6869 35.9316 66.9455L39.3722 73.1023C39.6574 73.6127 39.9846 74.1606 40.5297 74.3673C40.8782 74.4994 41.2814 74.4745 41.6022 74.6648C41.8536 74.8139 42.023 75.0786 42.2793 75.2191C43.0041 75.6163 44.012 74.8545 44.6893 75.3287C44.883 75.4643 45.0062 75.6798 45.1847 75.835C45.8102 76.3792 46.8364 76.0152 47.5586 76.4211C48.024 76.6828 48.2652 77.206 48.5134 77.6802C49.1353 78.8681 50.1414 80.0318 51.474 80.1264C51.8927 80.1561 52.3202 80.0763 52.7294 80.1699C53.1386 80.2634 53.5414 80.6221 53.4757 81.0385C53.3631 81.7523 53.7142 82.534 53.6199 83.2505C53.4482 84.5556 51.6054 85.1291 51.4471 86.4359C51.4124 86.7221 51.4667 87.0174 51.3988 87.2975C51.3157 87.6407 51.0591 87.9202 50.9679 88.2614C50.7951 88.908 51.2562 89.5515 51.7628 89.9865C52.2694 90.4215 52.8737 90.7966 53.1506 91.4055C53.4434 92.0491 53.2996 92.7996 53.3948 93.5007C53.6026 95.0314 54.9187 96.1661 56.273 96.8978C56.6857 97.1207 57.1288 97.3365 57.3959 97.7232C57.7445 98.2279 57.7097 98.8933 57.8261 99.4964C58.1112 100.973 59.349 102.19 59.3841 103.695C59.4091 104.764 58.8175 105.734 58.4641 106.742C58.1328 107.709 58.013 108.736 58.1127 109.753C58.2124 110.77 58.5293 111.754 59.0419 112.637C59.3062 113.085 59.6224 113.508 59.8094 113.994C60.1431 114.862 60.0348 115.848 60.3425 116.725C60.7493 117.884 61.8671 118.842 61.7601 120.067C62.2676 121.126 63.3881 121.646 64.5149 121.961L66.5344 122.526C66.9211 122.634 67.3252 122.743 67.7189 122.665C68.1127 122.586 68.4884 122.258 68.4783 121.855C67.4879 121.63 66.4659 121.392 65.6495 120.786C64.8331 120.179 64.2739 119.1 64.5836 118.129C64.7273 117.678 65.0328 117.158 64.7423 116.786C64.576 116.573 64.2719 116.517 64.0842 116.323C63.7916 116.02 63.8922 115.51 64.1025 115.145C64.3129 114.779 64.617 114.452 64.7018 114.039C64.7447 113.807 64.716 113.568 64.6198 113.354C64.5236 113.139 64.3643 112.959 64.1634 112.838C64.5378 112.696 64.8784 112.477 65.163 112.194C65.4258 111.892 65.5472 111.427 65.3405 111.085C65.9545 111.163 66.6795 111.201 67.0826 110.729C67.4045 110.353 67.3823 109.789 67.2552 109.309C67.128 108.83 66.913 108.363 66.9063 107.867C68.3228 107.934 69.7425 107.886 71.1512 107.722C70.9475 107.033 70.4845 106.451 69.8606 106.099C70.4986 105.99 71.0798 105.223 71.2814 104.605C71.483 103.988 71.4316 103.315 71.307 102.677C71.2591 102.513 71.2526 102.339 71.2879 102.172C71.3597 101.942 71.5847 101.801 71.7928 101.681L74.9596 99.8542C75.1486 99.759 75.3199 99.632 75.466 99.4786C75.7978 99.0871 75.7487 98.4961 75.5788 98.011C75.4089 97.526 75.1368 97.0699 75.0713 96.56C74.8756 95.0349 76.5008 93.9406 77.0492 92.5049C77.2645 91.9415 77.3084 91.3291 77.35 90.7271C77.3947 90.0805 77.3981 89.3294 76.9039 88.9128C76.4301 88.5133 75.6899 88.6024 75.1942 88.2309C74.7397 87.8903 74.5829 87.2287 74.0864 86.9536C73.6355 86.7038 73.0702 86.8627 72.5687 86.7452C71.6857 86.5383 71.13 85.516 70.2283 85.4213C69.7195 85.3679 69.1437 85.6178 68.7267 85.3201C68.3592 85.0578 68.3445 84.5306 68.2745 84.0833C68.152 83.3881 67.8202 82.7473 67.3241 82.2472C66.8279 81.7472 66.1911 81.4119 65.4994 81.2865C64.9748 81.202 64.4038 81.2341 63.9575 80.9445C63.5056 80.6512 63.2984 80.1022 62.9435 79.6961C62.3714 79.0416 61.4704 78.809 60.6263 78.6097L57.193 77.7989C56.5836 77.6549 55.798 77.5786 55.4709 78.1149C55.3741 78.3191 55.3056 78.5357 55.2672 78.7586C55.1447 79.1617 54.898 79.5155 54.5628 79.769C54.2275 80.0225 53.8209 80.1627 53.4013 80.1694C53.1136 79.6764 52.6474 79.314 52.1001 79.158C51.752 79.0606 51.3793 79.0497 51.0473 78.9063C50.8665 78.8177 50.7056 78.6929 50.5744 78.5396C50.4433 78.3862 50.3446 78.2077 50.2846 78.0148C50.2245 77.8218 50.2042 77.6186 50.2251 77.4176C50.2459 77.2165 50.3073 77.0219 50.4056 76.8455C50.6036 76.4914 50.68 76.0818 50.6231 75.6798C50.5663 75.2778 50.3793 74.9057 50.091 74.6211C49.5072 74.0945 48.6626 73.9673 47.8797 74.02C47.6747 73.5705 48.0175 73.0634 48.387 72.7368C48.7564 72.4102 49.205 72.0891 49.2855 71.6013C49.412 70.8341 48.4376 70.2514 47.6977 70.4802C46.9578 70.7089 46.4855 71.4309 46.1734 72.1425C45.9943 72.5508 45.842 72.9808 45.5595 73.3251C45.2769 73.6694 44.822 73.9159 44.3916 73.8054C43.7824 73.649 43.5471 72.9219 43.4123 72.3049C43.2313 71.4771 43.0494 70.6377 43.0873 69.7911C43.1252 68.9444 43.4093 68.075 44.0308 67.5019C45.0436 66.5678 46.5972 66.6594 47.964 66.8084C47.6411 66.4429 47.7209 65.8269 48.0664 65.4829C48.2488 65.3201 48.4679 65.2045 48.7049 65.146C48.9418 65.0875 49.1893 65.088 49.4261 65.1474C49.8379 65.2335 50.2089 65.4563 50.4794 65.78C50.8678 66.2557 50.9783 66.898 51.2718 67.438C51.5654 67.978 52.2255 68.4385 52.7659 68.1488C53.2326 67.8986 53.3066 67.2485 53.1905 66.7301C53.0743 66.2116 52.8276 65.7075 52.8697 65.1777C52.95 64.1669 53.993 63.5585 54.9134 63.1422C55.8338 62.7259 56.8878 62.1661 57.0336 61.1627C57.0386 60.9663 57.0755 60.7719 57.1428 60.5874C57.2449 60.4245 57.3867 60.2904 57.5549 60.1981C60.2412 58.4148 62.9721 56.6096 66.0423 55.6352C66.2021 55.5845 66.2208 55.6408 66.3836 55.6011C66.6114 55.4688 66.4605 55.1029 66.242 54.9555C66.0236 54.8081 65.7316 54.695 65.6762 54.4366C65.6355 54.2466 65.7469 54.0601 65.7759 53.868C65.847 53.3958 65.2847 52.9599 64.8481 53.1487C64.6015 52.8206 65.0895 52.4393 65.4841 52.3302C66.669 52.0026 67.8853 51.803 69.1124 51.7348C69.254 51.7121 69.399 51.7369 69.5252 51.8053C69.7313 51.9487 69.705 52.2777 69.5589 52.4824C69.4129 52.6871 69.1857 52.8156 69.0037 52.9888C68.8048 53.1834 68.663 53.4292 68.5936 53.6992C68.5243 53.9693 68.5301 54.2533 68.6105 54.5202C69.2511 54.8476 69.9475 55.1845 70.657 55.0692C71.3665 54.9539 71.9962 54.1531 71.6627 53.5135C71.3522 52.918 70.4194 52.7836 70.2589 52.1309C70.0711 51.3666 71.1481 50.6869 70.9055 49.9384C70.7992 49.6105 70.4739 49.4176 70.2243 49.1808C69.9296 48.8906 69.7291 48.5176 69.6492 48.1108C69.5692 47.704 69.6137 47.2825 69.7766 46.9015C69.37 46.9734 68.9522 46.9462 68.5583 46.8224C68.1643 46.6985 67.8057 46.4816 67.5125 46.1898C66.9709 45.6407 66.5389 44.7746 65.7699 44.7992C65.0642 44.8217 64.4563 45.6488 63.7965 45.3965C63.6341 45.3344 63.463 45.2081 63.3057 45.2821C63.2541 45.3157 63.2109 45.3607 63.1791 45.4135C63.1474 45.4664 63.1281 45.5259 63.1226 45.5874C62.9549 46.3928 63.2434 47.3104 62.8064 48.0063C62.3309 48.7637 61.2311 48.8687 60.6547 49.5516C60.3417 49.9223 60.2205 50.4219 59.9329 50.8127C59.6453 51.2035 59.0348 51.452 58.6896 51.1114C58.8593 50.7611 58.9056 50.3633 58.821 49.9831C58.7365 49.6029 58.526 49.2627 58.2241 49.0182C57.9036 48.8082 57.5582 48.6394 57.1959 48.5158C56.791 48.3436 56.4059 48.128 56.0472 47.8727C55.8675 47.7638 55.7215 47.6068 55.6255 47.4194C55.5495 47.1847 55.5598 46.9304 55.6543 46.7026C55.8293 46.1985 56.1381 45.752 56.5473 45.4113C56.9565 45.0706 57.4505 44.8486 57.9761 44.7694C58.4357 44.7066 58.9706 44.7287 59.2747 44.3769C59.4356 44.1908 59.5201 43.9094 59.7537 43.8338C59.9031 43.8037 60.0582 43.8228 60.1959 43.8885L61.9112 44.4951C62.1026 44.5819 62.3133 44.6169 62.5223 44.5966C62.626 44.5826 62.7205 44.5297 62.7869 44.4486C62.8534 44.3674 62.8868 44.2641 62.8806 44.1592C62.8258 43.873 62.3874 43.7357 62.4273 43.4471C62.4496 43.3535 62.4997 43.269 62.5709 43.2046C63.1899 42.5427 63.947 42.0265 64.7879 41.6929C65.6288 41.3593 66.5327 41.2166 67.435 41.275C67.6515 41.6323 67.309 42.0553 67.0241 42.3602C66.7392 42.6652 66.5103 43.21 66.8548 43.4447C66.996 43.5171 67.1531 43.5527 67.3116 43.5481C67.7339 43.6055 68.1443 43.7306 68.5272 43.9185C69.12 44.1776 69.7014 44.4612 70.2714 44.7691C70.221 44.3916 70.173 43.9938 70.3154 43.6408C70.4579 43.2878 70.8628 43.0109 71.2164 43.1483C71.5572 43.2808 71.732 43.7342 72.0951 43.7757C72.5794 43.8311 72.7705 43.1123 72.5682 42.6668C72.3659 42.2212 71.9654 41.8482 71.9319 41.3596C71.9094 41.03 72.0342 40.6213 71.7722 40.4217C71.6789 40.3618 71.573 40.3245 71.463 40.3127L64.9191 39.1031C64.5305 39.0312 63.9691 39.0863 63.9519 39.4828C63.9422 39.7042 64.1391 39.9231 64.0519 40.1267C63.9588 40.3439 63.6532 40.324 63.4306 40.4008C63.0852 40.52 62.9118 40.9321 62.945 41.2975C63.0057 41.6605 63.1457 42.0056 63.3549 42.3079C62.9292 42.1291 62.2847 42.0962 61.8591 41.9174Z" fill="white"/>
<path d="M56.6377 36.337C56.225 36.1999 55.7803 36.1935 55.364 36.3187C54.9476 36.444 54.5796 36.6949 54.31 37.0373C54.2022 37.1798 54.1117 37.3763 54.2019 37.5306C54.3312 37.7519 54.6608 37.6645 54.9037 37.5853C55.2608 37.4572 55.6495 37.4479 56.0122 37.5588C56.2404 37.6375 56.4444 37.7765 56.6736 37.8522C56.7851 37.8991 56.9072 37.9146 57.0269 37.897C57.1465 37.8794 57.2591 37.8295 57.3526 37.7525C57.5099 37.5914 57.5197 37.341 57.52 37.1153C57.5309 37.0398 57.5249 36.9628 57.5024 36.89C57.4799 36.8171 57.4415 36.7502 57.39 36.6941C57.2983 36.6408 57.1952 36.6102 57.0894 36.6048C56.8523 36.5607 56.638 36.4349 56.4834 36.2491" fill="white"/>
<path d="M58.9973 35.6771C58.905 35.672 58.8129 35.6909 58.7299 35.732C58.6469 35.773 58.5759 35.8348 58.5235 35.9114C58.4712 35.988 58.4394 36.0768 58.4311 36.1693C58.4228 36.2619 58.4384 36.355 58.4763 36.4397C58.7599 36.5174 59.0562 36.5368 59.3475 36.4968C59.4927 36.4741 59.6281 36.4088 59.7364 36.309C59.8448 36.2092 59.9213 36.0794 59.9563 35.936C59.6134 35.9987 59.2596 35.9308 58.9638 35.7456" fill="white"/>
<path d="M66.9135 34.5748C66.1416 34.7397 65.3918 34.9955 64.6797 35.3371C65.0154 35.4668 65.3008 35.7013 65.4938 36.0062C65.6868 36.3111 65.7772 36.6702 65.7517 37.0306C65.7215 37.169 65.725 37.3126 65.7618 37.4493C65.8439 37.6491 66.0816 37.7241 66.2906 37.7754C66.6661 37.8902 67.0582 37.9404 67.4504 37.9241C67.6466 37.9138 67.8371 37.8545 68.0047 37.7516C68.1723 37.6487 68.3118 37.5054 68.4104 37.3347C68.4672 37.1728 68.5339 37.0144 68.6101 36.8607C69.111 36.0942 70.5993 37.021 71.1372 36.2802C71.3267 36.0192 71.3094 35.6264 71.5564 35.4196C71.6841 35.3295 71.8322 35.2727 71.9873 35.2544C73.0689 35.0385 74.1616 34.8822 75.2603 34.7861C75.7808 34.7406 76.4594 34.5528 76.4637 34.0279C74.5029 33.6411 72.4698 33.9158 70.6804 34.8095C70.0358 35.1339 69.1831 35.8162 68.5621 35.3861C68.3296 35.2251 68.3411 34.7916 68.0211 34.6105C67.6939 34.4254 67.2609 34.5007 66.9135 34.5748Z" fill="white"/>
<path d="M73.3258 35.7795L74.2462 35.9572C74.0768 35.9497 73.9077 35.9785 73.7503 36.0418C73.5928 36.1051 73.4506 36.2014 73.3332 36.3243C73.2157 36.4472 73.1257 36.5938 73.0691 36.7545C73.0125 36.9151 72.9907 37.0859 73.005 37.2557C73.867 37.545 74.8067 37.2635 75.7147 37.3019C76.6226 37.3404 77.6791 37.9919 77.5241 38.8915C77.4772 39.1635 77.3208 39.4353 77.4021 39.699C77.4591 39.8838 77.6214 40.0149 77.713 40.1851C77.9038 40.5398 77.7513 40.9884 77.5103 41.3108C77.2693 41.6332 76.9455 41.8905 76.734 42.2331C76.2079 43.0853 76.5068 44.187 76.8202 45.139C76.9108 45.4987 77.0781 45.8344 77.3105 46.1228C77.7748 46.6186 78.5314 46.6618 79.2089 46.6717C79.7021 46.6789 80.267 46.6545 80.5789 46.2706C80.986 45.7695 80.7013 44.9876 80.9694 44.3995C81.2129 43.8653 81.8331 43.6362 82.3951 43.4737C83.4247 43.1759 84.4739 42.9228 85.4472 42.473C86.6559 41.9146 87.7854 41.0443 89.1138 40.9724C89.4865 40.9522 89.8684 40.9964 90.2274 40.8938C90.5864 40.7912 90.9274 40.4794 90.9003 40.1055C90.877 39.786 90.608 39.5514 90.3977 39.3105C90.1874 39.0697 90.0223 38.6993 90.2156 38.4445L93.6975 37.7911C93.4507 37.1154 93.2584 36.2255 93.8256 35.7856C94.0302 35.6269 94.3042 35.5635 94.4785 35.3716C94.7754 35.0447 94.6261 34.4814 94.2833 34.2033C93.9405 33.9252 93.477 33.8606 93.0379 33.824C91.5111 33.6966 89.9756 33.7808 88.4459 33.865C85.4556 34.0297 82.4653 34.1944 79.475 34.359C78.873 34.3922 78.178 34.3415 77.6259 34.5478C77.1585 34.7225 76.8262 35.0431 76.2916 35.1557C75.3048 35.3637 74.2188 35.223 73.3258 35.7795Z" fill="white"/>
<path d="M89.8151 43.0883C89.7213 43.0734 89.6254 43.0952 89.5472 43.1493C89.4955 43.2065 89.4647 43.2797 89.46 43.3568C89.4005 43.6972 89.4713 44.0476 89.6581 44.3378C89.7533 44.4802 89.8847 44.5943 90.0386 44.6685C90.1925 44.7426 90.3634 44.774 90.5335 44.7594C90.9479 44.7063 91.2533 44.3511 91.6344 44.1778C92.2216 43.9109 94.7156 43.4948 92.9904 42.5585C92.3958 42.2359 92.0117 42.5207 91.5431 42.7332C91.0099 43.0072 90.4125 43.1299 89.8151 43.0883Z" fill="white"/>
<path d="M104.926 35.251C104.725 35.3337 104.556 35.4811 104.447 35.6701C104.396 35.7661 104.385 35.8779 104.414 35.9823C104.443 36.0867 104.512 36.1757 104.605 36.231C104.68 36.2584 104.76 36.2712 104.84 36.2685L105.659 36.2931C106.007 36.3035 106.441 36.378 106.535 36.7148C106.604 36.965 106.449 37.2864 106.636 37.4651C106.717 37.5277 106.814 37.5656 106.915 37.5743C107.185 37.6439 107.467 37.6531 107.74 37.6011C108.336 37.4405 108.023 37.0751 108.211 36.7497C108.498 36.2519 108.448 36.5532 108.954 36.2679C109.328 36.0572 109.811 35.675 109.499 35.1379C108.957 34.204 105.726 34.8498 104.926 35.251Z" fill="white"/>
<path d="M121.093 34.7813L120.618 34.8451C119.545 34.9889 118.466 35.134 117.433 35.4575C117.881 35.6351 118.35 35.7508 118.828 35.8013C119.091 35.8142 119.353 35.8516 119.609 35.9128C120.065 36.0493 120.525 36.4016 120.966 36.2211C121.239 36.1092 121.328 35.8233 121.555 35.6718C121.711 35.5672 122.304 35.3979 122.37 35.2923C122.906 34.4386 121.505 34.7261 121.093 34.7813Z" fill="white"/>
<path d="M123.181 36.9534C122.546 37.3103 121.957 37.7439 121.426 38.2447C121.203 38.4557 120.974 38.7182 120.995 39.0256C121.022 39.4342 121.455 39.6712 121.83 39.8309L123.351 40.4776C123.535 40.2164 123.366 39.8559 123.176 39.5992C122.985 39.3426 122.759 39.0457 122.843 38.7368C122.939 38.3844 123.367 38.2643 123.725 38.2035C124.31 38.1046 125.886 38.1126 125.697 37.1663C125.474 36.0514 123.768 36.624 123.181 36.9534Z" fill="white"/>
<path d="M122.876 100.048C122.731 100.469 122.717 100.965 122.968 101.333C123.249 101.745 123.811 101.899 124.298 101.794C124.782 101.665 125.214 101.386 125.532 100.997C125.823 100.671 126.063 100.302 126.242 99.9029C126.493 99.281 126.669 98.6316 126.768 97.9682L127.241 95.4782C127.346 94.9217 127.342 93.2156 126.324 93.7715C126.046 93.9233 125.402 95.1223 125.11 95.4623C124.585 96.0751 124.515 96.6697 124.239 97.412C123.892 98.3419 123.196 99.1168 122.876 100.048Z" fill="white"/>
<path d="M176.651 112.79C176.318 112.659 175.995 112.505 175.684 112.327C175.372 113.189 175.206 114.096 175.193 115.013L177.473 113.717C177.816 113.522 178.205 113.251 178.197 112.855C178.2 112.806 178.19 112.757 178.168 112.714C178.146 112.67 178.112 112.633 178.071 112.607C178.021 112.587 177.965 112.58 177.911 112.588C177.573 112.617 177.265 112.784 176.946 112.9C176.627 113.016 176.255 113.078 175.962 112.905" fill="white"/>
<path d="M188.677 113.56C188.427 113.628 188.183 113.716 187.946 113.823C187.423 114.091 187.067 114.599 186.597 114.951C186.146 115.288 185.604 115.473 185.071 115.653C184.915 115.792 184.987 116.072 185.157 116.194C185.339 116.298 185.549 116.346 185.759 116.33C186.312 116.342 186.895 116.348 187.379 116.079C187.652 115.901 187.907 115.698 188.142 115.471C188.708 114.996 189.389 114.683 190.062 114.38C190.307 114.287 190.534 114.151 190.731 113.978C191.154 113.56 191.184 112.914 190.574 112.771C190.081 112.656 189.147 113.407 188.677 113.56Z" fill="white"/>
<path d="M193.991 110.073C194.018 109.785 193.98 109.494 193.879 109.223C193.778 108.952 193.618 108.707 193.409 108.507C193.403 109.084 193.385 109.698 193.063 110.175C192.833 110.514 192.472 110.744 192.22 111.067C191.968 111.391 191.856 111.904 192.152 112.188C192.341 112.332 192.571 112.412 192.808 112.415C193.396 112.484 194.077 112.523 194.49 112.096C194.715 111.863 194.825 111.518 195.099 111.347C195.202 111.304 195.293 111.238 195.367 111.154C195.48 110.973 195.3 110.735 195.097 110.669C194.894 110.604 194.671 110.635 194.467 110.573C194.263 110.511 194.076 110.281 194.181 110.094" fill="white"/>
<path d="M184.547 88.9354C184.239 89.0109 183.919 89.0298 183.604 88.9913C183.08 88.8946 182.672 88.4981 182.249 88.1729C181.244 87.4041 180.022 86.9752 178.759 86.9479C177.61 86.9261 176.451 87.2389 175.322 87.0206C175.396 87.4326 175.747 87.7416 176.121 87.9252C176.495 88.1089 176.909 88.2013 177.285 88.3812C177.887 88.6722 178.365 89.1716 178.631 89.7879C178.752 90.072 178.828 90.3812 179.012 90.6293C179.387 91.1364 180.098 91.2477 180.726 91.2063C181.544 91.1522 182.398 90.9158 183.16 91.222C183.742 91.4563 184.159 91.9683 184.645 92.3664C185.131 92.7645 185.816 93.06 186.374 92.7727C185.794 92.5841 185.29 92.2142 184.934 91.7171C184.578 91.22 184.389 90.6216 184.396 90.0093C184.944 90.0599 186.521 90.0403 186.436 89.1056C186.364 88.3135 185.017 88.85 184.547 88.9354Z" fill="white"/>
<path d="M177.384 95.3801C177.481 94.8444 178.013 94.3714 177.847 93.8529C177.733 93.4943 177.319 93.3173 176.944 93.3085C176.569 93.2996 176.201 93.4118 175.827 93.4223C175.583 93.4093 175.338 93.4128 175.095 93.4328C174.351 93.5556 173.892 94.3388 173.191 94.6173C172.765 94.7866 172.286 94.7542 171.843 94.8713C170.837 95.137 170.2 96.0922 169.497 96.8623C168.36 98.1011 166.88 98.9685 165.247 99.3522C164.675 99.4853 164.06 99.5704 163.605 99.9437C163.003 100.438 162.854 101.285 162.72 102.055C162.35 104.18 161.785 106.267 161.031 108.287L163.42 108.593C163.874 108.652 164.345 108.709 164.783 108.573C165.101 108.453 165.402 108.292 165.679 108.094C166.743 107.43 167.934 106.998 169.175 106.826C169.8 106.74 170.456 106.724 171.044 106.958C171.631 107.191 172.134 107.721 172.184 108.354C172.438 108.274 172.708 108.266 172.967 108.329C173.225 108.392 173.461 108.524 173.651 108.712C174.025 109.095 174.27 109.586 174.351 110.117C174.414 110.445 174.477 110.838 174.78 110.976C175.028 111.089 175.312 110.968 175.582 110.946C176.501 110.872 177.263 111.948 178.166 111.763C179.134 111.564 179.372 110.107 180.317 109.815C180.859 109.648 181.621 109.852 181.88 109.345C182.109 108.898 181.652 108.382 181.7 107.882C181.758 107.265 182.481 107.004 183.039 106.741C184.962 105.835 185.874 103.235 184.942 101.318C184.39 100.182 183.304 99.2873 183.103 98.0393C182.949 97.0791 183.326 95.9595 182.716 95.2037C182.406 94.8192 181.882 94.607 181.697 94.1482C181.581 93.8594 181.628 93.5318 181.565 93.2267C181.503 92.9217 181.238 92.6026 180.938 92.6816C180.067 92.9112 179.79 95.6124 179.324 96.2688C178.615 97.2664 177.161 96.6093 177.384 95.3801Z" fill="white"/>
<path d="M161.295 89.9558C160.997 89.872 160.673 89.7894 160.388 89.9092C160.103 90.0289 159.936 90.4493 160.165 90.6579C161.954 90.5878 163.755 90.5183 165.529 90.7624C167.574 91.0437 169.597 91.7405 171.65 91.5355C170.477 91.1879 169.285 90.91 168.08 90.7032L166.07 90.3174C165.53 90.204 164.985 90.1194 164.437 90.064C163.29 89.9689 162.422 90.2734 161.295 89.9558Z" fill="white"/>
<path d="M163.086 83.6945C162.938 83.682 162.754 83.6713 162.677 83.7996C162.603 83.9222 162.688 84.0842 162.648 84.2217C162.594 84.4095 162.349 84.4575 162.156 84.4319C161.963 84.4063 161.755 84.3451 161.584 84.4385C161.497 84.498 161.432 84.5841 161.398 84.684C161.364 84.7838 161.364 84.892 161.396 84.9922C161.466 85.1913 161.579 85.3723 161.727 85.5221C161.98 85.8421 162.268 86.1323 162.586 86.3872C163.201 86.8433 164.034 87.0631 164.421 87.7251C164.476 87.8534 164.56 87.967 164.667 88.0566C164.853 88.175 165.095 88.0849 165.295 87.993L165.997 87.6709C166.124 87.6251 166.236 87.548 166.325 87.4467C166.486 87.2281 166.387 86.9174 166.253 86.6819C166.118 86.4464 165.946 86.2028 165.975 85.9328C166.026 85.4515 166.642 85.2674 166.895 84.8555C167.151 84.4404 166.985 83.9056 167.014 83.4185C167.048 82.8488 167.405 82.1079 166.831 81.6823C166.344 81.3205 165.879 81.6548 165.529 82.0541C164.791 82.8962 164.442 83.8082 163.086 83.6945Z" fill="white"/>
<path d="M167.347 75.1834C167.586 75.6443 168.086 75.9194 168.347 76.3682C168.63 76.8548 168.598 77.4834 168.905 77.9549C169.221 78.4387 169.855 78.6956 170.032 79.2459C170.225 79.8467 169.787 80.5769 170.136 81.1019C170.201 81.1877 170.283 81.2589 170.377 81.3112C170.471 81.3635 170.575 81.3955 170.682 81.4054C170.789 81.4153 170.896 81.4027 170.998 81.3685C171.1 81.3344 171.194 81.2793 171.273 81.2069C171.421 81.0459 171.499 80.8335 171.493 80.615C171.487 80.3966 171.395 80.1892 171.239 80.0373C171.032 79.848 170.736 79.7662 170.563 79.545C170.473 79.4174 170.413 79.271 170.388 79.1168C170.294 78.6719 170.309 78.2107 170.432 77.773C170.478 77.6619 170.49 77.5394 170.465 77.4215C170.388 77.1947 170.082 77.1786 169.867 77.0734C169.38 76.8343 169.392 76.1433 169.477 75.6052C169.42 75.9634 168.15 75.3541 168.017 75.1512C167.753 74.748 167.896 73.9704 167.844 73.5249C167.274 73.8011 167.054 74.6199 167.347 75.1834Z" fill="white"/>
<path d="M154.549 82.275C154.314 82.0113 153.961 81.7355 153.647 81.8945C153.407 82.0158 153.341 82.3491 153.435 82.6018C153.549 82.8473 153.726 83.0584 153.946 83.2144C154.601 83.7571 155.307 84.247 155.878 84.8779C156.901 86.0069 157.443 87.5304 158.555 88.5705C158.779 88.8117 159.075 88.9726 159.398 89.0288C159.722 89.0591 160.086 88.8507 160.123 88.5259C160.154 88.2584 159.968 88.0189 159.787 87.8206C159.355 87.3485 158.882 86.914 158.474 86.4207C158.285 86.2312 158.167 85.9828 158.138 85.7165C158.136 85.4509 158.377 85.1729 158.633 85.2387C158.322 85.1587 158.091 84.6372 157.633 84.5392C157.251 84.4573 157.159 84.695 156.704 84.499C155.837 84.1253 155.156 82.9581 154.549 82.275Z" fill="white"/>
<path d="M174.931 56.6005C174.682 56.5262 174.437 56.4384 174.198 56.3375C173.554 56.1433 172.702 56.6189 172.787 57.2888C172.844 57.734 173.257 58.0341 173.485 58.4202C173.822 58.9928 173.732 59.7191 173.555 60.3603C173.511 60.5589 173.428 60.7466 173.311 60.9123C173.147 61.0873 172.951 61.2289 172.734 61.3294C171.864 61.8193 171.097 62.4739 170.475 63.257C170.408 63.3293 170.361 63.4185 170.339 63.5153C170.308 63.7415 170.535 63.9063 170.663 64.0949C170.947 64.514 170.741 65.078 170.77 65.5843C170.765 65.6559 170.779 65.7274 170.81 65.7921C170.841 65.8567 170.888 65.9124 170.946 65.9538C171.117 66.0412 171.32 65.8927 171.413 65.7237C171.722 65.1628 171.489 64.2625 172.068 63.9921C172.177 63.9409 172.309 63.9193 172.382 63.8228C172.498 63.6697 172.386 63.4431 172.445 63.2601C172.533 62.9853 172.907 62.973 173.194 62.9852C173.689 63.0059 174.183 62.9398 174.655 62.7898C174.84 62.7456 175.008 62.6478 175.139 62.5085C175.311 62.2919 175.296 61.9838 175.262 61.7083C175.089 60.335 174.656 59.0076 173.986 57.7978C174.494 57.863 175.046 57.9194 175.484 57.6536C175.73 57.5047 176.024 57.0595 175.902 56.7564C175.71 56.2772 175.362 56.6806 174.931 56.6005Z" fill="white"/>
<path d="M109.825 64.1534C109.886 64.4809 109.945 64.8256 109.839 65.141C109.732 65.4563 109.396 65.7198 109.078 65.6232C108.832 65.5482 108.69 65.2994 108.515 65.1098C107.543 64.0551 105.348 64.6657 104.748 63.361C104.503 62.8285 104.669 62.1905 104.502 61.6284C104.396 61.3035 104.187 61.023 103.905 60.831C103.624 60.6389 103.287 60.5462 102.947 60.5674C102.638 60.6124 102.336 60.7027 102.053 60.8357C100.153 61.5999 98.1593 62.1009 96.1254 62.325C95.7389 62.3486 95.3566 62.4185 94.9866 62.5331C94.1514 62.8373 93.5808 63.615 93.1748 64.4087C92.7687 65.2024 92.4689 66.0616 91.9245 66.7667C91.3523 67.5078 90.5505 68.0267 89.8026 68.588C89.5145 68.7745 89.2746 69.0271 89.1026 69.325C88.9405 69.6594 88.9496 70.0483 88.9622 70.4201L89.1151 74.9351C89.1347 75.5158 89.1594 76.1173 89.4182 76.637C89.7413 77.286 90.3795 77.711 90.8223 78.2843C91.2742 78.8735 91.5096 79.6014 91.4886 80.3448C91.4792 80.6437 91.4496 80.9973 91.6814 81.185C91.8223 81.2768 91.9873 81.3244 92.1553 81.3219L98.2349 81.8218C99.3044 81.9097 100.49 82.0543 101.188 82.8728C101.517 83.2591 101.782 83.8146 102.287 83.856C102.503 83.8738 102.714 83.7845 102.931 83.7673C103.477 83.7238 103.957 84.1404 104.26 84.5992C104.718 85.2986 104.926 86.1337 104.85 86.9675C104.8 87.4909 104.639 87.9997 104.604 88.5243C104.471 90.5204 106.156 92.2547 106.188 94.255C106.208 95.4316 105.652 96.5309 105.11 97.5741C105.984 98.9055 105.268 100.678 105.616 102.235C105.947 103.712 107.172 104.868 107.478 106.35C107.618 107.028 107.626 107.863 108.221 108.213C108.483 108.341 108.772 108.399 109.063 108.382C110.813 108.403 112.544 108.007 114.113 107.227C114.85 106.86 115.613 106.312 115.742 105.496C115.845 104.838 115.513 104.102 115.851 103.529C116.249 102.854 117.27 102.907 117.856 102.388C118.807 101.546 118.065 99.9393 118.451 98.726C118.797 97.6354 119.989 97.056 120.58 96.0772C120.812 95.6562 120.979 95.2019 121.074 94.7302C121.345 93.6026 121.514 92.4526 121.578 91.2945C121.594 90.5909 121.645 89.8885 121.732 89.1901C122.37 85.2144 126.282 82.5521 127.552 78.7327C127.674 78.3679 127.731 77.8821 127.408 77.6757C127.216 77.5839 126.999 77.561 126.793 77.611L123.99 77.966C123.642 78.01 123.273 78.0513 122.953 77.906C122.633 77.7608 122.404 77.3545 122.574 77.0459C123.05 76.1798 122.071 75.0852 121.636 74.1976C120.464 71.8074 119.069 69.5346 117.469 67.4097C117.367 67.3004 117.303 67.1605 117.287 67.0113L118.082 67.0379C117.814 66.07 117.37 65.0109 116.434 64.6569C115.907 64.4574 115.323 64.5263 114.76 64.5572C113.148 64.6457 111.42 64.4012 109.825 64.1534Z" fill="white"/>
<path d="M114.762 42.3425C115.184 42.7925 115.656 43.2696 116.267 43.348C117.345 43.4865 118.12 42.3668 118.613 41.3941C118.631 41.6421 118.745 41.8731 118.93 42.0381C119.116 42.203 119.358 42.2889 119.605 42.2774C119.871 42.2324 120.125 42.1327 120.351 41.9844C122.486 40.8119 124.879 40.1907 127.312 40.1765C127.289 39.9913 127.335 39.804 127.441 39.6507C127.547 39.4974 127.705 39.3889 127.886 39.3463C128.381 39.2477 128.827 39.6775 129.066 40.1239C129.304 40.5704 129.453 41.0878 129.832 41.422C130.212 41.7562 130.946 41.7416 131.096 41.2577C131.24 40.7931 130.758 40.3969 130.357 40.123C129.957 39.8492 129.535 39.3422 129.805 38.938C131.85 38.4833 133.907 38.0268 136 37.9365C136.356 37.9489 136.711 37.8875 137.043 37.756C137.362 37.5987 137.615 37.2416 137.529 36.8951C137.073 37.0029 136.595 36.9717 136.156 36.8054C135.717 36.6391 135.337 36.3453 135.065 35.9613C137.969 35.7207 141.057 35.5155 143.63 36.8879C143.939 37.5538 142.365 38.1078 142.786 38.7084C142.92 38.9 143.189 38.9224 143.422 38.9268C145.211 38.9601 147.009 38.9928 148.777 38.7217C149.423 38.6225 150.075 38.4826 150.724 38.563C151.804 38.6969 152.729 39.421 153.791 39.6571C154.224 39.7532 154.709 39.7565 155.074 39.5037C155.438 39.2509 155.595 38.6754 155.296 38.3468C156.297 37.3615 157.958 37.6057 159.278 38.0774C160.599 38.5491 161.849 39.3098 163.247 39.415C164.249 39.4904 165.265 39.2196 166.255 39.3917C166.877 39.4999 167.456 39.7779 168.064 39.9488C169.214 40.2719 170.431 40.2037 171.625 40.2192C174.672 40.2605 177.686 40.862 180.517 41.9941C180.885 42.1146 181.222 42.3148 181.505 42.5808C181.769 42.8642 181.903 43.3045 181.726 43.6491L178.8 43.2197C179.076 43.7648 179.789 43.8577 180.368 44.0457C180.947 44.2337 181.548 44.8762 181.2 45.3777C180.572 45.177 180.004 45.8072 179.687 46.3871C179.37 46.9669 178.983 47.6613 178.326 47.6967C177.737 47.7283 177.025 47.2246 176.641 47.6743C177.171 48.3463 177.625 49.0755 177.995 49.8485C178.374 50.6421 178.644 51.642 178.132 52.356C178.051 52.4835 177.929 52.5788 177.786 52.6255C177.367 52.7319 177.095 52.2175 176.795 51.9058C176.417 51.5129 175.845 51.4016 175.333 51.2173C174.82 51.0331 174.281 50.6706 174.241 50.1256C174.216 49.7864 174.394 49.4712 174.525 49.1577C174.746 48.6294 174.842 48.0571 174.807 47.4852C174.779 47.0252 174.65 46.5466 174.321 46.2252C173.992 45.9037 173.425 45.8018 173.071 46.0962C172.907 46.2335 172.775 46.4533 172.561 46.4615C172.183 46.476 171.892 45.8139 171.588 46.0399C171.624 46.2808 171.574 46.5265 171.448 46.7342C170.54 47.5272 169.146 47.1917 167.976 47.4718C167.42 47.6318 166.887 47.8655 166.392 48.1668C166.207 48.2463 166.049 48.3791 165.939 48.5485C165.793 48.8337 165.954 49.1988 166.212 49.3884C166.485 49.5566 166.791 49.6618 167.11 49.6964C168.536 49.9678 169.983 50.3879 171.11 51.3083C172.236 52.2287 172.974 53.7501 172.618 55.1639L169.805 52.4638C169.912 53.5975 169.972 54.7344 169.987 55.8744C170.005 56.0969 169.975 56.3208 169.898 56.5304C169.697 56.9753 169.154 57.1251 168.677 57.2233C168.545 57.2486 168.419 57.3017 168.309 57.3792C168.198 57.4568 168.105 57.5569 168.036 57.6731C167.967 57.7893 167.922 57.9189 167.907 58.0534C167.891 58.188 167.903 58.3243 167.944 58.4536C168.113 59.0077 168.535 59.4397 168.921 59.8701C169.307 60.3006 169.688 60.7898 169.738 61.3672C169.789 61.9445 169.355 62.5953 168.78 62.5551C168.343 62.5247 168.02 62.1323 167.833 61.7347C167.647 61.3371 167.537 60.8942 167.257 60.5564C166.411 59.5338 164.51 59.9719 163.751 58.8818C163.558 59.102 163.424 59.3682 163.362 59.6551C163.3 59.942 163.312 60.2401 163.397 60.521C163.75 60.2992 164.232 60.5053 164.497 60.8276C164.762 61.1499 164.887 61.5631 165.096 61.9252C165.376 62.4137 165.823 62.8467 165.863 63.4094C165.852 63.6222 165.856 63.8355 165.873 64.0478C165.943 64.3888 166.23 64.6336 166.429 64.9186C166.892 65.5817 166.869 66.4928 166.57 67.2452C166.272 67.9976 165.736 68.6263 165.205 69.2359C164.278 70.3006 163.332 71.359 162.233 72.2432C161.919 72.4955 161.584 72.7435 161.389 73.0963C161.194 73.449 161.184 73.9441 161.484 74.2124C161.269 74.2232 160.884 74.3293 160.669 74.3401C160.594 73.4745 160.577 72.6048 160.62 71.7369C159.772 71.3281 158.86 72.423 158.969 73.3612C159.078 74.2994 159.754 75.0522 160.235 75.8639C160.586 76.4575 160.848 77.1496 160.73 77.8302C160.613 78.5108 160.008 79.1387 159.323 79.0787C158.234 78.9832 157.778 77.4118 156.699 77.232C156.604 77.2096 156.504 77.2195 156.415 77.2603C156.255 77.3486 156.227 77.5639 156.218 77.7472C156.174 78.6469 156.136 79.5824 156.485 80.4119C156.997 81.6254 158.318 82.6447 158.041 83.9327C156.548 83.2355 155.771 81.5534 155.419 79.9377C155.066 78.3219 155.008 76.6257 154.376 75.0983C153.896 75.716 152.888 75.2053 152.449 74.5573C152.034 73.9429 151.778 73.2321 151.375 72.6095C150.971 71.9868 150.354 71.4292 149.615 71.395C148.841 71.3591 148.169 71.893 147.578 72.3974C147.093 72.8122 146.594 73.2434 146.31 73.8168C145.897 74.6512 146.005 75.6348 145.985 76.5665C145.964 77.5738 145.751 78.6365 145.068 79.3739C144.384 80.1113 143.123 80.3682 142.369 79.7036C141.976 79.3566 141.785 78.8383 141.615 78.3407C140.797 75.9421 140.116 73.4987 139.575 71.0223C139.448 71.5875 138.954 72.316 138.482 71.9831C138.376 71.8936 138.29 71.7825 138.23 71.6572C137.35 70.1583 135.719 69.2591 134.072 68.72C132.425 68.1809 130.692 67.9295 129.063 67.337C128.15 67.0048 127.278 66.5685 126.464 66.0366C126.256 66.3428 126.135 66.6997 126.113 67.0694C126.091 67.4391 126.169 67.808 126.339 68.1368C126.7 68.7796 127.518 69.1515 128.218 68.9268C128.58 68.8107 128.885 68.5584 129.244 68.4338C129.603 68.3093 130.085 68.3704 130.242 68.7178C130.392 69.0503 130.165 69.4526 130.277 69.7997C130.449 70.3285 131.243 70.3692 131.52 70.8504C131.727 71.2084 131.557 71.6838 131.262 71.9727C130.967 72.2615 130.574 72.42 130.214 72.6211C129.046 73.2736 128.215 74.3874 127.194 75.254C126.174 76.1206 124.733 76.7533 123.517 76.1974C123.807 74.7223 122.058 73.6393 121.736 72.1709C121.63 71.6875 121.685 71.1741 121.534 70.7031C121.315 70.0212 120.712 69.5523 120.218 69.0355C119.619 68.4019 119.152 67.6541 118.845 66.8363C118.538 66.0185 118.398 65.1472 118.431 64.2738C118.458 63.6669 118.569 63.0502 118.432 62.4586C118.294 61.8671 117.806 61.2946 117.202 61.3214C115.822 61.3826 114.084 61.4857 113.36 60.3041C113.102 59.8824 112.989 59.2647 113.363 58.9416C113.627 58.7137 114.016 58.7352 114.362 58.7694L117.47 59.0766C118.198 59.1484 118.984 59.2077 119.608 58.8259C120.232 58.444 120.502 57.4304 119.924 56.9811C119.502 56.6528 118.746 56.6706 118.623 56.1487C118.521 55.714 119 55.2208 118.741 54.8575C118.556 54.597 118.139 54.6693 117.886 54.8646C117.633 55.0598 117.45 55.3454 117.167 55.4932C116.671 55.7526 116.078 55.5058 115.544 55.338C115.011 55.1702 114.295 55.156 114.036 55.654C113.747 56.2109 114.293 56.9407 114.006 57.4987C113.626 58.2366 112.339 57.8166 111.806 58.4512C111.194 59.1795 112.223 60.2654 112.016 61.1958C111.752 61.3269 111.46 61.3871 111.166 61.3706C110.872 61.354 110.588 61.2612 110.341 61.1012C110.097 60.935 109.903 60.7057 109.78 60.4376C109.656 60.1696 109.607 59.8728 109.637 59.5789C109.688 59.1604 109.906 58.7332 109.76 58.3377C109.642 58.0179 109.323 57.8276 109.026 57.6627L106.005 55.9856C105.724 56.5083 106.079 57.1563 106.522 57.5489C106.966 57.9415 107.521 58.2372 107.812 58.7539C107.997 59.1119 108.038 59.527 107.928 59.9146C107.818 60.3021 107.565 60.6328 107.22 60.8391C107.177 60.8691 107.128 60.8893 107.076 60.8983C107.024 60.9074 106.971 60.9051 106.921 60.8916C106.872 60.8632 106.83 60.8253 106.797 60.7802C106.764 60.7352 106.74 60.6838 106.726 60.6293C106.193 59.2589 105.393 57.9078 104.113 57.1919C102.834 56.4761 100.995 56.6233 100.156 57.8291C99.957 58.1156 99.8232 58.4421 99.6496 58.7449C98.7272 60.3537 96.7498 61.1156 94.9023 61.0658C94.7216 61.0759 94.5418 61.0334 94.3844 60.9436C94.0858 60.7364 94.0993 60.2968 94.145 59.9352L94.3389 58.4005C94.3779 58.0923 94.4343 57.7517 94.6771 57.5593C95.0194 57.2882 95.5131 57.4593 95.9489 57.453C96.2792 57.4375 96.5966 57.3203 96.8583 57.1174C97.12 56.9145 97.3133 56.6357 97.412 56.3187C97.5 55.9987 97.4994 55.6605 97.4103 55.3407C97.3212 55.0209 97.1469 54.7317 96.9062 54.504C96.7065 54.3155 96.4383 54.0788 96.5438 53.8247C96.5859 53.7544 96.6429 53.6942 96.7106 53.6484C96.7783 53.6026 96.8552 53.5722 96.9359 53.5595C97.7188 53.3311 98.5461 53.2712 99.3159 53.0017C100.086 52.7322 100.832 52.1808 101.015 51.3826C101.071 51.138 101.096 50.8416 101.315 50.7203C101.425 50.6738 101.542 50.6496 101.662 50.6492C102.079 50.5895 102.459 50.3751 102.727 50.048C102.995 49.721 103.131 49.3051 103.109 48.8821C103.478 48.6232 103.995 48.8137 104.352 49.0891C104.709 49.3646 105.024 49.7285 105.458 49.8473C106.267 50.0686 107.05 49.3487 107.888 49.3453C108.241 49.3439 108.606 49.4692 108.938 49.3491C109.275 49.2273 109.476 48.8909 109.734 48.6423C109.992 48.3938 110.445 48.2422 110.683 48.5099L110.48 46.9992C110.889 47.103 111.315 47.1176 111.73 47.0423C112.145 46.9669 112.54 46.8032 112.886 46.5622L110.262 45.6715C110.171 45.6486 110.087 45.6034 110.017 45.5397C109.826 45.3334 110.016 45.0118 110.171 44.7772C110.542 44.2161 110.604 43.2917 109.994 43.0123C109.578 42.8216 109.099 43.0505 108.7 43.2744L106.784 44.3472C106.724 44.7129 107.169 44.9202 107.445 45.1665C107.611 45.3155 107.73 45.5118 107.783 45.7295C107.837 45.9472 107.824 46.1762 107.746 46.3864C107.668 46.5965 107.529 46.7781 107.346 46.9071C107.163 47.0362 106.946 47.1067 106.723 47.1095C106.849 47.2742 106.936 47.4653 106.979 47.6686C107.022 47.8719 107.018 48.0823 106.969 48.2841L105.681 48.3772C105.536 48.4065 105.386 48.377 105.263 48.2953C105.125 48.1723 105.143 47.9569 105.111 47.7745C105.034 47.3343 104.605 47.0258 104.168 46.9467C103.73 46.8676 103.282 46.969 102.848 47.0691C102.664 47.1357 102.462 47.131 102.281 47.056C102.177 46.9883 102.098 46.8884 102.057 46.7715C101.867 46.3085 102.044 45.7643 102.35 45.3683C102.655 44.9724 103.073 44.6829 103.448 44.3533C104.346 43.5621 105.005 42.5346 105.352 41.3867C106.061 41.0882 106.796 40.6825 107.505 40.3839C108.599 39.8277 109.825 39.589 111.046 39.6946L113.449 39.7407C114.16 39.7544 114.891 39.7719 115.548 40.0442C116.206 40.3166 116.784 40.9058 116.829 41.619C116.843 41.6997 116.836 41.7826 116.809 41.8599C116.782 41.9372 116.736 42.0064 116.675 42.0609C116.582 42.1118 116.477 42.1356 116.371 42.1297C115.708 42.1531 115.425 42.3191 114.762 42.3425Z" fill="white"/>
<path d="M95.6138 49.9057C95.7077 49.8165 95.7752 49.703 95.8091 49.5777C95.8429 49.4524 95.8417 49.3202 95.8055 49.1955C95.5772 49.107 95.3287 49.0842 95.0882 49.1299C94.8476 49.1755 94.6245 49.2877 94.444 49.4538C94.3017 49.5984 94.179 49.7613 94.0792 49.9382C93.7636 50.4556 93.4844 51.0736 93.6673 51.6519C93.6822 51.715 93.7095 51.7744 93.7476 51.8267C93.7857 51.8791 93.8338 51.9232 93.8891 51.9566C93.9711 51.9897 94.0595 52.0036 94.1476 51.9973C94.4954 51.9969 94.8428 51.9754 95.188 51.933C95.3999 51.9069 95.6461 51.8468 95.7281 51.6487C95.8358 51.3882 95.5751 51.0935 95.6511 50.822C95.7011 50.7006 95.7768 50.5916 95.8731 50.5027C95.9208 50.4579 95.9575 50.4025 95.9802 50.341C96.003 50.2795 96.0111 50.2135 96.004 50.1482C95.9733 50.0209 95.7792 49.9486 95.7093 50.0593" fill="white"/>
<path d="M97.4169 47.5573C97.1079 47.4861 96.7895 47.466 96.4741 47.4978C96.4044 47.4958 96.3352 47.5115 96.2732 47.5437C96.2132 47.5882 96.1696 47.6516 96.1494 47.7238C96.0828 47.9386 96.0992 48.1706 96.1953 48.3738C96.2914 48.577 96.4601 48.7364 96.668 48.8202C96.7812 48.8464 96.8897 48.8902 96.9895 48.95C97.2561 49.1578 97.0862 49.5826 97.1366 49.9178C97.1933 50.2942 97.556 50.6102 97.4895 50.985C97.4371 51.2802 97.1232 51.514 97.1737 51.8096C97.2267 52.1192 97.6177 52.2123 97.9295 52.2371C98.1101 52.2688 98.2961 52.2474 98.4649 52.1754C98.6341 52.0592 98.7544 51.8841 98.8027 51.684C98.9303 51.3024 98.9839 50.8997 98.9607 50.4978C98.9593 50.3151 98.9136 50.1354 98.8275 49.9743C98.7337 49.8467 98.6296 49.727 98.5164 49.6164C97.9192 48.9185 98.548 47.8776 97.4169 47.5573Z" fill="white"/>
<path opacity="0.8" d="M175.952 102.227C175.952 102.227 130.21 75.85 110.517 80.8477C110.517 80.8477 68.7825 85.3596 63.9457 95.2856C63.9457 95.2856 50.6791 53.6378 45.8423 52.2495" stroke="#8A8989" stroke-width="1.71581" stroke-miterlimit="10"/>
<path opacity="0.8" d="M63.9457 95.2859C71.6155 74.7397 140.713 51.9722 140.713 51.9722C130.901 54.471 110.517 80.848 110.517 80.848C110.517 80.848 67.4006 49.3345 45.8423 52.2498C45.8423 52.2498 140.782 55.3734 175.952 102.227" stroke="#8A8989" stroke-width="1.71581" stroke-miterlimit="10"/>
<path d="M45.8427 54.2628C46.9494 54.2628 47.8465 53.3615 47.8465 52.2498C47.8465 51.1381 46.9494 50.2368 45.8427 50.2368C44.736 50.2368 43.8389 51.1381 43.8389 52.2498C43.8389 53.3615 44.736 54.2628 45.8427 54.2628Z" fill="#EF293D"/>
<path d="M63.946 97.2989C65.0526 97.2989 65.9498 96.3977 65.9498 95.2859C65.9498 94.1742 65.0526 93.2729 63.946 93.2729C62.8393 93.2729 61.9421 94.1742 61.9421 95.2859C61.9421 96.3977 62.8393 97.2989 63.946 97.2989Z" fill="#EF293D"/>
<path d="M140.713 53.985C141.82 53.985 142.717 53.0837 142.717 51.972C142.717 50.8602 141.82 49.959 140.713 49.959C139.607 49.959 138.709 50.8602 138.709 51.972C138.709 53.0837 139.607 53.985 140.713 53.985Z" fill="#EF293D"/>
<path d="M175.953 104.24C177.059 104.24 177.957 103.339 177.957 102.227C177.957 101.115 177.059 100.214 175.953 100.214C174.846 100.214 173.949 101.115 173.949 102.227C173.949 103.339 174.846 104.24 175.953 104.24Z" fill="#EF293D"/>
<path d="M110.517 82.8607C111.624 82.8607 112.521 81.9594 112.521 80.8477C112.521 79.736 111.624 78.8347 110.517 78.8347C109.411 78.8347 108.514 79.736 108.514 80.8477C108.514 81.9594 109.411 82.8607 110.517 82.8607Z" fill="#EF293D"/>
</g>
<path d="M0.000106812 183.699C0.000106812 179.849 14.4995 176.728 32.3853 176.728C50.2711 176.728 64.7705 179.849 64.7705 183.699C64.7705 186.166 58.8095 188.332 49.8235 189.571V227.764C49.8235 228.622 49.4823 229.445 48.875 230.052C48.2676 230.659 47.4439 231 46.585 231C45.7261 231 44.9023 230.659 44.295 230.052C43.6877 229.445 43.3465 228.622 43.3465 227.764V190.259C39.9226 190.524 36.2332 190.669 32.3853 190.669C28.5374 190.669 24.8481 190.524 21.4242 190.259V227.764C21.4242 228.622 21.083 229.445 20.4756 230.052C19.8683 230.659 19.0446 231 18.1856 231C17.3267 231 16.503 230.659 15.8957 230.052C15.2883 229.445 14.9471 228.622 14.9471 227.764V189.571C5.96115 188.332 0.000106812 186.166 0.000106812 183.699Z" fill="#CCCCCC"/>
<path d="M28.8038 119.896C21.0992 119.896 14.8533 113.654 14.8533 105.954C14.8533 98.2547 21.0992 92.0129 28.8038 92.0129C36.5085 92.0129 42.7544 98.2547 42.7544 105.954C42.7544 113.654 36.5085 119.896 28.8038 119.896Z" fill="#2F2E41"/>
<path d="M63.5211 225.236H69.6294L72.5352 201.691H63.5201L63.5211 225.236Z" fill="#A0616A"/>
<path d="M73.994 223.491H62.2138V230.904H81.4111C81.4111 229.93 81.2193 228.966 80.8465 228.067C80.4738 227.168 79.9274 226.351 79.2387 225.662C78.5499 224.974 77.7323 224.428 76.8324 224.056C75.9325 223.683 74.968 223.491 73.994 223.491Z" fill="#2F2E41"/>
<path d="M73.0562 221.829L78.8845 220.001L74.6037 196.667L66.0022 199.364L73.0562 221.829Z" fill="#A0616A"/>
<path d="M82.5249 217.032L71.2852 220.557L73.506 227.629L91.8226 221.885C91.531 220.956 91.0592 220.094 90.4341 219.347C89.809 218.601 89.0429 217.985 88.1795 217.534C87.3161 217.083 86.3724 216.807 85.4022 216.721C84.432 216.635 83.4543 216.74 82.5249 217.032Z" fill="#2F2E41"/>
<path d="M71.0696 212.435C71.3371 212.435 71.6025 212.387 71.8528 212.293L76.3466 210.609C76.851 210.418 77.2701 210.052 77.5275 209.579C77.7848 209.105 77.8633 208.555 77.7486 208.028C76.6172 202.944 72.7614 185.637 70.6501 176.353C68.146 165.342 31.617 163.296 30.0634 163.214L29.9357 163.208L25.8264 168.368C24.3416 173.137 24.8122 176.858 27.2253 179.425C34.2665 186.917 55.2895 182.269 57.7964 181.68L68.9704 210.993C69.1332 211.417 69.421 211.782 69.7958 212.04C70.1706 212.297 70.6147 212.435 71.0696 212.435Z" fill="#2F2E41"/>
<path d="M64.5926 215.92C64.8601 215.92 65.1254 215.872 65.3758 215.778L69.8695 214.094C70.374 213.903 70.7931 213.537 71.0504 213.064C71.3077 212.59 71.3862 212.039 71.2715 211.513C70.1402 206.429 66.2843 189.122 64.173 179.838C61.669 168.827 25.14 166.781 23.5863 166.699L23.4586 166.692L19.3494 171.853C17.8645 176.622 18.3352 180.343 20.7482 182.91C27.7894 190.402 48.8123 185.753 51.3193 185.165L62.4933 214.477C62.6561 214.902 62.944 215.267 63.3187 215.524C63.6935 215.782 64.1377 215.92 64.5926 215.92Z" fill="#2F2E41"/>
<path d="M77.5925 144.212C77.4275 144.433 77.28 144.666 77.1517 144.91L52.5786 147.497L49.0414 142.65L41.0244 147.029L47.9721 158.79L78.1089 151.111C78.8693 151.852 79.8373 152.344 80.8842 152.522C81.9311 152.699 83.0073 152.554 83.9696 152.106C84.932 151.657 85.7349 150.927 86.2716 150.011C86.8084 149.095 87.0534 148.038 86.9742 146.98C86.895 145.921 86.4953 144.912 85.8283 144.087C85.1612 143.261 84.2585 142.658 83.24 142.357C82.2216 142.057 81.1358 142.073 80.127 142.405C79.1182 142.736 78.2342 143.366 77.5926 144.212L77.5925 144.212Z" fill="#A0616A"/>
<path d="M20.489 173.828C20.8443 173.827 21.1943 173.741 21.5101 173.579C26.4239 171.082 35.992 166.758 44.8646 165.853C45.1683 165.823 45.4623 165.73 45.7279 165.58C45.9935 165.43 46.2248 165.226 46.4069 164.981C46.5926 164.734 46.7253 164.451 46.7967 164.151C46.8682 163.85 46.8769 163.538 46.8223 163.233C46.0216 158.804 44.185 147.526 44.4216 138.487C44.4913 135.708 43.6127 132.987 41.9301 130.773C40.2475 128.559 37.8612 126.983 35.1634 126.304C33.5393 125.876 31.8897 125.551 30.2245 125.331C28.3105 125.089 26.3664 125.298 24.5478 125.942C22.7293 126.585 21.0868 127.646 19.7521 129.038C18.4173 130.43 17.4273 132.115 16.8615 133.958C16.2956 135.801 16.1696 137.751 16.4935 139.652C18.0758 149.019 19.6708 162.102 18.2845 171.235C18.2208 171.645 18.2718 172.064 18.4317 172.446C18.5916 172.828 18.8543 173.159 19.1906 173.401C19.5672 173.677 20.0218 173.827 20.489 173.828Z" fill="#EF293D"/>
<path d="M43.9666 150.002C44.2729 150.002 44.5758 149.939 44.8567 149.817L51.258 147.047C51.8031 146.811 52.2321 146.368 52.4508 145.815C52.6696 145.263 52.6602 144.647 52.4249 144.101L47.4766 132.678C47.178 131.988 46.7462 131.363 46.2058 130.839C45.6655 130.315 45.0272 129.903 44.3274 129.626C43.6277 129.349 42.8801 129.213 42.1275 129.224C41.3749 129.236 40.632 129.396 39.9412 129.695C39.2504 129.994 38.6253 130.425 38.1016 130.966C37.5779 131.506 37.1659 132.144 36.8891 132.844C36.6123 133.543 36.4761 134.29 36.4883 135.042C36.5005 135.794 36.6609 136.537 36.9603 137.227L41.9084 148.65C42.0825 149.051 42.37 149.393 42.7356 149.633C43.1012 149.873 43.529 150.002 43.9666 150.002V150.002Z" fill="#EF293D"/>
<path d="M29.3144 121.446C22.556 121.446 17.0772 115.97 17.0772 109.216C17.0772 102.462 22.556 96.9873 29.3144 96.9873C36.0728 96.9873 41.5515 102.462 41.5515 109.216C41.5515 115.97 36.0728 121.446 29.3144 121.446Z" fill="#A0616A"/>
<path d="M41.7715 103.208C35.9751 106.744 29.4405 108.896 22.6761 109.496L24.6889 107.086C23.2233 107.627 21.6812 107.933 20.1198 107.992C18.5602 107.968 16.9261 107.368 16.041 106.084C15.6462 105.446 15.4117 104.722 15.3574 103.974C15.3032 103.226 15.4308 102.476 15.7294 101.788C16.3429 100.415 17.2976 99.2219 18.5028 98.3221C20.6391 96.6333 23.1602 95.499 25.8416 95.0201C28.5229 94.5412 31.2812 94.7326 33.8705 95.5774C35.6467 96.1079 37.2374 97.1276 38.4605 98.5198C39.6206 99.9499 41.8539 101.224 41.2599 102.967L41.7715 103.208Z" fill="#2F2E41"/>
<path d="M27.257 93.339C31.1166 89.4277 35.7872 86.4094 40.94 84.4966C44.2477 83.272 47.8478 82.5154 51.3058 83.2108C54.7638 83.9063 58.034 86.2969 58.9988 89.6875C59.7876 92.46 58.973 95.4452 57.7488 98.0551C56.5246 100.665 54.8902 103.085 53.9002 105.793C52.89 108.555 52.5862 111.526 53.0164 114.435C53.4465 117.345 54.597 120.101 56.3633 122.453C58.1297 124.806 60.456 126.68 63.131 127.906C65.8061 129.132 68.7453 129.671 71.6816 129.474C68.284 129.929 65.1522 131.525 61.8312 132.374C58.5101 133.224 54.5904 133.166 52.1225 130.788C49.5113 128.273 49.459 124.183 49.5852 120.56C49.7729 115.175 49.9606 109.79 50.1482 104.406C50.2439 101.659 50.3257 98.8252 49.3347 96.262C48.3437 93.6989 45.9885 91.4544 43.2389 91.4777C41.155 91.4954 39.3106 92.757 37.6394 94.0011C35.9682 95.2453 34.1994 96.5727 32.1237 96.7577C30.048 96.9428 27.678 95.4077 27.8333 93.3309" fill="#2F2E41"/>
<path d="M49.8874 170.687C50.6983 170.686 51.4989 170.506 52.2314 170.159C52.964 169.811 53.6104 169.306 54.124 168.679C54.6376 168.052 55.0056 167.319 55.2015 166.532C55.3975 165.746 55.4164 164.926 55.2571 164.131C55.0977 163.337 54.764 162.588 54.28 161.937C53.7959 161.287 53.1736 160.753 52.4579 160.372C51.7422 159.991 50.9508 159.774 50.1409 159.735C49.3309 159.697 48.5225 159.838 47.7739 160.15H47.7738C47.5486 160.245 47.3302 160.355 47.1204 160.481L24.829 150.479L24.2028 144.438L14.594 144.181L14.6576 154.239C14.6694 155.404 15.0568 156.535 15.7624 157.462C16.4679 158.39 17.454 159.066 18.5742 159.389L44.6428 166.804C44.6935 166.976 44.7532 167.146 44.8218 167.312C45.24 168.31 45.9438 169.163 46.8449 169.763C47.746 170.364 48.8044 170.685 49.8874 170.687V170.687Z" fill="#A0616A"/>
<path d="M15.4071 149.11C15.6804 149.249 15.9792 149.329 16.2849 149.348L23.247 149.775C23.8403 149.811 24.4236 149.61 24.8688 149.217C25.3141 148.823 25.5851 148.27 25.6224 147.677L26.3865 135.253C26.4341 134.501 26.3329 133.748 26.0888 133.036C25.8448 132.324 25.4626 131.667 24.9642 131.102C24.4658 130.538 23.8608 130.077 23.1841 129.747C22.5074 129.416 21.772 129.223 21.0202 129.176C20.2684 129.13 19.5149 129.232 18.8027 129.478C18.0905 129.723 17.4337 130.106 16.8698 130.605C16.3059 131.104 15.846 131.709 15.5164 132.386C15.1869 133.063 14.9941 133.798 14.9491 134.549L14.1848 146.973C14.1582 147.41 14.2598 147.845 14.4769 148.224C14.694 148.604 15.0173 148.912 15.4071 149.111L15.4071 149.11Z" fill="#EF293D"/>
<path d="M30.5395 171.943H69.8999C70.3624 171.943 70.806 171.759 71.133 171.432C71.46 171.106 71.6438 170.662 71.6438 170.2C71.6438 169.738 71.46 169.295 71.133 168.968C70.806 168.641 70.3624 168.458 69.8999 168.458H30.5395C30.077 168.458 29.6334 168.641 29.3064 168.968C28.9794 169.295 28.7957 169.738 28.7957 170.2C28.7957 170.662 28.9794 171.106 29.3064 171.432C29.6334 171.759 30.077 171.943 30.5395 171.943Z" fill="#3F3D56"/>
<path d="M87.0894 168.706V144.309C87.0884 143.451 86.7469 142.628 86.1397 142.021C85.5326 141.415 84.7094 141.073 83.8508 141.072H39.508C38.6494 141.073 37.8262 141.415 37.2191 142.021C36.612 142.628 36.2705 143.451 36.2695 144.309V168.706C36.2705 169.564 36.612 170.387 37.2191 170.994C37.8262 171.6 38.6494 171.942 39.508 171.943H83.8508C84.7094 171.942 85.5326 171.6 86.1397 170.994C86.7469 170.387 87.0884 169.564 87.0894 168.706Z" fill="#3F3D56"/>
<path d="M61.6798 159.496C60.0288 159.496 58.6904 158.158 58.6904 156.508C58.6904 154.859 60.0288 153.521 61.6798 153.521C63.3308 153.521 64.6692 154.859 64.6692 156.508C64.6692 158.158 63.3308 159.496 61.6798 159.496Z" fill="white"/>
<defs>
<clipPath id="clip0_1376_61857">
<rect width="197" height="147" fill="white" transform="translate(10)"/>
</clipPath>
</defs>
</svg>
