<svg width="290" height="236" viewBox="0 0 290 236" fill="none" xmlns="http://www.w3.org/2000/svg">
<g clip-path="url(#clip0_1376_61775)">
<path d="M92.8878 214.814L86.6228 220.623L91.6018 212.209C87.6791 205.046 81.2636 198.854 81.2636 198.854C81.2636 198.854 67.9536 211.696 67.9536 221.791C67.9536 231.886 73.9127 235.411 81.2636 235.411C88.6144 235.411 94.5734 231.886 94.5734 221.791C94.5734 219.544 93.9131 217.161 92.8878 214.814Z" fill="#F2F2F2"/>
<path d="M85.0116 220.937V221.435C84.9822 227.219 84.0136 231.731 82.1131 234.909C82.0862 234.956 82.0568 235 82.0299 235.047L81.8171 234.916L81.6141 234.788C83.7226 231.357 84.4686 226.507 84.4955 221.462C84.4979 221.299 84.5004 221.134 84.4979 220.969C84.4906 218.833 84.3609 216.673 84.153 214.574C84.1384 214.412 84.1213 214.247 84.1041 214.082C83.8155 211.313 83.3997 208.667 82.9741 206.369C82.9447 206.207 82.9129 206.044 82.8811 205.884C82.1449 201.997 81.3939 199.181 81.2227 198.558C81.2032 198.482 81.1909 198.44 81.1885 198.43L81.4209 198.363L81.4233 198.361L81.6581 198.294C81.6606 198.304 81.7021 198.445 81.7706 198.706C82.0324 199.681 82.7124 202.329 83.3801 205.822C83.4095 205.98 83.4413 206.143 83.4706 206.305C83.8179 208.17 84.1579 210.254 84.427 212.441C84.4955 212.991 84.5566 213.532 84.6105 214.067C84.63 214.232 84.6472 214.397 84.6618 214.56C84.8869 216.828 85.0034 218.954 85.0116 220.937Z" fill="white"/>
<path d="M83.38 205.822C83.2161 205.844 83.0498 205.867 82.881 205.884C82.4227 205.931 81.9622 205.955 81.5015 205.955C79.5378 205.958 77.5986 205.517 75.8267 204.665C75.724 204.795 75.6213 204.926 75.5161 205.059C77.3801 205.975 79.4273 206.45 81.5015 206.448C81.9933 206.448 82.4849 206.422 82.974 206.369C83.1403 206.352 83.3066 206.33 83.4705 206.305C84.8233 206.11 86.1387 205.709 87.3719 205.115C87.2667 204.98 87.164 204.847 87.0637 204.716C85.8966 205.266 84.6553 205.638 83.38 205.822Z" fill="white"/>
<path d="M84.6103 214.067C84.4415 214.077 84.2727 214.082 84.104 214.082C84.0526 214.084 83.9988 214.084 83.9474 214.084C81.8197 214.084 79.7236 213.566 77.8376 212.574C75.9517 211.582 74.332 210.145 73.1165 208.386C73.0187 208.532 72.9208 208.677 72.8254 208.825C74.0923 210.604 75.762 212.054 77.6961 213.055C79.6302 214.055 81.7732 214.577 83.9474 214.577C84.0159 214.577 84.0844 214.577 84.1529 214.574C84.3241 214.572 84.4929 214.567 84.6617 214.56C87.2733 214.425 89.7911 213.535 91.9141 211.998C91.8358 211.852 91.7575 211.707 91.6768 211.562C89.6135 213.071 87.1577 213.942 84.6103 214.067Z" fill="white"/>
<path d="M85.0116 220.937C84.8404 220.952 84.6691 220.962 84.4979 220.969C84.3145 220.977 84.131 220.981 83.9476 220.981C81.0885 220.978 78.3074 220.042 76.0207 218.314C73.7339 216.586 72.0646 214.158 71.2626 211.394C71.1525 211.594 71.0424 211.791 70.9373 211.99C71.8409 214.748 73.5844 217.148 75.9199 218.851C78.2555 220.553 81.0644 221.471 83.9476 221.474C84.131 221.474 84.3145 221.472 84.4955 221.462C84.6691 221.457 84.8404 221.447 85.0116 221.435C88.47 221.162 91.6963 219.576 94.0373 216.998C93.986 216.816 93.9273 216.636 93.8686 216.454C91.6074 219.051 88.4305 220.659 85.0116 220.937Z" fill="white"/>
<path d="M240.231 12.7555H0.348179C0.256049 12.7551 0.167808 12.718 0.102774 12.6523C0.0377409 12.5866 0.0012207 12.4976 0.0012207 12.4048C0.0012207 12.312 0.0377409 12.223 0.102774 12.1573C0.167808 12.0916 0.256049 12.0545 0.348179 12.0542H240.231C240.323 12.0545 240.411 12.0916 240.476 12.1573C240.541 12.223 240.578 12.312 240.578 12.4048C240.578 12.4976 240.541 12.5866 240.476 12.6523C240.411 12.718 240.323 12.7551 240.231 12.7555Z" fill="#CACACA"/>
<path d="M8.1845 7.84676C10.2996 7.84676 12.0143 6.11999 12.0143 3.98991C12.0143 1.85983 10.2996 0.133057 8.1845 0.133057C6.06938 0.133057 4.35474 1.85983 4.35474 3.98991C4.35474 6.11999 6.06938 7.84676 8.1845 7.84676Z" fill="#3F3D56"/>
<path d="M21.4145 7.84676C23.5296 7.84676 25.2442 6.11999 25.2442 3.98991C25.2442 1.85983 23.5296 0.133057 21.4145 0.133057C19.2994 0.133057 17.5847 1.85983 17.5847 3.98991C17.5847 6.11999 19.2994 7.84676 21.4145 7.84676Z" fill="#3F3D56"/>
<path d="M34.6447 7.84676C36.7598 7.84676 38.4745 6.11999 38.4745 3.98991C38.4745 1.85983 36.7598 0.133057 34.6447 0.133057C32.5296 0.133057 30.8149 1.85983 30.8149 3.98991C30.8149 6.11999 32.5296 7.84676 34.6447 7.84676Z" fill="#3F3D56"/>
<path d="M232.304 2.49234H222.903C222.719 2.49169 222.543 2.41753 222.413 2.28609C222.283 2.15465 222.209 1.97665 222.209 1.79109C222.209 1.60553 222.283 1.42753 222.413 1.29609C222.543 1.16465 222.719 1.09049 222.903 1.08985H232.304C232.395 1.08953 232.486 1.10743 232.571 1.14253C232.656 1.17763 232.733 1.22923 232.798 1.29438C232.863 1.35953 232.914 1.43694 232.949 1.52217C232.984 1.60741 233.002 1.6988 233.002 1.79109C233.002 1.88338 232.984 1.97477 232.949 2.06001C232.914 2.14525 232.863 2.22266 232.798 2.2878C232.733 2.35295 232.656 2.40456 232.571 2.43965C232.486 2.47475 232.395 2.49265 232.304 2.49234Z" fill="#3F3D56"/>
<path d="M232.304 5.12197H222.903C222.719 5.12133 222.543 5.04717 222.413 4.91573C222.283 4.78429 222.209 4.60629 222.209 4.42073C222.209 4.23517 222.283 4.05717 222.413 3.92573C222.543 3.79429 222.719 3.72013 222.903 3.71949H232.304C232.395 3.71917 232.486 3.73707 232.571 3.77217C232.656 3.80727 232.733 3.85887 232.798 3.92402C232.863 3.98917 232.914 4.06658 232.949 4.15181C232.984 4.23705 233.002 4.32844 233.002 4.42073C233.002 4.51302 232.984 4.60441 232.949 4.68965C232.914 4.77488 232.863 4.85229 232.798 4.91744C232.733 4.98259 232.656 5.03419 232.571 5.06929C232.486 5.10439 232.395 5.12229 232.304 5.12197Z" fill="#3F3D56"/>
<path d="M232.304 7.75162H222.903C222.719 7.75098 222.543 7.67681 222.413 7.54537C222.283 7.41393 222.209 7.23593 222.209 7.05037C222.209 6.86481 222.283 6.68681 222.413 6.55537C222.543 6.42393 222.719 6.34977 222.903 6.34913H232.304C232.395 6.34881 232.486 6.36671 232.571 6.40181C232.656 6.43691 232.733 6.48851 232.798 6.55366C232.863 6.61881 232.914 6.69622 232.949 6.78146C232.984 6.8667 233.002 6.95808 233.002 7.05037C233.002 7.14266 232.984 7.23405 232.949 7.31929C232.914 7.40452 232.863 7.48194 232.798 7.54709C232.733 7.61224 232.656 7.66384 232.571 7.69893C232.486 7.73403 232.395 7.75194 232.304 7.75162Z" fill="#3F3D56"/>
<path d="M227.058 28.6118H7.22656V145.906H227.058V28.6118Z" fill="#F0F0F0"/>
<path d="M227.058 50.5673V49.417H184.266V28.6118H183.123V49.417H140.331V28.6118H139.189V49.417H96.396V28.6118H95.2539V49.417H52.4612V28.6118H51.319V49.417H7.22656V50.5673H51.319V73.5517H7.22656V74.702H51.319V97.6864H7.22656V98.8366H51.319V121.817H7.22656V122.967H51.319V145.906H52.4612V122.967H95.2539V145.906H96.396V122.967H139.189V145.906H140.331V122.967H183.123V145.906H184.266V122.967H227.058V121.817H184.266V98.8366H227.058V97.6864H184.266V74.702H227.058V73.5517H184.266V50.5673L227.058 50.5673ZM95.2539 121.817H52.4612V98.8366H95.2539V121.817ZM95.2539 97.6864H52.4612V74.702H95.2539V97.6864ZM95.2539 73.5517H52.4612V50.5673H95.2539V73.5517ZM139.189 121.817H96.396V98.8366H139.189V121.817ZM139.189 97.6864H96.396V74.702H139.189V97.6864ZM139.189 73.5517H96.396V50.5673H139.189V73.5517ZM183.123 121.817H140.331V98.8367H183.123V121.817ZM183.123 97.6864H140.331V74.702H183.123V97.6864ZM183.123 73.5517H140.331V50.5673H183.123V73.5517Z" fill="white"/>
<path d="M75.681 56.1572H60.9741V70.4959H75.681V56.1572Z" fill="#CACACA"/>
<path d="M211.082 102.586H196.375V116.925H211.082V102.586Z" fill="#CACACA"/>
<path d="M80.2498 126.428H65.543V140.767H80.2498V126.428Z" fill="#CACACA"/>
<path d="M84.5963 53.4968H69.8894V67.8355H84.5963V53.4968Z" fill="#EF293D"/>
<path d="M180.125 82.7764H165.418V97.1151H180.125V82.7764Z" fill="#EF293D"/>
<path d="M206.607 235.836H48.3619C48.2517 235.836 48.1461 235.792 48.0682 235.713C47.9903 235.635 47.9465 235.528 47.9465 235.417C47.9465 235.306 47.9903 235.2 48.0682 235.122C48.1461 235.043 48.2517 234.999 48.3619 234.999H206.607C206.717 234.999 206.823 235.043 206.9 235.122C206.978 235.2 207.022 235.306 207.022 235.417C207.022 235.528 206.978 235.635 206.9 235.713C206.823 235.792 206.717 235.836 206.607 235.836Z" fill="#CACACA"/>
<path d="M120.122 227.83L126.091 227.829L128.931 204.668L120.121 204.669L120.122 227.83Z" fill="#FFB8B8"/>
<path d="M130.355 226.114H118.843V233.405H137.603C137.603 231.471 136.839 229.616 135.48 228.249C134.121 226.882 132.277 226.114 130.355 226.114Z" fill="#282828"/>
<path d="M76.8126 221.028L82.2417 223.523L94.3911 203.642L86.3777 199.961L76.8126 221.028Z" fill="#FFB8B8"/>
<path d="M86.8285 223.744L76.3575 218.932L73.3462 225.565L90.4101 233.405C90.8055 232.534 91.0266 231.593 91.0606 230.637C91.0946 229.68 90.941 228.725 90.6084 227.828C90.2758 226.931 89.7708 226.109 89.1223 225.408C88.4737 224.707 87.6943 224.141 86.8285 223.744Z" fill="#282828"/>
<path d="M120.503 221.722H126.205C126.758 221.721 127.29 221.509 127.695 221.13C128.1 220.751 128.348 220.233 128.39 219.678L131.5 136.142C131.523 135.822 131.476 135.501 131.363 135.2C131.25 134.9 131.073 134.629 130.844 134.405C130.616 134.181 130.342 134.009 130.041 133.903C129.74 133.797 129.419 133.758 129.102 133.789L96.1235 137.312C95.589 137.365 95.0923 137.613 94.7277 138.009C94.3631 138.406 94.156 138.924 94.1457 139.464L93.4546 176.313C93.4509 176.513 93.4123 176.71 93.3407 176.897L79.8129 212.187C79.7084 212.46 79.6588 212.75 79.6671 213.043C79.6753 213.335 79.7412 213.622 79.861 213.888C79.9807 214.155 80.1519 214.394 80.3646 214.593C80.5773 214.792 80.8272 214.947 81.0997 215.048L86.8781 217.19C87.38 217.375 87.9322 217.37 88.4305 217.175C88.9289 216.98 89.3391 216.608 89.5839 216.13L106.202 183.623C106.293 183.447 106.359 183.258 106.399 183.064L109.238 169.304C109.32 168.905 109.541 168.549 109.861 168.299C110.181 168.049 110.579 167.921 110.983 167.94C111.388 167.958 111.773 168.121 112.069 168.399C112.365 168.677 112.553 169.052 112.599 169.457L118.326 219.769C118.387 220.307 118.642 220.803 119.044 221.163C119.445 221.524 119.965 221.723 120.503 221.722Z" fill="#282828"/>
<path d="M117.663 70.8249C111.059 70.8249 105.705 65.4391 105.705 58.7954C105.705 52.1517 111.059 46.7659 117.663 46.7659C124.268 46.7659 129.621 52.1517 129.621 58.7954C129.621 65.4391 124.268 70.8249 117.663 70.8249Z" fill="#FFB8B8"/>
<path d="M109.419 143.764C119.996 143.765 128.279 139.335 131.277 137.48H131.277C131.617 137.27 131.893 136.97 132.075 136.612C132.257 136.255 132.337 135.854 132.308 135.454L129.4 93.6398C129.213 90.8178 128.373 88.0789 126.946 85.6422C125.519 83.2055 123.544 81.1384 121.181 79.6064C118.924 78.1035 116.348 77.1529 113.66 76.8306C110.972 76.5084 108.246 76.8235 105.701 77.7506C104.578 78.1407 103.517 78.6935 102.552 79.3917C96.1108 84.2182 93.006 91.4862 94.0343 99.3318C96.1669 115.602 93.7511 137.549 93.4686 139.998L93.4482 140.174L93.6087 140.249C98.5614 142.564 103.957 143.764 109.419 143.764Z" fill="#EF293D"/>
<path d="M94.1951 149.737C93.6232 149.304 93.1526 148.75 92.8165 148.115C92.4804 147.479 92.287 146.777 92.2498 146.058C92.2126 145.339 92.3326 144.62 92.6013 143.953C92.87 143.286 93.2809 142.686 93.805 142.195L86.7884 126.18L95.7024 127.699L100.999 142.675C101.759 143.616 102.15 144.804 102.098 146.015C102.046 147.226 101.554 148.376 100.715 149.246C99.8764 150.117 98.7495 150.648 97.5478 150.738C96.3461 150.829 95.1532 150.472 94.1951 149.737Z" fill="#FFB8B8"/>
<path d="M93.5238 139.844C93.8272 139.844 94.1273 139.781 94.4049 139.657C94.6826 139.534 94.9317 139.354 95.1363 139.129L97.7521 136.258C98.0065 135.977 98.1848 135.636 98.2699 135.265C98.355 134.895 98.3441 134.509 98.2381 134.145L92.2472 113.747L101.362 94.4901C101.762 93.6436 101.86 92.6845 101.64 91.7739C101.446 90.9746 101.015 90.2534 100.405 89.7053C99.7949 89.1572 99.034 88.808 98.2227 88.7037C97.4114 88.5994 96.5877 88.745 95.8603 89.1212C95.1328 89.4975 94.5359 90.0866 94.1481 90.8111L81.8257 110.925C81.3463 111.706 81.065 112.594 81.0065 113.511C80.9479 114.427 81.1139 115.344 81.4899 116.181L91.5243 138.546C91.673 138.879 91.9018 139.169 92.1899 139.391C92.478 139.613 92.8164 139.759 93.1746 139.816C93.2901 139.834 93.4069 139.844 93.5238 139.844Z" fill="#EF293D"/>
<path d="M107.811 69.4007C109.051 69.6146 110.071 67.8783 110.225 66.6569C110.38 65.4356 109.937 64.2665 109.889 63.0531C109.841 61.8397 110.41 60.3651 111.662 60.0053C112.976 59.6281 114.193 60.6879 115.537 60.5605C117.411 60.3829 118.351 58.1773 118.578 56.3932C118.805 54.609 118.984 52.4961 120.606 51.4787C122.224 50.4644 124.224 51.2023 126.083 51.2339C129.224 51.2873 132.422 48.8776 133.156 45.904C132.775 46.0145 132.368 45.994 132 45.8456C131.632 45.6973 131.323 45.4297 131.123 45.0851C130.966 44.7176 130.934 44.308 131.032 43.9201C131.13 43.5323 131.353 43.1879 131.666 42.9408L128.105 44.6947C128.592 43.6984 127.857 42.5636 126.845 42.1863C125.834 41.8091 124.657 41.9785 123.541 42.153C117.966 43.0242 111.509 42.5948 107.811 46.8709C105.249 49.8327 103.141 55.4686 103.429 59.1154C103.717 62.7621 107.811 69.4007 107.811 69.4007Z" fill="#282828"/>
<path d="M171.218 89.9082C170.596 89.5518 169.904 89.337 169.19 89.2788C168.477 89.2206 167.76 89.3205 167.089 89.5714C166.418 89.8223 165.81 90.2181 165.307 90.731C164.805 91.2438 164.421 91.8613 164.181 92.5398L146.783 92.4137L151.706 100.042L167.473 98.9925C168.632 99.3217 169.872 99.2115 170.956 98.6828C172.041 98.1541 172.895 97.2435 173.356 96.1238C173.818 95.004 173.855 93.7528 173.461 92.6072C173.067 91.4617 172.269 90.5013 171.218 89.9082Z" fill="#FFB8B8"/>
<path d="M162.165 98.2227C162.227 97.9239 162.226 97.6154 162.163 97.3169C162.1 97.0183 161.975 96.7363 161.798 96.4888L159.537 93.3273C159.316 93.0195 159.02 92.7742 158.677 92.6149C158.334 92.4556 157.956 92.3877 157.58 92.4177L137.229 91.56L119.626 81.2548C118.883 80.6885 117.97 80.3965 117.039 80.4278C116.221 80.4562 115.432 80.7331 114.774 81.2222C114.116 81.7112 113.621 82.3893 113.354 83.1671C113.087 83.9448 113.061 84.7857 113.279 85.5788C113.497 86.3719 113.948 87.08 114.574 87.6096L131.636 103.847C132.299 104.478 133.106 104.936 133.985 105.181C134.865 105.425 135.791 105.449 136.682 105.249L160.494 99.9273C160.848 99.8487 161.177 99.6826 161.452 99.444C161.726 99.2055 161.937 98.902 162.066 98.5609C162.108 98.4509 162.141 98.3379 162.165 98.2227Z" fill="#EF293D"/>
</g>
<defs>
<clipPath id="clip0_1376_61775">
<rect width="290" height="235.703" fill="white" transform="translate(0 0.133057)"/>
</clipPath>
</defs>
</svg>
