<svg width="265" height="290" viewBox="0 0 265 290" fill="none" xmlns="http://www.w3.org/2000/svg">
<g clip-path="url(#clip0_2255_48663)">
<path d="M365.418 144.805C363.837 123.286 355.711 102.791 342.159 86.1435C328.607 69.4955 310.295 57.5122 289.744 51.8427C269.192 46.1732 247.412 47.0963 227.4 54.485C207.388 61.8736 190.128 75.3646 177.996 93.1011C165.863 110.838 159.455 131.948 159.653 153.526C159.851 175.105 166.645 196.091 179.1 213.596C191.555 231.101 209.06 244.265 229.204 251.276C249.348 258.287 271.141 258.8 291.585 252.744L290.953 250.554C270.956 256.477 249.639 255.975 229.935 249.117C210.232 242.26 193.11 229.384 180.927 212.261C168.744 195.139 162.099 174.612 161.905 153.505C161.712 132.398 167.98 111.75 179.847 94.401C191.714 77.0522 208.596 63.8562 228.171 56.6291C247.746 49.402 269.05 48.4991 289.152 54.0446C309.254 59.5901 327.165 71.3115 340.421 87.5955C353.677 103.879 361.625 123.926 363.172 144.975L365.418 144.805Z" fill="white"/>
<path d="M67.2661 66.8115H68.7723V24.7772C68.7723 21.5824 69.39 18.4189 70.5901 15.4672C71.7902 12.5156 73.5492 9.83363 75.7667 7.57453C77.9842 5.31544 80.6167 3.52343 83.514 2.30082C86.4114 1.0782 89.5167 0.448931 92.6527 0.448929H180.069C183.205 0.448922 186.31 1.07819 189.207 2.30079C192.105 3.5234 194.737 5.3154 196.955 7.57448C199.172 9.83357 200.931 12.5155 202.131 15.4671C203.332 18.4188 203.949 21.5823 203.949 24.7772V255.381C203.949 261.833 201.433 268.021 196.955 272.583C192.476 277.146 186.402 279.709 180.069 279.709H92.6528C86.3193 279.709 80.2452 277.146 75.7668 272.583C71.2883 268.021 68.7723 261.833 68.7723 255.381V96.7322H67.2661V66.8115Z" fill="#3F3D56"/>
<path d="M91.6926 6.77815H103.103C102.579 8.08879 102.378 9.51078 102.52 10.9189C102.662 12.3269 103.141 13.6779 103.916 14.8527C104.691 16.0275 105.738 16.9901 106.964 17.6558C108.19 18.3214 109.558 18.6696 110.948 18.6697H161.027C162.417 18.6696 163.785 18.3214 165.011 17.6558C166.237 16.9901 167.284 16.0275 168.059 14.8527C168.834 13.6779 169.314 12.3269 169.455 10.9189C169.597 9.51077 169.397 8.08878 168.872 6.77814H179.53C184.259 6.77813 188.795 8.69226 192.14 12.0994C195.484 15.5066 197.363 20.1277 197.363 24.9462V255.211C197.363 257.597 196.902 259.96 196.006 262.164C195.11 264.368 193.796 266.371 192.14 268.058C190.484 269.745 188.518 271.083 186.354 271.996C184.191 272.909 181.872 273.379 179.53 273.379H91.6926C89.3507 273.379 87.0317 272.909 84.868 271.996C82.7043 271.083 80.7383 269.745 79.0823 268.058C77.4263 266.371 76.1127 264.368 75.2165 262.164C74.3202 259.96 73.859 257.597 73.859 255.211V24.9462C73.859 22.5604 74.3202 20.1979 75.2165 17.9936C76.1127 15.7893 77.4263 13.7865 79.0823 12.0994C80.7383 10.4124 82.7043 9.07413 84.868 8.1611C87.0317 7.24807 89.3507 6.77815 91.6926 6.77815Z" fill="white"/>
<path d="M93.8917 269.426H177.328C186.915 269.426 194.715 262.334 194.715 253.616V242.171C194.715 235.223 188.503 229.57 180.868 229.57H90.3515C82.7165 229.57 76.505 235.223 76.505 242.171V253.616C76.505 262.334 84.3046 269.426 93.8917 269.426Z" fill="#E5E5E5"/>
<path d="M168.557 77.0599H187.168C187.502 77.0595 187.821 76.9244 188.057 76.6842C188.293 76.444 188.425 76.1184 188.426 75.7788V56.8183C188.425 56.4786 188.293 56.153 188.057 55.9128C187.821 55.6726 187.502 55.5375 187.168 55.5371H168.557C168.223 55.5375 167.904 55.6726 167.668 55.9128C167.432 56.153 167.3 56.4786 167.299 56.8183V75.7788C167.3 76.1184 167.432 76.444 167.668 76.6842C167.904 76.9244 168.223 77.0595 168.557 77.0599Z" fill="#EF293D"/>
<path d="M140.389 77.0599H159C159.334 77.0595 159.653 76.9244 159.889 76.6842C160.125 76.444 160.257 76.1184 160.258 75.7788V56.8183C160.257 56.4786 160.125 56.153 159.889 55.9128C159.653 55.6726 159.334 55.5375 159 55.5371H140.389C140.055 55.5375 139.736 55.6726 139.5 55.9128C139.264 56.153 139.132 56.4786 139.131 56.8183V75.7788C139.132 76.1184 139.264 76.444 139.5 76.6842C139.736 76.9244 140.055 77.0595 140.389 77.0599Z" fill="#E5E5E5"/>
<path d="M112.221 77.0599H130.832C131.166 77.0595 131.485 76.9244 131.721 76.6842C131.957 76.444 132.089 76.1184 132.09 75.7788V56.8183C132.089 56.4786 131.957 56.153 131.721 55.9128C131.485 55.6726 131.166 55.5375 130.832 55.5371H112.221C111.887 55.5375 111.568 55.6726 111.332 55.9128C111.096 56.153 110.964 56.4786 110.963 56.8183V75.7788C110.964 76.1184 111.096 76.444 111.332 76.6842C111.568 76.9244 111.887 77.0595 112.221 77.0599Z" fill="#E5E5E5"/>
<path d="M84.049 77.0599H102.66C102.994 77.0595 103.313 76.9244 103.549 76.6842C103.785 76.444 103.918 76.1184 103.918 75.7788V56.8183C103.918 56.4786 103.785 56.153 103.549 55.9128C103.313 55.6726 102.994 55.5375 102.66 55.5371H84.049C83.7156 55.5375 83.3959 55.6726 83.1602 55.9128C82.9244 56.153 82.7918 56.4786 82.7914 56.8183V75.7788C82.7918 76.1184 82.9244 76.444 83.1602 76.6842C83.3959 76.9244 83.7156 77.0595 84.049 77.0599Z" fill="#E5E5E5"/>
<path d="M168.627 112.162H187.239C187.572 112.162 187.892 112.027 188.127 111.787C188.363 111.546 188.496 111.221 188.496 110.881V91.9206C188.496 91.5809 188.363 91.2553 188.127 91.0151C187.892 90.775 187.572 90.6399 187.239 90.6395H168.627C168.294 90.6399 167.974 90.775 167.738 91.0151C167.503 91.2553 167.37 91.5809 167.37 91.9206V110.881C167.37 111.221 167.503 111.546 167.738 111.787C167.974 112.027 168.294 112.162 168.627 112.162Z" fill="#E5E5E5"/>
<path d="M140.455 112.162H159.067C159.4 112.162 159.72 112.027 159.955 111.787C160.191 111.546 160.324 111.221 160.324 110.881V91.9206C160.324 91.5809 160.191 91.2553 159.955 91.0151C159.72 90.775 159.4 90.6399 159.067 90.6395H140.455C140.122 90.6399 139.802 90.775 139.566 91.0151C139.331 91.2553 139.198 91.5809 139.198 91.9206V110.881C139.198 111.221 139.331 111.546 139.566 111.787C139.802 112.027 140.122 112.162 140.455 112.162Z" fill="#E5E5E5"/>
<path d="M112.287 112.162H130.899C131.232 112.162 131.552 112.027 131.788 111.787C132.023 111.546 132.156 111.221 132.156 110.881V91.9206C132.156 91.5809 132.023 91.2553 131.788 91.0151C131.552 90.775 131.232 90.6399 130.899 90.6395H112.287C111.954 90.6399 111.634 90.775 111.398 91.0151C111.163 91.2553 111.03 91.5809 111.03 91.9206V110.881C111.03 111.221 111.163 111.546 111.398 111.787C111.634 112.027 111.954 112.162 112.287 112.162Z" fill="#EF293D"/>
<path d="M84.1154 112.162H102.727C103.06 112.162 103.38 112.027 103.616 111.787C103.851 111.546 103.984 111.221 103.984 110.881V91.9206C103.984 91.5809 103.851 91.2553 103.616 91.0151C103.38 90.775 103.06 90.6399 102.727 90.6395H84.1154C83.782 90.6399 83.4623 90.775 83.2266 91.0151C82.9908 91.2553 82.8582 91.5809 82.8578 91.9206V110.881C82.8582 111.221 82.9908 111.546 83.2266 111.787C83.4623 112.027 83.782 112.162 84.1154 112.162Z" fill="#EF293D"/>
<path d="M168.693 147.265H187.305C187.638 147.264 187.958 147.129 188.194 146.889C188.429 146.649 188.562 146.323 188.562 145.984V127.023C188.562 126.683 188.429 126.358 188.194 126.118C187.958 125.877 187.638 125.742 187.305 125.742H168.693C168.36 125.742 168.04 125.877 167.805 126.118C167.569 126.358 167.436 126.683 167.436 127.023V145.984C167.436 146.323 167.569 146.649 167.805 146.889C168.04 147.129 168.36 147.264 168.693 147.265Z" fill="#E5E5E5"/>
<path d="M140.522 147.265H159.133C159.467 147.264 159.786 147.129 160.022 146.889C160.258 146.649 160.39 146.323 160.391 145.984V127.023C160.39 126.683 160.258 126.358 160.022 126.118C159.786 125.877 159.467 125.742 159.133 125.742H140.522C140.188 125.742 139.869 125.877 139.633 126.118C139.397 126.358 139.264 126.683 139.264 127.023V145.984C139.264 146.323 139.397 146.649 139.633 146.889C139.869 147.129 140.188 147.264 140.522 147.265Z" fill="#E5E5E5"/>
<path d="M112.354 147.265H130.965C131.299 147.264 131.618 147.129 131.854 146.889C132.09 146.649 132.222 146.323 132.223 145.984V127.023C132.222 126.683 132.09 126.358 131.854 126.118C131.618 125.877 131.299 125.742 130.965 125.742H112.354C112.02 125.742 111.701 125.877 111.465 126.118C111.229 126.358 111.096 126.683 111.096 127.023V145.984C111.096 146.323 111.229 146.649 111.465 146.889C111.701 147.129 112.02 147.264 112.354 147.265Z" fill="#E5E5E5"/>
<path d="M84.1818 147.265H102.793C103.127 147.264 103.446 147.129 103.682 146.889C103.918 146.649 104.05 146.323 104.051 145.984V127.023C104.05 126.683 103.918 126.358 103.682 126.118C103.446 125.877 103.127 125.742 102.793 125.742H84.1818C83.8484 125.742 83.5287 125.877 83.293 126.118C83.0572 126.358 82.9246 126.683 82.9242 127.023V145.984C82.9246 146.323 83.0572 146.649 83.293 146.889C83.5287 147.129 83.8484 147.264 84.1818 147.265Z" fill="#E5E5E5"/>
<path d="M168.756 182.367H187.367C187.701 182.367 188.02 182.232 188.256 181.992C188.492 181.752 188.625 181.426 188.625 181.086V162.126C188.625 161.786 188.492 161.461 188.256 161.22C188.02 160.98 187.701 160.845 187.367 160.845H168.756C168.423 160.845 168.103 160.98 167.867 161.22C167.631 161.461 167.499 161.786 167.498 162.126V181.086C167.499 181.426 167.631 181.752 167.867 181.992C168.103 182.232 168.423 182.367 168.756 182.367Z" fill="#E5E5E5"/>
<path d="M140.588 182.367H159.2C159.533 182.367 159.853 182.232 160.088 181.992C160.324 181.752 160.457 181.426 160.457 181.086V162.126C160.457 161.786 160.324 161.461 160.088 161.22C159.853 160.98 159.533 160.845 159.2 160.845H140.588C140.255 160.845 139.935 160.98 139.699 161.22C139.463 161.461 139.331 161.786 139.33 162.126V181.086C139.331 181.426 139.463 181.752 139.699 181.992C139.935 182.232 140.255 182.367 140.588 182.367Z" fill="#E5E5E5"/>
<path d="M112.42 182.367H131.032C131.365 182.367 131.685 182.232 131.92 181.992C132.156 181.752 132.289 181.426 132.289 181.086V162.126C132.289 161.786 132.156 161.461 131.92 161.22C131.685 160.98 131.365 160.845 131.032 160.845H112.42C112.087 160.845 111.767 160.98 111.531 161.22C111.296 161.461 111.163 161.786 111.163 162.126V181.086C111.163 181.426 111.296 181.752 111.531 181.992C111.767 182.232 112.087 182.367 112.42 182.367Z" fill="#E5E5E5"/>
<path d="M84.252 182.367H102.864C103.197 182.367 103.517 182.232 103.752 181.992C103.988 181.752 104.121 181.426 104.121 181.086V162.126C104.121 161.786 103.988 161.461 103.752 161.22C103.517 160.98 103.197 160.845 102.864 160.845H84.252C83.9186 160.845 83.599 160.98 83.3632 161.22C83.1275 161.461 82.9949 161.786 82.9945 162.126V181.086C82.9949 181.426 83.1275 181.752 83.3632 181.992C83.599 182.232 83.9186 182.367 84.252 182.367Z" fill="#E5E5E5"/>
<path d="M168.557 260.772H187.168C187.502 260.771 187.821 260.636 188.057 260.396C188.293 260.156 188.425 259.83 188.426 259.491V240.53C188.425 240.19 188.293 239.865 188.057 239.625C187.821 239.385 187.502 239.249 187.168 239.249H168.557C168.223 239.249 167.904 239.385 167.668 239.625C167.432 239.865 167.3 240.19 167.299 240.53V259.491C167.3 259.83 167.432 260.156 167.668 260.396C167.904 260.636 168.223 260.771 168.557 260.772Z" fill="white"/>
<path d="M140.389 260.772H159C159.334 260.771 159.653 260.636 159.889 260.396C160.125 260.156 160.257 259.83 160.258 259.491V240.53C160.257 240.19 160.125 239.865 159.889 239.625C159.653 239.385 159.334 239.249 159 239.249H140.389C140.055 239.249 139.736 239.385 139.5 239.625C139.264 239.865 139.132 240.19 139.131 240.53V259.491C139.132 259.83 139.264 260.156 139.5 260.396C139.736 260.636 140.055 260.771 140.389 260.772Z" fill="white"/>
<path d="M112.221 260.772H130.832C131.166 260.771 131.485 260.636 131.721 260.396C131.957 260.156 132.089 259.83 132.09 259.491V240.53C132.089 240.19 131.957 239.865 131.721 239.625C131.485 239.385 131.166 239.249 130.832 239.249H112.221C111.887 239.249 111.568 239.385 111.332 239.625C111.096 239.865 110.964 240.19 110.963 240.53V259.491C110.964 259.83 111.096 260.156 111.332 260.396C111.568 260.636 111.887 260.771 112.221 260.772Z" fill="white"/>
<path d="M84.049 260.772H102.66C102.994 260.771 103.313 260.636 103.549 260.396C103.785 260.156 103.918 259.83 103.918 259.491V240.53C103.918 240.19 103.785 239.865 103.549 239.625C103.313 239.385 102.994 239.249 102.66 239.249H84.049C83.7156 239.249 83.3959 239.385 83.1602 239.625C82.9244 239.865 82.7918 240.19 82.7914 240.53V259.491C82.7918 259.83 82.9244 260.156 83.1602 260.396C83.3959 260.636 83.7156 260.771 84.049 260.772Z" fill="white"/>
<path d="M144.731 220.801C143.342 220.801 142.216 219.654 142.216 218.239C142.216 216.823 143.342 215.676 144.731 215.676C146.12 215.676 147.246 216.823 147.246 218.239C147.246 219.654 146.12 220.801 144.731 220.801Z" fill="#E5E5E5"/>
<path d="M135.676 220.801C134.287 220.801 133.161 219.654 133.161 218.239C133.161 216.823 134.287 215.676 135.676 215.676C137.065 215.676 138.191 216.823 138.191 218.239C138.191 219.654 137.065 220.801 135.676 220.801Z" fill="#E5E5E5"/>
<path d="M126.622 220.801C125.233 220.801 124.107 219.654 124.107 218.239C124.107 216.823 125.233 215.676 126.622 215.676C128.011 215.676 129.137 216.823 129.137 218.239C129.137 219.654 128.011 220.801 126.622 220.801Z" fill="#E5E5E5"/>
<path d="M170.369 201.903C169.842 201.368 169.438 200.721 169.184 200.008C168.93 199.296 168.832 198.536 168.897 197.781C168.963 197.026 169.19 196.295 169.562 195.639C169.935 194.983 170.445 194.419 171.055 193.985L166.143 176.255L175.098 179.157L178.389 195.548C179.036 196.641 179.268 197.937 179.039 199.192C178.811 200.446 178.138 201.572 177.15 202.355C176.161 203.139 174.925 203.525 173.675 203.442C172.425 203.359 171.249 202.811 170.369 201.903Z" fill="#FFB7B7"/>
<path d="M167.825 191.036C167.985 191.067 168.148 191.081 168.311 191.078L176.901 190.902C177.225 190.896 177.543 190.819 177.835 190.677C178.127 190.536 178.386 190.332 178.595 190.081C178.803 189.829 178.957 189.535 179.046 189.219C179.134 188.902 179.156 188.569 179.108 188.243L170.394 128.26C170.134 126.525 169.273 124.942 167.967 123.797C166.662 122.652 164.997 122.02 163.274 122.016C162.186 122.019 161.113 122.274 160.136 122.761C159.159 123.248 158.304 123.955 157.634 124.828C156.964 125.701 156.498 126.718 156.271 127.802C156.043 128.886 156.061 130.008 156.321 131.084L162.498 156.571L166.001 189.012C166.052 189.504 166.257 189.966 166.585 190.331C166.914 190.695 167.348 190.942 167.825 191.036Z" fill="#3F3D56"/>
<path d="M164.23 285.728H159.449L157.174 266.942L164.23 266.942L164.23 285.728Z" fill="#FFB7B7"/>
<path d="M165.449 284.138L156.034 284.137H156.034C154.443 284.137 152.917 284.781 151.791 285.928C150.666 287.074 150.034 288.629 150.034 290.25V290.448L165.449 290.449L165.449 284.138Z" fill="#2F2E41"/>
<path d="M143.844 284.146L139.093 284.689L134.777 266.278L141.789 265.477L143.844 284.146Z" fill="#FFB7B7"/>
<path d="M144.884 282.427L135.528 283.496L135.527 283.496C133.946 283.677 132.5 284.49 131.507 285.757C130.514 287.024 130.056 288.641 130.233 290.252L130.255 290.449L145.574 288.699L144.884 282.427Z" fill="#2F2E41"/>
<path d="M168.717 181.187C168.717 181.187 175.271 195.969 169.483 205.57L166.035 280.323H158.118L150.437 219.938L136.789 237.815L145.104 279.539L135.421 280.093L121.97 237.815C121.97 237.815 132.303 191.197 135.716 190.074L137.958 179.417L168.717 181.187Z" fill="#2F2E41"/>
<path d="M171.634 194.165C171.634 194.165 177.539 201.068 161.941 203.452C146.343 205.835 129.965 202.26 129.575 197.493C129.185 192.726 171.634 194.165 171.634 194.165Z" fill="#CBCBCB"/>
<path d="M93.444 108.526C93.4681 109.2 93.6371 109.86 93.9388 110.461C94.2406 111.061 94.6679 111.586 95.1905 112C95.7132 112.414 96.3186 112.706 96.964 112.856C97.6095 113.005 98.2793 113.009 98.9263 112.866L104.822 121.528L110.863 119.162L102.368 107.049C102.061 105.957 101.372 105.019 100.43 104.411C99.4893 103.802 98.3619 103.567 97.2619 103.749C96.1619 103.931 95.1656 104.518 94.462 105.399C93.7583 106.279 93.3961 107.392 93.444 108.526Z" fill="#FFB7B7"/>
<path d="M143.306 119.671L151.643 115.829L162.323 116.607C162.323 116.607 175.2 131.944 170.13 146.643L173.25 197.89C153.362 203.452 144.322 193.02 129.965 197.493L134.4 140.537L143.306 119.671Z" fill="#3F3D56"/>
<path d="M148.879 123.403L143.307 119.671C143.307 119.671 135.568 118.479 132.475 121.537C132.475 121.537 121.975 122.432 119.439 125.102L116.647 125.744L107.371 113.507L101.695 116.649L109.884 139.293L134.401 140.537L148.879 123.403Z" fill="#3F3D56"/>
<path d="M146.955 111.519C140.578 107.968 138.235 99.8229 141.721 93.3264C145.206 86.83 153.202 84.4424 159.579 87.9937C165.956 91.545 168.299 99.6903 164.813 106.187C161.327 112.683 153.332 115.071 146.955 111.519Z" fill="#FFB7B7"/>
<path d="M164.649 89.2757C162.3 84.9718 159.365 82.1851 154.532 82.2857C149.7 82.3863 145.519 82.1916 143.345 86.5896C142.77 85.4934 142.483 84.2649 142.509 83.0225C141.853 83.4567 141.335 84.0772 141.021 84.8075C140.706 85.5378 140.608 86.3459 140.739 87.1321C140.316 86.8797 139.962 86.5233 139.71 86.0953C139.457 85.6674 139.314 85.1818 139.293 84.6828C137.681 85.2297 137.261 87.5452 138.077 89.0643C138.893 90.5833 140.494 91.4617 142.03 92.2043C143.565 92.9468 142.856 96.8742 143.859 98.2725C144.559 99.2483 144.879 100.444 145.35 101.553C145.37 101.597 145.404 101.633 145.446 101.655C146.527 102.269 147.21 103.366 147.019 104.613C146.996 104.706 147.002 104.804 147.034 104.894C148.403 107.522 149.881 110.27 152.362 111.838C154.353 113.063 156.737 113.438 158.998 112.883C161.534 112.265 163.727 110.552 165.308 108.44C166.889 106.327 167.905 103.83 168.67 101.291C169.347 99.0376 169.84 96.6286 169.303 94.3366C168.765 92.0446 166.945 89.9221 164.638 89.745" fill="#2F2E41"/>
</g>
<defs>
<clipPath id="clip0_2255_48663">
<rect width="264.354" height="290" fill="white" transform="matrix(-1 0 0 1 264.355 0)"/>
</clipPath>
</defs>
</svg>
