<svg width="300" height="295" viewBox="0 0 300 295" fill="none" xmlns="http://www.w3.org/2000/svg">
<path d="M275.159 73.1755C274.224 80.9739 268.433 87.3764 261.178 90.3678C257.52 91.8355 253.543 92.3276 249.637 91.796C245.731 91.2643 242.03 89.7272 238.897 87.3351C231.93 81.8817 228.368 72.4465 220.432 68.5404C214.38 65.5627 207.07 66.4773 200.764 64.1048C188.874 59.5866 184.363 43.2814 190.236 31.9963C196.108 20.7112 209.739 14.9071 222.44 15.7048C235.142 16.5025 246.902 22.8912 256.784 30.9029C263.152 36.0537 269.018 42.0573 272.738 49.3537C276.459 56.6502 277.834 65.4045 275.159 73.148" fill="#EBEBEB"/>
<path d="M125.174 6.09771C120.161 2.02656 111.812 -1.12309 103.471 0.382964C103.037 0.451733 102.597 0.541133 102.164 0.651164H102.102C101.124 0.901144 100.173 1.24665 99.262 1.68271C96.0092 3.2369 92.4332 5.32061 90.1295 8.09202C86.9073 12.0387 85.1613 16.9849 85.1918 22.0797C85.2468 29.3762 91.0578 35.5448 97.6391 38.7151C103.993 41.7753 111.551 42.7175 118.208 40.3655C124.865 38.0136 130.373 32.1132 131.357 25.1056C132.32 18.3799 130.456 10.382 125.174 6.09771Z" fill="#EBEBEB"/>
<path d="M147.25 71.0092C147.25 69.345 148.123 68.3547 149.313 68.3547C150.503 68.3547 151.376 69.345 151.376 71.0092C151.376 72.6734 150.496 73.6568 149.313 73.6568C148.13 73.6568 147.25 72.6528 147.25 71.0092ZM150.867 71.0092C150.867 69.6338 150.241 68.843 149.334 68.843C148.426 68.843 147.8 69.6338 147.8 71.0092C147.8 72.3846 148.426 73.1686 149.334 73.1686C150.241 73.1686 150.867 72.3846 150.867 71.0092Z" fill="#EF293D"/>
<path d="M152.188 71.0092C152.188 69.345 153.054 68.3547 154.251 68.3547C155.447 68.3547 156.314 69.345 156.314 71.0092C156.314 72.6734 155.433 73.6568 154.251 73.6568C153.068 73.6568 152.188 72.6528 152.188 71.0092ZM155.798 71.0092C155.798 69.6338 155.172 68.843 154.264 68.843C153.357 68.843 152.751 69.6338 152.751 71.0092C152.751 72.3846 153.377 73.1686 154.285 73.1686C155.193 73.1686 155.798 72.3846 155.798 71.0092Z" fill="#EF293D"/>
<path d="M158.549 68.3822V73.6018H158.012V68.8636H156.781V68.3822H158.549Z" fill="#EF293D"/>
<path d="M159.797 71.0092C159.797 69.345 160.67 68.3547 161.86 68.3547C163.05 68.3547 163.923 69.345 163.923 71.0092C163.923 72.6734 163.043 73.6568 161.86 73.6568C160.677 73.6568 159.797 72.6528 159.797 71.0092ZM163.407 71.0092C163.407 69.6338 162.781 68.843 161.874 68.843C160.966 68.843 160.32 69.6338 160.32 71.0092C160.32 72.3846 160.945 73.1686 161.853 73.1686C162.761 73.1686 163.407 72.3846 163.407 71.0092Z" fill="#EF293D"/>
<path d="M166.155 68.3822V73.6018H165.619V68.8636H164.395V68.3822H166.155Z" fill="#EF293D"/>
<path d="M142.121 78.3951C142.121 76.7377 142.988 75.7406 144.184 75.7406C145.381 75.7406 146.247 76.7377 146.247 78.3951C146.247 80.0524 145.367 81.0496 144.184 81.0496C143.001 81.0496 142.121 80.0593 142.121 78.3951ZM145.731 78.3951C145.731 77.0197 145.106 76.2357 144.198 76.2357C143.29 76.2357 142.664 76.999 142.664 78.3951C142.664 79.7911 143.29 80.5544 144.198 80.5544C145.106 80.5544 145.731 79.7911 145.731 78.3951Z" fill="#EF293D"/>
<path d="M147.051 78.3951C147.051 76.7377 147.924 75.7406 149.114 75.7406C150.304 75.7406 151.177 76.7377 151.177 78.3951C151.177 80.0524 150.297 81.0496 149.114 81.0496C147.931 81.0496 147.051 80.0593 147.051 78.3951ZM150.661 78.3951C150.661 77.0197 150.035 76.2357 149.128 76.2357C148.22 76.2357 147.594 76.999 147.594 78.3951C147.594 79.7911 148.22 80.5544 149.128 80.5544C150.035 80.5544 150.689 79.7911 150.689 78.3951H150.661Z" fill="#EF293D"/>
<path d="M153.44 75.8231V81.0358H152.904V76.2976H151.652V75.8231H153.44Z" fill="#EF293D"/>
<path d="M154.656 78.3951C154.656 76.7377 155.53 75.7406 156.719 75.7406C157.909 75.7406 158.782 76.7377 158.782 78.3951C158.782 80.0524 157.902 81.0496 156.719 81.0496C155.536 81.0496 154.656 80.0593 154.656 78.3951ZM158.274 78.3951C158.274 77.0197 157.648 76.2357 156.733 76.2357C155.818 76.2357 155.2 76.999 155.2 78.3951C155.2 79.7911 155.825 80.5544 156.733 80.5544C157.641 80.5544 158.253 79.7911 158.253 78.3951H158.274Z" fill="#EF293D"/>
<path d="M161.006 75.8231V81.0358H160.462V76.2976H159.238V75.8231H161.006Z" fill="#EF293D"/>
<path d="M163.717 75.8231V81.0358H163.18V76.2976H161.949V75.8231H163.717Z" fill="#EF293D"/>
<path d="M164.961 78.3951C164.961 76.7377 165.827 75.7406 167.024 75.7406C168.221 75.7406 169.087 76.7377 169.087 78.3951C169.087 80.0524 168.207 81.0496 167.024 81.0496C165.841 81.0496 164.961 80.0593 164.961 78.3951ZM168.571 78.3951C168.571 77.0197 167.946 76.2357 167.038 76.2357C166.13 76.2357 165.504 76.999 165.504 78.3951C165.504 79.7911 166.13 80.5544 167.038 80.5544C167.946 80.5544 168.571 79.7911 168.571 78.3951Z" fill="#EF293D"/>
<path d="M171.322 75.8231V81.0358H170.786V76.2976H169.555V75.8231H171.322Z" fill="#EF293D"/>
<path d="M147.25 85.5539C147.25 83.8897 148.116 82.8994 149.313 82.8994C150.51 82.8994 151.376 83.8897 151.376 85.5539C151.376 87.2182 150.496 88.2084 149.313 88.2084C148.13 88.2084 147.25 87.2182 147.25 85.5539ZM150.86 85.5539C150.86 84.1786 150.235 83.3946 149.327 83.3946C148.419 83.3946 147.793 84.1579 147.793 85.5539C147.793 86.95 148.419 87.7133 149.327 87.7133C150.235 87.7133 150.867 86.95 150.867 85.5539H150.86Z" fill="#EF293D"/>
<path d="M153.619 82.9476V88.1603H153.083V83.4221H151.852V82.9476H153.619Z" fill="#EF293D"/>
<path d="M156.306 82.9476V88.1603H155.77V83.4221H154.539V82.9476H156.306Z" fill="#EF293D"/>
<path d="M158.998 82.9476V88.1603H158.461V83.4221H157.23V82.9476H158.998Z" fill="#EF293D"/>
<path d="M160.242 85.5539C160.242 83.8897 161.116 82.8994 162.305 82.8994C163.495 82.8994 164.368 83.8897 164.368 85.5539C164.368 87.2182 163.488 88.2084 162.305 88.2084C161.122 88.2084 160.242 87.2182 160.242 85.5539ZM163.859 85.5539C163.859 84.1786 163.227 83.3946 162.319 83.3946C161.411 83.3946 160.785 84.1579 160.785 85.5539C160.785 86.95 161.411 87.7133 162.319 87.7133C163.227 87.7133 163.859 86.95 163.859 85.5539Z" fill="#EF293D"/>
<path d="M166.604 82.9476V88.1603H166.068V83.4221H164.844V82.9476H166.604Z" fill="#EF293D"/>
<path d="M167.267 16.3925H167.618L168.643 16.4269C168.87 16.4269 169.117 16.4269 169.399 16.4269L170.3 16.5575L171.352 16.7088L172.528 17.0045C173.449 17.2404 174.352 17.5414 175.231 17.9054L176.709 18.5931C177.218 18.8407 177.706 19.1777 178.229 19.4803C180.827 21.1266 183.013 23.3462 184.62 25.9688C186.227 28.5913 187.212 31.5472 187.499 34.6095C187.579 35.5242 187.599 36.443 187.561 37.3603C187.561 37.8279 187.561 38.3025 187.479 38.7357C187.396 39.169 187.334 39.6778 187.265 40.1592C186.918 42.1135 186.28 44.0048 185.374 45.7708C183.435 49.6044 180.319 52.7158 176.482 54.649C175.98 54.8828 175.492 55.151 174.969 55.3367L173.388 55.9212C172.844 56.0725 172.294 56.2032 171.751 56.3476C171.195 56.4773 170.633 56.576 170.066 56.6433C169.784 56.6845 169.502 56.7464 169.213 56.7602L168.354 56.8014C167.777 56.8484 167.199 56.8645 166.621 56.8496C165.451 56.8148 164.287 56.6768 163.141 56.437C161.174 56.0326 159.278 55.3372 157.516 54.3739H157.681L150.907 57.5992L150.597 57.7436L150.659 57.4066C151.145 54.8438 151.618 52.3521 152.076 49.9314L152.117 50.0758C150.008 47.7344 148.475 44.933 147.639 41.8946C146.803 38.8562 146.688 35.6646 147.303 32.574C147.811 29.9589 148.84 27.4728 150.329 25.2638C151.602 23.3725 153.182 21.708 155.006 20.3399C155.787 19.7494 156.607 19.2118 157.461 18.7307C157.866 18.5106 158.279 18.3387 158.671 18.1461C159.041 17.9482 159.428 17.7825 159.826 17.651C160.522 17.3717 161.237 17.1418 161.965 16.9633C162.576 16.8238 163.197 16.7296 163.822 16.6813C164.379 16.6057 164.874 16.5163 165.3 16.475L166.38 16.4338H167.068H167.288C167.215 16.4409 167.141 16.4409 167.068 16.4338L166.38 16.4819L165.3 16.5507C164.874 16.5988 164.386 16.6951 163.836 16.7776C163.222 16.8737 162.615 17.0116 162.02 17.1902C161.3 17.3729 160.592 17.6026 159.902 17.8779C159.512 18.0176 159.133 18.1853 158.767 18.3799C158.382 18.5725 157.97 18.7513 157.571 18.9782C156.728 19.4591 155.919 19.9967 155.15 20.5874C153.359 21.9516 151.806 23.6039 150.556 25.4769C149.103 27.6667 148.1 30.1236 147.606 32.7046C147.015 35.7431 147.136 38.8775 147.962 41.8608C148.788 44.8442 150.295 47.5951 152.365 49.897L152.42 49.9589V50.0414C151.961 52.4529 151.503 54.9447 151.044 57.5167L150.797 57.331L157.571 54.0988L157.653 54.0575L157.729 54.1057C159.454 55.0458 161.307 55.727 163.23 56.1275C164.363 56.3628 165.513 56.4986 166.669 56.5332C167.24 56.5332 167.81 56.5332 168.374 56.492L169.22 56.4438C169.502 56.4438 169.777 56.3682 170.059 56.3338C170.614 56.2655 171.165 56.1691 171.71 56.045C172.253 55.9006 172.789 55.7699 173.326 55.6186L174.88 55.0547C175.389 54.8553 175.87 54.5871 176.365 54.367C178.268 53.3859 180.01 52.1196 181.53 50.6122C182.968 49.1454 184.177 47.4719 185.12 45.647C186.013 43.9158 186.646 42.0619 186.997 40.1455C187.066 39.671 187.142 39.2102 187.21 38.7701C187.279 38.33 187.265 37.8348 187.3 37.3947C187.34 36.489 187.322 35.5816 187.245 34.6783C186.963 31.6588 185.999 28.7426 184.427 26.1493C182.854 23.5561 180.714 21.3534 178.167 19.7072C177.645 19.4046 177.163 19.0676 176.661 18.8201L175.21 18.1324C174.338 17.7697 173.445 17.4619 172.535 17.2109L171.366 16.9083L170.286 16.6813L169.385 16.5369C169.11 16.5369 168.863 16.5025 168.636 16.4819L167.618 16.4131C167.501 16.4122 167.384 16.4054 167.267 16.3925Z" fill="#455A64"/>
<path d="M172.57 41.6997C172.671 41.5494 172.791 41.4129 172.927 41.294L173.959 40.2555C174.839 39.3891 176.063 38.1925 177.397 36.8996V37.0784C176.022 35.7993 174.791 34.6371 173.904 33.7843L172.865 32.7734C172.731 32.6554 172.61 32.5215 172.508 32.3746C172.661 32.466 172.802 32.5769 172.927 32.7047L174.069 33.633C174.984 34.4514 176.228 35.593 177.604 36.8721L177.7 36.9615L177.604 37.044C176.228 38.3438 174.997 39.5128 174.09 40.345L173.003 41.3284C172.872 41.4668 172.727 41.5913 172.57 41.6997Z" fill="#EF293D"/>
<path d="M172.565 41.8785C172.542 41.8768 172.52 41.8704 172.5 41.8598C172.48 41.8491 172.462 41.8344 172.448 41.8166C172.317 41.6791 172.4 41.5897 172.805 41.1771L173.837 40.1386C174.703 39.279 175.866 38.1581 177.117 36.9615C175.873 35.8062 174.724 34.7196 173.851 33.8806L172.812 32.8628C172.4 32.4502 172.317 32.3677 172.448 32.2301C172.579 32.0926 172.675 32.1751 173.136 32.5465L174.222 33.5024C175.171 34.3551 176.43 35.5036 177.764 36.7483L177.86 36.8308C177.877 36.8467 177.891 36.8658 177.9 36.8871C177.91 36.9083 177.915 36.9313 177.915 36.9546C177.915 37.0037 177.895 37.0507 177.86 37.0853L177.771 37.1747C176.43 38.4469 175.185 39.6229 174.222 40.51L173.136 41.4865C172.799 41.7616 172.695 41.8785 172.565 41.8785Z" fill="#EF293D"/>
<path d="M161.972 32.3471C161.866 32.4934 161.746 32.6292 161.614 32.7528L160.583 33.7843C159.703 34.6577 158.478 35.8474 157.144 37.1403H157.11V36.9615C158.485 38.2406 159.716 39.4028 160.603 40.2487L161.635 41.2665C161.77 41.3859 161.893 41.5196 161.999 41.6653C161.847 41.5695 161.704 41.459 161.573 41.3352C161.277 41.0739 160.885 40.7576 160.486 40.3725C159.572 39.5541 158.32 38.4125 156.945 37.1403L156.855 37.0509L156.945 36.9615H156.979C158.355 35.6617 159.586 34.4927 160.493 33.6537L161.573 32.6771C161.692 32.5516 161.826 32.4408 161.972 32.3471Z" fill="#EF293D"/>
<path d="M161.979 41.8785C161.876 41.8785 161.746 41.7616 161.436 41.5003L160.315 40.5375C159.352 39.6779 158.101 38.5226 156.773 37.2985L156.684 37.2091C156.666 37.1938 156.652 37.1748 156.643 37.1534C156.633 37.132 156.628 37.1087 156.629 37.0853C156.628 37.0625 156.632 37.0397 156.64 37.0184C156.648 36.997 156.661 36.9777 156.677 36.9615L156.773 36.8721C158.149 35.5793 159.38 34.4033 160.322 33.5368L161.409 32.5534C161.842 32.1683 161.938 32.0926 162.096 32.2302C162.254 32.3677 162.137 32.4502 161.739 32.8697L160.707 33.9082C159.834 34.7678 158.678 35.8887 157.427 37.0784C158.671 38.2338 159.82 39.3203 160.693 40.1593L161.732 41.1771C162.137 41.5897 162.227 41.6791 162.096 41.8166C162.082 41.8345 162.064 41.8492 162.044 41.8598C162.024 41.8705 162.002 41.8768 161.979 41.8785Z" fill="#EF293D"/>
<path d="M164.69 43.9003C164.628 43.9003 165.742 40.7507 167.179 36.9134C168.617 33.076 169.827 29.9883 169.889 30.0364C169.951 30.0846 168.837 33.1861 167.399 37.0028C165.962 40.8195 164.752 43.921 164.69 43.9003Z" fill="#EF293D"/>
<path d="M164.716 44.086C164.688 44.092 164.66 44.092 164.633 44.086C164.434 44.0172 164.358 43.9828 167.013 36.8858C169.591 30.0089 169.763 29.9126 169.811 29.8851C169.853 29.8679 169.9 29.8679 169.942 29.8851C170.142 29.9608 170.217 29.9883 167.563 37.0921C166.875 38.9489 166.187 40.6888 165.692 41.9954C164.97 43.7972 164.853 44.086 164.716 44.086Z" fill="#EF293D"/>
<path d="M270.455 105.435H210.859V129.642H270.455V105.435Z" fill="white"/>
<path d="M270.456 129.642C270.456 129.642 270.456 129.498 270.456 129.209C270.456 128.92 270.456 128.521 270.456 127.957C270.456 126.85 270.456 125.206 270.456 123.143C270.456 118.969 270.456 112.924 270.422 105.442L270.484 105.511H210.895L210.991 105.415V129.621L210.895 129.532L253.629 129.573H266.007H266.048H253.67L210.875 129.615H210.785V105.339H210.881L270.47 105.373H270.539V105.435C270.539 112.931 270.539 118.99 270.505 123.178C270.505 125.241 270.505 126.878 270.505 127.992C270.505 128.535 270.505 128.954 270.505 129.236C270.505 129.518 270.456 129.642 270.456 129.642Z" fill="#EF293D"/>
<path d="M230.323 110.978H215.93V125.372H230.323V110.978Z" fill="#EF293D"/>
<path d="M266.338 116.493C266.338 116.542 258.931 116.59 249.792 116.59C240.653 116.59 233.246 116.542 233.246 116.493C233.246 116.445 240.653 116.397 249.792 116.397C258.931 116.397 266.338 116.438 266.338 116.493Z" fill="#EF293D"/>
<path d="M266.338 119.423C266.338 119.478 258.931 119.519 249.792 119.519C240.653 119.519 233.246 119.478 233.246 119.423C233.246 119.368 240.653 119.334 249.792 119.334C258.931 119.334 266.338 119.375 266.338 119.423Z" fill="#EF293D"/>
<path d="M254.531 122.359C254.457 122.368 254.384 122.368 254.311 122.359H253.692H251.408H243.878H236.314H234.03H233.411C233.338 122.368 233.264 122.368 233.191 122.359H233.411H234.03H236.314H243.878H251.408H253.692H254.311H254.531Z" fill="#EF293D"/>
<path d="M253.927 56.5883H191.051V98.0769H253.927V56.5883Z" fill="#FAFAFA"/>
<path d="M253.924 98.0769C253.924 98.0769 253.924 97.8156 253.924 97.3205C253.924 96.8253 253.924 96.0826 253.924 95.1267C253.924 93.2012 253.924 90.3885 253.889 86.785C253.889 79.5711 253.848 69.2213 253.814 56.5883L253.958 56.7327L191.089 56.7671L191.261 56.5677C191.261 71.3325 191.261 85.3752 191.261 98.0563L191.096 97.8913L236.36 97.9738L249.316 98.0219H252.755H253.649H253.958H253.669H252.789H249.351L236.436 98.0632L191.048 98.1457H190.883V97.9807C190.883 85.2996 190.883 71.2568 190.883 56.492V56.3132H191.068L253.938 56.3545H254.082V56.492C254.082 69.1594 254.027 79.5436 254.013 86.7506C254.013 90.3404 254.013 93.1462 253.972 95.0648C253.972 96.007 253.972 96.7359 253.972 97.2311C253.972 97.7262 253.924 98.0769 253.924 98.0769Z" fill="#282828"/>
<path d="M254.212 60.8245C254.212 60.9208 240.169 61.0033 222.846 61.0033C205.523 61.0033 191.48 60.9208 191.48 60.8245C191.48 60.7282 205.523 60.6457 222.846 60.6457C240.169 60.6457 254.212 60.6938 254.212 60.8245Z" fill="#282828"/>
<path d="M216.556 66.8006H196.523V93.2081H216.556V66.8006Z" fill="#EF293D"/>
<path d="M248.449 68.0315C248.449 68.1278 242.163 68.2103 234.406 68.2103C226.649 68.2103 220.363 68.1278 220.363 68.0315C220.363 67.9352 226.649 67.8527 234.406 67.8527C242.163 67.8527 248.449 67.9284 248.449 68.0315Z" fill="#EF293D"/>
<path d="M248.449 71.3325C248.449 71.4288 242.163 71.5113 234.406 71.5113C226.649 71.5113 220.363 71.4288 220.363 71.3325C220.363 71.2362 226.649 71.1537 234.406 71.1537C242.163 71.1537 248.449 71.2362 248.449 71.3325Z" fill="#EF293D"/>
<path d="M248.449 74.6403C248.449 74.7366 242.163 74.8191 234.406 74.8191C226.649 74.8191 220.363 74.7366 220.363 74.6403C220.363 74.544 226.649 74.4615 234.406 74.4615C242.163 74.4615 248.449 74.5371 248.449 74.6403Z" fill="#EF293D"/>
<path d="M248.449 77.9412C248.449 78.0444 242.163 78.12 234.406 78.12C226.649 78.12 220.363 78.0444 220.363 77.9412C220.363 77.8381 226.649 77.7625 234.406 77.7625C242.163 77.7625 248.449 77.845 248.449 77.9412Z" fill="#EF293D"/>
<path d="M247.585 80.6782H236.293V93.2012H247.585V80.6782Z" fill="#EF293D"/>
<path d="M234.441 81.249C232.154 81.4266 229.858 81.4863 227.564 81.4278C225.271 81.4865 222.975 81.4269 220.688 81.249C222.975 81.067 225.271 81.0073 227.564 81.0702C229.858 81.0076 232.154 81.0673 234.441 81.249Z" fill="#EF293D"/>
<path d="M234.441 84.55C232.154 84.7317 229.858 84.7914 227.564 84.7288C225.271 84.7917 222.975 84.732 220.688 84.55C222.975 84.3721 225.271 84.3124 227.564 84.3712C229.858 84.3127 232.154 84.3724 234.441 84.55Z" fill="#EF293D"/>
<path d="M234.441 88.3804C232.154 88.5621 229.858 88.6218 227.564 88.5592C225.271 88.6222 222.975 88.5625 220.688 88.3804C222.975 88.2026 225.271 88.1429 227.564 88.2016C229.858 88.1432 232.154 88.2029 234.441 88.3804Z" fill="#EF293D"/>
<path d="M234.086 92.2865C231.798 92.4686 229.503 92.5283 227.209 92.4653C224.915 92.5279 222.62 92.4682 220.332 92.2865C222.62 92.109 224.915 92.0493 227.209 92.1077C229.503 92.049 231.798 92.1087 234.086 92.2865Z" fill="#EF293D"/>
<path d="M90.2241 78.12C90.2186 78.0284 90.2186 77.9366 90.2241 77.845C90.2241 77.6524 90.2241 77.4048 90.2241 77.0885C90.2241 76.4008 90.2241 75.4449 90.2241 74.2277C90.2241 71.7657 90.1829 68.2722 90.1553 64.0704L90.286 64.208H72.7567C72.7223 64.208 73.0593 63.9054 72.9148 64.0498V67.784C72.9148 69.0149 72.9148 70.2184 72.9148 71.3944C72.9148 73.7532 72.9148 75.995 72.9148 78.0856L72.7704 77.9412L85.3965 78.01L88.9931 78.0513H89.9559H90.2998H89.9903H89.055L85.4859 78.0856L72.7704 78.1544H72.626V78.0169C72.626 75.9538 72.626 73.6844 72.626 71.3256C72.626 70.1496 72.626 68.9462 72.626 67.7152V63.981C72.4816 64.1186 72.8186 63.7816 72.7842 63.816H90.3135H90.4442V63.9466C90.4442 68.1828 90.396 71.7038 90.3754 74.1933C90.3754 75.3899 90.3754 76.3389 90.3754 77.0197C90.3754 77.3223 90.3754 77.563 90.3754 77.7555C90.3399 77.8827 90.2891 78.0051 90.2241 78.12Z" fill="#EF293D"/>
<path d="M87.9843 72.9967C87.5963 72.706 87.2308 72.3865 86.8909 72.0408C86.2032 71.4219 85.2679 70.521 84.1401 69.4482H84.3464L81.5956 72.6322L81.4856 72.756L81.3824 72.8729L81.2655 72.7766L79.5463 71.3531H79.7457C78.2328 72.7285 76.9055 73.8701 75.9565 74.6884L74.8356 75.6374C74.7068 75.7627 74.5609 75.8692 74.4023 75.9538C74.5042 75.8083 74.6244 75.6765 74.7599 75.5618L75.8259 74.544C76.7405 73.6844 78.0334 72.4809 79.5394 71.1055L79.6357 71.0161L79.7389 71.0986L81.465 72.5153H81.2449L81.3618 72.3846L84.1676 69.2281L84.2639 69.1181L84.3739 69.2212C85.4742 70.3147 86.3957 71.2431 87.0353 71.9032C87.3812 72.2409 87.6987 72.6067 87.9843 72.9967Z" fill="#EF293D"/>
<path d="M78.7949 68.1691C78.7949 68.1691 78.6986 68.0659 78.5198 67.9078C78.2738 67.6854 77.9628 67.548 77.6327 67.5158C77.3963 67.495 77.1584 67.5317 76.9393 67.6227C76.7202 67.7137 76.5263 67.8563 76.3742 68.0384C76.1905 68.2599 76.0789 68.5324 76.0546 68.8192C76.0302 69.1059 76.0942 69.3933 76.238 69.6426C76.3818 69.892 76.5984 70.0913 76.8588 70.2139C77.1192 70.3365 77.4108 70.3765 77.6946 70.3284C77.9293 70.2899 78.151 70.1946 78.3404 70.0508C78.5297 69.9069 78.6811 69.719 78.7811 69.5032C78.9172 69.2015 78.9533 68.8642 78.8843 68.5404C78.8452 68.4191 78.8153 68.2949 78.7949 68.1691C78.7949 68.1691 78.9118 68.2654 79.0012 68.5061C79.1333 68.8538 79.1333 69.238 79.0012 69.5857C78.9014 69.8498 78.7349 70.0836 78.518 70.2644C78.3011 70.4451 78.0411 70.5667 77.7634 70.6173C77.4209 70.6803 77.0674 70.636 76.751 70.4907C76.4346 70.3453 76.1708 70.1058 75.9955 69.805C75.8203 69.5041 75.7421 69.1565 75.7718 68.8096C75.8014 68.4626 75.9373 68.1333 76.161 67.8665C76.3449 67.6525 76.5804 67.4891 76.8452 67.3916C77.11 67.2941 77.3952 67.2659 77.674 67.3095C78.0429 67.3636 78.38 67.5492 78.623 67.8321C78.7743 68.0247 78.8087 68.1622 78.7949 68.1691Z" fill="#EF293D"/>
<path d="M70.6618 74.2896C70.6618 74.2896 70.5586 74.1864 70.3867 74.0283C70.1399 73.8071 69.8293 73.6699 69.4996 73.6363C69.2632 73.6155 69.0253 73.6522 68.8062 73.7432C68.5871 73.8342 68.3932 73.9768 68.2411 74.1589C68.0548 74.3802 67.941 74.6534 67.9153 74.9416C67.8896 75.2297 67.9531 75.5188 68.0973 75.7696C68.2414 76.0204 68.4593 76.2207 68.7212 76.3435C68.9831 76.4663 69.2765 76.5055 69.5615 76.4558C69.7956 76.4156 70.0164 76.3187 70.2046 76.1737C70.3927 76.0287 70.5426 75.8399 70.6412 75.6237C70.779 75.3226 70.8176 74.9854 70.7512 74.6609C70.703 74.4271 70.6343 74.3033 70.6618 74.2896C70.6893 74.2758 70.7787 74.3859 70.8681 74.6265C70.9994 74.9768 70.9994 75.3628 70.8681 75.7131C70.7667 75.9756 70.5997 76.2076 70.3829 76.387C70.1662 76.5664 69.907 76.6872 69.6302 76.7378C69.2884 76.7989 68.9359 76.7534 68.6208 76.6073C68.3057 76.4612 68.0432 76.2217 67.869 75.9213C67.6947 75.6208 67.6171 75.274 67.6468 74.928C67.6765 74.5819 67.8119 74.2534 68.0348 73.987C68.2187 73.773 68.4542 73.6096 68.719 73.5121C68.9837 73.4146 69.269 73.3864 69.5477 73.43C69.9179 73.4853 70.2552 73.6735 70.4967 73.9595C70.6343 74.1452 70.6755 74.2827 70.6618 74.2896Z" fill="#EF293D"/>
<path d="M81.466 78.739C81.4752 78.8373 81.4752 78.9363 81.466 79.0347C81.466 79.2616 81.466 79.5504 81.466 79.9012C81.466 80.6989 81.466 81.7992 81.5141 83.1677V83.264H81.4179C77.7937 83.264 72.0927 83.319 65.6971 83.319H64.7344V83.1608C64.7344 78.175 64.7344 73.6569 64.7756 70.2528V70.1359H64.8925L69.5964 70.184L70.8755 70.2184C71.0239 70.199 71.1741 70.199 71.3225 70.2184C71.1737 70.2304 71.0243 70.2304 70.8755 70.2184L69.5964 70.2528L64.8925 70.3009L65.0095 70.1909C65.0095 73.6294 65.0095 78.1132 65.0507 83.0989L64.8925 82.9408H65.6971C72.0927 82.9408 77.7937 82.9408 81.4179 83.0027L81.3147 83.0989C81.3147 81.7235 81.3491 80.6301 81.3628 79.8324C81.3628 79.4817 81.3628 79.1928 81.3628 78.9659C81.3863 78.8857 81.421 78.8093 81.466 78.739Z" fill="#EF293D"/>
<path d="M71.7624 77.2535C70.9731 78.1135 70.1252 78.9177 69.2248 79.6605C68.3939 80.4779 67.5069 81.2362 66.5703 81.9299C67.2881 81.0049 68.1069 80.163 69.0116 79.4198C69.8458 78.5983 70.7683 77.8718 71.7624 77.2535Z" fill="#EF293D"/>
<path d="M75.2959 80.7814C75.2409 80.8433 74.7664 80.5407 74.3125 80.0249C73.8586 79.5092 73.6248 79.0003 73.6798 78.959C73.7348 78.9177 74.1062 79.3235 74.5463 79.8186C74.9864 80.3138 75.3578 80.7126 75.2959 80.7814Z" fill="#EF293D"/>
<path d="M95.8795 90.9042C95.8795 90.9042 95.8795 90.6842 95.8795 90.2578C95.8795 89.8314 95.8795 89.1987 95.8795 88.3804C95.8795 86.7299 95.8795 84.3161 95.8795 81.2215C95.8795 75.0322 95.8382 66.0922 95.8107 55.1854L95.9345 55.3091H36.0501L36.2082 55.151C36.2082 67.8046 36.2082 79.908 36.2082 90.8699L36.0638 90.7254L79.1341 90.7942L91.5126 90.8355H94.8136H95.962H95.687H94.848H91.5814L79.1685 90.9524L36.0019 91.028H35.8438V90.8767C35.8438 79.8736 35.8438 67.8114 35.8438 55.1578V54.9997H36.0088H95.8933H96.017V55.1922C96.017 66.1541 95.9689 75.0941 95.9483 81.3246C95.9483 84.4055 95.9483 86.8262 95.9483 88.456C95.9483 89.2675 95.9483 89.8864 95.9483 90.3128C95.9483 90.7392 95.8795 90.9042 95.8795 90.9042Z" fill="#EF293D"/>
<path d="M59.0883 63.5478H40.8438V64.8819H59.0883V63.5478Z" fill="#EF293D"/>
<path d="M58.3433 70.1428C58.3433 70.2253 54.3684 70.3009 49.4583 70.3009C44.5482 70.3009 40.5664 70.2253 40.5664 70.1428C40.5664 70.0602 44.5482 69.9846 49.4583 69.9846C54.3684 69.9846 58.3433 70.0534 58.3433 70.1428Z" fill="#EF293D"/>
<path d="M58.3433 73.0723C58.3433 73.1617 54.3684 73.2305 49.4583 73.2305C44.5482 73.2305 40.5664 73.1617 40.5664 73.0723C40.5664 72.9829 44.5482 72.9142 49.4583 72.9142C54.3684 72.9142 58.3433 73.0104 58.3433 73.0723Z" fill="#EF293D"/>
<path d="M58.3433 76.0501C58.3433 76.1395 54.3684 76.2082 49.4583 76.2082C44.5482 76.2082 40.5664 76.1395 40.5664 76.0501C40.5664 75.9607 44.5482 75.8919 49.4583 75.8919C54.3684 75.8919 58.3433 75.9607 58.3433 76.0501Z" fill="#EF293D"/>
<path d="M58.3433 79.0072C58.3433 79.0966 54.3684 79.1653 49.4583 79.1653C44.5482 79.1653 40.5664 79.0966 40.5664 79.0072C40.5664 78.9178 44.5482 78.849 49.4583 78.849C54.3684 78.849 58.3433 78.9178 58.3433 79.0072Z" fill="#EF293D"/>
<path d="M48.5712 81.9023C47.2434 82.0612 45.905 82.1141 44.5688 82.0605C43.2326 82.1141 41.8942 82.0612 40.5664 81.9023C41.8942 81.7435 43.2326 81.6906 44.5688 81.7442C45.905 81.6906 47.2434 81.7435 48.5712 81.9023Z" fill="#EF293D"/>
<path d="M224.421 147.075C224.421 147.13 216.643 147.171 207.05 147.171C197.457 147.171 189.672 147.13 189.672 147.075C189.672 147.02 197.45 146.972 207.05 146.972C216.65 146.972 224.421 147.02 224.421 147.075Z" fill="#EF293D"/>
<path d="M224.421 150.156C224.421 150.211 216.643 150.252 207.05 150.252C197.457 150.252 189.672 150.211 189.672 150.156C189.672 150.101 197.45 150.053 207.05 150.053C216.65 150.053 224.421 150.094 224.421 150.156Z" fill="#EF293D"/>
<path d="M212.046 153.23H211.819H211.165L208.765 153.264H200.864H192.955L190.555 153.23H189.868H189.641C189.716 153.22 189.792 153.22 189.868 153.23H190.555L192.955 153.196H200.864H208.765L211.165 153.23H211.819C211.894 153.22 211.97 153.22 212.046 153.23Z" fill="#EF293D"/>
<path d="M227.641 161.262C227.641 161.18 227.895 161.118 228.198 161.118C228.5 161.118 228.762 161.18 228.762 161.262C228.762 161.345 228.507 161.407 228.198 161.407C227.888 161.407 227.641 161.338 227.641 161.262Z" fill="#EF293D"/>
<path d="M225.414 161.262C225.414 161.18 225.662 161.118 225.971 161.118C226.281 161.118 226.528 161.18 226.528 161.262C226.528 161.345 226.281 161.407 225.971 161.407C225.662 161.407 225.414 161.338 225.414 161.262Z" fill="#EF293D"/>
<path d="M223.18 161.262C223.18 161.18 223.434 161.118 223.737 161.118C224.039 161.118 224.294 161.18 224.294 161.262C224.294 161.345 224.046 161.407 223.737 161.407C223.427 161.407 223.18 161.338 223.18 161.262Z" fill="#EF293D"/>
<path d="M220.949 161.262C220.949 161.18 221.197 161.118 221.506 161.118C221.816 161.118 222.063 161.18 222.063 161.262C222.063 161.345 221.816 161.407 221.506 161.407C221.197 161.407 220.949 161.338 220.949 161.262Z" fill="#EF293D"/>
<path d="M218.715 161.262C218.715 161.18 218.962 161.118 219.272 161.118C219.581 161.118 219.829 161.18 219.829 161.262C219.829 161.345 219.581 161.407 219.272 161.407C218.962 161.407 218.715 161.338 218.715 161.262Z" fill="#EF293D"/>
<path d="M216.488 161.262C216.488 161.18 216.736 161.118 217.045 161.118C217.355 161.118 217.602 161.18 217.602 161.262C217.602 161.345 217.355 161.407 217.045 161.407C216.736 161.407 216.488 161.338 216.488 161.262Z" fill="#EF293D"/>
<path d="M214.25 161.262C214.25 161.18 214.498 161.118 214.807 161.118C215.116 161.118 215.364 161.18 215.364 161.262C215.364 161.345 215.116 161.407 214.807 161.407C214.498 161.407 214.25 161.338 214.25 161.262Z" fill="#EF293D"/>
<path d="M212.023 161.262C212.023 161.18 212.271 161.118 212.58 161.118C212.89 161.118 213.137 161.18 213.137 161.262C213.137 161.345 212.89 161.407 212.58 161.407C212.271 161.407 212.023 161.338 212.023 161.262Z" fill="#EF293D"/>
<path d="M209.789 161.262C209.789 161.18 210.037 161.118 210.346 161.118C210.656 161.118 210.903 161.18 210.903 161.262C210.903 161.345 210.656 161.407 210.346 161.407C210.037 161.407 209.789 161.338 209.789 161.262Z" fill="#EF293D"/>
<path d="M207.559 161.262C207.559 161.18 207.806 161.118 208.116 161.118C208.425 161.118 208.673 161.18 208.673 161.262C208.673 161.345 208.418 161.407 208.116 161.407C207.813 161.407 207.559 161.338 207.559 161.262Z" fill="#EF293D"/>
<path d="M205.324 161.262C205.324 161.18 205.572 161.118 205.881 161.118C206.191 161.118 206.438 161.18 206.438 161.262C206.438 161.345 206.191 161.407 205.881 161.407C205.572 161.407 205.324 161.338 205.324 161.262Z" fill="#EF293D"/>
<path d="M203.09 161.262C203.09 161.18 203.344 161.118 203.654 161.118C203.963 161.118 204.211 161.18 204.211 161.262C204.211 161.345 203.956 161.407 203.654 161.407C203.351 161.407 203.09 161.338 203.09 161.262Z" fill="#EF293D"/>
<path d="M200.891 161.262C200.891 161.18 201.138 161.118 201.448 161.118C201.757 161.118 202.005 161.18 202.005 161.262C202.005 161.345 201.757 161.407 201.448 161.407C201.138 161.407 200.891 161.338 200.891 161.262Z" fill="#EF293D"/>
<path d="M198.625 161.262C198.625 161.18 198.879 161.118 199.189 161.118C199.498 161.118 199.746 161.18 199.746 161.262C199.746 161.345 199.492 161.407 199.189 161.407C198.886 161.407 198.625 161.338 198.625 161.262Z" fill="#EF293D"/>
<path d="M196.398 161.262C196.398 161.18 196.646 161.118 196.955 161.118C197.265 161.118 197.512 161.18 197.512 161.262C197.512 161.345 197.265 161.407 196.955 161.407C196.646 161.407 196.398 161.338 196.398 161.262Z" fill="#EF293D"/>
<path d="M194.164 161.262C194.164 161.18 194.419 161.118 194.728 161.118C195.037 161.118 195.285 161.18 195.285 161.262C195.285 161.345 195.031 161.407 194.728 161.407C194.425 161.407 194.164 161.338 194.164 161.262Z" fill="#EF293D"/>
<path d="M191.949 161.262C191.949 161.18 192.197 161.118 192.506 161.118C192.816 161.118 193.063 161.18 193.063 161.262C193.063 161.345 192.816 161.407 192.506 161.407C192.197 161.407 191.949 161.338 191.949 161.262Z" fill="#EF293D"/>
<path d="M189.699 161.262C189.699 161.18 189.954 161.118 190.256 161.118C190.559 161.118 190.82 161.18 190.82 161.262C190.82 161.345 190.566 161.407 190.256 161.407C189.947 161.407 189.699 161.338 189.699 161.262Z" fill="#EF293D"/>
<path d="M187.473 161.262C187.473 161.18 187.72 161.118 188.03 161.118C188.339 161.118 188.587 161.18 188.587 161.262C188.587 161.345 188.339 161.407 188.03 161.407C187.72 161.407 187.473 161.338 187.473 161.262Z" fill="#EF293D"/>
<path d="M185.238 161.262C185.238 161.18 185.493 161.118 185.795 161.118C186.098 161.118 186.359 161.18 186.359 161.262C186.359 161.345 186.105 161.407 185.795 161.407C185.486 161.407 185.238 161.338 185.238 161.262Z" fill="#EF293D"/>
<path d="M183.012 161.262C183.012 161.18 183.259 161.118 183.569 161.118C183.878 161.118 184.126 161.18 184.126 161.262C184.126 161.345 183.878 161.407 183.569 161.407C183.259 161.407 183.012 161.338 183.012 161.262Z" fill="#EF293D"/>
<path d="M180.773 161.262C180.773 161.18 181.028 161.118 181.33 161.118C181.633 161.118 181.894 161.18 181.894 161.262C181.894 161.345 181.64 161.407 181.33 161.407C181.021 161.407 180.773 161.338 180.773 161.262Z" fill="#EF293D"/>
<path d="M178.547 161.262C178.547 161.18 178.794 161.118 179.104 161.118C179.413 161.118 179.661 161.18 179.661 161.262C179.661 161.345 179.413 161.407 179.104 161.407C178.794 161.407 178.547 161.338 178.547 161.262Z" fill="#EF293D"/>
<path d="M176.312 161.262C176.312 161.18 176.567 161.118 176.87 161.118C177.172 161.118 177.427 161.18 177.427 161.262C177.427 161.345 177.179 161.407 176.87 161.407C176.56 161.407 176.312 161.338 176.312 161.262Z" fill="#EF293D"/>
<path d="M174.07 161.262C174.07 161.18 174.318 161.118 174.627 161.118C174.937 161.118 175.184 161.18 175.184 161.262C175.184 161.345 174.937 161.407 174.627 161.407C174.318 161.407 174.07 161.338 174.07 161.262Z" fill="#EF293D"/>
<path d="M171.848 161.262C171.848 161.18 172.095 161.118 172.405 161.118C172.714 161.118 172.962 161.18 172.962 161.262C172.962 161.345 172.714 161.407 172.405 161.407C172.095 161.407 171.848 161.338 171.848 161.262Z" fill="#EF293D"/>
<path d="M169.621 161.262C169.621 161.18 169.869 161.118 170.178 161.118C170.488 161.118 170.735 161.18 170.735 161.262C170.735 161.345 170.488 161.407 170.178 161.407C169.869 161.407 169.621 161.338 169.621 161.262Z" fill="#EF293D"/>
<path d="M167.387 161.262C167.387 161.18 167.634 161.118 167.944 161.118C168.253 161.118 168.501 161.18 168.501 161.262C168.501 161.345 168.253 161.407 167.944 161.407C167.634 161.407 167.387 161.338 167.387 161.262Z" fill="#EF293D"/>
<path d="M166.168 160.245C166.251 160.245 166.319 160.492 166.319 160.802C166.324 160.958 166.301 161.114 166.251 161.262L166.168 161.18C166.237 161.18 166.271 161.207 166.271 161.262C166.271 161.262 166.237 161.317 166.168 161.345H166.127L166.086 161.249C166.042 161.099 166.021 160.944 166.024 160.788C166.024 160.492 166.092 160.245 166.168 160.245Z" fill="#EF293D"/>
<path d="M166.168 159.124C166.248 159.124 166.312 158.874 166.312 158.567C166.312 158.259 166.248 158.01 166.168 158.01C166.088 158.01 166.023 158.259 166.023 158.567C166.023 158.874 166.088 159.124 166.168 159.124Z" fill="#EF293D"/>
<path d="M166.168 156.895C166.248 156.895 166.312 156.646 166.312 156.338C166.312 156.031 166.248 155.781 166.168 155.781C166.088 155.781 166.023 156.031 166.023 156.338C166.023 156.646 166.088 156.895 166.168 156.895Z" fill="#EF293D"/>
<path d="M166.168 154.66C166.248 154.66 166.312 154.411 166.312 154.103C166.312 153.796 166.248 153.546 166.168 153.546C166.088 153.546 166.023 153.796 166.023 154.103C166.023 154.411 166.088 154.66 166.168 154.66Z" fill="#EF293D"/>
<path d="M166.168 152.432C166.248 152.432 166.312 152.183 166.312 151.875C166.312 151.568 166.248 151.318 166.168 151.318C166.088 151.318 166.023 151.568 166.023 151.875C166.023 152.183 166.088 152.432 166.168 152.432Z" fill="#EF293D"/>
<path d="M166.168 150.197C166.248 150.197 166.312 149.948 166.312 149.64C166.312 149.333 166.248 149.083 166.168 149.083C166.088 149.083 166.023 149.333 166.023 149.64C166.023 149.948 166.088 150.197 166.168 150.197Z" fill="#EF293D"/>
<path d="M166.168 147.969C166.248 147.969 166.312 147.72 166.312 147.412C166.312 147.105 166.248 146.855 166.168 146.855C166.088 146.855 166.023 147.105 166.023 147.412C166.023 147.72 166.088 147.969 166.168 147.969Z" fill="#EF293D"/>
<path d="M166.168 144.593C166.25 144.593 166.319 144.847 166.319 145.15C166.319 145.452 166.25 145.707 166.168 145.707C166.085 145.707 166.023 145.459 166.023 145.15C166.023 144.84 166.092 144.593 166.168 144.593Z" fill="#EF293D"/>
<path d="M166.168 143.506C166.248 143.506 166.312 143.257 166.312 142.949C166.312 142.641 166.248 142.392 166.168 142.392C166.088 142.392 166.023 142.641 166.023 142.949C166.023 143.257 166.088 143.506 166.168 143.506Z" fill="#EF293D"/>
<path d="M166.168 141.271C166.248 141.271 166.312 141.022 166.312 140.714C166.312 140.406 166.248 140.157 166.168 140.157C166.088 140.157 166.023 140.406 166.023 140.714C166.023 141.022 166.088 141.271 166.168 141.271Z" fill="#EF293D"/>
<path d="M166.168 139.043C166.248 139.043 166.312 138.794 166.312 138.486C166.312 138.178 166.248 137.929 166.168 137.929C166.088 137.929 166.023 138.178 166.023 138.486C166.023 138.794 166.088 139.043 166.168 139.043Z" fill="#EF293D"/>
<path d="M166.655 136.182C166.655 136.258 166.442 136.313 166.167 136.327L166.311 136.182V136.251C166.311 136.56 166.243 136.808 166.16 136.808C166.078 136.808 166.016 136.56 166.016 136.251V136.031H166.153C166.442 136.045 166.655 136.106 166.655 136.182Z" fill="#EF293D"/>
<path d="M168.89 136.182C168.89 136.258 168.636 136.327 168.333 136.327C168.031 136.327 167.77 136.258 167.77 136.182C167.77 136.106 168.024 136.038 168.333 136.038C168.643 136.038 168.89 136.1 168.89 136.182Z" fill="#EF293D"/>
<path d="M171.118 136.182C171.118 136.258 170.87 136.327 170.561 136.327C170.251 136.327 170.004 136.258 170.004 136.182C170.004 136.106 170.251 136.038 170.561 136.038C170.87 136.038 171.118 136.1 171.118 136.182Z" fill="#EF293D"/>
<path d="M173.383 136.182C173.383 136.258 173.128 136.327 172.826 136.327C172.523 136.327 172.262 136.258 172.262 136.182C172.262 136.106 172.516 136.038 172.826 136.038C173.135 136.038 173.383 136.1 173.383 136.182Z" fill="#EF293D"/>
<path d="M175.583 136.182C175.583 136.258 175.335 136.327 175.026 136.327C174.716 136.327 174.469 136.258 174.469 136.182C174.469 136.106 174.716 136.038 175.026 136.038C175.335 136.038 175.583 136.1 175.583 136.182Z" fill="#EF293D"/>
<path d="M177.816 136.182C177.816 136.258 177.562 136.327 177.259 136.327C176.957 136.327 176.695 136.258 176.695 136.182C176.695 136.106 176.95 136.038 177.259 136.038C177.569 136.038 177.816 136.1 177.816 136.182Z" fill="#EF293D"/>
<path d="M180.044 136.182C180.044 136.258 179.796 136.327 179.487 136.327C179.177 136.327 178.93 136.258 178.93 136.182C178.93 136.106 179.177 136.038 179.487 136.038C179.796 136.038 180.044 136.1 180.044 136.182Z" fill="#EF293D"/>
<path d="M182.282 136.182C182.282 136.258 182.028 136.327 181.725 136.327C181.422 136.327 181.168 136.258 181.168 136.182C181.168 136.106 181.416 136.038 181.725 136.038C182.034 136.038 182.282 136.1 182.282 136.182Z" fill="#EF293D"/>
<path d="M184.509 136.182C184.509 136.258 184.261 136.327 183.952 136.327C183.642 136.327 183.395 136.258 183.395 136.182C183.395 136.106 183.642 136.038 183.952 136.038C184.261 136.038 184.509 136.1 184.509 136.182Z" fill="#EF293D"/>
<path d="M186.743 136.182C186.743 136.258 186.495 136.327 186.186 136.327C185.876 136.327 185.629 136.258 185.629 136.182C185.629 136.106 185.876 136.038 186.186 136.038C186.495 136.038 186.743 136.1 186.743 136.182Z" fill="#EF293D"/>
<path d="M188.973 136.182C188.973 136.258 188.726 136.327 188.416 136.327C188.107 136.327 187.859 136.258 187.859 136.182C187.859 136.106 188.107 136.038 188.416 136.038C188.726 136.038 188.973 136.1 188.973 136.182Z" fill="#EF293D"/>
<path d="M191.208 136.182C191.208 136.258 190.96 136.327 190.651 136.327C190.341 136.327 190.094 136.258 190.094 136.182C190.094 136.106 190.341 136.038 190.651 136.038C190.96 136.038 191.208 136.1 191.208 136.182Z" fill="#EF293D"/>
<path d="M193.434 136.182C193.434 136.258 193.187 136.327 192.877 136.327C192.568 136.327 192.32 136.258 192.32 136.182C192.32 136.106 192.568 136.038 192.877 136.038C193.187 136.038 193.434 136.1 193.434 136.182Z" fill="#EF293D"/>
<path d="M195.669 136.182C195.669 136.258 195.421 136.327 195.112 136.327C194.802 136.327 194.555 136.258 194.555 136.182C194.555 136.106 194.802 136.038 195.112 136.038C195.421 136.038 195.669 136.1 195.669 136.182Z" fill="#EF293D"/>
<path d="M197.899 136.182C197.899 136.258 197.652 136.327 197.342 136.327C197.033 136.327 196.785 136.258 196.785 136.182C196.785 136.106 197.04 136.038 197.342 136.038C197.645 136.038 197.899 136.1 197.899 136.182Z" fill="#EF293D"/>
<path d="M200.134 136.182C200.134 136.258 199.886 136.327 199.577 136.327C199.267 136.327 199.02 136.258 199.02 136.182C199.02 136.106 199.267 136.038 199.577 136.038C199.886 136.038 200.134 136.1 200.134 136.182Z" fill="#EF293D"/>
<path d="M202.36 136.182C202.36 136.258 202.113 136.327 201.803 136.327C201.494 136.327 201.246 136.258 201.246 136.182C201.246 136.106 201.501 136.038 201.803 136.038C202.106 136.038 202.36 136.1 202.36 136.182Z" fill="#EF293D"/>
<path d="M204.598 136.182C204.598 136.258 204.351 136.327 204.041 136.327C203.732 136.327 203.484 136.258 203.484 136.182C203.484 136.106 203.732 136.038 204.041 136.038C204.351 136.038 204.598 136.1 204.598 136.182Z" fill="#EF293D"/>
<path d="M206.832 136.182C206.832 136.258 206.577 136.327 206.268 136.327C205.959 136.327 205.711 136.258 205.711 136.182C205.711 136.106 205.965 136.038 206.268 136.038C206.571 136.038 206.832 136.1 206.832 136.182Z" fill="#EF293D"/>
<path d="M209.059 136.182C209.059 136.258 208.812 136.327 208.502 136.327C208.193 136.327 207.945 136.258 207.945 136.182C207.945 136.106 208.193 136.038 208.502 136.038C208.812 136.038 209.059 136.1 209.059 136.182Z" fill="#EF293D"/>
<path d="M211.293 136.182C211.293 136.258 211.038 136.327 210.729 136.327C210.419 136.327 210.172 136.258 210.172 136.182C210.172 136.106 210.426 136.038 210.729 136.038C211.031 136.038 211.293 136.1 211.293 136.182Z" fill="#EF293D"/>
<path d="M213.524 136.182C213.524 136.258 213.277 136.327 212.967 136.327C212.658 136.327 212.41 136.258 212.41 136.182C212.41 136.106 212.658 136.038 212.967 136.038C213.277 136.038 213.524 136.1 213.524 136.182Z" fill="#EF293D"/>
<path d="M215.758 136.182C215.758 136.258 215.503 136.327 215.201 136.327C214.898 136.327 214.637 136.258 214.637 136.182C214.637 136.106 214.891 136.038 215.201 136.038C215.51 136.038 215.758 136.1 215.758 136.182Z" fill="#EF293D"/>
<path d="M217.985 136.182C217.985 136.258 217.738 136.327 217.428 136.327C217.119 136.327 216.871 136.258 216.871 136.182C216.871 136.106 217.119 136.038 217.428 136.038C217.738 136.038 217.985 136.1 217.985 136.182Z" fill="#EF293D"/>
<path d="M220.219 136.182C220.219 136.258 219.964 136.327 219.662 136.327C219.359 136.327 219.098 136.258 219.098 136.182C219.098 136.106 219.352 136.038 219.662 136.038C219.971 136.038 220.219 136.1 220.219 136.182Z" fill="#EF293D"/>
<path d="M222.45 136.182C222.45 136.258 222.202 136.327 221.893 136.327C221.584 136.327 221.336 136.258 221.336 136.182C221.336 136.106 221.584 136.038 221.893 136.038C222.202 136.038 222.45 136.1 222.45 136.182Z" fill="#EF293D"/>
<path d="M224.683 136.182C224.683 136.258 224.429 136.327 224.126 136.327C223.824 136.327 223.562 136.258 223.562 136.182C223.562 136.106 223.817 136.038 224.126 136.038C224.436 136.038 224.683 136.1 224.683 136.182Z" fill="#EF293D"/>
<path d="M226.911 136.182C226.911 136.258 226.663 136.327 226.354 136.327C226.044 136.327 225.797 136.258 225.797 136.182C225.797 136.106 226.044 136.038 226.354 136.038C226.663 136.038 226.911 136.1 226.911 136.182Z" fill="#EF293D"/>
<path d="M228.76 136.567C228.691 136.567 228.636 136.409 228.616 136.182L228.753 136.32H228.588C228.279 136.32 228.031 136.251 228.031 136.175C228.031 136.1 228.279 136.031 228.588 136.031H228.753H228.905V136.155C228.877 136.409 228.822 136.567 228.76 136.567Z" fill="#EF293D"/>
<path d="M228.761 138.802C228.678 138.802 228.609 138.548 228.609 138.238C228.609 137.929 228.678 137.681 228.761 137.681C228.843 137.681 228.905 137.936 228.905 138.238C228.905 138.541 228.836 138.802 228.761 138.802Z" fill="#EF293D"/>
<path d="M228.761 141.03C228.678 141.03 228.609 140.783 228.609 140.473C228.609 140.164 228.678 139.916 228.761 139.916C228.843 139.916 228.905 140.164 228.905 140.473C228.905 140.783 228.836 141.03 228.761 141.03Z" fill="#EF293D"/>
<path d="M228.761 143.265C228.678 143.265 228.609 143.011 228.609 142.708C228.609 142.406 228.678 142.144 228.761 142.144C228.843 142.144 228.905 142.399 228.905 142.708C228.905 143.018 228.836 143.265 228.761 143.265Z" fill="#EF293D"/>
<path d="M228.761 145.493C228.678 145.493 228.609 145.246 228.609 144.936C228.609 144.627 228.678 144.379 228.761 144.379C228.843 144.379 228.905 144.627 228.905 144.936C228.905 145.246 228.836 145.493 228.761 145.493Z" fill="#EF293D"/>
<path d="M228.761 147.729C228.678 147.729 228.609 147.474 228.609 147.171C228.609 146.869 228.678 146.608 228.761 146.608C228.843 146.608 228.905 146.862 228.905 147.171C228.905 147.481 228.836 147.729 228.761 147.729Z" fill="#EF293D"/>
<path d="M228.761 149.957C228.678 149.957 228.609 149.709 228.609 149.4C228.609 149.09 228.678 148.843 228.761 148.843C228.843 148.843 228.905 149.09 228.905 149.4C228.905 149.709 228.836 149.957 228.761 149.957Z" fill="#EF293D"/>
<path d="M228.761 152.192C228.678 152.192 228.609 151.937 228.609 151.635C228.609 151.332 228.678 151.071 228.761 151.071C228.843 151.071 228.905 151.325 228.905 151.635C228.905 151.944 228.836 152.192 228.761 152.192Z" fill="#EF293D"/>
<path d="M228.761 154.42C228.678 154.42 228.609 154.172 228.609 153.863C228.609 153.553 228.678 153.306 228.761 153.306C228.843 153.306 228.905 153.553 228.905 153.863C228.905 154.172 228.836 154.42 228.761 154.42Z" fill="#EF293D"/>
<path d="M228.761 156.655C228.678 156.655 228.609 156.4 228.609 156.098C228.609 155.795 228.678 155.541 228.761 155.541C228.843 155.541 228.905 155.788 228.905 156.098C228.905 156.407 228.836 156.655 228.761 156.655Z" fill="#EF293D"/>
<path d="M228.761 158.883C228.678 158.883 228.609 158.635 228.609 158.326C228.609 158.016 228.678 157.769 228.761 157.769C228.843 157.769 228.905 158.016 228.905 158.326C228.905 158.635 228.836 158.883 228.761 158.883Z" fill="#EF293D"/>
<path d="M228.761 161.097C228.678 161.097 228.609 160.843 228.609 160.54C228.609 160.238 228.678 159.983 228.761 159.983C228.843 159.983 228.905 160.231 228.905 160.54C228.905 160.85 228.836 161.097 228.761 161.097Z" fill="#EF293D"/>
<path d="M186.859 156.847C186.859 156.772 187.107 156.703 187.416 156.703L187.272 156.847V156.648C187.278 156.587 187.29 156.528 187.306 156.469C187.306 156.366 187.368 156.304 187.41 156.304C187.451 156.304 187.485 156.366 187.513 156.469C187.518 156.529 187.518 156.588 187.513 156.648V156.751V156.847C187.451 156.916 187.657 156.703 187.368 156.999C187.134 156.971 186.859 156.93 186.859 156.847Z" fill="#EF293D"/>
<path d="M184.777 156.847C184.777 156.772 185.011 156.703 185.293 156.703C185.575 156.703 185.816 156.772 185.816 156.847C185.816 156.923 185.582 156.999 185.293 156.999C185.004 156.999 184.777 156.93 184.777 156.847Z" fill="#EF293D"/>
<path d="M182.691 156.847C182.691 156.772 182.925 156.703 183.207 156.703C183.489 156.703 183.73 156.772 183.73 156.847C183.73 156.923 183.496 156.999 183.207 156.999C182.918 156.999 182.691 156.93 182.691 156.847Z" fill="#EF293D"/>
<path d="M180.609 156.847C180.609 156.772 180.843 156.703 181.125 156.703C181.407 156.703 181.648 156.772 181.648 156.847C181.648 156.923 181.414 156.999 181.125 156.999C180.836 156.999 180.609 156.93 180.609 156.847Z" fill="#EF293D"/>
<path d="M178.527 156.847C178.527 156.772 178.761 156.703 179.043 156.703C179.325 156.703 179.566 156.772 179.566 156.847C179.566 156.923 179.332 156.999 179.043 156.999C178.754 156.999 178.527 156.93 178.527 156.847Z" fill="#EF293D"/>
<path d="M176.441 156.847C176.441 156.772 176.668 156.703 176.957 156.703C177.246 156.703 177.48 156.772 177.48 156.847C177.48 156.923 177.246 156.999 176.957 156.999C176.668 156.999 176.441 156.93 176.441 156.847Z" fill="#EF293D"/>
<path d="M174.359 156.847C174.359 156.772 174.586 156.703 174.875 156.703C175.164 156.703 175.398 156.772 175.398 156.847C175.398 156.923 175.164 156.999 174.875 156.999C174.586 156.999 174.359 156.93 174.359 156.847Z" fill="#EF293D"/>
<path d="M172.273 156.847C172.273 156.772 172.5 156.703 172.789 156.703C173.078 156.703 173.312 156.772 173.312 156.847C173.312 156.923 173.078 156.999 172.789 156.999C172.5 156.999 172.273 156.93 172.273 156.847Z" fill="#EF293D"/>
<path d="M170.672 156.283C170.754 156.283 170.816 156.538 170.816 156.84L170.672 156.696H170.885H171.064C171.167 156.696 171.229 156.765 171.229 156.799C171.229 156.834 171.167 156.882 171.064 156.902H170.885H170.672C170.603 156.834 170.816 157.047 170.527 156.751C170.527 156.545 170.589 156.283 170.672 156.283Z" fill="#EF293D"/>
<path d="M170.672 154.048C170.754 154.048 170.816 154.296 170.816 154.605C170.816 154.915 170.754 155.169 170.672 155.169C170.589 155.169 170.527 154.915 170.527 154.605C170.527 154.296 170.589 154.048 170.672 154.048Z" fill="#EF293D"/>
<path d="M170.672 151.8C170.754 151.8 170.816 152.054 170.816 152.364C170.816 152.673 170.754 152.921 170.672 152.921C170.589 152.921 170.527 152.673 170.527 152.364C170.527 152.054 170.589 151.8 170.672 151.8Z" fill="#EF293D"/>
<path d="M170.672 149.551C170.754 149.551 170.816 149.805 170.816 150.115C170.816 150.424 170.754 150.679 170.672 150.679C170.589 150.679 170.527 150.424 170.527 150.115C170.527 149.805 170.589 149.551 170.672 149.551Z" fill="#EF293D"/>
<path d="M170.672 147.343C170.754 147.343 170.816 147.591 170.816 147.9C170.816 148.21 170.754 148.464 170.672 148.464C170.589 148.464 170.527 148.217 170.527 147.9C170.527 147.584 170.589 147.343 170.672 147.343Z" fill="#EF293D"/>
<path d="M170.672 145.06C170.754 145.06 170.816 145.315 170.816 145.624C170.816 145.934 170.754 146.181 170.672 146.181C170.589 146.181 170.527 145.934 170.527 145.624C170.527 145.315 170.589 145.06 170.672 145.06Z" fill="#EF293D"/>
<path d="M170.672 142.818C170.754 142.818 170.816 143.066 170.816 143.375C170.816 143.685 170.754 143.939 170.672 143.939C170.589 143.939 170.527 143.685 170.527 143.375C170.527 143.066 170.589 142.818 170.672 142.818Z" fill="#EF293D"/>
<path d="M171.228 141.154C171.228 141.237 170.98 141.299 170.67 141.299C170.959 141.01 170.753 141.223 170.815 141.154V141.25V141.36C170.819 141.418 170.819 141.475 170.815 141.532C170.815 141.636 170.753 141.697 170.712 141.697C170.67 141.697 170.636 141.636 170.609 141.532C170.593 141.476 170.581 141.419 170.574 141.36V141.154L170.719 141.01C170.98 140.989 171.228 141.051 171.228 141.154Z" fill="#EF293D"/>
<path d="M173.312 141.154C173.312 141.237 173.078 141.299 172.789 141.299C172.5 141.299 172.273 141.237 172.273 141.154C172.273 141.072 172.5 141.01 172.789 141.01C173.078 141.01 173.312 141.051 173.312 141.154Z" fill="#EF293D"/>
<path d="M175.398 141.154C175.398 141.237 175.164 141.299 174.875 141.299C174.586 141.299 174.359 141.237 174.359 141.154C174.359 141.072 174.586 141.01 174.875 141.01C175.164 141.01 175.398 141.051 175.398 141.154Z" fill="#EF293D"/>
<path d="M177.507 141.154C177.507 141.237 177.273 141.299 176.985 141.299C176.696 141.299 176.469 141.237 176.469 141.154C176.469 141.072 176.696 141.01 176.985 141.01C177.273 141.01 177.507 141.051 177.507 141.154Z" fill="#EF293D"/>
<path d="M179.57 141.154C179.57 141.237 179.336 141.299 179.047 141.299C178.758 141.299 178.531 141.237 178.531 141.154C178.531 141.072 178.765 141.01 179.047 141.01C179.329 141.01 179.57 141.051 179.57 141.154Z" fill="#EF293D"/>
<path d="M181.632 141.154C181.632 141.237 181.398 141.299 181.11 141.299C180.821 141.299 180.594 141.237 180.594 141.154C180.594 141.072 180.828 141.01 181.11 141.01C181.391 141.01 181.632 141.051 181.632 141.154Z" fill="#EF293D"/>
<path d="M183.73 141.154C183.73 141.237 183.496 141.299 183.207 141.299C182.918 141.299 182.691 141.237 182.691 141.154C182.691 141.072 182.925 141.01 183.207 141.01C183.489 141.01 183.73 141.051 183.73 141.154Z" fill="#EF293D"/>
<path d="M185.816 141.154C185.816 141.237 185.582 141.299 185.293 141.299C185.004 141.299 184.777 141.237 184.777 141.154C184.777 141.072 185.011 141.01 185.293 141.01C185.575 141.01 185.816 141.051 185.816 141.154Z" fill="#EF293D"/>
<path d="M187.416 141.691C187.334 141.691 187.272 141.443 187.272 141.133C187.561 141.422 187.348 141.216 187.416 141.278H187.196H187.018C186.921 141.278 186.859 141.216 186.859 141.175C186.859 141.133 186.921 141.099 187.018 141.072H187.196H187.299H187.416L187.561 141.216C187.561 141.443 187.499 141.691 187.416 141.691Z" fill="#EF293D"/>
<path d="M187.418 143.939C187.335 143.939 187.273 143.685 187.273 143.375C187.273 143.066 187.335 142.818 187.418 142.818C187.5 142.818 187.562 143.066 187.562 143.375C187.562 143.685 187.5 143.939 187.418 143.939Z" fill="#EF293D"/>
<path d="M187.418 146.181C187.335 146.181 187.273 145.934 187.273 145.624C187.273 145.315 187.335 145.06 187.418 145.06C187.5 145.06 187.562 145.315 187.562 145.624C187.562 145.934 187.5 146.181 187.418 146.181Z" fill="#EF293D"/>
<path d="M187.418 148.43C187.335 148.43 187.273 148.182 187.273 147.866C187.273 147.55 187.335 147.309 187.418 147.309C187.5 147.309 187.562 147.557 187.562 147.866C187.562 148.175 187.5 148.43 187.418 148.43Z" fill="#EF293D"/>
<path d="M187.418 150.679C187.335 150.679 187.273 150.424 187.273 150.115C187.273 149.805 187.335 149.551 187.418 149.551C187.5 149.551 187.562 149.805 187.562 150.115C187.562 150.424 187.5 150.679 187.418 150.679Z" fill="#EF293D"/>
<path d="M187.418 152.921C187.335 152.921 187.273 152.673 187.273 152.364C187.273 152.054 187.335 151.8 187.418 151.8C187.5 151.8 187.562 152.054 187.562 152.364C187.562 152.673 187.5 152.921 187.418 152.921Z" fill="#EF293D"/>
<path d="M187.418 155.169C187.335 155.169 187.273 154.915 187.273 154.605C187.273 154.296 187.335 154.048 187.418 154.048C187.5 154.048 187.562 154.296 187.562 154.605C187.562 154.915 187.5 155.169 187.418 155.169Z" fill="#EF293D"/>
<path d="M171.071 156.448H170.273V157.246H171.071V156.448Z" fill="#EF293D"/>
<path d="M171.071 140.735H170.273V141.532H171.071V140.735Z" fill="#EF293D"/>
<path d="M187.817 140.735H187.02V141.532H187.817V140.735Z" fill="#EF293D"/>
<path d="M187.817 156.05H187.02V156.847H187.817V156.05Z" fill="#EF293D"/>
<path d="M179.04 156.448H178.242V157.246H179.04V156.448Z" fill="#EF293D"/>
<path d="M179.438 140.735H178.641V141.532H179.438V140.735Z" fill="#EF293D"/>
<path d="M171.071 148.994H170.273V149.792H171.071V148.994Z" fill="#EF293D"/>
<path d="M187.419 148.595H186.621V149.393H187.419V148.595Z" fill="#EF293D"/>
<path d="M152.538 125.083H191.311C191.524 125.081 191.735 125.036 191.93 124.95C192.126 124.863 192.301 124.738 192.445 124.581L206.99 108.605C207.246 108.323 207.388 107.955 207.389 107.574V78.4088C207.389 78.0021 207.227 77.612 206.94 77.3244C206.652 77.0368 206.262 76.8753 205.855 76.8753H168.72C168.313 76.8753 167.923 77.0368 167.636 77.3244C167.348 77.612 167.186 78.0021 167.186 78.4088V106.315C167.186 106.519 167.146 106.721 167.067 106.909C166.987 107.097 166.872 107.267 166.726 107.409L151.431 122.456C151.212 122.671 151.063 122.947 151.003 123.248C150.942 123.55 150.974 123.862 151.093 124.145C151.212 124.428 151.414 124.669 151.672 124.836C151.929 125.003 152.231 125.089 152.538 125.083Z" fill="#282828"/>
<path d="M206.05 78.7045H168.633V105.332H206.05V78.7045Z" fill="#F5F5F5"/>
<path d="M206.895 107.196C206.895 107.292 198.189 107.375 187.447 107.375C176.705 107.375 167.992 107.292 167.992 107.196C167.992 107.099 176.698 107.017 187.447 107.017C198.196 107.017 206.895 107.093 206.895 107.196Z" fill="#455A64"/>
<path d="M203.168 103.365C203.563 103.299 203.964 103.276 204.365 103.297H204.543L204.475 103.365C204.453 103.027 204.476 102.687 204.543 102.354C204.606 102.687 204.629 103.027 204.612 103.365V103.441H204.365C203.964 103.466 203.562 103.44 203.168 103.365Z" fill="#282828"/>
<path d="M200.418 103.365C200.872 103.273 201.34 103.273 201.793 103.365C201.34 103.466 200.871 103.466 200.418 103.365Z" fill="#282828"/>
<path d="M197.668 103.365C198.122 103.273 198.59 103.273 199.043 103.365C198.59 103.466 198.121 103.466 197.668 103.365Z" fill="#282828"/>
<path d="M194.914 103.365C195.368 103.273 195.836 103.273 196.289 103.365C195.837 103.466 195.367 103.466 194.914 103.365Z" fill="#282828"/>
<path d="M192.164 103.365C192.618 103.273 193.086 103.273 193.539 103.365C193.087 103.466 192.617 103.466 192.164 103.365Z" fill="#282828"/>
<path d="M189.414 103.365C189.868 103.273 190.336 103.273 190.789 103.365C190.337 103.466 189.867 103.466 189.414 103.365Z" fill="#282828"/>
<path d="M186.664 103.365C187.118 103.273 187.586 103.273 188.039 103.365C187.587 103.466 187.117 103.466 186.664 103.365Z" fill="#282828"/>
<path d="M183.91 103.365C184.364 103.273 184.832 103.273 185.286 103.365C184.833 103.466 184.363 103.466 183.91 103.365Z" fill="#282828"/>
<path d="M181.16 103.365C181.614 103.273 182.082 103.273 182.536 103.365C182.083 103.466 181.613 103.466 181.16 103.365Z" fill="#282828"/>
<path d="M178.41 103.365C178.864 103.273 179.332 103.273 179.786 103.365C179.333 103.466 178.863 103.466 178.41 103.365Z" fill="#282828"/>
<path d="M175.66 103.365C176.114 103.273 176.582 103.273 177.036 103.365C176.583 103.466 176.113 103.466 175.66 103.365Z" fill="#282828"/>
<path d="M172.91 103.365C173.364 103.273 173.832 103.273 174.286 103.365C173.833 103.466 173.363 103.466 172.91 103.365Z" fill="#282828"/>
<path d="M170.156 103.365C170.61 103.273 171.078 103.273 171.532 103.365C171.079 103.466 170.609 103.466 170.156 103.365Z" fill="#282828"/>
<path d="M170.139 100.635C170.209 100.857 170.232 101.091 170.208 101.323C170.233 101.554 170.21 101.788 170.139 102.011C170.065 101.789 170.039 101.555 170.064 101.323C170.04 101.091 170.066 100.856 170.139 100.635Z" fill="#282828"/>
<path d="M170.139 97.8843C170.209 98.1065 170.232 98.3405 170.208 98.572C170.233 98.8036 170.21 99.0377 170.139 99.2597C170.065 99.0387 170.039 98.804 170.064 98.572C170.04 98.34 170.066 98.1056 170.139 97.8843Z" fill="#282828"/>
<path d="M170.139 95.1336C170.209 95.3557 170.232 95.5897 170.208 95.8213C170.233 96.0528 170.21 96.2869 170.139 96.5089C170.065 96.2879 170.039 96.0533 170.064 95.8213C170.04 95.5893 170.066 95.3548 170.139 95.1336Z" fill="#282828"/>
<path d="M170.139 92.3828C170.209 92.605 170.232 92.839 170.208 93.0705C170.233 93.302 170.21 93.5362 170.139 93.7582C170.065 93.5371 170.039 93.3025 170.064 93.0705C170.04 92.8385 170.066 92.6041 170.139 92.3828Z" fill="#282828"/>
<path d="M170.139 89.632C170.209 89.8542 170.232 90.0882 170.208 90.3197C170.233 90.5512 170.21 90.7854 170.139 91.0074C170.065 90.7863 170.039 90.5517 170.064 90.3197C170.04 90.0877 170.066 89.8533 170.139 89.632Z" fill="#282828"/>
<path d="M170.139 86.8812C170.209 87.1034 170.232 87.3374 170.208 87.5689C170.233 87.8004 170.21 88.0346 170.139 88.2566C170.065 88.0355 170.039 87.8009 170.064 87.5689C170.04 87.3369 170.066 87.1025 170.139 86.8812Z" fill="#282828"/>
<path d="M172.379 86.3723C171.926 86.4732 171.457 86.4732 171.004 86.3723C171.458 86.2806 171.925 86.2806 172.379 86.3723Z" fill="#282828"/>
<path d="M175.129 86.3723C174.676 86.4732 174.207 86.4732 173.754 86.3723C174.208 86.2806 174.675 86.2806 175.129 86.3723Z" fill="#282828"/>
<path d="M177.879 86.3723C177.426 86.4732 176.957 86.4732 176.504 86.3723C176.958 86.2806 177.425 86.2806 177.879 86.3723Z" fill="#282828"/>
<path d="M180.633 86.3723C180.18 86.4732 179.711 86.4732 179.258 86.3723C179.712 86.2806 180.179 86.2806 180.633 86.3723Z" fill="#282828"/>
<path d="M183.383 86.3723C182.93 86.4732 182.461 86.4732 182.008 86.3723C182.462 86.2806 182.929 86.2806 183.383 86.3723Z" fill="#282828"/>
<path d="M186.133 86.3723C185.68 86.4732 185.211 86.4732 184.758 86.3723C185.212 86.2806 185.679 86.2806 186.133 86.3723Z" fill="#282828"/>
<path d="M188.883 86.3723C188.43 86.4732 187.961 86.4732 187.508 86.3723C187.962 86.2806 188.429 86.2806 188.883 86.3723Z" fill="#282828"/>
<path d="M191.633 86.3723C191.18 86.4732 190.711 86.4732 190.258 86.3723C190.712 86.2806 191.179 86.2806 191.633 86.3723Z" fill="#282828"/>
<path d="M194.387 86.3723C193.934 86.4732 193.465 86.4732 193.012 86.3723C193.466 86.2806 193.933 86.2806 194.387 86.3723Z" fill="#282828"/>
<path d="M197.137 86.3723C196.684 86.4732 196.215 86.4732 195.762 86.3723C196.216 86.2806 196.683 86.2806 197.137 86.3723Z" fill="#282828"/>
<path d="M199.887 86.3723C199.434 86.4732 198.965 86.4732 198.512 86.3723C198.966 86.2806 199.433 86.2806 199.887 86.3723Z" fill="#282828"/>
<path d="M202.637 86.3723C202.184 86.4732 201.715 86.4732 201.262 86.3723C201.716 86.2806 202.183 86.2806 202.637 86.3723Z" fill="#282828"/>
<path d="M204.544 87.2251C204.47 87.0038 204.445 86.7694 204.469 86.5374V86.3723L204.537 86.448C204.357 86.4608 204.177 86.435 204.008 86.3723C204.177 86.31 204.358 86.2866 204.537 86.3036H204.606V86.5374C204.632 86.7684 204.611 87.0024 204.544 87.2251Z" fill="#282828"/>
<path d="M204.542 89.9758C204.468 89.7546 204.442 89.5202 204.466 89.2882C204.441 89.0561 204.467 88.8215 204.542 88.6005C204.612 88.8225 204.635 89.0566 204.611 89.2882C204.635 89.5197 204.611 89.7537 204.542 89.9758Z" fill="#282828"/>
<path d="M204.542 92.7266C204.468 92.5054 204.442 92.2709 204.466 92.0389C204.441 91.8069 204.467 91.5723 204.542 91.3512C204.612 91.5733 204.635 91.8074 204.611 92.0389C204.635 92.2705 204.611 92.5045 204.542 92.7266Z" fill="#282828"/>
<path d="M204.542 95.4774C204.468 95.2561 204.442 95.0217 204.466 94.7897C204.441 94.5577 204.467 94.3231 204.542 94.102C204.612 94.324 204.635 94.5582 204.611 94.7897C204.635 95.0212 204.611 95.2552 204.542 95.4774Z" fill="#282828"/>
<path d="M204.542 98.2282C204.468 98.0069 204.442 97.7725 204.466 97.5405C204.441 97.3085 204.467 97.0739 204.542 96.8528C204.612 97.0748 204.635 97.309 204.611 97.5405C204.635 97.772 204.611 98.006 204.542 98.2282Z" fill="#282828"/>
<path d="M204.542 100.979C204.468 100.758 204.442 100.523 204.466 100.291C204.441 100.059 204.467 99.8247 204.542 99.6036C204.612 99.8256 204.635 100.06 204.611 100.291C204.635 100.523 204.611 100.757 204.542 100.979Z" fill="#282828"/>
<path d="M204.542 80.1074H170.137V85.0657H204.542V80.1074Z" fill="#282828"/>
<path d="M195.845 117.215L203.96 108.358H169.005L160.051 116.947L195.845 117.215Z" fill="#455A64"/>
<path d="M82.9644 278.301L78.9414 293.162L92.0076 294.359L94.7515 280.206L82.9644 278.301Z" fill="#EF293D"/>
<path d="M92.3829 293.135C91.7449 293.177 91.1044 293.154 90.4711 293.066C89.2951 292.976 87.6722 292.791 85.8842 292.564L81.3179 291.952C80.6821 291.895 80.052 291.787 79.4336 291.629C80.0737 291.578 80.7175 291.601 81.3523 291.697C82.5282 291.794 84.1512 291.972 85.9323 292.206L90.4986 292.811C91.1351 292.862 91.7658 292.971 92.3829 293.135Z" fill="#282828"/>
<g opacity="0.6">
<path opacity="0.6" d="M78.9414 293.162L92.0076 294.359L92.2208 293.265L79.3196 291.629L78.9552 293.018" fill="white"/>
</g>
<path d="M85.4336 292.502C85.7484 290.583 86.1639 288.683 86.6783 286.808C87.09 284.909 87.6042 283.033 88.2188 281.189C87.9039 283.108 87.4884 285.009 86.974 286.883C86.5585 288.782 86.0443 290.657 85.4336 292.502Z" fill="#282828"/>
<path d="M91.6612 293.052C91.8789 292.149 91.8907 291.209 91.6956 290.301C91.4609 289.326 90.9667 288.433 90.2652 287.716C89.3857 286.858 88.2364 286.33 87.0124 286.223C85.7904 286.095 84.5601 286.373 83.5121 287.014C82.6547 287.553 81.9455 288.298 81.449 289.18C81.0169 290.006 80.7374 290.903 80.6237 291.828C80.615 291.762 80.615 291.695 80.6237 291.629C80.6248 291.44 80.6362 291.252 80.6581 291.065C80.7468 290.371 80.9563 289.699 81.277 289.077C81.7564 288.147 82.4668 287.356 83.3401 286.78C84.433 286.083 85.7302 285.778 87.0193 285.914C88.1926 286.006 89.3032 286.481 90.1813 287.264C91.0593 288.048 91.6565 289.098 91.8813 290.253C92.0206 290.934 92.0206 291.636 91.8813 292.316C91.8415 292.501 91.7886 292.682 91.7231 292.86C91.7025 292.99 91.675 293.052 91.6612 293.052Z" fill="#282828"/>
<path d="M136.932 274.312L136.059 287.516C136.059 287.516 149.201 291.883 149.276 294.338L123.598 294.524L124.113 273.893L136.932 274.312Z" fill="#EF293D"/>
<g opacity="0.6">
<path opacity="0.6" d="M128.131 286.168C127.882 286.235 127.666 286.391 127.526 286.607C127.385 286.822 127.328 287.083 127.368 287.337C127.425 287.589 127.577 287.809 127.792 287.952C128.007 288.095 128.268 288.151 128.523 288.108C128.787 288.033 129.015 287.865 129.163 287.635C129.311 287.404 129.37 287.127 129.328 286.856C129.244 286.596 129.062 286.379 128.82 286.25C128.579 286.122 128.297 286.093 128.035 286.168" fill="white"/>
</g>
<g opacity="0.6">
<path opacity="0.6" d="M123.57 294.51L123.625 292.447L148.424 293.135C148.683 293.268 148.907 293.463 149.073 293.703C149.24 293.943 149.345 294.22 149.379 294.51H123.57Z" fill="white"/>
</g>
<path d="M136.454 287.399C136.454 287.523 135.814 287.564 135.188 287.949C134.562 288.335 134.212 288.85 134.102 288.795C133.992 288.74 134.198 288.025 134.968 287.571C135.738 287.117 136.481 287.289 136.454 287.399Z" fill="#282828"/>
<path d="M139.106 288.596C139.106 288.72 138.583 288.912 138.143 289.435C137.703 289.957 137.559 290.508 137.455 290.494C137.352 290.48 137.277 289.806 137.834 289.118C138.391 288.431 139.113 288.479 139.106 288.596Z" fill="#282828"/>
<path d="M140.542 291.862C140.425 291.862 140.267 291.257 140.611 290.576C140.955 289.896 141.546 289.648 141.601 289.751C141.656 289.854 141.278 290.212 141.003 290.776C140.728 291.34 140.666 291.855 140.542 291.862Z" fill="#282828"/>
<path d="M136.315 284.367C136.26 284.483 135.689 284.291 134.98 284.318C134.272 284.346 133.715 284.552 133.653 284.442C133.591 284.332 134.135 283.899 134.967 283.878C135.799 283.858 136.383 284.27 136.315 284.367Z" fill="#282828"/>
<g opacity="0.3">
<path opacity="0.3" d="M136.728 276.926L136.577 279.284L123.965 278.782L124.02 276.664L136.728 276.926Z" fill="black"/>
</g>
<path d="M136.444 281.698C136.02 281.804 135.575 281.789 135.158 281.657C134.697 281.558 134.25 281.405 133.824 281.203C133.586 281.08 133.356 280.942 133.136 280.79C132.995 280.704 132.868 280.598 132.758 280.474C132.673 280.382 132.622 280.263 132.614 280.138C132.607 280.012 132.643 279.888 132.717 279.786C132.782 279.701 132.867 279.633 132.963 279.586C133.06 279.54 133.166 279.516 133.274 279.518C133.437 279.519 133.599 279.544 133.755 279.594C134.027 279.673 134.291 279.774 134.546 279.896C134.974 280.104 135.366 280.378 135.708 280.708C136.286 281.279 136.478 281.753 136.43 281.774C136.382 281.795 136.093 281.416 135.502 280.942C135.158 280.663 134.779 280.432 134.374 280.254C134.137 280.152 133.894 280.067 133.645 280C133.377 279.924 133.143 279.917 133.074 280.034C133.005 280.151 133.04 280.096 133.074 280.178C133.155 280.269 133.25 280.346 133.356 280.405C133.577 280.556 133.807 280.694 134.044 280.818C134.435 281.027 134.844 281.197 135.268 281.327C135.667 281.427 136.06 281.551 136.444 281.698Z" fill="#282828"/>
<path d="M136.243 281.877C136.017 281.501 135.914 281.063 135.948 280.625C135.938 280.158 136.01 279.693 136.161 279.25C136.255 278.983 136.372 278.726 136.511 278.48C136.586 278.312 136.702 278.166 136.849 278.057C136.996 277.947 137.169 277.877 137.35 277.854C137.465 277.861 137.576 277.9 137.67 277.967C137.763 278.034 137.836 278.126 137.88 278.232C137.939 278.385 137.978 278.544 137.997 278.707C138.039 278.994 138.039 279.286 137.997 279.573C137.914 280.051 137.713 280.5 137.412 280.88C136.89 281.533 136.36 281.664 136.353 281.623C136.346 281.581 136.752 281.334 137.158 280.701C137.392 280.34 137.542 279.931 137.598 279.504C137.636 279.258 137.636 279.008 137.598 278.762C137.598 278.487 137.474 278.267 137.371 278.294C137.268 278.322 137.02 278.487 136.91 278.7C136.774 278.918 136.659 279.148 136.567 279.388C136.414 279.797 136.317 280.225 136.278 280.66C136.243 281.389 136.34 281.856 136.243 281.877Z" fill="#282828"/>
<path d="M136.906 159.591L97.7758 159.295L78.8711 283.479L95.1076 285.536L115.924 183.434L122.148 285.9L122.168 286.21L139.725 285.9L136.906 159.591Z" fill="#DDE1EA"/>
<path d="M119.107 169.652C119.377 169.618 119.648 169.599 119.919 169.597L122.271 169.515L130.729 169.274H130.888V169.439C130.888 171.894 130.888 174.638 130.888 177.554V177.602L130.833 177.657C130.358 178.083 129.863 178.544 129.354 179.032C127.848 180.408 126.397 181.749 125.015 183.007L124.898 183.11L124.788 183.007L118.997 177.849L118.949 177.808V177.746C118.949 175.277 119.004 173.256 119.025 171.798C119.025 171.11 119.025 170.601 119.025 170.195C119.012 170.015 119.012 169.833 119.025 169.652C119.038 169.849 119.038 170.047 119.025 170.244C119.025 170.663 119.025 171.206 119.059 171.88C119.059 173.318 119.101 175.319 119.128 177.746L119.087 177.643L124.918 182.753H124.685L129.017 178.764L130.496 177.389L130.434 177.526C130.434 174.61 130.434 171.867 130.434 169.411L130.599 169.57L122.236 169.652H119.204C119.172 169.654 119.139 169.654 119.107 169.652Z" fill="#455A64"/>
<path d="M100.697 169.116C100.926 169.1 101.156 169.1 101.385 169.116L103.496 169.288L111.102 169.975H111.26V170.134C110.978 172.534 110.648 175.264 110.297 178.186V178.255L110.242 178.303L108.558 179.679L104.39 182.987L104.259 183.097L104.149 182.959C102.471 180.834 100.924 178.888 99.6038 177.21L99.5625 177.162V177.107C99.8926 174.672 100.161 172.664 100.36 171.213C100.457 170.526 100.532 170.024 100.587 169.618C100.601 169.438 100.636 169.26 100.69 169.088C100.686 169.288 100.67 169.488 100.642 169.687C100.601 170.099 100.553 170.642 100.484 171.316C100.326 172.747 100.106 174.755 99.8445 177.141V177.031L104.438 182.746H104.198L108.324 179.424L110.015 178.049L109.947 178.173C110.311 175.25 110.634 172.52 110.951 170.12L111.095 170.299L103.599 169.46L101.467 169.205C100.972 169.164 100.704 169.13 100.697 169.116Z" fill="#455A64"/>
<path d="M124.637 187.965C124.023 187.725 123.43 187.436 122.863 187.099C121.783 186.542 120.298 185.765 118.64 184.933C116.983 184.101 115.463 183.385 114.363 182.87C113.757 182.616 113.171 182.317 112.609 181.976C113.251 182.137 113.874 182.368 114.466 182.663C115.594 183.124 117.134 183.812 118.799 184.644C120.463 185.476 121.935 186.287 122.987 186.906C123.569 187.207 124.121 187.562 124.637 187.965Z" fill="#455A64"/>
<path d="M124.127 190.978C123.655 190.894 123.203 190.724 122.793 190.476C120.718 189.41 119.025 187.728 117.945 185.662C117.688 185.256 117.51 184.806 117.422 184.334C118.905 187.189 121.251 189.502 124.127 190.943V190.978Z" fill="#455A64"/>
<path d="M135.178 226.861C135.148 227.084 135.088 227.301 135 227.508C134.789 228.093 134.514 228.654 134.181 229.179C133.099 230.919 131.504 232.281 129.617 233.078C127.729 233.874 125.641 234.067 123.639 233.628C123.039 233.504 122.453 233.318 121.892 233.071C121.678 232.996 121.478 232.884 121.301 232.741C122.084 232.996 122.881 233.21 123.687 233.381C125.637 233.739 127.65 233.519 129.476 232.748C131.303 231.977 132.864 230.689 133.968 229.041C134.828 227.755 135.11 226.834 135.178 226.861Z" fill="#455A64"/>
<path d="M132.602 225.802C132.15 226.119 131.644 226.352 131.11 226.49C129.848 226.881 128.538 227.098 127.218 227.137C125.902 227.182 124.585 227.104 123.284 226.903C122.741 226.849 122.207 226.727 121.695 226.538C121.695 226.414 124.164 226.889 127.197 226.779C128.491 226.736 129.777 226.558 131.034 226.249C132.004 225.981 132.582 225.741 132.602 225.802Z" fill="#455A64"/>
<path d="M103.51 226.545C103.113 227.019 102.649 227.434 102.134 227.776C100.942 228.664 99.6289 229.377 98.235 229.894C96.8425 230.412 95.384 230.731 93.9026 230.843C93.2916 230.916 92.6735 230.902 92.0664 230.802C92.6648 230.697 93.2686 230.626 93.875 230.589C96.7797 230.234 99.5598 229.2 101.99 227.57C102.478 227.202 102.985 226.86 103.51 226.545Z" fill="#455A64"/>
<path d="M100.079 226.428C97.7197 227.015 95.2332 226.817 92.9961 225.864C92.9961 225.761 94.5709 226.215 96.524 226.366C98.477 226.518 100.066 226.284 100.079 226.428Z" fill="#455A64"/>
<path d="M115.689 184.286C115.139 184.626 114.547 184.894 113.928 185.084C112.466 185.618 110.955 186.01 109.417 186.253C107.878 186.5 106.319 186.601 104.761 186.556C104.113 186.568 103.466 186.496 102.836 186.342C103.476 186.291 104.119 186.277 104.761 186.301C107.844 186.258 110.904 185.767 113.846 184.843C114.449 184.622 115.064 184.436 115.689 184.286Z" fill="#455A64"/>
<path d="M114.625 180.277C114.722 180.277 114.804 180.587 114.811 180.965C114.818 181.343 114.742 181.652 114.639 181.652C114.536 181.652 114.46 181.35 114.454 180.965C114.447 180.58 114.522 180.277 114.625 180.277Z" fill="#455A64"/>
<path d="M114.623 177.526C114.719 177.526 114.802 177.836 114.795 178.214C114.788 178.592 114.713 178.902 114.616 178.902C114.52 178.902 114.438 178.592 114.438 178.214C114.438 177.836 114.527 177.526 114.623 177.526Z" fill="#455A64"/>
<path d="M114.679 174.776C114.782 174.776 114.851 175.092 114.844 175.463C114.837 175.835 114.747 176.151 114.644 176.151C114.541 176.151 114.472 175.841 114.486 175.463C114.5 175.085 114.582 174.776 114.679 174.776Z" fill="#455A64"/>
<path d="M114.788 172.032C114.892 172.032 114.953 172.348 114.94 172.719C114.926 173.091 114.83 173.407 114.726 173.407C114.623 173.407 114.561 173.098 114.582 172.719C114.603 172.341 114.692 172.025 114.788 172.032Z" fill="#455A64"/>
<path d="M114.926 169.281C115.022 169.281 115.084 169.604 115.063 169.968C115.043 170.333 114.933 170.656 114.836 170.656C114.74 170.656 114.678 170.34 114.706 169.968C114.733 169.597 114.857 169.274 114.926 169.281Z" fill="#455A64"/>
<path d="M115.169 166.537C115.272 166.537 115.327 166.86 115.293 167.225C115.259 167.589 115.155 167.912 115.059 167.912C114.963 167.912 114.901 167.589 114.935 167.225C114.97 166.86 115.073 166.53 115.169 166.537Z" fill="#455A64"/>
<path d="M115.387 164.295C115.483 164.295 115.545 164.508 115.517 164.749C115.49 164.99 115.394 165.182 115.297 165.168C115.201 165.155 115.139 164.955 115.167 164.715C115.194 164.474 115.291 164.281 115.387 164.295Z" fill="#455A64"/>
<path d="M93.2655 282.819C93.3687 282.819 93.3824 283.156 93.3068 283.507C93.2311 283.858 93.0936 284.195 92.9973 284.146C92.9011 284.098 92.8804 283.809 92.9561 283.459C93.0317 283.108 93.1693 282.819 93.2655 282.819Z" fill="#455A64"/>
<path d="M93.8085 280.117C93.9048 280.117 93.9254 280.454 93.8498 280.804C93.7741 281.155 93.6366 281.492 93.5403 281.444C93.444 281.396 93.4234 281.107 93.499 280.756C93.5747 280.405 93.7122 280.068 93.8085 280.117Z" fill="#455A64"/>
<path d="M94.3437 277.421C94.4399 277.421 94.4606 277.758 94.3849 278.108C94.3093 278.459 94.1717 278.796 94.0755 278.748C93.9792 278.7 93.9586 278.411 94.0342 278.06C94.1098 277.71 94.2474 277.4 94.3437 277.421Z" fill="#455A64"/>
<path d="M94.8866 274.725C94.9829 274.725 95.0035 275.062 94.9279 275.413C94.8522 275.763 94.7147 276.1 94.6184 276.052C94.5221 276.004 94.5015 275.715 94.5772 275.365C94.6528 275.014 94.7903 274.704 94.8866 274.725Z" fill="#455A64"/>
<path d="M95.4218 272.022C95.5181 272.022 95.5387 272.366 95.463 272.71C95.3874 273.054 95.2499 273.398 95.1536 273.35C95.0573 273.302 95.0367 273.013 95.1123 272.662C95.188 272.311 95.3255 272.009 95.4218 272.022Z" fill="#455A64"/>
<path d="M95.9687 269.327C96.0649 269.327 96.0856 269.664 96.0099 270.014C95.9343 270.365 95.7967 270.702 95.7005 270.654C95.6042 270.606 95.5836 270.317 95.6592 269.966C95.7348 269.615 95.8724 269.306 95.9687 269.327Z" fill="#455A64"/>
<path d="M96.5038 266.631C96.6001 266.631 96.6207 266.968 96.5451 267.319C96.4694 267.669 96.3319 268.006 96.2356 267.958C96.1393 267.91 96.1187 267.621 96.1943 267.27C96.27 266.92 96.4075 266.61 96.5038 266.631Z" fill="#455A64"/>
<path d="M97.0464 263.935C97.1427 263.935 97.1565 264.272 97.0877 264.623C97.0189 264.974 96.8745 265.311 96.7714 265.262C96.6682 265.214 96.6613 264.925 96.7714 264.575C96.8814 264.224 96.9502 263.914 97.0464 263.935Z" fill="#455A64"/>
<path d="M97.5819 261.239C97.6782 261.239 97.6988 261.576 97.6232 261.927C97.5476 262.278 97.41 262.615 97.3137 262.567C97.2175 262.518 97.1968 262.23 97.2725 261.879C97.3481 261.528 97.4857 261.219 97.5819 261.239Z" fill="#455A64"/>
<path d="M98.1271 258.537C98.2234 258.537 98.2371 258.874 98.1683 259.224C98.0996 259.575 97.9552 259.878 97.852 259.857C97.7488 259.836 97.742 259.52 97.8107 259.169C97.8795 258.819 98.0308 258.523 98.1271 258.537Z" fill="#455A64"/>
<path d="M98.664 255.841C98.7603 255.841 98.7809 256.178 98.7052 256.529C98.6296 256.879 98.4921 257.216 98.3958 257.168C98.2995 257.12 98.2789 256.831 98.3545 256.48C98.4302 256.13 98.5677 255.82 98.664 255.841Z" fill="#455A64"/>
<path d="M99.207 253.145C99.3033 253.145 99.317 253.482 99.2414 253.833C99.1657 254.184 99.0282 254.521 98.9319 254.472C98.8356 254.424 98.8219 254.135 98.8906 253.785C98.9594 253.434 99.1107 253.125 99.207 253.145Z" fill="#455A64"/>
<path d="M99.7421 250.449C99.8384 250.449 99.859 250.786 99.7834 251.137C99.7077 251.488 99.5702 251.825 99.4739 251.777C99.3776 251.728 99.357 251.44 99.4326 251.089C99.5083 250.738 99.6458 250.429 99.7421 250.449Z" fill="#455A64"/>
<path d="M100.278 247.747C100.381 247.747 100.395 248.084 100.319 248.434C100.244 248.785 100.106 249.088 100.01 249.074C99.9137 249.06 99.9 248.737 99.9688 248.386C100.038 248.036 100.182 247.747 100.278 247.747Z" fill="#455A64"/>
<path d="M100.82 245.051C100.917 245.051 100.937 245.388 100.861 245.739C100.786 246.089 100.648 246.426 100.552 246.378C100.456 246.33 100.435 246.041 100.511 245.691C100.586 245.34 100.724 245.03 100.82 245.051Z" fill="#455A64"/>
<path d="M101.359 242.355C101.462 242.355 101.476 242.692 101.401 243.043C101.325 243.394 101.187 243.731 101.091 243.682C100.995 243.634 100.974 243.346 101.05 242.995C101.125 242.644 101.263 242.335 101.359 242.355Z" fill="#455A64"/>
<path d="M101.902 239.659C101.999 239.659 102.019 239.996 101.944 240.347C101.868 240.698 101.73 241.035 101.634 240.987C101.538 240.939 101.517 240.65 101.593 240.299C101.668 239.948 101.806 239.639 101.902 239.659Z" fill="#455A64"/>
<path d="M102.437 236.964C102.534 236.964 102.554 237.301 102.479 237.651C102.403 238.002 102.265 238.305 102.169 238.291C102.073 238.277 102.052 237.954 102.128 237.603C102.204 237.253 102.341 236.943 102.437 236.964Z" fill="#455A64"/>
<path d="M102.98 234.261C103.077 234.261 103.097 234.598 103.022 234.949C102.946 235.299 102.808 235.636 102.712 235.588C102.616 235.54 102.595 235.251 102.671 234.901C102.747 234.55 102.884 234.24 102.98 234.261Z" fill="#455A64"/>
<path d="M103.519 231.565C103.616 231.565 103.636 231.902 103.561 232.253C103.485 232.604 103.348 232.941 103.251 232.893C103.155 232.844 103.134 232.556 103.21 232.205C103.286 231.854 103.423 231.545 103.519 231.565Z" fill="#455A64"/>
<path d="M104.062 228.87C104.159 228.87 104.172 229.206 104.104 229.557C104.035 229.908 103.89 230.245 103.794 230.197C103.698 230.149 103.677 229.86 103.753 229.509C103.829 229.158 103.966 228.849 104.062 228.87Z" fill="#455A64"/>
<path d="M104.613 226.174C104.709 226.174 104.73 226.511 104.654 226.861C104.579 227.212 104.441 227.549 104.345 227.501C104.249 227.453 104.228 227.164 104.304 226.813C104.379 226.463 104.503 226.153 104.613 226.174Z" fill="#455A64"/>
<path d="M105.141 223.471C105.238 223.471 105.251 223.808 105.183 224.159C105.114 224.51 104.97 224.812 104.866 224.792C104.763 224.771 104.756 224.455 104.832 224.104C104.908 223.753 105.045 223.457 105.141 223.471Z" fill="#455A64"/>
<path d="M105.68 220.775C105.776 220.775 105.797 221.112 105.721 221.463C105.645 221.814 105.508 222.151 105.411 222.103C105.315 222.054 105.294 221.766 105.37 221.415C105.446 221.064 105.583 220.755 105.68 220.775Z" fill="#455A64"/>
<path d="M106.223 218.08C106.319 218.08 106.333 218.417 106.264 218.767C106.195 219.118 106.044 219.455 105.948 219.407C105.851 219.359 105.837 219.07 105.906 218.719C105.975 218.368 106.126 218.059 106.223 218.08Z" fill="#455A64"/>
<path d="M106.758 215.384C106.854 215.384 106.875 215.721 106.799 216.072C106.723 216.422 106.586 216.759 106.49 216.711C106.393 216.663 106.373 216.374 106.448 216.023C106.524 215.673 106.675 215.363 106.758 215.384Z" fill="#455A64"/>
<path d="M107.301 212.674C107.397 212.674 107.411 213.011 107.335 213.362C107.259 213.713 107.122 214.015 107.026 214.002C106.929 213.988 106.916 213.665 106.984 213.314C107.053 212.963 107.198 212.674 107.301 212.674Z" fill="#455A64"/>
<path d="M107.836 209.985C107.932 209.985 107.953 210.322 107.877 210.673C107.801 211.024 107.664 211.361 107.568 211.313C107.471 211.265 107.451 210.976 107.526 210.625C107.602 210.274 107.74 209.965 107.836 209.985Z" fill="#455A64"/>
<path d="M108.375 207.29C108.478 207.29 108.492 207.627 108.416 207.977C108.341 208.328 108.203 208.665 108.107 208.617C108.01 208.569 107.99 208.28 108.065 207.929C108.141 207.579 108.279 207.269 108.375 207.29Z" fill="#455A64"/>
<path d="M108.918 204.594C109.014 204.594 109.035 204.931 108.959 205.282C108.883 205.632 108.746 205.969 108.65 205.921C108.553 205.873 108.533 205.584 108.608 205.233C108.684 204.883 108.822 204.573 108.918 204.594Z" fill="#455A64"/>
<path d="M109.426 201.898C109.522 201.898 109.543 202.235 109.467 202.586C109.391 202.937 109.254 203.239 109.157 203.225C109.061 203.212 109.041 202.888 109.116 202.538C109.192 202.187 109.357 201.878 109.426 201.898Z" fill="#455A64"/>
<path d="M109.996 199.196C110.092 199.196 110.113 199.532 110.037 199.883C109.962 200.234 109.824 200.571 109.728 200.523C109.632 200.475 109.611 200.186 109.687 199.835C109.762 199.484 109.9 199.175 109.996 199.196Z" fill="#455A64"/>
<path d="M110.531 196.5C110.627 196.5 110.648 196.837 110.572 197.187C110.497 197.538 110.359 197.875 110.263 197.827C110.167 197.779 110.146 197.49 110.222 197.139C110.297 196.789 110.435 196.479 110.531 196.5Z" fill="#455A64"/>
<path d="M111.074 193.804C111.17 193.804 111.191 194.141 111.115 194.492C111.04 194.842 110.902 195.179 110.806 195.131C110.71 195.083 110.689 194.794 110.765 194.444C110.84 194.093 110.978 193.783 111.074 193.804Z" fill="#455A64"/>
<path d="M111.613 191.108C111.709 191.108 111.73 191.445 111.654 191.796C111.579 192.147 111.441 192.484 111.345 192.435C111.249 192.387 111.228 192.099 111.304 191.748C111.379 191.397 111.489 191.088 111.613 191.108Z" fill="#455A64"/>
<path d="M112.175 188.406C112.272 188.406 112.285 188.743 112.217 189.093C112.148 189.444 112.003 189.747 111.9 189.733C111.797 189.719 111.79 189.396 111.9 189.045C112.01 188.694 112.058 188.392 112.175 188.406Z" fill="#455A64"/>
<path d="M112.691 185.71C112.788 185.71 112.808 186.047 112.733 186.398C112.657 186.748 112.519 187.085 112.423 187.037C112.327 186.989 112.306 186.7 112.382 186.349C112.457 185.999 112.595 185.689 112.691 185.71Z" fill="#455A64"/>
<path d="M166.629 102.526C166.629 102.526 171.209 95.6493 171.333 95.6012C171.333 95.6012 175.459 88.6417 176.834 88.6417C178.21 88.6417 177.715 90.0515 176.298 92.5478C175.614 93.6304 175.147 94.8356 174.923 96.0963L178.313 98.1594C178.313 98.1594 180.582 97.286 180.679 99.3972C180.64 100.363 180.509 101.324 180.287 102.265C180.149 103.021 179.805 103.819 179.097 103.537C178.92 103.478 178.766 103.364 178.657 103.212C178.549 103.06 178.491 102.878 178.492 102.691C178.444 101.44 178.677 100.979 178.492 100.979C178.306 100.979 176.05 107.54 176.05 107.54L166.629 102.526Z" fill="#FFBE9D"/>
<path d="M175.871 97.1416C176.214 96.8899 176.58 96.6712 176.965 96.4883C177.351 96.3085 177.78 96.2418 178.202 96.2957C178.469 96.333 178.713 96.4648 178.89 96.6671C178.994 96.817 179.06 96.9896 179.082 97.1703C179.105 97.3511 179.084 97.5347 179.021 97.7055C178.888 98.0459 178.7 98.3619 178.464 98.6408" fill="#FFBE9D"/>
<path d="M174.324 95.7662C174.651 95.5346 174.996 95.33 175.356 95.1542C175.722 94.9827 176.131 94.9206 176.532 94.9754C176.781 95.0089 177.011 95.1309 177.178 95.3192C177.279 95.4598 177.343 95.6234 177.365 95.7952C177.387 95.9669 177.365 96.1414 177.302 96.3026C176.999 96.7956 176.646 97.2564 176.25 97.678" fill="#FFBE9D"/>
<path d="M168.225 98.6545L161.609 112.8L168.906 120.255L172.695 109.713C172.695 109.713 174.758 110.118 175.563 108.764C176.491 107.258 177.708 102.898 177.708 102.898L168.225 98.6545Z" fill="#FFBE9D"/>
<path d="M172.949 98.2626C173.012 97.5485 173.285 96.8691 173.733 96.3095C174.032 95.8946 174.42 95.5516 174.868 95.3055C175.212 95.1198 175.439 95.0579 175.459 95.0992C175.48 95.1404 174.668 95.6218 174.022 96.5158C173.376 97.4098 173.066 98.3107 172.949 98.2626Z" fill="#EB996E"/>
<path d="M180.291 98.3244C180.256 98.3726 180.036 98.2488 179.651 98.18C179.156 98.088 178.645 98.1655 178.2 98.4001C177.771 98.6752 177.405 99.0386 177.127 99.466C176.893 99.7961 176.735 100.002 176.694 99.9818C176.653 99.9612 176.694 99.7067 176.914 99.3354C177.156 98.8186 177.543 98.3836 178.028 98.0837C178.284 97.9464 178.566 97.8622 178.855 97.8363C179.145 97.8103 179.436 97.843 179.713 97.9325C180.132 98.0769 180.318 98.2901 180.291 98.3244Z" fill="#EB996E"/>
<path d="M177.831 96.3301C177.284 96.5797 176.763 96.8838 176.277 97.2379C175.534 97.9256 175.17 98.6614 175.066 98.6133C175.163 97.9599 175.511 97.37 176.036 96.9697C176.385 96.6623 176.802 96.443 177.253 96.3301C177.604 96.2545 177.824 96.282 177.831 96.3301Z" fill="#EB996E"/>
<path d="M179.454 99.3835C179.55 99.3835 179.722 99.8924 179.371 100.443C179.02 100.993 178.463 101.075 178.45 100.979C178.436 100.883 178.807 100.683 179.069 100.257C179.33 99.8305 179.35 99.3972 179.454 99.3835Z" fill="#EB996E"/>
<path d="M166.643 102.251C166.643 102.251 166.416 98.0287 167.434 97.0728C168.451 96.1169 171.381 97.1141 171.381 97.1141" fill="#FFBE9D"/>
<path d="M171.791 95.0785C171.389 95.9409 170.881 96.7495 170.278 97.4855C169.77 98.2882 169.165 99.0251 168.477 99.6792C169.383 98.0119 170.497 96.466 171.791 95.0785Z" fill="#EB996E"/>
<path d="M100.484 98.9434C100.587 98.3795 100.725 97.7193 100.917 96.9491C101.092 96.2898 101.375 95.6644 101.756 95.0992C102.204 94.3779 102.748 93.7208 103.373 93.1461C103.511 93.0589 103.619 92.9305 103.681 92.7789C103.743 92.6274 103.756 92.4602 103.718 92.3009C103.68 92.1416 103.593 91.9982 103.469 91.8907C103.346 91.7833 103.192 91.7173 103.029 91.7019C102.341 91.7019 100.56 92.9467 99.3495 95.1404C98.1392 97.3342 97.4309 93.4487 97.1489 92.0389C96.8669 90.6291 95.7735 86.2967 95.2715 86.0422C94.5357 85.664 93.9993 86.3861 94.3156 87.789C94.6319 89.1919 95.2852 93.4693 94.5288 93.5862C93.7723 93.7031 92.4657 86.4892 92.4657 86.4892C92.4657 86.4892 92.4244 84.9006 91.5511 85.0038C89.9762 85.1895 91.9706 92.7472 92.1837 93.4624C92.3282 93.9576 91.4961 94.1501 91.386 93.5725C91.276 92.9948 90.2032 86.3448 88.594 86.5236C87.363 86.6543 90.1826 92.7541 89.6324 94.2602C89.0822 95.7662 87.9613 89.4463 86.7922 89.5907C86.3521 89.6595 86.0358 89.7626 87.2048 93.318C87.7687 95.0441 89.9556 103.118 89.9556 103.118L88.6971 109.74L98.7444 112.285L100.484 98.9434Z" fill="#FFBE9D"/>
<path d="M113.221 63.087L113.125 96.0344L127.257 96.7221L127.663 88.7105C127.663 88.7105 132.69 89.7076 133.983 85.0451C134.808 82.0673 134.602 59.0433 134.602 59.0433L113.221 63.087Z" fill="#FFBE9D"/>
<path d="M136.464 61.3815C134.236 62.0141 133.754 65.6589 133.754 65.6589L130.261 73.368C128.48 71.9926 126.093 72.0545 125.64 75.1835C125.309 77.4391 128.122 77.8999 128.122 77.8999C126.485 80.6507 125.371 82.9338 122.999 85.5815C120.42 88.4423 118.976 88.7311 116.184 88.7792H113.103C113.103 88.7792 111.59 83.8828 108.798 71.635C105.696 58.053 121.761 59.7998 124.739 56.3338C129.594 50.6603 143.478 59.3184 136.464 61.3815Z" fill="#282828"/>
<path d="M109.095 72.8935C106.489 71.1399 106.255 66.2504 107.775 63.3139C108.554 61.8508 109.706 60.6194 111.114 59.744C112.522 58.8686 114.136 58.3802 115.793 58.3281C116.236 58.3508 116.68 58.2997 117.107 58.1768C117.678 57.8655 118.153 57.4042 118.482 56.8427C120.813 53.8168 123.096 50.846 127.422 50.846C128.386 50.801 129.343 51.0401 130.173 51.5337C130.941 52.0614 131.518 52.8238 131.816 53.7068C132.61 53.279 133.463 52.9708 134.347 52.7922C134.792 52.7048 135.25 52.7149 135.691 52.8218C136.131 52.9286 136.543 53.1297 136.898 53.4111C137.242 53.7056 137.471 54.1121 137.544 54.5589C137.617 55.0056 137.529 55.4638 137.297 55.8524C138.032 55.8423 138.745 56.0954 139.309 56.5659C139.873 57.0364 140.25 57.6933 140.371 58.4175C140.605 59.8617 138.528 60.8795 138.308 60.9895C138.308 60.9895 139.443 63.3758 136.733 64.7993C135.64 65.377 134.216 64.6824 134.058 64.5999" fill="#282828"/>
<path d="M119.411 76.0569C119.687 77.7407 119.3 79.4659 118.332 80.8707C118.242 80.8226 118.696 79.8117 119.019 78.4982C119.343 77.1847 119.308 76.0637 119.411 76.0569Z" fill="#455A64"/>
<path d="M121.115 74.4477C121.235 75.2505 121.191 76.0695 120.984 76.8546C120.897 77.6642 120.642 78.4467 120.234 79.1515C120.295 78.3547 120.429 77.5652 120.633 76.7927C120.719 75.9975 120.88 75.2123 121.115 74.4477Z" fill="#455A64"/>
<path d="M126.019 69.0011C126.053 69.0493 125.655 69.345 125.146 69.9364C124.491 70.7211 123.974 71.6118 123.619 72.5703C123.269 73.5369 122.988 74.5274 122.78 75.5342C122.715 75.9621 122.597 76.3802 122.429 76.779C122.398 76.3456 122.431 75.9101 122.526 75.4861C122.672 74.4466 122.928 73.4255 123.289 72.4396C123.655 71.4419 124.224 70.531 124.96 69.7645C125.247 69.4287 125.61 69.1669 126.019 69.0011Z" fill="#455A64"/>
<path d="M127.992 65.3013C128.034 65.3013 128.178 65.6177 128.267 66.1953C128.476 67.7115 128.089 69.2494 127.188 70.4866C126.844 70.9473 126.562 71.1743 126.5 71.1399C127.036 70.2676 127.461 69.332 127.765 68.3547C127.97 67.3506 128.046 66.3246 127.992 65.3013Z" fill="#455A64"/>
<path d="M111.132 73.5331C111.084 73.6156 110.651 73.4643 110.162 73.1961C109.674 72.9279 109.323 72.6322 109.372 72.5497C109.42 72.4671 109.853 72.6115 110.334 72.8866C110.816 73.1617 111.18 73.4437 111.132 73.5331Z" fill="#455A64"/>
<path d="M117.959 70.012C118.012 70.5254 117.867 71.0396 117.553 71.4493C117.12 72.1714 116.529 72.5496 116.473 72.474C116.418 72.3983 116.852 71.9307 117.244 71.2636C117.636 70.5966 117.856 69.9914 117.959 70.012Z" fill="#455A64"/>
<path d="M120.058 68.8842C120.043 69.5084 119.823 70.1103 119.432 70.5966C118.861 71.4562 118.153 71.917 118.098 71.8413C118.413 71.3399 118.757 70.8576 119.129 70.3972C119.41 69.8758 119.72 69.3706 120.058 68.8842Z" fill="#455A64"/>
<path d="M130.497 55.0891C130.497 55.0891 130.229 54.8828 129.72 54.5939C128.991 54.2049 128.18 53.9951 127.354 53.9819C126.142 53.9558 124.948 54.2806 123.915 54.9171C122.657 55.7378 121.635 56.8734 120.952 58.2112C120.436 59.1943 120.032 60.2324 119.748 61.3058L119.693 61.5121L119.507 61.409C118.532 60.8994 117.451 60.624 116.351 60.6044C115.48 60.5809 114.611 60.7112 113.786 60.9895C113.063 61.2667 112.371 61.6193 111.723 62.0417C111.857 61.8769 112.017 61.7353 112.197 61.6222C112.671 61.2726 113.192 60.9924 113.744 60.7901C114.59 60.4678 115.487 60.3045 116.392 60.3087C117.543 60.3068 118.677 60.5803 119.7 61.1064L119.452 61.2164C119.732 60.1156 120.141 59.0515 120.67 58.0462C121.375 56.6394 122.449 55.4508 123.778 54.6077C124.879 53.9512 126.149 53.6354 127.43 53.6999C128.292 53.737 129.13 53.9951 129.864 54.4495C130.058 54.5745 130.24 54.7173 130.407 54.8759C130.449 55.0134 130.504 55.0753 130.497 55.0891Z" fill="#455A64"/>
<path d="M137.931 56.8771C137.931 56.8771 138.323 56.7739 138.742 57.2484C138.863 57.3896 138.954 57.5538 139.01 57.7311C139.065 57.9084 139.084 58.0951 139.066 58.28C139.029 58.5257 138.936 58.7596 138.794 58.9636C138.652 59.1675 138.465 59.336 138.247 59.4559C137.725 59.7501 137.11 59.8338 136.528 59.6897C135.885 59.5241 135.282 59.2319 134.754 58.8301C134.202 58.3976 133.623 58.0002 133.021 57.6404C132.375 57.2927 131.679 57.0469 130.958 56.9114C129.534 56.6552 128.07 56.7544 126.694 57.2003C125.568 57.5691 124.505 58.1096 123.544 58.8026C122.67 59.4679 121.83 60.1771 121.027 60.9276C121.186 60.6777 121.373 60.4469 121.584 60.2399C122.139 59.6432 122.744 59.0956 123.393 58.6032C124.361 57.8656 125.44 57.2875 126.591 56.8908C128.016 56.4126 129.539 56.2992 131.02 56.5607C131.787 56.7063 132.527 56.9708 133.213 57.3447C133.824 57.714 134.41 58.1229 134.967 58.5688C135.458 58.9526 136.018 59.2375 136.617 59.4078C137.126 59.5494 137.67 59.4903 138.137 59.2427C138.33 59.1487 138.499 59.0108 138.629 58.84C138.759 58.6692 138.847 58.4704 138.887 58.2593C138.933 57.9544 138.862 57.6434 138.689 57.3884C138.515 57.1334 138.252 56.9532 137.952 56.8839L137.931 56.8771Z" fill="#455A64"/>
<path d="M98.8548 97.6436L81.5799 128.535C81.105 129.906 80.9783 131.373 81.2112 132.805C81.444 134.237 82.0292 135.589 82.914 136.739L82.5564 136.23C83.2474 137.087 84.1209 137.778 85.1131 138.254C86.1054 138.73 87.1913 138.978 88.2918 138.981H88.615C90.0524 138.981 91.4585 138.561 92.6606 137.773C93.8628 136.985 94.8086 135.863 95.3819 134.545L99.4324 128.356L98.8548 97.6436Z" fill="#EF293D"/>
<path d="M136.245 95.4361C132.854 93.7031 129.512 93.3111 125.861 93.208C121.611 93.0842 115.614 92.4859 111.034 92.9742C111.034 92.9742 97.0736 92.5478 97.0117 103.365L98.8548 144.902L95.8633 162.706L137.703 163.972L137.4 142.97C137.916 132.042 136.816 116.569 136.816 116.569C137.455 110.689 140.673 108.048 141.127 104.225C141.554 100.848 139.298 96.9834 136.245 95.4361Z" fill="#EF293D"/>
<path d="M124.477 145.507C124.295 145.726 124.088 145.922 123.859 146.092C123.262 146.58 122.624 147.017 121.954 147.398C119.724 148.674 117.208 149.367 114.639 149.413C112.07 149.459 109.531 148.856 107.258 147.66C106.574 147.3 105.921 146.886 105.305 146.422C105.072 146.26 104.86 146.07 104.672 145.858C104.713 145.803 105.642 146.587 107.375 147.433C109.629 148.54 112.115 149.094 114.626 149.05C117.137 149.006 119.602 148.364 121.816 147.178C123.535 146.271 124.429 145.452 124.477 145.507Z" fill="#282828"/>
<path d="M97.0472 103.365C97.0745 103.501 97.0907 103.639 97.0954 103.778C97.0954 104.087 97.1366 104.466 97.1642 104.954C97.2123 106.02 97.2811 107.485 97.3636 109.273C97.5218 112.959 97.7281 117.979 97.9619 123.522C98.1957 129.064 98.4433 134.085 98.6083 137.777C98.6977 139.565 98.7734 141.03 98.8284 142.096C98.8284 142.571 98.8628 142.963 98.8765 143.272C98.8926 143.409 98.8926 143.548 98.8765 143.685C98.8391 143.55 98.8184 143.412 98.8146 143.272C98.8146 142.97 98.7459 142.584 98.6977 142.103C98.5946 141.085 98.4914 139.614 98.3607 137.791C98.1132 134.146 97.845 129.106 97.6112 123.542C97.3773 117.979 97.2123 112.931 97.116 109.279C97.116 107.491 97.0541 106.027 97.0335 104.954C97.0335 104.479 97.0335 104.087 97.0335 103.778C97.022 103.64 97.0266 103.502 97.0472 103.365Z" fill="#282828"/>
<path d="M88.2568 106.955C88.2568 106.955 86.6751 111.604 86.3932 112.23C86.3932 112.23 82.4871 123.522 81.2148 131.148L93.7034 108.599C93.8134 108.612 88.4288 107.003 88.2568 106.955Z" fill="#EF293D"/>
<path d="M94.4138 105.593C94.3772 105.706 94.3288 105.814 94.2694 105.917L93.7949 106.824C93.3685 107.601 92.7427 108.722 91.9381 110.091C90.3496 112.842 87.9633 116.507 85.5495 120.688C84.346 122.751 83.3213 124.814 82.4342 126.733C81.5933 128.372 81.1749 130.194 81.217 132.035C81.2806 133.274 81.6113 134.485 82.1866 135.584C82.5992 136.354 82.9431 136.718 82.9156 136.739C82.8881 136.76 82.8193 136.663 82.6611 136.485C82.4414 136.222 82.2415 135.944 82.0628 135.653C81.4263 134.551 81.0499 133.318 80.9625 132.049C80.885 130.162 81.2873 128.285 82.1316 126.596C83.0119 124.684 84.0228 122.614 85.24 120.509C87.6607 116.315 90.0539 112.67 91.725 109.96L93.6711 106.756L94.2075 105.882C94.3313 105.69 94.4001 105.587 94.4138 105.593Z" fill="#282828"/>
<path d="M171.359 117.126L161.69 110.792L155.577 121.376C155.577 121.376 147.104 109.603 143.26 102.705C139.719 96.3576 135.139 94.6522 132.945 94.1914C132.794 94.16 132.637 94.1649 132.488 94.2056C132.339 94.2464 132.202 94.3219 132.088 94.4259C131.974 94.5299 131.886 94.6595 131.832 94.804C131.778 94.9486 131.758 95.1039 131.776 95.2573L135.111 118.151C135.531 119.347 142.524 129.477 146.424 134.573C152.943 143.08 162.543 137.633 165.184 131.678C167.247 126.953 170.507 119.774 171.359 117.126Z" fill="#EF293D"/>
<path d="M158.356 130.935C158.236 130.44 158.173 129.932 158.17 129.422C158.088 128.212 157.932 127.009 157.703 125.818C157.464 124.634 157.047 123.493 156.465 122.435C156.011 121.63 155.626 121.197 155.667 121.156C156.084 121.462 156.431 121.854 156.685 122.304C157.351 123.356 157.818 124.522 158.06 125.743C158.297 126.951 158.421 128.178 158.432 129.408C158.468 129.918 158.442 130.431 158.356 130.935Z" fill="#282828"/>
<path d="M161.187 126.204C161.132 126.204 161.084 125.708 160.843 124.959C160.526 123.991 159.998 123.105 159.296 122.366C158.643 121.591 157.723 121.088 156.717 120.956C156.299 120.965 155.886 121.051 155.5 121.211C155.657 121.046 155.849 120.917 156.062 120.835C156.275 120.753 156.503 120.719 156.731 120.736C157.274 120.767 157.805 120.909 158.291 121.152C158.777 121.396 159.208 121.736 159.557 122.153C160.299 122.921 160.828 123.869 161.091 124.904C161.224 125.324 161.257 125.769 161.187 126.204Z" fill="#282828"/>
<path d="M132.291 97.0178C132.223 97.1157 132.145 97.2056 132.057 97.286L131.761 97.5886L131.39 98.0356C130.627 98.9943 130.057 100.092 129.712 101.268C129.202 103.022 129.078 104.866 129.348 106.673C129.48 107.74 129.76 108.784 130.18 109.775C130.646 110.837 131.167 111.874 131.741 112.883C134.113 117.043 136.555 120.64 138.315 123.24L140.44 126.293C140.72 126.655 140.978 127.034 141.21 127.428C141.21 127.428 141.114 127.345 140.963 127.166C140.811 126.988 140.598 126.726 140.33 126.376C139.787 125.688 139.023 124.663 138.109 123.384C135.711 120.06 133.482 116.617 131.431 113.069C130.849 112.047 130.321 110.996 129.85 109.919C129.431 108.9 129.151 107.829 129.017 106.735C128.763 104.89 128.918 103.012 129.471 101.233C129.843 100.032 130.459 98.9199 131.28 97.9668L131.679 97.5336C131.803 97.4304 131.913 97.341 132.009 97.2516C132.105 97.1622 132.284 97.0041 132.291 97.0178Z" fill="#282828"/>
<g opacity="0.3">
<path opacity="0.3" d="M121.487 147.343C124.575 145.968 126.988 142.708 127.098 139.442C127.145 139.004 127.101 138.561 126.971 138.14C126.841 137.719 126.627 137.329 126.342 136.994C125.427 136.093 123.887 136.265 122.752 136.856C120.882 137.839 119.658 139.689 118.344 141.34C117.031 142.99 115.359 144.62 113.262 144.82C112.354 144.846 111.446 144.779 110.552 144.62C109.656 144.46 108.732 144.57 107.898 144.936C107.493 145.139 107.167 145.468 106.968 145.875C106.769 146.281 106.709 146.742 106.798 147.185C106.798 147.185 110.497 149.482 114.362 149.214C116.826 148.999 119.235 148.366 121.487 147.343Z" fill="black"/>
</g>
<path d="M132.312 157.844C132.219 157.899 132.12 157.941 132.016 157.968L131.15 158.271C130.771 158.401 130.304 158.553 129.774 158.697C129.245 158.842 128.612 159.034 127.911 159.185C126.279 159.575 124.629 159.878 122.966 160.093C118.888 160.611 114.761 160.611 110.684 160.093C109.021 159.889 107.37 159.595 105.739 159.213C105.052 159.069 104.419 158.883 103.869 158.738C103.319 158.594 102.851 158.443 102.493 158.319L101.62 158.023C101.516 157.992 101.417 157.948 101.324 157.893C101.434 157.903 101.542 157.923 101.647 157.954L102.535 158.181C102.92 158.291 103.387 158.422 103.91 158.546C104.433 158.67 105.086 158.835 105.787 158.965C107.163 159.268 108.848 159.543 110.718 159.763C112.744 159.989 114.78 160.104 116.818 160.107C118.857 160.09 120.893 159.964 122.918 159.729C124.788 159.502 126.459 159.213 127.849 158.903C128.536 158.773 129.169 158.601 129.719 158.47C130.269 158.34 130.737 158.216 131.095 158.106L131.982 157.865C132.09 157.84 132.201 157.833 132.312 157.844Z" fill="#282828"/>
<path d="M300 294.51C300 294.606 232.84 294.689 150.007 294.689C67.174 294.689 0 294.62 0 294.51C0 294.4 67.1465 294.331 150.007 294.331C232.867 294.331 300 294.421 300 294.51Z" fill="#282828"/>
</svg>
