<svg width="303" height="292" viewBox="0 0 303 292" fill="none" xmlns="http://www.w3.org/2000/svg">
<path d="M136.742 51.9704C136.742 51.8025 136.232 51.6681 135.601 51.6681C136.198 52.266 135.769 51.8361 135.896 51.9704V51.7554V51.5405C135.883 51.4179 135.861 51.2966 135.829 51.1777C135.775 50.9694 135.702 50.8417 135.621 50.8417C135.54 50.8417 135.467 50.9694 135.413 51.1777C135.381 51.2966 135.359 51.4179 135.346 51.5405C135.346 51.6278 135.346 51.7017 135.346 51.7554V51.9368L135.641 52.2325C136.232 52.2661 136.742 52.1317 136.742 51.9704Z" fill="#282828"/>
<path d="M141.324 51.9702C141.324 51.8023 140.814 51.6679 140.183 51.6679C139.552 51.6679 139.035 51.8023 139.035 51.9702C139.035 52.1382 139.552 52.2659 140.183 52.2659C140.814 52.2659 141.324 52.1315 141.324 51.9702Z" fill="#282828"/>
<path d="M145.922 51.9702C145.922 51.8023 145.412 51.6679 144.781 51.6679C144.149 51.6679 143.632 51.8023 143.632 51.9702C143.632 52.1382 144.143 52.2659 144.781 52.2659C145.418 52.2659 145.922 52.1315 145.922 51.9702Z" fill="#282828"/>
<path d="M150.48 51.9702C150.48 51.8023 149.97 51.6679 149.332 51.6679C148.695 51.6679 148.191 51.8023 148.191 51.9702C148.191 52.1382 148.701 52.2659 149.332 52.2659C149.963 52.2659 150.48 52.1315 150.48 51.9702Z" fill="#282828"/>
<path d="M155.062 51.9702C155.062 51.8023 154.546 51.6679 153.914 51.6679C153.283 51.6679 152.773 51.8023 152.773 51.9702C152.773 52.1382 153.283 52.2659 153.914 52.2659C154.546 52.2659 155.062 52.1315 155.062 51.9702Z" fill="#282828"/>
<path d="M159.641 51.9702C159.641 51.8023 159.124 51.6679 158.493 51.6679C157.861 51.6679 157.351 51.8023 157.351 51.9702C157.351 52.1382 157.861 52.2659 158.493 52.2659C159.124 52.2659 159.641 52.1315 159.641 51.9702Z" fill="#282828"/>
<path d="M164.211 51.9702C164.211 51.8023 163.701 51.6679 163.07 51.6679C162.438 51.6679 161.922 51.8023 161.922 51.9702C161.922 52.1382 162.438 52.2659 163.07 52.2659C163.701 52.2659 164.211 52.1315 164.211 51.9702Z" fill="#282828"/>
<path d="M168.789 51.9702C168.789 51.8023 168.279 51.6679 167.648 51.6679C167.017 51.6679 166.5 51.8023 166.5 51.9702C166.5 52.1382 167.017 52.2659 167.648 52.2659C168.279 52.2659 168.789 52.1315 168.789 51.9702Z" fill="#282828"/>
<path d="M173.367 51.9702C173.367 51.8023 172.857 51.6679 172.226 51.6679C171.595 51.6679 171.078 51.8023 171.078 51.9702C171.078 52.1382 171.588 52.2659 172.226 52.2659C172.864 52.2659 173.367 52.1315 173.367 51.9702Z" fill="#282828"/>
<path d="M177.949 51.9702C177.949 51.8023 177.439 51.6679 176.801 51.6679C176.163 51.6679 175.66 51.8023 175.66 51.9702C175.66 52.1382 176.17 52.2659 176.801 52.2659C177.432 52.2659 177.949 52.1315 177.949 51.9702Z" fill="#282828"/>
<path d="M182.527 51.9702C182.527 51.8023 182.01 51.6679 181.379 51.6679C180.748 51.6679 180.238 51.8023 180.238 51.9702C180.238 52.1382 180.748 52.2659 181.379 52.2659C182.01 52.2659 182.527 52.1315 182.527 51.9702Z" fill="#282828"/>
<path d="M187.105 51.9702C187.105 51.8023 186.588 51.6679 185.957 51.6679C185.326 51.6679 184.816 51.8023 184.816 51.9702C184.816 52.1382 185.326 52.2659 185.957 52.2659C186.588 52.2659 187.105 52.1315 187.105 51.9702Z" fill="#282828"/>
<path d="M191.68 51.9702C191.68 51.8023 191.169 51.6679 190.538 51.6679C189.907 51.6679 189.39 51.8023 189.39 51.9702C189.39 52.1382 189.907 52.2659 190.538 52.2659C191.169 52.2659 191.68 52.1315 191.68 51.9702Z" fill="#282828"/>
<path d="M196.277 51.9702C196.277 51.8023 195.767 51.6679 195.136 51.6679C194.505 51.6679 193.988 51.8023 193.988 51.9702C193.988 52.1382 194.505 52.2659 195.136 52.2659C195.767 52.2659 196.277 52.1315 196.277 51.9702Z" fill="#282828"/>
<path d="M199.695 52.2662C199.064 52.2662 198.553 52.1339 198.553 51.9706C198.553 51.8073 199.064 51.675 199.695 51.675C200.325 51.675 200.836 51.8073 200.836 51.9706C200.836 52.1339 200.325 52.2662 199.695 52.2662Z" fill="#282828"/>
<path d="M204.268 50.8217C204.107 50.8217 203.973 51.3323 203.973 51.9706C204.57 51.3726 204.134 51.8026 204.268 51.6682H204.04H203.825C203.703 51.6791 203.582 51.6993 203.462 51.7287C203.254 51.7825 203.127 51.8564 203.127 51.9437C203.127 52.031 203.254 52.0982 203.462 52.152C203.582 52.1814 203.703 52.2016 203.825 52.2124H204.04H204.268L204.57 51.9168C204.57 51.3323 204.436 50.8217 204.268 50.8217Z" fill="#282828"/>
<path d="M204.268 46.2729C204.107 46.2729 203.973 46.7768 203.973 47.4083C203.973 48.0399 204.107 48.5438 204.268 48.5438C204.429 48.5438 204.57 48.0399 204.57 47.4083C204.57 46.7768 204.436 46.2729 204.268 46.2729Z" fill="#282828"/>
<path d="M204.268 41.7177C204.107 41.7177 203.973 42.2283 203.973 42.8531C203.973 43.478 204.107 43.9953 204.268 43.9953C204.429 43.9953 204.57 43.4847 204.57 42.8531C204.57 42.2216 204.436 41.7177 204.268 41.7177Z" fill="#282828"/>
<path d="M204.268 37.1564C204.107 37.1564 203.973 37.667 203.973 38.2986C203.973 38.9301 204.107 39.434 204.268 39.434C204.429 39.434 204.57 38.9234 204.57 38.2986C204.57 37.6738 204.436 37.1564 204.268 37.1564Z" fill="#282828"/>
<path d="M204.268 32.6144C204.107 32.6144 203.973 33.1251 203.973 33.7499C203.973 34.3747 204.107 34.892 204.268 34.892C204.429 34.892 204.57 34.3814 204.57 33.7499C204.57 33.1183 204.436 32.6144 204.268 32.6144Z" fill="#282828"/>
<path d="M204.268 28.0595C204.107 28.0595 203.973 28.5701 203.973 29.1949C203.973 29.8198 204.107 30.3371 204.268 30.3371C204.429 30.3371 204.57 29.8265 204.57 29.1949C204.57 28.5634 204.436 28.0595 204.268 28.0595Z" fill="#282828"/>
<path d="M204.268 23.5041C204.107 23.5041 203.973 24.0147 203.973 24.6462C203.973 25.2778 204.107 25.7817 204.268 25.7817C204.429 25.7817 204.57 25.2711 204.57 24.6462C204.57 24.0214 204.436 23.5041 204.268 23.5041Z" fill="#282828"/>
<path d="M204.268 18.9557C204.107 18.9557 203.973 19.4664 203.973 20.0912C203.973 20.716 204.107 21.2333 204.268 21.2333C204.429 21.2333 204.57 20.7227 204.57 20.0912C204.57 19.4596 204.436 18.9557 204.268 18.9557Z" fill="#282828"/>
<path d="M204.268 14.4003C204.107 14.4003 203.973 14.9109 203.973 15.5425C203.973 16.174 204.107 16.6779 204.268 16.6779C204.429 16.6779 204.57 16.1673 204.57 15.5425C204.57 14.9177 204.436 14.4003 204.268 14.4003Z" fill="#282828"/>
<path d="M203.127 10.954C203.127 11.122 203.637 11.2496 204.268 11.2496L203.973 10.954V11.169C203.973 11.2295 203.973 11.2966 203.973 11.384C203.989 11.5082 204.011 11.6315 204.04 11.7535C204.094 11.9551 204.168 12.0827 204.248 12.0827C204.329 12.0827 204.409 11.9551 204.463 11.7535C204.492 11.632 204.513 11.5085 204.523 11.384V11.169V10.954L204.221 10.6584C203.664 10.6853 203.127 10.8196 203.127 10.954Z" fill="#282828"/>
<path d="M198.546 10.954C198.546 11.122 199.057 11.2496 199.695 11.2496C200.332 11.2496 200.836 11.122 200.836 10.954C200.836 10.786 200.326 10.6584 199.695 10.6584C199.063 10.6584 198.546 10.8196 198.546 10.954Z" fill="#282828"/>
<path d="M193.968 10.954C193.968 11.122 194.485 11.2496 195.116 11.2496C195.747 11.2496 196.277 11.1488 196.277 10.954C196.277 10.7592 195.767 10.6584 195.136 10.6584C194.505 10.6584 193.968 10.8196 193.968 10.954Z" fill="#282828"/>
<path d="M189.39 10.954C189.39 11.122 189.907 11.2496 190.538 11.2496C191.169 11.2496 191.68 11.122 191.68 10.954C191.68 10.786 191.169 10.6584 190.538 10.6584C189.907 10.6584 189.39 10.8196 189.39 10.954Z" fill="#282828"/>
<path d="M184.816 10.954C184.816 11.122 185.326 11.2496 185.957 11.2496C186.588 11.2496 187.105 11.122 187.105 10.954C187.105 10.786 186.588 10.6584 185.957 10.6584C185.326 10.6584 184.816 10.8196 184.816 10.954Z" fill="#282828"/>
<path d="M180.238 10.954C180.238 11.122 180.748 11.2496 181.379 11.2496C182.01 11.2496 182.527 11.122 182.527 10.954C182.527 10.786 182.01 10.6584 181.379 10.6584C180.748 10.6584 180.238 10.8196 180.238 10.954Z" fill="#282828"/>
<path d="M175.66 10.954C175.66 11.122 176.17 11.2496 176.801 11.2496C177.432 11.2496 177.949 11.122 177.949 10.954C177.949 10.786 177.439 10.6584 176.801 10.6584C176.163 10.6584 175.66 10.8196 175.66 10.954Z" fill="#282828"/>
<path d="M171.078 10.954C171.078 11.122 171.588 11.2496 172.226 11.2496C172.864 11.2496 173.367 11.122 173.367 10.954C173.367 10.786 172.857 10.6584 172.226 10.6584C171.595 10.6584 171.078 10.8196 171.078 10.954Z" fill="#282828"/>
<path d="M166.5 10.954C166.5 11.122 167.017 11.2496 167.648 11.2496C168.279 11.2496 168.789 11.122 168.789 10.954C168.789 10.786 168.279 10.6584 167.648 10.6584C167.017 10.6584 166.5 10.8196 166.5 10.954Z" fill="#282828"/>
<path d="M161.922 10.954C161.922 11.122 162.438 11.2496 163.07 11.2496C163.701 11.2496 164.211 11.122 164.211 10.954C164.211 10.786 163.701 10.6584 163.07 10.6584C162.438 10.6584 161.922 10.8196 161.922 10.954Z" fill="#282828"/>
<path d="M157.336 10.954C157.336 11.122 157.846 11.2496 158.477 11.2496C159.108 11.2496 159.625 11.122 159.625 10.954C159.625 10.786 159.108 10.6584 158.477 10.6584C157.846 10.6584 157.336 10.8196 157.336 10.954Z" fill="#282828"/>
<path d="M152.773 10.954C152.773 11.122 153.283 11.2496 153.914 11.2496C154.546 11.2496 155.062 11.122 155.062 10.954C155.062 10.786 154.546 10.6584 153.914 10.6584C153.283 10.6584 152.773 10.8196 152.773 10.954Z" fill="#282828"/>
<path d="M148.191 10.954C148.191 11.122 148.701 11.2496 149.332 11.2496C149.963 11.2496 150.48 11.122 150.48 10.954C150.48 10.786 149.97 10.6584 149.332 10.6584C148.695 10.6584 148.191 10.8196 148.191 10.954Z" fill="#282828"/>
<path d="M143.612 10.954C143.612 11.122 144.123 11.2496 144.76 11.2496C145.398 11.2496 145.922 11.1488 145.922 10.954C145.922 10.7592 145.412 10.6584 144.781 10.6584C144.149 10.6584 143.612 10.8196 143.612 10.954Z" fill="#282828"/>
<path d="M139.035 10.954C139.035 11.122 139.552 11.2496 140.183 11.2496C140.814 11.2496 141.324 11.122 141.324 10.954C141.324 10.786 140.814 10.6584 140.183 10.6584C139.552 10.6584 139.035 10.8196 139.035 10.954Z" fill="#282828"/>
<path d="M135.604 12.123C135.772 12.123 135.9 11.6123 135.9 10.9808C135.309 11.5788 135.738 11.1488 135.604 11.2764H135.853H136.067C136.192 11.2636 136.315 11.2411 136.437 11.2092C136.638 11.1555 136.766 11.0816 136.766 11.001C136.766 10.9203 136.638 10.8464 136.437 10.7927C136.315 10.7608 136.192 10.7384 136.067 10.7255H135.853H135.624C135.49 10.8532 135.92 10.4232 135.329 11.0211C135.309 11.6258 135.443 12.123 135.604 12.123Z" fill="#282828"/>
<path d="M135.603 16.6779C135.771 16.6779 135.898 16.1673 135.898 15.5425C135.898 14.9177 135.771 14.4003 135.603 14.4003C135.435 14.4003 135.308 14.9109 135.308 15.5425C135.308 16.174 135.442 16.6779 135.603 16.6779Z" fill="#282828"/>
<path d="M135.603 21.2333C135.771 21.2333 135.898 20.7227 135.898 20.0912C135.898 19.4596 135.771 18.9557 135.603 18.9557C135.435 18.9557 135.308 19.4664 135.308 20.0912C135.308 20.716 135.442 21.2333 135.603 21.2333Z" fill="#282828"/>
<path d="M135.603 25.7817C135.771 25.7817 135.898 25.2711 135.898 24.6462C135.898 24.0214 135.771 23.5041 135.603 23.5041C135.435 23.5041 135.308 24.0147 135.308 24.6462C135.308 25.2778 135.442 25.7817 135.603 25.7817Z" fill="#282828"/>
<path d="M135.603 30.3371C135.771 30.3371 135.898 29.8265 135.898 29.2017C135.898 28.5768 135.771 28.0595 135.603 28.0595C135.435 28.0595 135.308 28.5701 135.308 29.2017C135.308 29.8332 135.442 30.3371 135.603 30.3371Z" fill="#282828"/>
<path d="M135.603 34.892C135.771 34.892 135.898 34.3814 135.898 33.7499C135.898 33.1183 135.771 32.6144 135.603 32.6144C135.435 32.6144 135.308 33.1251 135.308 33.7499C135.308 34.3747 135.442 34.892 135.603 34.892Z" fill="#282828"/>
<path d="M135.603 39.4411C135.771 39.4411 135.898 38.9305 135.898 38.3057C135.898 37.6808 135.771 37.1635 135.603 37.1635C135.435 37.1635 135.308 37.6741 135.308 38.3057C135.308 38.9372 135.442 39.4411 135.603 39.4411Z" fill="#282828"/>
<path d="M135.603 43.9953C135.771 43.9953 135.898 43.4847 135.898 42.8531C135.898 42.2216 135.771 41.7177 135.603 41.7177C135.435 41.7177 135.308 42.2283 135.308 42.8531C135.308 43.478 135.442 43.9953 135.603 43.9953Z" fill="#282828"/>
<path d="M135.603 48.5777C135.771 48.5777 135.898 48.0738 135.898 47.4422C135.898 46.8107 135.771 46.3068 135.603 46.3068C135.435 46.3068 135.308 46.8107 135.308 47.4422C135.308 48.0738 135.442 48.5777 135.603 48.5777Z" fill="#282828"/>
<path d="M202.63 49.9951H205.906V53.2737H202.63V49.9951Z" fill="#282828"/>
<path d="M202.63 9.34149H205.906V12.6201H202.63V9.34149Z" fill="#282828"/>
<path d="M133.966 9.34149H137.242V12.6201H133.966V9.34149Z" fill="#282828"/>
<path d="M133.966 49.8476H137.242V53.1262H133.966V49.8476Z" fill="#282828"/>
<path d="M168.302 49.8476H171.578V53.1262H168.302V49.8476Z" fill="#282828"/>
<path d="M168.302 9.34149H171.578V12.6201H168.302V9.34149Z" fill="#282828"/>
<path d="M202.63 29.8329H205.906V33.1116H202.63V29.8329Z" fill="#282828"/>
<path d="M133.966 29.8329H137.242V33.1116H133.966V29.8329Z" fill="#282828"/>
<path d="M74.1094 164.341C74.1094 164.18 73.5991 164.046 72.9681 164.046L73.2635 164.341V164.126V163.911C73.2506 163.789 73.2282 163.667 73.1963 163.548C73.1426 163.34 73.0688 163.212 72.9882 163.212C72.9076 163.212 72.8338 163.34 72.7801 163.548C72.7482 163.667 72.7258 163.789 72.713 163.911C72.713 163.999 72.713 164.066 72.713 164.126V164.341C72.8405 164.476 72.4109 164.046 73.0084 164.644C73.5857 164.644 74.1094 164.509 74.1094 164.341Z" fill="#282828"/>
<path d="M78.6875 164.341C78.6875 164.18 78.1772 164.046 77.5461 164.046C76.915 164.046 76.398 164.18 76.398 164.341C76.398 164.503 76.915 164.644 77.5461 164.644C78.1772 164.644 78.6875 164.509 78.6875 164.341Z" fill="#282828"/>
<path d="M83.2656 164.341C83.2656 164.18 82.7554 164.046 82.1243 164.046C81.4932 164.046 80.9763 164.18 80.9763 164.341C80.9763 164.503 81.4865 164.644 82.1243 164.644C82.7621 164.644 83.2656 164.509 83.2656 164.341Z" fill="#282828"/>
<path d="M87.8477 164.341C87.8477 164.18 87.3307 164.046 86.6995 164.046C86.0684 164.046 85.5581 164.18 85.5581 164.341C85.5581 164.503 86.0684 164.644 86.6995 164.644C87.3307 164.644 87.8477 164.509 87.8477 164.341Z" fill="#282828"/>
<path d="M92.4258 164.341C92.4258 164.18 91.9088 164.046 91.2777 164.046C90.6466 164.046 90.1364 164.18 90.1364 164.341C90.1364 164.503 90.6466 164.644 91.2777 164.644C91.9088 164.644 92.4258 164.509 92.4258 164.341Z" fill="#282828"/>
<path d="M96.9961 164.341C96.9961 164.18 96.4859 164.046 95.8548 164.046C95.2237 164.046 94.7134 164.18 94.7134 164.341C94.7134 164.503 95.2237 164.644 95.8548 164.644C96.4859 164.644 96.9961 164.509 96.9961 164.341Z" fill="#282828"/>
<path d="M101.578 164.341C101.578 164.18 101.068 164.046 100.437 164.046C99.8057 164.046 99.2887 164.18 99.2887 164.341C99.2887 164.503 99.8057 164.644 100.437 164.644C101.068 164.644 101.578 164.509 101.578 164.341Z" fill="#282828"/>
<path d="M106.156 164.341C106.156 164.18 105.646 164.046 105.015 164.046C104.384 164.046 103.867 164.18 103.867 164.341C103.867 164.503 104.384 164.644 105.015 164.644C105.646 164.644 106.156 164.509 106.156 164.341Z" fill="#282828"/>
<path d="M110.734 164.341C110.734 164.18 110.224 164.046 109.586 164.046C108.948 164.046 108.445 164.18 108.445 164.341C108.445 164.503 108.955 164.644 109.586 164.644C110.217 164.644 110.734 164.509 110.734 164.341Z" fill="#282828"/>
<path d="M115.312 164.341C115.312 164.18 114.796 164.046 114.164 164.046C113.533 164.046 113.023 164.18 113.023 164.341C113.023 164.503 113.533 164.644 114.164 164.644C114.796 164.644 115.312 164.509 115.312 164.341Z" fill="#282828"/>
<path d="M119.914 164.341C119.914 164.18 119.397 164.046 118.766 164.046C118.135 164.046 117.625 164.18 117.625 164.341C117.625 164.503 118.135 164.644 118.766 164.644C119.397 164.644 119.914 164.509 119.914 164.341Z" fill="#282828"/>
<path d="M124.465 164.341C124.465 164.18 123.955 164.046 123.323 164.046C122.692 164.046 122.182 164.18 122.182 164.341C122.182 164.503 122.692 164.644 123.323 164.644C123.955 164.644 124.465 164.509 124.465 164.341Z" fill="#282828"/>
<path d="M129.043 164.341C129.043 164.18 128.533 164.046 127.902 164.046C127.27 164.046 126.753 164.18 126.753 164.341C126.753 164.503 127.27 164.644 127.902 164.644C128.533 164.644 129.043 164.509 129.043 164.341Z" fill="#282828"/>
<path d="M133.621 164.341C133.621 164.18 133.111 164.046 132.48 164.046C131.849 164.046 131.332 164.18 131.332 164.341C131.332 164.503 131.842 164.644 132.48 164.644C133.118 164.644 133.621 164.509 133.621 164.341Z" fill="#282828"/>
<path d="M137.054 164.637C136.424 164.637 135.913 164.505 135.913 164.341C135.913 164.178 136.424 164.046 137.054 164.046C137.684 164.046 138.195 164.178 138.195 164.341C138.195 164.505 137.684 164.637 137.054 164.637Z" fill="#282828"/>
<path d="M141.63 163.199C141.469 163.199 141.335 163.709 141.335 164.341L141.63 164.045H141.395H141.18C141.058 164.061 140.937 164.083 140.818 164.113C140.61 164.166 140.482 164.24 140.482 164.321C140.482 164.401 140.61 164.482 140.818 164.536C140.937 164.566 141.058 164.586 141.18 164.596H141.395H141.623L141.926 164.294C141.932 163.709 141.798 163.199 141.63 163.199Z" fill="#282828"/>
<path d="M141.631 158.644C141.47 158.644 141.336 159.155 141.336 159.786C141.336 160.418 141.47 160.922 141.631 160.922C141.793 160.922 141.934 160.411 141.934 159.786C141.934 159.162 141.799 158.644 141.631 158.644Z" fill="#282828"/>
<path d="M141.631 154.096C141.47 154.096 141.336 154.607 141.336 155.232C141.336 155.856 141.47 156.374 141.631 156.374C141.793 156.374 141.934 155.863 141.934 155.232C141.934 154.6 141.799 154.096 141.631 154.096Z" fill="#282828"/>
<path d="M141.631 149.541C141.47 149.541 141.336 150.051 141.336 150.683C141.336 151.314 141.47 151.818 141.631 151.818C141.793 151.818 141.934 151.308 141.934 150.683C141.934 150.058 141.799 149.541 141.631 149.541Z" fill="#282828"/>
<path d="M141.631 144.992C141.47 144.992 141.336 145.496 141.336 146.128C141.336 146.759 141.47 147.263 141.631 147.263C141.793 147.263 141.934 146.752 141.934 146.128C141.934 145.503 141.799 144.992 141.631 144.992Z" fill="#282828"/>
<path d="M141.631 140.437C141.47 140.437 141.336 140.947 141.336 141.572C141.336 142.197 141.47 142.714 141.631 142.714C141.793 142.714 141.934 142.204 141.934 141.572C141.934 140.941 141.799 140.437 141.631 140.437Z" fill="#282828"/>
<path d="M141.631 135.881C141.47 135.881 141.336 136.392 141.336 137.023C141.336 137.655 141.47 138.159 141.631 138.159C141.793 138.159 141.934 137.648 141.934 137.023C141.934 136.399 141.799 135.881 141.631 135.881Z" fill="#282828"/>
<path d="M141.631 131.334C141.47 131.334 141.336 131.838 141.336 132.469C141.336 133.101 141.47 133.605 141.631 133.605C141.793 133.605 141.934 133.101 141.934 132.469C141.934 131.838 141.799 131.334 141.631 131.334Z" fill="#282828"/>
<path d="M141.631 126.778C141.47 126.778 141.336 127.289 141.336 127.914C141.336 128.539 141.47 129.056 141.631 129.056C141.793 129.056 141.934 128.545 141.934 127.914C141.934 127.282 141.799 126.778 141.631 126.778Z" fill="#282828"/>
<path d="M140.49 123.358C140.49 123.52 141 123.654 141.632 123.654L141.336 123.358V123.573C141.336 123.634 141.336 123.701 141.336 123.788C141.352 123.911 141.374 124.032 141.403 124.151C141.457 124.36 141.531 124.487 141.611 124.487C141.692 124.487 141.773 124.36 141.826 124.151C141.856 124.032 141.876 123.911 141.887 123.788V123.573V123.358L141.585 123.056C141 123.056 140.49 123.19 140.49 123.358Z" fill="#282828"/>
<path d="M135.914 123.358C135.914 123.52 136.424 123.654 137.055 123.654C137.686 123.654 138.203 123.52 138.203 123.358C138.203 123.197 137.693 123.056 137.055 123.056C136.417 123.056 135.914 123.19 135.914 123.358Z" fill="#282828"/>
<path d="M131.328 123.358C131.328 123.52 131.838 123.654 132.476 123.654C133.114 123.654 133.617 123.52 133.617 123.358C133.617 123.197 133.107 123.056 132.476 123.056C131.845 123.056 131.328 123.19 131.328 123.358Z" fill="#282828"/>
<path d="M126.753 123.358C126.753 123.52 127.27 123.654 127.902 123.654C128.533 123.654 129.043 123.52 129.043 123.358C129.043 123.197 128.533 123.056 127.902 123.056C127.27 123.056 126.753 123.19 126.753 123.358Z" fill="#282828"/>
<path d="M122.182 123.358C122.182 123.52 122.692 123.654 123.323 123.654C123.955 123.654 124.465 123.52 124.465 123.358C124.465 123.197 123.955 123.056 123.323 123.056C122.692 123.056 122.182 123.19 122.182 123.358Z" fill="#282828"/>
<path d="M117.605 123.358C117.605 123.52 118.115 123.654 118.746 123.654C119.378 123.654 119.895 123.52 119.895 123.358C119.895 123.197 119.378 123.056 118.746 123.056C118.115 123.056 117.605 123.19 117.605 123.358Z" fill="#282828"/>
<path d="M113.023 123.358C113.023 123.52 113.533 123.654 114.164 123.654C114.796 123.654 115.312 123.52 115.312 123.358C115.312 123.197 114.796 123.056 114.164 123.056C113.533 123.056 113.023 123.19 113.023 123.358Z" fill="#282828"/>
<path d="M108.445 123.358C108.445 123.52 108.955 123.654 109.586 123.654C110.217 123.654 110.734 123.52 110.734 123.358C110.734 123.197 110.224 123.056 109.586 123.056C108.948 123.056 108.445 123.19 108.445 123.358Z" fill="#282828"/>
<path d="M103.867 123.358C103.867 123.52 104.384 123.654 105.015 123.654C105.646 123.654 106.156 123.52 106.156 123.358C106.156 123.197 105.646 123.056 105.015 123.056C104.384 123.056 103.867 123.19 103.867 123.358Z" fill="#282828"/>
<path d="M99.2887 123.358C99.2887 123.52 99.8057 123.654 100.437 123.654C101.068 123.654 101.578 123.52 101.578 123.358C101.578 123.197 101.068 123.056 100.437 123.056C99.8057 123.056 99.2887 123.19 99.2887 123.358Z" fill="#282828"/>
<path d="M94.7134 123.358C94.7134 123.52 95.2237 123.654 95.8548 123.654C96.4859 123.654 96.9961 123.52 96.9961 123.358C96.9961 123.197 96.4859 123.056 95.8548 123.056C95.2237 123.056 94.7134 123.19 94.7134 123.358Z" fill="#282828"/>
<path d="M90.1364 123.358C90.1364 123.52 90.6466 123.654 91.2777 123.654C91.9088 123.654 92.4258 123.52 92.4258 123.358C92.4258 123.197 91.9088 123.056 91.2777 123.056C90.6466 123.056 90.1364 123.19 90.1364 123.358Z" fill="#282828"/>
<path d="M85.5581 123.358C85.5581 123.52 86.0684 123.654 86.6995 123.654C87.3307 123.654 87.8477 123.52 87.8477 123.358C87.8477 123.197 87.3307 123.056 86.6995 123.056C86.0684 123.056 85.5581 123.19 85.5581 123.358Z" fill="#282828"/>
<path d="M80.9723 123.358C80.9723 123.52 81.4825 123.654 82.1203 123.654C82.7582 123.654 83.2617 123.52 83.2617 123.358C83.2617 123.197 82.7515 123.056 82.1203 123.056C81.4892 123.056 80.9723 123.19 80.9723 123.358Z" fill="#282828"/>
<path d="M76.398 123.358C76.398 123.52 76.915 123.654 77.5461 123.654C78.1772 123.654 78.6875 123.52 78.6875 123.358C78.6875 123.197 78.1772 123.056 77.5461 123.056C76.915 123.056 76.398 123.19 76.398 123.358Z" fill="#282828"/>
<path d="M72.968 124.501C73.1292 124.501 73.2634 123.99 73.2634 123.359L72.968 123.654H73.1963H73.4111C73.5332 123.639 73.6542 123.616 73.7737 123.587C73.9818 123.533 74.1094 123.459 74.1094 123.379C74.1094 123.298 73.9818 123.217 73.7737 123.164C73.6547 123.134 73.5334 123.113 73.4111 123.103H73.1963H72.968L72.6727 123.406C72.6727 123.99 72.8002 124.501 72.968 124.501Z" fill="#282828"/>
<path d="M72.9702 129.056C73.1314 129.056 73.2656 128.545 73.2656 127.914C73.2656 127.282 73.1314 126.778 72.9702 126.778C72.8091 126.778 72.6749 127.289 72.6749 127.914C72.6749 128.539 72.8024 129.056 72.9702 129.056Z" fill="#282828"/>
<path d="M72.9702 133.605C73.1314 133.605 73.2656 133.101 73.2656 132.469C73.2656 131.838 73.1314 131.334 72.9702 131.334C72.8091 131.334 72.6749 131.838 72.6749 132.469C72.6749 133.101 72.8024 133.605 72.9702 133.605Z" fill="#282828"/>
<path d="M72.9702 138.159C73.1314 138.159 73.2656 137.648 73.2656 137.023C73.2656 136.399 73.1314 135.881 72.9702 135.881C72.8091 135.881 72.6749 136.392 72.6749 137.023C72.6749 137.655 72.8024 138.159 72.9702 138.159Z" fill="#282828"/>
<path d="M72.9702 142.714C73.1314 142.714 73.2656 142.204 73.2656 141.572C73.2656 140.941 73.1314 140.437 72.9702 140.437C72.8091 140.437 72.6749 140.947 72.6749 141.572C72.6749 142.197 72.8024 142.714 72.9702 142.714Z" fill="#282828"/>
<path d="M72.9702 147.263C73.1314 147.263 73.2656 146.752 73.2656 146.128C73.2656 145.503 73.1314 144.992 72.9702 144.992C72.8091 144.992 72.6749 145.496 72.6749 146.128C72.6749 146.759 72.8024 147.263 72.9702 147.263Z" fill="#282828"/>
<path d="M72.9702 151.818C73.1314 151.818 73.2656 151.308 73.2656 150.683C73.2656 150.058 73.1314 149.541 72.9702 149.541C72.8091 149.541 72.6749 150.051 72.6749 150.683C72.6749 151.314 72.8024 151.818 72.9702 151.818Z" fill="#282828"/>
<path d="M72.9702 156.374C73.1314 156.374 73.2656 155.863 73.2656 155.232C73.2656 154.6 73.1314 154.096 72.9702 154.096C72.8091 154.096 72.6749 154.607 72.6749 155.232C72.6749 155.856 72.8024 156.374 72.9702 156.374Z" fill="#282828"/>
<path d="M72.9702 160.922C73.1314 160.922 73.2656 160.411 73.2656 159.786C73.2656 159.162 73.1314 158.644 72.9702 158.644C72.8091 158.644 72.6749 159.155 72.6749 159.786C72.6749 160.418 72.8024 160.922 72.9702 160.922Z" fill="#282828"/>
<path d="M139.993 162.373H143.27V165.651H139.993V162.373Z" fill="#282828"/>
<path d="M139.993 121.719H143.27V124.997H139.993V121.719Z" fill="#282828"/>
<path d="M71.3291 121.719H74.6055V124.997H71.3291V121.719Z" fill="#282828"/>
<path d="M71.3291 162.225H74.6055V165.503H71.3291V162.225Z" fill="#282828"/>
<path d="M105.657 162.225H108.934V165.503H105.657V162.225Z" fill="#282828"/>
<path d="M105.657 121.719H108.934V124.997H105.657V121.719Z" fill="#282828"/>
<path d="M139.993 142.211H143.27V145.489H139.993V142.211Z" fill="#282828"/>
<path d="M71.3291 142.211H74.6055V145.489H71.3291V142.211Z" fill="#282828"/>
<path d="M265.541 127.719C265.435 127.564 265.311 127.422 265.171 127.295L264.104 126.227C263.197 125.327 261.929 124.097 260.519 122.754V122.935C261.942 121.591 263.204 120.409 264.131 119.529L265.205 118.481C265.341 118.357 265.465 118.22 265.574 118.071C265.415 118.164 265.269 118.277 265.138 118.407C264.836 118.676 264.466 119.012 264.01 119.401C263.07 120.248 261.774 121.417 260.351 122.76L260.257 122.848L260.351 122.942C261.761 124.286 263.036 125.502 263.983 126.368L265.104 127.383C265.238 127.509 265.384 127.622 265.541 127.719Z" fill="#282828"/>
<path d="M276.509 118.038C276.615 118.189 276.736 118.329 276.872 118.454C277.167 118.743 277.543 119.126 277.939 119.529C278.852 120.423 280.121 121.652 281.531 123.003V122.821C280.108 124.165 278.846 125.347 277.919 126.228L276.845 127.282C276.704 127.402 276.58 127.54 276.475 127.692C276.628 127.588 276.774 127.473 276.912 127.35L278.033 126.355C278.98 125.509 280.276 124.34 281.699 122.996L281.793 122.909L281.699 122.815C280.289 121.471 279.013 120.255 278.06 119.395L276.939 118.374C276.808 118.246 276.664 118.133 276.509 118.038Z" fill="#282828"/>
<path d="M273.661 129.996C273.728 129.996 272.574 126.731 271.09 122.767C269.606 118.803 268.35 115.598 268.29 115.618C268.23 115.639 269.378 118.884 270.862 122.854C272.345 126.825 273.628 130.023 273.661 129.996Z" fill="#282828"/>
<path d="M253.078 136.923C253.078 136.923 253.078 136.734 253.078 136.385C253.078 136.036 253.078 135.505 253.078 134.826C253.078 133.483 253.078 131.467 253.078 128.928C253.078 123.848 253.078 116.586 253.131 107.838L253.031 107.939H288.702L288.581 107.818C288.581 118.333 288.581 128.262 288.581 136.902L288.689 136.795L262.934 136.849H255.629H253.689H255.602L262.92 136.983L288.749 137.037H288.863V136.923C288.863 128.283 288.863 118.353 288.863 107.838V107.711H288.736H253.064H252.957V107.818C252.957 116.592 252.997 123.875 253.011 128.968C253.011 131.501 253.011 133.483 253.011 134.847C253.011 135.518 253.011 136.029 253.011 136.385C253.011 136.741 253.078 136.923 253.078 136.923Z" fill="#282828"/>
<path d="M252.796 112.152C252.796 112.219 260.853 112.28 270.783 112.28C280.713 112.28 288.77 112.219 288.77 112.152C288.77 112.085 280.713 112.031 270.783 112.031C260.853 112.031 252.796 112.085 252.796 112.152Z" fill="#282828"/>
<path d="M285.842 110.029C285.842 110.125 285.87 110.218 285.924 110.298C285.977 110.378 286.053 110.44 286.142 110.476C286.231 110.513 286.328 110.522 286.422 110.503C286.516 110.483 286.602 110.437 286.669 110.368C286.737 110.3 286.782 110.213 286.8 110.119C286.818 110.025 286.807 109.927 286.77 109.839C286.732 109.751 286.669 109.676 286.589 109.623C286.508 109.571 286.414 109.544 286.318 109.545C286.255 109.545 286.193 109.558 286.134 109.582C286.076 109.606 286.023 109.642 285.979 109.687C285.935 109.732 285.9 109.785 285.876 109.844C285.853 109.903 285.841 109.966 285.842 110.029Z" fill="#282828"/>
<path d="M284.088 110.029C284.088 110.125 284.116 110.218 284.17 110.298C284.223 110.378 284.299 110.44 284.388 110.476C284.477 110.513 284.574 110.522 284.668 110.503C284.762 110.483 284.848 110.437 284.915 110.368C284.983 110.3 285.028 110.213 285.046 110.119C285.064 110.025 285.054 109.927 285.016 109.839C284.978 109.751 284.915 109.676 284.835 109.623C284.755 109.571 284.66 109.544 284.565 109.545C284.501 109.545 284.439 109.558 284.381 109.582C284.322 109.606 284.269 109.642 284.225 109.687C284.181 109.732 284.146 109.785 284.122 109.844C284.099 109.903 284.087 109.966 284.088 110.029Z" fill="#282828"/>
<path d="M282.821 110.512C282.554 110.512 282.338 110.296 282.338 110.029C282.338 109.762 282.554 109.545 282.821 109.545C283.088 109.545 283.305 109.762 283.305 110.029C283.305 110.296 283.088 110.512 282.821 110.512Z" fill="#282828"/>
<path d="M56.8012 275.452C57.9291 274.478 60.4469 271.421 58.5065 267.847C57.7948 266.537 56.2842 265.892 54.9145 265.314C53.5072 264.849 52.1801 264.169 50.9801 263.298C48.845 261.478 48.2542 258.461 46.8376 256.036C45.2128 253.254 42.178 251.171 38.9688 251.333C35.2962 251.501 32.2547 254.497 30.8448 257.924C29.4349 261.35 29.408 265.146 29.3811 268.841C29.3811 270.857 29.455 273.188 30.9589 274.565C32.3353 275.835 34.4167 275.855 36.2899 275.795L56.358 275.177" fill="#F5F5F5"/>
<path d="M211.379 259.858V281.458H179.81H144.984V259.858H211.379Z" fill="#F5F5F5"/>
<path d="M214.164 253.818V259.858H142.66V253.818H179.809H214.164Z" fill="#EBEBEB"/>
<path d="M178.412 281.458H144.983V259.858H142.66V253.818H179.809V259.294L178.412 281.458Z" fill="#EBEBEB"/>
<path d="M188.622 263.339H202.09V266.591H188.622V263.339Z" fill="#282828"/>
<path d="M186.536 270.655H203.824V277.522H186.536V270.655Z" fill="white"/>
<path d="M98.3789 62.8585C98.0386 62.74 97.6763 62.6987 97.3181 62.7376H96.9623L97.0764 62.8518C97.0764 62.4419 97.016 62.1799 96.9623 62.1799C96.9086 62.1799 96.8616 62.4688 96.8481 62.8518V62.966H97.3248C97.6798 63.0082 98.0397 62.9714 98.3789 62.8585Z" fill="#282828"/>
<path d="M96.9651 15.4118C97.0322 15.4118 97.0859 15.0893 97.0859 14.6997C97.0859 14.31 97.0322 14.0278 96.9651 14.0278C96.8979 14.0278 96.8442 14.3436 96.8442 14.6997C96.8442 15.0558 96.8979 15.4118 96.9651 15.4118Z" fill="#282828"/>
<path d="M96.9651 18.2407C97.0322 18.2407 97.0859 17.9249 97.0859 17.5688C97.0859 17.2128 97.0322 16.8634 96.9651 16.8634C96.8979 16.8634 96.8442 17.1792 96.8442 17.5688C96.8442 17.9585 96.8979 18.2407 96.9651 18.2407Z" fill="#282828"/>
<path d="M96.9651 21.1094C97.0322 21.1094 97.0859 20.7937 97.0859 20.4376C97.0859 20.0815 97.0322 19.7254 96.9651 19.7254C96.8979 19.7254 96.8442 20.0412 96.8442 20.4376C96.8442 20.834 96.8979 21.1094 96.9651 21.1094Z" fill="#282828"/>
<path d="M96.9651 23.911C97.0322 23.911 97.0859 23.5952 97.0859 23.1988C97.0859 22.8024 97.0322 22.527 96.9651 22.527C96.8979 22.527 96.8442 22.8427 96.8442 23.1988C96.8442 23.5549 96.8979 23.911 96.9651 23.911Z" fill="#282828"/>
<path d="M96.9651 26.7396C97.0322 26.7396 97.0859 26.4238 97.0859 26.0677C97.0859 25.7116 97.0322 25.3959 96.9651 25.3959C96.8979 25.3959 96.8442 25.7116 96.8442 26.0677C96.8442 26.4238 96.8979 26.7396 96.9651 26.7396Z" fill="#282828"/>
<path d="M96.9651 29.5748C97.0322 29.5748 97.0859 29.259 97.0859 28.903C97.0859 28.5469 97.0322 28.1908 96.9651 28.1908C96.8979 28.1908 96.8442 28.5066 96.8442 28.903C96.8442 29.2994 96.8979 29.5748 96.9651 29.5748Z" fill="#282828"/>
<path d="M96.9651 32.4096C97.0322 32.4096 97.0859 32.0938 97.0859 31.6974C97.0859 31.3011 97.0322 30.992 96.9651 30.992C96.8979 30.992 96.8442 31.3078 96.8442 31.6974C96.8442 32.0871 96.8979 32.4096 96.9651 32.4096Z" fill="#282828"/>
<path d="M96.9651 35.2183C97.0322 35.2183 97.0859 34.9025 97.0859 34.5465C97.0859 34.1904 97.0322 33.8746 96.9651 33.8746C96.8979 33.8746 96.8442 34.1904 96.8442 34.5465C96.8442 34.9025 96.8979 35.2183 96.9651 35.2183Z" fill="#282828"/>
<path d="M96.9651 38.0737C97.0322 38.0737 97.0859 37.7579 97.0859 37.4018C97.0859 37.0457 97.0322 36.6897 96.9651 36.6897C96.8979 36.6897 96.8442 37.0122 96.8442 37.4018C96.8442 37.7915 96.8979 38.0737 96.9651 38.0737Z" fill="#282828"/>
<path d="M96.9651 40.9086C97.0322 40.9086 97.0859 40.5928 97.0859 40.1964C97.0859 39.8 97.0322 39.5246 96.9651 39.5246C96.8979 39.5246 96.8442 39.8403 96.8442 40.1964C96.8442 40.5525 96.8979 40.9086 96.9651 40.9086Z" fill="#282828"/>
<path d="M96.9651 43.7441C97.0322 43.7441 97.0859 43.4216 97.0859 43.0319C97.0859 42.6423 97.0322 42.3601 96.9651 42.3601C96.8979 42.3601 96.8442 42.6759 96.8442 43.0319C96.8442 43.388 96.8979 43.7441 96.9651 43.7441Z" fill="#282828"/>
<path d="M96.9651 46.5722C97.0322 46.5722 97.0859 46.2564 97.0859 45.8667C97.0859 45.4771 97.0322 45.1546 96.9651 45.1546C96.8979 45.1546 96.8442 45.4771 96.8442 45.8667C96.8442 46.2564 96.8979 46.5722 96.9651 46.5722Z" fill="#282828"/>
<path d="M96.9651 49.4075C97.0322 49.4075 97.0859 49.0917 97.0859 48.6953C97.0859 48.299 97.0322 48.0235 96.9651 48.0235C96.8979 48.0235 96.8442 48.3393 96.8442 48.6953C96.8442 49.0514 96.8979 49.4075 96.9651 49.4075Z" fill="#282828"/>
<path d="M96.9651 52.243C97.0322 52.243 97.0859 51.9205 97.0859 51.5308C97.0859 51.1412 97.0322 50.859 96.9651 50.859C96.8979 50.859 96.8442 51.1748 96.8442 51.5308C96.8442 51.8869 96.8979 52.243 96.9651 52.243Z" fill="#282828"/>
<path d="M96.9651 55.0715C97.0322 55.0715 97.0859 54.7557 97.0859 54.366C97.0859 53.9764 97.0322 53.6539 96.9651 53.6539C96.8979 53.6539 96.8442 53.9764 96.8442 54.366C96.8442 54.7557 96.8979 55.0715 96.9651 55.0715Z" fill="#282828"/>
<path d="M96.9651 57.9064C97.0322 57.9064 97.0859 57.5906 97.0859 57.2009C97.0859 56.8113 97.0322 56.4888 96.9651 56.4888C96.8979 56.4888 96.8442 56.8045 96.8442 57.2009C96.8442 57.5973 96.8979 57.9064 96.9651 57.9064Z" fill="#282828"/>
<path d="M96.9651 60.7486C97.0322 60.7486 97.0859 60.4261 97.0859 60.0364C97.0859 59.6467 97.0322 59.3309 96.9651 59.3309C96.8979 59.3309 96.8442 59.6467 96.8442 60.0364C96.8442 60.4261 96.8979 60.7486 96.9651 60.7486Z" fill="#282828"/>
<path d="M95.0991 60.4799H98.832V64.2154H95.0991V60.4799Z" fill="#282828"/>
<path d="M21.3794 3.50039C21.3794 3.58102 32.0345 3.6482 45.1805 3.6482C58.3265 3.6482 68.9883 3.58102 68.9883 3.50039C68.9883 3.41977 58.3332 3.35258 45.1805 3.35258C32.0278 3.35258 21.3794 3.41305 21.3794 3.50039Z" fill="white"/>
<path d="M65.1121 1.04161C65.0887 1.17866 65.1082 1.31963 65.1682 1.44506C65.2282 1.5705 65.3256 1.67422 65.4469 1.74194C65.5683 1.80965 65.7077 1.83801 65.8458 1.82311C65.984 1.80821 66.1141 1.75079 66.2183 1.65875C66.3225 1.56672 66.3955 1.44461 66.4274 1.30927C66.4593 1.17393 66.4484 1.03203 66.3963 0.903129C66.3442 0.774232 66.2534 0.664693 66.1364 0.589619C66.0194 0.514544 65.8821 0.477631 65.7433 0.483975C65.5858 0.474768 65.4311 0.528221 65.3129 0.632681C65.1946 0.73714 65.1225 0.884134 65.1121 1.04161Z" fill="white"/>
<path d="M62.7962 1.0413C62.8066 1.19878 62.8787 1.34577 62.997 1.45023C63.1152 1.55469 63.2699 1.60814 63.4273 1.59894C63.5078 1.61147 63.59 1.60643 63.6683 1.58416C63.7466 1.5619 63.8191 1.52294 63.881 1.46996C63.9428 1.41698 63.9924 1.35123 64.0265 1.27724C64.0605 1.20324 64.0781 1.12275 64.0781 1.0413C64.0781 0.959847 64.0605 0.879359 64.0265 0.805364C63.9924 0.73137 63.9428 0.665622 63.881 0.612641C63.8191 0.55966 63.7466 0.520699 63.6683 0.498435C63.59 0.476171 63.5078 0.471131 63.4273 0.483662C63.2699 0.474455 63.1152 0.527909 62.997 0.632368C62.8787 0.736827 62.8066 0.883821 62.7962 1.0413Z" fill="white"/>
<path d="M60.4755 1.04163C60.452 1.1784 60.4715 1.31908 60.5311 1.44437C60.5907 1.56965 60.6877 1.67337 60.8086 1.7413C60.9296 1.80922 61.0685 1.838 61.2065 1.82369C61.3444 1.80938 61.4745 1.75267 61.5789 1.66137C61.6834 1.57006 61.757 1.44864 61.7897 1.31378C61.8224 1.17891 61.8125 1.03723 61.7615 0.908198C61.7105 0.779163 61.6207 0.669106 61.5047 0.593148C61.3886 0.517189 61.2519 0.479057 61.1134 0.483991C60.9552 0.474725 60.7998 0.527972 60.6805 0.632268C60.5612 0.736564 60.4876 0.883569 60.4755 1.04163Z" fill="white"/>
<path d="M269.107 193.493C263.065 184.195 262.494 172.753 269.779 164.342C272.035 161.735 276.607 157.623 280.044 157.919C283.482 158.215 286.389 161.238 287.43 164.604C288.47 167.97 288.101 171.611 287.504 175.085C286.624 179.949 285.147 184.927 281.777 188.522C278.406 192.116 273.451 195.852 269.114 193.48" fill="#DDE1EA"/>
<path d="M272.472 238.245C271.381 235.541 271.167 232.561 271.863 229.728C272.558 226.896 274.127 224.354 276.346 222.463C277.742 221.328 279.569 220.448 281.314 220.905C283.06 221.362 284.282 223.189 284.53 225.023C284.669 226.873 284.356 228.73 283.617 230.432C282.724 232.857 281.516 235.282 279.448 236.841C277.38 238.4 274.493 239.858 272.479 238.245" fill="#DDE1EA"/>
<path d="M257.82 235.054C258.571 230.901 257.996 226.617 256.178 222.809C254.359 219.001 251.389 215.862 247.688 213.837C245.379 212.628 242.525 211.916 240.195 213.085C237.866 214.254 236.657 217.197 236.838 219.864C237.02 222.531 238.309 224.99 239.725 227.254C241.706 230.425 244.137 233.516 247.52 235.115C250.904 236.714 255.423 237.93 257.813 235.048" fill="#DDE1EA"/>
<path d="M258.889 212.762C261.796 203.356 256.875 191.981 248.644 186.593C246.092 184.92 242.863 183.758 240.01 184.846C237.156 185.935 235.417 189.213 235.31 192.338C235.202 195.462 236.424 198.472 237.801 201.28C239.734 205.204 242.198 209.08 245.945 211.358C249.691 213.635 255.761 215.866 258.876 212.789" fill="#DDE1EA"/>
<path d="M264.715 258.669C264.666 258.523 264.632 258.373 264.614 258.219C264.567 257.877 264.5 257.44 264.42 256.909C264.379 256.614 264.339 256.298 264.292 255.962C264.245 255.626 264.151 255.243 264.077 254.84C263.923 254.04 263.762 253.127 263.5 252.153C263.379 251.655 263.258 251.131 263.124 250.587C262.99 250.043 262.802 249.492 262.634 248.914C262.318 247.745 261.855 246.543 261.425 245.253C259.375 239.727 256.576 234.51 253.107 229.746C252.274 228.678 251.529 227.623 250.73 226.716L249.609 225.373L248.514 224.19C247.843 223.417 247.171 222.786 246.574 222.215L245.762 221.415L245.043 220.784L244.063 219.897C243.945 219.796 243.835 219.686 243.734 219.568C243.871 219.64 243.997 219.731 244.11 219.836L245.144 220.649L245.889 221.261L246.722 222.04C247.326 222.598 248.017 223.223 248.736 223.982L249.857 225.151L251.005 226.495C251.818 227.395 252.576 228.443 253.422 229.518C256.948 234.287 259.765 239.542 261.788 245.118C262.217 246.408 262.667 247.631 262.969 248.807C263.131 249.391 263.292 249.956 263.439 250.493C263.587 251.031 263.681 251.575 263.795 252.079C264.044 253.08 264.185 254 264.312 254.813C264.379 255.209 264.44 255.586 264.5 255.935C264.561 256.284 264.567 256.607 264.594 256.896C264.648 257.433 264.688 257.87 264.715 258.24C264.73 258.382 264.73 258.527 264.715 258.669Z" fill="#263238"/>
<path d="M264.5 260.356C264.492 260.296 264.492 260.234 264.5 260.174C264.5 260.026 264.514 259.845 264.541 259.63C264.588 259.119 264.648 258.421 264.729 257.541C264.776 257.084 264.823 256.58 264.876 256.036C264.93 255.491 264.93 254.914 264.97 254.242C265.017 252.952 265.138 251.487 265.098 249.861C265.098 249.048 265.098 248.195 265.098 247.308C265.098 246.421 265.004 245.501 264.957 244.547C264.897 242.639 264.635 240.61 264.406 238.5C263.78 233.886 262.817 229.323 261.526 224.848C260.173 220.388 258.493 216.033 256.497 211.821C255.531 209.906 254.644 208.066 253.657 206.446C253.174 205.627 252.744 204.807 252.268 204.061L250.885 201.911C250.039 200.527 249.139 199.365 248.394 198.31C248.011 197.786 247.675 197.289 247.34 196.852L246.393 195.67C245.849 194.998 245.413 194.427 245.097 194.024L244.768 193.587C244.727 193.54 244.691 193.488 244.661 193.433C244.661 193.433 244.714 193.473 244.795 193.56L245.158 193.97L246.5 195.569L247.474 196.678C247.823 197.114 248.145 197.605 248.562 198.122C249.32 199.17 250.24 200.319 251.106 201.703L252.516 203.846C252.999 204.592 253.436 205.405 253.926 206.231C254.933 207.864 255.833 209.712 256.813 211.606C260.921 220.037 263.605 229.091 264.756 238.4C264.977 240.55 265.226 242.585 265.273 244.5C265.313 245.461 265.387 246.388 265.387 247.275C265.387 248.162 265.387 249.022 265.387 249.834C265.387 251.467 265.273 252.938 265.205 254.228C265.158 254.9 265.132 255.478 265.085 256.029C265.038 256.58 264.95 257.077 264.897 257.534L264.628 259.617C264.628 259.832 264.574 260.013 264.554 260.154C264.549 260.224 264.53 260.292 264.5 260.356Z" fill="#263238"/>
<path d="M280.312 169.146C280.296 169.207 280.271 169.266 280.239 169.32L279.977 169.811C279.722 170.261 279.373 170.879 278.936 171.665C278.715 172.068 278.446 172.505 278.184 173.009C277.922 173.513 277.667 174.064 277.372 174.648L276.439 176.523C276.123 177.194 275.821 177.92 275.485 178.672C275.149 179.425 274.814 180.218 274.458 181.051L273.451 183.664L272.92 185.042L272.43 186.486C272.101 187.467 271.759 188.502 271.416 189.503C270.127 193.675 268.905 198.311 267.878 203.242C266.851 208.174 266.18 212.924 265.663 217.257C265.146 221.59 264.89 225.514 264.803 228.813C264.716 230.459 264.703 231.957 264.696 233.267C264.689 234.577 264.696 235.706 264.696 236.626C264.696 237.547 264.696 238.239 264.696 238.756V239.307C264.702 239.37 264.702 239.433 264.696 239.495C264.684 239.435 264.684 239.374 264.696 239.314C264.696 239.166 264.696 238.978 264.656 238.756C264.656 238.239 264.595 237.533 264.555 236.633C264.515 235.733 264.481 234.577 264.481 233.274C264.481 231.971 264.481 230.466 264.528 228.813C264.582 225.501 264.877 221.577 265.3 217.223C265.723 212.87 266.488 208.106 267.489 203.182C268.489 198.257 269.751 193.588 271.061 189.415L272.101 186.385L272.598 184.941C272.786 184.471 272.961 184.007 273.142 183.557C273.498 182.65 273.813 181.776 274.176 180.937C274.538 180.097 274.894 179.324 275.23 178.565C275.566 177.806 275.901 177.087 276.21 176.422L277.177 174.554L278.023 172.948C278.292 172.451 278.567 172.021 278.802 171.605L279.903 169.784L280.198 169.32C280.23 169.258 280.268 169.199 280.312 169.146Z" fill="#263238"/>
<path d="M278.25 226.199C278.057 226.595 277.833 226.975 277.579 227.335C277.135 228.047 276.525 229.095 275.813 230.412C275.101 231.729 274.309 233.321 273.51 235.115C272.711 236.909 271.959 238.971 271.281 241.162C270.654 243.214 270.135 245.297 269.723 247.403C269.361 249.351 269.099 251.112 268.958 252.603C268.817 254.095 268.716 255.291 268.683 256.144C268.682 256.578 268.648 257.012 268.582 257.441C268.524 257.009 268.506 256.572 268.528 256.137C268.528 255.297 268.528 254.081 268.676 252.576C268.824 251.071 269.012 249.298 269.347 247.336C269.745 245.211 270.259 243.11 270.885 241.041C271.532 238.985 272.292 236.966 273.161 234.994C273.98 233.18 274.799 231.581 275.551 230.291C276.303 229.001 276.954 227.96 277.438 227.274C277.677 226.893 277.949 226.533 278.25 226.199Z" fill="#263238"/>
<path d="M252.787 254.484H279.469L276.239 281.761H256.111L252.787 254.484Z" fill="#EF293D"/>
<path d="M253.758 278.819L256.021 281.761H276.237L278.566 278.913L253.758 278.819Z" fill="#263238"/>
<path d="M278.426 262.506C278.426 262.62 272.887 262.708 266.059 262.708C259.231 262.708 253.692 262.62 253.692 262.506C253.692 262.392 259.231 262.311 266.059 262.311C272.887 262.311 278.426 262.399 278.426 262.506Z" fill="#FAFAFA"/>
<path d="M278.426 264.32C278.426 264.427 272.887 264.515 266.059 264.515C259.231 264.515 253.692 264.427 253.692 264.32C253.692 264.212 259.231 264.118 266.059 264.118C272.887 264.118 278.426 264.212 278.426 264.32Z" fill="#FAFAFA"/>
<path d="M278.098 266.08C278.098 266.194 272.726 266.281 266.16 266.281C259.594 266.281 254.223 266.194 254.223 266.08C254.223 265.966 259.594 265.885 266.16 265.885C272.726 265.885 278.098 265.972 278.098 266.08Z" fill="#FAFAFA"/>
<path d="M26.7682 281.728C26.7682 281.829 85.6096 281.903 158.174 281.903C230.739 281.903 289.594 281.829 289.594 281.728C289.594 281.627 230.766 281.553 158.174 281.553C85.5827 281.553 26.7682 281.634 26.7682 281.728Z" fill="#B2B1B1"/>
<path d="M73.0742 272.067L72.9265 263.877L58.686 263.03V273.048L63.8021 276.293L73.0742 272.067Z" fill="#FFCEB0"/>
<path d="M58.4162 271.18V272.12C58.4162 272.12 42.4504 278.308 42.249 281.324L73.8047 281.546L73.4488 271.039C68.7155 273.175 63.8076 273.39 58.4162 271.18Z" fill="#EF293D"/>
<g opacity="0.6">
<path opacity="0.6" d="M70.2294 274.398C70.532 274.493 70.7891 274.696 70.9513 274.969C71.1136 275.241 71.1697 275.564 71.1089 275.876C71.0265 276.183 70.8292 276.446 70.5579 276.611C70.2866 276.776 69.9622 276.83 69.652 276.763C69.3294 276.664 69.0557 276.448 68.8853 276.156C68.7148 275.865 68.6602 275.52 68.7322 275.19C68.8515 274.881 69.086 274.63 69.3864 274.489C69.6868 274.349 70.0299 274.331 70.3436 274.438" fill="white"/>
</g>
<g opacity="0.6">
<path opacity="0.6" d="M73.7812 281.546L73.7007 279.013L43.4878 279.732C43.4878 279.732 42.0779 280.337 42.2323 281.324L73.7812 281.546Z" fill="white"/>
</g>
<path d="M58.2908 272.208C58.2908 272.362 59.0696 272.436 59.8216 272.933C60.5735 273.43 60.9764 274.089 61.1173 274.028C61.2583 273.968 61.0368 273.074 60.1102 272.483C59.1837 271.892 58.2572 272.066 58.2908 272.208Z" fill="#263238"/>
<path d="M54.972 273.551C54.972 273.699 55.6031 273.968 56.1201 274.626C56.6371 275.284 56.7916 275.97 56.9393 275.97C57.087 275.97 57.1944 275.096 56.5364 274.29C55.8784 273.484 54.9787 273.403 54.972 273.551Z" fill="#263238"/>
<path d="M53.0684 277.502C53.2094 277.536 53.431 276.77 53.0684 275.923C52.7058 275.077 51.9604 274.734 51.8933 274.862C51.8261 274.99 52.2693 275.44 52.5648 276.145C52.8602 276.851 52.9139 277.489 53.0684 277.502Z" fill="#263238"/>
<path d="M111.826 251.293L114.867 275.439L103.648 276.138L98.0353 252.972L111.826 251.293Z" fill="#FFCEB0"/>
<path d="M102.629 271.455C102.629 271.455 111.182 275.829 114.338 270.635L115.627 272.779L122.227 288.359C122.445 288.849 122.474 289.404 122.306 289.914C122.139 290.425 121.787 290.855 121.32 291.12C120.96 291.319 120.55 291.414 120.138 291.392C119.727 291.371 119.329 291.235 118.991 290.999C115.372 288.446 102.125 278.98 102.038 277.468L101.555 273.491C101.509 273.085 101.587 272.676 101.779 272.316C101.971 271.956 102.267 271.663 102.629 271.475V271.455Z" fill="#EF293D"/>
<g opacity="0.6">
<path opacity="0.6" d="M120.953 291.281L101.852 276.091L101.973 276.958C102.013 277.905 102.483 278.221 103.02 278.765C104.618 280.371 108.908 283.858 118.926 291.013C119.216 291.215 119.55 291.344 119.9 291.391C120.25 291.438 120.607 291.4 120.94 291.281H120.953Z" fill="white"/>
</g>
<g opacity="0.6">
<path opacity="0.6" d="M103.965 273.176C104.248 273.322 104.465 273.569 104.573 273.867C104.681 274.166 104.673 274.495 104.55 274.788C104.4 275.072 104.149 275.29 103.847 275.398C103.545 275.506 103.214 275.497 102.918 275.373C102.623 275.216 102.398 274.955 102.285 274.641C102.172 274.327 102.18 273.982 102.307 273.673C102.494 273.393 102.779 273.193 103.106 273.114C103.433 273.034 103.778 273.08 104.073 273.243" fill="white"/>
</g>
<path d="M114.928 282.998C115.055 283.038 115.378 281.903 116.546 281.157C117.714 280.411 118.896 280.485 118.902 280.371C118.909 280.257 118.627 280.196 118.13 280.196C117.474 280.213 116.836 280.416 116.291 280.781C115.745 281.134 115.314 281.638 115.049 282.232C114.861 282.682 114.874 282.991 114.928 282.998Z" fill="#263238"/>
<path d="M116.802 285.538C116.909 285.611 117.473 284.866 118.54 284.402C119.608 283.939 120.555 283.992 120.555 283.865C120.555 283.737 119.527 283.455 118.346 283.986C117.164 284.516 116.681 285.497 116.802 285.538Z" fill="#263238"/>
<path d="M111.66 279.874C111.774 279.954 112.667 278.785 114.225 277.946C115.782 277.106 117.259 276.944 117.246 276.81C117.233 276.676 115.661 276.622 113.996 277.549C112.331 278.476 111.553 279.827 111.66 279.874Z" fill="#263238"/>
<path d="M110.631 274.996C110.705 275.11 111.799 274.478 113.317 274.216C114.834 273.954 116.063 274.149 116.089 274.015C116.116 273.88 114.847 273.477 113.236 273.773C111.625 274.069 110.55 274.908 110.631 274.996Z" fill="#263238"/>
<path d="M114.157 274.062C114.144 273.797 114.068 273.539 113.935 273.309C113.64 272.649 113.215 272.056 112.687 271.563C112.322 271.165 111.84 270.897 111.31 270.797C111.133 270.78 110.955 270.818 110.799 270.904C110.644 270.99 110.518 271.121 110.437 271.28C110.312 271.598 110.312 271.951 110.437 272.268C110.713 272.919 111.206 273.454 111.831 273.782C112.457 274.11 113.177 274.212 113.868 274.069C114.552 273.925 115.178 273.582 115.668 273.084C116.157 272.585 116.489 271.953 116.621 271.267C116.649 271.096 116.64 270.922 116.594 270.755C116.549 270.588 116.469 270.433 116.359 270.299C116.228 270.177 116.062 270.098 115.885 270.073C115.707 270.048 115.526 270.078 115.366 270.158C114.909 270.423 114.529 270.803 114.264 271.26C113.858 271.858 113.564 272.525 113.398 273.229C113.31 273.478 113.28 273.745 113.311 274.008C113.59 273.096 114.004 272.231 114.54 271.442C114.787 271.052 115.126 270.729 115.527 270.501C115.612 270.454 115.711 270.436 115.807 270.45C115.904 270.463 115.994 270.507 116.064 270.575C116.135 270.669 116.185 270.779 116.208 270.895C116.231 271.012 116.228 271.132 116.198 271.247C116.066 271.835 115.769 272.373 115.342 272.798C114.915 273.223 114.376 273.517 113.788 273.645C113.202 273.76 112.596 273.676 112.063 273.407C111.531 273.138 111.103 272.7 110.847 272.161C110.771 271.943 110.771 271.706 110.847 271.489C110.889 271.398 110.958 271.322 111.044 271.273C111.131 271.224 111.231 271.203 111.33 271.213C111.774 271.299 112.181 271.517 112.499 271.838C113.178 272.476 113.739 273.229 114.157 274.062Z" fill="#263238"/>
<path d="M50.7592 157.22C52.7062 149.427 55.459 139.584 57.0905 138.664L59.776 133.645L101.537 138.684L102.457 140.982C102.457 140.982 104.887 144.234 104.887 146.988C104.887 149.743 104.975 154.432 105.76 157.026C107.345 162.232 108.097 169.992 109.433 190.544L108.459 213.79L112.098 242.149C112.91 249.459 114.059 262.466 114.059 262.466C114.059 262.466 107.345 270.696 100.342 265.986L89.237 227.604C88.4153 224.765 87.743 221.886 87.2228 218.977C85.1079 207.045 78.4611 173.963 78.4611 173.963C78.4611 173.963 74.3521 220.025 74.4327 222.504L74.5267 226.979C74.5267 226.979 74.6139 260.759 74.5669 263.373L74.5132 266.732C74.5132 266.732 58.4333 269.608 58.017 265.973C57.8559 264.549 55.9424 232.226 55.9424 232.226L50.7592 178.162C50.7592 178.162 48.7853 165.014 50.7592 157.22Z" fill="#DDE1EA"/>
<path d="M74.5923 169.992C74.6315 169.595 74.6449 169.195 74.6326 168.796C74.6326 167.97 74.6326 166.875 74.6326 165.544C74.6326 162.797 74.7333 159.001 74.9817 154.795C75.2302 150.589 75.6062 146.833 75.915 144.099C76.0694 142.755 76.197 141.687 76.2977 140.867C76.3633 140.474 76.397 140.077 76.3984 139.678C76.2861 140.061 76.2052 140.451 76.1567 140.847C76.0291 141.606 75.8546 142.708 75.6733 144.072C75.2973 146.793 74.8877 150.576 74.6326 154.775C74.3775 158.974 74.3439 162.77 74.3842 165.524C74.3842 166.868 74.4446 168.01 74.4849 168.783C74.4863 169.188 74.5222 169.593 74.5923 169.992Z" fill="#282828"/>
<path d="M58.2554 138.684C58.3919 138.756 58.5333 138.819 58.6784 138.872L59.8936 139.363C60.424 139.571 61.082 139.819 61.8541 140.034C62.6262 140.249 63.4923 140.606 64.4793 140.868C65.4663 141.13 66.5338 141.465 67.7087 141.727C68.8837 141.99 70.1325 142.265 71.4551 142.527C74.3425 143.033 77.2568 143.372 80.1833 143.541C83.1124 143.68 86.0471 143.644 88.9719 143.434C90.3147 143.313 91.5971 143.212 92.7855 143.031C93.9738 142.849 95.0817 142.695 96.082 142.514C97.0824 142.332 97.9888 142.124 98.7676 141.956C99.5465 141.788 100.238 141.607 100.782 141.452L102.044 141.096C102.193 141.057 102.339 141.007 102.48 140.948C102.328 140.955 102.177 140.98 102.031 141.022L100.748 141.318C100.198 141.452 99.5196 141.613 98.7341 141.761C97.9485 141.909 97.0421 142.124 96.0485 142.265C95.0548 142.406 93.947 142.614 92.7519 142.742C91.5568 142.87 90.2946 142.997 88.9518 143.111C86.0462 143.301 83.1322 143.328 80.2236 143.192C77.312 143.023 74.4117 142.696 71.5357 142.211C70.1929 141.956 68.9508 141.734 67.7893 141.445C66.6278 141.156 65.5468 140.901 64.5666 140.632C63.5863 140.364 62.7068 140.081 61.9347 139.846C61.1626 139.611 60.4979 139.389 59.9608 139.174L58.7187 138.744C58.5669 138.708 58.4116 138.688 58.2554 138.684Z" fill="#282828"/>
<path d="M54.623 160.768C54.7279 160.817 54.8384 160.853 54.952 160.875L55.9188 161.104C56.7581 161.298 57.9666 161.581 59.4571 161.95C62.4448 162.689 66.5404 163.818 70.985 165.309C75.4297 166.801 79.3574 168.434 82.1706 169.676C83.5805 170.295 84.7152 170.805 85.494 171.168L86.4004 171.578C86.5036 171.629 86.6115 171.669 86.7227 171.699C86.7227 171.699 86.6287 171.625 86.4272 171.511L85.5544 171.047C84.789 170.644 83.6678 170.1 82.2713 169.448C78.6237 167.767 74.8926 166.273 71.0925 164.973C67.2823 163.686 63.4075 162.598 59.484 161.715C57.98 161.372 56.7581 161.124 55.9121 160.969L54.9319 160.801C54.8308 160.777 54.727 160.765 54.623 160.768Z" fill="#282828"/>
<path d="M58.6109 167.036C58.9189 167.09 59.2318 167.11 59.5441 167.096C60.1484 167.096 61.0212 167.15 62.0954 167.244C64.8902 167.494 67.6435 168.087 70.2932 169.011C71.7475 169.526 73.169 170.13 74.5498 170.818C75.673 171.391 76.7645 172.023 77.8195 172.713C78.7192 173.304 79.4309 173.808 79.9076 174.178C80.1496 174.378 80.4079 174.558 80.6797 174.715C80.4814 174.467 80.2562 174.242 80.0083 174.043C79.3649 173.486 78.6926 172.964 77.9941 172.478C76.9484 171.756 75.8611 171.096 74.7378 170.503C73.3498 169.791 71.9167 169.172 70.4476 168.648C68.9727 168.145 67.4653 167.744 65.9358 167.446C64.6869 167.21 63.4245 167.053 62.1559 166.975C61.3001 166.914 60.4416 166.901 59.5844 166.935C59.2575 166.939 58.9317 166.973 58.6109 167.036Z" fill="#282828"/>
<path d="M93.3167 227.704C93.9599 227.616 94.5893 227.447 95.1899 227.2C98.1381 226.151 100.839 224.507 103.126 222.37C103.633 221.952 104.084 221.471 104.469 220.938C103.954 221.328 103.461 221.745 102.992 222.188C101.809 223.179 100.552 224.077 99.2318 224.876C97.9095 225.675 96.5267 226.369 95.0959 226.952C94.4874 227.164 93.8931 227.415 93.3167 227.704Z" fill="#282828"/>
<path d="M62.374 223.163C63.2635 223.674 64.207 224.084 65.1871 224.386C66.1268 224.799 67.1114 225.101 68.1211 225.286C67.2324 224.774 66.2887 224.363 65.308 224.063C64.3687 223.649 63.3839 223.347 62.374 223.163Z" fill="#282828"/>
<path d="M67.2209 76.988C67.6867 76.319 68.0721 75.5974 68.369 74.838C68.6039 73.8907 68.2414 72.9098 68.0735 71.9424C67.9024 70.9005 67.9583 69.834 68.2376 68.8158C68.5169 67.7976 69.0129 66.8519 69.6916 66.0435C71.746 63.6786 75.0627 62.9262 76.815 65.5262L78.3861 68.1397C79.2454 69.1609 79.2723 70.639 79.0575 71.9625C78.8426 73.2861 78.4935 74.6163 78.7285 75.9332C78.9433 77.1358 79.6483 78.204 79.937 79.3932C80.3801 81.2206 79.796 83.1488 79.0038 84.8553C78.2115 86.5618 77.1977 88.2146 76.721 90.0084C76.0297 89.8075 75.4144 89.4036 74.9548 88.8491C74.4952 88.2946 74.2124 87.6148 74.1429 86.8977C73.4291 87.7005 72.4337 88.1972 71.3635 88.2848C70.2933 88.3724 69.2304 88.0441 68.3958 87.368C67.5673 86.5878 67.0078 85.5644 66.7979 84.4455C66.5896 83.3386 66.504 82.212 66.5428 81.0862C66.4335 79.6853 66.6662 78.2788 67.2209 76.988Z" fill="#282828"/>
<path d="M111.278 130.985C109.593 128.642 108.656 125.843 108.593 122.957L104.632 104.817C104.632 104.817 107.425 82.6052 115.703 81.201C115.703 81.201 119.302 82.9612 120.134 89.7537C120.604 93.5765 123.793 113.268 123.961 115.687L135.65 110.312L141.391 119.335C141.391 119.335 132.662 128.345 125.828 133.269C124.723 134.078 123.47 134.661 122.141 134.983C120.811 135.306 119.431 135.363 118.079 135.151C116.727 134.939 115.431 134.462 114.264 133.747C113.097 133.032 112.082 132.093 111.278 130.985Z" fill="#EF293D"/>
<path d="M39.7668 115.532C41.9086 109.713 53.8662 84.6264 55.6723 81.2201C56.9439 79.0182 58.7467 77.1703 60.9159 75.8453C62.8575 74.5838 65.0301 73.7206 67.3076 73.3057L75.727 71.747L80.2119 67.7764L97.4736 69.5904L101.784 73.944C101.784 73.944 114.655 79.2785 115.984 81.6367C117.313 83.9948 104.114 111.4 103.791 113.314C103.469 115.229 102.14 123.923 101.999 126.751C101.858 129.58 105.356 136.157 103.174 138.092C100.992 140.027 75.1966 140.155 73.7262 139.564C72.2558 138.972 60.9159 136.325 59.741 133.672L59.4858 124.125L57.0419 125.199C57.0419 125.199 45.5744 130.097 40.9821 127.652C36.3897 125.206 37.6251 121.35 39.7668 115.532Z" fill="#EF293D"/>
<path d="M65.288 100.086L54.3241 84.0292L30.1941 89.5115L45.7907 114.504L53.0619 114.43L58.7351 111.649L65.9258 103.224L65.288 100.086Z" fill="#282828"/>
<g opacity="0.3">
<path opacity="0.3" d="M61.552 128.431C63.8616 126.651 66.8157 125.939 69.7094 125.603C73.6799 125.142 77.6986 125.319 81.6133 126.127L81.2574 126.698C78.9134 129.274 75.9593 131.219 72.667 132.353C69.3748 133.488 65.8503 133.775 62.4181 133.188C61.9862 133.156 61.5652 133.037 61.1809 132.837C60.7966 132.637 60.4569 132.361 60.1823 132.026C59.4438 130.823 60.4375 129.278 61.552 128.431Z" fill="black"/>
</g>
<path d="M71.9187 112.448L81.8555 126.779L57.0942 131.065L51.4545 123.017L71.9187 112.448Z" fill="#282828"/>
<path d="M58.2746 111.004L51.9567 114.397L50.2648 123.467L53.8165 126.382L64.2031 119.449L58.2746 111.004Z" fill="#EF293D"/>
<path d="M97.4414 68.9927V76.5308L85.5039 87.6231C85.5039 87.6231 79.3875 78.889 79.3875 78.3784C79.3875 77.8678 80.0589 67.2257 80.0589 67.2257L97.4414 68.9927Z" fill="#FFCEB0"/>
<path d="M104.229 112.482C104.289 112.394 104.339 112.299 104.377 112.2C104.477 111.971 104.598 111.703 104.739 111.373C105.048 110.648 105.464 109.593 105.955 108.276C106.948 105.649 108.231 101.988 109.768 97.9968C111.033 94.5713 112.552 91.2453 114.314 88.0467C114.858 87.0894 115.459 86.1652 116.113 85.2787L116.663 84.5598C116.791 84.3985 116.851 84.3045 116.838 84.2978C116.825 84.291 116.751 84.3649 116.61 84.5127C116.469 84.6605 116.247 84.9226 116.005 85.1846C115.302 86.0469 114.665 86.961 114.099 87.919C112.265 91.0943 110.706 94.4209 109.439 97.8624C107.902 101.894 106.659 105.542 105.726 108.182L104.612 111.313L104.31 112.166C104.242 112.341 104.216 112.442 104.229 112.482Z" fill="#263238"/>
<path d="M87.8854 87.2671C88.2019 87.0344 88.5024 86.7807 88.7851 86.5079C89.3625 86.0175 90.195 85.3188 91.2827 84.4924C91.8265 84.096 92.4375 83.6794 93.1022 83.2562C93.8005 82.793 94.5321 82.382 95.2909 82.0267C95.6918 81.8576 96.1252 81.7795 96.5599 81.7983C97.0027 81.8336 97.4232 82.0075 97.7617 82.2954C98.4854 82.9452 98.9284 83.851 98.997 84.8216C99.0601 85.4106 99.087 86.003 99.0776 86.5953V87.5224L99.4066 86.6557C100.515 83.7239 101.243 80.6623 101.575 77.5454C101.689 76.363 101.73 75.4157 101.736 74.7573C101.757 74.4188 101.745 74.0792 101.703 73.7428C101.646 74.0758 101.614 74.4127 101.609 74.7505C101.568 75.4224 101.488 76.3496 101.34 77.5186C100.952 80.611 100.199 83.6465 99.0977 86.5617L99.4334 86.6221C99.4468 86.0139 99.4176 85.4056 99.3461 84.8014C99.2767 83.7445 98.7943 82.7574 98.0034 82.0536C97.6081 81.7242 97.1198 81.5269 96.6069 81.4892C96.1225 81.4697 95.6402 81.5616 95.1969 81.758C94.4225 82.1244 93.6792 82.5536 92.9746 83.0412C92.3032 83.4779 91.7057 83.9146 91.1618 84.3244C90.3121 84.9736 89.4984 85.6689 88.7247 86.4072C88.4494 86.6759 88.2413 86.8842 88.107 87.032C87.9727 87.1798 87.8787 87.2537 87.8854 87.2671Z" fill="#263238"/>
<path d="M85.5039 87.6236C85.3211 87.3895 85.1261 87.1653 84.9198 86.9517C84.5371 86.5217 84.0067 85.8633 83.3755 85.0235C82.1066 83.3371 80.5019 80.8513 78.6086 78.0026L78.5146 77.8616L78.3736 77.9556L75.2717 80.0652L72.0154 82.2958L72.2772 82.4637C72.7188 79.7218 73.5841 77.0653 74.842 74.5896C75.3053 73.6692 75.7283 72.957 76.0237 72.4666C76.191 72.2268 76.3371 71.9727 76.4601 71.7074C76.2637 71.9169 76.0841 72.1415 75.923 72.3792C75.4605 73.0499 75.0346 73.7452 74.6473 74.462C73.324 76.9371 72.4167 79.6132 71.9617 82.3831L71.8945 82.7728L72.2235 82.5511L75.4865 80.3272L78.5683 78.2176L78.3333 78.1706C80.2267 80.9991 81.8783 83.4782 83.2077 85.131C83.7146 85.7892 84.2593 86.4173 84.8392 87.0122C85.0339 87.2204 85.2085 87.3682 85.3159 87.469C85.4233 87.5698 85.4972 87.6236 85.5039 87.6236Z" fill="#263238"/>
<path d="M78.8013 122.378C78.8374 122.267 78.8577 122.152 78.8617 122.035C78.8617 121.773 78.9154 121.451 78.949 121.061C79.0295 120.168 79.137 118.958 79.2645 117.487C79.5398 114.464 79.983 110.298 80.7417 105.736C81.3657 101.837 82.2471 97.9832 83.3803 94.2005C83.5952 93.4749 83.81 92.8568 84.0114 92.2589C84.2129 91.6609 84.374 91.1974 84.5284 90.8077C84.6828 90.418 84.7768 90.1358 84.8708 89.8872C84.9198 89.7833 84.9515 89.6721 84.9648 89.558C84.9011 89.6531 84.8471 89.7544 84.8037 89.8604C84.6963 90.1022 84.562 90.3979 84.4076 90.7539C84.2531 91.11 84.0383 91.6273 83.8302 92.1917C83.622 92.7561 83.3803 93.401 83.1587 94.1266C81.9527 97.9013 81.0347 101.762 80.4127 105.676C79.6473 110.251 79.2444 114.41 79.0295 117.467C78.9221 118.978 78.855 120.208 78.8281 121.054C78.8281 121.444 78.8281 121.767 78.8281 122.035C78.8094 122.149 78.8004 122.263 78.8013 122.378Z" fill="#263238"/>
<path d="M58.4104 111.192L56.4768 104.144L55.6711 101.457L55.7248 96.3574C55.7248 96.3574 57.739 95.2085 58.5447 98.6686L59.1691 101.309C59.1691 101.309 61.8547 104.608 62.1904 104.453L64.0099 103.62L64.7283 99.3001C64.7283 99.3001 66.5411 98.2655 67.3333 98.7089C67.6905 98.8883 67.9963 99.1558 68.2218 99.486C68.4473 99.8163 68.5852 100.199 68.6224 100.597C68.6224 100.597 70.4889 100.751 69.9652 103.58C69.9652 103.58 71.9055 103.499 71.7914 106.361C72.1786 106.619 72.4751 106.991 72.639 107.427C72.8029 107.862 72.8258 108.338 72.7045 108.787C72.3822 110.533 71.9458 112.482 71.9458 112.482C71.9458 112.482 70.321 114.867 68.8104 115.539C67.2997 116.211 63.2915 118.145 63.2915 118.145L58.4104 111.192Z" fill="#FFCEB0"/>
<path d="M67.332 104.151C67.7065 103.623 67.9818 103.031 68.1444 102.404C68.4159 101.821 68.5775 101.192 68.6211 100.55C67.9789 101.659 67.5422 102.874 67.332 104.138V104.151Z" fill="#263238"/>
<path d="M69.1461 106.435C69.476 105.966 69.7046 105.432 69.8175 104.87C70.0322 104.343 70.1351 103.778 70.1196 103.21C69.8062 103.685 69.5895 104.217 69.4818 104.776C69.2578 105.3 69.1435 105.865 69.1461 106.435Z" fill="#263238"/>
<path d="M71.0051 108.827C71.0991 108.827 71.3206 108.29 71.4952 107.584C71.6602 107.157 71.7134 106.694 71.6495 106.24C71.5623 106.24 71.3407 106.771 71.1595 107.49C70.9782 108.209 70.8977 108.814 71.0051 108.827Z" fill="#263238"/>
<path d="M41.5408 114.148C42.0315 114.3 42.5387 114.393 43.0514 114.424C44.2772 114.571 45.5097 114.654 46.7441 114.672C48.1877 114.672 49.4969 114.672 50.4436 114.578C50.9549 114.58 51.4645 114.519 51.9609 114.397C51.9609 114.289 49.6245 114.397 46.7509 114.323C45.3141 114.323 44.0115 114.235 43.0716 114.182C42.564 114.116 42.0508 114.104 41.5408 114.148Z" fill="#263238"/>
<path d="M117.352 120.813C118.251 119.606 119.293 118.512 120.454 117.555C121.685 116.693 123.018 115.986 124.422 115.452C123.96 115.461 123.504 115.559 123.079 115.741C121.007 116.463 119.217 117.822 117.963 119.624C117.691 119.981 117.484 120.384 117.352 120.813Z" fill="#263238"/>
<path d="M118.267 117.111C119.139 116.493 120.09 115.993 121.094 115.626C122.132 115.366 123.2 115.248 124.27 115.277C123.981 115.12 123.658 115.04 123.33 115.042C121.741 114.904 120.161 115.386 118.919 116.385C118.455 116.775 118.24 117.084 118.267 117.111Z" fill="#263238"/>
<g opacity="0.3">
<path opacity="0.3" d="M123.834 115.761C122.18 116.109 120.676 116.969 119.537 118.22C118.411 119.467 117.466 120.867 116.731 122.378C116.415 122.99 115.851 123.722 115.213 123.467C114.576 123.212 114.602 122.526 114.69 121.955C114.853 120.88 115.238 119.851 115.819 118.933C116.4 118.014 117.166 117.226 118.067 116.619C118.968 116.012 119.985 115.598 121.054 115.404C122.123 115.21 123.221 115.24 124.277 115.492" fill="black"/>
</g>
<g opacity="0.3">
<path opacity="0.3" d="M85.5005 87.6234C82.8149 86.1654 80.3575 84.6672 78.4507 82.2485C78.1924 81.8305 77.7956 81.5166 77.3295 81.3617C76.9076 81.3357 76.4885 81.4464 76.1344 81.6775L70.4677 84.5866C70.7141 81.6134 71.8885 78.7929 73.8248 76.5244C73.1064 78.0159 72.1328 82.3829 72.1328 82.3829C73.7027 81.1822 75.3318 80.061 77.0139 79.0236C77.4869 78.6732 77.9826 78.3545 78.4977 78.0696C78.8149 78.4058 79.0675 78.7975 79.243 79.2252C79.4578 80.1524 83.446 85.1375 85.5273 87.6032" fill="black"/>
</g>
<path d="M96.6076 138.805C96.6178 138.752 96.6178 138.697 96.6076 138.644C96.6076 138.516 96.6076 138.362 96.6076 138.174C96.6076 137.73 96.6076 137.132 96.5606 136.367C96.5606 135.977 96.5606 135.54 96.5204 135.07C96.4801 134.6 96.5204 134.076 96.5204 133.518C96.5204 132.403 96.5204 131.14 96.6211 129.742C96.6613 129.043 96.7016 128.311 96.7419 127.545C96.7889 126.786 96.8963 125.993 96.9702 125.18C97.1045 123.534 97.3932 121.821 97.6416 119.973C98.3204 116.018 99.2556 112.111 100.441 108.276C101.666 104.454 103.142 100.717 104.859 97.0901C105.685 95.4374 106.444 93.8518 107.276 92.4275C107.686 91.7153 108.055 91.0099 108.451 90.3582L109.606 88.4905C110.318 87.2878 111.07 86.2599 111.687 85.3395C112.003 84.8826 112.285 84.4459 112.567 84.063L113.346 83.0216L114.42 81.5704L114.695 81.1874C114.758 81.1023 114.785 81.0553 114.776 81.0464L114.668 81.1673L114.366 81.5234L113.238 82.941L112.432 83.9622C112.144 84.3451 111.855 84.7751 111.526 85.2253C110.895 86.139 110.13 87.1602 109.398 88.3561L108.223 90.2171C107.813 90.889 107.437 91.5608 107.028 92.2864C106.182 93.7107 105.41 95.2963 104.564 96.9491C102.829 100.585 101.339 104.334 100.106 108.169C98.9203 112.02 97.9918 115.946 97.326 119.92C97.0642 121.761 96.7889 123.501 96.6546 125.147C96.5875 125.973 96.4868 126.766 96.4465 127.532C96.4062 128.298 96.3794 129.03 96.3458 129.729C96.2585 131.133 96.2988 132.416 96.2988 133.518C96.2988 134.076 96.2988 134.593 96.2988 135.07C96.2988 135.547 96.4129 135.997 96.4129 136.373C96.4599 137.132 96.5002 137.717 96.5271 138.181C96.5271 138.369 96.5271 138.523 96.5606 138.644C96.5689 138.7 96.5847 138.754 96.6076 138.805Z" fill="white"/>
<path d="M86.9071 139.242C86.9285 139.188 86.9399 139.131 86.9407 139.074C86.9407 138.939 86.9877 138.778 87.0145 138.577C87.075 138.113 87.1555 137.468 87.2629 136.655C87.3704 135.842 87.4845 134.807 87.6725 133.625C87.8605 132.443 88.0283 131.106 88.3103 129.627C88.4379 128.888 88.5789 128.116 88.7199 127.31C88.8609 126.503 89.0556 125.67 89.2301 124.81C89.5658 123.077 90.0224 121.25 90.4789 119.321C91.4592 115.478 92.6744 111.259 94.1716 106.959C95.6688 102.659 97.354 98.6081 98.9788 94.9936C99.8247 93.193 100.604 91.4798 101.423 89.9144C101.825 89.1351 102.195 88.3624 102.584 87.6435C102.974 86.9247 103.343 86.2327 103.705 85.5742C104.377 84.2305 105.109 83.0817 105.72 82.047C106.331 81.0124 106.841 80.1322 107.284 79.4201L108.284 77.7673L108.539 77.3374C108.571 77.2892 108.595 77.2373 108.613 77.1828C108.613 77.1828 108.573 77.2231 108.506 77.3172L108.224 77.7337L107.163 79.3529C106.707 80.0248 106.149 80.9183 105.545 81.9462C104.941 82.9742 104.202 84.1298 103.531 85.4533C103.162 86.1252 102.779 86.797 102.383 87.5159C101.987 88.2348 101.611 89.0007 101.201 89.7867C100.375 91.3454 99.583 93.0587 98.7304 94.8592C97.0787 98.4738 95.407 102.518 93.8829 106.845C92.3588 111.172 91.1973 115.384 90.2037 119.241C89.7538 121.176 89.3107 123.01 88.9884 124.75C88.8139 125.617 88.6326 126.45 88.4983 127.263C88.364 128.076 88.2297 128.848 88.1022 129.587C87.8403 131.065 87.6859 132.416 87.5181 133.618C87.3502 134.821 87.2428 135.822 87.1622 136.662C87.0817 137.502 87.028 138.12 86.9877 138.59L86.9474 139.094C86.9271 139.141 86.9135 139.191 86.9071 139.242Z" fill="white"/>
<path d="M80.5798 139.463C80.5876 139.412 80.5876 139.36 80.5798 139.309C80.5798 139.188 80.6134 139.04 80.6335 138.859C80.6738 138.435 80.7342 137.851 80.8014 137.118C80.8685 136.386 80.9558 135.439 81.0901 134.371C81.2244 133.302 81.3385 132.08 81.5466 130.743C81.7548 129.406 81.9427 127.928 82.218 126.362C82.4933 124.797 82.8156 123.117 83.1647 121.364C83.9167 117.856 84.8634 114.034 86.0517 110.07C87.2401 106.106 88.6232 102.404 89.9391 99.0446C90.6105 97.3919 91.2819 95.8063 91.9198 94.3417C92.5576 92.8771 93.1954 91.5401 93.7795 90.3106C94.3637 89.0811 94.9277 87.9994 95.4111 87.0319C95.8945 86.0645 96.3309 85.2515 96.7001 84.5864L97.5192 83.0479L97.7274 82.6448C97.7744 82.5507 97.7945 82.5037 97.7878 82.4969C97.7496 82.534 97.7178 82.5771 97.6938 82.6246C97.6334 82.7321 97.5528 82.8598 97.4588 83.0143L96.5793 84.5259C96.1966 85.1978 95.74 85.9839 95.2365 86.9446C94.7329 87.9054 94.1354 88.9602 93.5513 90.2031C92.9671 91.446 92.2958 92.7494 91.6512 94.2342C91.0067 95.719 90.3084 97.2642 89.637 98.9371C88.2942 102.296 86.9514 105.992 85.7429 109.956C84.5344 113.919 83.6145 117.769 82.876 121.283C82.5403 123.05 82.2046 124.723 81.9629 126.302C81.7212 127.88 81.4929 129.352 81.3251 130.696C81.1572 132.039 81.0297 133.269 80.9155 134.337C80.8014 135.405 80.7342 136.353 80.6872 137.098C80.6402 137.844 80.6067 138.442 80.5865 138.845C80.5865 139.027 80.5865 139.174 80.5865 139.295C80.5757 139.351 80.5735 139.407 80.5798 139.463Z" fill="white"/>
<path d="M75.1406 127.747C74.8745 128.233 74.6735 128.753 74.543 129.292C73.7467 131.844 73.3237 134.499 73.2875 137.173C73.2482 137.727 73.2775 138.285 73.3748 138.832C73.4774 138.289 73.5291 137.738 73.5292 137.186C73.603 136.172 73.7373 134.774 73.979 133.242C74.2208 131.711 74.5296 130.347 74.778 129.359C74.9408 128.832 75.062 128.293 75.1406 127.747Z" fill="white"/>
<path d="M67.622 129.218C66.9673 130.41 66.5693 131.726 66.4537 133.081C66.2276 134.421 66.2802 135.793 66.6081 137.112C66.7223 137.112 66.5141 135.305 66.8028 133.081C67.0916 130.857 67.7228 129.278 67.622 129.218Z" fill="white"/>
<path d="M82.1172 83.2158C82.1172 83.2158 82.0568 83.3166 81.9695 83.5316C81.8822 83.7466 81.7546 84.0825 81.6136 84.4587C81.3115 85.265 80.902 86.4743 80.432 87.9121C79.2016 91.7363 78.1641 95.62 77.3234 99.5485C76.3365 104.157 75.7188 108.377 75.3831 111.447C75.2153 112.979 75.1011 114.222 75.0474 115.082C75.0474 115.478 75.0071 115.807 74.987 116.076C74.971 116.19 74.971 116.305 74.987 116.419C75.0249 116.308 75.0475 116.193 75.0541 116.076C75.0877 115.814 75.128 115.492 75.175 115.095C75.269 114.242 75.4234 112.999 75.6248 111.474C76.0209 108.424 76.6722 104.218 77.639 99.6224C78.6058 95.027 79.7539 90.9287 80.6401 87.986C81.0833 86.5079 81.4525 85.2986 81.7143 84.4991C81.8352 84.1228 81.9292 83.8272 82.0098 83.5517C82.0553 83.4431 82.0913 83.3307 82.1172 83.2158Z" fill="white"/>
<path d="M70.8675 101.732C71.0029 101.444 71.1087 101.142 71.1831 100.832C71.3845 100.16 71.6329 99.3405 71.935 98.3327C72.5729 96.2231 73.4591 93.314 74.5064 90.1227C75.5538 86.9314 76.5676 84.0761 77.3061 81.9933L78.1789 79.5344C78.3037 79.2402 78.3982 78.934 78.4609 78.6207C78.2955 78.895 78.1583 79.1853 78.0514 79.4873C77.8097 80.0517 77.474 80.8781 77.0779 81.906C76.2722 83.9619 75.2248 86.8172 74.1775 90.0152C73.1301 93.2132 72.2707 96.1358 71.7 98.2655C71.4113 99.3271 71.1965 100.194 71.0286 100.792C70.9491 101.1 70.8952 101.415 70.8675 101.732Z" fill="white"/>
<path d="M73.9531 72.2314C73.7645 72.5407 73.605 72.8668 73.4764 73.2056C73.1877 73.8774 72.8051 74.7777 72.3217 75.94C71.3817 78.2579 70.1799 81.4962 69.0251 85.1377C67.8704 88.7791 67.011 92.1249 66.4269 94.5436C66.1382 95.7596 65.9301 96.754 65.7958 97.4392C65.7098 97.7925 65.6514 98.1519 65.6212 98.5142C65.7564 98.1752 65.8597 97.8243 65.9301 97.4661C66.1181 96.7338 66.3665 95.7663 66.6619 94.604C67.293 92.1854 68.2061 88.8597 69.3474 85.1981C70.4888 81.5365 71.6704 78.3184 72.5432 75.9803C72.9729 74.8516 73.322 73.9245 73.5906 73.2123C73.7354 72.8947 73.8566 72.5669 73.9531 72.2314Z" fill="white"/>
<path d="M60.8959 93.7971C60.9935 93.5273 61.0633 93.2481 61.104 92.964C61.2047 92.4266 61.3658 91.6203 61.5807 90.6932C62.1406 88.2051 62.8423 85.7511 63.6822 83.3431C64.5312 80.9362 65.5245 78.5827 66.6565 76.2954C67.0862 75.4153 67.4487 74.7098 67.7038 74.2261C67.8492 73.9784 67.9706 73.7175 68.0664 73.4467C67.8813 73.6669 67.7193 73.9056 67.583 74.1589C67.2943 74.6225 66.9116 75.3145 66.4349 76.1745C65.2372 78.443 64.2072 80.7963 63.3532 83.2155C62.5068 85.6278 61.8337 88.0975 61.339 90.6058C61.1577 91.5733 61.0301 92.3594 60.9697 92.9103C60.9171 93.2029 60.8924 93.4998 60.8959 93.7971Z" fill="white"/>
<path d="M74.894 75.6777C76.1718 74.6984 77.7802 74.2551 79.3789 74.4415C79.3789 74.4012 79.1372 74.2668 78.7075 74.1862C78.1147 74.0894 77.5081 74.1216 76.9288 74.2804C76.3495 74.4392 75.8112 74.721 75.3505 75.1066C75.0148 75.4022 74.8671 75.6441 74.894 75.6777Z" fill="white"/>
<path d="M77.4727 70.108C77.4727 70.202 77.9561 70.4237 78.6006 70.5984C79.2451 70.7731 79.7957 70.847 79.8158 70.7529C79.836 70.6589 79.3391 70.4439 78.6946 70.2625C78.0501 70.0811 77.4995 70.0206 77.4727 70.108Z" fill="white"/>
<path d="M97.3063 77.351C97.9692 77.7898 98.5937 78.2843 99.1728 78.829C99.6747 79.4488 100.124 80.1095 100.516 80.8043C100.383 79.9771 100.009 79.2076 99.4406 78.593C98.8718 77.9784 98.1338 77.5462 97.3198 77.351H97.3063Z" fill="white"/>
<path d="M98.0374 71.6937C97.9769 71.7811 99.0511 72.5537 99.9978 73.8437C100.944 75.1336 101.388 76.3832 101.488 76.3497C101.344 75.3587 100.925 74.4279 100.28 73.6623C99.7273 72.8123 98.9514 72.1312 98.0374 71.6937Z" fill="white"/>
<path d="M121.531 114.746C121.466 114.37 121.365 114.001 121.229 113.644C121.008 112.972 120.705 111.918 120.35 110.655C119.435 107.356 118.715 104.007 118.194 100.624C117.688 97.239 117.387 93.8264 117.295 90.405C117.261 89.0613 117.248 88.0267 117.254 87.2876C117.275 86.9065 117.262 86.5242 117.214 86.1455C117.156 86.5236 117.125 86.9052 117.12 87.2876C117.073 88.0199 117.046 89.0882 117.046 90.405C117.083 97.29 118.116 104.133 120.115 110.722C120.504 111.985 120.84 112.999 121.102 113.685C121.218 114.049 121.361 114.404 121.531 114.746Z" fill="white"/>
<path d="M121.408 117.366C121.619 117.4 121.835 117.4 122.046 117.366C122.462 117.366 123.053 117.292 123.785 117.192C125.685 116.914 127.552 116.444 129.358 115.787C131.166 115.127 132.901 114.28 134.534 113.261C135.03 112.96 135.509 112.632 135.971 112.28C136.153 112.166 136.318 112.026 136.461 111.864C136.461 111.817 135.675 112.327 134.406 113.053C131.103 114.954 127.496 116.27 123.745 116.943C122.308 117.219 121.401 117.313 121.408 117.366Z" fill="white"/>
<path d="M109.988 98.5136C109.944 98.6945 109.915 98.8788 109.901 99.0646C109.854 99.4341 109.78 99.9648 109.733 100.664C109.576 102.628 109.549 104.601 109.653 106.569C109.795 109.491 110.213 112.393 110.901 115.236C111.301 116.919 111.792 118.578 112.372 120.208C112.934 121.992 113.782 123.674 114.883 125.186C115.476 125.953 116.245 126.566 117.125 126.973C118.003 127.351 118.975 127.452 119.912 127.262C121.738 126.899 123.195 125.838 124.551 124.924L131.742 119.959L136.582 116.6L137.885 115.666C138.041 115.562 138.189 115.448 138.328 115.323C138.158 115.404 137.996 115.501 137.845 115.612L136.502 116.486L131.607 119.771C129.533 121.168 127.082 122.828 124.37 124.676C123.027 125.583 121.57 126.604 119.851 126.94C118.983 127.105 118.085 127.007 117.273 126.658C116.446 126.269 115.723 125.688 115.165 124.964C114.088 123.482 113.259 121.835 112.708 120.087C112.113 118.475 111.605 116.834 111.183 115.169C110.476 112.347 110.027 109.466 109.841 106.562C109.724 104.602 109.724 102.637 109.841 100.677C109.841 100.005 109.921 99.4475 109.941 99.078C109.975 98.8918 109.991 98.7028 109.988 98.5136Z" fill="white"/>
<path d="M39.216 121.834C39.216 121.834 39.2765 121.894 39.4107 121.982C39.6023 122.113 39.8019 122.232 40.0083 122.338C40.7714 122.745 41.587 123.046 42.432 123.231C45.2373 123.796 48.1466 123.523 50.7977 122.445C53.4104 121.352 55.8525 119.888 58.0488 118.098C58.9015 117.427 59.5729 116.876 60.063 116.479C60.3082 116.278 60.5331 116.053 60.7344 115.807C60.4573 115.957 60.1964 116.135 59.9556 116.338L57.9078 117.863C55.691 119.578 53.2602 120.997 50.6768 122.083C48.0812 123.132 45.2441 123.435 42.4857 122.956C41.3546 122.715 40.2568 122.338 39.216 121.834Z" fill="white"/>
<path d="M40.6046 114.692C40.7933 114.877 41.0082 115.033 41.2424 115.156C41.8522 115.529 42.4923 115.85 43.1559 116.116C45.366 117.008 47.7651 117.327 50.1312 117.044C52.4972 116.761 54.7536 115.885 56.6914 114.497C57.2759 114.081 57.8239 113.616 58.3296 113.107C58.5251 112.93 58.6966 112.729 58.8398 112.509C58.7928 112.462 58.0409 113.295 56.5504 114.289C54.6185 115.594 52.4032 116.419 50.0887 116.695C47.7742 116.97 45.4273 116.689 43.2432 115.875C41.5647 115.27 40.6382 114.632 40.6046 114.692Z" fill="white"/>
<path d="M146.097 107.564C146.296 107.58 146.495 107.58 146.694 107.564L146.023 107.181L157.893 104.419C157.857 104.908 157.66 105.37 157.333 105.735C157.007 106.1 156.568 106.346 156.087 106.435C155.295 106.63 154.522 106.895 153.778 107.228C157.557 107.026 161.304 106.805 161.304 106.805C161.304 106.805 161.794 107.712 160.444 108.43C158.941 109.102 157.393 109.67 155.812 110.13L161.304 110.802C160.186 111.512 158.888 111.885 157.564 111.877C155.154 111.951 153.764 111.877 153.764 111.877L159.102 114.054C157.913 114.681 156.55 114.893 155.228 114.658C153.173 114.222 143.572 114.188 143.572 114.188L146.097 107.564Z" fill="#FFCEB0"/>
<path d="M151.89 92.2724H224.992V121.982H151.89V92.2724Z" fill="white"/>
<path d="M151.89 121.982C151.89 121.982 151.89 121.8 151.89 121.451C151.89 121.102 151.89 120.578 151.89 119.906C151.89 118.562 151.89 116.546 151.924 113.987C151.924 108.854 151.964 101.443 151.991 92.2725L151.87 92.3934L224.965 92.4472L224.79 92.2725C224.79 102.673 224.79 112.717 224.79 121.982L224.958 121.814L172.589 121.894L157.375 121.941H153.3H152.246H151.877H152.226H153.26H157.288L172.462 121.982L224.965 122.062H225.133V121.894C225.133 112.63 225.133 102.585 225.133 92.1851V92.0105H224.958L151.863 92.0575H151.736V92.1851C151.736 101.39 151.789 108.827 151.803 113.973C151.803 116.526 151.803 118.508 151.836 119.865C151.836 120.537 151.836 121.034 151.836 121.384C151.836 121.733 151.89 121.982 151.89 121.982Z" fill="#EF293D"/>
<path d="M201.123 99.0779H218.781V116.748H201.123V99.0779Z" fill="#EF293D"/>
<path d="M156.953 105.844C156.953 105.904 166.037 105.958 177.243 105.958C188.448 105.958 197.539 105.904 197.539 105.844C197.539 105.783 188.455 105.73 177.243 105.73C166.03 105.73 156.953 105.763 156.953 105.844Z" fill="#EF293D"/>
<path d="M156.953 109.445C156.953 109.506 166.037 109.559 177.243 109.559C188.448 109.559 197.539 109.506 197.539 109.445C197.539 109.385 188.455 109.324 177.243 109.324C166.03 109.324 156.953 109.378 156.953 109.445Z" fill="#EF293D"/>
<path d="M171.408 113.04C171.497 113.051 171.588 113.051 171.677 113.04H172.435H175.235L184.474 113.073L193.712 113.154H196.512H197.271C197.36 113.165 197.45 113.165 197.539 113.154C197.45 113.145 197.36 113.145 197.271 113.154H196.512L193.712 113.114L184.474 113.08L175.235 113.114L172.435 113.154H171.677C171.591 113.107 171.501 113.068 171.408 113.04Z" fill="#EF293D"/>
<path d="M135.937 110.829L144.081 104.856L155.494 101.672C155.494 101.672 156.045 102.229 154.695 103.869C153.346 105.508 148.921 107.309 148.921 107.309C149.217 108.151 149.347 109.043 149.304 109.935C149.02 111.348 148.256 112.618 147.143 113.53C146.029 114.443 144.634 114.941 143.194 114.941H142.463L140.858 118.582L135.937 110.829Z" fill="#FFCEB0"/>
<path d="M154.152 104.42C154.152 104.379 153.622 104.729 152.756 105.199C151.89 105.669 150.668 106.247 149.325 106.926C149.171 107.006 149.016 107.08 148.875 107.161L148.754 107.221L148.788 107.356C149.061 108.476 149.091 109.642 148.875 110.775C148.707 111.635 148.499 112.119 148.546 112.159C148.829 111.758 149.019 111.299 149.103 110.816C149.397 109.649 149.397 108.428 149.103 107.262L149.016 107.456L149.459 107.228C150.802 106.556 152.024 105.938 152.863 105.401C153.348 105.153 153.784 104.82 154.152 104.42Z" fill="#EB996E"/>
<path d="M71.5234 65.1366C71.3493 64.7877 71.2838 64.3945 71.3355 64.0079C71.3639 63.8151 71.4516 63.6358 71.5863 63.495C71.721 63.3542 71.8961 63.2587 72.0874 63.2218C72.4113 63.2274 72.7255 63.333 72.9871 63.5242C74.7164 64.5085 76.6164 65.1559 78.5866 65.4322L78.6537 65.5129C78.7296 65.6471 78.7695 65.7987 78.7695 65.9529C78.7695 66.1071 78.7296 66.2587 78.6537 66.393C78.4913 66.6709 78.2601 66.9023 77.9823 67.0648C77.4463 67.4256 76.8375 67.6638 76.1991 67.7625C75.5606 67.8612 74.9084 67.8179 74.2885 67.6358C73.6687 67.4536 73.0966 67.137 72.6129 66.7086C72.1292 66.2801 71.7458 65.7503 71.4899 65.1568L71.5234 65.1366Z" fill="#EF293D"/>
<path d="M92.5644 52.3918C93.1485 49.3415 93.9072 46.1771 95.861 43.7988C97.4659 41.8724 99.7565 40.646 102.249 40.379C104.741 40.1119 107.239 40.8251 109.215 42.3677L110.672 43.4494C111.637 47.3463 111.999 51.3681 111.746 55.3748C111.605 57.7061 110.33 60.0441 108.792 61.8044C108.054 62.6509 107.047 63.2623 106.442 64.2163C105.905 65.0561 105.771 66.0841 105.328 66.9844C103.985 69.8599 99.9565 70.8139 97.1098 69.4501C94.2631 68.0862 92.4906 64.9957 91.9669 61.8581C91.4432 58.7206 91.9669 55.5159 92.5644 52.3918Z" fill="#282828"/>
<path d="M94.9572 33.7071C100.637 34.0565 104.666 31.8931 107.714 34.0699C109.016 34.9904 114.676 38.5982 114.589 39.9419C114.502 41.2856 112.333 42.374 108.862 43.0593L79.938 41.2655C76.581 40.1569 74.6071 38.8199 74.6877 37.4829C74.8555 34.7216 83.9328 33.0286 94.9572 33.7071Z" fill="#EF293D"/>
<g opacity="0.4">
<path opacity="0.4" d="M106.988 42.8515C110.07 42.2401 112.07 41.2726 112.07 40.0834C112.07 36.7712 104.416 35.1588 94.614 34.5541C84.8116 33.9495 76.7951 35.4611 76.6474 37.9134C76.5735 39.0958 78.3527 40.2783 81.3002 41.2726" fill="black"/>
</g>
<path d="M81.6029 40.2983C81.7506 38.4907 82.2596 36.7313 83.0996 35.1243C83.9396 33.5173 85.0936 32.0955 86.4931 30.9432C87.8926 29.7909 89.5091 28.9316 91.2467 28.4162C92.9843 27.9008 94.8077 27.7399 96.6086 27.9429C103.806 28.7491 108.982 35.3333 108.58 42.5624C108.217 48.9047 107.72 55.2805 107.237 57.5312C105.726 64.3169 101.194 66.1309 99.4217 66.5945C98.7968 66.6808 98.1646 66.7033 97.5351 66.6617C97.5227 66.6617 97.5107 66.6666 97.5019 66.6754C97.4931 66.6843 97.4881 66.6962 97.4881 66.7087L97.3538 74.8583L79.7297 73.3869L81.6029 40.2983Z" fill="#FFCEB0"/>
<path d="M105.973 47.097C105.959 47.3845 105.833 47.6552 105.622 47.851C105.411 48.0469 105.132 48.1524 104.845 48.1451C104.704 48.1487 104.564 48.1238 104.432 48.072C104.301 48.0201 104.182 47.9422 104.082 47.8431C103.982 47.744 103.902 47.6256 103.849 47.4951C103.795 47.3646 103.769 47.2246 103.77 47.0836C103.784 46.7961 103.91 46.5254 104.121 46.3295C104.332 46.1337 104.611 46.0281 104.898 46.0355C105.039 46.0319 105.179 46.0567 105.311 46.1086C105.442 46.1605 105.561 46.2384 105.661 46.3375C105.762 46.4366 105.841 46.5549 105.894 46.6855C105.948 46.816 105.974 46.956 105.973 47.097Z" fill="#263238"/>
<path d="M106.626 44.0734C106.478 44.2145 105.679 43.5426 104.497 43.4754C103.316 43.4082 102.403 43.9457 102.282 43.7912C102.161 43.6367 102.382 43.4687 102.779 43.2201C103.312 42.893 103.934 42.7403 104.558 42.7834C105.176 42.8241 105.766 43.0592 106.243 43.4553C106.585 43.7509 106.693 44.0129 106.626 44.0734Z" fill="#263238"/>
<path d="M95.1909 46.2975C95.1686 46.579 95.0392 46.8413 94.8293 47.0301C94.6194 47.2188 94.3451 47.3198 94.063 47.312C93.9218 47.3156 93.7812 47.2908 93.6498 47.2389C93.5183 47.1871 93.3987 47.1094 93.2978 47.0104C93.197 46.9114 93.1171 46.7931 93.0628 46.6625C93.0086 46.532 92.9811 46.3919 92.9821 46.2505C92.9977 45.9624 93.125 45.6917 93.3368 45.496C93.5487 45.3003 93.8285 45.195 94.1167 45.2024C94.26 45.2005 94.4022 45.2277 94.5347 45.2823C94.6672 45.337 94.7873 45.4179 94.8877 45.5202C94.9881 45.6226 95.0667 45.7442 95.1188 45.8778C95.1709 46.0114 95.1954 46.1542 95.1909 46.2975Z" fill="#263238"/>
<path d="M94.9537 43.5833C94.806 43.7177 94.0071 43.0458 92.8254 42.9786C91.6438 42.9115 90.7307 43.4489 90.6098 43.2944C90.489 43.1399 90.7106 42.9786 91.1067 42.7233C91.642 42.4018 92.2628 42.2518 92.8858 42.2934C93.505 42.3308 94.0958 42.5663 94.571 42.9652C94.9134 43.281 95.0208 43.5228 94.9537 43.5833Z" fill="#263238"/>
<path d="M98.7159 52.6471C99.3532 52.4919 100.007 52.4152 100.663 52.4187C100.972 52.4187 101.261 52.3649 101.334 52.1566C101.381 51.847 101.332 51.5306 101.193 51.2497C100.952 50.4972 100.697 49.7111 100.435 48.8847C99.394 45.5255 98.6621 42.7709 98.7964 42.7306C98.9307 42.6903 99.8841 45.3777 100.925 48.7369C101.18 49.57 101.415 50.3561 101.643 51.1153C101.812 51.4913 101.843 51.9147 101.731 52.3112C101.679 52.4153 101.604 52.5063 101.513 52.5773C101.421 52.6483 101.314 52.6974 101.2 52.721C101.03 52.756 100.856 52.7696 100.683 52.7613C100.025 52.807 99.3641 52.7686 98.7159 52.6471Z" fill="#263238"/>
<path d="M97.4727 66.6611C97.4727 66.6611 92.8736 66.7552 87.3548 62.9592C87.3548 62.9592 88.7916 69.1268 97.4257 68.8513L97.4727 66.6611Z" fill="#EB996E"/>
<path d="M98.0436 55.4754C97.8351 55.1776 97.5546 54.9376 97.2281 54.7778C96.9017 54.618 96.5401 54.5437 96.1772 54.5617C95.9111 54.5733 95.6501 54.6388 95.41 54.7543C95.17 54.8698 94.9559 55.0328 94.7807 55.2336C94.6112 55.4214 94.5031 55.6564 94.4707 55.9073C94.4383 56.1582 94.4832 56.413 94.5994 56.6377C94.7766 56.8628 95.0171 57.0298 95.2898 57.1172C95.5626 57.2046 95.8552 57.2084 96.1302 57.1282C96.7025 56.9639 97.2365 56.6876 97.7013 56.3153C97.8412 56.2287 97.9641 56.1171 98.0638 55.9861C98.1063 55.9199 98.1289 55.843 98.1289 55.7643C98.1289 55.6857 98.1063 55.6088 98.0638 55.5426" fill="#EB996E"/>
<path d="M95.1762 53.251C95.3709 53.251 95.2971 54.541 96.3378 55.5219C97.3786 56.5028 98.7617 56.449 98.7617 56.6304C98.7617 56.711 98.4394 56.8588 97.862 56.8387C97.1121 56.8015 96.3992 56.5019 95.8476 55.9922C95.3165 55.497 94.9966 54.816 94.9546 54.0908C94.9278 53.5466 95.0688 53.2376 95.1762 53.251Z" fill="#263238"/>
<path d="M95.6276 39.8749C95.4933 40.1907 94.3184 39.9623 92.942 40.0429C91.5656 40.1235 90.3906 40.4393 90.2228 40.137C90.1489 39.9959 90.3638 39.7002 90.8405 39.4181C91.457 39.0693 92.1472 38.8713 92.8547 38.8403C93.5728 38.7991 94.2905 38.928 94.9495 39.2165C95.4463 39.4517 95.688 39.7204 95.6276 39.8749Z" fill="#282828"/>
<path d="M106.378 40.9969C106.15 41.2522 105.351 40.923 104.364 40.8491C103.377 40.7752 102.538 40.9163 102.35 40.6207C102.276 40.4796 102.424 40.2175 102.799 39.9891C103.307 39.7136 103.884 39.5946 104.459 39.6472C105.034 39.6998 105.58 39.9217 106.029 40.2847C106.378 40.5938 106.486 40.8692 106.378 40.9969Z" fill="#282828"/>
<path d="M80.1428 37.7315C80.1372 37.0018 80.2669 36.2773 80.5255 35.595C81.1969 34.1035 82.9761 33.4854 84.5538 33.1494C89.1059 32.2089 93.799 32.3499 98.4383 32.4776L100.258 33.7071C99.5673 34.5848 98.6918 35.2993 97.6938 35.7998C96.6958 36.3003 95.5998 36.5745 94.4838 36.6028C93.0202 36.6028 91.382 36.2736 90.2272 37.1604C89.3812 37.8323 89.0858 38.9341 88.6695 39.915C88.0317 41.4065 87.9578 43.2742 86.4942 44.0133C85.3528 44.5709 84.48 44.3156 83.6273 45.2562C82.7746 46.1968 82.4792 47.7555 82.3718 49.0925C82.2644 50.4295 82.0227 52.5391 80.7873 53.0497C81.0693 48.1989 79.8876 42.6091 80.1428 37.7315Z" fill="#282828"/>
<path d="M111.949 38.4704C111.949 38.4704 109.841 26.5518 109.606 25.9673C109.371 25.3828 106.37 20.0282 98.4608 18.0731L91.8542 17.6632C91.8542 17.6632 82.2868 20.1088 80.4405 22.2923C78.5941 24.4758 77.1707 35.5277 77.1707 35.5277L95.9699 32.6321L108.384 36.4818L111.949 38.4704Z" fill="#EF293D"/>
<path d="M96.3774 16.5885L98.2036 16.7028C98.569 16.7231 98.9204 16.8504 99.2141 17.0691C99.5077 17.2877 99.7307 17.5878 99.8552 17.9322C100.061 18.5403 100.166 19.1781 100.164 19.8201C100.164 21.8827 99.7679 36.0118 99.7679 36.0118L91.5099 35.1316L92.8527 17.724L89.9993 18.1808L90.0798 17.6702C90.1273 17.3622 90.2679 17.0762 90.4827 16.8506C90.6303 16.6967 90.8091 16.5763 91.0072 16.4975C91.2052 16.4187 91.4179 16.3833 91.6307 16.3937L96.3774 16.5885Z" fill="#EF293D"/>
<path d="M109.551 39.5056L108.933 35.3671L96.2235 30.5163L80.3717 34.151L80.0898 38.7397C80.0898 38.7397 93.5178 34.3257 109.551 39.5056Z" fill="#282828"/>
<path d="M107.739 34.0696L108.256 34.634L112.426 38.1679C106.895 36.0424 101.08 34.7474 95.1709 34.3249C86.248 33.8681 75.8548 36.2599 75.8548 36.2599L81.9846 33.0618C82.9747 32.1245 84.1426 31.3953 85.4192 30.9176C86.6958 30.4398 88.0552 30.2231 89.417 30.2804L100.629 30.7507C101.975 30.8042 103.297 31.1252 104.518 31.695C105.738 32.2648 106.834 33.072 107.739 34.0696Z" fill="#EF293D"/>
<path d="M111.145 38.2557C111.145 38.2557 111.064 38.1482 110.883 37.9936C110.616 37.7563 110.326 37.547 110.017 37.3688C108.88 36.7356 107.672 36.2395 106.418 35.8907C102.293 34.7203 98.0135 34.1924 93.7285 34.3253C91.2376 34.3253 88.8474 34.3253 86.6721 34.5C84.7537 34.6786 82.8463 34.9612 80.9585 35.3465C80.1528 35.5145 79.4344 35.7093 78.81 35.9042C78.2492 36.037 77.7273 36.2993 77.2859 36.6701C77.0111 36.9247 76.8392 37.2713 76.8025 37.6443C76.7847 37.7715 76.8082 37.901 76.8697 38.0138C76.8645 37.7854 76.9107 37.5587 77.0048 37.3506C77.099 37.1424 77.2386 36.9581 77.4135 36.8112C77.8475 36.4803 78.3498 36.2508 78.8839 36.1393C79.5083 35.9714 80.2267 35.8101 81.0256 35.6623C82.6235 35.3801 84.5706 35.0979 86.7057 34.93C88.8407 34.762 91.2309 34.8158 93.7352 34.7889C97.9845 34.6546 102.231 35.1205 106.351 36.1729C107.594 36.4951 108.8 36.9454 109.949 37.5166C110.735 37.9466 111.104 38.3027 111.145 38.2557Z" fill="#263238"/>
<path d="M109.53 39.3709C110.148 43.1534 114.142 49.368 107.851 52.7004C107.851 52.7004 108.281 44.6382 107.818 41.4469C107.735 40.4991 107.444 39.5813 106.965 38.7595" fill="#282828"/>
<path d="M72.6259 50.1945C73.0824 49.3883 73.7941 48.7298 74.1164 47.8632C74.3451 46.9409 74.4422 45.9909 74.4051 45.0414C74.6148 43.2343 75.5128 41.5778 76.9122 40.4165C78.3116 39.2552 80.1045 38.6786 81.918 38.8066L80.0716 67.3469C75.2443 67.0512 71.3435 60.7829 71.0347 56.4293C71.0475 54.2521 71.5938 52.1112 72.6259 50.1945Z" fill="#282828"/>
<path d="M78.9561 63.5778C79.4076 63.7982 79.906 63.9048 80.408 63.8885C80.91 63.8721 81.4004 63.7331 81.8365 63.4838C82.704 62.9728 83.42 62.24 83.9111 61.3607C84.7381 59.975 85.2203 58.4107 85.3173 56.7996C85.4143 55.1885 85.1231 53.5777 84.4684 52.1026C86.1512 50.3452 87.3743 48.1992 88.029 45.8551C88.6838 43.511 88.7499 41.0414 88.2215 38.6656L81.2926 38.8604L78.9561 63.5778Z" fill="#282828"/>
<path d="M112.527 37.4426C112.402 37.3896 112.284 37.3196 112.178 37.2344L111.211 36.5625C110.352 35.9646 109.157 35.1382 107.687 34.1304L106.921 32.9681C106.674 32.5381 106.376 32.139 106.035 31.7789C105.649 31.4155 105.192 31.1363 104.692 30.9593C104.156 30.7966 103.601 30.7018 103.04 30.6771C100.711 30.4621 98.1326 30.3344 95.4335 30.2471C92.9158 30.1665 90.5122 30.1329 88.3033 30.1127C87.7773 30.0756 87.2487 30.1255 86.7389 30.2605C86.2651 30.3973 85.8226 30.6256 85.4364 30.9324C84.7247 31.6042 84.0936 32.2761 83.4222 32.8606L78.897 34.6545L77.6549 35.1247C77.5134 35.191 77.3647 35.2407 77.2118 35.2726C77.3475 35.1947 77.4889 35.1273 77.6348 35.071L78.8299 34.547L83.3148 32.6591H83.2812C83.8989 32.0477 84.5233 31.3825 85.2954 30.6905C85.7008 30.3502 86.1715 30.0964 86.6785 29.9448C87.2066 29.8239 87.7508 29.7898 88.2899 29.844C90.4988 29.844 92.9091 29.8843 95.4268 29.9582C98.1124 30.0456 100.711 30.1799 103.054 30.4151C103.636 30.4434 104.211 30.5472 104.766 30.7241C105.291 30.9176 105.769 31.2198 106.169 31.611C106.522 31.9846 106.829 32.3997 107.082 32.8472C107.337 33.257 107.593 33.6467 107.828 34.0229L111.299 36.5356L112.232 37.2075C112.337 37.2771 112.436 37.3558 112.527 37.4426Z" fill="#263238"/>
<path d="M91.8949 29.9986C91.8675 29.8047 91.8675 29.608 91.8949 29.4141C91.8949 29.0446 91.9285 28.5004 91.9688 27.8352C92.0426 26.4915 92.1702 24.6708 92.3314 22.6418C92.4119 21.6273 92.4858 20.6666 92.5596 19.7797C92.5999 19.343 92.6335 18.9265 92.6738 18.5301C92.6813 18.456 92.6732 18.3812 92.6499 18.3105C92.6266 18.2397 92.5888 18.1747 92.5387 18.1195C92.4887 18.0644 92.4277 18.0204 92.3595 17.9905C92.2914 17.9605 92.2178 17.9452 92.1434 17.9456L90.5857 18.1472C90.3918 18.1724 90.1955 18.1724 90.0016 18.1472C90.1823 18.0734 90.3719 18.0237 90.5656 17.9993C90.9348 17.9254 91.4518 17.8179 92.1299 17.7037C92.2368 17.6986 92.3435 17.7163 92.4429 17.7557C92.5423 17.7951 92.6322 17.8553 92.7066 17.9323C92.7809 18.0092 92.838 18.1011 92.874 18.2019C92.9101 18.3027 92.9242 18.41 92.9155 18.5167C92.9155 18.9131 92.8618 19.3296 92.8282 19.7663C92.7678 20.6532 92.6939 21.6206 92.6201 22.6284C92.4656 24.6439 92.3045 26.4915 92.1769 27.8218C92.1098 28.4936 92.0561 29.0177 92.0091 29.3939C91.9982 29.5997 91.9598 29.8031 91.8949 29.9986Z" fill="#263238"/>
<path d="M99.9184 30.3282C99.8117 29.7567 99.7622 29.176 99.7707 28.5948C99.7372 27.5265 99.7707 26.0417 99.8043 24.4091C99.8379 22.7765 99.905 21.2985 99.9587 20.2235C99.9587 19.6448 100.008 19.0672 100.106 18.4969C100.176 19.0719 100.196 19.6518 100.167 20.2302C100.167 21.3052 100.167 22.7833 100.093 24.4159C100.019 26.0485 100.012 27.4325 99.9789 28.5948C99.9994 29.1733 99.9792 29.7525 99.9184 30.3282Z" fill="#263238"/>
<path d="M67.5409 53.0703C67.6847 52.3348 68.0434 51.6586 68.5718 51.1276C69.1001 50.5965 69.7742 50.2344 70.5085 50.0872C70.2463 49.586 70.19 49.002 70.3518 48.4598C70.5136 47.9177 70.8806 47.4602 71.3746 47.1848C72.046 46.8288 72.9189 46.8825 73.6104 46.513C73.9891 46.2676 74.3145 45.9484 74.5671 45.5744C74.8197 45.2004 74.9944 44.7793 75.0808 44.3362C75.2416 43.446 75.4867 42.5732 75.8126 41.7294C75.9814 41.3098 76.2675 40.9479 76.6366 40.6869C77.0058 40.4259 77.4424 40.277 77.8939 40.2581L82.5938 59.3655C82.305 60.7063 81.6441 61.9384 80.687 62.9202C79.7299 63.902 78.5154 64.5937 77.1831 64.9158C75.8508 65.2378 74.4547 65.1772 73.1552 64.741C71.8558 64.3047 70.7057 63.5104 69.8371 62.4493C68.5548 60.8906 68.0244 58.4182 69.3134 56.8797C68.6747 56.4912 68.1654 55.922 67.8499 55.2439C67.5344 54.5659 67.4269 53.8095 67.5409 53.0703Z" fill="#282828"/>
<path d="M72.6649 47.0033C72.7051 47.0033 72.7387 46.7212 72.9401 46.2576C73.244 45.6192 73.7552 45.1029 74.3903 44.7929C75.3577 44.3662 76.3958 44.1224 77.4519 44.0741C78.6537 43.9598 79.9965 43.9666 81.4064 43.7247C82.1092 43.6091 82.789 43.3823 83.4206 43.0528C83.9854 42.7395 84.5144 42.3655 84.9984 41.9376C85.8047 41.2097 86.5543 40.4213 87.2408 39.5794C87.8316 38.8739 88.2949 38.2894 88.5836 37.8796C88.766 37.6763 88.9217 37.4505 89.0469 37.2077C88.3135 37.879 87.6292 38.602 86.9991 39.3711C86.2904 40.1722 85.5325 40.9284 84.7298 41.6352C84.2596 42.0405 83.7488 42.3962 83.2057 42.6968C82.6109 42.9896 81.9746 43.189 81.3191 43.288C79.9763 43.5299 78.6335 43.5366 77.4049 43.6709C76.3058 43.7397 75.2311 44.0251 74.2426 44.5108C73.5697 44.8659 73.051 45.4567 72.7857 46.1702C72.6745 46.4329 72.6329 46.7199 72.6649 47.0033Z" fill="white"/>
<path d="M67.9667 54.8369C68.007 54.8369 68.0674 54.4607 68.3561 53.8224C68.7769 52.9374 69.3947 52.1606 70.1622 51.5516C71.3041 50.6361 72.613 49.9515 74.016 49.536C75.5871 49.0321 77.373 48.7029 79.2328 48.0916C80.9704 47.5125 82.5702 46.5817 83.9326 45.3571C85.0347 44.3592 86.0376 43.2567 86.9271 42.0651C87.6925 41.0573 88.2699 40.204 88.6459 39.6128C88.8603 39.3172 89.0469 39.0023 89.2031 38.6722C88.952 38.934 88.7271 39.2198 88.5317 39.5255C88.1087 40.0898 87.5112 40.9095 86.7189 41.8837C85.8163 43.0375 84.8094 44.1058 83.711 45.0749C82.3661 46.2506 80.8002 47.1459 79.1052 47.7086C77.3059 48.3133 75.4931 48.6492 73.9019 49.1867C72.4638 49.616 71.1293 50.3363 69.9809 51.303C69.1983 51.9641 68.5916 52.8089 68.2151 53.762C68.1148 54.0176 68.0427 54.2834 68.0003 54.5548C67.96 54.7429 67.9533 54.8369 67.9667 54.8369Z" fill="white"/>
<path d="M111.484 49.7984C111.491 49.2533 111.419 48.7101 111.269 48.186C110.999 46.9097 110.645 45.6528 110.208 44.4236C109.782 43.1903 109.273 41.9872 108.684 40.8225C108.474 40.3204 108.191 39.8518 107.845 39.4317C107.738 39.4855 108.832 41.6959 109.859 44.558C110.886 47.4201 111.363 49.8186 111.484 49.7984Z" fill="white"/>
<path d="M89.747 44.6249C89.6598 44.6249 89.8142 45.0817 90.2908 45.2967C90.7675 45.5117 91.1703 45.2967 91.13 45.1959C91.0897 45.0952 90.7742 45.1153 90.4184 44.9742C90.0626 44.8331 89.8343 44.551 89.747 44.6249Z" fill="#EB996E"/>
<path d="M89.6969 46.0089C89.7506 46.0963 90.093 46.0089 90.5228 45.9014C90.9525 45.7939 91.3151 45.8208 91.3352 45.7267C91.3553 45.6327 90.9592 45.4714 90.4623 45.5588C89.9655 45.6461 89.6499 45.9686 89.6969 46.0089Z" fill="#EB996E"/>
<path d="M92.9823 52.9958C93.0696 53.0495 93.3381 52.7539 93.7745 52.5725C94.2109 52.3911 94.6003 52.3776 94.6205 52.2769C94.6406 52.1761 94.1706 52.0148 93.6335 52.2769C93.0964 52.5389 92.895 52.9554 92.9823 52.9958Z" fill="#EB996E"/>
<path d="M106.483 46.8759C106.483 46.9632 106.771 46.9565 107.067 46.8759C107.362 46.7953 107.577 46.6206 107.543 46.5265C107.51 46.4325 107.255 46.4392 106.959 46.5265C106.664 46.6139 106.483 46.7818 106.483 46.8759Z" fill="#EB996E"/>
<path d="M106.941 47.5072C106.888 47.5879 107.029 47.7693 107.29 47.8163C107.552 47.8633 107.747 47.7424 107.72 47.6483C107.693 47.5543 107.532 47.5072 107.351 47.4736C107.17 47.44 106.995 47.4266 106.941 47.5072Z" fill="#EB996E"/>
<path d="M84.9047 72.1707C84.9829 71.0882 84.9469 70.0006 84.7973 68.9257C84.7421 68.5369 84.7812 68.1405 84.9115 67.7701C85.0872 67.4699 85.242 67.1578 85.3747 66.8362C85.4142 66.7129 85.4269 66.5825 85.4118 66.4539C85.3968 66.3252 85.3543 66.2013 85.2874 66.0904C85.1733 65.9359 85.0592 65.9225 85.0524 65.9359C85.0457 65.9494 85.1129 66.0233 85.1666 66.1576C85.2391 66.3527 85.2391 66.5673 85.1666 66.7623C85.0726 67.0109 84.8376 67.2595 84.6496 67.6357C84.4715 68.0597 84.4112 68.5239 84.4751 68.9794C84.5017 70.0556 84.6458 71.1258 84.9047 72.1707Z" fill="#EB996E"/>
</svg>
