<svg width="507" height="510" viewBox="0 0 507 510" fill="none" xmlns="http://www.w3.org/2000/svg">
<path d="M429.597 509.289C429.597 509.646 337.437 509.953 223.777 509.953C110.117 509.953 17.9062 509.646 17.9062 509.289C17.9062 508.931 110.065 508.625 223.777 508.625C337.489 508.625 429.597 509.008 429.597 509.289Z" fill="#263238"/>
<path d="M438.024 145.81L486.542 144.661L506.179 222.699L462.768 244.685C462.529 262.245 459.953 279.695 455.107 296.574L490.321 330.154L449.03 399.229L402.886 384.163C390.312 396.433 376.149 406.962 360.777 415.47L361.927 463.988L283.889 483.753L261.902 440.342C244.341 440.117 226.89 437.54 210.013 432.681L176.433 467.87L107.486 426.578L122.629 380.332C110.311 367.753 99.7307 353.582 91.169 338.198L42.6507 339.347L23.0391 261.284L66.4502 239.297C66.6781 221.737 69.2545 204.286 74.1109 187.408L38.7947 153.803L80.0863 84.8559L126.306 99.9733C138.881 87.7032 153.043 77.1737 168.415 68.6662L167.266 20.1479L245.329 0.510742L267.29 43.9218C284.859 44.1496 302.319 46.726 319.205 51.5826L352.785 16.3941L421.732 57.7113L406.614 103.931C418.868 116.52 429.396 130.68 437.922 146.04L438.024 145.81Z" fill="#EBEBEB"/>
<path d="M438.022 145.81L436.286 142.874C435.137 140.958 433.426 138.047 431.025 134.345C423.88 123.412 415.687 113.2 406.562 103.855V103.727C410.724 90.959 415.78 75.3566 421.603 57.4814V57.8389L352.579 16.4452H353.064L319.51 51.6592L319.331 51.8635H319.076C302.232 47.0131 284.816 44.4366 267.289 44.2027H267.008L266.88 43.9474L244.868 0.536272L245.43 0.791608L167.392 20.4798L167.826 19.918C168.184 34.9587 168.593 51.5571 169.001 68.4363V68.7938L168.695 68.947C153.382 77.4539 139.272 87.9653 126.739 100.203L126.484 100.458L126.126 100.331L79.9062 85.3922L80.6213 85.1368C67.6235 106.842 53.6298 130.284 39.3296 154.212V153.42L74.416 186.923L74.6969 187.178V187.562C69.8752 204.394 67.2993 221.79 67.0361 239.297V239.68L66.6786 239.859L23.2675 261.846L23.625 261.105C29.8558 285.875 36.393 312.356 43.2366 339.143L42.5727 338.658L91.091 337.509H91.5251L91.7039 337.866C100.193 353.177 110.687 367.287 122.909 379.822L123.19 380.103V380.486L108.072 426.731L107.766 425.939L176.841 467.257H176.024C187.361 455.34 198.555 443.61 209.603 432.068L209.884 431.787L210.267 431.915C227.087 436.755 244.477 439.332 261.978 439.576H262.361L262.539 439.933L284.5 483.344L283.811 483.038L361.772 463.324L361.338 463.911C360.963 447.364 360.589 431.191 360.214 415.393V415.036L360.521 414.882C375.846 406.391 389.972 395.897 402.527 383.678L402.757 383.448H403.089L449.309 398.59L448.696 398.82C463.379 374.28 477.118 351.349 490.039 329.873V330.435C477.475 318.433 465.908 307.453 454.876 296.83L454.672 296.651V296.396C459.509 279.558 462.085 262.151 462.333 244.634V244.379H462.562L505.973 222.444L505.795 222.827C497.47 189.426 491.06 163.839 486.285 144.763L486.49 144.916L449.769 145.657L440.806 145.836H437.895C437.895 145.836 438.891 145.836 440.857 145.708L449.871 145.453L486.49 144.482H486.643V144.661C491.469 163.736 497.955 189.298 506.408 222.673V222.929L506.178 223.056L462.767 245.068L462.996 244.736C462.761 262.338 460.185 279.831 455.336 296.753L455.208 296.319C466.265 306.84 477.858 317.871 490.422 329.873L490.703 330.129L490.524 330.461C477.935 351.987 464.35 374.919 449.565 399.484L449.335 399.842L448.952 399.714L402.706 384.622L403.268 384.495C390.657 396.795 376.462 407.358 361.057 415.904L361.363 415.393C361.738 431.242 362.121 447.415 362.513 463.911V464.397H362.053L284.015 484.059L283.53 484.187L283.3 483.727L261.314 440.316L261.875 440.674C244.256 440.442 226.747 437.865 209.808 433.013L210.446 432.834L176.866 468.048L176.509 468.431L176.075 468.15L107.025 427.063L106.566 426.782L106.745 426.297C111.716 410.975 116.755 395.56 121.862 380.051L122.015 380.715C109.703 368.105 99.1395 353.899 90.6058 338.479L91.1931 338.836L42.6748 339.986H42.1386L42.0109 339.475C35.2694 312.688 28.6045 286.207 22.3993 261.437L22.2461 260.926L22.7313 260.671L65.9892 238.608L65.6317 239.17C65.8683 221.551 68.4444 204.042 73.2924 187.102L73.4712 187.74L38.3593 154.339L37.9762 153.982L38.2316 153.548L79.5743 84.6006L79.8296 84.192L80.2893 84.3452L126.509 99.488L125.896 99.6157C138.512 87.2674 152.716 76.6534 168.133 68.0533L167.852 68.564C167.443 51.6082 167.06 35.0098 166.728 20.0457V19.6116H167.163L245.226 0H245.609L245.788 0.357502C253.449 15.6791 260.931 30.2856 267.749 43.7686L267.34 43.5133C284.943 43.7356 302.437 46.312 319.357 51.174L318.897 51.3017L352.502 16.1132L352.732 15.9089L353.013 16.0621L421.96 57.4303H422.164V57.6602L406.843 103.88V103.65C415.955 113.029 424.107 123.294 431.179 134.294C435.979 141.724 438.022 145.81 438.022 145.81Z" fill="#263238"/>
<path d="M157.715 167.49C157.715 183.476 169.41 196.448 183.838 196.448C198.266 196.448 209.987 183.476 209.987 167.49C209.987 151.505 198.291 138.507 183.838 138.507C169.385 138.507 157.715 151.479 157.715 167.49Z" fill="#455A64"/>
<g opacity="0.3">
<path opacity="0.3" d="M176.561 151.453C177.24 149.466 178.094 147.543 179.115 145.708C179.702 163.813 180.775 178.649 182.664 196.448C177.557 187.229 176.025 176.019 175.438 164.988C174.816 160.448 175.199 155.828 176.561 151.453Z" fill="black"/>
</g>
<path d="M339.226 224.001C338.409 201.581 337.617 179.033 333.327 157.021C329.037 135.009 323.649 113.61 309.86 95.7344L180.903 102.706C175.924 122.598 170.919 142.976 172.987 163.354C174.979 183.144 183.636 202.27 182.231 222.086C181.261 236.105 175.311 249.231 170.944 262.586C166.578 275.942 163.769 290.676 168.978 303.827C170.111 307.203 172.261 310.147 175.132 312.254C179.005 314.297 183.384 315.183 187.747 314.807C239.33 314.807 290.887 313.624 342.418 311.258C341.363 282.164 340.299 253.078 339.226 224.001Z" fill="#263238"/>
<path d="M327.325 252.448L296.836 246.575L238.409 259.981L208.788 266.161L208.354 306.636L274.441 318.791L319.026 305.589L335.88 280.793L327.325 252.448Z" fill="#B7715B"/>
<path d="M348.954 256.483L320.201 249.69C320.201 249.69 299.772 312.56 249.722 309.853C208.864 307.632 208.864 266.161 208.864 266.161L178.962 271.422C178.962 271.422 166.424 347.34 180.162 400.582C191.602 444.887 198.446 508.906 198.446 508.906L401.124 509.391L349.031 256.585L348.954 256.483Z" fill="#EF293D"/>
<path d="M154.268 289.041C170.406 268.868 183.302 271.166 183.302 271.166L191.959 367.845L121.48 456.991L92.8027 383.677C92.8027 383.677 139.534 307.555 154.268 289.041Z" fill="#EF293D"/>
<path d="M345.534 255.666C345.534 255.666 392.086 259.394 408.786 335.67C416.447 370.169 425.895 410.592 428.628 437.814C430.645 457.527 419.92 488.375 400.283 490.903L368.057 495.32C352.735 495.55 344.308 481.403 341.091 468.023L333.864 445.27C330.161 419.249 350.105 419.581 361.238 419.734L352.914 320.936L345.534 255.666Z" fill="#EF293D"/>
<path d="M175.054 324.792C174.946 325.132 174.877 325.483 174.85 325.839L174.365 328.929C174.365 329.592 174.16 330.333 174.058 331.15C173.956 331.967 173.88 332.861 173.777 333.704C173.599 335.619 173.369 337.79 173.267 340.19C172.923 345.844 172.881 351.513 173.139 357.171C173.48 364.088 174.17 370.983 175.207 377.83C176.28 385.133 177.608 392.028 178.987 398.259C180.366 404.489 181.694 410.082 182.868 414.78C184.043 419.479 185.013 423.233 185.728 425.837C186.086 427.063 186.367 428.059 186.571 428.825C186.66 429.172 186.771 429.514 186.903 429.847C186.882 429.484 186.822 429.124 186.724 428.774C186.545 428.008 186.316 427.012 186.009 425.761L183.456 414.806C182.358 410.107 180.902 404.592 179.727 398.284C178.553 391.977 177.174 385.159 176.025 377.855C174.875 370.552 174.212 363.606 173.905 357.248C173.599 350.889 173.573 345.169 173.905 340.343C173.905 337.943 174.186 335.772 174.339 333.857C174.339 332.912 174.467 332.044 174.544 331.303C174.62 330.563 174.722 329.771 174.799 329.082C174.799 327.805 175.029 326.784 175.131 325.992C175.141 325.59 175.115 325.189 175.054 324.792Z" fill="#263238"/>
<path d="M397.958 446.598C397.921 445.947 397.801 445.304 397.6 444.683C397.153 442.929 396.546 441.22 395.787 439.576C393.303 434.204 389.467 429.569 384.656 426.123C379.845 422.676 374.222 420.537 368.336 419.913C366.574 419.702 364.797 419.642 363.025 419.734C362.372 419.746 361.722 419.823 361.084 419.964C361.084 420.117 363.867 419.811 368.285 420.424C374.038 421.218 379.505 423.422 384.201 426.839C388.897 430.256 392.675 434.78 395.2 440.01C397.141 443.891 397.677 446.649 397.958 446.598Z" fill="#263238"/>
<path d="M387.081 408.6C386.708 408.543 386.329 408.543 385.957 408.6C384.926 408.59 383.894 408.632 382.867 408.728C379.494 409.112 376.193 409.972 373.061 411.282C369.928 412.571 366.989 414.29 364.328 416.389C363.525 417.026 362.765 417.717 362.055 418.457C361.545 418.968 361.289 419.274 361.34 419.325C361.391 419.377 362.592 418.33 364.66 416.772C367.356 414.816 370.269 413.179 373.342 411.894C376.427 410.657 379.652 409.8 382.944 409.341C385.472 408.779 387.081 408.728 387.081 408.6Z" fill="#263238"/>
<path d="M338.868 309.853C338.936 309.174 338.936 308.489 338.868 307.81C338.868 306.482 338.868 304.593 339.097 302.269C339.943 290.076 343.28 278.187 348.903 267.336C350.001 265.267 350.92 263.607 351.457 262.484C351.826 261.914 352.151 261.316 352.427 260.696C351.965 261.199 351.554 261.746 351.201 262.331C350.461 263.403 349.465 265.037 348.316 267.106C345.352 272.479 343.021 278.177 341.37 284.087C339.712 290.009 338.736 296.1 338.459 302.243C338.355 304.097 338.355 305.956 338.459 307.81C338.531 308.502 338.668 309.186 338.868 309.853Z" fill="#263238"/>
<g opacity="0.3">
<path opacity="0.3" d="M177.201 388.836C171.451 378.625 168.285 367.163 167.978 355.449C167.671 343.735 170.232 332.123 175.439 321.625C172.117 343.941 172.835 366.672 177.558 388.733" fill="black"/>
</g>
<g opacity="0.3">
<path opacity="0.3" d="M282.842 411.563C291.856 414.116 304.343 414.857 313.127 411.563C306.258 421.318 293.005 424.867 281.488 421.777C269.971 418.687 259.4 407.094 258.506 395.194C264.753 403.011 273.247 408.724 282.842 411.563Z" fill="black"/>
</g>
<path d="M249.85 379.055C249.886 379.335 249.955 379.609 250.054 379.873C250.233 380.383 250.437 381.149 250.82 382.12C251.868 384.848 253.167 387.472 254.701 389.959C259.783 398.254 267.127 404.925 275.871 409.188C280.714 411.471 285.883 412.987 291.192 413.682C295.499 414.234 299.858 414.234 304.165 413.682C307.068 413.331 309.932 412.707 312.719 411.818C313.715 411.512 314.456 411.205 314.966 411.001C315.477 410.797 315.732 410.694 315.707 410.669C315.681 410.643 314.609 410.975 312.642 411.537C309.849 412.313 306.996 412.859 304.113 413.171C294.57 414.293 284.905 412.68 276.243 408.521C267.581 404.362 260.279 397.827 255.187 389.678C253.637 387.238 252.288 384.676 251.152 382.018C250.156 380.153 249.85 379.055 249.85 379.055Z" fill="#263238"/>
<path d="M347.831 486.306C347.831 486.306 348.648 487.277 350.384 488.707C352.906 490.642 355.801 492.033 358.888 492.793C363.469 493.923 368.198 494.337 372.907 494.018C378.218 493.635 384.092 493.022 390.195 492.103C395.926 491.363 401.571 490.063 407.048 488.222C409.341 487.213 411.441 485.813 413.254 484.085C414.862 482.591 416.316 480.94 417.595 479.156C419.451 476.574 421.043 473.81 422.344 470.908C422.779 469.861 423.136 469.07 423.34 468.508C423.44 468.215 423.568 467.933 423.723 467.665C423.681 467.971 423.603 468.271 423.494 468.559C423.315 469.121 423.008 469.963 422.6 471.113C421.404 474.095 419.87 476.931 418.029 479.565C416.756 481.408 415.301 483.119 413.688 484.672C411.836 486.47 409.684 487.931 407.329 488.988C401.805 490.901 396.097 492.236 390.297 492.971C384.168 493.891 378.32 494.478 372.958 494.835C368.181 495.129 363.387 494.655 358.76 493.431C355.624 492.598 352.699 491.109 350.18 489.064C349.526 488.484 348.92 487.852 348.367 487.175C347.984 486.664 347.805 486.306 347.831 486.306Z" fill="#263238"/>
<path d="M340.145 334.163C340.35 334.163 345.252 353.162 351.1 376.706C356.948 400.25 361.544 419.402 361.315 419.453C361.085 419.504 356.207 400.455 350.36 376.885C344.512 353.315 339.941 334.189 340.145 334.163Z" fill="#263238"/>
<path d="M334.118 441.721C333.965 441.207 333.887 440.674 333.889 440.138C333.761 438.702 333.761 437.258 333.889 435.822C334.031 433.638 334.754 431.531 335.983 429.719C336.659 428.628 337.455 427.618 338.357 426.706C339.347 425.712 340.463 424.854 341.677 424.152C345.902 421.919 350.48 420.433 355.211 419.76C356.641 419.552 358.082 419.424 359.527 419.377C360.051 419.294 360.585 419.294 361.11 419.377C361.11 419.504 358.863 419.581 355.313 420.219C350.679 421.013 346.198 422.53 342.035 424.714C340.889 425.367 339.826 426.156 338.868 427.063C338.025 428 337.289 429.028 336.672 430.127C335.493 431.855 334.756 433.845 334.527 435.924C334.405 437.342 334.362 438.766 334.399 440.189C334.355 440.707 334.261 441.22 334.118 441.721Z" fill="#263238"/>
<path d="M240.145 439.065L240.579 439.269L240.145 439.065Z" fill="#FFBF9D"/>
<path d="M196.224 479.105C199.953 472.057 229.166 453.416 229.166 453.416L221.275 451.578L212.542 455.28C211.888 458.241 210.608 461.027 208.788 463.452C205.571 468.023 200.131 463.299 200.131 463.299L203.809 445.602L220.994 435.235C220.994 435.235 237.261 437.788 239.891 438.963L246.811 445.321C249.85 447.696 258.634 457.093 261.035 457.374C263.435 457.655 338.817 440.699 338.817 440.699C349.031 448.896 354.598 465.137 356.233 476.884C356.233 476.884 358.071 482.629 356.079 485.77L263.537 493.022L243.925 498.462C238.673 500.631 233.292 502.473 227.812 503.977C221.275 505.356 216.883 503.262 216.704 499.636C216.525 496.01 221.607 495.653 221.607 495.653C225.928 494.092 230.135 492.232 234.196 490.086C237.173 488.102 239.62 485.419 241.321 482.272L234.324 483.115C234.324 483.115 219.462 493.329 213.895 496.47C208.328 499.611 207.179 493.916 206.745 492.256C206.311 490.597 223.446 473.768 223.446 473.768C223.446 473.768 207.128 483.829 204.192 486.358C201.255 488.886 196.914 489.652 195.995 487.966C195.075 486.281 192.42 486.306 196.224 479.105Z" fill="#B7715B"/>
<path d="M276.587 480.739C276.587 480.739 276.587 480.356 276.587 479.616C276.634 479.166 276.634 478.712 276.587 478.262C276.529 477.666 276.417 477.077 276.255 476.5C275.329 473.159 273.721 470.046 271.53 467.359C269.393 464.664 266.999 462.183 264.38 459.953C263.343 459.005 262.223 458.151 261.035 457.4C261.973 458.461 262.989 459.451 264.074 460.362C266.557 462.679 268.861 465.18 270.969 467.844C273.118 470.459 274.756 473.457 275.795 476.679C276.51 479.105 276.433 480.765 276.587 480.739Z" fill="#754235"/>
<path d="M229.777 452.854C231.486 453.241 233.272 453.08 234.885 452.395C236.521 451.985 237.997 451.096 239.124 449.841C238.996 449.662 237.208 450.99 234.655 451.833C232.101 452.676 229.777 452.65 229.777 452.854Z" fill="#754235"/>
<path d="M224.926 472.21C227.475 471.533 229.962 470.636 232.357 469.529C234.835 468.621 237.235 467.511 239.532 466.209C236.981 466.883 234.495 467.78 232.101 468.891C229.617 469.786 227.216 470.897 224.926 472.21Z" fill="#754235"/>
<path d="M240.58 482.093C241.9 481.801 243.178 481.347 244.385 480.74C245.685 480.359 246.936 479.828 248.113 479.156C246.741 479.179 245.39 479.502 244.155 480.101C242.839 480.513 241.622 481.191 240.58 482.093Z" fill="#754235"/>
<path d="M227.326 473.539C228.392 474.265 229.361 475.123 230.212 476.092C230.895 477.174 231.452 478.331 231.872 479.54C231.872 479.54 232.025 479.08 231.872 478.339C231.685 477.408 231.283 476.533 230.697 475.786C230.111 474.997 229.339 474.365 228.45 473.947C227.811 473.539 227.352 473.539 227.326 473.539Z" fill="#754235"/>
<path d="M220.457 462.686C220.457 462.864 221.657 463.579 222.5 465.061C222.922 466.003 223.272 466.976 223.547 467.972C223.75 467.432 223.814 466.85 223.734 466.279C223.653 465.708 223.431 465.166 223.087 464.703C222.117 463.018 220.483 462.507 220.457 462.686Z" fill="#754235"/>
<path d="M222.781 443.406C222.781 443.406 223.138 443.099 223.342 442.487C223.559 441.649 223.559 440.77 223.342 439.933C223.135 439.083 222.713 438.3 222.117 437.66C221.631 437.201 221.248 437.022 221.197 437.099C221.818 438.026 222.316 439.031 222.678 440.086C222.859 441.183 222.894 442.3 222.781 443.406Z" fill="#754235"/>
<path d="M356.896 488.4C356.844 487.695 356.844 486.986 356.896 486.281C356.896 485.591 356.896 484.749 356.896 483.727C356.896 482.706 356.896 481.659 356.666 480.459C356.114 474.122 354.749 467.883 352.606 461.894C351.4 458.627 349.94 455.46 348.239 452.42C347.371 451.041 346.631 449.714 345.686 448.564L344.486 446.853L343.311 445.372C340.221 441.593 337.872 439.652 337.974 439.525C338.57 439.91 339.127 440.355 339.634 440.853C340.28 441.395 340.894 441.975 341.472 442.589C342.266 443.4 343.016 444.252 343.719 445.143L344.945 446.624C345.354 447.134 345.762 447.722 346.196 448.309C347.065 449.458 347.856 450.863 348.75 452.165C350.504 455.23 352.007 458.433 353.244 461.741C355.409 467.784 356.707 474.103 357.1 480.51C357.1 481.736 357.1 482.834 357.228 483.83C357.356 484.825 357.228 485.643 357.228 486.383C357.17 487.063 357.059 487.738 356.896 488.4Z" fill="#263238"/>
<path d="M5.47105 375.889L32.4881 508.676H267.112C267.728 508.676 268.338 508.554 268.907 508.318C269.475 508.081 269.991 507.735 270.426 507.298C270.86 506.861 271.204 506.343 271.437 505.773C271.67 505.203 271.789 504.593 271.785 503.977C271.785 502.738 271.293 501.549 270.417 500.673C269.54 499.796 268.352 499.304 267.112 499.304H219.871L194.82 375.889C194.581 374.718 193.939 373.668 193.006 372.921C192.073 372.175 190.908 371.779 189.713 371.803L10.425 369.837C9.67979 369.846 8.94566 370.019 8.27416 370.342C7.60267 370.666 7.01008 371.132 6.538 371.709C6.06592 372.285 5.72578 372.958 5.54146 373.681C5.35714 374.403 5.33311 375.156 5.47105 375.889Z" fill="#E0E0E0"/>
<path d="M5.46983 375.889V375.48C5.41426 375.082 5.41426 374.678 5.46983 374.28C5.55825 373.477 5.83579 372.707 6.2797 372.032C6.7236 371.358 7.3212 370.798 8.02343 370.399C8.50414 370.108 9.03089 369.9 9.58112 369.786C10.1877 369.678 10.8041 369.635 11.4197 369.658H15.6587H26.205L94.0029 370.297L141.27 370.782L167.751 371.037L181.617 371.19H188.716C189.329 371.19 189.89 371.19 190.554 371.19C191.177 371.246 191.784 371.42 192.342 371.701C193.49 372.268 194.397 373.229 194.895 374.408C195.136 374.99 195.307 375.599 195.406 376.221L195.764 378.009L196.479 381.584C196.964 383.984 197.475 386.41 197.96 388.836C198.964 393.688 199.969 398.607 200.973 403.595C202.999 413.555 205.067 423.769 207.178 434.239C211.417 455.05 215.809 476.679 220.329 498.972L220.023 498.717H266.473C267.088 498.685 267.706 498.728 268.311 498.845C269.277 499.104 270.145 499.642 270.808 500.39C271.47 501.138 271.899 502.065 272.041 503.054C272.182 504.044 272.03 505.053 271.603 505.957C271.176 506.861 270.493 507.62 269.639 508.14C268.961 508.498 268.21 508.699 267.443 508.727H142.598H32.4358H32.2826V508.523C24.0089 467.665 17.293 434.469 12.6454 411.486C10.3217 399.995 8.53415 391.057 7.30842 384.98C6.69556 381.941 6.23591 379.643 5.92948 378.06C5.62305 376.476 5.49538 375.71 5.49538 375.71C5.49538 375.71 5.67412 376.502 6.00609 378.06C6.33805 379.617 6.82324 381.916 7.4361 384.954C8.7129 391.032 10.5515 399.944 12.9008 411.435C17.6249 434.417 24.4175 467.614 32.7678 508.344L32.5124 508.14H142.674H267.29C267.958 508.112 268.612 507.938 269.205 507.629C269.796 507.303 270.303 506.846 270.688 506.292C271.074 505.739 271.326 505.104 271.427 504.437C271.603 503.337 271.346 502.211 270.712 501.296C270.104 500.411 269.197 499.776 268.158 499.509C267.597 499.456 267.033 499.456 266.473 499.509H219.614V499.228C215.094 476.935 210.702 455.306 206.489 434.494C204.369 424.101 202.301 413.886 200.283 403.851C199.262 398.871 198.266 393.968 197.296 389.091C196.811 386.538 196.3 384.239 195.815 381.839C195.585 380.639 195.33 379.464 195.1 378.264L194.742 376.476C194.65 375.9 194.496 375.335 194.283 374.791C193.822 373.739 193.01 372.881 191.984 372.365C191.473 372.112 190.919 371.956 190.35 371.905C189.814 371.905 189.175 371.905 188.588 371.905H181.489L167.598 371.752L141.091 371.395L93.8242 370.833L26.0263 369.99L15.4544 369.837H11.241C10.6384 369.771 10.0305 369.771 9.4279 369.837C8.89523 369.943 8.38531 370.142 7.92128 370.424C7.23187 370.813 6.64231 371.357 6.19915 372.013C5.75598 372.669 5.47134 373.419 5.36769 374.204C5.32447 374.768 5.35884 375.335 5.46983 375.889Z" fill="#263238"/>
<path d="M113.564 436.614C113.564 438.129 113.114 439.61 112.273 440.87C111.431 442.129 110.234 443.111 108.835 443.691C107.435 444.271 105.894 444.423 104.408 444.127C102.922 443.832 101.557 443.102 100.486 442.03C99.4146 440.959 98.685 439.594 98.3894 438.108C98.0938 436.622 98.2455 435.082 98.8253 433.682C99.4052 432.282 100.387 431.086 101.647 430.244C102.907 429.402 104.388 428.953 105.903 428.953C107.935 428.953 109.883 429.76 111.32 431.197C112.757 432.633 113.564 434.582 113.564 436.614Z" fill="white"/>
<path d="M5.67383 376.961H17.9822L51.5364 377.115L162.209 377.881L178.195 378.008H182.127C182.798 377.946 183.474 377.946 184.145 378.008C184.826 378.154 185.475 378.422 186.06 378.8C187.226 379.538 188.073 380.686 188.435 382.018C188.715 383.32 188.945 384.571 189.201 385.797C191.192 395.807 193.099 405.417 194.921 414.627C198.547 432.987 201.815 449.535 204.573 463.452C207.331 477.369 209.502 488.554 211.008 496.368C211.749 500.223 212.336 503.237 212.745 505.305C212.924 506.327 213.077 507.093 213.179 507.654C213.281 508.216 213.179 508.446 213.179 508.446C213.179 508.446 213.179 508.191 212.975 507.654C212.77 507.118 212.694 506.352 212.489 505.331C212.055 503.262 211.442 500.223 210.651 496.419L203.986 463.528L194.333 414.806C192.495 405.613 190.58 395.96 188.588 385.976C188.332 384.75 188.077 383.422 187.822 382.247C187.564 381.369 187.075 380.576 186.405 379.952C185.736 379.327 184.911 378.894 184.017 378.698C183.389 378.632 182.755 378.632 182.127 378.698H178.195H162.184L51.5364 377.728L17.9822 377.344L8.86582 377.217H6.49098L5.67383 376.961Z" fill="#263238"/>
<path d="M319.613 151.53C319.927 165.383 317.302 179.146 311.91 191.91C306.518 204.675 298.482 216.152 288.332 225.584L274.338 184.982" fill="#263238"/>
<path d="M214.099 70.939C226.1 64.3762 240.605 63.4314 254.037 66.1382C267.382 69.2519 280.13 74.5219 291.779 81.7407C298.622 85.2626 304.746 90.0349 309.833 95.811C318.541 106.791 327.172 124.794 328.014 138.788C328.678 150.1 324.363 178.394 319.588 188.66C315.195 198.108 294.664 205.284 284.527 207.607L191.627 99.4626C193.301 93.4586 196.149 87.8463 200.006 82.9502C203.863 78.0541 208.653 73.9716 214.099 70.939Z" fill="#263238"/>
<path d="M198.139 85.5198L220.432 81.5362C208.251 110.571 204.957 176.913 197.986 207.607C189.763 195.682 170.688 159.446 171.709 144.916C172.731 130.386 171.658 83.0683 198.139 85.5198Z" fill="#263238"/>
<path d="M185.395 132.838C186.851 110.57 201.662 83.2725 223.852 85.6728L275.18 98.7728C283.088 100.785 290.14 105.287 295.295 111.614C300.449 117.941 303.433 125.758 303.805 133.91C303.805 134.753 303.959 133.706 303.959 134.344L292.493 267.259L252.197 303.162L254.266 302.882L219.971 273.234C219.971 262.382 219.971 243.996 219.971 244.047C219.971 244.098 191.524 239.272 185.702 202.142C182.79 183.68 183.786 157.557 185.395 132.838Z" fill="#B7715B"/>
<path d="M194.359 164.988C194.352 166.228 194.828 167.423 195.685 168.319C196.543 169.215 197.716 169.742 198.956 169.788C199.56 169.841 200.168 169.771 200.745 169.583C201.321 169.395 201.854 169.093 202.312 168.696C202.769 168.298 203.142 167.812 203.408 167.267C203.673 166.722 203.827 166.129 203.859 165.524C203.88 164.281 203.413 163.08 202.558 162.178C201.704 161.276 200.53 160.744 199.288 160.698C198.681 160.645 198.069 160.716 197.489 160.905C196.91 161.094 196.374 161.398 195.914 161.798C195.454 162.198 195.08 162.687 194.813 163.235C194.546 163.783 194.391 164.379 194.359 164.988Z" fill="#263238"/>
<path d="M191.116 147.368C191.704 148.006 195.304 145.325 200.437 145.351C205.57 145.376 209.298 147.904 209.86 147.317C210.421 146.73 209.528 145.938 207.893 144.763C205.651 143.193 202.97 142.371 200.233 142.414C197.566 142.393 194.962 143.226 192.802 144.789C191.116 145.964 190.682 147.087 191.116 147.368Z" fill="#263238"/>
<path d="M238.819 164.988C238.804 166.226 239.274 167.421 240.128 168.317C240.982 169.214 242.152 169.742 243.39 169.788C243.995 169.841 244.605 169.771 245.183 169.583C245.761 169.396 246.295 169.095 246.755 168.697C247.214 168.3 247.589 167.814 247.858 167.269C248.126 166.724 248.283 166.13 248.318 165.524C248.332 164.283 247.863 163.086 247.01 162.185C246.157 161.284 244.987 160.751 243.747 160.698C243.14 160.645 242.528 160.716 241.948 160.905C241.369 161.094 240.833 161.398 240.373 161.798C239.914 162.198 239.539 162.687 239.272 163.235C239.005 163.783 238.851 164.379 238.819 164.988Z" fill="#263238"/>
<path d="M239.635 147.368C240.222 148.006 243.823 145.325 248.956 145.351C254.088 145.376 257.817 147.904 258.378 147.317C258.94 146.73 258.047 145.938 256.412 144.763C254.205 143.219 251.573 142.398 248.879 142.414C246.212 142.394 243.609 143.226 241.448 144.789C239.865 145.964 239.329 147.087 239.635 147.368Z" fill="#263238"/>
<path d="M223.597 187.536C220.91 186.661 218.119 186.146 215.298 186.004C213.995 185.876 212.744 185.595 212.54 184.701C212.424 183.357 212.728 182.01 213.408 180.846C214.659 177.679 215.961 174.359 217.289 170.887C222.703 156.714 226.61 145.07 226.048 144.865C225.486 144.661 220.635 155.948 215.221 170.12C213.919 173.619 212.667 176.939 211.493 180.131C210.68 181.702 210.436 183.507 210.803 185.238C210.994 185.697 211.286 186.108 211.658 186.44C212.029 186.771 212.47 187.015 212.948 187.153C213.672 187.354 214.419 187.457 215.17 187.459C217.964 187.839 220.796 187.864 223.597 187.536Z" fill="#263238"/>
<path d="M269.155 230.947C269.155 230.947 257.077 256.483 219.947 252.882V244.149C237.256 244.39 254.292 239.82 269.155 230.947Z" fill="#754235"/>
<path d="M241.218 128.803C241.729 130.208 246.836 129.569 252.863 130.284C258.889 130.999 263.715 132.685 264.533 131.433C264.89 130.846 264.047 129.518 261.979 128.165C259.365 126.511 256.409 125.472 253.334 125.127C250.26 124.782 247.147 125.14 244.231 126.173C242.189 127.118 241.014 128.19 241.218 128.803Z" fill="#263238"/>
<path d="M192.649 131.715C193.543 132.864 197.067 131.715 201.331 131.715C205.596 131.715 209.145 132.532 209.988 131.306C210.345 130.719 209.784 129.544 208.226 128.446C206.13 127.097 203.669 126.428 201.178 126.531C198.684 126.558 196.263 127.371 194.258 128.855C192.751 129.927 192.24 131.127 192.649 131.715Z" fill="#263238"/>
<path d="M195.484 98.9261C196.8 96.2027 198.845 93.8971 201.392 92.2654C203.939 90.6336 206.888 89.7394 209.912 89.6821C215.987 89.7066 221.927 91.4796 227.021 94.7893C249.135 107.557 260.499 138.43 282.332 151.632C287.72 154.901 294.691 151.913 299.262 156.229C303.833 160.544 306.923 167.414 304.369 173.159C307.525 169.295 310.106 164.994 312.03 160.391C312.965 158.073 313.394 155.583 313.289 153.085C313.183 150.588 312.545 148.143 311.417 145.912C309.528 142.644 306.31 140.141 305.263 136.49C304.472 133.246 305.748 129.876 305.595 126.556C305.223 123.175 304.059 119.93 302.199 117.082C293.644 101.965 281.77 88.2776 266.729 79.7486C256.835 74.0347 245.569 71.1299 234.146 71.3473C222.679 71.6172 211.685 75.973 203.145 83.6301C198.268 88.201 193.135 92.8996 195.663 99.0793" fill="#263238"/>
<path d="M298.725 160.723C299.133 159.651 318.489 152.654 318.745 173.236C319 193.23 298.827 189.298 298.776 188.736C298.725 188.174 298.725 160.723 298.725 160.723Z" fill="#B7715B"/>
<path d="M304.88 181.101C304.88 181.101 305.237 181.33 305.824 181.611C306.647 181.926 307.556 181.926 308.378 181.611C310.472 180.82 312.234 177.449 312.285 173.951C312.321 172.235 311.972 170.534 311.264 168.971C311.067 168.375 310.734 167.834 310.291 167.39C309.847 166.947 309.306 166.614 308.71 166.418C308.31 166.319 307.888 166.362 307.516 166.539C307.143 166.715 306.844 167.015 306.667 167.388C306.412 167.95 306.667 168.358 306.437 168.384C306.208 168.409 306.003 168.052 306.156 167.235C306.257 166.734 306.528 166.283 306.923 165.958C307.481 165.548 308.175 165.365 308.863 165.447C309.685 165.598 310.454 165.96 311.094 166.497C311.734 167.034 312.224 167.728 312.515 168.511C313.388 170.226 313.826 172.129 313.792 174.053C313.792 178.087 311.672 181.892 308.684 182.735C308.15 182.897 307.586 182.937 307.034 182.853C306.481 182.769 305.955 182.563 305.492 182.25C304.905 181.586 304.803 181.126 304.88 181.101Z" fill="#754235"/>
<path d="M306.692 150.432C306.266 150.263 305.862 150.04 305.492 149.768C304.726 149.283 303.526 148.645 302.121 147.649C298.192 144.762 294.58 141.467 291.345 137.818C286.615 132.359 282.207 126.629 278.143 120.657C273.216 113.405 267.699 106.573 261.647 100.229C258.406 97.0502 254.837 94.2254 250.998 91.8019C247.379 89.6427 243.512 87.928 239.482 86.6947C232.648 84.5212 225.467 83.6549 218.312 84.1411C213.478 84.4388 208.704 85.3748 204.114 86.9245C202.48 87.4353 201.28 87.9715 200.412 88.3035C199.993 88.4964 199.557 88.6503 199.109 88.7631C199.506 88.5131 199.925 88.2994 200.361 88.1247C201.178 87.7672 202.378 87.1544 204.012 86.5926C208.592 84.8941 213.389 83.8538 218.261 83.5027C225.518 82.955 232.811 83.8222 239.737 86.0563C243.852 87.305 247.79 89.0727 251.458 91.3167C255.37 93.7431 259.001 96.5949 262.285 99.8202C268.373 106.246 273.909 113.174 278.833 120.53C282.85 126.498 287.189 132.244 291.83 137.741C294.991 141.399 298.507 144.735 302.326 147.7C303.705 148.747 304.879 149.437 305.569 149.973C305.951 150.106 306.326 150.26 306.692 150.432Z" fill="#455A64"/>
<path d="M301.662 156.101C301.968 161.566 302.224 167.337 299.696 172.189C297.168 177.041 290.809 180.335 286.059 177.628C282.203 175.406 280.952 170.452 280.39 166.035C278.475 153.267 277.607 140.499 275.615 127.731L301.662 156.101Z" fill="#263238"/>
<path d="M236.186 197.316C237.159 198.581 237.812 200.063 238.088 201.635C238.364 203.207 238.256 204.822 237.771 206.343C237.287 207.864 236.441 209.245 235.307 210.368C234.173 211.491 232.783 212.322 231.257 212.791C230.048 213.2 228.738 213.2 227.529 212.791C226.558 212.252 225.706 211.522 225.026 210.644C224.345 209.766 223.85 208.759 223.571 207.684L221.503 202.577C221.341 202.307 221.239 202.005 221.203 201.692C221.168 201.379 221.2 201.063 221.298 200.763C221.579 200.151 222.32 199.946 222.984 199.793L235.752 196.678" fill="#754235"/>
<path d="M227.813 212.229C229.785 212.489 231.791 212.234 233.635 211.489C235.795 210.797 237.617 209.321 238.742 207.352C239.391 206.13 239.667 204.745 239.534 203.368C239.44 201.956 239.094 200.573 238.512 199.283C237.937 198.022 237.122 196.886 236.112 195.937L235.754 195.631L235.346 195.784C226.842 198.772 220.203 200.278 220.254 200.662C225.592 200.297 230.844 199.126 235.831 197.189L235.065 197.035C235.921 197.861 236.614 198.84 237.108 199.921C237.647 200.957 237.961 202.097 238.027 203.263C238.093 204.43 237.91 205.597 237.491 206.688C236.554 208.413 235.047 209.758 233.226 210.493C230.06 211.795 227.736 211.948 227.813 212.229Z" fill="#263238"/>
<path d="M200.41 89.4268C200.41 89.4268 202.172 89.0948 205.517 88.9927C210.042 88.9076 214.539 89.7235 218.745 91.3931C221.593 92.5076 224.315 93.9199 226.865 95.6065C229.848 97.5992 232.705 99.7739 235.42 102.118C241.704 107.446 247.328 113.507 252.172 120.172C254.725 123.747 256.947 127.399 259.398 130.795C261.689 134.119 264.382 137.147 267.416 139.809C272.596 144.207 278.259 148.002 284.296 151.122C289.403 153.828 293.693 155.718 296.63 157.02L300.051 158.476C300.436 158.681 300.849 158.827 301.277 158.91C300.931 158.651 300.554 158.436 300.154 158.272L296.834 156.637C293.923 155.207 289.709 153.19 284.679 150.407C278.749 147.234 273.183 143.424 268.08 139.043C265.155 136.387 262.542 133.405 260.292 130.157C257.892 126.811 255.644 123.134 253.091 119.534C248.195 112.786 242.483 106.67 236.084 101.327C233.316 98.9818 230.408 96.8072 227.376 94.8149C224.703 93.0987 221.852 91.6774 218.873 90.5759C214.556 88.9448 209.946 88.2317 205.339 88.482C204.092 88.5457 202.853 88.7165 201.636 88.9927C201.21 89.0846 200.799 89.2304 200.41 89.4268Z" fill="#455A64"/>
<path d="M334.806 165.243C341.803 190.779 335.879 224.92 342.774 245.451C349.668 265.982 354.724 288.709 346.91 308.908C343.301 300.941 339.709 292.991 336.134 285.058C338.343 289.767 339.295 294.967 338.9 300.153C338.505 305.339 336.775 310.335 333.879 314.656C330.982 318.976 327.018 322.473 322.37 324.809C317.723 327.144 312.55 328.238 307.355 327.984C286.927 286.283 280.721 237.688 298.724 194.89L313.101 205.105L325.639 199.691L334.806 165.243Z" fill="#263238"/>
<path d="M281.77 170.146C281.77 186.157 293.465 199.129 307.918 199.129C322.372 199.129 334.118 186.157 334.118 170.146C334.118 154.135 322.423 141.188 307.995 141.188C293.567 141.188 281.77 154.16 281.77 170.146Z" fill="#455A64"/>
<path d="M292.47 170.146C292.424 169.73 292.424 169.31 292.47 168.895C292.493 167.684 292.63 166.479 292.878 165.294C293.248 163.416 293.866 161.595 294.717 159.88C295.854 157.584 297.414 155.522 299.313 153.803C301.634 151.73 304.433 150.264 307.459 149.538C310.974 148.773 314.64 149.112 317.955 150.509C321.61 152.106 324.691 154.778 326.79 158.169C327.896 159.943 328.755 161.859 329.344 163.864C330.55 168.035 330.55 172.461 329.344 176.632C328.752 178.636 327.893 180.551 326.79 182.326C324.691 185.718 321.61 188.39 317.955 189.987C314.64 191.384 310.974 191.723 307.459 190.958C304.427 190.233 301.626 188.758 299.313 186.668C297.407 184.964 295.847 182.909 294.717 180.616C293.87 178.899 293.252 177.079 292.878 175.202C292.63 174.017 292.493 172.812 292.47 171.601C292.425 171.177 292.425 170.749 292.47 170.325C292.601 171.936 292.823 173.539 293.134 175.125C293.542 176.974 294.195 178.76 295.075 180.437C296.21 182.654 297.752 184.637 299.62 186.285C301.913 188.188 304.641 189.495 307.562 190.089C310.988 190.815 314.555 190.468 317.776 189.093C321.273 187.554 324.22 184.99 326.228 181.739C327.327 180.026 328.187 178.17 328.782 176.223C329.939 172.211 329.939 167.953 328.782 163.941C328.191 161.992 327.332 160.136 326.228 158.425C324.228 155.168 321.278 152.601 317.776 151.07C314.555 149.696 310.988 149.348 307.562 150.075C304.623 150.739 301.9 152.136 299.645 154.135C297.763 155.774 296.211 157.759 295.075 159.982C294.195 161.659 293.542 163.445 293.134 165.294C292.823 166.898 292.601 168.517 292.47 170.146Z" fill="#263238"/>
<path d="M312.949 142.772C312.949 142.772 317.366 66.6489 241.448 64.223C241.448 64.223 215.912 64.223 205.264 77.5527C205.264 77.5527 222.73 67.3384 242.495 72.9818C258.583 77.5017 294.946 93.666 297.04 143.844L304.088 146.27L312.949 142.772Z" fill="#455A64"/>
<g opacity="0.3">
<path opacity="0.3" d="M327.658 180.079C326.664 183.962 324.405 187.404 321.237 189.859C318.069 192.315 314.174 193.645 310.165 193.639C306.158 193.469 302.287 192.138 299.022 189.808C295.758 187.478 293.242 184.248 291.78 180.514C290.385 177.038 289.937 173.256 290.48 169.551C291.022 165.846 292.537 162.35 294.869 159.421C293.379 162.581 292.584 166.024 292.54 169.518C292.496 173.012 293.204 176.474 294.614 179.671C296.084 182.726 298.309 185.355 301.08 187.308C303.851 189.261 307.075 190.473 310.446 190.83C314.044 190.876 317.579 189.887 320.63 187.981C323.682 186.075 326.121 183.333 327.658 180.079Z" fill="black"/>
</g>
<path d="M295.66 144.635C296.545 143.916 297.547 143.355 298.622 142.976C301.16 141.897 303.863 141.258 306.615 141.086C309.364 140.893 312.126 141.161 314.787 141.878C315.908 142.102 316.981 142.526 317.953 143.129C310.59 140.872 302.653 141.408 295.66 144.635Z" fill="#263238"/>
<path d="M201.459 80.6169L201.612 80.1828C201.612 79.9019 201.842 79.4933 202.072 78.9571C202.753 77.4163 203.609 75.9595 204.625 74.616C206.294 72.5263 208.245 70.6786 210.422 69.1257C213.312 67.0536 216.441 65.3388 219.743 64.0186C221.581 63.3035 223.548 62.6907 225.59 62.0523C227.633 61.4139 229.804 60.9032 232.077 60.5457C236.917 59.6487 241.84 59.2805 246.76 59.4476C258.07 59.7814 269.148 62.7453 279.114 68.1043C284.255 70.8646 289.004 74.2998 293.235 78.3187C297.115 82.1063 300.543 86.331 303.45 90.9079C306.137 95.0305 308.372 99.4311 310.114 104.033C313.882 113.838 315.434 124.355 314.66 134.83C314.544 136.543 314.331 138.248 314.021 139.937C314.021 140.473 313.868 140.882 313.792 141.214V141.648C313.792 141.648 313.792 141.495 313.792 141.214C313.792 140.933 313.792 140.448 313.919 139.911C313.919 138.762 314.328 137.102 314.404 134.804C315.311 119.441 311.294 104.189 302.939 91.2654C300.022 86.7497 296.595 82.5853 292.724 78.8549C288.545 74.8425 283.847 71.4072 278.756 68.6406C268.889 63.3411 257.929 60.3958 246.734 60.035C241.868 59.8434 236.996 60.1859 232.204 61.0564C229.932 61.3883 227.812 62.0012 225.744 62.4864C223.675 62.9716 221.76 63.7121 219.947 64.4016C216.666 65.6408 213.545 67.2697 210.652 69.2534C208.489 70.7637 206.539 72.5589 204.855 74.5904C203.869 75.9174 203.014 77.337 202.302 78.8294C202.072 79.3145 201.919 79.6976 201.765 80.004C201.612 80.3105 201.485 80.6169 201.459 80.6169Z" fill="#455A64"/>
<path d="M195.15 86.8222L195.329 86.4392C195.482 86.1583 195.687 85.8264 195.916 85.3667C196.698 83.9957 197.551 82.666 198.47 81.3831C199.939 79.3188 201.654 77.4409 203.577 75.7907C206.108 73.64 208.938 71.868 211.979 70.5303C215.605 68.7862 219.455 67.549 223.419 66.8532C227.986 66.2184 232.6 65.9792 237.208 66.1381C242.289 66.3724 247.343 67.0042 252.325 68.0278C257.708 69.0128 262.949 70.6596 267.928 72.9307C272.93 75.2049 277.541 78.2559 281.59 81.9704C285.3 85.4714 288.521 89.4569 291.166 93.8191C295.552 101.251 298.773 109.312 300.716 117.721C302.082 123.348 303.155 129.041 303.933 134.779C304.214 136.771 304.419 138.328 304.572 139.452L304.725 140.678C304.725 140.958 304.725 141.086 304.725 141.086C304.725 141.086 304.725 140.958 304.725 140.678C304.725 140.397 304.725 139.963 304.495 139.477C304.317 138.354 304.061 136.796 303.729 134.83C303.04 130.795 302.095 124.922 300.282 117.848C298.283 109.518 295.038 101.537 290.655 94.1766C288.034 89.8726 284.838 85.9464 281.155 82.5067C277.169 78.8505 272.626 75.8509 267.698 73.6202C262.811 71.3689 257.665 69.7306 252.376 68.7428C247.436 67.724 242.425 67.0838 237.387 66.8276C232.823 66.6564 228.253 66.87 223.725 67.466C219.81 68.1475 215.999 69.332 212.387 70.99C209.383 72.3015 206.573 74.02 204.037 76.0971C202.136 77.7227 200.423 79.5556 198.93 81.5618C197.704 83.1961 196.861 84.5496 196.376 85.4433L195.738 86.4903C195.253 86.7201 195.176 86.8478 195.15 86.8222Z" fill="#263238"/>
<path d="M100.719 189.426H22.1454C16.4632 189.426 11.0137 191.683 6.99584 195.701C2.97794 199.719 0.720703 205.168 0.720703 210.85V253.189C0.720703 258.871 2.97794 264.321 6.99584 268.338C11.0137 272.356 16.4632 274.614 22.1454 274.614H48.6261C53.3247 282.606 60.2961 294.532 60.2961 294.532L72.2214 274.614H100.719C103.535 274.617 106.324 274.065 108.926 272.99C111.528 271.915 113.893 270.337 115.885 268.348C117.878 266.358 119.458 263.995 120.536 261.394C121.615 258.793 122.17 256.005 122.17 253.189V210.85C122.17 208.035 121.615 205.247 120.536 202.646C119.458 200.045 117.878 197.682 115.885 195.692C113.893 193.702 111.528 192.124 108.926 191.049C106.324 189.974 103.535 189.422 100.719 189.426Z" fill="white"/>
<path d="M100.719 189.425C101.57 189.377 102.422 189.377 103.273 189.425C105.828 189.695 108.312 190.431 110.602 191.596C113.632 193.136 116.258 195.366 118.267 198.107C120.277 200.849 121.613 204.024 122.169 207.377C122.49 210.276 122.601 213.195 122.501 216.11C122.501 222.214 122.501 228.878 122.501 236.258C122.501 239.935 122.501 243.715 122.501 247.647V253.623C122.474 255.737 122.138 257.836 121.505 259.854C120.119 264.216 117.406 268.037 113.743 270.784C110.081 273.531 105.653 275.066 101.077 275.175H72.0423L72.5786 274.869L60.8831 294.787L60.3213 295.732L59.7595 294.761L48.1152 274.945L48.6769 275.252H23.2431C19.7332 275.381 16.2399 274.709 13.0288 273.285C9.90296 271.877 7.14889 269.759 4.98558 267.099C2.82227 264.439 1.30939 261.311 0.567231 257.964C0.202653 256.337 0.0142998 254.677 0.00543696 253.01V248.311C0.00543696 245.119 0.00543696 241.978 0.00543696 238.837V220.503C0.00543696 217.515 0.00543696 214.578 0.00543696 211.667C-0.0586403 208.722 0.444186 205.792 1.48653 203.036C2.97207 199.134 5.54297 195.738 8.89579 193.249C12.2486 190.761 16.2434 189.283 20.4087 188.991C22.9623 188.838 25.5158 188.991 28.0694 188.991H42.2419L84.9891 189.196L96.6079 189.323H99.6467H100.668H99.6467H96.6079L84.9891 189.451L42.2419 189.655H28.1205C25.5669 189.655 23.0133 189.655 20.6129 189.655C18.0744 189.863 15.593 190.521 13.2841 191.596C8.40722 193.911 4.61124 198.018 2.68671 203.062C1.71977 205.692 1.26053 208.482 1.33331 211.284V220.12C1.33331 226.095 1.33331 232.224 1.33331 238.454C1.33331 241.595 1.33331 244.736 1.33331 247.928C1.15011 251.096 1.33003 254.275 1.86956 257.402C2.57983 260.503 3.98567 263.402 5.98085 265.88C8.05214 268.391 10.6733 270.392 13.6416 271.728C16.6531 273.058 19.9276 273.687 23.2176 273.566H49.0089L49.1877 273.873L60.8831 294.199H59.7595C63.8708 287.356 67.9055 280.614 71.7104 274.307L71.8891 274H101.23C105.674 273.923 109.975 272.409 113.487 269.685C116.834 267.073 119.316 263.513 120.612 259.471C121.561 255.589 121.905 251.583 121.633 247.596V236.207C121.633 228.929 121.633 222.163 121.633 216.059C121.759 213.18 121.674 210.295 121.378 207.428C120.869 204.195 119.611 201.126 117.704 198.466C115.798 195.805 113.295 193.628 110.397 192.107C108.16 190.918 105.731 190.132 103.222 189.783C101.741 189.502 100.719 189.502 100.719 189.425Z" fill="#263238"/>
<path d="M73.6523 244.021C73.9189 243.663 74.2181 243.329 74.5461 243.025L77.0997 240.472C79.2958 238.301 82.3601 235.365 85.7819 232.096V232.53C82.3346 229.338 79.2703 226.427 77.0486 224.308L74.495 221.754C74.1811 221.442 73.8988 221.1 73.6523 220.733C74.0454 220.955 74.4063 221.23 74.7248 221.55L77.4317 223.95C79.7299 225.993 82.8453 228.853 86.2926 232.045L86.5225 232.249L86.2926 232.479C82.8708 235.722 79.781 238.633 77.5083 240.727L74.8015 243.281C74.4566 243.582 74.0694 243.832 73.6523 244.021Z" fill="#EF293D"/>
<path d="M73.6504 245.324C73.4851 245.321 73.3223 245.283 73.1726 245.212C73.023 245.142 72.89 245.041 72.7822 244.915C71.965 243.996 72.7821 243.23 73.7014 242.183L76.255 239.629C78.2213 237.689 80.8515 235.135 83.9158 232.301C80.9536 229.568 78.349 227.193 76.255 225.202L73.7014 222.648C72.68 221.601 71.8884 220.809 72.7566 219.865C72.9756 219.627 73.2768 219.481 73.5993 219.456C74.1866 219.456 74.5186 219.686 75.5656 220.58L78.2979 223.006C80.5962 225.048 83.7371 227.908 87.1844 231.1L87.4142 231.33C87.5435 231.446 87.6468 231.588 87.7172 231.746C87.7876 231.905 87.8236 232.076 87.8228 232.25C87.821 232.426 87.784 232.601 87.7138 232.763C87.6437 232.925 87.5418 233.072 87.4142 233.194L87.1844 233.399C83.7115 236.744 80.5962 239.655 78.2979 241.749L75.5911 244.303C74.8506 244.788 74.2377 245.324 73.6504 245.324Z" fill="#EF293D"/>
<path d="M47.1958 220.733C46.9368 221.105 46.6371 221.448 46.3021 221.754L43.7485 224.308C41.5524 226.478 38.4881 229.415 35.0918 232.683V232.249C38.5136 235.441 41.6035 238.352 43.7996 240.472C44.821 241.468 45.6892 242.336 46.3532 243.025C46.6902 243.32 46.9903 243.654 47.2469 244.021C46.8651 243.794 46.5134 243.519 46.1999 243.204L43.4676 240.804C41.1949 238.761 38.054 235.901 34.6322 232.709L34.4023 232.505L34.6322 232.275C38.0284 229.032 41.1438 226.121 43.4165 224.027L46.1233 221.473C46.4548 221.19 46.8141 220.942 47.1958 220.733Z" fill="#EF293D"/>
<path d="M47.2729 245.324C46.6601 245.324 46.0472 244.788 45.3067 244.175L42.5743 241.774C40.2761 239.706 37.1352 236.846 33.7133 233.654L33.458 233.424C33.2147 233.18 33.0781 232.849 33.0781 232.505C33.0781 232.16 33.2147 231.83 33.458 231.586L33.6878 231.356C37.1862 228.036 40.3016 225.099 42.5743 223.005L45.2811 220.452C46.3536 219.533 47.2474 218.741 48.1156 219.686C48.9838 220.631 48.1156 221.422 47.2219 222.444L44.6683 224.997C42.702 226.938 40.0718 229.492 37.0075 232.326C39.9441 235.084 42.5743 237.433 44.515 239.425L47.0686 241.979C48.0645 243 48.8561 243.792 48.0135 244.711C47.9416 244.861 47.8382 244.993 47.7104 245.099C47.5825 245.204 47.4333 245.281 47.2729 245.324Z" fill="#EF293D"/>
<path d="M53.9886 249.537C53.8354 249.537 56.5422 241.646 60.1939 232.07C63.8455 222.494 66.8332 214.757 66.9864 214.834C67.1396 214.91 64.4328 222.699 60.7556 232.275C57.0785 241.851 54.1418 249.588 53.9886 249.537Z" fill="#EF293D"/>
<path d="M54.041 250.916L53.0451 250.533L52.8408 250.048C52.5599 249.486 52.4322 249.205 59.0205 231.637C65.9918 213.072 65.9918 213.072 67.4218 213.634C68.8518 214.196 68.9029 214.196 61.9571 232.735C55.3944 250.303 55.1135 250.431 54.5262 250.61L54.041 250.916Z" fill="#EF293D"/>
</svg>
