<svg width="197" height="290" viewBox="0 0 197 290" fill="none" xmlns="http://www.w3.org/2000/svg">
<g clip-path="url(#clip0_1797_67721)">
<path d="M298.116 144.805C296.534 123.286 288.403 102.792 274.844 86.1435C261.285 69.4956 242.963 57.5122 222.401 51.8428C201.839 46.1733 180.047 47.0964 160.024 54.485C140.001 61.8737 122.732 75.3646 110.593 93.1012C98.4545 110.838 92.0429 131.948 92.2408 153.526C92.4387 175.105 99.2364 196.091 111.698 213.596C124.16 231.101 141.674 244.265 161.829 251.276C181.983 258.287 203.789 258.8 224.243 252.745L223.611 250.554C203.604 256.477 182.275 255.975 162.561 249.118C142.847 242.26 125.716 229.384 113.526 212.261C101.337 195.139 94.6879 174.612 94.4943 153.505C94.3008 132.398 100.572 111.75 112.446 94.401C124.319 77.0523 141.211 63.8563 160.796 56.6292C180.381 49.4021 201.696 48.4991 221.809 54.0447C241.922 59.5902 259.843 71.3115 273.105 87.5955C286.368 103.88 294.321 123.926 295.869 144.975L298.116 144.805Z" fill="white"/>
<path d="M-0.191761 66.8114H1.31519V24.7772C1.31518 21.5823 1.9332 18.4188 3.13395 15.4671C4.33469 12.5155 6.09464 9.83355 8.31333 7.57446C10.532 5.31537 13.166 3.52336 16.0648 2.30074C18.9637 1.07813 22.0707 0.448855 25.2084 0.448853H112.671C115.809 0.448846 118.916 1.07811 121.815 2.30071C124.714 3.52332 127.348 5.31532 129.566 7.57441C131.785 9.83349 133.545 12.5154 134.746 15.4671C135.946 18.4187 136.564 21.5823 136.564 24.7771V255.38C136.564 261.833 134.047 268.021 129.566 272.583C125.085 277.146 119.008 279.709 112.671 279.709H25.2085C18.8716 279.709 12.7943 277.146 8.31343 272.583C3.83257 268.021 1.31523 261.833 1.31521 255.381V96.7322H-0.191761V66.8114Z" fill="#3F3D56"/>
<path d="M24.2445 6.77821H35.6613C35.1363 8.08885 34.9359 9.51084 35.0777 10.9189C35.2196 12.327 35.6993 13.6779 36.4747 14.8528C37.2502 16.0276 38.2974 16.9902 39.5243 17.6558C40.7511 18.3215 42.1199 18.6697 43.5101 18.6698H93.6164C95.0065 18.6697 96.3753 18.3215 97.6022 17.6558C98.8291 16.9902 99.8763 16.0276 100.652 14.8528C101.427 13.6779 101.907 12.327 102.049 10.9189C102.191 9.51083 101.99 8.08884 101.465 6.7782H112.128C116.861 6.7782 121.399 8.69232 124.746 12.0995C128.092 15.5067 129.972 20.1278 129.972 24.9463V255.211C129.972 257.597 129.51 259.96 128.613 262.164C127.717 264.368 126.402 266.371 124.746 268.058C123.089 269.745 121.122 271.083 118.957 271.996C116.792 272.909 114.472 273.379 112.128 273.379H24.2445C21.9013 273.379 19.581 272.909 17.4162 271.996C15.2514 271.083 13.2843 269.745 11.6275 268.058C9.97056 266.371 8.65624 264.368 7.75953 262.164C6.86282 259.96 6.4013 257.597 6.4013 255.211V255.211V24.9463C6.4013 22.5604 6.86282 20.1979 7.75953 17.9937C8.65624 15.7894 9.97056 13.7866 11.6275 12.0995C13.2843 10.4124 15.2514 9.07419 17.4162 8.16116C19.581 7.24813 21.9013 6.77821 24.2445 6.77821Z" fill="white"/>
<path d="M26.4462 269.426H109.927C119.519 269.426 127.323 262.334 127.323 253.616V242.171C127.323 235.223 121.108 229.57 113.469 229.57H22.9041C15.2651 229.57 9.05019 235.223 9.05019 242.171V253.616C9.05019 262.334 16.854 269.426 26.4462 269.426Z" fill="#E5E5E5"/>
<path d="M101.151 77.0597H119.772C120.106 77.0593 120.425 76.9242 120.661 76.6841C120.897 76.4439 121.03 76.1183 121.03 75.7786V56.8181C121.03 56.4784 120.897 56.1528 120.661 55.9127C120.425 55.6725 120.106 55.5374 119.772 55.537H101.151C100.817 55.5374 100.497 55.6725 100.261 55.9127C100.025 56.1528 99.8928 56.4784 99.8924 56.8181V75.7786C99.8928 76.1183 100.025 76.4439 100.261 76.6841C100.497 76.9242 100.817 77.0593 101.151 77.0597V77.0597Z" fill="#EF293D"/>
<path d="M72.967 77.0597H91.5885C91.9221 77.0593 92.2419 76.9242 92.4777 76.6841C92.7136 76.4439 92.8463 76.1183 92.8467 75.7786V56.8181C92.8463 56.4784 92.7136 56.1528 92.4777 55.9127C92.2419 55.6725 91.9221 55.5374 91.5885 55.537H72.967C72.6334 55.5374 72.3136 55.6725 72.0778 55.9127C71.8419 56.1528 71.7092 56.4784 71.7088 56.8181V75.7786C71.7092 76.1183 71.8419 76.4439 72.0778 76.6841C72.3136 76.9242 72.6334 77.0593 72.967 77.0597V77.0597Z" fill="#E5E5E5"/>
<path d="M44.7824 77.0597H63.4039C63.7375 77.0593 64.0573 76.9242 64.2932 76.6841C64.529 76.4439 64.6617 76.1183 64.6621 75.7786V56.8181C64.6617 56.4784 64.529 56.1528 64.2932 55.9127C64.0573 55.6725 63.7375 55.5374 63.4039 55.537H44.7824C44.4489 55.5374 44.1291 55.6725 43.8932 55.9127C43.6573 56.1528 43.5246 56.4784 43.5242 56.8181V75.7786C43.5246 76.1183 43.6573 76.4439 43.8932 76.6841C44.1291 76.9242 44.4489 77.0593 44.7824 77.0597V77.0597Z" fill="#E5E5E5"/>
<path d="M16.5989 77.0597H35.2203C35.5539 77.0593 35.8737 76.9242 36.1096 76.6841C36.3454 76.4439 36.4781 76.1183 36.4785 75.7786V56.8181C36.4781 56.4784 36.3454 56.1528 36.1096 55.9127C35.8737 55.6725 35.5539 55.5374 35.2203 55.537H16.5989C16.2653 55.5374 15.9455 55.6725 15.7096 55.9127C15.4738 56.1528 15.3411 56.4784 15.3407 56.8181V75.7786C15.3411 76.1183 15.4738 76.4439 15.7096 76.6841C15.9455 76.9242 16.2653 77.0593 16.5989 77.0597V77.0597Z" fill="#E5E5E5"/>
<path d="M101.218 112.162H119.839C120.173 112.162 120.493 112.027 120.729 111.786C120.965 111.546 121.097 111.221 121.098 110.881V91.9205C121.097 91.5809 120.965 91.2552 120.729 91.0151C120.493 90.7749 120.173 90.6398 119.839 90.6394H101.218C100.884 90.6398 100.565 90.7749 100.329 91.0151C100.093 91.2552 99.9602 91.5809 99.9598 91.9205V110.881C99.9602 111.221 100.093 111.546 100.329 111.786C100.565 112.027 100.884 112.162 101.218 112.162Z" fill="#E5E5E5"/>
<path d="M73.0334 112.162H91.6549C91.9885 112.162 92.3083 112.027 92.5441 111.786C92.78 111.546 92.9127 111.221 92.9131 110.881V91.9205C92.9127 91.5809 92.78 91.2552 92.5441 91.0151C92.3083 90.7749 91.9885 90.6398 91.6549 90.6394H73.0334C72.6998 90.6398 72.38 90.7749 72.1442 91.0151C71.9083 91.2552 71.7756 91.5809 71.7752 91.9205V110.881C71.7756 111.221 71.9083 111.546 72.1442 111.786C72.38 112.027 72.6998 112.162 73.0334 112.162V112.162Z" fill="#E5E5E5"/>
<path d="M44.8489 112.162H63.4703C63.8039 112.162 64.1237 112.027 64.3596 111.786C64.5954 111.546 64.7281 111.221 64.7285 110.881V91.9205C64.7281 91.5809 64.5954 91.2552 64.3596 91.0151C64.1237 90.7749 63.8039 90.6398 63.4703 90.6394H44.8489C44.5153 90.6398 44.1955 90.7749 43.9596 91.0151C43.7237 91.2552 43.591 91.5809 43.5906 91.9205V110.881C43.591 111.221 43.7237 111.546 43.9596 111.786C44.1955 112.027 44.5153 112.162 44.8489 112.162V112.162Z" fill="#EF293D"/>
<path d="M16.6663 112.162H35.2877C35.6213 112.162 35.9411 112.027 36.1769 111.786C36.4128 111.546 36.5455 111.221 36.5459 110.881V91.9205C36.5455 91.5809 36.4128 91.2552 36.1769 91.0151C35.9411 90.7749 35.6213 90.6398 35.2877 90.6394H16.6663C16.3327 90.6398 16.0129 90.7749 15.777 91.0151C15.5411 91.2552 15.4085 91.5809 15.4081 91.9205V110.881C15.4085 111.221 15.5411 111.546 15.777 111.786C16.0129 112.027 16.3327 112.162 16.6663 112.162V112.162Z" fill="#EF293D"/>
<path d="M101.284 147.265H119.906C120.239 147.264 120.559 147.129 120.795 146.889C121.031 146.649 121.164 146.323 121.164 145.984V127.023C121.164 126.684 121.031 126.358 120.795 126.118C120.559 125.878 120.239 125.742 119.906 125.742H101.284C100.951 125.742 100.631 125.878 100.395 126.118C100.159 126.358 100.027 126.684 100.026 127.023V145.984C100.027 146.323 100.159 146.649 100.395 146.889C100.631 147.129 100.951 147.264 101.284 147.265V147.265Z" fill="#E5E5E5"/>
<path d="M73.0998 147.265H91.7213C92.0549 147.264 92.3747 147.129 92.6105 146.889C92.8464 146.649 92.9791 146.323 92.9795 145.984V127.023C92.9791 126.684 92.8464 126.358 92.6105 126.118C92.3747 125.878 92.0549 125.742 91.7213 125.742H73.0998C72.7662 125.742 72.4465 125.878 72.2106 126.118C71.9747 126.358 71.842 126.684 71.8416 127.023V145.984C71.842 146.323 71.9747 146.649 72.2106 146.889C72.4465 147.129 72.7662 147.264 73.0998 147.265V147.265Z" fill="#E5E5E5"/>
<path d="M44.9163 147.265H63.5377C63.8713 147.264 64.1911 147.129 64.427 146.889C64.6628 146.649 64.7955 146.323 64.7959 145.984V127.023C64.7955 126.684 64.6628 126.358 64.427 126.118C64.1911 125.878 63.8713 125.742 63.5377 125.742H44.9162C44.5827 125.742 44.2629 125.878 44.027 126.118C43.7911 126.358 43.6584 126.684 43.658 127.023V145.984C43.6584 146.323 43.7911 146.649 44.027 146.889C44.2629 147.129 44.5827 147.264 44.9163 147.265V147.265Z" fill="#E5E5E5"/>
<path d="M16.7327 147.265H35.3541C35.6877 147.264 36.0075 147.129 36.2433 146.889C36.4792 146.649 36.6119 146.323 36.6123 145.984V127.023C36.6119 126.684 36.4792 126.358 36.2433 126.118C36.0075 125.878 35.6877 125.742 35.3541 125.742H16.7327C16.3991 125.742 16.0793 125.878 15.8434 126.118C15.6075 126.358 15.4749 126.684 15.4745 127.023V145.984C15.4749 146.323 15.6075 146.649 15.8434 146.889C16.0793 147.129 16.3991 147.264 16.7327 147.265V147.265Z" fill="#E5E5E5"/>
<path d="M101.35 182.367H119.971C120.305 182.367 120.625 182.232 120.861 181.992C121.096 181.751 121.229 181.426 121.229 181.086V162.126C121.229 161.786 121.096 161.46 120.861 161.22C120.625 160.98 120.305 160.845 119.971 160.845H101.35C101.016 160.845 100.696 160.98 100.461 161.22C100.225 161.46 100.092 161.786 100.092 162.126V181.086C100.092 181.426 100.225 181.751 100.461 181.992C100.696 182.232 101.016 182.367 101.35 182.367V182.367Z" fill="#E5E5E5"/>
<path d="M73.1662 182.367H91.7877C92.1213 182.367 92.4411 182.232 92.677 181.992C92.9128 181.751 93.0455 181.426 93.0459 181.086V162.126C93.0455 161.786 92.9128 161.46 92.677 161.22C92.4411 160.98 92.1213 160.845 91.7877 160.845H73.1662C72.8327 160.845 72.5129 160.98 72.277 161.22C72.0411 161.46 71.9084 161.786 71.908 162.126V181.086C71.9084 181.426 72.0411 181.751 72.277 181.992C72.5129 182.232 72.8327 182.367 73.1662 182.367Z" fill="#E5E5E5"/>
<path d="M44.9836 182.367H63.6051C63.9386 182.367 64.2584 182.232 64.4943 181.992C64.7302 181.751 64.8629 181.426 64.8633 181.086V162.126C64.8629 161.786 64.7302 161.46 64.4943 161.22C64.2584 160.98 63.9386 160.845 63.6051 160.845H44.9836C44.65 160.845 44.3302 160.98 44.0944 161.22C43.8585 161.46 43.7258 161.786 43.7254 162.126V181.086C43.7258 181.426 43.8585 181.751 44.0943 181.992C44.3302 182.232 44.65 182.367 44.9836 182.367Z" fill="#E5E5E5"/>
<path d="M16.8 182.367H35.4215C35.7551 182.367 36.0748 182.232 36.3107 181.992C36.5466 181.751 36.6793 181.426 36.6797 181.086V162.126C36.6793 161.786 36.5466 161.46 36.3107 161.22C36.0748 160.98 35.755 160.845 35.4215 160.845H16.8C16.4664 160.845 16.1466 160.98 15.9108 161.22C15.6749 161.46 15.5422 161.786 15.5418 162.126V181.086C15.5422 181.426 15.6749 181.751 15.9108 181.992C16.1466 182.232 16.4664 182.367 16.8 182.367V182.367Z" fill="#E5E5E5"/>
<path d="M101.151 260.772H119.772C120.106 260.771 120.425 260.636 120.661 260.396C120.897 260.156 121.03 259.83 121.03 259.491V240.53C121.03 240.19 120.897 239.865 120.661 239.625C120.425 239.385 120.106 239.249 119.772 239.249H101.151C100.817 239.249 100.497 239.385 100.261 239.625C100.025 239.865 99.8928 240.19 99.8924 240.53V259.491C99.8928 259.83 100.025 260.156 100.261 260.396C100.497 260.636 100.817 260.771 101.151 260.772Z" fill="white"/>
<path d="M72.967 260.772H91.5885C91.9221 260.771 92.2419 260.636 92.4777 260.396C92.7136 260.156 92.8463 259.83 92.8467 259.491V240.53C92.8463 240.19 92.7136 239.865 92.4777 239.625C92.2419 239.385 91.9221 239.249 91.5885 239.249H72.967C72.6334 239.249 72.3136 239.385 72.0778 239.625C71.8419 239.865 71.7092 240.19 71.7088 240.53V259.491C71.7092 259.83 71.8419 260.156 72.0778 260.396C72.3136 260.636 72.6334 260.771 72.967 260.772V260.772Z" fill="white"/>
<path d="M44.7824 260.772H63.4039C63.7375 260.771 64.0573 260.636 64.2932 260.396C64.529 260.156 64.6617 259.83 64.6621 259.491V240.53C64.6617 240.19 64.529 239.865 64.2932 239.625C64.0573 239.385 63.7375 239.249 63.4039 239.249H44.7824C44.4489 239.249 44.1291 239.385 43.8932 239.625C43.6573 239.865 43.5246 240.19 43.5242 240.53V259.491C43.5246 259.83 43.6573 260.156 43.8932 260.396C44.1291 260.636 44.4489 260.771 44.7824 260.772V260.772Z" fill="white"/>
<path d="M16.5989 260.772H35.2203C35.5539 260.771 35.8737 260.636 36.1096 260.396C36.3454 260.156 36.4781 259.83 36.4785 259.491V240.53C36.4781 240.19 36.3454 239.865 36.1096 239.625C35.8737 239.385 35.5539 239.249 35.2203 239.249H16.5989C16.2653 239.249 15.9455 239.385 15.7096 239.625C15.4738 239.865 15.3411 240.19 15.3407 240.53V259.491C15.3411 259.83 15.4738 260.156 15.7096 260.396C15.9455 260.636 16.2653 260.771 16.5989 260.772Z" fill="white"/>
<path d="M77.3117 220.801C75.922 220.801 74.7953 219.654 74.7953 218.239C74.7953 216.824 75.922 215.676 77.3117 215.676C78.7015 215.676 79.8281 216.824 79.8281 218.239C79.8281 219.654 78.7015 220.801 77.3117 220.801Z" fill="#E5E5E5"/>
<path d="M68.2521 220.801C66.8624 220.801 65.7357 219.654 65.7357 218.239C65.7357 216.824 66.8624 215.676 68.2521 215.676C69.6419 215.676 70.7686 216.824 70.7686 218.239C70.7686 219.654 69.6419 220.801 68.2521 220.801Z" fill="#E5E5E5"/>
<path d="M59.1926 220.801C57.8028 220.801 56.6761 219.654 56.6761 218.239C56.6761 216.824 57.8028 215.676 59.1926 215.676C60.5824 215.676 61.709 216.824 61.709 218.239C61.709 219.654 60.5824 220.801 59.1926 220.801Z" fill="#E5E5E5"/>
<path d="M102.964 201.903C102.437 201.367 102.032 200.721 101.778 200.008C101.524 199.296 101.426 198.536 101.491 197.781C101.557 197.026 101.784 196.295 102.157 195.639C102.53 194.983 103.04 194.419 103.65 193.985L98.7358 176.255L107.696 179.157L110.989 195.548C111.636 196.641 111.867 197.937 111.639 199.192C111.41 200.446 110.737 201.572 109.748 202.355C108.759 203.138 107.522 203.525 106.272 203.442C105.021 203.359 103.844 202.811 102.964 201.903V201.903Z" fill="#FFB7B7"/>
<path d="M100.417 191.036C100.577 191.067 100.74 191.081 100.903 191.078L109.498 190.902C109.821 190.896 110.14 190.819 110.432 190.677C110.724 190.536 110.983 190.332 111.192 190.081C111.401 189.829 111.555 189.535 111.643 189.219C111.732 188.902 111.753 188.569 111.706 188.243L102.987 128.26C102.726 126.525 101.865 124.942 100.559 123.797C99.2526 122.652 97.5872 122.02 95.8635 122.016C94.7751 122.019 93.7015 122.274 92.7239 122.761C91.7462 123.248 90.8901 123.955 90.2201 124.828C89.5501 125.701 89.0837 126.718 88.8562 127.802C88.6287 128.886 88.646 130.008 88.9069 131.084L95.0872 156.571L98.5921 189.012C98.643 189.504 98.8478 189.966 99.1764 190.331C99.5049 190.695 99.9398 190.942 100.417 191.036V191.036Z" fill="#3F3D56"/>
<path d="M96.8215 285.728H92.0381L89.7623 266.942L96.8223 266.942L96.8215 285.728Z" fill="#FFB7B7"/>
<path d="M98.041 284.138L88.621 284.137H88.6206C87.0285 284.137 85.5016 284.781 84.3758 285.928C83.25 287.074 82.6175 288.629 82.6173 290.25V290.448L98.0407 290.449L98.041 284.138Z" fill="#2F2E41"/>
<path d="M76.4248 284.146L71.6715 284.688L67.3535 266.278L74.3694 265.477L76.4248 284.146Z" fill="#FFB7B7"/>
<path d="M77.4638 282.427L68.1023 283.496L68.1019 283.496C66.5197 283.677 65.0729 284.49 64.0796 285.757C63.0863 287.024 62.6279 288.641 62.8052 290.252L62.8269 290.449L78.1543 288.699L77.4638 282.427Z" fill="#2F2E41"/>
<path d="M101.312 181.187C101.312 181.187 107.87 195.969 102.079 205.57L98.6286 280.323H90.7071L83.0221 219.938L69.3664 237.815L77.6861 279.539L67.9978 280.093L54.5403 237.815C54.5403 237.815 64.8787 191.197 68.2931 190.074L70.5369 179.417L101.312 181.187Z" fill="#2F2E41"/>
<path d="M104.229 194.165C104.229 194.165 110.137 201.068 94.5306 203.452C78.9242 205.835 62.5374 202.26 62.1472 197.493C61.7571 192.726 104.229 194.165 104.229 194.165Z" fill="#CBCBCB"/>
<path d="M25.9962 108.526C26.0204 109.2 26.1894 109.86 26.4913 110.461C26.7933 111.061 27.2208 111.586 27.7437 112C28.2667 112.414 28.8724 112.706 29.5182 112.856C30.1639 113.005 30.8341 113.009 31.4814 112.866L37.3806 121.529L43.4248 119.162L34.9252 107.049C34.6179 105.957 33.9281 105.019 32.9864 104.411C32.0448 103.802 30.9168 103.567 29.8162 103.749C28.7156 103.931 27.7188 104.518 27.0148 105.399C26.3107 106.279 25.9483 107.392 25.9962 108.526V108.526Z" fill="#FFB7B7"/>
<path d="M75.8871 119.671L84.2278 115.829L94.9142 116.607C94.9142 116.607 107.797 131.944 102.725 146.643L105.847 197.89C85.9484 203.452 76.9033 193.02 62.5387 197.493L66.9756 140.537L75.8871 119.671Z" fill="#3F3D56"/>
<path d="M81.4609 123.403L75.8865 119.671C75.8865 119.671 68.1432 118.479 65.048 121.537C65.048 121.537 54.5423 122.432 52.005 125.102L49.2113 125.744L39.9306 113.507L34.2514 116.649L42.4448 139.293L66.975 140.537L81.4609 123.403Z" fill="#3F3D56"/>
<path d="M79.5368 111.519C73.1566 107.968 70.8117 99.8228 74.2995 93.3264C77.7873 86.8299 85.7869 84.4424 92.1672 87.9937C98.5475 91.5449 100.892 99.6902 97.4046 106.187C93.9168 112.683 85.9171 115.071 79.5368 111.519Z" fill="#FFB7B7"/>
<path d="M97.2402 89.2757C94.8901 84.9719 91.9533 82.1851 87.1181 82.2857C82.2829 82.3863 78.1003 82.1917 75.9248 86.5896C75.3498 85.4935 75.0619 84.2649 75.0887 83.0225C74.4318 83.4568 73.9141 84.0773 73.5993 84.8075C73.2846 85.5378 73.1867 86.3459 73.3177 87.1321C72.8945 86.8798 72.5403 86.5233 72.2876 86.0954C72.0348 85.6675 71.8916 85.1818 71.871 84.6829C70.2573 85.2297 69.8377 87.5453 70.6543 89.0643C71.4708 90.5833 73.0722 91.4617 74.6086 92.2043C76.145 92.9469 75.4357 96.8742 76.439 98.2725C77.1392 99.2483 77.4595 100.444 77.9313 101.553C77.9511 101.597 77.9847 101.633 78.0268 101.655C79.1087 102.269 79.7915 103.366 79.6005 104.613C79.5779 104.706 79.5832 104.804 79.6159 104.894C80.9854 107.522 82.4638 110.27 84.9462 111.838C86.9381 113.063 89.3241 113.438 91.5862 112.883C94.1237 112.265 96.3173 110.552 97.8991 108.44C99.4808 106.327 100.498 103.83 101.263 101.291C101.941 99.0376 102.434 96.6286 101.897 94.3366C101.359 92.0446 99.5372 89.9222 97.2294 89.7451" fill="#2F2E41"/>
</g>
<defs>
<clipPath id="clip0_1797_67721">
<rect width="197" height="290" fill="white" transform="matrix(-1 0 0 1 197 0)"/>
</clipPath>
</defs>
</svg>
