<svg width="644" height="537" viewBox="0 0 644 537" fill="none" xmlns="http://www.w3.org/2000/svg">
<g clip-path="url(#clip0_3078_42838)">
<path d="M439.958 -7.42322e-05L0 260.406L13.2314 282.71L453.189 22.3038L439.958 -7.42322e-05Z" fill="#F2F2F2"/>
<path d="M535.581 21.8318L95.623 282.238L108.854 304.542L548.812 44.1357L535.581 21.8318Z" fill="#F2F2F2"/>
<path d="M620.276 45.7109L180.318 306.117L193.55 328.421L633.508 68.0148L620.276 45.7109Z" fill="#F2F2F2"/>
<path d="M286.568 305.259C362.643 305.259 424.314 243.658 424.314 167.67C424.314 91.681 362.643 30.0801 286.568 30.0801C210.493 30.0801 148.822 91.681 148.822 167.67C148.822 243.658 210.493 305.259 286.568 305.259Z" fill="white"/>
<path d="M147.797 167.67C147.797 91.2382 210.049 29.0566 286.567 29.0566C363.085 29.0566 425.337 91.2382 425.337 167.67C425.337 244.101 363.085 306.282 286.567 306.282C210.049 306.282 147.797 244.101 147.797 167.67ZM149.846 167.67C149.846 242.972 211.179 304.236 286.567 304.236C361.955 304.236 423.288 242.972 423.288 167.67C423.288 92.3669 361.955 31.1034 286.567 31.1034C211.179 31.1034 149.846 92.3669 149.846 167.67H149.846Z" fill="#3F3D56"/>
<path d="M262.014 168.268C262.014 163.417 263.454 158.675 266.152 154.642C268.85 150.608 272.685 147.465 277.172 145.608C281.658 143.752 286.596 143.266 291.359 144.212C296.122 145.159 300.497 147.495 303.931 150.925C307.365 154.355 309.704 158.725 310.651 163.483C311.599 168.241 311.112 173.172 309.254 177.654C307.395 182.136 304.248 185.966 300.21 188.661C296.172 191.356 291.425 192.795 286.568 192.795C280.056 192.795 273.81 190.211 269.206 185.611C264.601 181.011 262.014 174.773 262.014 168.268V168.268ZM286.568 144.938C280.376 144.945 274.439 147.405 270.06 151.779C265.681 156.152 263.218 162.083 263.211 168.268C263.211 172.882 264.581 177.393 267.148 181.23C269.714 185.066 273.362 188.057 277.63 189.823C281.898 191.588 286.594 192.05 291.125 191.15C295.656 190.25 299.818 188.028 303.084 184.765C306.351 181.502 308.575 177.345 309.476 172.82C310.378 168.294 309.915 163.603 308.147 159.34C306.379 155.077 303.386 151.433 299.545 148.87C295.704 146.306 291.188 144.938 286.568 144.938Z" fill="#3F3D56"/>
<path d="M239.854 168.268C239.854 159.04 242.593 150.018 247.726 142.345C252.859 134.672 260.155 128.691 268.691 125.159C277.227 121.628 286.619 120.704 295.681 122.504C304.742 124.304 313.066 128.748 319.599 135.274C326.132 141.8 330.581 150.114 332.383 159.165C334.186 168.217 333.261 177.598 329.725 186.125C326.189 194.651 320.202 201.938 312.52 207.065C304.838 212.192 295.806 214.929 286.567 214.929C280.433 214.929 274.358 213.722 268.691 211.377C263.023 209.032 257.873 205.595 253.536 201.262C249.198 196.93 245.757 191.786 243.409 186.125C241.062 180.463 239.854 174.396 239.854 168.268V168.268ZM286.567 122.804C277.565 122.804 268.765 125.47 261.28 130.466C253.795 135.462 247.961 142.562 244.516 150.87C241.071 159.177 240.17 168.319 241.926 177.138C243.682 185.957 248.017 194.058 254.383 200.416C260.748 206.775 268.858 211.105 277.687 212.859C286.517 214.613 295.668 213.713 303.985 210.272C312.302 206.831 319.411 201.003 324.412 193.527C329.414 186.05 332.083 177.26 332.083 168.268C332.07 156.215 327.27 144.658 318.737 136.135C310.204 127.612 298.635 122.817 286.567 122.804Z" fill="#CCCCCC"/>
<path d="M195.535 168.268C195.535 150.284 200.874 132.704 210.877 117.75C220.88 102.797 235.097 91.1426 251.731 84.2604C268.365 77.3783 286.668 75.5776 304.327 79.0861C321.985 82.5946 338.205 91.2547 350.936 103.971C363.667 116.688 372.337 132.89 375.85 150.528C379.362 168.167 377.56 186.45 370.67 203.065C363.78 219.68 352.112 233.881 337.142 243.872C322.172 253.864 304.572 259.197 286.567 259.197C262.432 259.169 239.294 249.581 222.228 232.534C205.162 215.487 195.562 192.375 195.535 168.268ZM286.567 78.5354C268.8 78.5354 251.431 83.7981 236.658 93.658C221.885 103.518 210.371 117.532 203.571 133.929C196.772 150.325 194.993 168.367 198.459 185.774C201.925 203.18 210.481 219.169 223.045 231.718C235.608 244.267 251.615 252.814 269.041 256.276C286.467 259.738 304.53 257.961 320.945 251.17C337.36 244.378 351.39 232.877 361.261 218.12C371.133 203.364 376.401 186.015 376.401 168.268C376.374 144.478 366.901 121.669 350.06 104.847C333.218 88.0249 310.384 78.5623 286.567 78.5354Z" fill="#CCCCCC"/>
<path d="M286.568 179.036C292.853 179.036 297.947 173.947 297.947 167.67C297.947 161.392 292.853 156.304 286.568 156.304C280.284 156.304 275.189 161.392 275.189 167.67C275.189 173.947 280.284 179.036 286.568 179.036Z" fill="#EF293D"/>
<path d="M257.223 211.937C263.507 211.937 268.602 206.848 268.602 200.571C268.602 194.294 263.507 189.205 257.223 189.205C250.938 189.205 245.844 194.294 245.844 200.571C245.844 206.848 250.938 211.937 257.223 211.937Z" fill="#EF293D"/>
<path d="M371.709 207.152C377.993 207.152 383.088 202.063 383.088 195.786C383.088 189.509 377.993 184.42 371.709 184.42C365.425 184.42 360.33 189.509 360.33 195.786C360.33 202.063 365.425 207.152 371.709 207.152Z" fill="#EF293D"/>
<path d="M286.568 173.054C289.545 173.054 291.958 170.644 291.958 167.67C291.958 164.697 289.545 162.286 286.568 162.286C283.591 162.286 281.178 164.697 281.178 167.67C281.178 170.644 283.591 173.054 286.568 173.054Z" fill="#2F2E41"/>
<path d="M371.71 201.17C374.687 201.17 377.1 198.76 377.1 195.786C377.1 192.813 374.687 190.402 371.71 190.402C368.734 190.402 366.32 192.813 366.32 195.786C366.32 198.76 368.734 201.17 371.71 201.17Z" fill="#2F2E41"/>
<path d="M257.222 206.554C260.199 206.554 262.612 204.144 262.612 201.17C262.612 198.197 260.199 195.786 257.222 195.786C254.245 195.786 251.832 198.197 251.832 201.17C251.832 204.144 254.245 206.554 257.222 206.554Z" fill="#2F2E41"/>
<path d="M35.0326 112.634C38.0095 112.634 40.4227 110.224 40.4227 107.25C40.4227 104.277 38.0095 101.866 35.0326 101.866C32.0558 101.866 29.6426 104.277 29.6426 107.25C29.6426 110.224 32.0558 112.634 35.0326 112.634Z" fill="#EF293D"/>
<path d="M286.268 107.549H49.7051V106.353H287.467V167.968H286.268V107.549Z" fill="#2F2E41"/>
<path d="M19.4609 107.25C19.4609 104.174 20.3742 101.167 22.0852 98.6088C23.7961 96.051 26.228 94.0575 29.0733 92.8803C31.9186 91.703 35.0495 91.395 38.07 91.9951C41.0905 92.5953 43.865 94.0766 46.0427 96.2518C48.2204 98.427 49.7034 101.198 50.3043 104.216C50.9051 107.233 50.5967 110.36 49.4182 113.202C48.2396 116.044 46.2438 118.473 43.6831 120.182C41.1224 121.891 38.1119 122.804 35.0322 122.804C32.9874 122.804 30.9625 122.401 29.0733 121.62C27.1841 120.838 25.4676 119.692 24.0217 118.248C22.5757 116.804 21.4288 115.089 20.6462 113.202C19.8637 111.315 19.4609 109.292 19.4609 107.25ZM35.0322 92.8928C32.1894 92.8928 29.4104 93.7348 27.0467 95.3124C24.683 96.89 22.8407 99.1322 21.7529 101.756C20.665 104.379 20.3803 107.266 20.9349 110.051C21.4895 112.836 22.8585 115.394 24.8686 117.402C26.8788 119.41 29.4399 120.777 32.2281 121.331C35.0162 121.885 37.9063 121.601 40.5327 120.514C43.1591 119.428 45.4039 117.587 46.9833 115.226C48.5627 112.865 49.4056 110.09 49.4056 107.25C49.4013 103.444 47.8856 99.7942 45.191 97.1027C42.4964 94.4112 38.843 92.8971 35.0322 92.8928Z" fill="#2F2E41"/>
<path d="M70.9662 267.572C73.9431 267.572 76.3563 265.161 76.3563 262.188C76.3563 259.214 73.9431 256.804 70.9662 256.804C67.9894 256.804 65.5762 259.214 65.5762 262.188C65.5762 265.161 67.9894 267.572 70.9662 267.572Z" fill="#EF293D"/>
<path d="M55.3945 262.187C55.3945 259.111 56.3078 256.104 58.0188 253.546C59.7297 250.988 62.1616 248.995 65.0069 247.818C67.8522 246.641 70.9831 246.333 74.0036 246.933C77.0241 247.533 79.7986 249.014 81.9763 251.189C84.154 253.365 85.637 256.136 86.2378 259.153C86.8386 262.17 86.5303 265.297 85.3517 268.139C84.1732 270.982 82.1774 273.411 79.6167 275.12C77.056 276.829 74.0455 277.741 70.9658 277.741C66.836 277.741 62.8754 276.102 59.9553 273.185C57.0351 270.269 55.3945 266.312 55.3945 262.187ZM70.9658 247.83C68.123 247.83 65.344 248.672 62.9803 250.25C60.6166 251.827 58.7743 254.07 57.6864 256.693C56.5985 259.317 56.3139 262.203 56.8685 264.988C57.4231 267.773 58.792 270.332 60.8022 272.339C62.8123 274.347 65.3734 275.715 68.1616 276.269C70.9498 276.823 73.8398 276.538 76.4662 275.452C79.0926 274.365 81.3375 272.525 82.9168 270.164C84.4962 267.803 85.3392 265.027 85.3392 262.187C85.3349 258.381 83.8191 254.732 81.1245 252.04C78.4299 249.349 74.7765 247.835 70.9658 247.83Z" fill="#2F2E41"/>
<path d="M538.8 137.759C541.777 137.759 544.19 135.349 544.19 132.375C544.19 129.402 541.777 126.991 538.8 126.991C535.823 126.991 533.41 129.402 533.41 132.375C533.41 135.349 535.823 137.759 538.8 137.759Z" fill="#EF293D"/>
<path d="M523.23 132.375C523.23 129.299 524.144 126.292 525.855 123.734C527.566 121.176 529.998 119.182 532.843 118.005C535.688 116.828 538.819 116.52 541.84 117.12C544.86 117.72 547.635 119.202 549.812 121.377C551.99 123.552 553.473 126.323 554.074 129.341C554.675 132.358 554.366 135.485 553.188 138.327C552.009 141.169 550.013 143.598 547.453 145.307C544.892 147.016 541.881 147.929 538.802 147.929C536.757 147.929 534.732 147.526 532.843 146.745C530.954 145.963 529.237 144.817 527.791 143.373C526.345 141.929 525.198 140.214 524.416 138.327C523.633 136.44 523.23 134.417 523.23 132.375ZM538.802 118.018C534.991 118.022 531.338 119.536 528.643 122.228C525.948 124.919 524.433 128.568 524.428 132.375C524.428 135.214 525.271 137.99 526.851 140.351C528.43 142.712 530.675 144.553 533.301 145.639C535.928 146.726 538.818 147.01 541.606 146.456C544.394 145.902 546.955 144.535 548.965 142.527C550.976 140.519 552.344 137.961 552.899 135.176C553.454 132.391 553.169 129.504 552.081 126.881C550.993 124.257 549.151 122.015 546.787 120.437C544.424 118.86 541.645 118.018 538.802 118.018V118.018Z" fill="#2F2E41"/>
<path d="M371.109 134.179L523.818 131.777L523.837 132.973L372.307 135.357V195.786H371.109V134.179Z" fill="#2F2E41"/>
<path d="M85.9375 261.59H256.622V201.17H257.82V262.785H85.9375V261.59Z" fill="#2F2E41"/>
<path d="M67.9721 135.366H2.09375V139.554H67.9721V135.366Z" fill="#CCCCCC"/>
<path d="M67.9721 147.33H2.09375V151.518H67.9721V147.33Z" fill="#CCCCCC"/>
<path d="M67.9721 159.295H2.09375V163.482H67.9721V159.295Z" fill="#CCCCCC"/>
<path d="M103.906 290.304H38.0273V294.491H103.906V290.304Z" fill="#CCCCCC"/>
<path d="M103.906 302.269H38.0273V306.456H103.906V302.269Z" fill="#CCCCCC"/>
<path d="M103.906 314.232H38.0273V318.42H103.906V314.232Z" fill="#CCCCCC"/>
<path d="M571.74 161.089H505.861V165.276H571.74V161.089Z" fill="#CCCCCC"/>
<path d="M571.74 173.054H505.861V177.241H571.74V173.054Z" fill="#CCCCCC"/>
<path d="M571.74 185.018H505.861V189.205H571.74V185.018Z" fill="#CCCCCC"/>
<path d="M603.101 517.867L593.733 521.212L576.359 486.707L590.187 481.771L603.101 517.867Z" fill="#FFB8B8"/>
<path d="M578.527 536.87L578.39 536.488C577.28 533.373 577.452 529.945 578.868 526.956C580.285 523.968 582.831 521.662 585.947 520.546L604.397 513.959L608.736 526.086L578.527 536.87Z" fill="#2F2E41"/>
<path d="M542.178 527.124L532.229 527.123L527.496 488.791L542.18 488.792L542.178 527.124Z" fill="#FFB8B8"/>
<path d="M544.717 536.757L512.637 536.755V536.35C512.637 534.712 512.96 533.09 513.587 531.577C514.215 530.064 515.135 528.689 516.294 527.531C517.454 526.373 518.83 525.454 520.345 524.827C521.86 524.2 523.484 523.878 525.124 523.878H525.124L544.718 523.879L544.717 536.757Z" fill="#2F2E41"/>
<path d="M564.853 282.231L560.526 273.69C560.526 273.69 544.407 277.724 542.941 287.056L564.853 282.231Z" fill="#EF293D"/>
<path d="M582.707 379.88L570.939 445.469L602.183 500.661L583.518 507.956L551.868 454.456L547.811 439.865L545.376 516.063L528.543 515.552L520.824 444.402L533.203 378.259L582.707 379.88Z" fill="#2F2E41"/>
<path d="M526.506 391.713C526.141 390.089 525.094 340.504 525.094 340.504C525.094 340.504 542.4 283.754 542.558 283.288L542.62 283.106L555.759 278.185C555.944 278.101 560.321 276.153 563.904 277.777C564.822 278.223 565.632 278.865 566.277 279.657C566.922 280.448 567.386 281.371 567.637 282.36C569.128 283.469 579.867 295.486 579.867 311.785L580.273 350.248L589.277 391.946L588.879 392.031C588.633 392.083 577.657 395.386 560.371 395.386C550.766 395.386 526.506 391.713 526.506 391.713Z" fill="#3F3D56"/>
<path d="M547.087 271.001C556.895 271.001 564.845 263.06 564.845 253.263C564.845 243.466 556.895 235.524 547.087 235.524C537.279 235.524 529.328 243.466 529.328 253.263C529.328 263.06 537.279 271.001 547.087 271.001Z" fill="#FFB8B8"/>
<path opacity="0.2" d="M572.387 331.411L541.319 374.711L536.73 354.49L572.387 331.411Z" fill="black"/>
<path d="M517.246 375.644C518.359 375.599 519.449 375.312 520.439 374.801C521.429 374.291 522.295 373.57 522.976 372.689C523.657 371.808 524.136 370.789 524.38 369.703C524.624 368.617 524.626 367.491 524.387 366.404L547.472 352.26L534.725 346.303L514.757 360.648C512.956 361.17 511.409 362.334 510.409 363.919C509.41 365.505 509.027 367.401 509.334 369.25C509.64 371.098 510.615 372.77 512.074 373.948C513.532 375.127 515.372 375.73 517.246 375.644Z" fill="#FFB8B8"/>
<path d="M533.204 346.646L525.297 352.18L532.003 364.074L541.319 356.373L533.204 346.646Z" fill="#EF293D"/>
<path d="M529.064 346.995L547.662 325.462L540.537 295.762C539.8 292.693 540.207 289.461 541.682 286.669C543.156 283.878 545.598 281.718 548.55 280.592C551.502 279.467 554.763 279.453 557.725 280.554C560.686 281.655 563.145 283.794 564.643 286.573L564.805 286.874L571.371 330.978L538.379 364.757L529.064 346.995Z" fill="#3F3D56"/>
<path d="M562.214 268.664L547.474 269.192C546.576 269.224 544.137 259.539 543.818 257.53C543.566 256.222 542.845 255.05 541.792 254.234C540.738 253.417 539.422 253.012 538.091 253.094C536.988 253.198 534.205 251.139 531.334 248.701C525.884 244.072 526.167 235.378 532.155 231.467C532.319 231.36 532.479 231.263 532.637 231.174C536.414 229.062 540.833 228.353 545.161 228.299C549.085 228.25 553.12 228.743 556.577 230.599C562.774 233.924 566.072 241.192 566.362 248.213C566.652 255.234 564.398 262.1 561.841 268.646" fill="#2F2E41"/>
<path d="M643.189 537H463.841C463.626 537 463.419 536.915 463.267 536.763C463.115 536.611 463.029 536.405 463.029 536.19C463.029 535.975 463.115 535.768 463.267 535.616C463.419 535.464 463.626 535.379 463.841 535.379H643.189C643.404 535.379 643.611 535.464 643.763 535.616C643.915 535.768 644 535.975 644 536.19C644 536.405 643.915 536.611 643.763 536.763C643.611 536.915 643.404 537 643.189 537Z" fill="#3F3D56"/>
</g>
<defs>
<clipPath id="clip0_3078_42838">
<rect width="644" height="537" fill="white"/>
</clipPath>
</defs>
</svg>
