<svg width="650" height="499" viewBox="0 0 650 499" fill="none" xmlns="http://www.w3.org/2000/svg">
<g clip-path="url(#clip0_3071_51608)">
<path d="M425.635 0L307.172 134.065C313.542 139.076 318.825 145.362 322.694 152.533C326.563 159.705 328.934 167.607 329.66 175.747C330.386 183.888 329.452 192.093 326.914 199.852C324.377 207.611 320.291 214.756 314.912 220.844C309.533 226.932 302.975 231.832 295.647 235.238C288.318 238.644 280.377 240.484 272.317 240.643C264.257 240.802 256.252 239.277 248.798 236.162C241.345 233.047 234.604 228.41 228.996 222.538L63.9844 409.283C111.56 446.775 170.119 467.086 230.373 466.994C380.419 466.994 502.054 343.659 502.054 191.517C502.145 120.024 474.729 51.3149 425.635 0Z" fill="#F2F2F2"/>
<path d="M273.186 220.117C292.762 220.117 308.631 204.027 308.631 184.178C308.631 164.329 292.762 148.238 273.186 148.238C253.611 148.238 237.742 164.329 237.742 184.178C237.742 204.027 253.611 220.117 273.186 220.117Z" fill="#F2F2F2"/>
<path d="M60.4609 497.826V251.404H446.718V497.826H60.4609Z" fill="white" stroke="#B2B1B1"/>
<path d="M485.268 128.255C485.268 128.255 460.308 127.229 459.634 153.222C458.959 179.215 459.634 201.446 459.634 201.446H509.554V154.59C509.554 154.59 508.542 129.966 485.268 128.255Z" fill="#2F2E41"/>
<path d="M475.526 174.58C475.526 174.58 477.007 191.609 472.068 193.112C467.128 194.614 474.044 216.151 474.044 216.151L493.802 220.658L505.163 197.619L500.223 191.108C500.223 191.108 491.826 179.588 495.777 171.575C499.729 163.561 475.526 174.58 475.526 174.58Z" fill="#FFB9B9"/>
<path opacity="0.1" d="M475.526 174.58C475.526 174.58 477.007 191.609 472.068 193.112C467.128 194.614 474.044 216.151 474.044 216.151L493.802 220.658L505.163 197.619L500.223 191.108C500.223 191.108 491.826 179.588 495.777 171.575C499.729 163.561 475.526 174.58 475.526 174.58Z" fill="black"/>
<path d="M482.442 182.593C493.081 182.593 501.706 173.848 501.706 163.06C501.706 152.272 493.081 143.526 482.442 143.526C471.803 143.526 463.178 152.272 463.178 163.06C463.178 173.848 471.803 182.593 482.442 182.593Z" fill="#FFB9B9"/>
<path d="M407.361 230.174C407.361 230.174 395.506 239.189 398.964 246.201C402.422 253.213 412.795 277.254 412.795 277.254C412.795 277.254 414.771 295.786 423.168 294.784C431.565 293.782 423.168 275.251 423.168 275.251L412.795 246.702L416.252 241.193L407.361 230.174Z" fill="#FFB9B9"/>
<path d="M567.401 233.179C567.401 233.179 580.738 243.697 572.835 247.703C564.932 251.71 531.343 270.743 531.343 270.743C531.343 270.743 511.091 286.269 508.621 274.249C506.152 262.228 521.958 262.729 521.958 262.729C521.958 262.729 553.571 243.196 555.053 239.189C556.534 235.182 567.401 233.179 567.401 233.179Z" fill="#FFB9B9"/>
<path d="M449.842 301.795C449.842 301.795 443.42 337.356 446.878 357.39C448.913 369.861 448.578 382.611 445.89 394.954L465.154 396.958C465.154 396.958 477.503 322.831 484.418 323.332C491.333 323.833 506.152 397.959 506.152 397.959L526.898 394.954C526.898 394.954 520.476 361.898 523.44 351.881C526.404 341.864 524.428 305.802 517.019 301.795C509.61 297.789 449.842 301.795 449.842 301.795Z" fill="#575A89"/>
<path d="M467.129 394.954C467.129 394.954 444.901 387.441 442.925 392.951C440.95 398.46 441.444 460.065 441.937 464.072C442.431 468.079 443.913 466.075 442.431 468.079C440.95 470.082 440.95 465.574 441.444 471.084C441.937 476.593 442.431 477.595 442.431 477.595C442.431 477.595 433.54 498.631 449.347 498.13C465.153 497.629 457.744 482.603 457.744 482.603C457.744 482.603 460.214 478.096 458.732 475.591C457.25 473.087 456.756 469.08 458.732 467.077C460.708 465.073 456.756 461.067 456.262 459.564C455.768 458.061 454.286 458.562 458.238 453.554C462.19 448.545 460.214 446.041 459.72 444.538C459.226 443.036 463.177 434.02 463.177 434.02L467.129 394.954Z" fill="#2F2E41"/>
<path d="M504.67 394.954C504.67 394.954 526.898 387.441 528.874 392.951C530.849 398.46 530.355 460.065 529.862 464.072C529.368 468.079 527.886 466.075 529.368 468.079C530.849 470.082 530.849 465.574 530.355 471.084C529.862 476.593 529.368 477.595 529.368 477.595C529.368 477.595 538.259 498.631 522.452 498.13C506.646 497.629 514.055 482.603 514.055 482.603C514.055 482.603 511.585 478.096 513.067 475.591C514.549 473.087 515.043 469.08 513.067 467.077C511.091 465.073 515.043 461.067 515.537 459.564C516.031 458.061 517.513 458.562 513.561 453.554C509.609 448.545 511.585 446.041 512.079 444.538C512.573 443.036 508.622 434.021 508.622 434.021L504.67 394.954Z" fill="#2F2E41"/>
<path d="M483.429 209.138C483.429 209.138 479.971 198.62 477.996 196.617C476.02 194.613 474.738 189.429 474.738 189.429C474.738 189.429 463.671 193.612 460.707 194.613C457.744 195.615 447.865 195.615 447.865 197.118V229.172C447.865 229.172 446.877 235.683 448.853 252.211C450.828 268.74 456.756 278.757 449.84 285.769C442.925 292.781 448.853 309.81 452.31 312.815C455.768 315.82 522.945 331.346 523.439 294.784C523.439 294.784 507.139 265.734 514.054 256.218C520.969 246.702 526.897 230.675 526.897 230.675V198.62C526.897 198.62 516.03 195.114 512.572 194.613C509.114 194.113 500.717 184.596 499.729 185.097C498.742 185.598 496.832 185.078 496.832 185.078L496.766 192.109L483.429 209.138Z" fill="#EF293D"/>
<path d="M454.781 199.622L447.866 197.118C447.866 197.118 439.468 201.626 439.468 202.628C439.468 203.629 434.529 208.137 432.059 210.14C429.589 212.144 422.674 212.645 422.674 213.646C422.674 214.648 400.94 230.675 402.916 233.18C404.892 235.684 411.313 244.699 414.771 244.699C418.228 244.699 426.626 235.684 428.108 235.183C429.589 234.682 444.902 225.166 449.841 226.668C454.781 228.171 454.781 199.622 454.781 199.622Z" fill="#EF293D"/>
<path d="M517.513 200.624L526.898 198.62C526.898 198.62 544.68 212.143 545.174 212.644C545.668 213.145 573.329 231.176 571.847 234.682C570.365 238.187 554.559 243.196 550.607 241.693C546.656 240.191 529.861 227.67 523.44 229.172C517.019 230.675 517.513 200.624 517.513 200.624Z" fill="#EF293D"/>
<path d="M502.941 156.799C505.286 146.812 504.327 144.159 504.327 144.159L474.308 136.635L463.852 146.895V157.497L464.907 160.805C464.907 160.805 469.248 157.497 467.562 152.709C467.562 152.709 501.255 163.981 502.941 156.799Z" fill="#2F2E41"/>
<path d="M503.314 151.209L500.471 154.295C504.956 154.35 498.982 190.949 500.965 196.867L508.374 197.038V148.287L503.314 151.209Z" fill="#2F2E41"/>
<path d="M463.919 163.31C464.738 163.31 465.401 161.852 465.401 160.054C465.401 158.256 464.738 156.799 463.919 156.799C463.101 156.799 462.438 158.256 462.438 160.054C462.438 161.852 463.101 163.31 463.919 163.31Z" fill="#FFB9B9"/>
<path d="M501.953 163.31C502.771 163.31 503.434 161.852 503.434 160.054C503.434 158.256 502.771 156.799 501.953 156.799C501.134 156.799 500.471 158.256 500.471 160.054C500.471 161.852 501.134 163.31 501.953 163.31Z" fill="#FFB9B9"/>
<path d="M233.842 441.988L232.955 441.089L271.097 402.414L237.347 368.192L238.234 367.292L272.872 402.414L233.842 441.988Z" fill="#2F2E41"/>
<path d="M269.787 416.091C277.064 416.091 282.963 410.109 282.963 402.731C282.963 395.352 277.064 389.371 269.787 389.371C262.51 389.371 256.611 395.352 256.611 402.731C256.611 410.109 262.51 416.091 269.787 416.091Z" fill="#EF293D"/>
<path d="M235.279 454.898C242.556 454.898 248.455 448.917 248.455 441.538C248.455 434.16 242.556 428.179 235.279 428.179C228.002 428.179 222.104 434.16 222.104 441.538C222.104 448.917 228.002 454.898 235.279 454.898Z" fill="#EF293D"/>
<path d="M236.35 368.192L235.463 367.292L273.605 328.617L239.855 294.395L240.742 293.495L275.38 328.617L236.35 368.192Z" fill="#2F2E41"/>
<path d="M240.299 307.305C247.575 307.305 253.474 301.323 253.474 293.945C253.474 286.566 247.575 280.585 240.299 280.585C233.022 280.585 227.123 286.566 227.123 293.945C227.123 301.323 233.022 307.305 240.299 307.305Z" fill="#EF293D"/>
<path d="M272.297 342.294C279.573 342.294 285.472 336.312 285.472 328.934C285.472 321.556 279.573 315.574 272.297 315.574C265.02 315.574 259.121 321.556 259.121 328.934C259.121 336.312 265.02 342.294 272.297 342.294Z" fill="#EF293D"/>
<path d="M237.789 381.101C245.066 381.101 250.965 375.12 250.965 367.742C250.965 360.363 245.066 354.382 237.789 354.382C230.512 354.382 224.613 360.363 224.613 367.742C224.613 375.12 230.512 381.101 237.789 381.101Z" fill="#EF293D"/>
<path opacity="0.3" d="M142.423 266.589H77.1719V278.676H142.423V266.589Z" fill="#EF293D"/>
<path opacity="0.3" d="M402.8 403.367H337.549V406.548H402.8V403.367Z" fill="#EF293D"/>
<path opacity="0.3" d="M402.8 412.909H337.549V416.09H402.8V412.909Z" fill="#EF293D"/>
<path opacity="0.3" d="M402.8 422.453H337.549V425.634H402.8V422.453Z" fill="#EF293D"/>
<path opacity="0.3" d="M402.8 431.995H337.549V435.176H402.8V431.995Z" fill="#EF293D"/>
<path opacity="0.3" d="M402.8 441.538H337.549V444.719H402.8V441.538Z" fill="#EF293D"/>
<path opacity="0.3" d="M402.8 451.08H337.549V454.261H402.8V451.08Z" fill="#EF293D"/>
<path d="M41.8842 472.671C46.2221 488.931 61.0805 499.001 61.0805 499.001C61.0805 499.001 68.9057 482.708 64.5678 466.449C60.2299 450.189 45.3715 440.119 45.3715 440.119C45.3715 440.119 37.5463 456.411 41.8842 472.671Z" fill="#3F3D56"/>
<path d="M48.2602 469.176C60.1636 480.925 61.6175 498.987 61.6175 498.987C61.6175 498.987 43.7723 497.999 31.869 486.249C19.9656 474.5 18.5117 456.438 18.5117 456.438C18.5117 456.438 36.3569 457.426 48.2602 469.176Z" fill="#EF293D"/>
<path d="M650 497.522H0V498.795H650V497.522Z" fill="#B2B1B1"/>
<path d="M613.923 458.382C613.919 455.563 613.077 452.81 611.507 450.483C609.936 448.156 607.71 446.364 605.119 445.34C608.12 444.158 610.619 441.949 612.183 439.096C613.748 436.242 614.279 432.924 613.686 429.716C613.093 426.507 611.412 423.61 608.935 421.525C606.457 419.44 603.339 418.299 600.119 418.299C596.9 418.299 593.782 419.44 591.304 421.525C588.827 423.61 587.146 426.507 586.553 429.716C585.96 432.924 586.491 436.242 588.056 439.096C589.62 441.949 592.119 444.158 595.12 445.34C592.527 446.361 590.299 448.153 588.728 450.48C587.157 452.807 586.316 455.562 586.316 458.382C586.316 461.202 587.157 463.957 588.728 466.284C590.299 468.611 592.527 470.403 595.12 471.424C592.119 472.606 589.62 474.815 588.056 477.668C586.491 480.522 585.96 483.84 586.553 487.048C587.146 490.257 588.827 493.154 591.304 495.239C593.782 497.324 596.9 498.465 600.119 498.465C603.339 498.465 606.457 497.324 608.935 495.239C611.412 493.154 613.093 490.257 613.686 487.048C614.279 483.84 613.748 480.522 612.183 477.668C610.619 474.815 608.12 472.606 605.119 471.424C607.71 470.4 609.936 468.608 611.507 466.281C613.077 463.954 613.919 461.201 613.923 458.382ZM587.571 432.299C587.569 429.905 588.233 427.559 589.487 425.531C590.741 423.503 592.533 421.874 594.659 420.832C596.784 419.791 599.157 419.378 601.503 419.642C603.849 419.906 606.075 420.835 607.923 422.324C609.772 423.813 611.169 425.8 611.954 428.058C612.739 430.315 612.88 432.752 612.36 435.087C611.841 437.422 610.683 439.561 609.018 441.259C607.354 442.956 605.251 444.143 602.951 444.683C601.084 444.287 599.155 444.287 597.288 444.683C594.528 444.033 592.066 442.455 590.302 440.207C588.539 437.959 587.576 435.172 587.571 432.299ZM612.668 484.465C612.67 486.859 612.006 489.205 610.752 491.233C609.498 493.261 607.706 494.89 605.58 495.932C603.455 496.973 601.082 497.386 598.736 497.122C596.39 496.858 594.164 495.929 592.316 494.44C590.467 492.951 589.07 490.964 588.285 488.706C587.5 486.449 587.359 484.012 587.879 481.677C588.398 479.342 589.556 477.203 591.221 475.505C592.885 473.808 594.988 472.621 597.288 472.081C599.155 472.477 601.084 472.477 602.951 472.081C605.711 472.731 608.173 474.309 609.936 476.557C611.7 478.805 612.663 481.592 612.668 484.465ZM602.951 470.767C601.084 470.37 599.155 470.37 597.288 470.767C594.526 470.121 592.061 468.544 590.297 466.295C588.532 464.046 587.571 461.256 587.571 458.382C587.571 455.508 588.532 452.718 590.297 450.469C592.061 448.22 594.526 446.643 597.288 445.997C599.155 446.394 601.084 446.394 602.951 445.997C605.713 446.643 608.177 448.22 609.942 450.469C611.707 452.718 612.668 455.508 612.668 458.382C612.668 461.256 611.707 464.046 609.942 466.295C608.177 468.544 605.713 470.121 602.951 470.767Z" fill="#3F3D56"/>
<path d="M66.8187 226.812C64.0887 226.812 61.42 225.991 59.1501 224.453C56.8802 222.916 55.111 220.73 54.0663 218.172C53.0216 215.615 52.7483 212.801 53.2809 210.086C53.8134 207.371 55.1281 204.877 57.0585 202.92C58.9889 200.962 61.4483 199.629 64.1259 199.089C66.8034 198.549 69.5787 198.826 72.1009 199.886C74.6231 200.945 76.7789 202.739 78.2956 205.041C79.8123 207.342 80.6218 210.048 80.6218 212.816C80.6177 216.527 79.1621 220.084 76.5744 222.708C73.9867 225.332 70.4783 226.808 66.8187 226.812ZM66.8187 200.093C64.3369 200.093 61.9108 200.839 59.8473 202.237C57.7837 203.635 56.1754 205.622 55.2256 207.947C54.2759 210.272 54.0274 212.83 54.5116 215.299C54.9957 217.767 56.1908 220.034 57.9458 221.813C59.7007 223.593 61.9365 224.804 64.3707 225.295C66.8048 225.786 69.3278 225.534 71.6207 224.571C73.9136 223.608 75.8734 221.977 77.2522 219.885C78.631 217.793 79.367 215.333 79.367 212.816C79.3633 209.443 78.04 206.209 75.6876 203.823C73.3351 201.438 70.1456 200.096 66.8187 200.093Z" fill="#3F3D56"/>
</g>
<defs>
<clipPath id="clip0_3071_51608">
<rect width="650" height="499" fill="white"/>
</clipPath>
</defs>
</svg>
