<svg width="529" height="460" viewBox="0 0 529 460" fill="none" xmlns="http://www.w3.org/2000/svg">
<g clip-path="url(#clip0_3126_44838)">
<path d="M476.565 239.391C476.634 296.312 454.638 351.042 415.201 392.077C412.823 394.567 410.381 396.997 407.876 399.367C404.058 402.999 400.112 406.491 396.037 409.842C357.923 441.251 310.34 458.901 260.967 459.944C259.322 459.981 257.671 460 256.013 460C216.637 460 167.111 438.963 122.166 409.842C118.448 407.432 114.762 404.967 111.11 402.446C109.403 401.279 107.704 400.095 106.013 398.895C88.6788 386.652 72.2248 373.207 56.7728 358.659C46.6558 349.162 37.1687 339.015 28.3719 328.283C-6.16224 285.675 -13.7793 247.283 35.4551 239.391C41.2842 238.46 46.9417 237.464 52.4273 236.405C60.3734 234.877 67.978 233.228 75.2411 231.456C85.0247 229.078 94.2164 226.499 102.816 223.719C105.709 222.788 108.536 221.838 111.296 220.869C152.107 206.532 179.421 187.836 198.014 167.55C201.167 164.117 204.074 160.641 206.736 157.125C210.807 151.772 214.505 146.146 217.804 140.285C222.357 132.143 226.182 123.613 229.233 114.796L229.4 114.312C244.194 71.6297 239.693 32.0395 256.013 18.7889C325.777 -37.8581 412.631 42.8125 453.398 137.945C455.452 142.738 457.385 147.561 459.196 152.412C460.009 154.579 460.793 156.75 461.549 158.926C463.535 164.595 465.337 170.278 466.956 175.976C467.576 178.15 468.168 180.321 468.731 182.49C469.333 184.831 469.911 187.165 470.444 189.5C474.411 206.594 476.565 223.452 476.565 239.391Z" fill="#F2F2F2"/>
<path d="M260.967 459.944C259.322 459.981 257.67 460 256.013 460C216.636 460 167.11 438.963 122.166 409.842C118.447 407.432 114.762 404.967 111.109 402.446L114.313 382.949L211.285 370.071L259.955 407.296L260.967 459.944Z" fill="#2F2E41"/>
<path d="M265.636 111.797H251.817C251.389 111.798 250.979 111.968 250.676 112.27C250.373 112.573 250.203 112.984 250.203 113.412V127.24C250.203 127.451 250.245 127.661 250.326 127.856C250.408 128.052 250.527 128.229 250.677 128.379C250.827 128.528 251.004 128.646 251.2 128.727C251.396 128.807 251.605 128.849 251.817 128.848H265.636C266.063 128.848 266.472 128.679 266.775 128.377C267.078 128.076 267.248 127.667 267.25 127.24V113.412C267.248 112.984 267.078 112.574 266.776 112.272C266.473 111.969 266.063 111.799 265.636 111.797V111.797Z" fill="white"/>
<path d="M265.636 135.362H251.817C251.389 135.362 250.979 135.532 250.676 135.835C250.373 136.137 250.203 136.548 250.203 136.976V150.804C250.203 151.016 250.245 151.225 250.326 151.421C250.408 151.616 250.527 151.793 250.677 151.943C250.827 152.092 251.004 152.211 251.2 152.291C251.396 152.372 251.605 152.413 251.817 152.412H265.636C266.063 152.412 266.472 152.243 266.775 151.942C267.078 151.64 267.248 151.231 267.25 150.804V136.976C267.249 136.548 267.078 136.138 266.776 135.836C266.473 135.533 266.063 135.363 265.636 135.362Z" fill="#E6E6E6"/>
<path d="M265.636 158.926H251.817C251.389 158.926 250.979 159.096 250.676 159.399C250.373 159.701 250.203 160.112 250.203 160.54V174.362C250.203 174.574 250.244 174.784 250.325 174.98C250.406 175.176 250.525 175.354 250.675 175.504C250.825 175.654 251.003 175.773 251.199 175.854C251.395 175.935 251.605 175.977 251.817 175.976H265.636C266.064 175.976 266.474 175.806 266.777 175.503C267.079 175.2 267.25 174.79 267.25 174.362V160.54C267.249 160.112 267.078 159.702 266.776 159.4C266.473 159.097 266.063 158.927 265.636 158.926V158.926Z" fill="#E6E6E6"/>
<path d="M267.225 183.819C267.156 183.447 266.96 183.111 266.669 182.868C266.379 182.625 266.014 182.492 265.636 182.49H251.817C251.389 182.49 250.979 182.66 250.676 182.963C250.373 183.266 250.203 183.676 250.203 184.104V197.926C250.203 198.138 250.244 198.348 250.325 198.544C250.406 198.74 250.525 198.919 250.675 199.069C250.825 199.219 251.003 199.337 251.199 199.418C251.395 199.499 251.605 199.541 251.817 199.54H265.636C266.064 199.54 266.474 199.37 266.777 199.067C267.079 198.765 267.25 198.354 267.25 197.926V184.104C267.251 184.008 267.243 183.913 267.225 183.819V183.819Z" fill="#E6E6E6"/>
<path d="M266.263 206.178C266.064 206.096 265.851 206.054 265.636 206.054H251.817C251.605 206.054 251.395 206.095 251.199 206.176C251.003 206.257 250.825 206.376 250.675 206.526C250.525 206.676 250.406 206.854 250.325 207.05C250.244 207.246 250.203 207.456 250.203 207.668V221.49C250.202 221.702 250.243 221.913 250.324 222.109C250.405 222.305 250.524 222.484 250.674 222.634C250.824 222.784 251.002 222.903 251.198 222.984C251.395 223.064 251.605 223.106 251.817 223.105H265.636C266.064 223.104 266.474 222.934 266.777 222.632C267.079 222.329 267.25 221.918 267.25 221.49V207.668C267.249 207.351 267.155 207.04 266.98 206.775C266.804 206.51 266.555 206.303 266.263 206.178Z" fill="#E6E6E6"/>
<path d="M294.663 111.797H280.844C280.416 111.798 280.006 111.968 279.703 112.27C279.401 112.573 279.231 112.984 279.23 113.412V127.24C279.231 127.451 279.273 127.661 279.354 127.856C279.435 128.052 279.554 128.229 279.704 128.379C279.854 128.528 280.032 128.646 280.227 128.727C280.423 128.807 280.633 128.849 280.844 128.848H294.663C295.09 128.848 295.5 128.679 295.802 128.377C296.105 128.076 296.276 127.667 296.277 127.24V113.412C296.276 112.984 296.105 112.574 295.803 112.272C295.501 111.969 295.091 111.799 294.663 111.797V111.797Z" fill="#E6E6E6"/>
<path d="M294.663 135.362H280.844C280.416 135.362 280.006 135.532 279.703 135.835C279.401 136.137 279.231 136.548 279.23 136.976V150.804C279.231 151.016 279.273 151.225 279.354 151.421C279.435 151.616 279.554 151.793 279.704 151.943C279.854 152.092 280.032 152.211 280.227 152.291C280.423 152.372 280.633 152.413 280.844 152.412H294.663C295.09 152.412 295.5 152.243 295.802 151.942C296.105 151.64 296.276 151.231 296.277 150.804V136.976C296.276 136.548 296.105 136.138 295.803 135.836C295.501 135.533 295.091 135.363 294.663 135.362Z" fill="#EF293D"/>
<path d="M294.663 158.926H280.844C280.416 158.926 280.006 159.096 279.703 159.399C279.401 159.701 279.231 160.112 279.23 160.54V174.362C279.23 174.574 279.272 174.784 279.352 174.98C279.433 175.176 279.552 175.354 279.702 175.504C279.852 175.654 280.03 175.773 280.226 175.854C280.422 175.935 280.632 175.977 280.844 175.976H294.663C295.091 175.976 295.501 175.806 295.804 175.503C296.107 175.2 296.277 174.79 296.277 174.362V160.54C296.276 160.112 296.105 159.702 295.803 159.4C295.501 159.097 295.091 158.927 294.663 158.926V158.926Z" fill="#EF293D"/>
<path d="M294.663 182.49H280.844C280.506 182.49 280.176 182.597 279.902 182.795C279.628 182.994 279.423 183.274 279.317 183.595C279.26 183.759 279.231 183.931 279.23 184.104V197.926C279.23 198.138 279.271 198.348 279.352 198.544C279.433 198.74 279.552 198.919 279.702 199.069C279.852 199.219 280.03 199.337 280.226 199.418C280.422 199.499 280.632 199.541 280.844 199.54H294.663C295.091 199.54 295.501 199.37 295.804 199.067C296.107 198.765 296.277 198.354 296.277 197.926V184.104C296.276 183.676 296.105 183.266 295.803 182.964C295.501 182.662 295.091 182.491 294.663 182.49V182.49Z" fill="#EF293D"/>
<path d="M294.663 206.054H280.844C280.632 206.054 280.422 206.095 280.226 206.176C280.03 206.257 279.852 206.376 279.702 206.526C279.552 206.676 279.433 206.854 279.352 207.05C279.272 207.246 279.23 207.456 279.23 207.668V221.49C279.23 221.702 279.272 221.912 279.352 222.108C279.433 222.305 279.552 222.483 279.702 222.633C279.852 222.783 280.03 222.902 280.226 222.983C280.422 223.064 280.632 223.105 280.844 223.105H294.663C295.091 223.104 295.501 222.934 295.804 222.632C296.107 222.329 296.277 221.918 296.277 221.49V207.668C296.277 207.24 296.107 206.83 295.804 206.527C295.501 206.224 295.091 206.054 294.663 206.054V206.054Z" fill="#E6E6E6"/>
<path d="M323.69 111.797H309.872C309.444 111.798 309.033 111.968 308.731 112.27C308.428 112.573 308.258 112.984 308.258 113.412V127.24C308.258 127.451 308.3 127.661 308.381 127.856C308.462 128.052 308.581 128.229 308.731 128.379C308.881 128.528 309.059 128.646 309.255 128.727C309.451 128.807 309.66 128.849 309.872 128.848H323.69C324.117 128.848 324.527 128.679 324.83 128.377C325.132 128.076 325.303 127.667 325.305 127.24V113.412C325.303 112.984 325.133 112.574 324.83 112.272C324.528 111.969 324.118 111.799 323.69 111.797V111.797Z" fill="#EF293D"/>
<path d="M323.69 135.362H309.872C309.444 135.362 309.033 135.532 308.731 135.835C308.428 136.137 308.258 136.548 308.258 136.976V150.804C308.258 151.016 308.3 151.225 308.381 151.421C308.462 151.616 308.581 151.793 308.731 151.943C308.881 152.092 309.059 152.211 309.255 152.291C309.451 152.372 309.66 152.413 309.872 152.412H323.69C324.117 152.412 324.527 152.243 324.83 151.942C325.132 151.64 325.303 151.231 325.305 150.804V136.976C325.303 136.548 325.133 136.138 324.83 135.836C324.528 135.533 324.118 135.363 323.69 135.362Z" fill="#EF293D"/>
<path d="M323.69 158.926H309.872C309.444 158.926 309.033 159.096 308.731 159.399C308.428 159.701 308.258 160.112 308.258 160.54V174.362C308.257 174.574 308.299 174.784 308.38 174.98C308.461 175.176 308.58 175.354 308.73 175.504C308.88 175.654 309.058 175.773 309.254 175.854C309.45 175.935 309.66 175.977 309.872 175.976H323.69C324.118 175.976 324.529 175.806 324.831 175.503C325.134 175.2 325.304 174.79 325.305 174.362V160.54C325.303 160.112 325.133 159.702 324.83 159.4C324.528 159.097 324.118 158.927 323.69 158.926V158.926Z" fill="#E6E6E6"/>
<path d="M323.69 182.49H309.872C309.444 182.49 309.033 182.66 308.731 182.963C308.428 183.266 308.258 183.676 308.258 184.104V197.926C308.257 198.138 308.299 198.348 308.38 198.544C308.461 198.74 308.58 198.919 308.73 199.069C308.88 199.219 309.058 199.337 309.254 199.418C309.45 199.499 309.66 199.541 309.872 199.54H323.69C324.118 199.54 324.529 199.37 324.832 199.067C325.134 198.765 325.304 198.354 325.305 197.926V184.104C325.303 183.676 325.133 183.267 324.83 182.964C324.528 182.662 324.118 182.491 323.69 182.49V182.49Z" fill="#EF293D"/>
<path d="M323.69 206.054H309.872C309.66 206.054 309.45 206.095 309.254 206.176C309.058 206.257 308.88 206.376 308.73 206.526C308.58 206.676 308.461 206.854 308.38 207.05C308.299 207.246 308.257 207.456 308.258 207.668V221.49C308.257 221.702 308.299 221.912 308.38 222.108C308.461 222.305 308.58 222.483 308.73 222.633C308.88 222.783 309.058 222.902 309.254 222.983C309.45 223.064 309.66 223.105 309.872 223.105H323.69C324.118 223.104 324.529 222.934 324.832 222.632C325.134 222.329 325.304 221.918 325.305 221.49V207.668C325.304 207.24 325.134 206.83 324.832 206.527C324.529 206.224 324.118 206.054 323.69 206.054V206.054Z" fill="#EF293D"/>
<path d="M352.718 111.797H338.899C338.471 111.798 338.061 111.968 337.758 112.27C337.455 112.573 337.285 112.984 337.285 113.412V127.24C337.285 127.451 337.327 127.661 337.409 127.856C337.49 128.052 337.609 128.229 337.759 128.379C337.909 128.528 338.087 128.646 338.282 128.727C338.478 128.807 338.688 128.849 338.899 128.848H352.718C353.145 128.848 353.555 128.679 353.857 128.377C354.16 128.076 354.33 127.667 354.332 127.24V113.412C354.331 112.984 354.16 112.574 353.858 112.272C353.555 111.969 353.145 111.799 352.718 111.797V111.797Z" fill="#EF293D"/>
<path d="M352.718 135.362H338.899C338.471 135.362 338.061 135.532 337.758 135.835C337.455 136.137 337.285 136.548 337.285 136.976V150.804C337.285 151.016 337.327 151.225 337.409 151.421C337.49 151.616 337.609 151.793 337.759 151.943C337.909 152.092 338.087 152.211 338.282 152.291C338.478 152.372 338.688 152.413 338.899 152.412H352.718C353.145 152.412 353.555 152.243 353.857 151.942C354.16 151.64 354.33 151.231 354.332 150.804V136.976C354.331 136.548 354.16 136.138 353.858 135.836C353.555 135.533 353.146 135.363 352.718 135.362V135.362Z" fill="white"/>
<path d="M352.718 158.926H338.899C338.471 158.926 338.061 159.096 337.758 159.399C337.455 159.701 337.285 160.112 337.285 160.54V174.362C337.285 174.574 337.326 174.784 337.407 174.98C337.488 175.176 337.607 175.354 337.757 175.504C337.907 175.654 338.085 175.773 338.281 175.854C338.477 175.935 338.687 175.977 338.899 175.976H352.718C353.146 175.976 353.556 175.806 353.859 175.503C354.162 175.2 354.332 174.79 354.332 174.362V160.54C354.331 160.112 354.16 159.702 353.858 159.4C353.555 159.097 353.146 158.927 352.718 158.926V158.926Z" fill="white"/>
<path d="M352.718 182.49H338.899C338.471 182.49 338.061 182.66 337.758 182.963C337.455 183.266 337.285 183.676 337.285 184.104V197.926C337.285 198.138 337.326 198.348 337.407 198.544C337.488 198.74 337.607 198.919 337.757 199.069C337.907 199.219 338.085 199.337 338.281 199.418C338.477 199.499 338.687 199.541 338.899 199.54H352.718C353.146 199.54 353.556 199.37 353.859 199.067C354.162 198.765 354.332 198.354 354.332 197.926V184.104C354.331 183.676 354.16 183.267 353.858 182.964C353.555 182.662 353.146 182.491 352.718 182.49V182.49Z" fill="#E6E6E6"/>
<path d="M352.718 206.054H338.899C338.687 206.054 338.477 206.095 338.281 206.176C338.085 206.257 337.907 206.376 337.757 206.526C337.607 206.676 337.488 206.854 337.407 207.05C337.326 207.246 337.285 207.456 337.285 207.668V221.49C337.285 221.702 337.326 221.912 337.407 222.108C337.488 222.305 337.607 222.483 337.757 222.633C337.907 222.783 338.085 222.902 338.281 222.983C338.477 223.064 338.687 223.105 338.899 223.105H352.718C353.146 223.104 353.556 222.934 353.859 222.632C354.162 222.329 354.332 221.918 354.332 221.49V207.668C354.332 207.24 354.162 206.83 353.859 206.527C353.556 206.224 353.146 206.054 352.718 206.054V206.054Z" fill="#EF293D"/>
<path d="M381.747 111.797H367.922C367.495 111.799 367.086 111.97 366.785 112.272C366.483 112.575 366.314 112.985 366.314 113.412V127.24C366.315 127.666 366.484 128.075 366.785 128.377C367.087 128.678 367.496 128.848 367.922 128.848H381.747C382.174 128.848 382.584 128.679 382.886 128.377C383.189 128.076 383.36 127.667 383.361 127.24V113.412C383.36 112.984 383.19 112.574 382.887 112.272C382.585 111.969 382.175 111.799 381.747 111.797Z" fill="white"/>
<path d="M381.747 135.362H367.922C367.495 135.363 367.086 135.534 366.785 135.836C366.483 136.139 366.314 136.549 366.314 136.976V150.804C366.315 151.23 366.484 151.639 366.785 151.941C367.087 152.243 367.496 152.412 367.922 152.412H381.747C382.174 152.412 382.584 152.243 382.886 151.942C383.189 151.64 383.36 151.231 383.361 150.804V136.976C383.36 136.548 383.19 136.138 382.887 135.836C382.585 135.533 382.175 135.363 381.747 135.362V135.362Z" fill="white"/>
<path d="M381.747 158.926H367.922C367.495 158.927 367.086 159.098 366.785 159.4C366.483 159.703 366.314 160.113 366.314 160.54V174.362C366.314 174.573 366.355 174.783 366.436 174.979C366.516 175.175 366.634 175.352 366.784 175.502C366.933 175.652 367.11 175.771 367.306 175.853C367.501 175.934 367.711 175.976 367.922 175.976H381.747C382.175 175.976 382.586 175.806 382.888 175.503C383.191 175.2 383.361 174.79 383.361 174.362V160.54C383.36 160.112 383.19 159.702 382.887 159.4C382.585 159.097 382.175 158.927 381.747 158.926V158.926Z" fill="white"/>
<path d="M381.747 182.49H367.922C367.495 182.491 367.086 182.662 366.785 182.965C366.483 183.267 366.314 183.677 366.314 184.104V197.926C366.314 198.138 366.355 198.347 366.436 198.543C366.516 198.739 366.634 198.917 366.784 199.067C366.933 199.217 367.11 199.336 367.306 199.417C367.501 199.498 367.711 199.54 367.922 199.54H381.747C382.175 199.54 382.586 199.37 382.888 199.067C383.191 198.765 383.361 198.354 383.361 197.926V184.104C383.36 183.676 383.19 183.267 382.887 182.964C382.585 182.662 382.175 182.491 381.747 182.49V182.49Z" fill="#EF293D"/>
<path d="M381.747 206.054H367.922C367.711 206.054 367.501 206.096 367.306 206.177C367.11 206.259 366.933 206.378 366.784 206.528C366.634 206.678 366.516 206.856 366.436 207.051C366.355 207.247 366.314 207.457 366.314 207.668V221.49C366.314 221.702 366.355 221.912 366.436 222.107C366.516 222.303 366.634 222.481 366.784 222.631C366.933 222.781 367.11 222.9 367.306 222.981C367.501 223.062 367.711 223.104 367.922 223.105H381.747C382.175 223.104 382.586 222.934 382.888 222.632C383.191 222.329 383.361 221.918 383.361 221.49V207.668C383.361 207.24 383.191 206.83 382.888 206.527C382.586 206.224 382.175 206.054 381.747 206.054V206.054Z" fill="#E6E6E6"/>
<path d="M410.775 111.797H396.95C396.523 111.799 396.114 111.97 395.812 112.272C395.511 112.575 395.342 112.985 395.342 113.412V127.24C395.342 127.666 395.511 128.075 395.813 128.377C396.114 128.678 396.523 128.848 396.95 128.848H410.775C411.202 128.848 411.611 128.679 411.914 128.377C412.216 128.076 412.387 127.667 412.389 127.24V113.412C412.387 112.984 412.217 112.574 411.914 112.272C411.612 111.969 411.202 111.799 410.775 111.797V111.797Z" fill="white"/>
<path d="M410.775 135.362H396.95C396.523 135.363 396.114 135.534 395.812 135.836C395.511 136.139 395.342 136.549 395.342 136.976V150.804C395.342 151.23 395.511 151.639 395.813 151.941C396.114 152.243 396.523 152.412 396.95 152.412H410.775C411.202 152.412 411.611 152.243 411.914 151.942C412.216 151.64 412.387 151.231 412.389 150.804V136.976C412.387 136.548 412.217 136.138 411.914 135.836C411.612 135.533 411.202 135.363 410.775 135.362V135.362Z" fill="white"/>
<path d="M410.775 158.926H396.95C396.523 158.927 396.114 159.098 395.812 159.4C395.511 159.703 395.342 160.113 395.342 160.54V174.362C395.341 174.573 395.382 174.783 395.463 174.979C395.543 175.175 395.662 175.352 395.811 175.502C395.96 175.652 396.138 175.771 396.333 175.853C396.529 175.934 396.738 175.976 396.95 175.976H410.775C411.203 175.976 411.613 175.806 411.916 175.503C412.218 175.2 412.388 174.79 412.389 174.362V160.54C412.387 160.112 412.217 159.702 411.914 159.4C411.612 159.097 411.202 158.927 410.775 158.926V158.926Z" fill="#EF293D"/>
<path d="M410.775 182.49H396.95C396.523 182.491 396.114 182.662 395.812 182.965C395.511 183.267 395.342 183.677 395.342 184.104V197.926C395.341 198.138 395.382 198.347 395.463 198.543C395.543 198.739 395.662 198.917 395.811 199.067C395.96 199.217 396.138 199.336 396.333 199.417C396.529 199.498 396.738 199.54 396.95 199.54H410.775C411.203 199.54 411.613 199.37 411.916 199.067C412.218 198.765 412.388 198.354 412.389 197.926V184.104C412.387 183.676 412.217 183.267 411.914 182.964C411.612 182.662 411.202 182.491 410.775 182.49V182.49Z" fill="#E6E6E6"/>
<path d="M410.775 206.054H396.95C396.738 206.054 396.529 206.096 396.333 206.177C396.138 206.259 395.96 206.378 395.811 206.528C395.662 206.678 395.543 206.856 395.463 207.051C395.382 207.247 395.341 207.457 395.342 207.668V221.49C395.341 221.702 395.382 221.912 395.463 222.107C395.543 222.303 395.662 222.481 395.811 222.631C395.96 222.781 396.138 222.9 396.333 222.981C396.529 223.062 396.738 223.104 396.95 223.105H410.775C411.203 223.104 411.613 222.934 411.916 222.632C412.218 222.329 412.388 221.918 412.389 221.49V207.668C412.388 207.24 412.218 206.83 411.916 206.527C411.613 206.224 411.203 206.054 410.775 206.054Z" fill="white"/>
<path d="M439.802 111.797H425.977C425.55 111.799 425.141 111.97 424.84 112.272C424.538 112.575 424.369 112.985 424.369 113.412V127.24C424.369 127.666 424.539 128.075 424.84 128.377C425.142 128.678 425.551 128.848 425.977 128.848H439.802C440.229 128.848 440.639 128.679 440.941 128.377C441.244 128.076 441.414 127.667 441.416 127.24V113.412C441.415 112.984 441.244 112.574 440.942 112.272C440.639 111.969 440.229 111.799 439.802 111.797V111.797Z" fill="#EF293D"/>
<path d="M439.802 135.362H425.977C425.55 135.363 425.141 135.534 424.84 135.836C424.538 136.139 424.369 136.549 424.369 136.976V150.804C424.369 151.23 424.539 151.639 424.84 151.941C425.142 152.243 425.551 152.412 425.977 152.412H439.802C440.229 152.412 440.639 152.243 440.941 151.942C441.244 151.64 441.414 151.231 441.416 150.804V136.976C441.415 136.548 441.244 136.138 440.942 135.836C440.639 135.533 440.229 135.363 439.802 135.362Z" fill="#EF293D"/>
<path d="M439.802 158.926H425.977C425.55 158.927 425.141 159.098 424.84 159.4C424.538 159.703 424.369 160.113 424.369 160.54V174.362C424.369 174.573 424.41 174.783 424.49 174.979C424.571 175.175 424.689 175.352 424.838 175.502C424.988 175.652 425.165 175.771 425.361 175.853C425.556 175.934 425.765 175.976 425.977 175.976H439.802C440.23 175.976 440.64 175.806 440.943 175.503C441.246 175.2 441.416 174.79 441.416 174.362V160.54C441.415 160.112 441.244 159.702 440.942 159.4C440.639 159.097 440.229 158.927 439.802 158.926V158.926Z" fill="#E6E6E6"/>
<path d="M439.802 182.49H425.977C425.55 182.491 425.141 182.662 424.84 182.965C424.538 183.267 424.369 183.677 424.369 184.104V197.926C424.369 198.138 424.41 198.347 424.49 198.543C424.571 198.739 424.689 198.917 424.838 199.067C424.988 199.217 425.165 199.336 425.361 199.417C425.556 199.498 425.765 199.54 425.977 199.54H439.802C440.23 199.54 440.64 199.37 440.943 199.067C441.246 198.765 441.416 198.354 441.416 197.926V184.104C441.415 183.676 441.244 183.267 440.942 182.964C440.639 182.662 440.229 182.491 439.802 182.49V182.49Z" fill="white"/>
<path d="M439.802 206.054H425.977C425.765 206.054 425.556 206.096 425.361 206.177C425.165 206.259 424.988 206.378 424.838 206.528C424.689 206.678 424.571 206.856 424.49 207.051C424.41 207.247 424.369 207.457 424.369 207.668V221.49C424.369 221.702 424.41 221.912 424.49 222.107C424.571 222.303 424.689 222.481 424.838 222.631C424.988 222.781 425.165 222.9 425.361 222.981C425.556 223.062 425.765 223.104 425.977 223.105H439.802C440.23 223.104 440.64 222.934 440.943 222.632C441.246 222.329 441.416 221.918 441.416 221.49V207.668C441.416 207.24 441.246 206.83 440.943 206.527C440.64 206.224 440.23 206.054 439.802 206.054Z" fill="#EF293D"/>
<path d="M468.831 111.797H455.006C454.579 111.799 454.17 111.97 453.869 112.272C453.567 112.575 453.398 112.985 453.398 113.412V127.24C453.399 127.666 453.568 128.075 453.869 128.377C454.171 128.678 454.58 128.848 455.006 128.848H468.831C469.258 128.848 469.668 128.679 469.97 128.377C470.273 128.076 470.444 127.667 470.445 127.24V113.412C470.444 112.984 470.273 112.574 469.971 112.272C469.669 111.969 469.259 111.799 468.831 111.797Z" fill="#EF293D"/>
<path d="M468.831 135.362H455.006C454.579 135.363 454.17 135.534 453.869 135.836C453.567 136.139 453.398 136.549 453.398 136.976V150.804C453.399 151.23 453.568 151.639 453.869 151.941C454.171 152.243 454.58 152.412 455.006 152.412H468.831C469.258 152.412 469.668 152.243 469.97 151.942C470.273 151.64 470.444 151.231 470.445 150.804V136.976C470.444 136.548 470.273 136.138 469.971 135.836C469.669 135.533 469.259 135.363 468.831 135.362V135.362Z" fill="#EF293D"/>
<path d="M468.831 158.926H455.006C454.579 158.927 454.17 159.098 453.869 159.4C453.567 159.703 453.398 160.113 453.398 160.54V174.362C453.398 174.573 453.439 174.783 453.52 174.979C453.6 175.175 453.718 175.352 453.868 175.502C454.017 175.652 454.194 175.771 454.39 175.853C454.585 175.934 454.795 175.976 455.006 175.976H468.831C469.259 175.976 469.669 175.806 469.972 175.503C470.275 175.2 470.445 174.79 470.445 174.362V160.54C470.444 160.112 470.273 159.702 469.971 159.4C469.669 159.097 469.259 158.927 468.831 158.926Z" fill="#E6E6E6"/>
<path d="M468.831 182.49H455.006C454.579 182.491 454.17 182.662 453.869 182.965C453.567 183.267 453.398 183.677 453.398 184.104V197.926C453.398 198.138 453.439 198.347 453.52 198.543C453.6 198.739 453.718 198.917 453.868 199.067C454.017 199.217 454.194 199.336 454.39 199.417C454.585 199.498 454.795 199.54 455.006 199.54H468.831C469.259 199.54 469.67 199.37 469.972 199.067C470.275 198.765 470.445 198.354 470.445 197.926V184.104C470.444 183.676 470.273 183.267 469.971 182.964C469.669 182.662 469.259 182.491 468.831 182.49V182.49Z" fill="#EF293D"/>
<path d="M468.831 206.054H455.006C454.795 206.054 454.585 206.096 454.39 206.177C454.194 206.259 454.017 206.378 453.868 206.528C453.718 206.678 453.6 206.856 453.52 207.051C453.439 207.247 453.398 207.457 453.398 207.668V221.49C453.398 221.702 453.439 221.912 453.52 222.107C453.6 222.303 453.718 222.481 453.868 222.631C454.017 222.781 454.194 222.9 454.39 222.981C454.585 223.062 454.795 223.104 455.006 223.105H468.831C469.259 223.104 469.67 222.934 469.972 222.632C470.275 222.329 470.445 221.918 470.445 221.49V207.668C470.445 207.24 470.275 206.83 469.972 206.527C469.67 206.224 469.259 206.054 468.831 206.054V206.054Z" fill="#EF293D"/>
<path d="M497.858 111.797H484.034C483.607 111.799 483.198 111.97 482.896 112.272C482.595 112.575 482.426 112.985 482.426 113.412V127.24C482.426 127.666 482.595 128.075 482.897 128.377C483.198 128.678 483.607 128.848 484.034 128.848H497.858C498.286 128.848 498.695 128.679 498.998 128.377C499.3 128.076 499.471 127.667 499.473 127.24V113.412C499.471 112.984 499.301 112.574 498.998 112.272C498.696 111.969 498.286 111.799 497.858 111.797V111.797Z" fill="#E6E6E6"/>
<path d="M497.858 135.362H484.034C483.607 135.363 483.198 135.534 482.896 135.836C482.595 136.139 482.426 136.549 482.426 136.976V150.804C482.426 151.23 482.595 151.639 482.897 151.941C483.198 152.243 483.607 152.412 484.034 152.412H497.858C498.286 152.412 498.695 152.243 498.998 151.942C499.3 151.64 499.471 151.231 499.473 150.804V136.976C499.471 136.548 499.301 136.138 498.998 135.836C498.696 135.533 498.286 135.363 497.858 135.362V135.362Z" fill="#EF293D"/>
<path d="M497.858 158.926H484.034C483.607 158.927 483.198 159.098 482.896 159.4C482.595 159.703 482.426 160.113 482.426 160.54V174.362C482.425 174.573 482.466 174.783 482.547 174.979C482.627 175.175 482.746 175.352 482.895 175.502C483.044 175.652 483.222 175.771 483.417 175.853C483.613 175.934 483.822 175.976 484.034 175.976H497.858C498.286 175.976 498.697 175.806 499 175.503C499.302 175.2 499.472 174.79 499.473 174.362V160.54C499.471 160.112 499.301 159.702 498.998 159.4C498.696 159.097 498.286 158.927 497.858 158.926V158.926Z" fill="#EF293D"/>
<path d="M497.858 182.49H484.034C483.607 182.491 483.198 182.662 482.896 182.965C482.595 183.267 482.426 183.677 482.426 184.104V197.926C482.425 198.138 482.466 198.347 482.547 198.543C482.627 198.739 482.746 198.917 482.895 199.067C483.044 199.217 483.222 199.336 483.417 199.417C483.613 199.498 483.822 199.54 484.034 199.54H497.858C498.286 199.54 498.697 199.37 499 199.067C499.302 198.765 499.472 198.354 499.473 197.926V184.104C499.471 183.676 499.301 183.267 498.998 182.964C498.696 182.662 498.286 182.491 497.858 182.49V182.49Z" fill="#EF293D"/>
<path d="M497.858 206.054H484.034C483.822 206.054 483.613 206.096 483.417 206.177C483.222 206.259 483.044 206.378 482.895 206.528C482.746 206.678 482.627 206.856 482.547 207.051C482.466 207.247 482.425 207.457 482.426 207.668V221.49C482.425 221.702 482.466 221.912 482.547 222.107C482.627 222.303 482.746 222.481 482.895 222.631C483.044 222.781 483.222 222.9 483.417 222.981C483.613 223.062 483.822 223.104 484.034 223.105H497.858C498.286 223.104 498.697 222.934 499 222.632C499.302 222.329 499.472 221.918 499.473 221.49V207.668C499.472 207.24 499.302 206.83 499 206.527C498.697 206.224 498.286 206.054 497.858 206.054V206.054Z" fill="#E6E6E6"/>
<path d="M526.886 111.797H513.061C512.634 111.799 512.225 111.97 511.924 112.272C511.622 112.575 511.453 112.985 511.453 113.412V127.24C511.453 127.666 511.623 128.075 511.924 128.377C512.226 128.678 512.635 128.848 513.061 128.848H526.886C527.313 128.848 527.723 128.679 528.025 128.377C528.328 128.076 528.498 127.667 528.5 127.24V113.412C528.499 112.984 528.328 112.574 528.026 112.272C527.723 111.969 527.313 111.799 526.886 111.797V111.797Z" fill="#E6E6E6"/>
<path d="M526.886 135.362H513.061C512.634 135.363 512.225 135.534 511.924 135.836C511.622 136.139 511.453 136.549 511.453 136.976V150.804C511.453 151.23 511.623 151.639 511.924 151.941C512.226 152.243 512.635 152.412 513.061 152.412H526.886C527.313 152.412 527.723 152.243 528.025 151.942C528.328 151.64 528.498 151.231 528.5 150.804V136.976C528.499 136.548 528.328 136.138 528.026 135.836C527.723 135.533 527.314 135.363 526.886 135.362V135.362Z" fill="#E6E6E6"/>
<path d="M526.886 158.926H513.061C512.634 158.927 512.225 159.098 511.924 159.4C511.622 159.703 511.453 160.113 511.453 160.54V174.362C511.453 174.573 511.494 174.783 511.574 174.979C511.655 175.175 511.773 175.352 511.922 175.502C512.072 175.652 512.249 175.771 512.445 175.853C512.64 175.934 512.849 175.976 513.061 175.976H526.886C527.314 175.976 527.724 175.806 528.027 175.503C528.33 175.2 528.5 174.79 528.5 174.362V160.54C528.499 160.112 528.328 159.702 528.026 159.4C527.723 159.097 527.314 158.927 526.886 158.926V158.926Z" fill="#EF293D"/>
<path d="M526.886 182.49H513.061C512.634 182.491 512.225 182.662 511.924 182.965C511.622 183.267 511.453 183.677 511.453 184.104V197.926C511.453 198.138 511.494 198.347 511.574 198.543C511.655 198.739 511.773 198.917 511.922 199.067C512.072 199.217 512.249 199.336 512.445 199.417C512.64 199.498 512.849 199.54 513.061 199.54H526.886C527.314 199.54 527.724 199.37 528.027 199.067C528.33 198.765 528.5 198.354 528.5 197.926V184.104C528.499 183.676 528.328 183.267 528.026 182.964C527.723 182.662 527.314 182.491 526.886 182.49V182.49Z" fill="#E6E6E6"/>
<path d="M526.886 206.054H513.061C512.849 206.054 512.64 206.096 512.445 206.177C512.249 206.259 512.072 206.378 511.922 206.528C511.773 206.678 511.655 206.856 511.574 207.051C511.494 207.247 511.453 207.457 511.453 207.668V221.49C511.453 221.702 511.494 221.912 511.574 222.107C511.655 222.303 511.773 222.481 511.922 222.631C512.072 222.781 512.249 222.9 512.445 222.981C512.64 223.062 512.849 223.104 513.061 223.105H526.886C527.314 223.104 527.724 222.934 528.027 222.632C528.33 222.329 528.5 221.918 528.5 221.49V207.668C528.5 207.24 528.33 206.83 528.027 206.527C527.724 206.224 527.314 206.054 526.886 206.054V206.054Z" fill="#E6E6E6"/>
<path d="M209.143 409.843H208.758L209.087 409.799L209.143 409.843Z" fill="#2F2E41"/>
<path d="M176.065 152.161C199.49 152.161 218.479 133.167 218.479 109.738C218.479 86.3085 199.49 67.3152 176.065 67.3152C152.641 67.3152 133.652 86.3085 133.652 109.738C133.652 133.167 152.641 152.161 176.065 152.161Z" fill="#FFB6B6"/>
<path d="M213.21 78.6342C213.21 78.6342 224.303 57.4228 199.898 55.4945C199.898 55.4945 179.092 36.6169 157.886 52.0434C157.886 52.0434 146.318 52.0434 139.993 65.136C139.993 65.136 130.895 61.6849 128.896 70.9209C128.896 70.9209 122.239 90.2041 128.896 107.559C135.553 124.914 137.764 126.842 137.764 126.842C137.764 126.842 126.826 90.4567 153.451 88.5283C180.077 86.6 209.872 69.9568 212.091 91.1682C214.31 112.38 217.649 117.606 217.649 117.606C217.649 117.606 238.725 87.3116 213.21 78.6342Z" fill="#2F2E41"/>
<path d="M285.78 214.287L285.643 215.008L284.11 223.104L273.513 279.112L272.886 282.409L271.57 289.382L269.77 298.895L265.778 319.975L264.636 326.017L264.208 328.283L264.059 329.078L262.873 335.33L262.513 337.218L259.62 358.659L257.094 377.342L265.549 385.799L260.508 390.841L257.199 409.798L257.205 409.842H122.166C116.704 406.302 111.319 402.653 106.014 398.895L107.125 390.574C107.125 390.574 110.949 375.715 109.341 373.94C107.739 372.164 104.226 368.991 104.226 368.991L108.652 358.659L109.267 357.224L108.236 335.846L108.211 335.33L107.87 328.283L107.826 327.376L107.758 326.017L106.448 298.895L106.423 298.447L106.026 290.226L105.654 282.409L105.492 279.112L103.897 246.122L102.817 223.719L101.873 204.216L105.666 202.931L146.234 189.14L163.039 167.289L198.014 167.55L215.135 167.681L243.703 194.182L250.203 197.286L250.253 197.311L254.915 199.54L266.734 205.184L279.231 211.158L285.644 214.219L285.78 214.287Z" fill="#CACACA"/>
<path d="M167.558 346.198C164.995 347.191 162.245 347.61 159.503 347.425C156.76 347.24 154.092 346.457 151.685 345.129C149.278 343.801 147.192 341.961 145.573 339.74C143.954 337.518 142.841 334.968 142.314 332.27L76.1641 322.883L99.1596 296.865L158.451 309.768C163.042 309.183 167.687 310.301 171.508 312.913C175.329 315.524 178.059 319.447 179.182 323.937C180.304 328.428 179.741 333.174 177.598 337.277C175.456 341.379 171.883 344.554 167.558 346.198V346.198Z" fill="#FFB6B6"/>
<path d="M138.064 298.895C136.838 297.341 135.104 296.27 133.166 295.871L106.025 290.227L103.238 289.649C101.618 289.311 100.088 288.635 98.7474 287.664C97.407 286.694 96.2866 285.451 95.4594 284.017C94.6015 282.512 94.0824 280.838 93.9385 279.112C93.8091 277.542 93.997 275.963 94.491 274.468L103.896 246.122L109.998 227.73C110.738 225.512 111.174 223.204 111.296 220.869C111.636 214.407 109.637 208.039 105.665 202.931C102.173 198.441 97.3304 195.194 91.8517 193.668C86.373 192.143 80.5491 192.421 75.2405 194.461C75.0853 194.517 74.9239 194.579 74.7687 194.641C70.9616 196.162 67.5602 198.547 64.8333 201.609C62.1065 204.67 60.1288 208.324 59.0567 212.282L52.4267 236.405L38.7508 286.135C37.3818 291.117 37.1053 296.337 37.94 301.436C38.7748 306.535 40.7013 311.394 43.5875 315.68C46.4738 319.965 50.2517 323.576 54.6627 326.266C59.0737 328.956 64.0136 330.661 69.1444 331.264L108.235 335.846L126.325 337.97C128.417 338.221 130.526 337.675 132.234 336.44C133.941 335.205 135.12 333.373 135.537 331.307C135.566 331.195 135.589 331.081 135.605 330.966L136.04 328.283L139.721 305.694L139.759 305.464C139.95 304.311 139.899 303.131 139.607 302C139.315 300.868 138.789 299.811 138.064 298.895Z" fill="#CACACA"/>
<path d="M209.693 346.922C212.37 347.543 215.152 347.57 217.84 347.001C220.529 346.431 223.061 345.279 225.256 343.625C227.452 341.97 229.258 339.855 230.548 337.427C231.837 335 232.579 332.318 232.721 329.573L296.886 310.949L270.452 288.435L213.572 309.572C208.945 309.639 204.504 311.402 201.089 314.527C197.675 317.651 195.525 321.919 195.047 326.523C194.568 331.127 195.795 335.747 198.495 339.506C201.194 343.266 205.179 345.904 209.693 346.922V346.922Z" fill="#FFB6B6"/>
<path d="M328.744 269.289L298.226 199.037C295.73 193.27 291.272 188.573 285.643 185.781C283.903 184.924 282.076 184.258 280.193 183.794C279.901 183.719 279.609 183.651 279.317 183.595C275.324 182.723 271.183 182.8 267.225 183.818C263.607 184.748 260.225 186.43 257.301 188.755C254.376 191.08 251.975 193.995 250.252 197.311C250.234 197.339 250.217 197.368 250.203 197.398C248.279 201.12 247.256 205.242 247.216 209.432C247.176 213.622 248.121 217.763 249.973 221.521L250.352 222.279L271.918 265.601C272.654 267.082 273.069 268.702 273.135 270.356C273.202 272.009 272.918 273.657 272.302 275.193C271.687 276.728 270.753 278.116 269.564 279.266C268.374 280.415 266.955 281.3 265.4 281.863L263.885 282.409L236.645 292.251C234.601 292.98 232.92 294.475 231.955 296.419C230.99 298.364 230.818 300.607 231.474 302.676L231.542 302.893L239.178 327.333C239.215 327.445 239.252 327.557 239.296 327.668C239.363 327.879 239.446 328.085 239.544 328.283C240.355 330.103 241.79 331.574 243.589 332.432C245.388 333.289 247.434 333.476 249.358 332.959L264.059 329.078L267.057 328.283L305.018 318.255C310.013 316.935 314.663 314.551 318.652 311.266C322.64 307.981 325.871 303.872 328.124 299.222C330.377 294.572 331.599 289.49 331.706 284.323C331.813 279.157 330.803 274.028 328.744 269.289L328.744 269.289Z" fill="#CACACA"/>
<path d="M28.3711 328.283C37.1679 339.015 46.6549 349.162 56.7719 358.659H337.347C340.051 358.663 342.642 359.739 344.553 361.652C346.464 363.564 347.538 366.157 347.541 368.86L347.944 439.975C365.205 432.043 381.369 421.915 396.036 409.842C400.109 406.495 404.055 403.003 407.875 399.367C410.376 396.995 412.818 394.565 415.2 392.077C433.056 373.471 447.515 351.88 457.922 328.283H28.3711Z" fill="#3F3D56"/>
<path d="M415.199 392.077C412.822 394.567 410.38 396.997 407.874 399.367H348.148V392.077H415.199Z" fill="white"/>
<path d="M285.22 158.926C284.925 158.381 284.489 157.926 283.956 157.609C283.424 157.292 282.816 157.125 282.197 157.125H78.6794C77.7669 157.127 76.8926 157.491 76.248 158.137C75.6034 158.783 75.241 159.658 75.2402 160.571V282.409H285.642V160.571C285.646 159.995 285.5 159.429 285.22 158.926V158.926Z" fill="#3F3D56"/>
<path d="M75.0566 279.111V294.146C75.0566 294.769 75.1794 295.386 75.4178 295.962C75.6563 296.538 76.0058 297.061 76.4465 297.502C76.8871 297.942 77.4102 298.292 77.9859 298.531C78.5616 298.769 79.1787 298.892 79.8018 298.892H157.46V328.564H156.428C156.347 328.564 156.267 328.58 156.192 328.611C156.117 328.642 156.049 328.687 155.992 328.744C155.935 328.802 155.89 328.87 155.859 328.944C155.828 329.019 155.812 329.099 155.812 329.18V331.244C155.812 331.325 155.828 331.405 155.859 331.48C155.89 331.555 155.935 331.623 155.992 331.68C156.049 331.737 156.117 331.783 156.192 331.814C156.267 331.845 156.347 331.861 156.428 331.861H204.637C204.718 331.861 204.798 331.845 204.873 331.814C204.948 331.783 205.016 331.737 205.073 331.68C205.13 331.623 205.176 331.555 205.207 331.48C205.238 331.405 205.254 331.325 205.254 331.244V329.18C205.254 329.099 205.238 329.019 205.207 328.944C205.176 328.87 205.13 328.802 205.073 328.744C205.016 328.687 204.948 328.642 204.873 328.611C204.798 328.58 204.718 328.564 204.637 328.564H203.606V298.892H281.264C281.887 298.892 282.504 298.769 283.079 298.531C283.655 298.292 284.178 297.942 284.619 297.502C285.06 297.061 285.409 296.538 285.648 295.962C285.886 295.386 286.009 294.769 286.009 294.146V279.111H75.0566Z" fill="#3F3D56"/>
<path d="M177.983 235.958C188.717 235.958 197.418 227.255 197.418 216.519C197.418 205.783 188.717 197.08 177.983 197.08C167.25 197.08 158.549 205.783 158.549 216.519C158.549 227.255 167.25 235.958 177.983 235.958Z" fill="#EF293D"/>
<path d="M227.501 107.42H224.397C224.397 83.949 201.173 68.5686 177.745 68.5562C174.337 68.5463 170.937 68.877 167.595 69.5435C163.833 70.2948 159.929 71.1952 156.092 72.3687C140.964 77.007 126.934 85.9732 126.934 107.42C126.931 111.585 127.461 115.733 128.511 119.764L125.506 120.546C124.392 116.26 123.829 111.849 123.83 107.42C123.83 88.6804 131.522 75.8086 144.806 68.134C151.79 64.098 160.314 61.4963 170.078 60.2296C174.142 59.6889 178.25 59.5641 182.339 59.8571C209.281 61.7943 227.501 82.4587 227.501 107.42Z" fill="#EF293D"/>
<path d="M232.673 109.14L231.45 100.099C231.148 97.816 230.049 95.7133 228.346 94.1631C227.253 93.1525 225.944 92.4038 224.519 91.9735C223.094 91.5432 221.59 91.4426 220.12 91.6794L218.177 91.9464C217.646 92.0164 217.133 92.1913 216.67 92.461C216.206 92.7307 215.801 93.0897 215.477 93.5173C215.15 93.9435 214.912 94.4302 214.774 94.9492C214.637 95.4682 214.603 96.0093 214.676 96.5413L217.501 117.367C217.617 118.216 217.997 119.007 218.588 119.627C219.178 120.248 219.949 120.667 220.791 120.826C221.04 120.876 221.294 120.901 221.548 120.9C221.731 120.9 221.913 120.888 222.095 120.863L224.267 120.571C225.592 120.395 226.867 119.95 228.013 119.264C229.16 118.577 230.154 117.663 230.934 116.579C231.102 116.343 231.263 116.1 231.412 115.852C232.576 113.82 233.02 111.455 232.673 109.14Z" fill="#EF293D"/>
<path d="M216.923 92.3252C216.354 92.6022 215.858 93.0108 215.477 93.5174C215.15 93.9436 214.912 94.4302 214.774 94.9492C214.637 95.4682 214.603 96.0093 214.676 96.5413L217.501 117.367C217.617 118.216 217.997 119.007 218.588 119.627C219.178 120.248 219.949 120.667 220.791 120.826L216.923 92.3252Z" fill="white"/>
<path d="M232.671 109.14L231.448 100.099C231.146 97.816 230.047 95.7133 228.344 94.1631L231.156 114.883C231.198 115.216 231.284 115.542 231.41 115.852C232.574 113.82 233.018 111.455 232.671 109.14V109.14Z" fill="#3F3D56"/>
<path d="M223.007 115.654C223.856 115.538 224.283 113.517 223.961 111.138C223.638 108.759 222.688 106.924 221.839 107.04C220.989 107.155 220.562 109.177 220.885 111.555C221.208 113.934 222.158 115.769 223.007 115.654Z" fill="#3F3D56"/>
<path d="M221.144 104.477C221.993 104.362 222.42 102.34 222.097 99.9615C221.775 97.5828 220.825 95.7479 219.975 95.8631C219.126 95.9784 218.699 98.0001 219.022 100.379C219.344 102.758 220.294 104.592 221.144 104.477Z" fill="#3F3D56"/>
<path d="M232.939 108.824C233.788 108.708 234.215 106.687 233.892 104.308C233.57 101.929 232.62 100.094 231.77 100.21C230.921 100.325 230.494 102.347 230.817 104.725C231.139 107.104 232.089 108.939 232.939 108.824Z" fill="#3F3D56"/>
<path d="M177.745 68.5562C174.338 68.5463 170.938 68.877 167.596 69.5435C163.834 70.2948 159.929 71.1952 156.092 72.3687C150.102 72.0769 145.694 70.5245 144.807 68.134C151.79 64.098 160.314 61.4963 170.079 60.2296C174.142 59.6889 178.25 59.5641 182.339 59.8571C182.772 60.1109 183.146 60.4534 183.437 60.8622C183.728 61.271 183.93 61.7368 184.028 62.229C184.32 64.3898 181.855 66.6872 177.745 68.5562Z" fill="#3F3D56"/>
<path d="M138.113 128.966L133.333 109.09C133.163 108.373 132.784 107.722 132.245 107.22C131.706 106.717 131.031 106.385 130.304 106.265C130.098 106.233 129.891 106.216 129.683 106.215C129.39 106.216 129.098 106.252 128.814 106.321L126.964 106.768C124.582 107.344 122.526 108.842 121.247 110.933C119.968 113.023 119.57 115.536 120.142 117.92L122.283 126.836C122.772 128.935 123.937 130.816 125.598 132.189C125.867 132.406 126.149 132.607 126.442 132.791C127.483 133.443 128.644 133.88 129.856 134.077C131.068 134.273 132.308 134.224 133.501 133.933L135.345 133.486C135.832 133.373 136.291 133.159 136.692 132.859C137.288 132.424 137.741 131.822 137.994 131.129C138.248 130.436 138.289 129.683 138.113 128.966Z" fill="#EF293D"/>
<path d="M128.093 125.268C128.926 125.067 129.147 123.013 128.585 120.679C128.024 118.345 126.893 116.616 126.06 116.816C125.226 117.017 125.006 119.071 125.567 121.405C126.129 123.739 127.26 125.469 128.093 125.268Z" fill="#3F3D56"/>
<path d="M121.886 127.131C122.719 126.93 122.94 124.875 122.378 122.541C121.817 120.208 120.686 118.478 119.853 118.679C119.019 118.879 118.799 120.934 119.36 123.268C119.922 125.602 121.053 127.331 121.886 127.131Z" fill="#3F3D56"/>
<path d="M138.417 128.891L133.637 109.016C133.451 108.24 133.04 107.536 132.456 106.993C131.872 106.449 131.141 106.09 130.354 105.961L136.878 133.108C137.522 132.636 138.012 131.983 138.286 131.233C138.56 130.483 138.606 129.668 138.417 128.891V128.891Z" fill="white"/>
<path d="M121.223 113.983C121.091 113.43 120.843 112.912 120.496 112.462C119.825 114.202 119.701 116.107 120.143 117.92L122.284 126.836C122.773 128.935 123.938 130.816 125.599 132.189L121.223 113.983Z" fill="#3F3D56"/>
</g>
<defs>
<clipPath id="clip0_3126_44838">
<rect width="528" height="460" fill="white" transform="translate(0.5)"/>
</clipPath>
</defs>
</svg>
