<svg width="443" height="430" viewBox="0 0 443 430" fill="none" xmlns="http://www.w3.org/2000/svg">
<path d="M83.8703 162.277C73.9272 251.043 91.5826 342.379 195.157 355.201C248.548 361.809 358.538 338.077 361.439 269.707C365.465 175.449 260.244 209.953 216.095 178.349C185.83 156.689 209.222 98.2415 153.419 88.4471C109.249 80.6923 88.0027 125.383 83.8703 162.277Z" fill="#F5F5F5"/>
<path d="M443 429.158C443 429.307 343.824 429.434 221.511 429.434C99.1975 429.434 0 429.307 0 429.158C0 429.01 99.155 428.882 221.511 428.882C343.866 428.882 443 429.052 443 429.158Z" fill="#282828"/>
<path d="M358.907 162.001C359.122 161.973 359.335 161.93 359.544 161.873C359.841 161.77 360.112 161.602 360.336 161.381C360.56 161.161 360.732 160.893 360.84 160.598C360.97 160.146 361.009 159.674 360.957 159.207C360.957 158.686 360.957 158.144 360.957 157.496C360.957 156.254 360.957 154.83 360.957 153.247C360.957 146.799 360.904 137.493 360.862 126.021C360.862 120.263 360.862 113.974 360.862 107.218C360.862 103.829 360.862 100.334 360.862 96.7329C360.862 94.9376 360.862 93.1105 360.862 91.2621C360.862 90.3591 360.862 89.3606 360.862 88.5107C360.792 88.0967 360.584 87.7187 360.271 87.4387C359.959 87.1587 359.56 86.9936 359.141 86.9704H309.595C309.114 86.9702 308.652 87.1576 308.307 87.4929C307.961 87.8281 307.761 88.2847 307.747 88.7657C307.747 89.828 307.747 90.8903 307.747 92.0163V111.085C307.747 119.36 307.747 127.338 307.747 134.944C307.747 142.55 307.747 149.816 307.747 156.519V159.037C307.714 159.436 307.714 159.838 307.747 160.237C307.808 160.598 307.979 160.932 308.235 161.193C308.488 161.46 308.813 161.649 309.17 161.735C309.55 161.792 309.934 161.809 310.318 161.788H321.716L348.943 161.884L356.379 161.937H358.302H358.96C358.96 161.937 358.737 161.937 358.302 161.937H356.379L348.943 161.99L321.716 162.075H312.697H310.318C309.899 162.1 309.478 162.078 309.064 162.011C308.624 161.912 308.224 161.683 307.917 161.353C307.598 161.026 307.383 160.612 307.301 160.163C307.27 159.738 307.27 159.312 307.301 158.888V156.37C307.301 149.614 307.301 142.391 307.301 134.795C307.301 127.2 307.301 119.211 307.301 110.936C307.301 106.807 307.301 102.6 307.301 98.3158V91.8676C307.301 90.8053 307.301 89.743 307.301 88.5957C307.32 87.972 307.581 87.3803 308.03 86.946C308.478 86.5117 309.077 86.269 309.701 86.2693H359.173C359.704 86.3028 360.209 86.5153 360.604 86.8721C361 87.229 361.263 87.7092 361.35 88.2345C361.425 89.2968 361.35 90.1254 361.35 91.0709V96.5417C361.35 100.143 361.35 103.638 361.35 107.027C361.35 113.783 361.35 120.072 361.35 125.829C361.35 137.302 361.287 146.608 361.265 153.056C361.265 154.66 361.265 156.084 361.265 157.305C361.265 157.921 361.265 158.495 361.265 159.016C361.307 159.495 361.256 159.978 361.117 160.439C361.001 160.748 360.816 161.026 360.574 161.251C360.332 161.476 360.042 161.642 359.725 161.735C359.482 161.897 359.199 161.989 358.907 162.001Z" fill="#282828"/>
<path d="M337.748 101.556C330.525 99.9516 322.589 103.871 320.56 111.318C318.606 118.467 323.333 126.817 330.503 128.761C334.04 129.609 337.765 129.131 340.973 127.418C344.181 125.705 346.651 122.876 347.915 119.466C350.485 111.828 345.588 103.595 338.194 101.163C337.345 100.876 337.005 102.225 337.833 102.501C344.133 104.806 348.658 111.605 346.767 118.436C344.983 124.916 337.387 129.25 330.907 127.529C324.671 125.872 320.645 119.179 321.442 112.943C322.409 105.306 330.493 100.738 337.685 101.981C337.95 101.981 338.067 101.63 337.801 101.577L337.748 101.556Z" fill="#282828"/>
<path d="M330.567 128.538C334.229 129.619 338.169 129.224 341.544 127.438C344.919 125.651 347.461 122.614 348.626 118.978C350.878 111.223 345.853 102.831 338.3 100.525C336.558 99.9942 335.931 102.565 337.557 103.202C343.93 105.709 348.18 112.646 345.672 119.456C343.42 125.511 336.792 128.432 330.641 127.741C330.152 127.678 330.089 128.443 330.535 128.57L330.567 128.538Z" fill="#EF293D"/>
<path d="M348.975 141.243C348.975 141.392 342.41 141.519 334.294 141.519C326.178 141.519 319.613 141.392 319.613 141.243C319.613 141.095 326.189 140.967 334.294 140.967C342.4 140.967 348.975 141.095 348.975 141.243Z" fill="#EF293D"/>
<path d="M348.975 145.694C348.975 145.854 342.41 145.97 334.294 145.97C326.178 145.97 319.613 145.854 319.613 145.694C319.613 145.535 326.189 145.418 334.294 145.418C342.4 145.418 348.975 145.545 348.975 145.694Z" fill="#EF293D"/>
<path d="M148.84 40.4629V138.683C148.843 139.73 149.26 140.734 150 141.474C150.741 142.215 151.744 142.632 152.792 142.635H283.624C284.672 142.632 285.675 142.215 286.416 141.474C287.156 140.734 287.573 139.73 287.576 138.683V37.0635C287.576 36.5355 287.471 36.0128 287.265 35.5263C287.06 35.0398 286.76 34.5994 286.381 34.231C286.003 33.8626 285.555 33.5738 285.063 33.3815C284.571 33.1893 284.046 33.0976 283.518 33.1118L152.685 36.5111C151.657 36.5415 150.68 36.9709 149.962 37.7084C149.245 38.4459 148.842 39.4338 148.84 40.4629Z" fill="#E0E0E0"/>
<path d="M275.89 57.651C275.89 57.7572 274.222 56.8118 271.057 55.8132C266.568 54.4136 261.821 54.0504 257.172 54.7509C253.996 55.2536 250.919 56.2575 248.058 57.7253C244.79 59.4818 241.766 61.6566 239.06 64.1947C236.107 66.808 233.175 69.7612 229.797 72.4913C226.352 75.4293 222.322 77.6019 217.973 78.8651C215.72 79.4468 213.375 79.5875 211.068 79.2794C208.856 78.9456 206.708 78.2795 204.695 77.3035C201.009 75.3804 197.434 73.2525 193.987 70.9297C190.898 68.8803 187.491 67.3549 183.906 66.4149C180.779 65.6565 177.55 65.4089 174.345 65.682C169.667 66.0714 165.139 67.5248 161.109 69.9312C158.272 71.6733 156.934 72.9693 156.859 72.8843C157.145 72.5374 157.465 72.2205 157.815 71.9389C158.777 71.0746 159.808 70.2895 160.896 69.5912C164.3 67.3938 168.11 65.9023 172.101 65.2052C176.092 64.5081 180.182 64.6197 184.129 65.5332C187.814 66.4534 191.319 67.9868 194.497 70.0692C197.923 72.3462 201.47 74.4384 205.12 76.3368C209.015 78.3211 213.492 78.8449 217.74 77.8134C221.946 76.5747 225.844 74.4646 229.181 71.6202C232.516 68.9538 235.459 66.0113 238.455 63.398C241.238 60.8303 244.345 58.6375 247.697 56.8755C250.65 55.444 253.813 54.4937 257.066 54.0604C261.811 53.3969 266.645 53.8665 271.173 55.4308C272.398 55.8475 273.587 56.359 274.732 56.9605C275.141 57.1501 275.529 57.3815 275.89 57.651Z" fill="#455A64"/>
<path d="M192.539 80.7241H179.738V115.334H192.539V80.7241Z" fill="#455A64"/>
<path d="M246.844 80.7241H234.043V115.334H246.844V80.7241Z" fill="#455A64"/>
<path d="M264.937 60.4023H252.137V115.334H264.937V60.4023Z" fill="#455A64"/>
<path d="M175.98 104.435H163.18V116.077H175.98V104.435Z" fill="#455A64"/>
<path d="M210.644 96.3506H197.844V115.334H210.644V96.3506Z" fill="#455A64"/>
<path d="M228.746 91.9951H215.945V115.334H228.746V91.9951Z" fill="#455A64"/>
<path d="M193.05 119.413C193.05 119.7 189.959 119.923 186.134 119.923C182.31 119.923 179.219 119.7 179.219 119.413C179.219 119.126 182.321 118.903 186.134 118.903C189.948 118.903 193.05 119.126 193.05 119.413Z" fill="#282828"/>
<path d="M177.128 119.413C177.128 119.7 174.026 119.923 170.212 119.923C166.399 119.923 163.297 119.7 163.297 119.413C163.297 119.126 166.399 118.903 170.212 118.903C174.026 118.903 177.128 119.126 177.128 119.413Z" fill="#282828"/>
<path d="M267.465 119.413C267.465 119.7 263.96 119.923 259.647 119.923C255.334 119.923 251.828 119.7 251.828 119.413C251.828 119.126 255.323 118.903 259.647 118.903C263.97 118.903 267.465 119.126 267.465 119.413Z" fill="#282828"/>
<path d="M240.631 119.923C244.949 119.923 248.45 119.695 248.45 119.413C248.45 119.131 244.949 118.903 240.631 118.903C236.313 118.903 232.812 119.131 232.812 119.413C232.812 119.695 236.313 119.923 240.631 119.923Z" fill="#282828"/>
<path d="M228.735 119.413C228.735 119.7 225.643 119.923 221.819 119.923C217.995 119.923 214.914 119.7 214.914 119.413C214.914 119.126 218.005 118.903 221.819 118.903C225.633 118.903 228.735 119.126 228.735 119.413Z" fill="#282828"/>
<path d="M210.038 119.413C210.038 119.7 206.936 119.923 203.123 119.923C199.309 119.923 196.207 119.7 196.207 119.413C196.207 119.126 199.298 118.903 203.123 118.903C206.947 118.903 210.038 119.126 210.038 119.413Z" fill="#282828"/>
<path d="M251.754 162.553H251.966C252.185 162.572 252.398 162.633 252.593 162.733C252.919 162.9 253.186 163.164 253.358 163.488C253.563 163.947 253.64 164.454 253.581 164.954C253.581 167.206 253.581 170.51 253.634 174.748C253.687 178.987 253.634 184.213 253.687 190.258C253.687 193.289 253.687 196.518 253.687 199.946V203.844C253.748 204.327 253.659 204.817 253.432 205.247C253.18 205.691 252.765 206.019 252.274 206.16C251.801 206.246 251.32 206.274 250.84 206.245H248.057L248.248 206.054C248.248 209.113 248.248 212.428 248.248 215.848V216.411L247.876 215.987L239.197 206.203L239.367 206.277H149.9H143.643C143.293 206.277 142.985 206.277 142.581 206.277C142.193 206.229 141.825 206.075 141.519 205.831C141.212 205.576 140.98 205.242 140.85 204.864C140.791 204.671 140.759 204.471 140.754 204.269V181.642C140.754 176.384 140.754 171.211 140.754 166.154V164.242C140.766 163.886 140.871 163.54 141.057 163.236C141.243 162.933 141.505 162.683 141.816 162.51C142.147 162.35 142.511 162.273 142.879 162.287H153.013L204.396 162.351L239.027 162.436L248.45 162.489H250.893H251.732H250.893H248.45H239.027L204.396 162.574L153.013 162.638H142.889C142.617 162.619 142.346 162.674 142.103 162.797C141.864 162.92 141.662 163.103 141.517 163.329C141.371 163.555 141.288 163.814 141.274 164.083V181.642C141.274 186.904 141.274 192.255 141.274 197.694V203.844C141.248 204.162 141.273 204.481 141.349 204.79C141.435 205.066 141.601 205.31 141.827 205.491C142.055 205.676 142.332 205.79 142.624 205.82H149.89H239.357H239.463L239.526 205.895L248.184 215.71L247.812 215.848C247.812 212.417 247.812 209.113 247.812 206.054V205.852H250.829C251.273 205.884 251.718 205.867 252.157 205.799C252.551 205.682 252.885 205.42 253.092 205.066C253.305 204.696 253.401 204.27 253.368 203.844C253.368 203.398 253.368 202.952 253.368 202.517V199.903C253.368 196.472 253.368 193.243 253.368 190.215C253.368 184.171 253.368 178.965 253.368 174.706C253.368 170.446 253.368 167.163 253.368 164.911C253.437 164.429 253.375 163.937 253.188 163.488C253.029 163.175 252.781 162.917 252.476 162.744C252.248 162.64 252.003 162.576 251.754 162.553Z" fill="#282828"/>
<path d="M146.703 198.395C147.595 195.282 148.637 192.106 150.708 189.62C152.779 187.134 156.147 185.467 159.281 186.274C164.242 187.549 166.632 194.156 171.699 194.772C174.503 195.155 177.234 193.476 179.04 191.299C180.845 189.121 181.961 186.476 183.342 184.011C185.466 180.304 188.26 176.873 192.074 175.014C195.888 173.155 200.795 173.144 204.131 175.768C209.846 180.272 209.049 190.215 215.136 194.188C216.617 195.119 218.34 195.589 220.088 195.538C221.836 195.487 223.529 194.917 224.952 193.901C227.661 191.894 229.042 188.43 231.889 186.635C235.182 184.511 239.75 185.371 242.735 187.878C245.72 190.385 247.271 194.252 247.834 198.097" fill="#EF293D"/>
<path d="M245.784 180.527C245.698 180.509 245.616 180.476 245.54 180.431L244.839 180.102C243.922 179.713 242.978 179.393 242.013 179.146C238.429 178.377 234.711 178.486 231.178 179.465C228.74 180.125 226.369 181.007 224.092 182.099C221.617 183.247 219.057 184.649 216.327 186.062C213.481 187.601 210.518 188.915 207.467 189.992C204.168 191.16 200.666 191.648 197.174 191.426C193.699 191.098 190.295 190.238 187.082 188.877C183.948 187.623 181.069 186.147 178.328 184.766C172.868 181.961 167.705 179.72 163.159 179.04C159.553 178.382 155.838 178.653 152.366 179.826C151.107 180.299 149.898 180.893 148.754 181.6C148.817 181.534 148.889 181.477 148.966 181.43L149.604 180.973C150.447 180.433 151.344 179.98 152.281 179.624C155.781 178.354 159.552 178.017 163.222 178.647C167.886 179.295 173.07 181.526 178.551 184.309C181.303 185.679 184.182 187.145 187.283 188.377C190.448 189.711 193.797 190.553 197.216 190.874C200.637 191.093 204.066 190.616 207.297 189.472C210.322 188.418 213.259 187.129 216.082 185.615C218.823 184.203 221.394 182.822 223.901 181.685C226.209 180.596 228.613 179.725 231.082 179.082C234.674 178.118 238.451 178.071 242.066 178.944C243.385 179.261 244.642 179.796 245.784 180.527Z" fill="#282828"/>
<path d="M198.382 173.75C198.393 173.972 198.336 174.193 198.22 174.383C198.104 174.573 197.934 174.725 197.731 174.817C197.529 174.91 197.303 174.94 197.083 174.903C196.864 174.866 196.66 174.764 196.499 174.61C196.337 174.457 196.226 174.258 196.178 174.041C196.13 173.823 196.149 173.596 196.232 173.389C196.315 173.182 196.457 173.005 196.642 172.88C196.826 172.754 197.044 172.688 197.267 172.687C197.553 172.689 197.827 172.801 198.034 172.998C198.241 173.195 198.366 173.464 198.382 173.75Z" fill="#455A64"/>
<path d="M158.356 178.477C158.356 178.698 158.29 178.913 158.168 179.097C158.045 179.28 157.871 179.423 157.667 179.507C157.463 179.592 157.239 179.614 157.023 179.571C156.806 179.528 156.608 179.422 156.452 179.266C156.296 179.11 156.189 178.911 156.146 178.695C156.103 178.478 156.125 178.254 156.21 178.05C156.294 177.846 156.437 177.672 156.621 177.549C156.804 177.427 157.02 177.362 157.24 177.362C157.389 177.354 157.537 177.377 157.676 177.431C157.815 177.484 157.941 177.566 158.046 177.671C158.151 177.776 158.233 177.902 158.286 178.041C158.34 178.18 158.363 178.328 158.356 178.477Z" fill="#455A64"/>
<path d="M238.006 178.487C238.006 178.71 237.94 178.928 237.816 179.113C237.692 179.298 237.517 179.442 237.311 179.528C237.105 179.613 236.879 179.635 236.66 179.592C236.442 179.548 236.241 179.441 236.084 179.284C235.926 179.126 235.819 178.925 235.776 178.707C235.732 178.489 235.754 178.262 235.84 178.056C235.925 177.851 236.069 177.675 236.254 177.551C236.44 177.427 236.657 177.361 236.88 177.361C237.179 177.361 237.465 177.48 237.676 177.691C237.887 177.902 238.006 178.189 238.006 178.487Z" fill="#455A64"/>
<path d="M313.449 336.005H323.403C328.045 336.005 337.999 323.799 283.992 325.191C248.49 326.104 246.153 331.352 247.948 334.412C248.382 335.106 249 335.668 249.733 336.033C250.466 336.399 251.286 336.555 252.102 336.483C252.973 336.419 254.12 336.409 255.48 336.419L254.63 340.159L234.871 427.501L238.313 427.203L252.909 379.124L280.752 378.061L282.345 429.179H286.711L287.774 377.796H287.912L290.854 377.69L315.531 376.734L330.159 429.19H334.345L313.449 336.005ZM255.023 372.272L264.764 340.159L265.827 336.526C269.906 336.526 274.675 336.43 279.456 336.43L280.518 371.486L255.023 372.272ZM291.736 371.125H290.674L287.965 371.21L288.687 335.973H304.239L313.8 370.402L291.736 371.125Z" fill="#455A64"/>
<path d="M224.483 423.156V411.864L244.72 411.737L244.88 428.616L243.626 428.712C238.049 429.073 215.231 429.774 211.491 428.606C207.327 427.32 224.483 423.156 224.483 423.156Z" fill="#EF293D"/>
<path d="M211.012 427.575C211.012 427.766 218.575 427.926 227.913 427.926C237.251 427.926 244.814 427.766 244.814 427.575C244.814 427.384 237.251 427.235 227.913 427.235C218.575 427.235 211.012 427.384 211.012 427.575Z" fill="#282828"/>
<path d="M224.134 425.461C224.304 425.376 224.134 424.782 223.72 424.187C223.306 423.592 222.764 423.284 222.658 423.422C222.551 423.56 222.796 424.049 223.199 424.601C223.603 425.153 223.964 425.557 224.134 425.461Z" fill="#282828"/>
<path d="M222.839 426.205C223.02 426.141 222.924 425.472 222.531 424.771C222.138 424.07 221.607 423.634 221.469 423.709C221.331 423.783 221.575 424.41 221.947 425.058C222.319 425.706 222.659 426.279 222.839 426.205Z" fill="#282828"/>
<path d="M238.717 427.501C238.802 427.501 239.1 427.257 239.535 426.757C240.072 426.114 240.666 425.52 241.309 424.983C241.944 424.481 242.698 424.152 243.497 424.027C244.114 423.942 244.56 424.027 244.56 423.942C244.56 423.857 244.22 423.592 243.497 423.539C242.555 423.532 241.64 423.851 240.905 424.442C240.199 425.006 239.605 425.698 239.153 426.481C238.802 427.055 238.643 427.448 238.717 427.501Z" fill="#282828"/>
<path d="M224.071 423.337C223.975 423.496 224.315 423.889 224.899 424.102C225.484 424.314 225.962 424.24 226.025 424.102C226.089 423.964 225.643 423.687 225.133 423.496C224.623 423.305 224.166 423.177 224.071 423.337Z" fill="#282828"/>
<path d="M224.387 422.253C224.387 422.434 224.907 422.604 225.587 422.604C226.267 422.604 226.819 422.466 226.809 422.285C226.798 422.104 226.256 421.934 225.598 421.924C224.939 421.913 224.408 422.062 224.387 422.253Z" fill="#282828"/>
<path d="M267.176 423.156V411.864L287.413 411.737L287.572 428.616L286.319 428.712C280.742 429.073 257.923 429.774 254.184 428.606C250.03 427.32 267.176 423.156 267.176 423.156Z" fill="#EF293D"/>
<path d="M253.719 427.575C253.719 427.766 261.293 427.926 270.62 427.926C279.947 427.926 287.521 427.766 287.521 427.575C287.521 427.384 279.958 427.235 270.62 427.235C261.282 427.235 253.719 427.384 253.719 427.575Z" fill="#282828"/>
<path d="M266.837 425.461C267.007 425.376 266.837 424.782 266.422 424.187C266.008 423.592 265.466 423.284 265.36 423.422C265.254 423.56 265.509 424.049 265.902 424.601C266.295 425.153 266.667 425.557 266.837 425.461Z" fill="#282828"/>
<path d="M265.542 426.205C265.723 426.141 265.627 425.472 265.234 424.771C264.841 424.07 264.31 423.634 264.172 423.709C264.034 423.783 264.278 424.41 264.65 425.058C265.022 425.706 265.372 426.279 265.542 426.205Z" fill="#282828"/>
<path d="M281.42 427.501C281.505 427.501 281.803 427.257 282.238 426.757C282.775 426.114 283.369 425.52 284.012 424.983C284.647 424.481 285.401 424.152 286.201 424.027C286.817 423.942 287.263 424.027 287.263 423.942C287.263 423.857 286.912 423.592 286.201 423.539C285.258 423.532 284.343 423.851 283.609 424.442C282.902 425.006 282.308 425.698 281.856 426.481C281.505 427.055 281.346 427.448 281.42 427.501Z" fill="#282828"/>
<path d="M266.773 423.337C266.678 423.496 267.028 423.889 267.602 424.102C268.176 424.314 268.664 424.24 268.728 424.102C268.792 423.964 268.346 423.687 267.836 423.496C267.326 423.305 266.88 423.177 266.773 423.337Z" fill="#282828"/>
<path d="M267.094 422.253C267.094 422.434 267.614 422.604 268.294 422.604C268.974 422.604 269.526 422.466 269.516 422.285C269.505 422.104 268.963 421.934 268.305 421.924C267.646 421.913 267.115 422.062 267.094 422.253Z" fill="#282828"/>
<path d="M325.157 220.608C324.328 220.416 323.298 220.523 322.798 219.832C322.299 219.142 322.66 218.334 322.926 217.601C323.814 215.251 323.841 212.661 323 210.293C322.398 208.731 321.335 207.39 319.951 206.447C320.154 206.252 320.329 206.031 320.472 205.788C320.864 205.081 321.062 204.282 321.046 203.473C321.072 202.753 320.947 202.036 320.678 201.368C320.409 200.7 320.002 200.096 319.484 199.595C319.029 199.182 318.436 198.954 317.822 198.954C317.207 198.954 316.614 199.182 316.159 199.595C315.99 199.754 315.856 199.946 315.764 200.159C315.672 200.372 315.624 200.601 315.624 200.833C315.624 201.065 315.672 201.294 315.764 201.507C315.856 201.72 315.99 201.912 316.159 202.07C316.382 202.253 316.652 202.368 316.937 202.404C317.223 202.44 317.513 202.394 317.774 202.272C318.124 202.092 318.177 201.869 318.177 201.869C318.046 201.994 317.895 202.098 317.731 202.177C317.49 202.261 317.23 202.281 316.979 202.235C316.727 202.188 316.492 202.077 316.297 201.911C316.158 201.767 316.05 201.596 315.981 201.408C315.912 201.221 315.882 201.021 315.894 200.821C315.906 200.621 315.959 200.426 316.051 200.248C316.142 200.07 316.269 199.913 316.425 199.786C316.831 199.448 317.35 199.274 317.878 199.297C318.407 199.321 318.907 199.541 319.282 199.914C319.739 200.385 320.094 200.945 320.324 201.559C320.555 202.173 320.656 202.828 320.621 203.483C320.635 204.209 320.452 204.925 320.09 205.555C319.946 205.79 319.771 206.005 319.569 206.192C319.001 205.85 318.385 205.596 317.742 205.438C316.372 205.109 314.884 205.194 313.631 204.546C312.585 203.948 311.789 202.994 311.389 201.858C311.389 201.741 311.389 201.614 311.389 201.486C311.539 199.639 311.791 197.802 312.144 195.983C312.379 194.217 312.333 192.424 312.005 190.672C311.761 189.177 311.177 187.759 310.298 186.525C309.42 185.291 308.271 184.275 306.938 183.555C306.024 183.104 305.021 182.861 304.002 182.843C302.983 182.824 301.973 183.031 301.043 183.448C300.545 183.676 300.086 183.981 299.683 184.351L299.46 184.585C298.832 184.897 298.278 185.338 297.834 185.881L294.562 215.392L318.56 230.062C320.428 230 322.275 229.641 324.031 229C324.906 228.666 325.692 228.133 326.326 227.444C326.96 226.754 327.425 225.927 327.685 225.027C327.907 224.107 327.769 223.136 327.299 222.315C326.829 221.493 326.063 220.882 325.157 220.608ZM309.403 189.705C308.984 188.54 308.337 187.471 307.5 186.559C306.662 185.647 305.652 184.911 304.527 184.394C302.961 183.78 301.216 183.811 299.672 184.479C300.102 184.149 300.573 183.877 301.074 183.671C301.978 183.306 302.949 183.139 303.923 183.183C304.896 183.227 305.849 183.481 306.715 183.926C307.972 184.638 309.051 185.625 309.872 186.814C310.692 188.002 311.233 189.361 311.453 190.789C311.75 192.48 311.786 194.207 311.559 195.909C311.421 197.237 311.049 198.575 310.879 199.999C310.748 198.991 310.67 197.977 310.646 196.961C310.641 194.49 310.22 192.037 309.403 189.705Z" fill="#282828"/>
<path d="M302.296 189.663C302.152 189.097 301.823 188.596 301.361 188.239C300.453 187.829 299.422 187.783 298.482 188.112L298.429 181.334L285.235 170.605L278.128 174.291C276.308 175.238 274.784 176.67 273.727 178.428C272.67 180.187 272.119 182.204 272.137 184.256C272.19 189.716 272.328 197.12 272.69 201.327C273.306 208.551 280.614 209.145 280.614 209.145C280.614 209.145 280.933 211.748 281.145 214.329C281.145 214.329 279.541 235.714 287.062 235.522C292.608 235.384 296.336 223.731 297.908 217.601L298.748 214.234V214.053V213.915L298.588 193.636L298.811 193.87C299.051 194.073 299.344 194.201 299.656 194.239C299.968 194.276 300.283 194.222 300.564 194.082C300.963 193.905 301.322 193.649 301.62 193.329C301.917 193.01 302.147 192.634 302.296 192.223C302.577 191.393 302.577 190.493 302.296 189.663Z" fill="#FFBE9D"/>
<path d="M273.817 189.535C273.818 189.657 273.844 189.777 273.893 189.889C273.941 190.001 274.011 190.102 274.1 190.186C274.188 190.27 274.292 190.336 274.405 190.379C274.519 190.422 274.641 190.443 274.762 190.438C275.008 190.438 275.243 190.341 275.416 190.168C275.589 189.994 275.687 189.759 275.687 189.514C275.687 189.269 275.589 189.034 275.416 188.861C275.243 188.687 275.008 188.59 274.762 188.59C274.637 188.585 274.512 188.607 274.395 188.653C274.279 188.699 274.173 188.768 274.084 188.857C273.995 188.946 273.926 189.052 273.88 189.168C273.834 189.285 273.813 189.41 273.817 189.535Z" fill="#282828"/>
<path d="M272.894 188.558C273.011 188.675 273.68 188.07 274.679 187.995C275.677 187.921 276.431 188.378 276.538 188.24C276.644 188.101 276.453 187.963 276.123 187.751C275.678 187.468 275.151 187.341 274.625 187.39C274.102 187.435 273.607 187.647 273.213 187.995C272.926 188.261 272.83 188.505 272.894 188.558Z" fill="#282828"/>
<path d="M284.543 189.217C284.543 189.462 284.64 189.697 284.814 189.87C284.987 190.044 285.222 190.141 285.467 190.141C285.712 190.141 285.947 190.044 286.121 189.87C286.294 189.697 286.391 189.462 286.391 189.217C286.391 188.972 286.294 188.736 286.121 188.563C285.947 188.39 285.712 188.292 285.467 188.292C285.222 188.292 284.987 188.39 284.814 188.563C284.64 188.736 284.543 188.972 284.543 189.217Z" fill="#282828"/>
<path d="M283.952 188.229C284.069 188.346 284.739 187.751 285.737 187.666C286.736 187.581 287.49 188.048 287.596 187.921C287.702 187.793 287.511 187.634 287.182 187.421C286.733 187.15 286.21 187.027 285.687 187.071C285.164 187.115 284.668 187.323 284.271 187.666C283.984 187.91 283.889 188.176 283.952 188.229Z" fill="#282828"/>
<path d="M280.542 196.791C280.004 196.903 279.455 196.946 278.906 196.918C278.762 196.938 278.615 196.938 278.471 196.918C278.375 196.898 278.286 196.856 278.211 196.795C278.135 196.734 278.075 196.656 278.035 196.568C277.934 196.217 277.956 195.842 278.099 195.505L278.704 193.381C279.166 191.567 279.766 189.791 280.499 188.069C280.177 189.911 279.715 191.726 279.118 193.498L278.481 195.622C278.362 195.87 278.321 196.148 278.364 196.419C278.417 196.6 278.651 196.631 278.906 196.631C279.456 196.607 280.007 196.661 280.542 196.791Z" fill="#282828"/>
<path d="M283.994 197.598C284.057 197.524 281.115 199.372 279.086 199.425C279.462 199.923 279.995 200.279 280.598 200.435C281.202 200.591 281.841 200.539 282.411 200.286C282.965 200.12 283.436 199.751 283.729 199.252C284.023 198.754 284.117 198.163 283.994 197.598Z" fill="#FAFAFA"/>
<path d="M280.574 209.156C284.007 208.93 287.303 207.724 290.071 205.682C290.071 205.682 288.032 211.047 280.776 210.92L280.574 209.156Z" fill="#EB996E"/>
<path d="M271.087 185.127C274.273 185.562 276.557 184.702 279.638 183.926C282.719 183.151 285.651 181.122 286.724 178.126C287.093 180.107 288.005 181.945 289.358 183.438C289.645 183.756 290.197 184.054 290.42 183.703C290.468 183.6 290.493 183.488 290.493 183.374C290.493 183.26 290.468 183.148 290.42 183.045L289.783 180.516C290.874 182.51 292.292 184.305 293.979 185.828C295.743 187.241 301.107 189.429 300.289 187.326C300.087 186.795 301.883 170.414 286.309 170.17C270.736 169.925 271.087 185.127 271.087 185.127Z" fill="#282828"/>
<path d="M298.685 189.79C298.632 189.79 298.951 189.419 299.62 189.44C299.961 189.467 300.287 189.593 300.558 189.802C300.829 190.011 301.034 190.294 301.146 190.618C301.259 190.941 301.275 191.29 301.193 191.622C301.11 191.954 300.933 192.255 300.683 192.489C300.386 192.748 300.013 192.901 299.62 192.924C298.951 192.924 298.643 192.605 298.685 192.563C298.728 192.521 299.068 192.637 299.578 192.563C299.894 192.507 300.181 192.34 300.388 192.094C300.594 191.847 300.708 191.536 300.708 191.214C300.708 190.892 300.594 190.581 300.388 190.334C300.181 190.087 299.894 189.921 299.578 189.865C299.047 189.716 298.717 189.875 298.685 189.79Z" fill="#EB996E"/>
<path d="M324.539 240.675L327.216 240.133C327.216 240.133 321.384 213.915 301.115 213.915H298.725V214.043V214.223L297.886 217.591C296.314 223.72 292.574 235.374 287.04 235.512C280.018 235.692 280.953 217.113 281.102 214.606C280.926 214.626 280.754 214.673 280.592 214.744C280.592 214.744 258.549 215.966 248.723 235.299L265.719 247.718L269.873 245.211C269.873 245.211 271.233 272.554 268.896 280.001C266.261 288.414 262.182 297.731 262.182 297.731C280.868 296.275 302.124 297.115 324.783 299.207L309.667 243.702C314.746 243.433 319.758 242.412 324.539 240.675Z" fill="#EF293D"/>
<path d="M306.356 253.773C306.356 253.773 306.218 254.017 305.878 254.367C305.389 254.85 304.851 255.28 304.274 255.653C302.341 256.912 300.067 257.542 297.762 257.459C295.457 257.375 293.235 256.581 291.399 255.185C290.845 254.776 290.339 254.306 289.89 253.783C289.572 253.411 289.434 253.178 289.465 253.156C289.497 253.135 290.22 253.921 291.59 254.867C293.407 256.118 295.544 256.825 297.749 256.906C299.954 256.987 302.136 256.438 304.04 255.323C305.538 254.495 306.282 253.773 306.356 253.773Z" fill="#282828"/>
<path d="M316.168 268.379C315.973 267.956 315.82 267.515 315.711 267.062C315.414 266.106 315.053 264.937 314.649 263.45C313.735 260.401 312.524 256.184 311.016 251.563C309.508 246.942 308.148 242.757 307.128 239.74C306.661 238.316 306.257 237.116 305.938 236.16C305.762 235.733 305.638 235.287 305.566 234.832C305.797 235.234 305.989 235.658 306.14 236.096C306.48 236.914 306.947 238.114 307.5 239.612C308.615 242.597 310.071 246.751 311.537 251.393C313.002 256.035 314.214 260.263 315.021 263.344C315.425 264.884 315.743 266.138 315.934 267.009C316.065 267.455 316.143 267.915 316.168 268.379Z" fill="#282828"/>
<path d="M309.596 226.45C308.643 226.43 307.71 226.178 306.876 225.717C305.971 225.426 305.145 224.927 304.465 224.262C305.384 224.442 306.269 224.764 307.089 225.218C307.982 225.5 308.827 225.915 309.596 226.45Z" fill="#282828"/>
<path d="M314.82 235.544C314.883 234.475 315.131 233.425 315.553 232.442C315.807 231.398 316.238 230.407 316.828 229.51C316.752 230.578 316.501 231.626 316.084 232.612C315.832 233.653 315.404 234.645 314.82 235.544Z" fill="#282828"/>
<path d="M296.625 242.087C296.858 241.113 297.242 240.181 297.762 239.325C298.118 238.387 298.612 237.506 299.228 236.712C298.824 238.694 297.929 240.542 296.625 242.087Z" fill="#282828"/>
<path d="M293.332 247.845C292.385 247.351 291.558 246.654 290.91 245.805C290.127 245.075 289.517 244.178 289.125 243.181C290.655 244.628 292.076 246.187 293.374 247.845H293.332Z" fill="#282828"/>
<path d="M306.48 246.974C305.928 248.125 305.155 249.157 304.207 250.012C303.418 250.863 302.538 251.625 301.583 252.285L300.797 252.763L301.413 252.137C301.562 251.988 301.657 251.924 301.689 251.945C301.721 251.967 301.689 252.084 301.604 252.264L301.434 252.115C301.806 251.669 302.752 250.745 303.814 249.63C304.619 248.665 305.512 247.776 306.48 246.974Z" fill="#282828"/>
<path d="M309.338 265.936C308.285 265.758 307.286 265.344 306.417 264.725C305.45 264.262 304.603 263.582 303.941 262.739C304.913 263.134 305.837 263.64 306.693 264.247C307.642 264.697 308.53 265.265 309.338 265.936Z" fill="#282828"/>
<path d="M296.029 261.602C295.669 262.618 295.133 263.564 294.446 264.396C293.908 265.331 293.219 266.171 292.406 266.881C292.761 265.862 293.297 264.916 293.989 264.088C294.528 263.153 295.217 262.313 296.029 261.602Z" fill="#282828"/>
<path d="M287.295 262.462C286.467 262.157 285.711 261.683 285.075 261.07C283.939 260.189 283.099 259.371 283.195 259.254C283.291 259.137 284.257 259.753 285.415 260.635C286.573 261.517 287.359 262.335 287.295 262.462Z" fill="#282828"/>
<path d="M282.57 249.523C282.655 249.651 281.826 250.395 280.711 251.191C279.595 251.988 278.586 252.53 278.586 252.402C278.586 252.275 279.319 251.531 280.434 250.734C281.056 250.19 281.783 249.778 282.57 249.523Z" fill="#282828"/>
<path d="M280.762 242.969C280.645 243.064 279.88 242.257 279.052 241.174C278.223 240.09 277.66 239.123 277.777 239.049C277.894 238.975 278.669 239.771 279.487 240.855C280.305 241.938 280.89 242.884 280.762 242.969Z" fill="#282828"/>
<path d="M299.703 225.547C299.88 224.624 300.241 223.746 300.765 222.966C301.131 222.1 301.657 221.31 302.316 220.64C302.136 221.565 301.775 222.446 301.254 223.232C300.892 224.097 300.365 224.883 299.703 225.547Z" fill="#282828"/>
<path d="M276.039 226.652C275.061 226.364 274.14 225.908 273.319 225.303C272.407 224.846 271.584 224.231 270.887 223.486C271.87 223.761 272.793 224.219 273.606 224.835C274.52 225.289 275.345 225.904 276.039 226.652Z" fill="#282828"/>
<path d="M263.641 223.476C263.779 223.55 263.386 224.464 262.77 225.494C262.154 226.525 261.548 227.321 261.41 227.236C261.272 227.151 261.675 226.259 262.292 225.218C262.908 224.177 263.513 223.402 263.641 223.476Z" fill="#282828"/>
<path d="M276.535 295.202C274.73 294.463 273.085 293.38 271.691 292.015C272.627 292.311 273.499 292.779 274.262 293.396C275.12 293.861 275.889 294.472 276.535 295.202Z" fill="#282828"/>
<path d="M312.038 291.399C312.155 291.506 311.379 292.525 310.306 293.694C309.233 294.862 308.288 295.712 308.182 295.606C308.075 295.5 308.84 294.48 309.913 293.311C310.986 292.143 311.932 291.293 312.038 291.399Z" fill="#282828"/>
<path d="M287.915 295.383C287.872 293.967 287.872 292.55 287.915 291.134C288.053 291.134 288.435 292.036 288.435 293.258C288.518 294.006 288.333 294.758 287.915 295.383Z" fill="#282828"/>
<path d="M300.467 295.585C299.533 295.332 298.654 294.907 297.875 294.331C297.005 293.909 296.223 293.325 295.57 292.61C297.378 293.28 299.04 294.29 300.467 295.585Z" fill="#282828"/>
<path d="M324.808 299.218C324.596 299.241 324.383 299.241 324.171 299.218L322.344 299.069L315.651 298.474C310 297.985 302.192 297.284 293.545 297.146C284.898 297.008 277.047 297.199 271.385 297.412L264.672 297.699L262.844 297.773C262.633 297.803 262.418 297.803 262.207 297.773L262.834 297.677L264.661 297.507C266.233 297.369 268.528 297.21 271.364 297.04C277.037 296.721 284.876 296.445 293.555 296.615C302.234 296.785 310.042 297.518 315.694 298.102C318.509 298.41 320.793 298.676 322.365 298.878L324.182 299.122C324.394 299.128 324.604 299.16 324.808 299.218Z" fill="#282828"/>
<g opacity="0.2">
<path opacity="0.2" d="M305.547 234.832L310.858 270.153C310.858 270.153 315.777 270.153 316.68 268.687L305.547 234.832Z" fill="black"/>
<path opacity="0.2" d="M305.547 234.832L310.858 270.153C310.858 270.153 315.777 270.153 316.68 268.687L305.547 234.832Z" fill="black"/>
</g>
<path d="M274.711 297.072C262.208 298.039 255.377 297.178 241.62 298.474C236.972 299.087 232.696 301.344 229.567 304.835C226.438 308.327 224.662 312.823 224.56 317.511L222.148 421.414H247.421L251.415 328.261L258.851 329.207C257.895 364.093 261.538 421.414 261.538 421.414L289.604 420.044L288 330.577C288 330.577 325.744 333.137 324.798 299.25C324.809 299.218 295.086 295.617 274.711 297.072Z" fill="#DDE1EA"/>
<path d="M282.261 296.806C281.63 296.948 280.991 297.055 280.348 297.125C279.116 297.316 277.331 297.582 275.143 297.986C272.576 298.345 270.062 299.012 267.654 299.972C266.265 300.587 264.979 301.411 263.84 302.415C262.628 303.498 261.646 304.813 260.951 306.282C259.681 309.186 259.065 312.334 259.145 315.503C259.145 318.435 259.251 321.101 259.23 323.332C259.209 325.563 259.134 327.369 259.049 328.644C259.049 329.27 258.964 329.759 258.922 330.078C258.915 330.246 258.89 330.414 258.847 330.577C258.802 329.933 258.802 329.287 258.847 328.644C258.847 327.39 258.847 325.595 258.847 323.332C258.847 321.069 258.72 318.424 258.646 315.503C258.534 312.252 259.155 309.017 260.462 306.038C261.191 304.506 262.221 303.137 263.49 302.012C264.672 300.975 266.009 300.129 267.452 299.505C269.908 298.55 272.474 297.907 275.09 297.592C277.289 297.242 279.095 297.029 280.338 296.913C280.954 296.859 281.4 296.817 281.772 296.806C281.934 296.78 282.099 296.78 282.261 296.806Z" fill="#455A64"/>
<path d="M249.184 321.76C249.73 322.781 250.188 323.848 250.554 324.947C251.096 325.984 251.39 327.133 251.414 328.304C250.868 327.282 250.41 326.216 250.044 325.117C249.497 324.081 249.202 322.931 249.184 321.76Z" fill="#455A64"/>
<path d="M251.241 319.635C251.718 321.001 251.966 322.437 251.974 323.884C252.139 325.345 251.949 326.825 251.421 328.197C251.251 328.197 251.538 326.264 251.421 323.948C251.305 321.632 251.05 319.635 251.241 319.635Z" fill="#455A64"/>
<path d="M286.094 321.6C286.738 322.996 287.165 324.483 287.358 326.009C287.712 327.496 287.943 329.009 288.048 330.534C287.407 329.135 286.991 327.644 286.816 326.115C286.449 324.633 286.207 323.123 286.094 321.6Z" fill="#455A64"/>
<path d="M288.625 321.579C289.258 324.558 289.09 327.652 288.137 330.545C288.148 329.046 288.243 327.55 288.424 326.062C288.413 324.565 288.48 323.069 288.625 321.579Z" fill="#455A64"/>
<path d="M246.769 415.316C246.769 415.465 241.235 415.593 234.404 415.593C227.574 415.593 222.039 415.465 222.039 415.316C222.039 415.168 227.574 415.04 234.404 415.04C241.235 415.04 246.769 415.157 246.769 415.316Z" fill="#455A64"/>
<path d="M289.263 414.849C289.263 414.998 282.963 415.125 275.198 415.125C267.432 415.125 261.133 414.998 261.133 414.849C261.133 414.7 267.432 414.573 275.198 414.573C282.963 414.573 289.263 414.7 289.263 414.849Z" fill="#455A64"/>
<path d="M321.451 314.77H321.1H320.038H316.001L301.129 314.844H290.878C288.993 314.838 287.114 315.052 285.279 315.482C283.346 315.922 281.615 316.995 280.361 318.53C279.172 320.246 278.538 322.286 278.544 324.373C278.438 326.498 278.672 328.718 278.757 330.981C278.87 335.499 278.994 340.155 279.129 344.95C279.671 364.071 280.117 381.397 280.276 393.943C280.361 400.211 280.382 405.288 280.382 408.815C280.382 410.543 280.382 411.892 280.382 412.863C280.382 413.298 280.382 413.638 280.382 413.925C280.399 414.045 280.399 414.166 280.382 414.286C280.368 414.166 280.368 414.045 280.382 413.925C280.382 413.659 280.382 413.319 280.382 412.863C280.382 411.896 280.382 410.547 280.308 408.815C280.234 405.278 280.138 400.211 280.021 393.943C279.755 381.408 279.256 364.082 278.714 344.95C278.587 340.169 278.47 335.506 278.353 330.991C278.268 328.75 278.045 326.53 278.162 324.331C278.16 322.14 278.836 320.003 280.095 318.212C281.42 316.597 283.25 315.474 285.29 315.025C287.168 314.592 289.089 314.378 291.016 314.387H301.267L316.139 314.494L320.176 314.557H321.238C321.316 314.621 321.387 314.692 321.451 314.77Z" fill="#455A64"/>
<path opacity="0.2" d="M255.865 328.792C255.865 328.792 254.888 316.204 259.615 308.97L258.861 329.153L255.865 328.792Z" fill="black"/>
<path d="M257.903 316.82C257.812 316.834 257.719 316.834 257.627 316.82L256.799 316.671C256.066 316.533 255.003 316.321 253.612 316.161C251.936 315.955 250.237 316.056 248.598 316.459C247.583 316.727 246.626 317.177 245.772 317.787C244.837 318.482 244.089 319.398 243.594 320.453C242.532 322.684 242.404 325.478 242.341 328.41C242.277 331.342 242.192 334.507 242.107 337.822C241.926 344.45 241.735 351.738 241.533 359.386C241.087 374.662 240.673 388.493 240.375 398.564C240.206 403.536 240.057 407.583 239.961 410.43C239.897 411.8 239.855 412.884 239.823 413.617C239.823 413.957 239.823 414.233 239.77 414.456C239.784 414.551 239.784 414.648 239.77 414.743C239.754 414.648 239.754 414.551 239.77 414.456C239.77 414.233 239.77 413.957 239.77 413.617C239.77 412.831 239.77 411.747 239.77 410.43C239.823 407.572 239.908 403.536 240.004 398.553C240.259 388.483 240.62 374.652 241.002 359.365C241.225 351.717 241.427 344.44 241.618 337.811C241.714 334.497 241.81 331.342 241.905 328.399C242.001 325.457 242.107 322.61 243.265 320.283C243.799 319.178 244.598 318.221 245.591 317.5C246.481 316.875 247.479 316.422 248.534 316.161C250.215 315.767 251.957 315.695 253.665 315.949C255.056 316.14 256.119 316.395 256.852 316.554L257.67 316.767C257.818 316.778 257.914 316.809 257.903 316.82Z" fill="#455A64"/>
<path d="M255.949 236.691C255.949 236.691 229.275 263.45 224.187 269.431C219.842 274.541 222.678 284.176 226.311 284.59C229.944 285.004 288.753 284.208 288.753 284.208L287.978 272.182C287.978 272.182 249.884 272.352 248.768 271.651C247.653 270.95 270.8 247.548 270.8 247.548L255.949 236.691Z" fill="#FFBE9D"/>
<path d="M326.485 240.186C326.485 240.186 334.59 264.757 335.567 267.657C336.545 270.557 341.58 282.848 332.019 283.878C322.459 284.909 271.15 283.878 271.15 283.878L267.336 271.46C267.336 271.46 316.924 271.332 316.68 268.687C316.435 266.042 309.148 243.851 309.148 243.851L326.485 240.186Z" fill="#FFBE9D"/>
<path d="M218.207 232.527L236.638 283.581L321.484 283.549L320.9 281.052L289.062 279.884L273.393 231.74L218.207 232.527Z" fill="#282828"/>
<path d="M256.024 255.77C256.035 256.345 255.882 256.911 255.582 257.401C255.281 257.891 254.847 258.285 254.329 258.536C253.812 258.787 253.234 258.884 252.663 258.816C252.092 258.748 251.553 258.518 251.109 258.153C250.665 257.787 250.335 257.303 250.158 256.756C249.981 256.209 249.964 255.622 250.11 255.066C250.257 254.51 250.559 254.008 250.982 253.619C251.405 253.229 251.931 252.969 252.497 252.87C253.348 252.793 254.195 253.054 254.855 253.596C255.515 254.139 255.935 254.92 256.024 255.77Z" fill="#FAFAFA"/>
<path d="M365.365 282.465H164.931H162.753H160.586V429.052H164.931V291.102H365.365V429.158H416.6V291.102V282.465H365.365Z" fill="#455A64"/>
<path d="M118.752 423.326V412.353L99.0997 412.225L98.9297 428.638L100.151 428.723C105.58 429.073 127.771 429.785 131.383 428.627C135.452 427.374 118.752 423.326 118.752 423.326Z" fill="#EF293D"/>
<path d="M131.85 427.629C131.85 427.809 124.499 427.958 115.427 427.958C106.355 427.958 99.0039 427.809 99.0039 427.629C99.0039 427.448 106.355 427.289 115.427 427.289C124.499 427.289 131.85 427.437 131.85 427.629Z" fill="#282828"/>
<path d="M119.104 425.568C118.945 425.483 119.104 424.898 119.497 424.335C119.89 423.772 120.443 423.454 120.559 423.581C120.676 423.709 120.421 424.197 120.028 424.728C119.635 425.26 119.263 425.653 119.104 425.568Z" fill="#282828"/>
<path d="M120.357 426.29C120.187 426.226 120.272 425.578 120.665 424.898C121.058 424.219 121.557 423.836 121.727 423.911C121.897 423.985 121.631 424.58 121.27 425.217C120.909 425.855 120.58 426.354 120.357 426.29Z" fill="#282828"/>
<path d="M104.92 427.554C104.846 427.607 104.549 427.32 104.124 426.832C103.608 426.203 103.031 425.627 102.403 425.111C101.788 424.619 101.056 424.297 100.278 424.176C99.6726 424.091 99.2901 424.176 99.2158 424.091C99.1414 424.006 99.5451 423.751 100.278 423.709C101.194 423.689 102.088 423.998 102.796 424.58C103.478 425.129 104.055 425.799 104.495 426.556C104.846 427.119 104.995 427.501 104.92 427.554Z" fill="#282828"/>
<path d="M119.156 423.507C119.262 423.666 118.922 424.038 118.359 424.251C117.796 424.463 117.297 424.378 117.297 424.197C117.297 424.017 117.669 423.804 118.157 423.624C118.646 423.443 119.06 423.348 119.156 423.507Z" fill="#282828"/>
<path d="M118.848 422.444C118.848 422.625 118.349 422.784 117.679 422.795C117.01 422.806 116.49 422.657 116.5 422.476C116.511 422.296 117.042 422.136 117.679 422.126C118.317 422.115 118.837 422.264 118.848 422.444Z" fill="#282828"/>
<path d="M175.818 96.0532L175.999 92.7282C176.323 90.8876 176.462 89.0193 176.413 87.1511C176.411 86.223 176.245 85.3026 175.925 84.4316C175.573 83.3278 175.073 82.2771 174.437 81.3085C174.279 81.1486 174.175 80.9424 174.141 80.7196C174.107 80.4969 174.145 80.2691 174.249 80.0693C174.353 79.8695 174.518 79.7079 174.72 79.6079C174.922 79.508 175.15 79.4748 175.372 79.5132C176.307 79.7575 178.219 81.9777 179.09 85.2921C179.961 88.6065 182.192 83.6986 183.031 81.9246C183.871 80.1506 186.76 74.7859 187.504 74.616C188.566 74.361 189.087 75.4977 188.194 77.2505C187.302 79.0033 185.007 84.4422 185.985 84.8459C186.678 84.6618 187.402 84.6292 188.109 84.7503C188.221 84.7749 188.322 84.8328 188.4 84.9163C188.477 84.9997 188.528 85.1049 188.545 85.2177C188.586 85.738 188.69 86.2515 188.853 86.7474C188.853 86.7474 190.17 86.3225 190.499 86.8855C190.743 87.4704 190.891 88.0911 190.935 88.7233C190.935 88.7233 191.933 88.2878 192.465 88.6277C193.601 89.3713 192.369 90.9329 192.369 90.9329C189.66 94.8324 186.704 98.5545 183.52 102.076L175.797 95.862" fill="#FFBE9D"/>
<path d="M81.3267 95.8302L81.1992 138.205L99.3327 139.044L99.8532 128.74C99.8532 128.74 106.312 130.026 107.98 124.024C109.042 120.199 108.777 90.593 108.777 90.593L81.3267 95.8302Z" fill="#FFBE9D"/>
<path d="M107.833 84.0491C102.298 85.8338 100.97 86.4393 98.4846 86.6305C95.9988 86.8218 79.172 86.843 77.6317 96.3293C77.4243 95.8834 77.2641 95.417 77.1536 94.9377C77.0294 94.0079 76.962 93.0713 76.9518 92.1332C76.6851 92.5678 76.5173 93.0558 76.4604 93.5625C76.4035 94.0692 76.4588 94.5823 76.6225 95.0652C76.665 95.2719 76.7255 95.4745 76.8031 95.6707C76.6862 95.5645 76.58 95.4476 76.4525 95.3414C75.8418 94.8009 75.1148 94.4084 74.3279 94.1941C73.7224 94.0454 73.3294 94.0772 73.2656 94.1941C74.2549 94.6208 75.1922 95.1589 76.0595 95.7982C76.6226 96.2871 77.1064 96.8605 77.4936 97.4979C77.4936 97.4979 77.4936 97.5828 77.4936 97.6253C77.4936 97.6678 73.8711 96.0319 74.8272 102.597C75.7833 109.162 80.0643 114.739 80.5955 125.489C80.5955 125.489 95.6058 127.274 98.2828 121.506L100.524 114.888C100.524 114.888 96.9124 114.293 97.3373 111.393C97.9216 107.367 100.992 107.271 103.286 109.056L105.921 102.002C105.921 102.002 112.592 97.6253 112.974 94.8315C113.357 92.0376 113.314 82.2539 107.833 84.0491Z" fill="#282828"/>
<path d="M31.0386 415.125L28.3828 426.981L46.7287 429.254L47.3873 417.505L31.0386 415.125Z" fill="#EF293D"/>
<path d="M39.3231 415.709C39.3126 417.538 39.1132 419.361 38.7282 421.148C38.5204 422.953 38.1325 424.733 37.5703 426.46C37.7923 422.813 38.3795 419.197 39.3231 415.667V415.709Z" fill="#282828"/>
<path d="M46.8011 427.99C45.9077 427.961 45.0188 427.851 44.1454 427.66L37.7716 426.598C35.2752 426.184 33.0337 425.769 31.3978 425.408C30.5147 425.262 29.6495 425.024 28.8164 424.697C29.7108 424.713 30.6009 424.823 31.4722 425.026L37.8459 426.088C40.3317 426.502 42.5838 426.917 44.2197 427.278C45.105 427.414 45.9714 427.653 46.8011 427.99Z" fill="#282828"/>
<path d="M58.2553 228.787L24.2617 419.661L53.3475 421.308C53.3475 421.308 84.2391 256.779 88.7751 256.375C90.6767 256.195 91.4415 419.969 92.9606 419.661C94.4797 419.353 124.394 420.192 124.394 420.192C124.394 420.192 120.347 226.365 120.421 226.365L58.2553 228.787Z" fill="#DDE1EA"/>
<path d="M101.224 252.36C101.224 252.509 96.2096 253.709 89.9633 255.037C83.717 256.365 78.618 257.321 78.5861 257.161C78.5542 257.002 83.6001 255.812 89.8465 254.484C96.0928 253.157 101.192 252.211 101.224 252.36Z" fill="#455A64"/>
<path d="M55.5037 410.101C55.5037 410.26 48.928 410.175 40.8227 409.931C32.7174 409.686 26.1523 409.346 26.1523 409.198C26.1523 409.049 32.728 409.123 40.8333 409.368C48.9387 409.612 55.5037 409.931 55.5037 410.101Z" fill="#455A64"/>
<path d="M124.204 410.122C124.204 410.271 117.097 410.186 108.355 409.92C99.6118 409.654 92.5156 409.325 92.5156 409.176C92.5156 409.028 99.6118 409.113 108.365 409.368C117.118 409.623 124.204 409.931 124.204 410.122Z" fill="#455A64"/>
<path d="M72.7751 257.65C72.9239 257.65 65.7321 291.729 56.7026 333.69C47.673 375.65 40.2369 409.655 40.0882 409.623C39.9395 409.591 47.1312 375.555 56.1608 333.573C65.1903 291.591 72.6158 257.618 72.7751 257.65Z" fill="#455A64"/>
<path d="M108.482 409.644C108.469 409.513 108.469 409.381 108.482 409.251C108.482 408.964 108.482 408.581 108.418 408.093C108.418 407.03 108.312 405.554 108.227 403.642C108.067 399.786 107.887 394.187 107.685 387.272C107.281 373.462 106.877 354.34 106.782 333.243C106.686 312.146 106.888 293.035 107.164 279.204C107.292 272.288 107.43 266.701 107.557 262.834C107.621 260.922 107.664 259.435 107.706 258.383C107.706 257.894 107.706 257.512 107.706 257.225C107.692 257.094 107.692 256.963 107.706 256.832C107.723 256.963 107.723 257.095 107.706 257.225V258.383C107.706 259.445 107.706 260.922 107.706 262.834C107.653 266.733 107.579 272.32 107.483 279.215C107.313 293.025 107.164 312.146 107.271 333.243C107.377 354.34 107.706 373.441 108.004 387.272C108.163 394.155 108.29 399.743 108.386 403.642C108.386 405.543 108.45 407.041 108.471 408.093C108.471 408.581 108.471 408.964 108.471 409.251C108.491 409.381 108.495 409.513 108.482 409.644Z" fill="#455A64"/>
<path d="M172.771 95.0972C172.771 95.0972 150.25 129.091 148.338 130.971C146.426 132.851 111.157 136.591 111.157 136.591C100.322 134.147 65.3084 134.955 58.7009 139.777C52.9751 142.964 46.0276 150.4 42.4477 167.96C36.3395 198.002 30.2313 209.071 42.4477 213.267C47.3318 214.933 52.3659 216.121 57.4792 216.815L57.1393 230.413L120.452 226.472L117.265 192.712C116.883 183.225 116.702 173.346 116.469 164.593C120.431 163.095 157.25 149.158 159.779 148.796C162.307 148.435 186.559 103.829 186.559 103.829C187.282 98.5284 172.771 95.0972 172.771 95.0972Z" fill="#EF293D"/>
<path d="M59.2194 156.572C59.3681 156.572 59.0282 173.123 58.4651 193.519C57.9021 213.915 57.3072 230.455 57.1479 230.455C56.9885 230.455 57.3391 213.905 57.9128 193.508C58.4864 173.112 59.0707 156.572 59.2194 156.572Z" fill="#282828"/>
<path d="M151.513 138.62C150.669 137.504 150.042 136.239 149.665 134.891C149.123 133.621 148.682 132.31 148.348 130.971C149.186 132.089 149.81 133.353 150.185 134.7C150.721 135.973 151.164 137.283 151.513 138.62Z" fill="#282828"/>
<path d="M154.042 135.73C152.967 135.125 151.956 134.413 151.025 133.605C149.967 132.931 149.056 132.049 148.348 131.013C149.418 131.624 150.429 132.336 151.365 133.138C152.417 133.82 153.326 134.701 154.042 135.73Z" fill="#282828"/>
<path d="M185.295 106.538C184.546 106.18 183.835 105.749 183.17 105.253C181.874 104.435 180.079 103.33 178.018 102.225C175.957 101.12 174.045 100.238 172.643 99.6224C171.859 99.342 171.105 98.9862 170.391 98.5601C171.216 98.6961 172.022 98.9316 172.791 99.2612C176.571 100.671 180.144 102.582 183.414 104.944C184.105 105.395 184.737 105.93 185.295 106.538Z" fill="#282828"/>
<path d="M58.4678 193.678C57.1485 193.757 55.8252 193.625 54.5479 193.285C53.2328 193.104 51.964 192.675 50.8086 192.021C52.1129 192.147 53.4034 192.389 54.6647 192.744C55.9639 192.909 57.2399 193.223 58.4678 193.678Z" fill="#282828"/>
<path d="M116.945 136.112C115.797 136.309 114.662 136.575 113.546 136.909C110.882 137.781 108.566 139.483 106.938 141.765C105.309 144.047 104.453 146.79 104.495 149.593C104.551 150.756 104.668 151.916 104.846 153.067C104.681 152.792 104.566 152.489 104.506 152.174C104.273 151.336 104.137 150.473 104.102 149.604C103.957 146.693 104.799 143.819 106.492 141.447C108.185 139.076 110.629 137.345 113.429 136.537C114.262 136.286 115.121 136.129 115.989 136.07C116.308 136.025 116.632 136.039 116.945 136.112Z" fill="#282828"/>
<path d="M120.465 226.514C120.465 226.673 106.305 227.672 88.8301 228.756C71.3553 229.839 57.163 230.604 57.1523 230.455C57.1417 230.306 71.3128 229.297 88.7982 228.203C106.284 227.109 120.455 226.365 120.465 226.514Z" fill="#282828"/>
<path d="M95.2439 135.443C95.3352 135.698 95.3993 135.961 95.4351 136.229C95.4351 136.495 95.5626 136.814 95.6051 137.196C95.6476 137.579 95.6795 138.035 95.7326 138.535C95.8588 141.403 95.3923 144.268 94.3622 146.948C92.8551 150.969 90.0859 154.395 86.4693 156.711C85.9523 157.039 85.4127 157.33 84.8546 157.582C84.2959 157.853 83.7212 158.091 83.1337 158.293C81.9546 158.718 80.7329 159.08 79.5219 159.515C78.2922 159.918 77.1152 160.468 76.0163 161.151C74.9181 161.894 73.9462 162.809 73.1375 163.86C71.6228 166.047 70.2257 168.313 68.952 170.648C67.7296 172.881 65.9373 174.751 63.7574 176.066C61.6943 177.108 59.374 177.533 57.0755 177.287C55.0927 177.106 53.1613 176.555 51.3816 175.662C48.8238 174.368 46.5006 172.656 44.5085 170.595C43.7968 169.883 43.2656 169.309 42.9151 168.927C42.7167 168.74 42.5419 168.53 42.3945 168.3C42.6035 168.469 42.8022 168.65 42.9894 168.842L44.6572 170.446C46.6796 172.42 48.9988 174.066 51.5303 175.322C53.2786 176.161 55.1647 176.676 57.0967 176.841C59.2953 177.045 61.5063 176.617 63.4705 175.609C65.5682 174.334 67.288 172.522 68.4527 170.361C69.7398 168.003 71.1584 165.719 72.7019 163.52C73.5492 162.422 74.5679 161.468 75.7189 160.694C76.8529 159.983 78.0693 159.412 79.3413 158.995L82.9531 157.794C83.5298 157.599 84.0939 157.368 84.6422 157.104C85.1842 156.87 85.7065 156.593 86.2038 156.275C89.7581 154.036 92.4989 150.714 94.0223 146.799C95.0724 144.176 95.5889 141.37 95.5414 138.545C95.5414 138.046 95.5414 137.61 95.4776 137.217C95.4139 136.824 95.382 136.506 95.3501 136.251C95.291 135.985 95.2554 135.715 95.2439 135.443Z" fill="#282828"/>
<path d="M119.221 213.554C119.221 213.554 118.977 213.384 118.509 213.097C117.842 212.666 117.1 212.364 116.321 212.205C115.068 212.017 113.805 211.904 112.539 211.865C111.063 211.748 109.352 211.738 107.493 211.663C105.434 211.628 103.386 211.343 101.396 210.814C99.1105 210.164 96.9543 209.125 95.0218 207.744C92.872 206.211 91.0903 204.218 89.8059 201.911C88.4324 199.429 87.702 196.643 87.6813 193.806C87.6404 191.053 88.3734 188.343 89.797 185.986C91.2206 183.629 93.2776 181.719 95.7335 180.474C96.8379 179.923 98.0144 179.529 99.2285 179.306C100.362 179.116 101.51 179.024 102.66 179.03C104.691 179.092 106.723 179.032 108.747 178.849C110.205 178.756 111.618 178.302 112.858 177.529C114.098 176.756 115.127 175.688 115.853 174.419C116.209 173.708 116.433 172.937 116.512 172.146C116.576 171.604 116.576 171.307 116.597 171.307C116.61 171.377 116.61 171.449 116.597 171.519C116.597 171.668 116.597 171.88 116.597 172.156C116.553 172.972 116.355 173.773 116.013 174.515C115.454 175.689 114.597 176.696 113.527 177.436C112.12 178.423 110.487 179.041 108.779 179.231C106.739 179.445 104.689 179.53 102.638 179.486C101.513 179.492 100.39 179.591 99.2816 179.784C98.1183 180.009 96.9921 180.395 95.9354 180.931C93.574 182.138 91.5973 183.981 90.2287 186.253C88.8602 188.524 88.1544 191.133 88.1912 193.785C88.2173 196.532 88.9254 199.23 90.2521 201.635C91.4924 203.874 93.2118 205.811 95.2874 207.308C97.166 208.669 99.2645 209.696 101.491 210.346C103.444 210.889 105.456 211.192 107.483 211.249C109.352 211.345 111.052 211.387 112.539 211.536C113.815 211.593 115.086 211.739 116.342 211.971C117.138 212.176 117.886 212.537 118.541 213.034C118.714 213.156 118.881 213.287 119.04 213.427C119.108 213.458 119.169 213.502 119.221 213.554Z" fill="#282828"/>
<path d="M84.0365 229.106C84.0653 228.346 84.0226 227.585 83.909 226.833C83.5147 224.793 82.3411 222.987 80.6371 221.798C80.0762 221.426 79.4691 221.13 78.8312 220.916C78.1359 220.72 77.4251 220.585 76.7066 220.512C75.0297 220.474 73.3623 220.25 71.7351 219.843C70.8413 219.544 70.025 219.051 69.3449 218.398C68.6586 217.708 68.1105 216.893 67.7302 215.997C66.9613 214.118 66.7225 212.065 67.0397 210.059C67.6346 205.969 69.4299 202.453 69.7379 198.99C69.955 197.374 69.8061 195.729 69.3024 194.178C68.842 192.843 67.9815 191.682 66.8379 190.853C65.1611 189.626 63.0772 189.09 61.0165 189.355C60.2704 189.496 59.5381 189.702 58.8281 189.971C59.4692 189.547 60.1936 189.264 60.9527 189.143C63.0859 188.782 65.275 189.283 67.0397 190.534C68.2675 191.396 69.1988 192.617 69.7061 194.029C70.2549 195.64 70.4293 197.355 70.216 199.043C69.9079 202.623 68.0914 206.182 67.5602 210.134C67.2551 212.04 67.4754 213.994 68.1976 215.785C68.553 216.616 69.0569 217.376 69.6848 218.026C70.3032 218.625 71.0471 219.079 71.8625 219.354C73.4547 219.761 75.0857 219.996 76.7279 220.055C77.4917 220.134 78.246 220.287 78.9799 220.512C80.3373 220.981 81.5382 221.817 82.4495 222.927C83.3608 224.038 83.9468 225.378 84.1427 226.801C84.2205 227.372 84.2205 227.951 84.1427 228.522C84.1256 228.72 84.09 228.915 84.0365 229.106Z" fill="#282828"/>
<path d="M81.9109 170.329C81.9109 170.329 82.134 170.095 82.6651 169.936C83.4269 169.738 84.2327 169.794 84.9597 170.095C85.4691 170.305 85.9261 170.624 86.2982 171.03C86.7179 171.516 86.9841 172.114 87.0631 172.751C87.1593 173.483 87.036 174.227 86.7088 174.889C86.3816 175.551 85.8653 176.101 85.2253 176.469C84.5584 176.786 83.8116 176.895 83.0821 176.781C82.3526 176.667 81.6743 176.337 81.1354 175.832C80.6642 175.39 80.3382 174.816 80.2006 174.185C80.0951 173.642 80.1206 173.081 80.275 172.549C80.4855 171.787 80.955 171.122 81.6028 170.669C81.8217 170.484 82.0929 170.373 82.3783 170.35C82.3783 170.35 82.1234 170.51 81.7303 170.839C81.1966 171.316 80.8252 171.947 80.668 172.645C80.5315 173.145 80.5366 173.673 80.683 174.17C80.8293 174.667 81.111 175.114 81.4966 175.46C81.9619 175.88 82.5406 176.153 83.1603 176.246C83.7801 176.338 84.4133 176.246 84.981 175.981C85.527 175.661 85.9684 175.19 86.2514 174.624C86.5343 174.058 86.6465 173.422 86.5744 172.794C86.5135 172.28 86.3185 171.792 86.0089 171.378C85.6993 170.964 85.2862 170.639 84.811 170.435C84.1506 170.119 83.4094 170.012 82.6864 170.127C82.1977 170.234 81.9322 170.372 81.9109 170.329Z" fill="#282828"/>
<path d="M50.0659 215.615C49.949 215.615 50.4483 213.745 50.5651 210.707C50.6071 209.882 50.6071 209.056 50.5651 208.232C50.5651 207.34 50.3952 206.394 50.2783 205.396C49.9259 203.248 49.3601 201.142 48.5893 199.107C47.7848 197.089 46.7738 195.159 45.5723 193.349C45.0343 192.569 44.4563 191.817 43.8408 191.097C43.3191 190.451 42.7623 189.834 42.173 189.249C40.0484 187.124 38.4125 186.062 38.4868 185.987C38.8906 186.174 39.2719 186.405 39.6235 186.678C40.064 186.959 40.4863 187.267 40.8876 187.602C41.4334 188.029 41.9548 188.487 42.4492 188.972C43.0663 189.546 43.6481 190.156 44.1914 190.8C44.8246 191.53 45.4202 192.292 45.976 193.083C47.2179 194.915 48.2613 196.874 49.0886 198.926C49.8707 200.985 50.4299 203.122 50.7564 205.3C50.8914 206.258 50.9729 207.222 51.0007 208.189C51.055 209.028 51.055 209.869 51.0007 210.707C50.9619 211.397 50.8874 212.085 50.7776 212.768C50.7131 213.287 50.6137 213.802 50.4802 214.308C50.3967 214.759 50.2576 215.198 50.0659 215.615Z" fill="#282828"/>
<path d="M160.289 148.371C159.745 148.177 159.216 147.943 158.706 147.67C157.697 147.203 156.242 146.534 154.372 145.854C152.202 145.05 149.951 144.483 147.658 144.165C144.86 143.763 142.011 143.904 139.266 144.579C136.498 145.223 133.939 146.561 131.83 148.467C130.128 150.021 128.827 151.963 128.038 154.129C127.519 155.593 127.302 157.147 127.4 158.697C127.485 159.759 127.655 160.397 127.602 160.407C127.549 160.418 127.528 160.269 127.443 159.982C127.329 159.567 127.244 159.145 127.188 158.718C127 157.129 127.167 155.518 127.676 154.002C128.429 151.743 129.741 149.711 131.49 148.095C133.629 146.115 136.241 144.717 139.075 144.037C141.891 143.352 144.814 143.222 147.68 143.655C150.001 144.008 152.275 144.624 154.457 145.493C155.913 146.067 157.332 146.73 158.706 147.479C159.195 147.745 159.577 147.957 159.822 148.116C159.992 148.171 160.151 148.258 160.289 148.371Z" fill="#282828"/>
<path d="M168.988 100.802C168.988 100.802 169.094 100.876 169.275 101.057C169.54 101.306 169.785 101.576 170.008 101.864C170.848 102.919 171.512 104.103 171.973 105.37C172.668 107.257 172.954 109.27 172.812 111.276C172.648 113.741 171.855 116.122 170.507 118.192C169.125 120.248 167.223 121.902 164.994 122.983C163.199 123.88 161.239 124.4 159.236 124.512C157.89 124.599 156.538 124.473 155.231 124.14C154.869 124.056 154.514 123.946 154.169 123.811C153.935 123.726 153.818 123.673 153.829 123.652C155.567 124.064 157.356 124.222 159.14 124.119C161.082 123.958 162.974 123.416 164.707 122.526C166.848 121.467 168.678 119.871 170.018 117.894C171.195 116.074 171.945 114.013 172.214 111.862C172.482 109.712 172.262 107.529 171.569 105.476C170.949 103.797 170.079 102.221 168.988 100.802Z" fill="#282828"/>
<path d="M99.6307 135.294C96.5635 135.598 93.4807 135.715 90.3993 135.645C87.3209 135.76 84.2384 135.693 81.168 135.443C84.2352 135.14 87.318 135.022 90.3993 135.093C93.4778 134.977 96.5603 135.045 99.6307 135.294Z" fill="#282828"/>
</svg>
