<svg width="322" height="244" viewBox="0 0 322 244" fill="none" xmlns="http://www.w3.org/2000/svg">
<path d="M209.295 164.737C184.589 164.738 163.094 146.308 159.918 121.171L160.525 121.094C163.661 145.921 184.895 164.124 209.295 164.125C211.368 164.125 213.439 163.995 215.496 163.734C242.407 160.334 261.535 135.674 258.136 108.763L258.743 108.686C262.185 135.932 242.819 160.899 215.573 164.341C213.49 164.604 211.394 164.737 209.295 164.737Z" fill="#3F3D56"/>
<path d="M228.996 84.6645C227.387 80.4091 227.533 75.6885 229.404 71.5413C231.275 67.394 234.716 64.1598 238.972 62.55C243.227 60.9403 247.948 61.087 252.095 62.9578C256.242 64.8285 259.476 68.2702 261.086 72.5256L260.514 72.7421C258.962 68.6385 255.843 65.3196 251.843 63.5156C247.844 61.7115 243.292 61.57 239.188 63.1223C235.085 64.6746 231.766 67.7935 229.962 71.7928C228.158 75.7922 228.016 80.3443 229.569 84.448L228.996 84.6645Z" fill="#3F3D56"/>
<path d="M278.692 114.606H247.596C246.763 114.605 245.964 114.273 245.375 113.684C244.786 113.095 244.454 112.296 244.453 111.462V70.2883C244.454 69.4549 244.786 68.656 245.375 68.0667C245.964 67.4774 246.763 67.146 247.596 67.145H278.692C279.525 67.146 280.324 67.4774 280.913 68.0667C281.503 68.656 281.834 69.4549 281.835 70.2883V111.462C281.834 112.296 281.503 113.095 280.913 113.684C280.324 114.273 279.525 114.605 278.692 114.606Z" fill="#E6E6E6"/>
<path d="M266.335 112.139H249.78C248.999 112.138 248.251 111.827 247.699 111.276C247.147 110.724 246.837 109.975 246.836 109.195V72.5556C246.837 71.7751 247.147 71.0268 247.699 70.475C248.251 69.9231 248.999 69.6127 249.78 69.6118H276.504C277.284 69.6127 278.032 69.9231 278.584 70.475C279.136 71.0269 279.447 71.7751 279.447 72.5556V99.026C279.444 102.503 278.061 105.836 275.602 108.294C273.144 110.752 269.811 112.135 266.335 112.139Z" fill="white"/>
<path d="M273.84 87.9862H252.448C252.263 87.9862 252.085 87.9127 251.954 87.7818C251.824 87.651 251.75 87.4735 251.75 87.2885C251.75 87.1035 251.824 86.926 251.954 86.7952C252.085 86.6643 252.263 86.5908 252.448 86.5908H273.84C274.025 86.5908 274.202 86.6643 274.333 86.7952C274.464 86.926 274.537 87.1035 274.537 87.2885C274.537 87.4735 274.464 87.651 274.333 87.7818C274.202 87.9127 274.025 87.9862 273.84 87.9862Z" fill="#E4E4E4"/>
<path d="M273.838 90.7426H252.446C252.261 90.7422 252.084 90.6685 251.954 90.5377C251.823 90.4069 251.75 90.2297 251.75 90.0449C251.75 89.8601 251.823 89.6828 251.954 89.552C252.084 89.4212 252.261 89.3476 252.446 89.3472H273.838C274.023 89.3472 274.201 89.4207 274.332 89.5515C274.463 89.6824 274.536 89.8598 274.536 90.0449C274.536 90.2299 274.463 90.4074 274.332 90.5382C274.201 90.6691 274.023 90.7426 273.838 90.7426Z" fill="#E4E4E4"/>
<path d="M261.721 93.4994H252.448C252.263 93.4994 252.085 93.4259 251.954 93.2951C251.823 93.1642 251.75 92.9868 251.75 92.8017C251.75 92.6167 251.823 92.4392 251.954 92.3084C252.085 92.1775 252.263 92.104 252.448 92.104H261.721C261.906 92.104 262.083 92.1775 262.214 92.3084C262.345 92.4392 262.418 92.6167 262.418 92.8017C262.418 92.9868 262.345 93.1642 262.214 93.2951C262.083 93.4259 261.906 93.4994 261.721 93.4994Z" fill="#E4E4E4"/>
<path d="M273.84 76.7279H252.448C252.263 76.7279 252.085 76.6544 251.954 76.5235C251.824 76.3927 251.75 76.2152 251.75 76.0302C251.75 75.8452 251.824 75.6677 251.954 75.5369C252.085 75.406 252.263 75.3325 252.448 75.3325H273.84C274.025 75.3325 274.202 75.406 274.333 75.5369C274.464 75.6677 274.537 75.8452 274.537 76.0302C274.537 76.2152 274.464 76.3927 274.333 76.5235C274.202 76.6544 274.025 76.7279 273.84 76.7279Z" fill="#E4E4E4"/>
<path d="M273.84 79.4843H252.448C252.263 79.4843 252.085 79.4108 251.954 79.2799C251.823 79.1491 251.75 78.9716 251.75 78.7866C251.75 78.6015 251.823 78.4241 251.954 78.2932C252.085 78.1624 252.263 78.0889 252.448 78.0889H273.84C274.025 78.0889 274.202 78.1624 274.333 78.2932C274.464 78.4241 274.537 78.6015 274.537 78.7866C274.537 78.9716 274.464 79.1491 274.333 79.2799C274.202 79.4108 274.025 79.4843 273.84 79.4843Z" fill="#E4E4E4"/>
<path d="M261.719 82.2416H252.446C252.261 82.2412 252.084 82.1675 251.954 82.0367C251.823 81.9059 251.75 81.7287 251.75 81.5439C251.75 81.3591 251.823 81.1819 251.954 81.0511C252.084 80.9203 252.261 80.8466 252.446 80.8462H261.719C261.904 80.8466 262.081 80.9203 262.212 81.0511C262.342 81.1819 262.415 81.3591 262.415 81.5439C262.415 81.7287 262.342 81.9059 262.212 82.0367C262.081 82.1675 261.904 82.2412 261.719 82.2416Z" fill="#E4E4E4"/>
<path d="M273.84 99.6385H252.448C252.263 99.6385 252.085 99.565 251.954 99.4342C251.824 99.3033 251.75 99.1259 251.75 98.9408C251.75 98.7558 251.824 98.5783 251.954 98.4475C252.085 98.3167 252.263 98.2432 252.448 98.2432H273.84C274.025 98.2432 274.202 98.3167 274.333 98.4475C274.464 98.5783 274.537 98.7558 274.537 98.9408C274.537 99.1259 274.464 99.3033 274.333 99.4342C274.202 99.565 274.025 99.6385 273.84 99.6385Z" fill="#EF293D"/>
<path d="M255.793 102.395H252.446C252.261 102.395 252.084 102.321 251.954 102.19C251.823 102.059 251.75 101.882 251.75 101.697C251.75 101.512 251.823 101.335 251.954 101.204C252.084 101.074 252.261 101 252.446 101H255.793C255.978 101 256.155 101.073 256.286 101.204C256.417 101.335 256.49 101.512 256.49 101.697C256.49 101.882 256.417 102.06 256.286 102.191C256.155 102.321 255.978 102.395 255.793 102.395Z" fill="#EF293D"/>
<path d="M261.721 105.152H252.448C252.263 105.152 252.085 105.078 251.954 104.947C251.823 104.817 251.75 104.639 251.75 104.454C251.75 104.269 251.823 104.092 251.954 103.961C252.085 103.83 252.263 103.756 252.448 103.756H261.721C261.906 103.756 262.083 103.83 262.214 103.961C262.345 104.092 262.418 104.269 262.418 104.454C262.418 104.639 262.345 104.817 262.214 104.947C262.083 105.078 261.906 105.152 261.721 105.152Z" fill="#EF293D"/>
<path d="M160.383 113.225C157.688 106.092 157.937 98.1804 161.074 91.2301C164.211 84.2799 169.98 78.86 177.112 76.1621C184.244 73.4641 192.156 73.709 199.108 76.8429C206.059 79.9767 211.482 85.743 214.183 92.8739L213.611 93.0905C212.304 89.6318 210.328 86.4644 207.797 83.7693C205.266 81.0742 202.229 78.9042 198.858 77.3833C195.488 75.8623 191.852 75.0202 188.156 74.905C184.461 74.7899 180.778 75.4039 177.32 76.7121C173.862 78.0202 170.695 79.9969 168.001 82.5292C165.307 85.0614 163.138 88.0996 161.618 91.4703C160.099 94.8409 159.258 98.4779 159.144 102.174C159.03 105.869 159.646 109.551 160.955 113.009L160.383 113.225Z" fill="#3F3D56"/>
<path d="M213.853 66.3273C215.466 66.3273 216.773 65.0201 216.773 63.4076C216.773 61.795 215.466 60.4878 213.853 60.4878C212.241 60.4878 210.934 61.795 210.934 63.4076C210.934 65.0201 212.241 66.3273 213.853 66.3273Z" fill="#E6E6E6"/>
<path d="M217.828 150.44C219.44 150.44 220.748 149.132 220.748 147.52C220.748 145.907 219.44 144.6 217.828 144.6C216.215 144.6 214.908 145.907 214.908 147.52C214.908 149.132 216.215 150.44 217.828 150.44Z" fill="#E6E6E6"/>
<path d="M142.892 81.0085C144.505 81.0085 145.812 79.7013 145.812 78.0887C145.812 76.4762 144.505 75.1689 142.892 75.1689C141.28 75.1689 139.973 76.4762 139.973 78.0887C139.973 79.7013 141.28 81.0085 142.892 81.0085Z" fill="#E6E6E6"/>
<path d="M183.203 198.063H116.362C114.571 198.061 112.853 197.348 111.587 196.082C110.32 194.815 109.607 193.098 109.605 191.306V102.801C109.607 101.01 110.32 99.2923 111.587 98.0256C112.853 96.759 114.571 96.0465 116.362 96.0444H183.203C184.994 96.0465 186.711 96.759 187.978 98.0256C189.245 99.2923 189.957 101.01 189.959 102.801V191.306C189.957 193.098 189.245 194.815 187.978 196.082C186.711 197.348 184.994 198.061 183.203 198.063Z" fill="#E6E6E6"/>
<path d="M157.693 192.584H121.062C119.431 192.582 117.867 191.934 116.714 190.78C115.561 189.627 114.912 188.063 114.91 186.432V107.675C114.912 106.043 115.561 104.48 116.714 103.326C117.867 102.173 119.431 101.524 121.062 101.522H178.506C180.137 101.524 181.701 102.173 182.854 103.326C184.007 104.48 184.656 106.043 184.658 107.675V165.619C184.65 172.768 181.806 179.622 176.751 184.677C171.696 189.733 164.842 192.576 157.693 192.584Z" fill="white"/>
<path d="M172.774 116.643H126.791C126.594 116.643 126.399 116.605 126.216 116.529C126.034 116.454 125.869 116.344 125.729 116.204C125.59 116.065 125.479 115.9 125.403 115.718C125.328 115.536 125.289 115.34 125.289 115.143C125.289 114.946 125.328 114.751 125.403 114.569C125.479 114.387 125.59 114.221 125.729 114.082C125.869 113.943 126.034 113.832 126.216 113.757C126.399 113.682 126.594 113.643 126.791 113.644H172.774C172.971 113.643 173.166 113.682 173.348 113.757C173.531 113.832 173.696 113.943 173.836 114.082C173.975 114.221 174.086 114.387 174.161 114.569C174.237 114.751 174.276 114.946 174.276 115.143C174.276 115.34 174.237 115.536 174.161 115.718C174.086 115.9 173.975 116.065 173.836 116.204C173.696 116.344 173.531 116.454 173.348 116.529C173.166 116.605 172.971 116.643 172.774 116.643Z" fill="#EF293D"/>
<path d="M172.774 122.569H126.791C126.393 122.569 126.012 122.411 125.73 122.13C125.449 121.848 125.291 121.467 125.291 121.069C125.291 120.671 125.449 120.29 125.73 120.009C126.012 119.727 126.393 119.569 126.791 119.569H172.774C173.172 119.569 173.553 119.727 173.834 120.009C174.116 120.29 174.274 120.671 174.274 121.069C174.274 121.467 174.116 121.848 173.834 122.13C173.553 122.411 173.172 122.569 172.774 122.569Z" fill="#EF293D"/>
<path d="M146.723 128.495H126.791C126.393 128.495 126.012 128.337 125.73 128.055C125.449 127.774 125.291 127.393 125.291 126.995C125.291 126.597 125.449 126.216 125.73 125.934C126.012 125.653 126.393 125.495 126.791 125.495H146.723C147.121 125.495 147.503 125.653 147.784 125.934C148.065 126.216 148.223 126.597 148.223 126.995C148.223 127.393 148.065 127.774 147.784 128.055C147.503 128.337 147.121 128.495 146.723 128.495Z" fill="#EF293D"/>
<path d="M172.774 140.906H126.791C126.594 140.906 126.399 140.867 126.216 140.792C126.034 140.717 125.869 140.606 125.729 140.467C125.59 140.328 125.479 140.162 125.403 139.98C125.328 139.798 125.289 139.603 125.289 139.406C125.289 139.209 125.328 139.014 125.403 138.832C125.479 138.649 125.59 138.484 125.729 138.345C125.869 138.205 126.034 138.095 126.216 138.02C126.399 137.945 126.594 137.906 126.791 137.906H172.774C172.971 137.906 173.166 137.945 173.348 138.02C173.531 138.095 173.696 138.205 173.836 138.345C173.975 138.484 174.086 138.649 174.161 138.832C174.237 139.014 174.276 139.209 174.276 139.406C174.276 139.603 174.237 139.798 174.161 139.98C174.086 140.162 173.975 140.328 173.836 140.467C173.696 140.606 173.531 140.717 173.348 140.792C173.166 140.867 172.971 140.906 172.774 140.906Z" fill="#E4E4E4"/>
<path d="M172.774 146.832H126.791C126.393 146.832 126.012 146.674 125.73 146.393C125.449 146.111 125.291 145.73 125.291 145.332C125.291 144.935 125.449 144.553 125.73 144.272C126.012 143.991 126.393 143.833 126.791 143.833H172.774C173.172 143.833 173.553 143.991 173.834 144.272C174.116 144.553 174.274 144.935 174.274 145.332C174.274 145.73 174.116 146.111 173.834 146.393C173.553 146.674 173.172 146.832 172.774 146.832Z" fill="#E4E4E4"/>
<path d="M146.723 152.757H126.791C126.393 152.757 126.012 152.599 125.73 152.318C125.449 152.037 125.291 151.655 125.291 151.258C125.291 150.86 125.449 150.478 125.73 150.197C126.012 149.916 126.393 149.758 126.791 149.758H146.723C147.121 149.758 147.503 149.916 147.784 150.197C148.065 150.478 148.223 150.86 148.223 151.258C148.223 151.655 148.065 152.037 147.784 152.318C147.503 152.599 147.121 152.757 146.723 152.757Z" fill="#E4E4E4"/>
<path d="M172.774 165.169H126.791C126.594 165.169 126.399 165.13 126.216 165.055C126.034 164.98 125.869 164.87 125.729 164.73C125.59 164.591 125.479 164.426 125.403 164.243C125.328 164.061 125.289 163.866 125.289 163.669C125.289 163.472 125.328 163.277 125.403 163.095C125.479 162.913 125.59 162.747 125.729 162.608C125.869 162.469 126.034 162.358 126.216 162.283C126.399 162.208 126.594 162.169 126.791 162.169H172.774C172.971 162.169 173.166 162.208 173.348 162.283C173.531 162.358 173.696 162.469 173.836 162.608C173.975 162.747 174.086 162.913 174.161 163.095C174.237 163.277 174.276 163.472 174.276 163.669C174.276 163.866 174.237 164.061 174.161 164.243C174.086 164.426 173.975 164.591 173.836 164.73C173.696 164.87 173.531 164.98 173.348 165.055C173.166 165.13 172.971 165.169 172.774 165.169Z" fill="#E4E4E4"/>
<path d="M172.774 171.095H126.791C126.393 171.095 126.012 170.937 125.73 170.655C125.449 170.374 125.291 169.993 125.291 169.595C125.291 169.197 125.449 168.816 125.73 168.534C126.012 168.253 126.393 168.095 126.791 168.095H172.774C173.172 168.095 173.553 168.253 173.834 168.534C174.116 168.816 174.274 169.197 174.274 169.595C174.274 169.993 174.116 170.374 173.834 170.655C173.553 170.937 173.172 171.095 172.774 171.095Z" fill="#E4E4E4"/>
<path d="M146.725 177.02H126.793C126.395 177.02 126.014 176.862 125.733 176.58C125.453 176.299 125.295 175.918 125.295 175.521C125.295 175.123 125.453 174.742 125.733 174.461C126.014 174.18 126.395 174.022 126.793 174.021H146.725C147.122 174.022 147.503 174.18 147.784 174.461C148.065 174.742 148.223 175.123 148.223 175.521C148.223 175.918 148.065 176.299 147.784 176.58C147.503 176.862 147.122 177.02 146.725 177.02Z" fill="#E4E4E4"/>
<path d="M234.703 132.345H200.853C199.946 132.344 199.076 131.984 198.435 131.342C197.793 130.701 197.433 129.831 197.432 128.924V84.1028C197.433 83.1957 197.793 82.3259 198.435 81.6845C199.076 81.043 199.946 80.6822 200.853 80.6812H234.703C235.61 80.6822 236.48 81.043 237.121 81.6845C237.763 82.3259 238.123 83.1957 238.125 84.1028V128.924C238.123 129.831 237.763 130.701 237.121 131.342C236.48 131.984 235.61 132.344 234.703 132.345Z" fill="#E6E6E6"/>
<path d="M222.154 129.646H203.232C202.386 129.645 201.575 129.309 200.977 128.711C200.378 128.113 200.042 127.301 200.041 126.455V86.571C200.042 85.725 200.378 84.9139 200.977 84.3156C201.575 83.7174 202.386 83.3809 203.232 83.3799H232.323C233.169 83.3808 233.98 83.7173 234.578 84.3156C235.176 84.9138 235.513 85.7249 235.514 86.571V116.287C235.51 119.829 234.101 123.224 231.596 125.729C229.092 128.234 225.696 129.642 222.154 129.646Z" fill="white"/>
<path d="M229.421 91.1127H206.134C205.933 91.1127 205.74 91.0327 205.597 90.8902C205.455 90.7478 205.375 90.5546 205.375 90.3532C205.375 90.1518 205.455 89.9586 205.597 89.8162C205.74 89.6738 205.933 89.5938 206.134 89.5938H229.421C229.623 89.5938 229.816 89.6738 229.958 89.8162C230.101 89.9586 230.181 90.1518 230.181 90.3532C230.181 90.5546 230.101 90.7478 229.958 90.8902C229.816 91.0327 229.623 91.1127 229.421 91.1127Z" fill="#E4E4E4"/>
<path d="M229.422 94.1142H206.135C205.934 94.1138 205.741 94.0336 205.599 93.8912C205.457 93.7488 205.377 93.5559 205.377 93.3547C205.377 93.1536 205.457 92.9606 205.599 92.8182C205.741 92.6758 205.934 92.5956 206.135 92.5952H229.422C229.623 92.5956 229.816 92.6758 229.958 92.8182C230.1 92.9606 230.18 93.1536 230.18 93.3547C230.18 93.5559 230.1 93.7488 229.958 93.8912C229.816 94.0336 229.623 94.1138 229.422 94.1142Z" fill="#E4E4E4"/>
<path d="M216.229 97.1147H206.135C205.934 97.1143 205.741 97.0341 205.599 96.8917C205.457 96.7493 205.377 96.5564 205.377 96.3552C205.377 96.154 205.457 95.9611 205.599 95.8187C205.741 95.6763 205.934 95.5961 206.135 95.5957H216.229C216.43 95.5961 216.623 95.6763 216.765 95.8187C216.907 95.9611 216.987 96.154 216.987 96.3552C216.987 96.5564 216.907 96.7493 216.765 96.8917C216.623 97.0341 216.43 97.1143 216.229 97.1147Z" fill="#E4E4E4"/>
<path d="M229.421 103.4H206.134C205.933 103.4 205.74 103.32 205.597 103.178C205.455 103.035 205.375 102.842 205.375 102.641C205.375 102.439 205.455 102.246 205.597 102.104C205.74 101.961 205.933 101.881 206.134 101.881H229.421C229.623 101.881 229.816 101.961 229.958 102.104C230.101 102.246 230.181 102.439 230.181 102.641C230.181 102.842 230.101 103.035 229.958 103.178C229.816 103.32 229.623 103.4 229.421 103.4Z" fill="#EF293D"/>
<path d="M223.304 106.401H206.134C205.933 106.401 205.74 106.321 205.597 106.179C205.455 106.036 205.375 105.843 205.375 105.642C205.375 105.44 205.455 105.247 205.597 105.105C205.74 104.962 205.933 104.882 206.134 104.882H223.304C223.505 104.882 223.699 104.962 223.841 105.105C223.984 105.247 224.064 105.44 224.064 105.642C224.064 105.843 223.984 106.036 223.841 106.179C223.699 106.321 223.505 106.401 223.304 106.401Z" fill="#EF293D"/>
<path d="M216.229 109.402H206.135C205.934 109.402 205.741 109.322 205.599 109.179C205.457 109.037 205.377 108.844 205.377 108.643C205.377 108.442 205.457 108.249 205.599 108.106C205.741 107.964 205.934 107.884 206.135 107.883H216.229C216.43 107.884 216.623 107.964 216.765 108.106C216.907 108.249 216.987 108.442 216.987 108.643C216.987 108.844 216.907 109.037 216.765 109.179C216.623 109.322 216.43 109.402 216.229 109.402Z" fill="#EF293D"/>
<path d="M229.421 115.687H206.134C205.933 115.687 205.74 115.607 205.597 115.465C205.455 115.323 205.375 115.129 205.375 114.928C205.375 114.726 205.455 114.533 205.597 114.391C205.74 114.248 205.933 114.168 206.134 114.168H229.421C229.623 114.168 229.816 114.248 229.958 114.391C230.101 114.533 230.181 114.726 230.181 114.928C230.181 115.129 230.101 115.323 229.958 115.465C229.816 115.607 229.623 115.687 229.421 115.687Z" fill="#E4E4E4"/>
<path d="M229.421 118.688H206.134C205.933 118.688 205.74 118.608 205.597 118.465C205.455 118.323 205.375 118.13 205.375 117.928C205.375 117.727 205.455 117.534 205.597 117.391C205.74 117.249 205.933 117.169 206.134 117.169H229.421C229.623 117.169 229.816 117.249 229.958 117.391C230.101 117.534 230.181 117.727 230.181 117.928C230.181 118.13 230.101 118.323 229.958 118.465C229.816 118.608 229.623 118.688 229.421 118.688Z" fill="#E4E4E4"/>
<path d="M216.229 121.689H206.135C205.934 121.689 205.741 121.609 205.599 121.466C205.457 121.324 205.377 121.131 205.377 120.93C205.377 120.729 205.457 120.536 205.599 120.393C205.741 120.251 205.934 120.171 206.135 120.17H216.229C216.43 120.171 216.623 120.251 216.765 120.393C216.907 120.536 216.987 120.729 216.987 120.93C216.987 121.131 216.907 121.324 216.765 121.466C216.623 121.609 216.43 121.689 216.229 121.689Z" fill="#E4E4E4"/>
<path d="M81.2592 147.745C81.5184 147.463 81.7126 147.127 81.8281 146.762C81.9436 146.397 81.9777 146.011 81.9279 145.631C81.8781 145.251 81.7456 144.887 81.5398 144.564C81.334 144.241 81.0598 143.967 80.7367 143.761L82.8839 134.701L78.3393 136.362L76.997 144.71C76.6875 145.276 76.5963 145.936 76.7407 146.564C76.8851 147.193 77.255 147.747 77.7804 148.121C78.3058 148.495 78.9501 148.663 79.5912 148.594C80.2324 148.524 80.8258 148.222 81.2591 147.745L81.2592 147.745Z" fill="#FFB8B8"/>
<path d="M92.1885 109.778L90.3646 114.468C90.3646 114.468 91.1462 119.158 89.8435 120.201C88.5407 121.243 89.0618 121.243 89.0618 122.024C89.0169 122.585 88.8545 123.13 88.5852 123.624C88.3158 124.118 87.9456 124.549 87.4985 124.891C86.4563 125.672 81.7663 141.566 81.7663 141.566H77.0763C77.2278 140.355 77.2278 139.13 77.0763 137.918C76.8157 136.094 77.858 131.404 78.3791 130.623C78.9002 129.841 78.3791 128.799 78.3791 127.236C78.3791 125.672 79.4213 124.891 79.4213 122.285C79.4213 119.679 82.5479 99.356 82.2874 97.011C82.0268 94.666 84.8929 92.5815 84.8929 92.5815H87.4985L92.1885 109.778Z" fill="#EF293D"/>
<path d="M103.224 119.726L107.558 139.072L79.7793 137.344L87.3331 118.344L103.224 119.726Z" fill="#FFB8B8"/>
<path d="M42.671 192.437C43.4979 195.427 44.7891 198.268 46.4973 200.857C50.3145 206.629 55.7771 211.043 61.7812 214.575C62.1972 214.823 62.6192 215.065 63.0413 215.303H67.253L67.3999 214.967V214.964L67.5711 214.575L67.5925 214.529L67.6017 214.575L67.7699 215.303H69.8375C70.0088 215.062 70.177 214.82 70.3422 214.575C70.5838 214.217 70.8163 213.857 71.0365 213.49C71.4252 212.848 71.7726 212.181 72.0764 211.495C72.1131 211.419 72.1437 211.342 72.1743 211.266L72.0367 211.116L72.6086 208.614L71.4586 208.424L72.7187 204.537C72.6729 204.393 72.6208 204.249 72.5658 204.106C71.8592 202.316 70.5318 200.98 68.9566 199.857C67.3356 198.698 65.4484 197.768 63.7142 196.802C62.9006 196.346 62.0993 195.866 61.3193 195.358V195.355C60.3222 194.71 59.3547 194.019 58.4167 193.284C58.4007 193.274 58.3854 193.263 58.3708 193.251C58.3578 193.241 58.3456 193.231 58.3341 193.22C54.1291 189.935 50.5707 185.897 47.84 181.313C47.8396 181.313 47.8392 181.313 47.8388 181.313C47.8384 181.312 47.8381 181.312 47.8378 181.312C47.8375 181.312 47.8373 181.311 47.8372 181.311C47.837 181.311 47.8369 181.31 47.8369 181.31C47.7452 181.163 47.6596 181.016 47.5739 180.866V180.863C46.4557 178.94 45.4932 176.93 44.6958 174.853V174.85C44.6346 174.697 44.5796 174.544 44.5215 174.391C44.4419 174.526 44.3655 174.66 44.2921 174.795C44.2917 174.795 44.2913 174.795 44.2909 174.795C44.2905 174.795 44.2902 174.795 44.2899 174.796C44.2896 174.796 44.2894 174.796 44.2892 174.797C44.2891 174.797 44.289 174.798 44.289 174.798C41.3222 180.105 41.0407 186.497 42.671 192.437Z" fill="#F0F0F0"/>
<path d="M44.2892 174.797C44.2594 177.629 44.5539 180.456 45.1669 183.221C45.4424 184.486 45.7855 185.736 46.1947 186.965C46.989 189.368 48.0272 191.685 49.293 193.877C49.3633 193.996 49.4307 194.113 49.5041 194.229V194.232C50.045 195.144 50.632 196.028 51.2628 196.881C52.2172 198.239 53.3964 199.424 54.7496 200.386C55.8548 201.116 57.1047 201.599 58.4138 201.802C58.6585 201.848 58.9093 201.881 59.1631 201.912C60.1756 202.031 61.2216 202.077 62.2248 202.291C62.7329 202.392 63.2277 202.551 63.6991 202.765C65.314 203.515 66.2224 205.084 66.62 206.76C66.6904 207.054 66.7454 207.35 66.7882 207.647C67.1216 209.926 66.7546 212.293 66.9442 214.575C66.9656 214.816 66.9932 215.061 67.0268 215.303H67.2532L67.4 214.966V214.963C67.3847 214.835 67.3724 214.706 67.3602 214.575C67.2868 213.454 67.2776 212.329 67.3327 211.207C67.3449 210.703 67.3541 210.195 67.3479 209.687C67.3418 209.28 67.3266 208.874 67.296 208.47V208.467C67.2745 208.216 67.2501 207.968 67.2165 207.72C67.1193 206.962 66.9325 206.217 66.6598 205.503C66.3937 204.767 65.9749 204.095 65.4309 203.532C64.8869 202.969 64.23 202.527 63.5033 202.236C63.0594 202.07 62.602 201.942 62.1361 201.854C61.1115 201.658 60.0532 201.609 59.0224 201.481C58.9123 201.469 58.8022 201.453 58.6951 201.435C58.5575 201.414 58.423 201.389 58.2884 201.365C56.9397 201.125 55.6659 200.573 54.5691 199.753C53.2656 198.721 52.1324 197.49 51.2107 196.107C50.7092 195.388 50.232 194.654 49.7885 193.898C49.7885 193.898 49.7884 193.898 49.7883 193.897C49.7881 193.897 49.7879 193.897 49.7876 193.896C49.7874 193.896 49.787 193.896 49.7866 193.896C49.7863 193.895 49.7859 193.895 49.7855 193.895C49.764 193.859 49.7426 193.825 49.7212 193.788L49.7182 193.782C47.8158 190.531 46.4272 187.006 45.6013 183.331C45.5737 183.196 45.5431 183.062 45.5126 182.927C44.9449 180.274 44.671 177.566 44.6959 174.852V174.849C44.6959 174.721 44.699 174.595 44.702 174.467C44.7081 174.204 44.3014 174.146 44.2953 174.409C44.2922 174.537 44.2892 174.666 44.2922 174.794C44.2918 174.794 44.2914 174.794 44.291 174.794C44.2907 174.795 44.2903 174.795 44.29 174.795C44.2897 174.795 44.2895 174.796 44.2894 174.796C44.2892 174.797 44.2891 174.797 44.2892 174.797Z" fill="white"/>
<path d="M49.6797 164.146C48.5142 164.738 47.1762 164.897 45.9047 164.593C44.6332 164.29 43.511 163.544 42.7384 162.49C42.5828 162.276 42.9079 162.024 43.0637 162.238C43.7813 163.222 44.8267 163.916 46.0113 164.196C47.1959 164.476 48.4417 164.324 49.5237 163.766C49.759 163.645 49.9136 164.026 49.6797 164.146Z" fill="white"/>
<path d="M58.2488 201.487C59.1005 198.954 58.9662 196.193 57.8728 193.755C57.7643 193.513 58.1447 193.358 58.2531 193.599C59.3863 196.138 59.5202 199.012 58.6281 201.645C58.5429 201.896 58.1641 201.736 58.2488 201.487H58.2488Z" fill="white"/>
<path d="M45.3948 152.965C45.8935 152.83 46.3508 152.573 46.7257 152.218C47.1006 151.862 47.3813 151.419 47.5427 150.928C47.6246 150.676 48.0034 150.836 47.9219 151.087C47.7412 151.628 47.4305 152.117 47.0172 152.511C46.6039 152.905 46.1004 153.191 45.5508 153.345C45.5002 153.364 45.4444 153.363 45.3945 153.342C45.3447 153.321 45.3047 153.282 45.2826 153.233C45.2622 153.183 45.2626 153.126 45.2836 153.076C45.3046 153.026 45.3446 152.986 45.3948 152.965H45.3948Z" fill="white"/>
<path d="M61.3203 195.355V195.358C61.4152 197.542 61.6883 199.715 62.1369 201.854V201.858C62.1614 202.004 62.1951 202.148 62.2256 202.292C62.9639 205.601 63.9988 208.837 65.3179 211.96C65.6819 212.841 66.0632 213.713 66.4619 214.575C66.5719 214.82 66.6851 215.062 66.8013 215.303H67.254L67.4008 214.967V214.964L67.5721 214.575L67.5935 214.529L67.6027 214.575L67.7709 215.303H72.1447L72.995 214.575L74.2337 213.514L72.5026 211.624L72.2181 211.312L72.1753 211.266L72.0377 211.116L72.6096 208.614L71.4596 208.424L72.7197 204.537L73.3162 202.699L73.466 202.237L74.3378 199.548L76.9681 200.041L77.3964 198.542C76.6079 196.714 75.9517 194.833 75.4327 192.911C75.4297 192.896 75.4236 192.884 75.4205 192.868C74.0308 187.692 73.6139 182.304 74.191 176.976V176.973C74.2093 176.801 74.2307 176.627 74.2552 176.459V176.453C74.5174 174.245 74.9593 172.062 75.5765 169.926C75.6194 169.763 75.6683 169.604 75.7142 169.445C75.5735 169.506 75.4359 169.565 75.2951 169.626L75.2921 169.629H75.2859C75.0627 169.727 74.8394 169.831 74.6222 169.941C69.4042 172.476 65.5657 177.236 63.3849 182.723C63.3788 182.738 63.3727 182.75 63.3665 182.766C62.2286 185.642 61.5505 188.68 61.3571 191.767C61.2837 192.962 61.2715 194.159 61.3203 195.355Z" fill="#F0F0F0"/>
<path d="M69.2559 215.303H69.7391C69.8921 215.055 70.0572 214.814 70.2224 214.575C70.4854 214.205 70.7566 213.843 71.036 213.489C71.2776 213.183 71.5193 212.881 71.7609 212.578C72.0117 212.263 72.2594 211.948 72.5011 211.624L72.2166 211.312C72.1707 211.373 72.1249 211.434 72.0759 211.495C71.2929 212.526 70.4457 213.517 69.7208 214.575C69.5587 214.814 69.4027 215.055 69.2559 215.303Z" fill="white"/>
<path d="M75.8149 169.616C75.7354 169.717 75.6528 169.821 75.5763 169.925C74.9799 170.699 74.4161 171.497 73.8849 172.32C72.9389 173.772 72.0987 175.29 71.3708 176.862C71.3126 176.984 71.2545 177.11 71.1995 177.235C69.6418 180.671 68.6265 184.328 68.1898 188.075C68.1837 188.112 68.1806 188.145 68.1776 188.182C68.0767 189.057 68.0114 189.935 67.9818 190.815C67.8843 192.474 68.0484 194.138 68.4681 195.746C68.5293 195.957 68.5966 196.165 68.67 196.367C68.854 196.862 69.0844 197.338 69.3582 197.789C69.5549 198.118 69.7736 198.434 70.0127 198.734C70.1565 198.918 70.3064 199.098 70.4654 199.273C70.5572 199.373 70.652 199.474 70.7468 199.575C70.8263 199.652 70.9028 199.731 70.9823 199.808C71.8081 200.609 72.7196 201.352 73.4659 202.236L73.316 202.698C72.5973 201.787 71.6705 201.031 70.8355 200.236C70.3113 199.743 69.8341 199.202 69.4102 198.621C69.3551 198.542 69.297 198.462 69.245 198.379C68.9616 197.965 68.7169 197.526 68.514 197.067C68.41 196.838 68.3152 196.602 68.2296 196.358C67.7299 194.776 67.5023 193.121 67.5567 191.464C67.5665 190.402 67.6298 189.341 67.7463 188.286C67.7586 188.148 67.7739 188.014 67.7922 187.876C68.1024 185.364 68.6681 182.89 69.4806 180.493C70.5089 177.451 71.9233 174.555 73.6892 171.873C74.1939 171.106 74.7291 170.356 75.295 169.625C75.3684 169.524 75.4448 169.426 75.5244 169.326C75.6864 169.118 75.977 169.408 75.8149 169.616Z" fill="white"/>
<path d="M67.938 188.324C66.651 188.095 65.4874 187.416 64.6548 186.408C63.8223 185.401 63.3751 184.13 63.3931 182.823C63.3943 182.769 63.4162 182.719 63.4541 182.681C63.492 182.644 63.543 182.622 63.5963 182.622C63.6496 182.621 63.7011 182.641 63.7399 182.678C63.7787 182.714 63.8018 182.764 63.8043 182.818C63.7852 184.035 64.2019 185.219 64.9791 186.155C65.7563 187.092 66.8428 187.721 68.0425 187.927C68.3031 187.972 68.1972 188.369 67.938 188.324L67.938 188.324Z" fill="white"/>
<path d="M70.3603 199.345C72.5653 197.836 74.1203 195.551 74.7152 192.945C74.774 192.687 75.1715 192.792 75.1129 193.05C74.4887 195.76 72.8656 198.135 70.5676 199.7C70.3485 199.849 70.1424 199.494 70.3603 199.345H70.3603Z" fill="white"/>
<path d="M71.2486 176.817C71.7281 177.01 72.2478 177.08 72.7612 177.022C73.2746 176.964 73.7655 176.779 74.1898 176.484C74.4069 176.332 74.6128 176.688 74.3971 176.839C73.9268 177.163 73.3844 177.366 72.8173 177.431C72.2503 177.497 71.6758 177.423 71.1441 177.215C71.0924 177.2 71.0484 177.165 71.0212 177.118C70.994 177.072 70.9855 177.016 70.9975 176.964C71.0116 176.911 71.0459 176.866 71.0929 176.839C71.1399 176.812 71.1958 176.804 71.2486 176.817Z" fill="white"/>
<path d="M98.5963 209.014L101.717 209.014L103.201 196.978H98.5957L98.5963 209.014Z" fill="#FFB8B8"/>
<path d="M97.54 207.475L102.473 207.18V209.294L107.162 212.533C107.394 212.692 107.569 212.922 107.66 213.188C107.752 213.455 107.757 213.743 107.673 214.012C107.589 214.28 107.421 214.515 107.195 214.682C106.968 214.849 106.694 214.939 106.412 214.939H100.54L99.5274 212.849L99.1322 214.939H96.918L97.54 207.475Z" fill="#2F2E41"/>
<path d="M69.1035 207.462L72.1533 208.123L76.1554 196.675L71.6547 195.699L69.1035 207.462Z" fill="#FFB8B8"/>
<path d="M68.3973 205.733L73.2804 206.491L72.8324 208.556L76.7289 212.716C76.9213 212.921 77.0431 213.183 77.0764 213.462C77.1097 213.742 77.0527 214.025 76.9139 214.27C76.775 214.515 76.5616 214.709 76.3046 214.824C76.0477 214.939 75.7607 214.968 75.4856 214.909L69.7464 213.664L69.2004 211.406L68.3709 213.365L66.207 212.896L68.3973 205.733Z" fill="#2F2E41"/>
<path d="M47.127 214.939C47.1268 214.987 47.1361 215.034 47.1544 215.079C47.1726 215.123 47.1994 215.163 47.2332 215.197C47.2671 215.231 47.3073 215.257 47.3515 215.276C47.3957 215.294 47.4431 215.303 47.4909 215.303H133.221C133.317 215.303 133.41 215.265 133.478 215.197C133.546 215.128 133.585 215.036 133.585 214.939C133.585 214.843 133.546 214.75 133.478 214.682C133.41 214.614 133.317 214.575 133.221 214.575H47.4909C47.4431 214.575 47.3957 214.584 47.3515 214.603C47.3073 214.621 47.2671 214.648 47.2333 214.681C47.1994 214.715 47.1726 214.755 47.1544 214.8C47.1361 214.844 47.1268 214.891 47.127 214.939Z" fill="#CCCCCC"/>
<path d="M108.268 155.249C106.078 167.285 105.53 172.481 105.53 172.481C105.53 172.481 107.173 174.396 106.078 175.491C104.983 176.586 106.078 178.773 106.078 178.773L103.211 201.663L102.599 205.028L96.8589 204.218L97.7056 201.052L96.2319 179.048C96.2319 179.048 95.137 176.858 95.6844 176.311C96.2319 175.763 95.137 172.481 95.137 172.481L93.7698 146.495L85.2882 174.944C85.2882 174.944 86.111 176.039 85.2882 176.858C84.4685 177.678 82.8291 181.783 82.8291 181.783L76.6013 198.299L75.3778 200.746L74.7269 200.437L71.864 199.899L71.3379 199.801L70.402 199.624L69.7994 199.511L69.5945 199.474L68.6035 199.287L68.9033 197.957L71.0957 194.628L73.326 178.305L73.4239 177.868L73.5279 177.406C73.5279 177.406 72.9804 176.039 73.8001 175.216C74.0399 174.965 74.215 174.66 74.3104 174.326C74.4058 173.993 74.4185 173.641 74.3476 173.301C74.3207 173.273 74.2962 173.242 74.2741 173.209C74.1773 173.076 74.1105 172.924 74.0784 172.763C74.005 172.42 74.0692 171.94 74.6228 171.386C74.7787 171.221 74.9096 171.033 75.0113 170.83C75.8432 169.255 76.2622 165.918 76.2622 165.918C76.2622 165.918 77.0024 139.488 79.4248 135.451C79.5533 135.24 82.1249 131.188 82.2595 131.105C84.9939 129.466 106.335 131.425 106.335 131.425C106.335 131.425 107.625 134.891 107.683 135.252C107.998 137.28 110.124 145.039 108.268 155.249Z" fill="#2F2E41"/>
<path d="M130.414 96.4888C130.366 96.8688 130.235 97.2337 130.031 97.5577C129.826 97.8817 129.554 98.157 129.231 98.3642C128.909 98.5713 128.546 98.7053 128.166 98.7567C127.786 98.8081 127.4 98.7757 127.034 98.6616L121.502 106.151L119.836 101.608L125.345 95.1929C125.577 94.5912 126.022 94.0957 126.595 93.8002C127.169 93.5047 127.83 93.4297 128.455 93.5894C129.08 93.7492 129.624 94.1326 129.985 94.6669C130.346 95.2013 130.499 95.8496 130.414 96.4888H130.414Z" fill="#FFB8B8"/>
<path d="M79.9311 128.212C79.4239 128.212 79.1358 128.112 79.0243 127.899C78.8606 127.586 79.1446 127.177 79.4735 126.703C79.7175 126.394 79.91 126.047 80.0434 125.677C80.2401 124.89 81.5676 105.017 80.7736 101.046C80.5899 100.127 80.748 98.9493 81.2434 97.5455C82.5966 93.7114 84.4437 92.5331 88.1235 90.186C88.4222 89.9954 88.7332 89.7964 89.0566 89.5889C89.4749 89.3201 89.4516 88.4287 89.427 87.4849C89.3996 86.4359 89.3713 85.351 89.8852 84.673L89.9186 84.6288L89.9725 84.6162C91.2155 84.3289 95.3962 83.7954 97.872 84.6201L97.9062 84.6318L97.9318 84.6571C98.5199 85.2453 98.5735 86.3845 98.6253 87.4861C98.6678 88.3905 98.7079 89.2445 99.0407 89.6155C101.584 92.451 104.47 92.3957 104.499 92.3951L104.642 92.3909L104.656 92.5331C105.762 103.788 107.546 120.776 107.925 121.444C107.945 121.475 107.956 121.51 107.957 121.547C107.958 121.583 107.949 121.619 107.932 121.651C107.375 122.691 81.8427 128.212 79.9311 128.212Z" fill="#EF293D"/>
<path d="M96.5487 81.4305C100.716 81.4305 104.093 78.0525 104.093 73.8856C104.093 69.7188 100.716 66.3408 96.5487 66.3408C92.3818 66.3408 89.0039 69.7188 89.0039 73.8856C89.0039 78.0525 92.3818 81.4305 96.5487 81.4305Z" fill="#FFB8B8"/>
<path d="M101.59 87.677C101.233 87.1662 99.4186 80.9274 98.6239 79.0124C98.5425 79.4239 97.6311 81.0196 97.6097 81.4442L97.6018 81.6015L97.4456 81.6217C97.2107 81.6517 91.6616 82.3252 88.7738 79.0506C87.0628 77.111 86.6748 74.2016 87.6189 70.4015C87.4472 70.3678 87.2827 70.3044 87.1327 70.2142C86.883 70.0414 86.6739 69.8162 86.5202 69.5542C86.3665 69.2923 86.2718 69 86.2426 68.6977L86.0827 68.7406C85.2685 68.9602 84.35 69.2509 83.7567 69.9219C83.0963 70.6681 82.9787 71.682 82.854 72.7553C82.8054 73.2677 82.7246 73.7766 82.612 74.2788C82.2097 75.9021 81.0769 77.4224 79.2453 78.7979C77.4013 80.1826 75.5212 80.9748 73.6572 81.152C71.4555 81.3621 69.3323 80.6387 67.9793 79.2186C66.4705 77.6353 66.0759 75.1993 67.0407 73.4265L67.1959 73.1409L67.3665 73.4176C68.2253 74.8114 70.1018 75.5643 71.9304 75.2478C73.4982 74.9766 75.0525 73.9811 76.3068 72.4448C77.4519 71.0423 78.2417 69.3859 79.0056 67.7841C79.7825 66.1553 80.5857 64.471 81.7427 63.0419C83.0479 61.4299 84.6766 60.3771 86.3291 60.0773C87.5325 59.8598 88.6063 60.1063 89.2756 60.755C89.7486 61.2425 90.0286 61.8849 90.064 62.5632C90.4756 62.4712 90.9047 62.4958 91.3031 62.6344C91.6873 62.7907 92.022 63.048 92.2718 63.3791C92.5217 63.7103 92.6772 64.1028 92.7221 64.5152C95.1467 63.2398 98.3556 63.4474 100.015 64.4042C100.71 64.8049 101.109 65.3096 101.18 65.8725C103.14 65.982 105.249 67.8915 105.249 70.5969V70.7853H105.06C103.509 70.7853 102.092 71.6776 101.271 73.172C100.789 74.043 100.551 75.0277 100.581 76.0227C100.611 77.0177 100.908 77.9862 101.442 78.8266C102.022 79.7179 102.419 80.7164 102.608 81.7634C102.797 82.8103 102.774 83.8845 102.542 84.9226L101.834 88.0247L101.59 87.677Z" fill="#2F2E41"/>
<path d="M110.25 115.894L105.276 113.096C96.6038 107.085 94.4676 102.311 94.2006 99.3639C93.9156 96.2189 95.5911 94.4987 95.6627 94.4273L95.7013 94.399L100.185 92.1083C100.754 91.8173 101.379 91.6508 102.018 91.6196C102.656 91.5885 103.294 91.6934 103.889 91.9276C104.485 92.1617 105.023 92.5197 105.469 92.9777C105.916 93.4358 106.259 93.9835 106.478 94.5845L110.625 105.989L115.222 102.598L117.183 101.826L118.765 99.71L123.111 97.1756L126.339 100.081L122.279 108.2L120.024 108.774L119.545 110.007L119.503 110.034L110.25 115.894Z" fill="#EF293D"/>
</svg>
