<svg width="777" height="487" viewBox="0 0 777 487" fill="none" xmlns="http://www.w3.org/2000/svg">
<mask id="mask0" style="mask-type:alpha" maskUnits="userSpaceOnUse" x="0" y="0" width="777" height="487">
<g style="mix-blend-mode:darken">
<rect width="777" height="487" fill="#EF293D"/>
</g>
</mask>
<g mask="url(#mask0)">
<mask id="mask1" style="mask-type:alpha" maskUnits="userSpaceOnUse" x="-100" y="-101" width="1109" height="851">
<rect x="-99.4522" y="-100.232" width="1108.16" height="850.112" fill="#C4C4C4"/>
</mask>
<g mask="url(#mask1)">
<path d="M585.854 349.609C648.401 301.433 662.162 207.759 617.128 139.511L319.402 -303.434C318.151 -304.772 316.9 -306.111 316.9 -307.449L315.649 -310.125C279.372 -381.05 284.375 -469.372 331.911 -532.267C413.223 -640.662 562.086 -629.956 632.139 -525.576L723.458 -390.417C737.219 -370.344 757.234 -359.639 779.751 -359.639H943.626C943.626 -647.353 724.71 -882.876 454.505 -882.876C443.246 -882.876 431.987 -882.876 420.729 -881.538C266.862 -870.833 129.258 -775.82 54.201 -628.618C50.4481 -621.927 47.946 -615.235 44.1931 -608.544C-25.86 -455.989 -7.09552 -273.994 85.4747 -136.159L389.455 314.816C435.74 383.064 523.306 397.784 585.854 349.609Z" fill="white"/>
<path d="M531.005 706.33C261.676 706.33 43.2707 471.81 42.6932 184.919H205.537C227.672 184.919 247.358 195.43 260.928 215.229L351.054 347.821C387.565 401.704 445.499 431.363 504.718 431.363C543.761 431.363 582.818 419.234 615.578 393.619L614.945 392.809L615.579 393.618C699.934 327.61 718.794 201.037 658.385 110.819L658.383 110.815L361.756 -328.422L359.29 -333.698L359.279 -333.721L359.267 -333.744C324.468 -400.233 341.876 -482.668 399.013 -527.86C462.327 -575.67 549.201 -561.067 593.901 -494.642L593.902 -494.64L899.341 -41.9352L899.343 -41.9314C993.004 95.6937 1011.74 278.742 941.831 431.043C938.087 437.72 934.322 444.435 930.557 452.49C855.613 599.485 718.257 694.309 564.725 704.993L564.697 704.995L564.669 704.998C553.481 706.328 542.282 706.33 531.005 706.33Z" stroke="white" stroke-width="2.28103"/>
</g>
<path d="M590.932 260.306C590.135 260.891 589.252 261.429 588.319 261.929C587.395 262.434 586.351 262.874 585.33 263.305C584.301 263.726 583.256 264.123 582.232 264.507C581.187 264.881 580.144 265.232 579.167 265.597C578.183 265.957 577.275 266.336 576.417 266.719C575.552 267.103 574.776 267.514 574.122 267.987C574.797 267.243 575.636 266.584 576.496 265.938C577.355 265.293 578.307 264.689 579.312 264.118C579.817 263.833 580.322 263.552 580.826 263.272C581.332 262.991 581.847 262.715 582.367 262.448C583.398 261.911 584.484 261.41 585.483 260.905C587.483 259.894 589.45 258.978 590.994 258.168C592.527 257.359 593.715 256.686 594.285 256.218C593.705 257.771 592.556 259.151 590.932 260.306V260.306ZM570.367 259.492C569.852 258.585 569.314 257.691 568.79 256.831C568.278 255.989 567.771 255.151 567.277 254.337C566.785 253.533 566.343 252.77 565.986 252.05C565.301 250.614 564.826 249.323 565.016 248.224C565.31 248.724 566.055 249.613 567.013 250.829C567.96 252.045 569.042 253.57 570.115 255.357C570.654 256.255 571.11 257.186 571.559 258.178C571.779 258.674 571.988 259.179 572.182 259.693C572.381 260.208 572.553 260.727 572.685 261.246C572.964 262.285 573.165 263.342 573.258 264.394C573.351 265.447 573.265 266.457 573.079 267.44C573.074 266.64 572.943 265.793 572.719 264.918C572.487 264.044 572.124 263.127 571.724 262.215C571.317 261.302 570.862 260.395 570.367 259.492V259.492ZM567.804 283.76C570.104 283.25 572.66 282.96 574.998 282.619C576.2 282.464 577.356 282.315 578.441 282.174C579.535 282.034 580.534 281.875 581.453 281.73C583.282 281.44 584.72 281.173 585.439 280.893C584.418 282.235 582.809 283.199 580.863 283.84C579.872 284.148 578.805 284.387 577.696 284.569C576.583 284.747 575.452 284.888 574.256 284.953C569.531 285.28 564.664 284.916 561.512 285.856C561.955 285.608 562.427 285.383 562.924 285.187C563.408 284.972 563.911 284.78 564.438 284.607C565.485 284.261 566.64 284.003 567.804 283.76V283.76ZM558.673 273.072C558.354 272.071 557.981 271.056 557.674 270.12C557.362 269.18 557.09 268.296 556.896 267.482C556.471 265.835 556.324 264.465 556.787 263.478C556.977 264.058 557.531 265.148 558.227 266.635C558.569 267.374 558.965 268.226 559.328 269.133C559.686 270.04 560.046 271.023 560.376 272.066C561.065 274.171 561.506 276.421 561.646 278.704C561.703 279.836 561.632 280.93 561.472 281.997C561.388 282.53 561.28 283.054 561.137 283.554C560.979 284.041 560.791 284.513 560.57 284.962C560.976 283.4 560.81 281.393 560.424 279.34C560.326 278.825 560.215 278.306 560.09 277.787C559.954 277.254 559.806 276.72 559.652 276.192C559.342 275.135 559.005 274.087 558.673 273.072V273.072ZM551.3 299.548C552.528 299.683 553.8 299.884 555.083 300.118C556.345 300.324 557.613 300.553 558.861 300.797C561.371 301.297 563.71 301.727 565.669 302.06C566.646 302.223 567.522 302.359 568.256 302.448C568.979 302.527 569.557 302.555 569.958 302.532C569.619 302.794 569.254 303.023 568.849 303.206C568.439 303.383 568.002 303.528 567.541 303.641C566.618 303.87 565.604 303.973 564.53 303.973C562.375 303.973 559.93 303.496 557.534 302.906C555.099 302.275 552.671 301.475 550.456 300.829C549.333 300.488 548.264 300.188 547.269 299.969C546.271 299.749 545.365 299.646 544.509 299.613C545.018 299.515 545.534 299.431 546.065 299.374C546.6 299.323 547.154 299.3 547.725 299.304C548.296 299.309 548.884 299.337 549.486 299.384C550.086 299.431 550.683 299.473 551.3 299.548ZM544.678 285.758C544.434 283.447 544.197 281.332 544.133 279.546C544.097 278.647 544.12 277.848 544.237 277.174C544.296 276.833 544.377 276.528 544.487 276.252C544.594 275.977 544.718 275.719 544.88 275.509C544.917 275.831 545.024 276.318 545.166 276.94C545.304 277.562 545.469 278.311 545.655 279.148C546.018 280.855 546.441 283.03 546.603 285.309C546.692 286.459 546.739 287.661 546.71 288.873C546.662 290.052 546.543 291.245 546.336 292.405C546.23 292.985 546.111 293.565 545.951 294.112C545.789 294.65 545.603 295.179 545.391 295.684C545.179 296.189 544.942 296.675 544.677 297.134C544.416 297.597 544.123 298.027 543.789 298.397C544.182 297.681 544.438 296.769 544.632 295.796C544.821 294.818 544.932 293.761 544.982 292.662C545.057 290.421 544.885 288.017 544.678 285.758V285.758ZM538.135 313.903C540.475 315.19 542.694 316.387 544.568 317.374C546.437 318.352 547.902 319.007 548.727 319.236C547.906 319.531 547.004 319.657 546.026 319.587C545.043 319.512 544.001 319.283 542.928 318.932C541.851 318.572 540.762 318.132 539.632 317.533C538.507 316.949 537.378 316.284 536.264 315.587C534.047 314.226 531.843 312.575 529.848 311.232C529.35 310.9 528.86 310.578 528.378 310.26C527.895 309.941 527.425 309.642 526.967 309.375C526.051 308.837 525.187 308.412 524.377 308.155C525.401 308.225 526.473 308.473 527.587 308.852C528.702 309.23 529.835 309.656 531.01 310.203C533.364 311.321 535.777 312.58 538.135 313.903ZM525.485 304.319C525.703 303.856 525.908 303.369 526.098 302.859C526.289 302.345 526.458 301.788 526.619 301.227C527.254 298.958 527.71 296.526 528.034 294.089C528.371 291.68 528.639 289.439 528.985 287.582C529.163 286.66 529.371 285.865 529.64 285.22C529.905 284.569 530.213 284.036 530.623 283.709C530.542 284.378 530.599 285.837 530.551 287.685C530.5 289.514 530.392 291.853 530.01 294.257C529.62 296.629 529.007 299.215 527.997 301.395C527.496 302.49 526.927 303.566 526.252 304.45C525.578 305.334 524.822 306.106 523.994 306.7C524.551 306.054 525.047 305.24 525.485 304.319V304.319ZM482.221 309.375C481.763 309.642 481.293 309.941 480.81 310.26C480.328 310.578 479.838 310.9 479.341 311.232C477.345 312.575 475.141 314.226 472.924 315.587C471.81 316.284 470.681 316.949 469.556 317.533C468.427 318.132 467.337 318.572 466.26 318.932C465.188 319.283 464.145 319.512 463.162 319.587C462.184 319.657 461.282 319.531 460.462 319.236C461.287 319.007 462.751 318.352 464.62 317.374C466.494 316.387 468.713 315.19 471.053 313.903C473.411 312.58 475.824 311.321 478.178 310.203C479.226 309.717 480.239 309.324 481.237 308.978C481.598 309.095 481.958 309.212 482.317 309.319C482.284 309.338 482.253 309.357 482.221 309.375V309.375ZM481.191 301.395C480.181 299.215 479.568 296.629 479.179 294.257C478.796 291.853 478.688 289.514 478.637 287.685C478.589 285.837 478.646 284.378 478.565 283.709C478.975 284.036 479.283 284.569 479.548 285.22C479.817 285.865 480.026 286.66 480.204 287.582C480.549 289.439 480.817 291.68 481.154 294.089C481.478 296.526 481.934 298.958 482.569 301.227C482.73 301.788 482.899 302.345 483.09 302.859C483.28 303.369 483.485 303.856 483.703 304.319C483.723 304.361 483.743 304.394 483.762 304.436C483.415 304.338 483.068 304.244 482.719 304.141C482.139 303.318 481.636 302.368 481.191 301.395V301.395ZM461.919 299.969C460.924 300.188 459.855 300.488 458.732 300.829C456.517 301.475 454.089 302.275 451.654 302.906C449.258 303.496 446.813 303.973 444.658 303.973C443.584 303.973 442.57 303.87 441.647 303.641C441.187 303.528 440.749 303.383 440.339 303.206C439.934 303.023 439.569 302.794 439.23 302.532C439.631 302.555 440.209 302.527 440.932 302.448C441.666 302.359 442.542 302.223 443.519 302.06C445.478 301.727 447.817 301.297 450.327 300.797C451.575 300.553 452.843 300.324 454.106 300.118C455.388 299.884 456.66 299.683 457.889 299.548C458.505 299.473 459.102 299.431 459.702 299.384C460.269 299.337 460.821 299.314 461.361 299.304C461.662 299.505 461.963 299.707 462.265 299.903C462.149 299.926 462.037 299.945 461.919 299.969V299.969ZM462.585 285.309C462.747 283.03 463.17 280.855 463.533 279.148C463.719 278.311 463.884 277.562 464.022 276.94C464.164 276.318 464.272 275.831 464.308 275.509C464.471 275.719 464.594 275.977 464.701 276.252C464.811 276.528 464.893 276.833 464.951 277.174C465.068 277.848 465.091 278.647 465.055 279.546C464.991 281.332 464.754 283.447 464.51 285.758C464.303 288.017 464.132 290.421 464.206 292.662C464.257 293.761 464.367 294.818 464.556 295.796C464.578 295.904 464.603 296.007 464.626 296.109C464.333 295.932 464.042 295.745 463.75 295.562C463.559 295.09 463.387 294.608 463.237 294.112C463.077 293.565 462.959 292.985 462.853 292.405C462.645 291.245 462.527 290.052 462.478 288.873C462.449 287.661 462.496 286.459 462.585 285.309V285.309ZM447.773 282.179C447.763 282.17 447.753 282.156 447.744 282.146C447.735 282.095 447.724 282.048 447.717 281.997C447.556 280.93 447.485 279.836 447.542 278.704C447.682 276.421 448.123 274.171 448.812 272.066C449.143 271.023 449.502 270.04 449.86 269.133C450.223 268.226 450.619 267.374 450.961 266.635C451.657 265.148 452.211 264.058 452.401 263.478C452.864 264.465 452.717 265.835 452.292 267.482C452.098 268.296 451.827 269.18 451.514 270.12C451.207 271.056 450.834 272.071 450.515 273.072C450.183 274.087 449.846 275.135 449.536 276.192C449.382 276.72 449.235 277.254 449.098 277.787C448.973 278.306 448.862 278.825 448.764 279.34C448.537 280.551 448.389 281.744 448.387 282.843C448.183 282.619 447.975 282.404 447.773 282.179V282.179ZM434.932 284.953C433.736 284.888 432.606 284.747 431.492 284.569C430.383 284.387 429.316 284.148 428.325 283.84C426.379 283.199 424.77 282.235 423.749 280.893C424.468 281.173 425.906 281.44 427.735 281.73C428.654 281.875 429.653 282.034 430.747 282.174C431.832 282.315 432.988 282.464 434.19 282.619C436.528 282.96 439.084 283.25 441.385 283.76C442.548 284.003 443.703 284.261 444.75 284.607C444.804 284.626 444.855 284.649 444.909 284.663C445.122 284.925 445.337 285.178 445.557 285.43C442.551 285.037 438.698 285.215 434.932 284.953V284.953ZM435.911 264.778C435.918 264.652 435.918 264.525 435.93 264.394C436.023 263.342 436.224 262.285 436.503 261.246C436.636 260.727 436.807 260.208 437.006 259.693C437.2 259.179 437.409 258.674 437.629 258.178C438.078 257.186 438.534 256.255 439.073 255.357C440.146 253.57 441.228 252.045 442.175 250.829C443.133 249.613 443.878 248.724 444.172 248.224C444.362 249.323 443.887 250.614 443.202 252.05C442.845 252.77 442.403 253.533 441.911 254.337C441.418 255.151 440.91 255.989 440.398 256.831C439.874 257.691 439.337 258.585 438.821 259.492C438.326 260.395 437.871 261.302 437.464 262.215C437.064 263.127 436.701 264.044 436.469 264.918C436.411 265.148 436.36 265.372 436.314 265.592C436.177 265.325 436.046 265.049 435.911 264.778V264.778ZM432.771 266.719C431.913 266.336 431.006 265.957 430.021 265.597C429.044 265.232 428.001 264.881 426.956 264.507C425.932 264.123 424.887 263.726 423.858 263.305C422.837 262.874 421.793 262.434 420.869 261.929C419.936 261.429 419.054 260.891 418.256 260.306C416.632 259.151 415.483 257.771 414.904 256.218C415.473 256.686 416.661 257.359 418.194 258.168C419.738 258.978 421.705 259.894 423.705 260.905C424.704 261.41 425.79 261.911 426.821 262.448C427.341 262.715 427.856 262.991 428.362 263.272C428.866 263.552 429.371 263.833 429.876 264.118C430.881 264.689 431.833 265.293 432.692 265.938C432.823 266.036 432.952 266.135 433.081 266.233C433.207 266.504 433.335 266.775 433.464 267.047C433.239 266.934 433.009 266.827 432.771 266.719ZM429.253 244.823C429.564 243.621 430.04 242.442 430.678 241.315C431.188 240.393 431.724 239.518 432.353 238.69C432.986 237.862 433.647 237.086 434.302 236.37C435.582 234.943 436.994 233.755 438.076 232.829C438.617 232.375 439.098 231.973 439.499 231.632C439.9 231.3 440.221 231.028 440.412 230.822C440.332 231.393 440.152 231.964 439.86 232.544C439.565 233.124 439.153 233.713 438.657 234.321C438.147 234.929 437.61 235.552 437.01 236.192C436.411 236.838 435.758 237.498 435.086 238.185C434.397 238.873 433.765 239.574 433.117 240.304C432.474 241.029 431.846 241.773 431.267 242.531C430.504 243.551 429.869 244.594 429.407 245.632C429.355 245.361 429.302 245.094 429.253 244.823V244.823ZM423.973 243.607C423.217 242.98 422.413 242.344 421.596 241.689C420.784 241.034 419.929 240.37 419.168 239.677C418.39 238.985 417.633 238.274 416.929 237.54C416.224 236.81 415.564 236.057 415.047 235.29C414.516 234.518 414.07 233.732 413.739 232.937C413.404 232.137 413.189 231.332 413.161 230.523C413.346 230.818 413.641 231.206 414.044 231.664C414.456 232.128 414.964 232.661 415.539 233.25C416.704 234.434 418.07 235.842 419.637 237.357C420.405 238.11 421.183 238.896 421.941 239.701C422.7 240.505 423.506 241.319 424.222 242.157C425.089 243.186 425.944 244.229 426.663 245.3C426.707 245.576 426.75 245.847 426.797 246.123C425.992 245.281 425.011 244.458 423.973 243.607ZM426.027 224.26C424.854 221.673 422.722 218.885 421.047 215.924C420.027 214.202 419.212 212.448 418.67 210.713C418.407 209.843 418.259 208.991 418.193 208.154C418.132 207.317 418.165 206.498 418.366 205.722C418.502 206.372 418.986 207.49 419.647 208.898C419.98 209.6 420.335 210.371 420.75 211.199C421.16 212.027 421.598 212.911 422.053 213.824C422.484 214.736 422.977 215.685 423.427 216.649C423.879 217.613 424.307 218.595 424.735 219.582C425.271 220.892 425.758 222.211 426.108 223.525C426.081 223.773 426.053 224.016 426.027 224.26ZM428.253 223.712C428.849 222.538 429.618 221.434 430.503 220.433C431.15 219.671 431.89 218.969 432.638 218.319C433.387 217.673 434.124 217.079 434.901 216.555C435.665 216.027 436.407 215.554 437.102 215.133C437.8 214.712 438.486 214.357 439.078 214.039C440.268 213.403 441.172 212.954 441.626 212.64C441.401 213.183 441.098 213.702 440.685 214.198C440.277 214.694 439.748 215.166 439.178 215.639C438.054 216.593 436.576 217.514 435.112 218.525C432.536 220.227 429.817 222.187 428.188 224.447C428.21 224.203 428.232 223.956 428.253 223.712V223.712ZM431.002 201.788C430.936 201.371 430.855 200.95 430.764 200.52C430.682 200.094 430.594 199.664 430.497 199.229C430.304 198.354 430.077 197.452 429.859 196.539C429.66 195.637 429.458 194.715 429.28 193.794C429.093 192.863 428.962 191.951 428.878 191.043C428.795 190.14 428.74 189.237 428.782 188.377C428.877 186.665 429.209 185.032 430.016 183.685C429.955 184.321 429.998 185.439 430.162 186.903C430.241 187.628 430.329 188.433 430.423 189.298C430.531 190.164 430.647 191.09 430.767 192.049C430.877 193.008 430.992 194.004 431.109 195.019C431.229 196.039 431.284 197.049 431.372 198.092C431.451 199.131 431.461 200.155 431.449 201.175C431.447 201.615 431.428 202.045 431.397 202.475C431.317 202.677 431.238 202.882 431.159 203.084C431.126 202.663 431.075 202.227 431.002 201.788V201.788ZM433.007 203.084C433.269 202.765 433.542 202.452 433.823 202.153C434.507 201.446 435.289 200.81 436.066 200.225C436.834 199.636 437.7 199.145 438.516 198.682C438.929 198.453 439.336 198.237 439.747 198.036C440.166 197.844 440.579 197.662 440.984 197.489C441.797 197.147 442.558 196.843 443.296 196.596C444.037 196.352 444.721 196.142 445.327 195.959C446.529 195.585 447.484 195.361 447.955 195.141C447.24 196.104 446.228 196.871 444.928 197.531C444.284 197.863 443.608 198.191 442.869 198.495C442.121 198.799 441.352 199.112 440.576 199.43C439.795 199.748 438.989 200.076 438.183 200.422C437.395 200.773 436.617 201.152 435.86 201.554C435.483 201.76 435.11 201.966 434.752 202.19C434.403 202.41 434.065 202.644 433.74 202.887C433.41 203.135 433.092 203.392 432.793 203.664C432.864 203.467 432.934 203.275 433.007 203.084V203.084ZM443.118 174.98C443.681 171.509 444.689 168.122 446.953 166.017C446.698 166.574 446.402 167.598 446.058 168.917C445.903 169.591 445.73 170.335 445.545 171.139C445.36 171.935 445.16 172.781 444.971 173.689C444.778 174.591 444.556 175.513 444.33 176.463C444.114 177.422 443.873 178.39 443.595 179.344C443.332 180.312 443.051 181.281 442.706 182.216C442.526 182.707 442.343 183.199 442.146 183.68C442.029 183.835 441.911 183.989 441.793 184.148C442.502 181.43 442.629 178.179 443.118 174.98V174.98ZM452.188 180.635C452.995 180.457 453.787 180.336 454.517 180.242C455.245 180.144 455.911 180.064 456.503 179.999C457.712 179.896 458.616 179.831 459.105 179.709C458.64 180.102 458.112 180.425 457.526 180.696C456.944 180.967 456.328 181.21 455.651 181.402C454.285 181.776 452.809 182.09 451.201 182.361C449.649 182.684 447.961 182.965 446.419 183.451C445.643 183.685 444.866 183.942 444.153 184.27C443.708 184.476 443.285 184.705 442.875 184.948C442.988 184.794 443.1 184.639 443.211 184.494C445.913 182.371 449.304 181.215 452.188 180.635V180.635ZM448.75 176.87C449.134 176.369 449.747 175.709 450.471 174.886C451.184 174.049 452.111 173.155 453.091 172.15C454.115 171.2 455.203 170.138 456.405 169.17C461.096 165.119 467.037 161.943 469.055 161.789C467.732 163.332 462.064 166.536 457.223 170.218C455.984 171.097 454.831 172.042 453.727 172.879C452.669 173.768 451.646 174.54 450.838 175.265C450.02 175.981 449.316 176.547 448.863 176.977C448.786 177.047 448.723 177.103 448.657 177.164L448.575 177.085C448.631 177.015 448.685 176.949 448.75 176.87V176.87ZM577.921 242.531C577.342 241.773 576.714 241.029 576.071 240.304C575.423 239.574 574.791 238.873 574.102 238.185C573.43 237.498 572.777 236.838 572.178 236.192C571.579 235.552 571.041 234.929 570.531 234.321C570.035 233.713 569.624 233.124 569.328 232.544C569.037 231.964 568.856 231.393 568.776 230.822C568.967 231.028 569.288 231.3 569.689 231.632C570.091 231.973 570.571 232.375 571.112 232.829C572.194 233.755 573.606 234.943 574.886 236.37C575.542 237.086 576.202 237.862 576.835 238.69C577.464 239.518 578 240.393 578.51 241.315C579.554 243.158 580.171 245.146 580.325 247.134C579.913 245.604 579.053 244.042 577.921 242.531V242.531ZM574.076 218.525C572.612 217.514 571.134 216.593 570.01 215.639C569.44 215.166 568.911 214.694 568.503 214.198C568.091 213.702 567.787 213.183 567.563 212.64C568.016 212.954 568.921 213.403 570.11 214.039C570.702 214.357 571.388 214.712 572.086 215.133C572.781 215.554 573.524 216.027 574.287 216.555C575.064 217.079 575.801 217.673 576.55 218.319C577.298 218.969 578.038 219.671 578.685 220.433C580.029 221.953 581.115 223.708 581.714 225.588C580.277 222.838 577.077 220.508 574.076 218.525V218.525ZM584.453 219.582C584.881 218.595 585.31 217.613 585.761 216.649C586.211 215.685 586.704 214.736 587.135 213.824C587.59 212.911 588.028 212.027 588.439 211.199C588.853 210.371 589.208 209.6 589.541 208.898C590.202 207.49 590.686 206.372 590.822 205.722C591.024 206.498 591.057 207.317 590.995 208.154C590.929 208.991 590.782 209.843 590.518 210.713C589.976 212.448 589.161 214.202 588.141 215.924C586.192 219.371 583.619 222.585 582.665 225.518C582.942 223.549 583.646 221.556 584.453 219.582ZM584.966 242.157C585.682 241.319 586.488 240.505 587.247 239.701C588.005 238.896 588.784 238.11 589.551 237.357C591.118 235.842 592.485 234.434 593.649 233.25C594.224 232.661 594.732 232.128 595.144 231.664C595.547 231.206 595.842 230.818 596.027 230.523C595.999 231.332 595.784 232.137 595.449 232.937C595.118 233.732 594.672 234.518 594.141 235.29C593.624 236.057 592.964 236.81 592.259 237.54C591.555 238.274 590.798 238.985 590.02 239.677C589.259 240.37 588.405 241.034 587.592 241.689C586.775 242.344 585.971 242.98 585.215 243.607C583.68 244.86 582.262 246.067 581.368 247.349C582.18 245.534 583.558 243.831 584.966 242.157V242.157ZM575.448 202.887C575.123 202.644 574.785 202.41 574.436 202.19C574.078 201.966 573.705 201.76 573.328 201.554C572.571 201.152 571.793 200.773 571.005 200.422C570.199 200.076 569.394 199.748 568.612 199.43C567.836 199.112 567.067 198.799 566.319 198.495C565.58 198.191 564.904 197.863 564.26 197.531C562.96 196.871 561.948 196.104 561.234 195.141C561.704 195.361 562.659 195.585 563.861 195.959C564.468 196.142 565.151 196.352 565.892 196.596C566.631 196.843 567.391 197.147 568.205 197.489C568.609 197.662 569.023 197.844 569.441 198.036C569.852 198.237 570.259 198.453 570.672 198.682C571.488 199.145 572.355 199.636 573.123 200.225C573.9 200.81 574.681 201.446 575.365 202.153C576.038 202.868 576.671 203.635 577.191 204.468C576.698 203.893 576.094 203.374 575.448 202.887ZM577.816 198.092C577.905 197.049 577.959 196.039 578.079 195.019C578.196 194.004 578.311 193.008 578.422 192.049C578.542 191.09 578.657 190.164 578.766 189.298C578.859 188.433 578.947 187.628 579.026 186.903C579.19 185.439 579.233 184.321 579.172 183.685C579.979 185.032 580.311 186.665 580.406 188.377C580.448 189.237 580.393 190.14 580.311 191.043C580.226 191.951 580.096 192.863 579.908 193.794C579.73 194.715 579.528 195.637 579.329 196.539C579.111 197.452 578.884 198.354 578.691 199.229C578.594 199.664 578.506 200.094 578.425 200.52C578.333 200.95 578.252 201.371 578.186 201.788C578.05 202.616 577.985 203.406 577.985 204.173C577.827 203.196 577.743 202.199 577.739 201.175C577.727 200.155 577.737 199.131 577.816 198.092V198.092ZM565.035 184.27C564.323 183.942 563.545 183.685 562.769 183.451C561.227 182.965 559.539 182.684 557.988 182.361C556.379 182.09 554.903 181.776 553.537 181.402C552.86 181.21 552.245 180.967 551.662 180.696C551.076 180.425 550.548 180.102 550.084 179.709C550.572 179.831 551.476 179.896 552.685 179.999C553.277 180.064 553.943 180.144 554.671 180.242C555.401 180.336 556.193 180.457 557 180.635C560.271 181.295 564.197 182.689 567.027 185.397C566.415 184.967 565.743 184.597 565.035 184.27ZM564.858 176.463C564.632 175.513 564.41 174.591 564.217 173.689C564.028 172.781 563.828 171.935 563.643 171.139C563.458 170.335 563.285 169.591 563.13 168.917C562.786 167.598 562.49 166.574 562.235 166.017C564.499 168.122 565.507 171.509 566.07 174.98C566.609 178.502 566.7 182.099 567.623 184.962C567.173 184.087 566.824 183.152 566.482 182.216C566.137 181.281 565.856 180.312 565.593 179.344C565.315 178.39 565.074 177.422 564.858 176.463V176.463ZM560.325 176.977C559.872 176.547 559.168 175.981 558.35 175.265C557.542 174.54 556.52 173.768 555.461 172.879C554.357 172.042 553.204 171.097 551.965 170.218C547.124 166.536 541.456 163.332 540.133 161.789C542.152 161.943 548.092 165.119 552.783 169.17C553.985 170.138 555.073 171.2 556.098 172.15C557.077 173.155 558.004 174.049 558.717 174.886C559.441 175.709 560.054 176.369 560.438 176.87C560.831 177.356 561.053 177.637 561.053 177.637C561.053 177.637 560.79 177.398 560.325 176.977V176.977ZM601.218 247.106C600.513 246.989 598.871 247.391 596.734 248.35C595.66 248.822 594.482 249.44 593.195 250.184C591.889 250.918 590.503 251.788 589.095 252.784C588.404 253.29 587.653 253.809 586.914 254.365C586.173 254.927 585.433 255.516 584.7 256.138C583.979 256.77 583.182 257.406 582.443 258.094C582.068 258.44 581.696 258.791 581.329 259.151C581.148 259.333 580.965 259.516 580.781 259.703C580.592 259.885 580.401 260.072 580.209 260.255C579.45 261.008 578.711 261.794 578 262.636C577.791 262.869 577.583 263.113 577.375 263.351C579.04 259.371 580.394 255.292 581.372 251.171C581.556 250.389 581.728 249.608 581.888 248.827C582.357 248.397 582.842 248.06 583.35 247.789C584.546 247.134 585.894 246.881 587.418 246.642C588.942 246.404 590.645 246.184 592.534 245.52C594.407 244.851 596.403 243.724 598.529 241.567C601.984 237.933 602.519 232.277 601.869 227.843C601.53 225.616 601.035 223.67 600.538 222.3C600.064 220.924 599.7 220.115 599.7 220.115C599.064 220.19 597.755 220.985 596.161 222.445C594.582 223.899 592.642 226.009 590.693 228.661C589.685 229.99 588.736 231.449 587.711 233.04C587.212 233.84 586.728 234.668 586.264 235.533C585.782 236.394 585.277 237.287 584.823 238.218C584.17 239.523 583.545 240.894 582.948 242.339C583.322 239.294 583.522 236.263 583.553 233.288C583.591 231.155 583.531 229.054 583.393 226.987C584.415 225.022 585.875 224.157 587.709 223.249C588.959 222.622 590.369 221.972 591.824 220.854C592.535 220.293 593.252 219.615 593.953 218.759C594.647 217.898 595.357 216.855 595.943 215.573C596.439 214.497 596.784 213.342 596.932 212.158C597.072 210.98 597.082 209.763 596.962 208.556C596.818 207.359 596.574 206.166 596.26 205.02C595.914 203.883 595.507 202.793 595.079 201.778C594.165 199.767 593.184 198.06 592.369 196.895C591.971 196.31 591.637 195.847 591.402 195.534C591.169 195.216 591.028 195.052 591.028 195.052C590.51 195.267 589.614 196.32 588.663 198.069C587.726 199.809 586.67 202.26 585.737 205.254C584.79 208.252 583.915 211.798 583.31 215.835C583.076 217.397 582.877 219.03 582.726 220.742C582.52 219.339 582.282 217.954 582.013 216.597C581.254 212.692 580.195 209.024 578.986 205.628C579.274 203.36 580.297 202.157 581.656 200.819C582.545 199.931 583.582 198.976 584.49 197.587C584.938 196.895 585.359 196.09 585.713 195.122C585.89 194.636 586.05 194.112 586.189 193.536C586.318 192.966 586.416 192.353 586.489 191.684C586.746 189.434 586.221 187.114 585.294 184.948C584.365 182.782 583.015 180.789 581.648 179.129C580.952 178.306 580.267 177.557 579.625 176.902C578.963 176.261 578.353 175.705 577.835 175.251C577.318 174.797 576.892 174.447 576.581 174.217C576.273 173.993 576.103 173.862 576.103 173.862C575.707 174.18 575.295 175.288 574.991 177.103C574.842 178.002 574.731 179.068 574.682 180.275C574.619 181.486 574.591 182.857 574.657 184.34C574.729 187.343 575.082 190.833 575.742 194.799C576.025 196.483 576.372 198.251 576.789 200.104C575.289 196.703 573.667 193.663 572.057 191.01C571.012 189.294 569.981 187.741 568.992 186.337C568.459 184.022 568.972 182.661 569.772 181.084C570.28 180.074 570.867 178.993 571.22 177.538C571.398 176.809 571.517 175.981 571.53 175.022C571.542 174.063 571.414 172.996 571.136 171.747C570.91 170.695 570.478 169.694 569.943 168.716C569.672 168.23 569.384 167.743 569.053 167.285C568.721 166.826 568.366 166.377 567.994 165.938C567.621 165.503 567.238 165.072 566.832 164.67C566.42 164.272 565.998 163.884 565.572 163.515C565.145 163.145 564.718 162.785 564.284 162.443C563.843 162.116 563.404 161.803 562.971 161.508C561.261 160.292 559.573 159.454 558.386 158.846C557.162 158.28 556.398 157.986 556.398 157.986C555.88 158.687 556.367 162.196 558.457 167.477C558.994 168.777 559.571 170.255 560.306 171.776C560.999 173.338 561.827 174.966 562.735 176.729C563.571 178.338 564.504 180.027 565.539 181.8C565.09 181.253 564.665 180.738 564.272 180.28C563.581 179.503 562.993 178.839 562.517 178.301C562.186 177.955 561.91 177.669 561.685 177.431C559.283 174.432 558.17 172.056 556.621 169.469C555.804 168.089 554.823 166.705 553.428 165.194C552.709 164.469 551.905 163.688 550.935 162.907C549.952 162.149 548.854 161.316 547.527 160.54C543.277 157.967 538.756 157.055 535.493 156.844C534.669 156.797 533.928 156.769 533.265 156.788C532.6 156.816 532.024 156.863 531.55 156.924C530.601 157.045 530.054 157.218 529.998 157.377C529.942 157.537 530.259 158.037 530.88 158.748C531.19 159.108 531.575 159.515 532.028 159.964C532.477 160.418 532.982 160.942 533.55 161.47C534.131 162.004 534.75 162.57 535.401 163.164C536.065 163.758 536.787 164.347 537.532 164.979C538.285 165.601 539.092 166.2 539.923 166.831C540.342 167.14 540.775 167.439 541.223 167.725C541.662 168.029 542.111 168.333 542.579 168.618C544.765 169.947 546.561 170.962 548.213 171.733C549.844 172.529 551.335 173.081 552.753 173.647C555.367 174.671 557.891 175.621 560.625 178.062C560.869 178.324 561.199 178.68 561.619 179.134C562.082 179.672 562.652 180.336 563.322 181.117C563.597 181.449 563.889 181.809 564.191 182.188C563.653 181.711 563.116 181.262 562.56 180.86C561.728 180.242 560.929 179.667 560.101 179.194C558.487 178.207 556.89 177.506 555.428 176.958C553.924 176.458 552.574 176.088 551.295 175.911C550.663 175.817 550.066 175.752 549.504 175.709C548.942 175.667 548.397 175.677 547.899 175.686C546.895 175.723 546.048 175.817 545.326 175.981C543.881 176.308 543.02 176.781 542.775 177.122C542.775 177.122 543.132 177.641 543.757 178.413C544.35 179.232 545.233 180.27 546.226 181.416C546.479 181.697 546.744 181.978 547.021 182.258C547.29 182.544 547.565 182.834 547.855 183.114C548.144 183.395 548.446 183.671 548.76 183.933C549.069 184.2 549.376 184.471 549.705 184.719C550.031 184.971 550.371 185.205 550.725 185.42C551.076 185.64 551.422 185.855 551.794 186.043C552.53 186.421 553.339 186.697 554.168 186.894C555.168 187.123 556.103 187.221 556.934 187.268C557.764 187.32 558.524 187.287 559.225 187.203C560.632 187.034 561.79 186.674 562.846 186.417C564.438 186.029 565.871 185.809 567.719 186.941C568.718 188.405 569.762 190.033 570.815 191.838C572.244 194.294 573.676 197.082 575.001 200.169C574.061 198.855 573.057 197.699 572.04 196.703C569.3 194.018 566.422 192.442 563.949 191.516C562.679 191.076 561.526 190.781 560.471 190.613C559.403 190.458 558.459 190.412 557.654 190.435C556.052 190.482 554.938 190.842 554.561 191.141C554.561 191.141 554.609 191.286 554.697 191.548C554.788 191.81 554.919 192.184 555.082 192.648C555.248 193.111 555.457 193.649 555.711 194.233C555.946 194.827 556.218 195.473 556.545 196.128C557.174 197.452 557.957 198.846 558.968 200.085C559.979 201.325 561.248 202.405 562.903 203.116C563.401 203.327 563.892 203.504 564.362 203.659C564.822 203.818 565.272 203.954 565.711 204.061C566.587 204.281 567.417 204.407 568.2 204.477C569.759 204.622 571.103 204.538 572.343 204.515C574.14 204.487 575.701 204.599 577.233 206.016C578.394 209.459 579.389 213.183 580.067 217.14C580.177 217.781 580.286 218.431 580.397 219.081C580.458 219.549 580.519 220.022 580.581 220.489C580.028 219.123 579.382 217.87 578.679 216.752C576.604 213.463 574.095 211.223 571.729 209.763C569.34 208.304 567.122 207.593 565.352 207.307C563.597 207.013 562.332 207.116 561.802 207.336C561.802 207.336 561.799 207.485 561.794 207.761C561.79 208.033 561.792 208.425 561.813 208.903C561.877 209.848 561.923 211.157 562.174 212.542C562.653 215.344 563.574 218.487 566.7 220.63C567.664 221.266 568.543 221.794 569.43 222.22C570.311 222.65 571.17 222.983 571.996 223.249C573.617 223.787 575.119 224.049 576.462 224.353C578.353 224.783 579.955 225.284 581.152 226.926C581.252 229.068 581.302 231.253 581.183 233.461C581.089 236.113 580.85 238.803 580.472 241.502C580.262 240.183 579.948 238.938 579.561 237.788C579.237 236.857 578.902 235.982 578.498 235.159C578.077 234.335 577.633 233.568 577.172 232.857C576.279 231.431 575.192 230.219 574.157 229.204C572.018 227.174 569.844 225.925 568.014 225.2C566.201 224.475 564.791 224.255 564.154 224.33C564.154 224.33 563.929 224.896 563.682 225.799C563.46 226.697 563.106 227.936 562.966 229.297C562.865 229.98 562.812 230.696 562.84 231.426C562.839 232.156 562.893 232.904 563.075 233.652C563.16 234.027 563.292 234.401 563.423 234.775C563.55 235.149 563.709 235.524 563.906 235.893C564.293 236.637 564.857 237.376 565.552 238.101C567.173 239.822 568.907 241.095 570.515 242.068C572.111 243.041 573.653 243.728 575.013 244.407C576.375 245.089 577.557 245.763 578.453 246.792C578.768 247.166 579.04 247.587 579.267 248.074C579.062 248.967 578.848 249.861 578.611 250.75C577.608 254.44 576.31 258.089 574.748 261.635C574.759 261.513 574.771 261.396 574.779 261.279C574.818 260.208 574.796 259.174 574.721 258.187C574.698 257.939 574.677 257.696 574.655 257.453C574.616 257.209 574.577 256.966 574.539 256.723C574.455 256.246 574.361 255.778 574.255 255.32C574.034 254.408 573.815 253.551 573.482 252.719C573.161 251.891 572.808 251.114 572.432 250.385C572.056 249.655 571.668 248.977 571.214 248.331C570.331 247.045 569.397 245.955 568.472 245.033C567.528 244.107 566.561 243.349 565.69 242.746C563.937 241.544 562.476 240.94 561.77 240.823C561.77 240.823 561.373 241.286 560.865 242.049C560.603 242.428 560.349 242.886 560.041 243.391C559.732 243.897 559.43 244.453 559.173 245.057C558.082 247.48 557.515 250.441 559.725 254.024C560.066 254.562 560.421 255.081 560.778 255.572C561.119 256.059 561.47 256.527 561.827 256.966C562.54 257.85 563.277 258.65 564.012 259.38C565.487 260.839 566.951 262.009 568.2 263.094C569.457 264.189 570.525 265.222 571.193 266.499C571.404 266.906 571.575 267.346 571.699 267.819C571.4 268.375 571.075 268.918 570.755 269.46L569.596 271.411L568.346 273.306C567.931 273.937 567.521 274.573 567.063 275.172L565.727 276.996C565.296 277.614 564.793 278.175 564.33 278.764C564.144 278.994 563.962 279.223 563.779 279.452C564.104 278.414 564.338 277.384 564.491 276.383C564.753 274.349 564.79 272.449 564.515 270.62C564.392 269.718 564.223 268.848 564.016 268.024C563.786 267.182 563.513 266.378 563.218 265.62C562.626 264.104 561.935 262.757 561.14 261.55C560.364 260.353 559.557 259.328 558.786 258.472C558.022 257.621 557.271 256.924 556.626 256.405C555.983 255.881 555.451 255.53 555.093 255.362C555.093 255.362 554.967 255.441 554.756 255.591C554.548 255.741 554.247 255.96 553.875 256.227C553.135 256.76 552.281 257.57 551.407 258.505C551.197 258.744 550.996 258.996 550.81 259.263C550.627 259.534 550.453 259.815 550.273 260.1C549.926 260.676 549.657 261.312 549.503 262.032C549.326 262.739 549.235 263.506 549.312 264.38C549.398 265.26 549.584 266.205 549.958 267.267C550.406 268.539 550.929 269.741 551.468 270.854C551.995 271.954 552.564 272.983 553.148 273.942C554.314 275.864 555.544 277.506 556.592 279.022C557.643 280.542 558.479 281.903 558.858 283.395C558.961 283.807 559.025 284.237 559.05 284.677C555.753 288.008 552.184 290.969 548.489 293.546C548.973 292.709 549.389 291.862 549.73 291.011C550.109 290.042 550.415 289.083 550.651 288.134C550.863 287.156 551.01 286.193 551.098 285.252C551.293 283.391 551.166 281.524 550.924 279.831C550.69 278.147 550.229 276.528 549.719 275.092C549.201 273.656 548.624 272.389 548.013 271.28C546.787 269.053 545.573 267.552 544.916 266.977C544.916 266.977 544.327 267.103 543.508 267.407C543.08 267.543 542.588 267.716 542.083 267.945C541.569 268.165 541.075 268.469 540.537 268.773C538.476 270.12 536.691 272.211 537.314 277.01C537.653 279.85 538.302 282.502 539.006 284.799C539.721 287.119 540.556 289.182 541.24 291.053C541.917 292.924 542.46 294.641 542.467 296.25C542.47 296.629 542.442 297.008 542.384 297.386C539.562 298.986 536.705 300.376 533.861 301.545C532.582 302.069 531.307 302.551 530.039 302.995C530.628 302.373 531.166 301.723 531.644 301.035C532.888 299.36 533.756 297.452 534.394 295.628C535.014 293.761 535.346 291.853 535.504 290.061C535.642 288.232 535.573 286.464 535.397 284.845C535.225 283.236 534.911 281.725 534.554 280.397C533.839 277.745 532.974 275.831 532.455 275.032C532.455 275.032 531.854 274.957 531.003 274.994C530.79 274.999 530.563 275.022 530.32 275.041C530.072 275.05 529.813 275.069 529.548 275.102C529.017 275.167 528.462 275.28 527.917 275.471C526.785 275.771 525.728 276.435 524.846 277.52C523.991 278.671 523.333 280.303 523.085 282.904C522.76 285.94 522.716 288.784 522.845 291.404C522.96 294 523.237 296.339 523.419 298.448C523.597 300.558 523.671 302.434 523.273 304.113C523.195 304.445 523.09 304.763 522.97 305.072C521.866 305.339 520.774 305.572 519.698 305.778C510.485 307.57 499.429 307.71 489.491 305.778C488.415 305.572 487.322 305.339 486.218 305.072C486.098 304.763 485.993 304.445 485.915 304.113C485.517 302.434 485.591 300.558 485.769 298.448C485.951 296.339 486.228 294 486.343 291.404C486.472 288.784 486.428 285.94 486.104 282.904C485.855 280.303 485.197 278.671 484.342 277.52C483.46 276.435 482.403 275.771 481.271 275.471C480.726 275.28 480.171 275.167 479.64 275.102C479.375 275.069 479.116 275.05 478.868 275.041C478.625 275.022 478.398 274.999 478.185 274.994C477.335 274.957 476.733 275.032 476.733 275.032C476.214 275.831 475.349 277.745 474.634 280.397C474.277 281.725 473.963 283.236 473.791 284.845C473.615 286.464 473.546 288.232 473.684 290.061C473.842 291.853 474.174 293.761 474.794 295.628C475.432 297.452 476.3 299.36 477.544 301.035C478.023 301.723 478.56 302.373 479.149 302.995C477.881 302.551 476.606 302.069 475.327 301.545C472.483 300.376 469.626 298.986 466.804 297.386C466.747 297.008 466.719 296.629 466.721 296.25C466.728 294.641 467.271 292.924 467.948 291.053C468.632 289.182 469.467 287.119 470.182 284.799C470.886 282.502 471.535 279.85 471.874 277.01C472.498 272.211 470.712 270.12 468.652 268.773C468.113 268.469 467.619 268.165 467.105 267.945C466.6 267.716 466.108 267.543 465.68 267.407C464.861 267.103 464.272 266.977 464.272 266.977C463.616 267.552 462.401 269.053 461.175 271.28C460.564 272.389 459.987 273.656 459.469 275.092C458.96 276.528 458.498 278.147 458.264 279.831C458.022 281.524 457.895 283.391 458.091 285.252C458.179 286.193 458.325 287.156 458.537 288.134C458.773 289.083 459.079 290.042 459.458 291.011C459.799 291.862 460.215 292.709 460.699 293.546C457.004 290.969 453.435 288.008 450.138 284.677C450.163 284.237 450.227 283.807 450.33 283.395C450.71 281.903 451.546 280.542 452.596 279.022C453.644 277.506 454.874 275.864 456.041 273.942C456.624 272.983 457.193 271.954 457.72 270.854C458.259 269.741 458.782 268.539 459.23 267.267C459.604 266.205 459.79 265.26 459.876 264.38C459.953 263.506 459.862 262.739 459.685 262.032C459.531 261.312 459.262 260.676 458.915 260.1C458.735 259.815 458.561 259.534 458.378 259.263C458.192 258.996 457.991 258.744 457.781 258.505C456.907 257.57 456.053 256.76 455.313 256.227C454.941 255.96 454.64 255.741 454.432 255.591C454.221 255.441 454.096 255.362 454.096 255.362C453.738 255.53 453.205 255.881 452.562 256.405C451.917 256.924 451.166 257.621 450.403 258.472C449.632 259.328 448.824 260.353 448.048 261.55C447.253 262.757 446.562 264.104 445.97 265.62C445.675 266.378 445.402 267.182 445.172 268.024C444.965 268.848 444.796 269.718 444.673 270.62C444.398 272.449 444.435 274.349 444.697 276.383C444.85 277.384 445.084 278.414 445.409 279.452C445.227 279.223 445.044 278.994 444.858 278.764C444.395 278.175 443.892 277.614 443.461 276.996L442.126 275.172C441.667 274.573 441.257 273.937 440.843 273.306L439.592 271.411L438.433 269.46C438.113 268.918 437.788 268.375 437.489 267.819C437.613 267.346 437.784 266.906 437.995 266.499C438.663 265.222 439.731 264.189 440.988 263.094C442.238 262.009 443.701 260.839 445.176 259.38C445.911 258.65 446.648 257.85 447.361 256.966C447.718 256.527 448.069 256.059 448.41 255.572C448.767 255.081 449.122 254.562 449.463 254.024C451.673 250.441 451.106 247.48 450.015 245.057C449.758 244.453 449.456 243.897 449.147 243.391C448.839 242.886 448.585 242.428 448.323 242.049C447.815 241.286 447.418 240.823 447.418 240.823C446.713 240.94 445.251 241.544 443.498 242.746C442.627 243.349 441.661 244.107 440.716 245.033C439.791 245.955 438.857 247.045 437.974 248.331C437.52 248.977 437.133 249.655 436.756 250.385C436.38 251.114 436.027 251.891 435.706 252.719C435.373 253.551 435.154 254.408 434.933 255.32C434.827 255.778 434.733 256.246 434.649 256.723C434.611 256.966 434.572 257.209 434.533 257.453C434.511 257.696 434.49 257.939 434.467 258.187C434.392 259.174 434.37 260.208 434.409 261.279C434.417 261.396 434.43 261.513 434.44 261.635C432.878 258.089 431.58 254.44 430.577 250.75C430.34 249.861 430.126 248.967 429.922 248.074C430.148 247.587 430.42 247.166 430.735 246.792C431.632 245.763 432.814 245.089 434.175 244.407C435.535 243.728 437.077 243.041 438.673 242.068C440.281 241.095 442.015 239.822 443.636 238.101C444.331 237.376 444.895 236.637 445.283 235.893C445.479 235.524 445.639 235.149 445.765 234.775C445.896 234.401 446.028 234.027 446.113 233.652C446.295 232.904 446.349 232.156 446.348 231.426C446.376 230.696 446.323 229.98 446.222 229.297C446.082 227.936 445.728 226.697 445.506 225.799C445.259 224.896 445.034 224.33 445.034 224.33C444.397 224.255 442.987 224.475 441.174 225.2C439.345 225.925 437.17 227.174 435.031 229.204C433.997 230.219 432.909 231.431 432.016 232.857C431.555 233.568 431.111 234.335 430.69 235.159C430.286 235.982 429.951 236.857 429.627 237.788C429.24 238.938 428.926 240.183 428.716 241.502C428.338 238.803 428.099 236.113 428.006 233.461C427.886 231.253 427.936 229.068 428.036 226.926C429.233 225.284 430.835 224.783 432.726 224.353C434.069 224.049 435.571 223.787 437.192 223.249C438.018 222.983 438.877 222.65 439.758 222.22C440.645 221.794 441.524 221.266 442.488 220.63C445.614 218.487 446.536 215.344 447.014 212.542C447.265 211.157 447.311 209.848 447.375 208.903C447.396 208.425 447.398 208.033 447.394 207.761C447.389 207.485 447.387 207.336 447.387 207.336C446.856 207.116 445.591 207.013 443.836 207.307C442.066 207.593 439.848 208.304 437.459 209.763C435.093 211.223 432.584 213.463 430.509 216.752C429.806 217.87 429.161 219.119 428.607 220.489C428.669 220.022 428.73 219.549 428.791 219.081C428.902 218.431 429.011 217.781 429.121 217.14C429.799 213.183 430.794 209.459 431.956 206.016C433.487 204.599 435.048 204.487 436.845 204.515C438.085 204.538 439.429 204.622 440.988 204.477C441.772 204.407 442.601 204.281 443.477 204.061C443.916 203.954 444.366 203.818 444.826 203.659C445.297 203.504 445.787 203.327 446.285 203.116C447.94 202.405 449.209 201.325 450.22 200.085C451.231 198.846 452.014 197.452 452.644 196.128C452.97 195.473 453.242 194.827 453.477 194.233C453.732 193.649 453.94 193.111 454.106 192.648C454.269 192.184 454.4 191.81 454.491 191.548C454.579 191.286 454.627 191.141 454.627 191.141C454.25 190.842 453.136 190.482 451.535 190.435C450.729 190.412 449.785 190.458 448.717 190.613C447.663 190.781 446.509 191.076 445.239 191.516C442.767 192.442 439.888 194.018 437.148 196.703C436.131 197.699 435.127 198.855 434.187 200.169C435.513 197.082 436.944 194.294 438.373 191.838C439.427 190.033 440.47 188.405 441.469 186.941C443.317 185.809 444.75 186.029 446.342 186.417C447.398 186.674 448.556 187.034 449.963 187.203C450.664 187.287 451.424 187.32 452.254 187.268C453.085 187.221 454.02 187.123 455.02 186.894C455.849 186.697 456.658 186.421 457.394 186.043C457.766 185.855 458.112 185.64 458.463 185.42C458.817 185.205 459.157 184.971 459.483 184.719C459.812 184.471 460.119 184.2 460.429 183.933C460.742 183.671 461.044 183.395 461.333 183.114C461.623 182.834 461.898 182.544 462.167 182.258C462.444 181.978 462.709 181.697 462.962 181.416C463.956 180.27 464.838 179.232 465.431 178.413C466.056 177.641 466.413 177.122 466.413 177.122C466.169 176.781 465.307 176.308 463.862 175.981C463.14 175.817 462.293 175.723 461.289 175.686C460.791 175.677 460.246 175.667 459.684 175.709C459.122 175.752 458.525 175.817 457.893 175.911C456.614 176.088 455.264 176.458 453.76 176.958C452.298 177.506 450.701 178.207 449.087 179.194C448.259 179.667 447.461 180.242 446.628 180.86C446.072 181.262 445.535 181.711 444.997 182.188C445.299 181.809 445.591 181.449 445.866 181.117C446.536 180.336 447.106 179.672 447.569 179.134C447.99 178.68 448.319 178.324 448.563 178.062C451.298 175.621 453.821 174.671 456.435 173.647C457.853 173.081 459.344 172.529 460.975 171.733C462.627 170.962 464.423 169.947 466.609 168.618C467.077 168.333 467.526 168.029 467.965 167.725C468.413 167.439 468.846 167.14 469.265 166.831C470.096 166.2 470.903 165.601 471.656 164.979C472.401 164.347 473.123 163.758 473.787 163.164C474.438 162.57 475.057 162.004 475.638 161.47C476.206 160.942 476.711 160.418 477.16 159.964C477.613 159.515 477.999 159.108 478.309 158.748C478.929 158.037 479.246 157.537 479.19 157.377C479.135 157.218 478.588 157.045 477.638 156.924C477.164 156.863 476.588 156.816 475.923 156.788C475.26 156.769 474.519 156.797 473.695 156.844C470.432 157.055 465.911 157.967 461.661 160.54C460.334 161.316 459.236 162.149 458.253 162.907C457.283 163.688 456.479 164.469 455.761 165.194C454.365 166.705 453.384 168.089 452.567 169.469C451.018 172.056 449.906 174.432 447.503 177.431C447.278 177.669 447.003 177.955 446.671 178.301C446.195 178.839 445.607 179.503 444.916 180.28C444.523 180.738 444.098 181.253 443.649 181.8C444.684 180.027 445.617 178.338 446.453 176.729C447.361 174.966 448.19 173.338 448.882 171.776C449.617 170.255 450.194 168.777 450.731 167.477C452.821 162.196 453.308 158.687 452.79 157.986C452.79 157.986 452.026 158.28 450.803 158.846C449.615 159.454 447.927 160.292 446.217 161.508C445.785 161.803 445.345 162.116 444.904 162.443C444.47 162.785 444.043 163.145 443.616 163.515C443.19 163.884 442.768 164.272 442.356 164.67C441.95 165.072 441.567 165.503 441.194 165.938C440.822 166.377 440.467 166.826 440.135 167.285C439.804 167.743 439.516 168.23 439.245 168.716C438.71 169.694 438.278 170.695 438.053 171.747C437.775 172.996 437.646 174.063 437.658 175.022C437.671 175.981 437.79 176.809 437.968 177.538C438.321 178.993 438.909 180.074 439.416 181.084C440.216 182.661 440.729 184.022 440.196 186.337C439.207 187.741 438.176 189.294 437.132 191.01C435.522 193.663 433.899 196.703 432.399 200.104C432.816 198.251 433.163 196.483 433.446 194.799C434.106 190.833 434.459 187.343 434.531 184.34C434.597 182.857 434.569 181.486 434.506 180.275C434.457 179.068 434.346 178.002 434.197 177.103C433.893 175.288 433.482 174.18 433.086 173.862C433.086 173.862 432.915 173.993 432.607 174.217C432.296 174.447 431.87 174.797 431.353 175.251C430.835 175.705 430.225 176.261 429.563 176.902C428.921 177.557 428.236 178.306 427.54 179.129C426.173 180.789 424.823 182.782 423.894 184.948C422.967 187.114 422.442 189.434 422.699 191.684C422.772 192.353 422.87 192.966 423 193.536C423.138 194.112 423.298 194.636 423.475 195.122C423.83 196.09 424.25 196.895 424.698 197.587C425.606 198.976 426.643 199.931 427.532 200.819C428.891 202.157 429.914 203.36 430.202 205.628C428.993 209.024 427.934 212.692 427.175 216.597C426.906 217.954 426.668 219.339 426.462 220.742C426.311 219.03 426.112 217.397 425.878 215.835C425.273 211.798 424.398 208.252 423.451 205.254C422.518 202.26 421.462 199.809 420.525 198.069C419.574 196.32 418.678 195.267 418.161 195.052C418.161 195.052 418.019 195.216 417.786 195.534C417.551 195.847 417.217 196.31 416.819 196.895C416.005 198.06 415.023 199.767 414.11 201.778C413.682 202.793 413.274 203.883 412.928 205.02C412.614 206.166 412.37 207.359 412.226 208.556C412.107 209.763 412.116 210.98 412.256 212.158C412.404 213.342 412.749 214.497 413.245 215.573C413.831 216.855 414.541 217.898 415.235 218.759C415.936 219.615 416.653 220.293 417.364 220.854C418.819 221.972 420.229 222.622 421.479 223.249C423.313 224.157 424.774 225.022 425.795 226.987C425.657 229.054 425.598 231.155 425.635 233.288C425.666 236.263 425.866 239.294 426.24 242.339C425.644 240.894 425.018 239.523 424.365 238.218C423.911 237.287 423.406 236.394 422.925 235.533C422.461 234.668 421.976 233.84 421.477 233.04C420.452 231.449 419.504 229.99 418.495 228.661C416.546 226.009 414.606 223.899 413.027 222.445C411.433 220.985 410.124 220.19 409.488 220.115C409.488 220.115 409.124 220.924 408.65 222.3C408.153 223.67 407.658 225.616 407.32 227.843C406.669 232.277 407.204 237.933 410.659 241.567C412.785 243.724 414.781 244.851 416.654 245.52C418.543 246.184 420.246 246.404 421.77 246.642C423.294 246.881 424.642 247.134 425.838 247.789C426.346 248.06 426.831 248.397 427.3 248.827C427.46 249.608 427.632 250.389 427.816 251.171C428.794 255.292 430.148 259.371 431.813 263.351C431.605 263.113 431.397 262.869 431.188 262.636C430.477 261.794 429.738 261.008 428.98 260.255C428.787 260.072 428.596 259.885 428.407 259.703C428.223 259.516 428.04 259.333 427.859 259.151C427.492 258.791 427.12 258.44 426.745 258.094C426.006 257.406 425.209 256.77 424.488 256.138C423.755 255.516 423.015 254.927 422.274 254.365C421.535 253.809 420.784 253.29 420.093 252.784C418.685 251.788 417.3 250.918 415.993 250.184C414.706 249.44 413.528 248.822 412.454 248.35C410.317 247.391 408.676 246.989 407.971 247.106C407.971 247.106 407.816 248.008 407.709 249.496C407.664 250.24 407.596 251.133 407.631 252.125C407.666 253.112 407.743 254.202 407.889 255.348C408.515 259.899 410.543 265.391 415.328 267.837C416.027 268.202 416.701 268.511 417.357 268.763C418.029 269.007 418.675 269.198 419.299 269.348C420.546 269.648 421.701 269.779 422.778 269.807C424.929 269.867 426.779 269.535 428.468 269.273C430.149 269.007 431.646 268.815 433.092 269.058C433.636 269.147 434.162 269.306 434.7 269.531C436.993 273.979 439.747 278.194 442.824 282.104C441.721 281.431 440.614 280.813 439.503 280.243C437.618 279.228 435.646 278.423 433.803 277.67C432.867 277.3 431.931 276.973 431.005 276.669C430.101 276.355 429.211 276.07 428.331 275.813C426.571 275.303 424.866 274.91 423.333 274.587C421.783 274.269 420.344 274.059 419.074 273.937C417.798 273.815 416.714 273.778 415.858 273.815C414.997 273.853 414.359 273.97 414.002 274.138C414.002 274.138 414.018 274.377 414.067 274.802C414.109 275.233 414.21 275.841 414.37 276.585C414.696 278.072 415.184 280.154 416.159 282.301C416.395 282.839 416.654 283.386 416.936 283.938C417.214 284.485 417.521 285.033 417.877 285.556C418.576 286.618 419.372 287.643 420.274 288.578C421.197 289.495 422.252 290.295 423.397 290.941C424.531 291.595 425.82 292.044 427.209 292.264C428.868 292.526 430.347 292.578 431.711 292.47C433.087 292.353 434.321 292.096 435.449 291.764C437.703 291.1 439.534 290.155 441.191 289.345C442.845 288.536 444.358 287.83 445.907 287.587C446.414 287.502 446.924 287.474 447.447 287.498C447.569 287.629 447.691 287.764 447.812 287.895C448.328 288.475 448.894 289.004 449.442 289.551C449.993 290.089 450.543 290.632 451.091 291.17C451.665 291.684 452.237 292.194 452.807 292.704C453.38 293.209 453.936 293.738 454.537 294.201C455.725 295.151 456.871 296.142 458.1 297.008C458.234 297.106 458.371 297.204 458.505 297.302C457.379 297.031 456.259 296.811 455.142 296.629C454.057 296.442 452.969 296.306 451.885 296.212C450.826 296.086 449.768 296.002 448.718 295.955C446.597 295.88 444.609 295.833 442.659 295.922C440.703 296.025 438.902 296.142 437.213 296.353C435.532 296.554 433.972 296.834 432.641 297.12C429.983 297.686 428.1 298.416 427.444 298.991C427.444 298.991 427.76 299.917 428.433 301.339C428.789 302.031 429.24 302.845 429.788 303.725C430.343 304.599 430.961 305.572 431.747 306.48C434.734 310.246 439.778 313.749 445.646 312.842C449.17 312.262 451.748 311.05 453.878 309.614C455.992 308.192 457.6 306.625 459.067 305.254C460.535 303.874 461.839 302.724 463.339 301.943C463.763 301.723 464.201 301.545 464.657 301.4C467.435 303.075 470.256 304.557 473.078 305.83C474.654 306.541 476.228 307.182 477.795 307.771C476.761 307.86 475.739 307.981 474.736 308.117C472.484 308.491 470.341 308.898 468.222 309.506C466.123 310.077 464.111 310.709 462.182 311.448C454.541 314.24 448.646 317.936 447.619 319.564C447.619 319.564 448.181 320.392 449.25 321.589C449.518 321.884 449.813 322.211 450.145 322.548C450.481 322.871 450.848 323.212 451.244 323.563C452.037 324.265 452.946 324.994 453.955 325.701C456.015 327.029 458.46 328.297 461.178 328.751C463.856 329.289 466.8 328.98 469.584 327.595C472.932 325.874 475.181 323.759 476.878 321.683C478.581 319.578 479.749 317.468 480.823 315.62C481.896 313.763 482.876 312.149 484.119 310.933C484.419 310.643 484.738 310.367 485.076 310.115C486.076 310.381 487.069 310.634 488.049 310.858C499.934 313.557 510.113 313.361 521.139 310.858C522.119 310.634 523.112 310.381 524.112 310.115C524.45 310.367 524.769 310.643 525.069 310.933C526.313 312.149 527.292 313.763 528.365 315.62C529.439 317.468 530.607 319.578 532.31 321.683C534.008 323.759 536.256 325.874 539.605 327.595C542.388 328.98 545.332 329.289 548.01 328.751C550.729 328.297 553.173 327.029 555.233 325.701C556.242 324.994 557.151 324.265 557.944 323.563C558.34 323.212 558.707 322.871 559.043 322.548C559.375 322.211 559.67 321.884 559.938 321.589C561.007 320.392 561.569 319.564 561.569 319.564C560.543 317.936 554.648 314.24 547.006 311.448C545.077 310.709 543.065 310.077 540.966 309.506C538.847 308.898 536.704 308.491 534.452 308.117C533.449 307.981 532.427 307.86 531.393 307.771C532.96 307.182 534.535 306.541 536.11 305.83C538.932 304.557 541.753 303.075 544.532 301.4C544.987 301.545 545.426 301.723 545.849 301.943C547.349 302.724 548.653 303.874 550.121 305.254C551.588 306.625 553.197 308.192 555.31 309.614C557.44 311.05 560.018 312.262 563.543 312.842C569.41 313.749 574.454 310.246 577.441 306.48C578.228 305.572 578.845 304.599 579.4 303.725C579.948 302.845 580.399 302.031 580.755 301.339C581.428 299.917 581.744 298.991 581.744 298.991C581.088 298.416 579.205 297.686 576.547 297.12C575.216 296.834 573.657 296.554 571.976 296.353C570.286 296.142 568.485 296.025 566.529 295.922C564.579 295.833 562.591 295.88 560.47 295.955C559.42 296.002 558.362 296.086 557.303 296.212C556.219 296.306 555.131 296.442 554.046 296.629C552.93 296.811 551.81 297.031 550.683 297.302C550.817 297.204 550.954 297.106 551.088 297.008C552.317 296.142 553.464 295.151 554.651 294.201C555.252 293.738 555.808 293.209 556.381 292.704C556.951 292.194 557.523 291.684 558.097 291.17C558.645 290.632 559.195 290.089 559.746 289.551C560.294 289.004 560.86 288.475 561.376 287.895C561.497 287.764 561.619 287.629 561.741 287.498C562.264 287.474 562.774 287.502 563.281 287.587C564.83 287.83 566.343 288.536 567.997 289.345C569.655 290.155 571.485 291.1 573.739 291.764C574.867 292.096 576.101 292.353 577.477 292.47C578.841 292.578 580.32 292.526 581.979 292.264C583.368 292.044 584.657 291.595 585.791 290.941C586.936 290.295 587.992 289.495 588.914 288.578C589.816 287.643 590.612 286.618 591.311 285.556C591.667 285.033 591.974 284.485 592.252 283.938C592.534 283.386 592.793 282.839 593.03 282.301C594.005 280.154 594.492 278.072 594.818 276.585C594.978 275.841 595.079 275.233 595.121 274.802C595.17 274.377 595.187 274.138 595.187 274.138C594.829 273.97 594.191 273.853 593.33 273.815C592.474 273.778 591.39 273.815 590.114 273.937C588.844 274.059 587.405 274.269 585.855 274.587C584.322 274.91 582.617 275.303 580.857 275.813C579.977 276.07 579.087 276.355 578.183 276.669C577.257 276.973 576.321 277.3 575.385 277.67C573.542 278.423 571.57 279.228 569.685 280.243C568.574 280.813 567.468 281.431 566.364 282.104C569.441 278.194 572.195 273.979 574.488 269.531C575.026 269.306 575.552 269.147 576.096 269.058C577.542 268.815 579.039 269.007 580.72 269.273C582.409 269.535 584.259 269.867 586.41 269.807C587.487 269.779 588.642 269.648 589.889 269.348C590.513 269.198 591.16 269.007 591.831 268.763C592.487 268.511 593.161 268.202 593.861 267.837C598.645 265.391 600.673 259.899 601.299 255.348C601.445 254.202 601.523 253.112 601.558 252.125C601.592 251.133 601.524 250.24 601.479 249.496C601.372 248.008 601.218 247.106 601.218 247.106" fill="#EF293D"/>
</g>
</svg>
