<svg width="298" height="241" viewBox="0 0 298 241" fill="none" xmlns="http://www.w3.org/2000/svg">
<path opacity="0.1" d="M238.061 219.498C260.56 219.498 278.799 217.726 278.799 215.54C278.799 213.354 260.56 211.582 238.061 211.582C215.561 211.582 197.322 213.354 197.322 215.54C197.322 217.726 215.561 219.498 238.061 219.498Z" fill="#EF293D"/>
<path d="M274.944 34.0571H34.1139C32.3186 34.0571 30.8633 35.5132 30.8633 37.3094V170.982C30.8633 172.778 32.3186 174.234 34.1139 174.234H274.944C276.74 174.234 278.195 172.778 278.195 170.982V37.3094C278.195 35.5132 276.74 34.0571 274.944 34.0571Z" fill="url(#paint0_linear_2194_42111)"/>
<path d="M274.583 36.0283H34.5104C32.7151 36.0283 31.2598 37.4844 31.2598 39.2806V170.515C31.2598 172.312 32.7151 173.768 34.5104 173.768H274.583C276.379 173.768 277.834 172.312 277.834 170.515V39.2806C277.834 37.4844 276.379 36.0283 274.583 36.0283Z" fill="white"/>
<path d="M274.583 36.0283H34.5104C32.7151 36.0283 31.2598 37.4844 31.2598 39.2806V170.515C31.2598 172.312 32.7151 173.768 34.5104 173.768H274.583C276.379 173.768 277.834 172.312 277.834 170.515V39.2806C277.834 37.4844 276.379 36.0283 274.583 36.0283Z" fill="white"/>
<path opacity="0.3" d="M34.5104 36.4986H274.583C276.119 36.4986 277.364 37.7439 277.364 39.2806V170.515C277.364 172.052 276.119 173.298 274.583 173.298H34.5104C32.9751 173.298 31.73 172.052 31.73 170.515V39.2806C31.73 37.7439 32.9751 36.4986 34.5104 36.4986Z" stroke="#B2B1B1" stroke-width="0.940519"/>
<path d="M276.582 34.4478H32.5116C32.1796 34.4478 31.8612 34.5797 31.6264 34.8146C31.3917 35.0495 31.2598 35.3681 31.2598 35.7002V40.994H277.824V35.7002C277.824 35.3699 277.693 35.0529 277.461 34.8183C277.228 34.5837 276.912 34.4505 276.582 34.4478Z" fill="#5A5773"/>
<path d="M36.1819 39.4136C37.1162 39.4136 37.8736 38.6558 37.8736 37.7211C37.8736 36.7863 37.1162 36.0285 36.1819 36.0285C35.2476 36.0285 34.4902 36.7863 34.4902 37.7211C34.4902 38.6558 35.2476 39.4136 36.1819 39.4136Z" fill="white"/>
<path d="M40.7373 39.4129C41.6716 39.4129 42.429 38.6551 42.429 37.7204C42.429 36.7856 41.6716 36.0278 40.7373 36.0278C39.803 36.0278 39.0457 36.7856 39.0457 37.7204C39.0457 38.6551 39.803 39.4129 40.7373 39.4129Z" fill="white"/>
<path d="M45.291 39.4129C46.2253 39.4129 46.9827 38.6551 46.9827 37.7204C46.9827 36.7856 46.2253 36.0278 45.291 36.0278C44.3568 36.0278 43.5994 36.7856 43.5994 37.7204C43.5994 38.6551 44.3568 39.4129 45.291 39.4129Z" fill="white"/>
<path opacity="0.2" d="M117.737 53.3057H51.5664V58.9249H117.737V53.3057Z" fill="#EF293D"/>
<path opacity="0.1" d="M257.525 75.8374H51.5664V162.277H257.525V75.8374Z" fill="#5A5773"/>
<path opacity="0.1" d="M172.156 81.4745H168.63V74.621C168.63 66.8874 162.467 60.4583 154.737 60.3411C152.873 60.3215 151.024 60.6712 149.295 61.3699C147.567 62.0687 145.994 63.1027 144.667 64.4125C143.34 65.7222 142.286 67.2817 141.564 69.0012C140.842 70.7206 140.467 72.566 140.462 74.4309V81.4745H136.943C135.388 81.4793 133.898 82.0995 132.798 83.1996C131.699 84.2998 131.079 85.7905 131.074 87.3464V115.526C131.079 117.082 131.699 118.573 132.798 119.673C133.898 120.773 135.388 121.393 136.943 121.398H172.156C173.711 121.393 175.201 120.773 176.3 119.673C177.399 118.572 178.018 117.082 178.022 115.526V87.3464C178.018 85.7908 177.399 84.3 176.3 83.1998C175.201 82.0996 173.711 81.4793 172.156 81.4745ZM156.606 99.7931V109.886C156.609 110.42 156.409 110.936 156.047 111.329C155.684 111.721 155.186 111.961 154.654 112C154.376 112.013 154.098 111.97 153.837 111.872C153.576 111.775 153.338 111.625 153.136 111.433C152.935 111.241 152.774 111.01 152.665 110.753C152.555 110.497 152.499 110.222 152.499 109.943V99.7879C151.547 99.3233 150.78 98.5496 150.324 97.5931C149.868 96.6365 149.749 95.5535 149.988 94.5208C150.226 93.4882 150.807 92.5668 151.636 91.907C152.465 91.2472 153.493 90.888 154.552 90.888C155.611 90.888 156.639 91.2472 157.468 91.907C158.297 92.5668 158.879 93.4882 159.117 94.5208C159.355 95.5535 159.236 96.6365 158.78 97.5931C158.324 98.5496 157.558 99.3233 156.606 99.7879V99.7931ZM164.528 81.4745H144.569V74.4309C144.569 71.7838 145.62 69.2452 147.49 67.3734C149.361 65.5016 151.899 64.4501 154.544 64.4501C157.19 64.4501 159.727 65.5016 161.598 67.3734C163.469 69.2452 164.52 71.7838 164.52 74.4309L164.528 81.4745Z" fill="black"/>
<path d="M172.156 80.9535H168.63V74.1C168.63 66.3664 162.467 59.9373 154.737 59.8201C152.873 59.8005 151.024 60.1502 149.295 60.8489C147.567 61.5477 145.994 62.5817 144.667 63.8915C143.34 65.2012 142.286 66.7607 141.564 68.4802C140.842 70.1996 140.467 72.045 140.462 73.9099V80.9535H136.943C135.388 80.9583 133.898 81.5785 132.798 82.6787C131.699 83.7788 131.079 85.2695 131.074 86.8254V115.005C131.079 116.561 131.699 118.052 132.798 119.152C133.898 120.252 135.388 120.872 136.943 120.877H172.156C173.711 120.872 175.201 120.252 176.3 119.152C177.399 118.051 178.018 116.561 178.022 115.005V86.8254C178.018 85.2698 177.399 83.779 176.3 82.6788C175.201 81.5786 173.711 80.9583 172.156 80.9535ZM156.606 99.2721V109.365C156.609 109.899 156.409 110.415 156.047 110.808C155.684 111.2 155.186 111.44 154.654 111.479C154.376 111.492 154.098 111.449 153.837 111.351C153.576 111.254 153.338 111.104 153.136 110.912C152.935 110.72 152.774 110.489 152.665 110.232C152.555 109.976 152.499 109.701 152.499 109.422V99.2669C151.547 98.8023 150.78 98.0286 150.324 97.0721C149.868 96.1155 149.749 95.0325 149.988 93.9998C150.226 92.9672 150.807 92.0458 151.636 91.386C152.465 90.7262 153.493 90.367 154.552 90.367C155.611 90.367 156.639 90.7262 157.468 91.386C158.297 92.0458 158.879 92.9672 159.117 93.9998C159.355 95.0325 159.236 96.1155 158.78 97.0721C158.324 98.0286 157.558 98.8023 156.606 99.2669V99.2721ZM164.528 80.9535H144.569V73.9099C144.569 71.2628 145.62 68.7242 147.49 66.8524C149.361 64.9806 151.899 63.9291 154.544 63.9291C157.19 63.9291 159.727 64.9806 161.598 66.8524C163.469 68.7242 164.52 71.2628 164.52 73.9099L164.528 80.9535Z" fill="#EF293D"/>
<path opacity="0.1" d="M257.524 67.5176H236.678V72.4416H257.524V67.5176Z" fill="#5A5773"/>
<path d="M264.62 216.732C264.482 216.042 264.248 215.375 263.922 214.751L260.799 210.085H260.817C260.817 210.085 260.326 207.741 260.817 206.59C261.309 205.439 259.063 202.609 259.063 202.609C259.063 202.609 258.79 201.898 259.503 201.023C260.216 200.148 259.063 197.586 259.063 197.586C259.063 197.586 258.517 192.235 258.462 191.417C258.407 190.599 257.968 186.069 257.968 186.069L256.927 176.463L255.073 151.004L255.04 150.528C255.269 150.416 255.391 150.345 255.391 150.345L255.021 136.269L255.342 135.98C258.137 133.449 264.583 127.59 264.518 127.462C264.453 127.335 263.738 117.679 263.654 115.263C263.583 113.546 263.207 111.855 262.546 110.269C262.384 109.948 261.918 107.836 261.726 106.943C261.674 106.699 261.64 106.545 261.64 106.545C261.64 106.545 259.75 102.941 259.914 101.303C260.078 99.6654 260.406 98.4389 256.377 97.8661C256.377 97.8661 252.994 97.3609 250.98 95.9834C249.788 95.1583 248.486 94.5061 247.112 94.0461C247.112 94.0461 245.983 91.963 245.197 92.6687C244.864 91.9253 244.615 91.1472 244.455 90.3486L244.432 90.2027C245.923 89.1618 246.997 87.6243 247.461 85.8646C247.487 85.7657 247.508 85.6641 247.531 85.5652C247.609 85.5917 247.691 85.6066 247.773 85.6094C248.458 85.6094 248.879 84.8465 249.52 84.6043C249.78 84.5028 250.1 84.4872 250.3 84.2814C250.366 84.2021 250.416 84.1102 250.445 84.0113C250.475 83.9124 250.484 83.8085 250.472 83.706C250.479 83.6349 250.479 83.5635 250.472 83.4925C250.473 83.4673 250.473 83.4421 250.472 83.4169V83.443C250.298 82.4952 249.564 81.6541 249.644 80.6906C249.723 79.7845 250.519 78.9877 250.454 78.1049C250.453 78.0352 250.447 77.9655 250.436 77.8966V77.9279C250.339 77.5832 250.16 77.2671 249.915 77.0061C249.635 76.6242 249.267 76.3152 248.843 76.1051C248.481 75.9463 248.062 75.9098 247.724 75.7198C246.73 75.1781 246.732 73.7668 246.141 72.8034C245.888 72.4012 245.529 72.0767 245.103 71.8658C244.678 71.6549 244.202 71.5658 243.729 71.6082C242.99 71.6811 242.321 72.0743 241.589 72.2019C240.59 72.3789 239.572 72.0534 238.625 71.6811C237.678 71.3087 236.717 70.8999 235.7 70.8999C234.682 70.8999 233.581 71.4207 233.274 72.3815C233.11 72.9023 233.191 73.4622 233.066 73.9908C232.842 74.923 232.025 75.5896 231.179 76.0531C230.659 76.3421 230.039 76.6728 229.878 77.2196C229.878 77.204 229.878 77.191 229.878 77.178C229.866 77.2216 229.857 77.2659 229.852 77.3107C229.847 77.3688 229.847 77.4272 229.852 77.4852C229.852 77.8602 230.05 78.2169 230.182 78.5736C230.43 79.2523 230.424 79.9975 230.167 80.6724C229.974 81.1672 229.646 81.602 229.459 82.0941C229.371 82.3234 229.313 82.5633 229.287 82.8076V82.766C229.281 82.877 229.281 82.9883 229.287 83.0993C229.284 83.4795 229.373 83.8549 229.547 84.1929C229.667 84.4263 229.832 84.6334 230.032 84.802C230.233 84.9706 230.465 85.0973 230.716 85.1746C231.236 85.2944 231.562 84.784 232.111 84.9142C232.209 84.9379 232.306 84.9683 232.4 85.0053C232.418 85.1225 232.436 85.2397 232.457 85.3543C232.789 87.1067 233.722 88.6881 235.096 89.8252C235.096 89.8877 235.117 89.9502 235.125 90.0153C235.291 91.0534 235.363 92.1044 235.341 93.1556C235.341 93.1556 234.521 91.9552 233.397 94.2727C233.397 94.2727 230.463 95.9652 229.451 96.1579C228.439 96.3506 224.844 97.6031 224.844 97.6031C224.302 97.9953 223.65 98.2059 222.981 98.2046C221.859 98.2046 220.928 100.66 221.063 101.996C221.198 103.332 220.982 104.316 219.939 104.371C218.895 104.425 219.465 106.542 219.473 106.579L219.376 107.034C219.173 107.967 218.731 109.966 218.575 110.279C217.913 111.865 217.537 113.556 217.463 115.273C217.383 117.69 216.683 127.309 216.602 127.473C216.547 127.579 220.964 131.618 224.069 134.441L224.519 134.847L223.09 148.2C223.132 148.714 223.285 149.214 223.538 149.663C223.792 150.113 224.14 150.502 224.558 150.804C224.558 150.96 224.558 151.119 224.543 151.283C224.48 152.845 224.355 154.736 224.105 155.23C223.668 156.105 223.777 160.798 223.777 160.798C223.777 160.798 223.338 170.349 222.791 171.388C222.244 172.427 222.133 174.606 222.297 175.033C222.46 175.46 221.747 186.93 221.747 186.93L221.201 192.063C221.201 192.063 221.365 196.974 220.87 197.083C220.376 197.193 220.103 200.578 220.103 200.578C220.103 200.578 218.351 202.978 219.116 203.851C219.881 204.723 219.004 205.108 218.924 205.325C218.843 205.541 217.253 206.366 218.403 209.418C218.414 209.448 218.426 209.478 218.439 209.506C217.362 211.004 213.947 215.834 214.156 216.568C214.309 217.035 214.635 217.426 215.067 217.662C215.871 218.144 217.25 218.368 219.444 217.662C223.088 216.488 222.827 215.641 222.827 215.641C222.846 215.246 223.016 214.872 223.301 214.598C223.587 214.324 223.967 214.17 224.363 214.167C225.87 214.058 226.994 212.668 226.994 212.668L226.817 212.009L226.575 211.097C226.604 210.837 226.789 210.381 227.616 210.129C228.878 209.746 228.548 207.345 228.548 207.345C228.548 207.345 228.439 204.835 228.985 204.507C229.532 204.179 229.316 200.031 229.316 200.031C229.316 200.031 229.919 197.028 230.794 195.008C231.668 192.987 232.715 180.983 232.715 180.983C232.715 180.983 233.425 175.088 234.084 173.395C234.742 171.703 235.346 166.956 235.346 166.956C235.346 166.956 239.403 159.095 239.455 157.347C239.455 157.347 239.976 155.71 240.496 157.511C241.017 159.313 242.48 163.625 242.48 163.625L243.903 168.919L245.603 176.832L246.701 183.493C246.701 183.493 246.534 186.003 246.961 186.878C247.388 187.753 248.002 189.769 247.674 190.152C247.346 190.534 248.33 192.336 248.606 192.716C248.882 193.097 248.606 201.177 248.606 201.177C248.606 201.177 249.866 208.053 251.675 209.249C251.801 209.332 251.935 209.401 252.075 209.457C252.049 210.202 252.023 211.199 252.057 211.72C252.053 211.836 252.073 211.952 252.114 212.061C252.278 212.28 254.142 213.753 254.527 213.753C254.912 213.753 256.278 214.709 256.336 215.173C256.393 215.636 260.341 217.599 260.901 217.657C261.46 217.714 264.172 218.201 264.544 217.438C264.636 217.215 264.663 216.97 264.62 216.732ZM254.92 118.377L255.201 118.619C255.201 118.619 255.49 120.872 255.695 121.546C255.901 122.221 255.654 123.533 255.654 123.533C255.673 124.023 255.77 124.506 255.943 124.965C256.187 125.457 255.448 126.527 255.448 126.527H254.79L254.584 118.096L254.92 118.377ZM235.341 93.2025V93.153C235.335 93.1686 235.333 93.1868 235.333 93.2025H235.341ZM225.23 125.66C225.128 125.442 225.113 125.194 225.188 124.965C225.246 124.841 225.293 124.712 225.326 124.58C225.407 124.238 225.457 123.889 225.477 123.538C225.477 123.534 225.477 123.529 225.477 123.525C225.453 123.4 225.243 122.192 225.438 121.551C225.633 120.911 225.93 118.625 225.93 118.625L226.117 118.466L226.552 118.088C226.552 118.088 226.552 117.947 226.583 117.716C226.674 119.695 226.747 121.882 226.63 121.991C226.411 122.208 225.615 124.335 225.807 124.418C225.87 124.447 225.784 125.298 225.638 126.444C225.475 126.198 225.338 125.935 225.23 125.66Z" fill="url(#paint1_linear_2194_42111)"/>
<path d="M246.206 95.2828V98.522L239.564 101.863C239.564 101.863 232.969 97.8711 234.596 96.2827C235.637 95.2776 235.437 92.5174 235.156 90.6191C234.992 89.5151 234.802 88.7053 234.802 88.7053C234.802 88.7053 246.649 85.3202 244.858 87.8902C244.259 88.7495 244.213 89.8614 244.413 90.9629C244.819 93.1475 246.206 95.2828 246.206 95.2828Z" fill="#C37098"/>
<path d="M228.01 126.96L227.154 137.511C227.154 137.511 225.871 136.347 224.21 134.832C221.131 132.022 216.759 128.004 216.811 127.897C216.892 127.733 217.592 118.161 217.667 115.755C217.738 114.047 218.11 112.366 218.766 110.787C218.922 110.475 219.362 108.485 219.546 107.556C219.609 107.267 219.648 107.079 219.648 107.079L221.084 106.501C221.084 106.501 227.07 113.183 227.07 113.305C227.07 113.427 226.662 118.56 226.662 118.56L226.238 118.929L226.053 119.088C226.053 119.088 225.767 121.33 225.564 122.002C225.361 122.674 225.579 123.84 225.603 123.965C225.583 124.316 225.534 124.665 225.454 125.007C225.42 125.139 225.374 125.267 225.316 125.39C225.243 125.618 225.258 125.865 225.358 126.082C225.474 126.384 225.624 126.672 225.806 126.939L228.01 126.96Z" fill="#3F3D56"/>
<path d="M264.289 127.897C264.351 128.024 257.967 133.855 255.201 136.373L253.946 137.511L253.098 126.959H255.297C255.297 126.959 256.031 125.9 255.786 125.41C255.616 124.954 255.52 124.473 255.502 123.986C255.502 123.986 255.744 122.684 255.541 122.009C255.338 121.335 255.052 119.096 255.052 119.096L254.774 118.856L254.443 118.567C254.443 118.567 254.035 113.435 254.035 113.312C254.035 113.19 260.021 106.508 260.021 106.508L261.447 107.079C261.447 107.079 261.478 107.232 261.53 107.477C261.723 108.365 262.183 110.466 262.342 110.787C262.997 112.365 263.369 114.047 263.44 115.755C263.508 118.161 264.205 127.733 264.289 127.897Z" fill="#3F3D56"/>
<path d="M264.315 217.456C263.932 218.217 261.246 217.717 260.692 217.675C260.138 217.633 256.223 215.662 256.169 215.201C256.114 214.74 254.758 213.79 254.378 213.79C253.998 213.79 252.153 212.321 251.989 212.105C251.947 211.997 251.929 211.882 251.934 211.767C251.877 210.873 251.989 208.574 251.989 208.574L259.862 209.009L263.687 214.766C264.01 215.387 264.243 216.051 264.38 216.737C264.426 216.978 264.404 217.228 264.315 217.456Z" fill="#3F3D56"/>
<path opacity="0.1" d="M264.315 217.456C263.932 218.217 261.246 217.717 260.692 217.675C260.138 217.633 256.223 215.662 256.169 215.201C256.114 214.74 254.758 213.79 254.378 213.79C253.998 213.79 252.153 212.321 251.989 212.105C251.947 211.997 251.929 211.882 251.934 211.767C251.877 210.873 251.989 208.574 251.989 208.574L259.862 209.009L263.687 214.766C264.01 215.387 264.243 216.051 264.38 216.737C264.426 216.978 264.404 217.228 264.315 217.456Z" fill="black"/>
<path opacity="0.1" d="M264.315 217.456C263.932 218.216 261.247 217.717 260.692 217.675C260.138 217.633 256.224 215.662 256.169 215.201C256.114 214.74 254.758 213.79 254.378 213.79C253.998 213.79 252.153 212.321 251.989 212.105C251.948 211.997 251.929 211.882 251.935 211.767L254.485 213.381C254.485 213.381 256.114 214.423 256.549 215.04C256.984 215.657 260.409 216.941 260.692 216.967C260.903 216.987 263.152 216.555 264.38 216.737C264.427 216.978 264.404 217.228 264.315 217.456Z" fill="black"/>
<path d="M227.098 212.704C227.098 212.704 225.984 214.09 224.496 214.196C224.103 214.199 223.726 214.353 223.443 214.626C223.161 214.899 222.993 215.27 222.976 215.662C222.976 215.662 223.236 216.506 219.637 217.675C217.464 218.376 216.097 218.154 215.301 217.675C214.873 217.439 214.551 217.051 214.398 216.587C214.153 215.72 218.957 209.119 218.957 209.119L223.33 208.858L226.453 210.27L226.932 212.059L227.098 212.704Z" fill="#3F3D56"/>
<path opacity="0.1" d="M227.098 212.704C227.098 212.704 225.984 214.09 224.496 214.196C224.103 214.199 223.726 214.353 223.443 214.626C223.161 214.899 222.993 215.27 222.976 215.662C222.976 215.662 223.236 216.506 219.637 217.675C217.464 218.376 216.097 218.154 215.301 217.675C214.873 217.439 214.551 217.051 214.398 216.587C214.153 215.72 218.957 209.119 218.957 209.119L223.33 208.858L226.453 210.27L226.932 212.059L227.098 212.704Z" fill="black"/>
<path opacity="0.1" d="M227.096 212.704C227.096 212.704 225.982 214.089 224.494 214.196C224.101 214.199 223.724 214.353 223.441 214.626C223.159 214.898 222.991 215.269 222.974 215.662C222.974 215.662 223.234 216.506 219.635 217.675C217.462 218.375 216.095 218.154 215.299 217.675C217.347 217.461 221.873 216.167 222.326 215.719C222.87 215.175 223.549 213.68 224.01 213.654C224.33 213.634 225.956 212.655 226.932 212.048L227.096 212.704Z" fill="black"/>
<path d="M260.621 206.647C260.132 207.788 260.621 210.124 260.621 210.124C260.621 210.124 253.334 210.504 251.553 209.309C249.773 208.113 248.514 201.268 248.514 201.268C248.514 201.268 248.774 193.229 248.514 192.849C248.253 192.469 247.264 190.678 247.59 190.297C247.915 189.917 247.329 187.907 246.884 187.037C246.439 186.168 246.624 183.67 246.624 183.67L245.536 177.041L243.855 169.167L242.426 163.896C242.426 163.896 240.961 159.605 240.464 157.814C239.967 156.022 239.441 157.649 239.441 157.649C239.389 159.389 235.371 167.211 235.371 167.211C235.371 167.211 234.772 171.937 234.121 173.619C233.471 175.301 232.763 181.171 232.763 181.171C232.763 181.171 231.722 193.12 230.863 195.13C230.004 197.141 229.413 200.127 229.413 200.127C229.413 200.127 229.632 204.257 229.088 204.583C228.544 204.908 228.632 207.408 228.632 207.408C228.632 207.408 228.958 209.796 227.708 210.178C226.459 210.561 226.667 211.374 226.667 211.374C226.667 211.374 219.719 212.514 218.579 209.47C217.439 206.426 219.013 205.616 219.099 205.398C219.185 205.179 220.052 204.801 219.292 203.929C218.532 203.057 220.268 200.671 220.268 200.671C220.268 200.671 220.541 197.305 221.028 197.195C221.514 197.086 221.356 192.198 221.356 192.198L221.897 187.092C221.897 187.092 222.605 175.684 222.441 175.249C222.277 174.815 222.386 172.645 222.93 171.604C223.474 170.562 223.906 161.063 223.906 161.063C223.906 161.063 223.797 156.394 224.231 155.525C224.492 155.033 224.601 153.139 224.663 151.595C224.71 150.416 224.721 149.439 224.721 149.439L230.8 147.158L238.608 144.661L245.177 147.812L254.788 149.658L254.908 151.317L256.743 176.655L257.784 186.214C257.784 186.214 258.219 190.722 258.273 191.537C258.328 192.352 258.869 197.677 258.869 197.677C258.869 197.677 260.009 200.229 259.304 201.098C258.599 201.968 258.869 202.661 258.869 202.661C258.869 202.661 261.11 205.507 260.621 206.647Z" fill="#3F3D56"/>
<path opacity="0.1" d="M244.863 87.8906C244.264 88.7499 244.218 89.8617 244.418 90.9632C243.05 91.9286 241.403 92.4176 239.731 92.355C238.058 92.2924 236.452 91.6817 235.161 90.6169C234.997 89.5128 234.807 88.703 234.807 88.703C234.807 88.703 246.654 85.3231 244.863 87.8906Z" fill="black"/>
<path d="M247.632 84.568C247.632 86.077 247.185 87.5521 246.347 88.8068C245.509 90.0614 244.318 91.0393 242.925 91.6168C241.531 92.1942 239.998 92.3453 238.519 92.0509C237.04 91.7565 235.681 91.0299 234.614 89.9629C233.548 88.8959 232.822 87.5365 232.527 86.0565C232.233 84.5765 232.384 83.0425 232.961 81.6484C233.538 80.2543 234.516 79.0627 235.77 78.2244C237.024 77.386 238.498 76.9386 240.006 76.9386C241.009 76.9337 242.003 77.1278 242.93 77.5095C243.858 77.8912 244.7 78.453 245.409 79.1624C246.118 79.8719 246.68 80.7148 247.061 81.6427C247.443 82.5705 247.637 83.5648 247.632 84.568Z" fill="#C37098"/>
<path opacity="0.1" d="M249.218 97.2464L246.72 141.76L233.147 138.909L230.459 121.064L233.121 97.1084L235.125 97.3662L238.66 97.8167L242.16 98.0328L245.955 97.611L249.218 97.2464Z" fill="black"/>
<path d="M249.218 97.5719L246.72 142.086L233.147 139.235L230.459 121.39L233.121 97.4365L235.125 97.6917L238.66 98.1422L242.16 98.3583L245.955 97.9365L249.218 97.5719Z" fill="#EF293D"/>
<path d="M238.062 98.7676L242.95 98.9316L241.576 100.856C241.576 100.856 241.672 104.744 242.326 105.858C242.979 106.973 242.786 124.19 242.786 124.19L241.485 126.661L239.26 123.89L239.288 101.158L238.062 98.7676Z" fill="#3F3D56"/>
<path opacity="0.1" d="M238.062 98.7676L242.95 98.9316L241.576 100.856C241.576 100.856 241.672 104.744 242.326 105.858C242.979 106.973 242.786 124.19 242.786 124.19L241.485 126.661L239.26 123.89L239.288 101.158L238.062 98.7676Z" fill="black"/>
<path opacity="0.1" d="M245.716 93.7153L241.156 98.7669L243.761 101.483L248.079 97.2723L245.716 93.7153Z" fill="black"/>
<path d="M245.716 93.3901L241.156 98.4417L243.761 101.158L248.079 96.9471L245.716 93.3901Z" fill="#EF293D"/>
<path opacity="0.1" d="M239.231 98.522L234.614 93.9053L234.18 96.3217L236.298 101.618L239.231 98.522Z" fill="black"/>
<path d="M239.393 98.1968L234.778 93.5801L234.344 95.9965L236.462 101.293L239.393 98.1968Z" fill="#EF293D"/>
<path opacity="0.1" d="M254.933 151.325C252.717 152.381 250.344 153.068 247.906 153.358C243.427 153.928 240.497 148.226 240.497 148.226L238.787 150.452C238.243 152.817 229.964 153.413 226.599 152.517C225.901 152.345 225.244 152.034 224.668 151.603C224.715 150.424 224.725 149.447 224.725 149.447L230.805 147.166L238.613 144.669L245.182 147.82L254.793 149.666L254.933 151.325Z" fill="black"/>
<path opacity="0.1" d="M249.22 97.5745L246.724 142.086L233.149 139.235L230.455 121.393L233.115 97.4365L235.119 97.6969C235.068 98.5695 234.97 99.4388 234.825 100.301C234.499 101.824 236.509 112.633 236.509 112.633C236.509 112.633 240.327 124.754 242.044 123.007C243.762 121.26 246.209 112.034 246.209 112.034C247.866 108.613 246.237 99.0145 246.115 98.8218C246.03 98.538 245.977 98.2453 245.959 97.9495L249.22 97.5745Z" fill="black"/>
<path opacity="0.1" d="M255.083 132.019L255.198 136.381L253.943 137.519L253.098 126.96H254.972L255.083 132.019Z" fill="black"/>
<path opacity="0.1" d="M225.608 123.973C225.589 124.324 225.539 124.672 225.459 125.015C225.459 124.918 225.459 124.864 225.438 124.856C225.36 124.835 225.454 124.437 225.608 123.973Z" fill="black"/>
<path opacity="0.1" d="M228.013 126.96L227.156 137.511C227.156 137.511 225.873 136.347 224.213 134.831L224.411 132.962C224.411 132.962 225.111 128.368 225.366 126.103C225.481 126.405 225.632 126.692 225.813 126.96H228.013Z" fill="black"/>
<path d="M235.374 93.7417C235.374 93.7417 234.562 92.5465 233.448 94.8536C233.448 94.8536 230.544 96.5384 229.544 96.7284C228.545 96.9185 224.99 98.1684 224.99 98.1684C224.453 98.5567 223.807 98.7654 223.145 98.7647C222.031 98.7647 221.107 101.21 221.242 102.54C221.377 103.871 221.161 104.85 220.131 104.905C219.1 104.959 219.668 107.102 219.668 107.102L226.536 114.979C226.536 114.979 226.97 122.231 226.754 122.45C226.538 122.669 225.75 124.793 225.94 124.866C226.13 124.939 224.899 132.959 224.899 132.959L223.243 148.523C223.243 148.523 223.243 151.127 226.611 152.025C229.979 152.924 238.263 152.33 238.797 149.966L240.506 147.737C240.506 147.737 243.437 153.442 247.916 152.872C252.395 152.301 255.247 150.671 255.247 150.671L254.758 132.019L254.433 118.575L261.426 107.079C261.426 107.079 259.552 103.493 259.716 101.871C259.88 100.249 260.203 99.0199 256.213 98.4496C256.213 98.4496 252.848 97.9471 250.865 96.5748C249.686 95.7561 248.398 95.1074 247.039 94.6479C247.039 94.6479 245.92 92.5648 245.142 93.2782C245.142 93.2782 245.922 96.2233 245.857 96.6633C245.792 97.1034 245.98 99.0928 246.102 99.2985C246.224 99.5042 247.854 109.089 246.196 112.511C246.196 112.511 243.762 121.736 242.032 123.484C240.301 125.231 236.496 113.11 236.496 113.11C236.496 113.11 234.487 102.298 234.812 100.778C235.137 99.2568 235.374 93.7417 235.374 93.7417Z" fill="#3F3D56"/>
<path d="M241.183 129.35C241.843 129.35 242.377 128.815 242.377 128.155C242.377 127.495 241.843 126.96 241.183 126.96C240.523 126.96 239.988 127.495 239.988 128.155C239.988 128.815 240.523 129.35 241.183 129.35Z" fill="#3F3D56"/>
<path d="M241.183 134.985C241.843 134.985 242.377 134.45 242.377 133.79C242.377 133.13 241.843 132.595 241.183 132.595C240.523 132.595 239.988 133.13 239.988 133.79C239.988 134.45 240.523 134.985 241.183 134.985Z" fill="#3F3D56"/>
<path opacity="0.1" d="M241.183 129.35C241.843 129.35 242.377 128.815 242.377 128.155C242.377 127.495 241.843 126.96 241.183 126.96C240.523 126.96 239.988 127.495 239.988 128.155C239.988 128.815 240.523 129.35 241.183 129.35Z" fill="black"/>
<path opacity="0.1" d="M241.183 134.985C241.843 134.985 242.377 134.45 242.377 133.79C242.377 133.13 241.843 132.595 241.183 132.595C240.523 132.595 239.988 133.13 239.988 133.79C239.988 134.45 240.523 134.985 241.183 134.985Z" fill="black"/>
<path opacity="0.1" d="M251.918 205.018C251.918 205.018 256.821 205.398 257.308 205.778C257.795 206.158 251.918 205.018 251.918 205.018Z" fill="black" stroke="#6C63FF" stroke-width="0.940519" stroke-miterlimit="10"/>
<path opacity="0.1" d="M222.725 201.161C222.725 201.161 223.766 202.463 223.323 203.062C222.881 203.661 222.725 201.161 222.725 201.161Z" fill="black" stroke="#6C63FF" stroke-width="0.940519" stroke-miterlimit="10"/>
<path opacity="0.1" d="M223.973 205.856C223.973 205.856 225.873 204.606 226.632 205.437C227.392 206.267 223.973 205.856 223.973 205.856Z" fill="black" stroke="#6C63FF" stroke-width="0.940519" stroke-miterlimit="10"/>
<path opacity="0.1" d="M247.633 84.5682C247.634 85.2192 247.552 85.8677 247.388 86.4977C247.228 86.4245 247.093 86.3039 247.003 86.1522C246.913 86.0006 246.871 85.8249 246.883 85.6488C246.917 85.339 247.123 85.0551 247.078 84.7479C247.013 84.274 246.441 84.0813 246.139 83.7063C245.767 83.2532 245.847 82.5944 245.879 82.0086C245.91 81.4227 245.761 80.7066 245.212 80.5061C245.048 80.4462 244.869 80.441 244.71 80.3733C244.278 80.191 244.145 79.6546 243.856 79.2849C243.279 78.5401 242.131 78.5558 241.254 78.9099C240.872 79.093 240.481 79.2564 240.083 79.3994C239.883 79.4699 239.671 79.4981 239.46 79.4824C239.249 79.4667 239.044 79.4074 238.857 79.3083C238.685 79.1989 238.547 79.0479 238.37 78.9385C237.782 78.5844 237.012 78.9385 236.501 79.3942C235.991 79.8499 235.583 80.4618 234.94 80.7405C234.651 80.8707 234.294 80.9488 234.159 81.23C234.092 81.3831 234.063 81.5502 234.076 81.7169C234.076 82.7298 234.196 83.7584 233.985 84.7505C233.849 85.3884 233.402 86.1123 232.754 86.0342C232.673 86.0223 232.594 86.0022 232.517 85.9743C232.322 84.9314 232.346 83.8593 232.589 82.8264C232.831 81.7935 233.286 80.8226 233.925 79.9756C234.564 79.1286 235.372 78.4243 236.298 77.9075C237.224 77.3908 238.248 77.0729 239.304 76.9744C240.36 76.8758 241.425 76.9987 242.43 77.3352C243.436 77.6716 244.361 78.2142 245.145 78.9284C245.929 79.6425 246.556 80.5125 246.985 81.4827C247.415 82.4529 247.637 83.502 247.638 84.563L247.633 84.5682Z" fill="black"/>
<path d="M232.174 85.5421C232.369 85.5864 232.554 85.6879 232.754 85.714C233.402 85.7921 233.85 85.0682 233.985 84.4303C234.196 83.4382 234.087 82.4096 234.079 81.3967C234.064 81.2302 234.092 81.0627 234.16 80.9098C234.308 80.6285 234.664 80.5504 234.94 80.4202C235.57 80.139 235.981 79.5401 236.502 79.074C237.022 78.6079 237.78 78.2642 238.368 78.6183C238.542 78.7225 238.683 78.8787 238.855 78.9881C239.043 79.0858 239.248 79.1443 239.459 79.1599C239.671 79.1756 239.883 79.1481 240.083 79.0792C240.486 78.9594 240.864 78.7485 241.252 78.5897C242.121 78.2355 243.271 78.2225 243.854 78.962C244.143 79.3344 244.276 79.8682 244.708 80.0505C244.867 80.1182 245.046 80.126 245.21 80.1859C245.759 80.3916 245.9 81.1024 245.876 81.6883C245.853 82.2742 245.775 82.933 246.137 83.3861C246.439 83.7558 247.011 83.9485 247.076 84.4277C247.118 84.7349 246.915 85.0213 246.881 85.3286C246.873 85.4428 246.888 85.5574 246.925 85.6658C246.962 85.7741 247.02 85.8741 247.096 85.9598C247.172 86.0456 247.264 86.1154 247.367 86.1653C247.47 86.2152 247.581 86.2441 247.696 86.2504C248.372 86.2504 248.791 85.4927 249.424 85.2505C249.684 85.1489 249.999 85.1333 250.204 84.9276C250.281 84.8287 250.335 84.7144 250.363 84.5925C250.391 84.4707 250.392 84.3442 250.366 84.2219C250.238 83.2246 249.439 82.3575 249.525 81.3576C249.606 80.3994 250.493 79.5635 250.306 78.6209C250.211 78.2733 250.032 77.9543 249.785 77.6913C249.506 77.313 249.143 77.0053 248.724 76.793C248.362 76.6367 247.943 76.6003 247.612 76.4102C246.629 75.8712 246.631 74.4651 246.051 73.5068C245.802 73.1108 245.448 72.791 245.03 72.5825C244.611 72.374 244.143 72.2848 243.677 72.3246C242.946 72.3976 242.282 72.7855 241.559 72.9157C240.567 73.0928 239.563 72.7673 238.623 72.3949C237.683 72.0226 236.734 71.6138 235.726 71.6138C234.719 71.6138 233.629 72.1346 233.322 73.0876C233.16 73.6084 233.241 74.1656 233.116 74.689C232.897 75.6186 232.075 76.28 231.247 76.7409C230.677 77.0586 229.993 77.4231 229.925 78.0715C229.881 78.4829 230.107 78.8527 230.25 79.2511C230.494 79.9251 230.488 80.6639 230.235 81.3342C230.045 81.8263 229.727 82.2586 229.535 82.7481C229.398 83.0804 229.333 83.4379 229.345 83.797C229.357 84.1561 229.444 84.5086 229.602 84.8313C229.724 85.0665 229.892 85.2745 230.096 85.4424C230.301 85.6103 230.538 85.7346 230.792 85.8077C231.305 85.9301 231.627 85.4223 232.174 85.5421Z" fill="#3F3D56"/>
<g opacity="0.1">
<path opacity="0.1" d="M233.988 83.8625C233.853 84.5004 233.402 85.2243 232.754 85.1462C232.554 85.1202 232.372 85.0186 232.174 84.9743C231.63 84.8546 231.307 85.3649 230.795 85.2347C230.54 85.1617 230.303 85.0374 230.098 84.8695C229.893 84.7016 229.724 84.4936 229.603 84.2583C229.467 83.9932 229.384 83.7038 229.361 83.4068C229.309 83.8678 229.393 84.334 229.603 84.7478C229.724 84.9831 229.893 85.1911 230.098 85.359C230.303 85.5269 230.54 85.6512 230.795 85.7243C231.315 85.8441 231.63 85.3337 232.174 85.4639C232.364 85.5302 232.558 85.5867 232.754 85.6331C233.402 85.7139 233.853 84.99 233.988 84.352C234.095 83.7884 234.137 83.2144 234.113 82.6412C234.11 83.0514 234.069 83.4603 233.988 83.8625Z" fill="black"/>
<path opacity="0.1" d="M230.423 79.9406C230.457 79.5139 230.398 79.0851 230.252 78.6829C230.134 78.4155 230.034 78.1407 229.952 77.8601C229.941 77.9038 229.932 77.9482 229.926 77.9929C229.882 78.4017 230.111 78.7741 230.252 79.1725C230.342 79.4198 230.4 79.6781 230.423 79.9406Z" fill="black"/>
<path opacity="0.1" d="M250.307 78.5687C250.185 79.3082 249.586 80.0035 249.526 80.7821C249.512 80.9153 249.512 81.0498 249.526 81.1831C249.656 80.2743 250.461 79.4697 250.307 78.5687Z" fill="black"/>
<path opacity="0.1" d="M250.35 84.0626C250.328 84.1714 250.277 84.2723 250.202 84.3542C250.009 84.5599 249.681 84.5755 249.421 84.6771C248.788 84.9193 248.38 85.6848 247.693 85.677C247.517 85.667 247.348 85.604 247.209 85.4961C247.069 85.3883 246.966 85.2407 246.912 85.0729C246.896 85.1293 246.884 85.1867 246.876 85.2447C246.868 85.3587 246.883 85.4731 246.92 85.5811C246.958 85.6892 247.016 85.7888 247.091 85.8743C247.167 85.9598 247.259 86.0294 247.362 86.0791C247.465 86.1288 247.576 86.1576 247.69 86.1639C248.369 86.1639 248.786 85.4062 249.418 85.1666C249.679 85.0651 249.996 85.0494 250.199 84.8437C250.276 84.7449 250.33 84.6305 250.357 84.5087C250.385 84.3868 250.386 84.2604 250.36 84.1381C250.358 84.1068 250.353 84.086 250.35 84.0626Z" fill="black"/>
<path opacity="0.1" d="M247.087 83.8466C247.022 83.3727 246.45 83.18 246.148 82.8051C245.963 82.5588 245.862 82.2591 245.861 81.951C245.841 82.4353 245.848 82.9301 246.148 83.2946C246.447 83.6592 246.903 83.8154 247.048 84.1903C247.085 84.0798 247.098 83.9627 247.087 83.8466Z" fill="black"/>
<path opacity="0.1" d="M245.876 81.1203C245.897 80.5345 245.756 79.8184 245.207 79.6179C245.045 79.558 244.866 79.5502 244.707 79.4851C244.275 79.3028 244.14 78.7664 243.853 78.3966C243.273 77.6545 242.125 77.6675 241.251 78.0217C240.861 78.1805 240.488 78.3914 240.082 78.5112C239.883 78.5816 239.671 78.6099 239.46 78.5942C239.249 78.5785 239.043 78.5192 238.857 78.4201C238.685 78.3107 238.544 78.1597 238.37 78.0503C237.779 77.6962 237.009 78.0503 236.501 78.506C235.994 78.9617 235.582 79.571 234.94 79.8522C234.648 79.9824 234.294 80.0605 234.143 80.3418C234.077 80.4951 234.049 80.6622 234.063 80.8287C234.063 80.9303 234.063 81.0318 234.063 81.1334C234.066 81.0285 234.092 80.9255 234.138 80.8313C234.289 80.5501 234.643 80.472 234.934 80.3418C235.564 80.0605 235.975 79.4616 236.496 78.9955C237.016 78.5294 237.774 78.1857 238.365 78.5399C238.539 78.644 238.68 78.8002 238.851 78.907C239.038 79.0068 239.244 79.0664 239.455 79.0821C239.666 79.0978 239.878 79.0692 240.077 78.9981C240.475 78.8565 240.865 78.6939 241.246 78.5112C242.118 78.1571 243.265 78.1415 243.848 78.8836C244.135 79.2533 244.27 79.7897 244.702 79.972C244.861 80.0397 245.04 80.0475 245.202 80.1074C245.647 80.2741 245.824 80.774 245.863 81.2688L245.876 81.1203Z" fill="black"/>
</g>
<g opacity="0.1">
<path opacity="0.1" d="M233.057 83.8465C233.072 83.4143 233.227 82.9987 233.498 82.662C233.77 82.3253 234.143 82.0858 234.562 81.9795C235.722 81.6957 236.94 81.7508 238.07 82.1384C240.54 82.956 237.758 85.8984 237.758 85.8984C237.758 85.8984 235.907 87.7212 234.182 86.4478C233.672 86.0624 233.315 85.509 233.175 84.8855C233.09 84.5458 233.051 84.1965 233.057 83.8465Z" fill="black"/>
<path opacity="0.1" d="M246.636 83.8467C246.621 83.4142 246.466 82.9982 246.194 82.6615C245.923 82.3248 245.549 82.0855 245.129 81.9797C243.97 81.6964 242.753 81.7515 241.624 82.1385C239.154 82.9562 241.936 85.8986 241.936 85.8986C241.936 85.8986 243.784 87.7213 245.512 86.448C246.022 86.0626 246.378 85.5091 246.519 84.8857C246.604 84.546 246.643 84.1967 246.636 83.8467Z" fill="black"/>
<path opacity="0.1" d="M237.604 81.8987V82.0211H242.114V81.8752L237.604 81.8987Z" fill="black"/>
<path opacity="0.1" d="M239.044 83.2036H239.187V82.7895C239.187 82.7895 239.645 82.4328 240.405 82.7895V83.1593H240.665V82.9171H240.538C240.538 82.9171 240.59 82.4146 239.741 82.4953C239.741 82.4953 239.059 82.4302 239.075 82.8624H238.919L239.044 83.2036Z" fill="black"/>
</g>
<path d="M233.057 83.6777C233.072 83.2455 233.227 82.8298 233.498 82.4931C233.77 82.1565 234.143 81.917 234.562 81.8107C235.722 81.5287 236.939 81.5838 238.07 81.9695C240.54 82.7897 237.758 85.7296 237.758 85.7296C237.758 85.7296 235.907 87.5523 234.182 86.279C233.671 85.8945 233.314 85.3406 233.175 84.7166C233.09 84.377 233.05 84.0277 233.057 83.6777Z" fill="#EF293D"/>
<path d="M246.636 83.6772C246.621 83.2447 246.466 82.8288 246.194 82.492C245.923 82.1553 245.549 81.916 245.129 81.8102C243.97 81.5282 242.753 81.5833 241.624 81.9691C239.154 82.7893 241.936 85.7291 241.936 85.7291C241.936 85.7291 243.784 87.5519 245.512 86.2785C246.023 85.8941 246.38 85.3402 246.519 84.7162C246.604 84.3766 246.643 84.0272 246.636 83.6772Z" fill="#EF293D"/>
<path d="M237.604 81.7349V81.8598H242.114V81.7114L237.604 81.7349Z" fill="#EF293D"/>
<path d="M239.043 83.0398H239.186V82.6258C239.186 82.6258 239.644 82.2716 240.404 82.6258V82.9981H240.664V82.7534H240.537C240.537 82.7534 240.589 82.2534 239.74 82.3315C239.74 82.3315 239.059 82.269 239.074 82.6987H238.918L239.043 83.0398Z" fill="#EF293D"/>
<defs>
<linearGradient id="paint0_linear_2194_42111" x1="154.528" y1="174.234" x2="154.528" y2="34.0571" gradientUnits="userSpaceOnUse">
<stop stop-color="#808080" stop-opacity="0.25"/>
<stop offset="0.54" stop-color="#808080" stop-opacity="0.12"/>
<stop offset="1" stop-color="#808080" stop-opacity="0.1"/>
</linearGradient>
<linearGradient id="paint1_linear_2194_42111" x1="47897" y1="125888" x2="47897" y2="42657.6" gradientUnits="userSpaceOnUse">
<stop stop-color="#808080" stop-opacity="0.25"/>
<stop offset="0.54" stop-color="#808080" stop-opacity="0.12"/>
<stop offset="1" stop-color="#808080" stop-opacity="0.1"/>
</linearGradient>
</defs>
</svg>
