<svg width="285" height="242" viewBox="0 0 285 242" fill="none" xmlns="http://www.w3.org/2000/svg">
<g clip-path="url(#clip0_2194_41983)">
<path d="M227.541 106.643L228.387 99.8502C228.687 97.436 229.933 95.2403 231.85 93.7462C233.766 92.2521 236.197 91.5819 238.607 91.8831C241.017 92.1843 243.209 93.4322 244.7 95.3523C246.192 97.2723 246.861 99.7073 246.56 102.121L245.714 108.915C245.673 109.239 245.506 109.533 245.249 109.734C244.991 109.935 244.665 110.025 244.341 109.985L228.609 108.019C228.285 107.978 227.991 107.81 227.791 107.552C227.591 107.294 227.501 106.968 227.541 106.643Z" fill="#2F2E41"/>
<path d="M235.075 108.67C238.783 108.67 241.789 105.659 241.789 101.944C241.789 98.2299 238.783 95.2188 235.075 95.2188C231.367 95.2188 228.361 98.2299 228.361 101.944C228.361 105.659 231.367 108.67 235.075 108.67Z" fill="#FFB8B8"/>
<path d="M226.169 100.125C226.409 98.216 227.395 96.4805 228.911 95.299C230.426 94.1175 232.348 93.5865 234.254 93.8225L235.61 93.992C237.516 94.2323 239.248 95.22 240.428 96.7383C241.607 98.2567 242.137 100.182 241.902 102.091L241.885 102.227L239.018 101.869L238.382 99.0043L237.845 101.722L236.364 101.537L236.043 100.092L235.772 101.463L226.152 100.261L226.169 100.125Z" fill="#2F2E41"/>
<path d="M202.239 125.936C202.444 126.339 202.735 126.693 203.091 126.972C203.448 127.25 203.861 127.447 204.301 127.549C204.742 127.65 205.199 127.654 205.641 127.559C206.083 127.464 206.499 127.274 206.86 127L212.958 130.579L216.033 127.397L207.35 122.465C206.852 121.888 206.16 121.515 205.405 121.416C204.65 121.316 203.885 121.498 203.255 121.926C202.625 122.354 202.174 122.998 201.986 123.737C201.799 124.476 201.889 125.258 202.239 125.936Z" fill="#FFB8B8"/>
<path d="M222.226 132.366C217.728 132.366 209.813 130.349 209.375 130.236L209.236 130.201L210.482 123.882L222.571 126.275L229.139 117.01L236.68 116.242L236.469 116.519C236.371 116.648 226.651 129.466 225.138 131.616C224.757 132.159 223.666 132.366 222.226 132.366Z" fill="#3F3D56"/>
<path d="M223.431 156.079L223.251 155.993C223.213 155.975 219.391 154.113 217.412 150.478C215.442 146.86 224.664 131.512 225.309 130.447L225.318 125.573L228.636 116.601L232.867 114.206L229.234 122.696L223.431 156.079Z" fill="#3F3D56"/>
<path d="M219.192 208.465L215.148 208.465L213.225 192.841L219.192 192.842L219.192 208.465Z" fill="#FFB8B8"/>
<path d="M220.223 212.391L207.186 212.391V212.226C207.186 210.877 207.72 209.584 208.672 208.631C209.624 207.678 210.914 207.142 212.26 207.142H212.26L220.223 207.142L220.223 212.391Z" fill="#2F2E41"/>
<path d="M262.624 204.915L258.782 206.176L252.098 191.93L257.769 190.068L262.624 204.915Z" fill="#FFB8B8"/>
<path d="M264.824 208.325L252.434 212.391L252.383 212.234C251.964 210.953 252.07 209.558 252.678 208.355C253.286 207.152 254.346 206.241 255.625 205.821L255.626 205.821L263.193 203.337L264.824 208.325Z" fill="#2F2E41"/>
<path d="M254.796 202.361L243.269 183.084L233.539 162.488L224.782 180.681L221.304 204.243L209.105 204.413L209.154 204.222L227.821 129.917L242.442 132.105L241.776 141.772L242.172 142.337C245.475 147.037 248.89 151.896 246.931 157.135L252.484 173.65L264.774 201.149L254.796 202.361Z" fill="#2F2E41"/>
<path d="M228.487 146.021C226.369 146.021 223.952 143.597 225.206 139.46L225.125 139.401L228.136 126.071C225.508 122.306 228.973 119.198 229.298 118.92L230.952 115.938L238.251 111.301L241.944 142.038L241.889 142.09C239.222 144.646 230.264 146.021 228.487 146.021Z" fill="#EF293D"/>
<path d="M243.435 152.957C243.145 152.961 242.855 152.931 242.573 152.865C242.289 152.794 241.829 152.432 241.119 150.116C238.296 140.908 234.963 113.204 237.385 110.493L237.44 110.431L241.416 111.094C241.746 110.85 243.481 109.637 245.081 109.848C245.411 109.89 245.728 109.999 246.014 110.168C246.3 110.337 246.548 110.563 246.743 110.832L246.77 110.868L248.037 128.92L252.677 150.163L252.566 150.213C252.296 150.336 246.502 152.957 243.435 152.957Z" fill="#3F3D56"/>
<path d="M240.762 145.901C241.214 145.886 241.657 145.772 242.06 145.566C242.464 145.361 242.817 145.07 243.095 144.713C243.374 144.356 243.571 143.943 243.673 143.502C243.774 143.06 243.778 142.602 243.684 142.159L249.504 138.143L247.931 134.005L239.791 139.792C239.059 139.999 238.428 140.469 238.018 141.112C237.608 141.754 237.448 142.525 237.568 143.278C237.688 144.031 238.079 144.714 238.668 145.198C239.257 145.681 240.002 145.931 240.762 145.901Z" fill="#FFB8B8"/>
<path d="M247.583 141.361L242.398 137.553L249.686 127.598L244.093 117.712L246.595 110.545L246.757 110.854C246.832 110.997 254.301 125.25 255.604 127.534C256.959 129.91 248.053 140.789 247.674 141.251L247.583 141.361Z" fill="#3F3D56"/>
<path d="M130.968 186.166L126.556 184.305L123.529 162.147H83.2211L79.9403 184.214L75.9928 186.191C75.8039 186.286 75.6525 186.442 75.563 186.633C75.4735 186.825 75.4512 187.041 75.4997 187.247C75.5482 187.453 75.6647 187.636 75.8303 187.768C75.9959 187.899 76.2009 187.97 76.412 187.97H130.604C130.821 187.97 131.03 187.895 131.198 187.758C131.365 187.621 131.48 187.43 131.523 187.217C131.566 187.005 131.534 186.784 131.433 186.592C131.332 186.401 131.167 186.25 130.968 186.166Z" fill="#E6E6E6"/>
<path d="M202.596 165.095H4.59368C3.55483 165.093 2.55931 164.678 1.82555 163.941C1.09178 163.205 0.679694 162.206 0.679688 161.166V133.196H206.51V161.166C206.51 162.206 206.098 163.205 205.364 163.941C204.63 164.678 203.635 165.093 202.596 165.095Z" fill="#CCCCCC"/>
<path d="M206.718 146.415H0.5V26.7371C0.501449 25.4812 1.00015 24.2771 1.8867 23.389C2.77324 22.5009 3.97524 22.0014 5.22898 22H201.989C203.242 22.0014 204.444 22.5009 205.331 23.389C206.218 24.2771 206.716 25.4812 206.718 26.7371V146.415Z" fill="#3F3D56"/>
<path d="M194.4 137.729H12.8156C11.8491 137.728 10.9224 137.342 10.2389 136.658C9.55546 135.973 9.17101 135.045 9.16992 134.077V34.3383C9.171 33.37 9.55544 32.4417 10.2389 31.757C10.9224 31.0723 11.849 30.6871 12.8156 30.686H194.4C195.367 30.6871 196.294 31.0723 196.977 31.757C197.66 32.4417 198.045 33.37 198.046 34.3383V134.077C198.045 135.045 197.66 135.973 196.977 136.658C196.294 137.342 195.367 137.728 194.4 137.729Z" fill="white"/>
<path d="M154.535 188.202H52.5002C52.3957 188.204 52.2933 188.172 52.2092 188.109C52.125 188.047 52.0637 187.959 52.0348 187.858C52.0168 187.79 52.0147 187.718 52.0287 187.649C52.0427 187.579 52.0724 187.514 52.1155 187.458C52.1587 187.402 52.2141 187.356 52.2775 187.325C52.341 187.294 52.4108 187.277 52.4815 187.277H154.497C154.608 187.273 154.716 187.307 154.805 187.373C154.893 187.438 154.957 187.532 154.986 187.639C155.001 187.706 155.001 187.776 154.985 187.844C154.969 187.911 154.939 187.974 154.895 188.029C154.852 188.083 154.797 188.126 154.735 188.156C154.673 188.186 154.604 188.202 154.535 188.202Z" fill="#CCCCCC"/>
<path d="M192.464 46.811H148.621V80.3647H192.464V46.811Z" fill="#F2F2F2"/>
<path d="M190.285 48.478H150.799V78.6972H190.285V48.478Z" fill="white"/>
<path d="M171.234 70.8933C171.24 70.8933 171.245 70.8932 171.25 70.893C173.923 70.7529 176.442 69.5982 178.296 67.6638C180.149 65.7294 181.197 63.1605 181.227 60.4794C181.257 57.7984 180.267 55.2066 178.457 53.231C176.648 51.2555 174.155 50.0445 171.486 49.8445C171.453 49.8419 171.42 49.8462 171.388 49.857C171.357 49.8679 171.328 49.8851 171.304 49.9076C171.28 49.9297 171.26 49.9566 171.247 49.9866C171.234 50.0166 171.227 50.0491 171.226 50.0819L170.996 70.6497C170.996 70.7137 171.02 70.7752 171.065 70.8209C171.11 70.8665 171.171 70.8926 171.234 70.8933Z" fill="#3F3D56"/>
<path d="M162.979 53.2451C163.061 53.2461 163.139 53.2796 163.196 53.3382L170.264 60.5794C170.293 60.6084 170.315 60.6427 170.33 60.6804C170.345 60.7181 170.353 60.7584 170.352 60.7991L170.242 70.6408C170.242 70.6831 170.233 70.7248 170.216 70.7634C170.199 70.8019 170.174 70.8365 170.142 70.865C170.111 70.8937 170.074 70.9158 170.034 70.9298C169.994 70.9437 169.952 70.9493 169.909 70.9461C167.944 70.7987 166.059 70.1053 164.465 68.9437C162.872 67.7821 161.633 66.1983 160.889 64.3704C160.144 62.5425 159.923 60.5428 160.251 58.596C160.579 56.6493 161.442 54.8326 162.743 53.3502C162.771 53.3182 162.806 53.2924 162.844 53.2744C162.883 53.2563 162.925 53.2464 162.967 53.2452C162.971 53.2451 162.975 53.2451 162.979 53.2451Z" fill="#E6E6E6"/>
<path d="M170.166 49.7603C170.245 49.7612 170.321 49.7922 170.378 49.8469C170.408 49.876 170.432 49.9112 170.449 49.9502C170.465 49.9892 170.473 50.0311 170.472 50.0734L170.373 58.9532C170.372 59.0144 170.354 59.0739 170.319 59.1244C170.285 59.1749 170.236 59.2139 170.179 59.2367C170.123 59.2595 170.061 59.2649 170.001 59.2523C169.941 59.2397 169.886 59.2097 169.844 59.166L163.676 52.8471C163.647 52.8171 163.624 52.7814 163.609 52.7422C163.594 52.703 163.587 52.6611 163.588 52.6192C163.59 52.5772 163.6 52.536 163.618 52.498C163.636 52.46 163.661 52.4261 163.693 52.3983C165.486 50.8166 167.76 49.8873 170.147 49.7606C170.153 49.7603 170.16 49.7602 170.166 49.7603Z" fill="#EF293D"/>
<path d="M166.989 75.1581C166.984 75.5327 166.869 75.8977 166.658 76.2068C166.447 76.516 166.149 76.7554 165.802 76.8949C165.455 77.0344 165.074 77.0676 164.708 76.9904C164.342 76.9132 164.007 76.729 163.746 76.4612C163.484 76.1933 163.308 75.8538 163.239 75.4856C163.171 75.1173 163.212 74.7369 163.359 74.3924C163.506 74.0479 163.752 73.7548 164.065 73.5502C164.378 73.3456 164.745 73.2386 165.119 73.2428C165.62 73.249 166.099 73.4541 166.449 73.8132C166.8 74.1723 166.994 74.6559 166.989 75.1581Z" fill="#EF293D"/>
<path d="M172.391 75.2186C172.387 75.5933 172.272 75.9582 172.061 76.2674C171.849 76.5765 171.551 76.8159 171.204 76.9554C170.857 77.0949 170.477 77.1281 170.111 77.0509C169.745 76.9737 169.41 76.7896 169.148 76.5217C168.887 76.2539 168.711 75.9143 168.642 75.5461C168.573 75.1779 168.615 74.7975 168.762 74.453C168.909 74.1085 169.154 73.8154 169.467 73.6108C169.781 73.4061 170.147 73.2991 170.521 73.3033C171.023 73.3095 171.501 73.5147 171.852 73.8737C172.202 74.2328 172.396 74.7165 172.391 75.2186Z" fill="#3F3D56"/>
<path d="M177.793 75.2797C177.789 75.6543 177.674 76.0192 177.463 76.3284C177.252 76.6375 176.954 76.877 176.607 77.0165C176.259 77.1559 175.879 77.1892 175.513 77.112C175.147 77.0348 174.812 76.8506 174.551 76.5827C174.289 76.3149 174.113 75.9754 174.044 75.6071C173.975 75.2389 174.017 74.8585 174.164 74.514C174.311 74.1695 174.557 73.8764 174.87 73.6718C175.183 73.4672 175.55 73.3602 175.924 73.3644C176.425 73.3706 176.903 73.5757 177.254 73.9348C177.604 74.2938 177.798 74.7775 177.793 75.2797Z" fill="#E6E6E6"/>
<path d="M192.001 85.645H148.158V119.199H192.001V85.645Z" fill="#F2F2F2"/>
<path d="M189.824 87.3125H150.338V117.532H189.824V87.3125Z" fill="white"/>
<path d="M157.036 97.2442C157.941 97.2442 158.675 96.5089 158.675 95.6018C158.675 94.6948 157.941 93.9595 157.036 93.9595C156.13 93.9595 155.396 94.6948 155.396 95.6018C155.396 96.5089 156.13 97.2442 157.036 97.2442Z" fill="#3F3D56"/>
<path d="M183.379 94.3241C183.525 94.3238 183.67 94.3524 183.805 94.4083C183.94 94.4642 184.063 94.5462 184.167 94.6496C184.27 94.7531 184.352 94.876 184.408 95.0112C184.464 95.1465 184.493 95.2914 184.493 95.4379C184.493 95.5843 184.464 95.7293 184.408 95.8645C184.352 95.9998 184.27 96.1227 184.167 96.2261C184.063 96.3296 183.94 96.4116 183.805 96.4674C183.67 96.5233 183.525 96.5519 183.379 96.5517H166.136C165.841 96.5517 165.559 96.4343 165.35 96.2255C165.142 96.0166 165.024 95.7333 165.024 95.4379C165.024 95.1425 165.142 94.8592 165.35 94.6503C165.559 94.4414 165.841 94.3241 166.136 94.3241H183.379ZM183.379 94.0513H166.136C165.954 94.051 165.774 94.0867 165.606 94.1562C165.438 94.2258 165.285 94.3279 165.156 94.4567C165.027 94.5855 164.925 94.7384 164.856 94.9068C164.786 95.0751 164.75 95.2556 164.75 95.4379C164.75 95.6201 164.786 95.8006 164.856 95.969C164.925 96.1373 165.027 96.2903 165.156 96.4191C165.285 96.5479 165.438 96.65 165.606 96.7195C165.774 96.7891 165.954 96.8247 166.136 96.8245H183.379C183.561 96.8247 183.741 96.7891 183.91 96.7195C184.078 96.65 184.231 96.5479 184.359 96.4191C184.488 96.2903 184.59 96.1373 184.66 95.969C184.73 95.8006 184.765 95.6201 184.765 95.4379C184.765 95.2556 184.73 95.0751 184.66 94.9068C184.59 94.7384 184.488 94.5855 184.359 94.4567C184.231 94.3279 184.078 94.2258 183.91 94.1562C183.741 94.0867 183.561 94.051 183.379 94.0513Z" fill="#3F3D56"/>
<path d="M176.575 96.8245H163.595C163.228 96.8245 162.876 96.6784 162.616 96.4183C162.357 96.1583 162.211 95.8056 162.211 95.4379C162.211 95.0701 162.357 94.7174 162.616 94.4574C162.876 94.1974 163.228 94.0513 163.595 94.0513H176.575C176.943 94.0513 177.295 94.1974 177.554 94.4574C177.814 94.7174 177.96 95.0701 177.96 95.4379C177.96 95.8056 177.814 96.1583 177.554 96.4183C177.295 96.6784 176.943 96.8245 176.575 96.8245Z" fill="#EF293D"/>
<path d="M157.036 104.064C157.941 104.064 158.675 103.329 158.675 102.422C158.675 101.515 157.941 100.779 157.036 100.779C156.13 100.779 155.396 101.515 155.396 102.422C155.396 103.329 156.13 104.064 157.036 104.064Z" fill="#3F3D56"/>
<path d="M183.379 101.144C183.525 101.144 183.67 101.172 183.805 101.228C183.94 101.284 184.063 101.366 184.166 101.469C184.27 101.573 184.352 101.696 184.408 101.831C184.464 101.966 184.493 102.111 184.493 102.258C184.493 102.404 184.464 102.549 184.408 102.684C184.352 102.82 184.27 102.942 184.166 103.046C184.063 103.149 183.94 103.231 183.805 103.287C183.67 103.343 183.525 103.372 183.379 103.372H166.136C165.841 103.372 165.558 103.254 165.35 103.045C165.141 102.836 165.024 102.553 165.024 102.258C165.024 101.962 165.141 101.679 165.35 101.47C165.558 101.261 165.841 101.144 166.136 101.144H183.379ZM183.379 100.871H166.136C165.769 100.871 165.417 101.017 165.157 101.277C164.898 101.537 164.752 101.89 164.752 102.258C164.752 102.625 164.898 102.978 165.157 103.238C165.417 103.498 165.769 103.644 166.136 103.644H183.379C183.746 103.644 184.098 103.498 184.358 103.238C184.617 102.978 184.763 102.625 184.763 102.258C184.763 101.89 184.617 101.537 184.358 101.277C184.098 101.017 183.746 100.871 183.379 100.871Z" fill="#3F3D56"/>
<path d="M181.477 103.644H163.595C163.228 103.644 162.876 103.498 162.616 103.238C162.357 102.978 162.211 102.625 162.211 102.258C162.211 101.89 162.357 101.537 162.616 101.277C162.876 101.017 163.228 100.871 163.595 100.871H181.477C181.844 100.871 182.196 101.017 182.456 101.277C182.715 101.537 182.861 101.89 182.861 102.258C182.861 102.625 182.715 102.978 182.456 103.238C182.196 103.498 181.844 103.644 181.477 103.644Z" fill="#EF293D"/>
<path d="M157.036 110.884C157.941 110.884 158.675 110.149 158.675 109.241C158.675 108.334 157.941 107.599 157.036 107.599C156.13 107.599 155.396 108.334 155.396 109.241C155.396 110.149 156.13 110.884 157.036 110.884Z" fill="#3F3D56"/>
<path d="M183.379 107.964C183.525 107.963 183.67 107.992 183.805 108.048C183.94 108.104 184.063 108.186 184.166 108.289C184.27 108.393 184.352 108.516 184.408 108.651C184.464 108.786 184.493 108.931 184.493 109.078C184.493 109.224 184.464 109.369 184.408 109.504C184.352 109.639 184.27 109.762 184.166 109.866C184.063 109.969 183.94 110.051 183.805 110.107C183.67 110.163 183.525 110.192 183.379 110.191H166.136C165.841 110.191 165.558 110.074 165.35 109.865C165.141 109.656 165.024 109.373 165.024 109.078C165.024 108.782 165.141 108.499 165.35 108.29C165.558 108.081 165.841 107.964 166.136 107.964H183.379ZM183.379 107.691H166.136C165.769 107.691 165.417 107.837 165.157 108.097C164.898 108.357 164.752 108.71 164.752 109.078C164.752 109.445 164.898 109.798 165.157 110.058C165.417 110.318 165.769 110.464 166.136 110.464H183.379C183.746 110.464 184.098 110.318 184.358 110.058C184.617 109.798 184.763 109.445 184.763 109.078C184.763 108.71 184.617 108.357 184.358 108.097C184.098 107.837 183.746 107.691 183.379 107.691Z" fill="#3F3D56"/>
<path d="M170.857 110.464H163.595C163.413 110.464 163.233 110.429 163.065 110.359C162.897 110.29 162.744 110.188 162.615 110.059C162.486 109.93 162.384 109.777 162.315 109.609C162.245 109.44 162.209 109.26 162.209 109.078C162.209 108.895 162.245 108.715 162.315 108.546C162.384 108.378 162.486 108.225 162.615 108.096C162.744 107.968 162.897 107.865 163.065 107.796C163.233 107.726 163.413 107.691 163.595 107.691H170.857C171.224 107.691 171.575 107.838 171.834 108.098C172.093 108.358 172.239 108.71 172.239 109.078C172.239 109.445 172.093 109.797 171.834 110.057C171.575 110.317 171.224 110.464 170.857 110.464Z" fill="#EF293D"/>
<path d="M138.467 52.7471H15.9785V115.633H138.467V52.7471Z" fill="#F2F2F2"/>
<path d="M134.384 55.8721H20.0605V112.508H134.384V55.8721Z" fill="white"/>
<path d="M120.206 103.868H36.8663C36.7971 103.868 36.7308 103.84 36.6819 103.791C36.633 103.742 36.6055 103.676 36.6055 103.607V63.5918C36.6055 63.5225 36.6329 63.4561 36.6819 63.4071C36.7308 63.3581 36.7971 63.3306 36.8663 63.3306C36.9355 63.3306 37.0018 63.3581 37.0507 63.4071C37.0996 63.4561 37.1271 63.5225 37.1271 63.5918V103.345H120.206C120.275 103.345 120.341 103.373 120.39 103.422C120.439 103.471 120.466 103.537 120.466 103.607C120.466 103.676 120.439 103.742 120.39 103.791C120.341 103.84 120.275 103.868 120.206 103.868Z" fill="#3F3D56"/>
<path d="M54.6707 100.994H47.0906C46.8854 100.993 46.6886 100.912 46.5434 100.766C46.3983 100.621 46.3167 100.424 46.3164 100.218V89.7506C46.3167 89.545 46.3983 89.3479 46.5434 89.2025C46.6886 89.0571 46.8854 88.9753 47.0906 88.9751H54.6707C54.8759 88.9753 55.0727 89.0571 55.2178 89.2025C55.363 89.3479 55.4446 89.545 55.4449 89.7506V100.218C55.4446 100.424 55.363 100.621 55.2178 100.766C55.0727 100.912 54.8759 100.993 54.6707 100.994Z" fill="#EF293D"/>
<path d="M68.4949 100.994H60.9149C60.7096 100.994 60.5128 100.912 60.3677 100.766C60.2225 100.621 60.1409 100.424 60.1406 100.218V79.8224C60.1409 79.6168 60.2225 79.4197 60.3677 79.2743C60.5128 79.1289 60.7096 79.0471 60.9149 79.0469H68.4949C68.7001 79.0471 68.8969 79.1289 69.0421 79.2743C69.1872 79.4197 69.2689 79.6168 69.2691 79.8224V100.218C69.2689 100.424 69.1872 100.621 69.0421 100.766C68.8969 100.912 68.7001 100.994 68.4949 100.994Z" fill="#EF293D"/>
<path d="M82.3171 100.994H74.7371C74.5319 100.993 74.3351 100.912 74.1899 100.766C74.0448 100.621 73.9631 100.424 73.9629 100.218V89.7506C73.9631 89.545 74.0448 89.3479 74.1899 89.2025C74.3351 89.0571 74.5319 88.9753 74.7371 88.9751H82.3171C82.5224 88.9753 82.7192 89.0571 82.8643 89.2025C83.0095 89.3479 83.0911 89.545 83.0914 89.7506V100.218C83.0911 100.424 83.0095 100.621 82.8643 100.766C82.7192 100.912 82.5224 100.993 82.3171 100.994Z" fill="#EF293D"/>
<path d="M96.1414 100.994H88.5613C88.3608 100.998 88.1666 100.922 88.0215 100.784C87.8764 100.645 87.7921 100.454 87.7871 100.253V75.868C87.7921 75.6671 87.8764 75.4763 88.0215 75.3376C88.1666 75.1988 88.3608 75.1233 88.5613 75.1276H96.1414C96.3419 75.1233 96.5361 75.1988 96.6812 75.3376C96.8263 75.4763 96.9106 75.6671 96.9156 75.868V100.253C96.9106 100.454 96.8263 100.645 96.6812 100.784C96.5361 100.922 96.342 100.998 96.1414 100.994Z" fill="#EF293D"/>
<path d="M109.966 100.994H102.386C102.18 100.993 101.984 100.912 101.838 100.766C101.693 100.621 101.612 100.424 101.611 100.218V68.8488C101.612 68.6432 101.693 68.446 101.838 68.3006C101.984 68.1552 102.18 68.0735 102.386 68.0732H109.966C110.171 68.0735 110.368 68.1552 110.513 68.3006C110.658 68.446 110.74 68.6432 110.74 68.8488V100.218C110.74 100.424 110.658 100.621 110.513 100.766C110.368 100.912 110.171 100.993 109.966 100.994Z" fill="#EF293D"/>
<path d="M50.8813 85.8399C51.7456 85.8399 52.4462 85.138 52.4462 84.2722C52.4462 83.4064 51.7456 82.7046 50.8813 82.7046C50.017 82.7046 49.3164 83.4064 49.3164 84.2722C49.3164 85.138 50.017 85.8399 50.8813 85.8399Z" fill="#3F3D56"/>
<path d="M64.7055 75.6504C65.5698 75.6504 66.2704 74.9486 66.2704 74.0828C66.2704 73.217 65.5698 72.5151 64.7055 72.5151C63.8413 72.5151 63.1406 73.217 63.1406 74.0828C63.1406 74.9486 63.8413 75.6504 64.7055 75.6504Z" fill="#3F3D56"/>
<path d="M78.5278 85.8399C79.392 85.8399 80.0927 85.138 80.0927 84.2722C80.0927 83.4064 79.392 82.7046 78.5278 82.7046C77.6635 82.7046 76.9629 83.4064 76.9629 84.2722C76.9629 85.138 77.6635 85.8399 78.5278 85.8399Z" fill="#3F3D56"/>
<path d="M92.352 70.6861C93.2163 70.6861 93.9169 69.9842 93.9169 69.1184C93.9169 68.2526 93.2163 67.5508 92.352 67.5508C91.4877 67.5508 90.7871 68.2526 90.7871 69.1184C90.7871 69.9842 91.4877 70.6861 92.352 70.6861Z" fill="#3F3D56"/>
<path d="M106.174 64.9385C107.039 64.9385 107.739 64.2366 107.739 63.3709C107.739 62.5051 107.039 61.8032 106.174 61.8032C105.31 61.8032 104.609 62.5051 104.609 63.3709C104.609 64.2366 105.31 64.9385 106.174 64.9385Z" fill="#3F3D56"/>
<path d="M78.562 84.6234L64.7061 74.2269L51.0392 84.4814L50.7266 84.0634L64.7061 73.5738L78.4961 83.921L92.1999 68.8985L92.2546 68.8761L106.078 63.2969L106.273 63.7815L92.5047 69.3386L78.562 84.6234Z" fill="#3F3D56"/>
<path d="M285.198 213.265H169.994C169.914 213.265 169.837 213.233 169.78 213.176C169.723 213.119 169.691 213.042 169.691 212.962C169.691 212.882 169.723 212.805 169.78 212.748C169.837 212.691 169.914 212.659 169.994 212.659H285.198C285.278 212.659 285.355 212.691 285.411 212.748C285.468 212.805 285.5 212.882 285.5 212.962C285.5 213.042 285.468 213.119 285.411 213.176C285.355 213.233 285.278 213.265 285.198 213.265Z" fill="#CCCCCC"/>
</g>
<defs>
<clipPath id="clip0_2194_41983">
<rect width="285" height="242" fill="white"/>
</clipPath>
</defs>
</svg>
