<?xml version="1.0" encoding="utf-8"?>
<!-- Generator: Adobe Illustrator 26.0.2, SVG Export Plug-In . SVG Version: 6.00 Build 0)  -->
<svg version="1.1" id="Capa_1" xmlns="http://www.w3.org/2000/svg" xmlns:xlink="http://www.w3.org/1999/xlink" x="0px" y="0px"
	 viewBox="0 0 409 456.1" style="enable-background:new 0 0 409 456.1;" xml:space="preserve">
<style type="text/css">
	.st0{fill:#FFFFFF;}
	.st1{fill:#E5E5E4;}
	.st2{fill:#403E56;}
	.st3{fill:#F6B6B9;}
	.st4{fill:#302F42;}
	.st5{fill:#A1626A;}
	.st6{fill:#E72F40;}
	.st7{fill:#E41F1C;}
	.st8{fill:#CBCACA;}
	.st9{fill:#F6B5B7;}
	.st10{fill:#282929;}
	.st11{opacity:0.3;fill:#020203;enable-background:new    ;}
	.st12{opacity:0.2;}
	.st13{fill:#020203;}
</style>
<path class="st0" d="M354.62,352.5H9.7V7.58h344.92V352.5z"/>
<path class="st1" d="M354.62,352.5H9.7V7.58h344.92V352.5z M14.79,347.4h334.73V12.67H14.79V347.4z"/>
<rect x="144.15" y="61.54" class="st1" width="149.37" height="4.65"/>
<rect x="144.15" y="73.64" class="st1" width="149.37" height="4.65"/>
<rect x="144.15" y="85.74" class="st1" width="149.37" height="4.65"/>
<rect x="144.15" y="165.42" class="st1" width="149.37" height="4.65"/>
<rect x="144.15" y="177.52" class="st1" width="149.37" height="4.65"/>
<rect x="144.15" y="189.61" class="st1" width="149.37" height="4.65"/>
<rect x="144.15" y="269.3" class="st1" width="149.37" height="4.65"/>
<rect x="144.15" y="281.39" class="st1" width="149.37" height="4.65"/>
<rect x="144.15" y="293.49" class="st1" width="149.37" height="4.65"/>
<path class="st2" d="M84.36,98.61c-2.55-1.34-5.22-2.47-7.96-3.35l-0.35-3.87l-14.2-1.53l-1.8,4.95l-5.09,1.91
	c-0.18,0.07-0.36,0.16-0.52,0.27h-0.01c-0.57,0.39-0.96,1-1.08,1.68c-0.05,0.34-0.04,0.68,0.04,1.01l0.27,1.1
	c0.39,0.23,0.79,0.45,1.18,0.66l0.25,0.13c0.58,0.3,1.17,0.59,1.78,0.85c0.12,0.05,0.26,0.11,0.38,0.16
	c0.01,0.01,0.02,0.01,0.03,0.01c0.29,0.12,0.57,0.23,0.86,0.34c0.96,0.36,1.93,0.68,2.92,0.94c2.52,0.67,5.13,1.01,7.74,1.01
	c0.95,0,1.9-0.04,2.83-0.13c2.13-0.2,4.23-0.62,6.27-1.27c0.01,0,0.01-0.01,0.02-0.01c1.29-0.41,2.55-0.91,3.76-1.49
	c0.01-0.01,0.02-0.01,0.02-0.01c0.27-0.13,0.54-0.27,0.81-0.4l0.13-0.06c0.22-0.11,0.43-0.23,0.65-0.34
	c0.54-0.3,1.07-0.61,1.59-0.94c0.15-0.09,0.29-0.18,0.43-0.27c0.2-0.13,0.41-0.27,0.61-0.42C85.42,99.21,84.89,98.9,84.36,98.61z"/>
<path class="st2" d="M57.71,101l-0.89-4.01H54.5c-0.02,0-0.05,0-0.07,0.01h-0.01c-0.83,0.07-1.64,0.35-2.34,0.81
	c-0.47,0.3-0.9,0.68-1.25,1.12c0.69,0.52,1.41,1.01,2.14,1.47l0.03,0.02c0.21,0.13,0.43,0.26,0.64,0.38
	c0.39,0.23,0.79,0.45,1.18,0.66l0.25,0.13c0.58,0.3,1.17,0.59,1.78,0.85c0.12,0.05,0.26,0.11,0.38,0.16
	c0.01,0.01,0.02,0.01,0.03,0.01c0.29,0.12,0.57,0.23,0.86,0.34L57.71,101z"/>
<circle class="st3" cx="68.39" cy="77.19" r="10.22"/>
<path class="st4" d="M61.52,72.21c1.06,1.25,2.85,1.61,4.5,1.75c3.86,0.21,7.74-0.1,11.51-0.94c0.23,2.27-0.4,4.71,0.93,6.58
	c0.63-2.26,0.99-4.58,1.09-6.93c0.1-1.01-0.03-2.02-0.38-2.97c-0.38-0.97-1.29-1.63-2.32-1.71c0.76-0.58,1.65-0.96,2.6-1.11
	l-3.25-1.63l0.83-0.86l-5.88-0.36l1.7-1.08c-2.56-0.35-5.15-0.43-7.73-0.24c-1.21,0-2.39,0.33-3.42,0.95
	c-0.97,0.69-1.53,2.07-0.93,3.09c-1.53,0.25-2.83,1.28-3.42,2.71c-0.37,1.12-0.46,2.32-0.26,3.48c0.22,1.87,0.66,3.71,1.29,5.48
	L61.52,72.21z"/>
<path class="st2" d="M97.14,66.1c-5.45-15.65-22.55-23.92-38.2-18.47s-23.92,22.55-18.47,38.2c1.1,3.17,2.74,6.14,4.82,8.77
	c0.27,0.34,0.55,0.68,0.83,1.01c0.02,0.02,0.04,0.04,0.06,0.06c0.7,0.81,1.45,1.58,2.24,2.31c0.2,0.19,0.42,0.38,0.64,0.57
	c0.41,0.37,0.83,0.72,1.27,1.05c0.17,0.13,0.34,0.27,0.52,0.4c0.69,0.52,1.41,1.01,2.14,1.47l0.03,0.02
	c0.21,0.13,0.43,0.26,0.64,0.38c0.39,0.23,0.79,0.45,1.18,0.66l0.25,0.13c0.58,0.3,1.17,0.59,1.78,0.85
	c0.12,0.05,0.26,0.11,0.38,0.16c0.01,0.01,0.02,0.01,0.03,0.01c0.29,0.12,0.57,0.23,0.86,0.34c0.96,0.36,1.93,0.68,2.92,0.94
	c2.52,0.67,5.13,1.01,7.74,1.01c0.95,0,1.9-0.04,2.83-0.13c2.13-0.2,4.23-0.62,6.27-1.27c0.01,0,0.01-0.01,0.02-0.01
	c1.29-0.41,2.55-0.91,3.76-1.49c0.01-0.01,0.02-0.01,0.02-0.01c0.27-0.13,0.54-0.27,0.81-0.4l0.13-0.06
	c0.22-0.11,0.43-0.23,0.65-0.34c0.54-0.3,1.07-0.61,1.59-0.94c0.15-0.09,0.29-0.18,0.43-0.27c0.2-0.13,0.41-0.27,0.61-0.42
	c0.26-0.18,0.53-0.37,0.79-0.57c0.08-0.06,0.17-0.12,0.25-0.18C97.3,92.01,101.42,78.38,97.14,66.1L97.14,66.1z M85.96,98.55
	c-0.18,0.14-0.36,0.27-0.54,0.4c-0.18,0.13-0.36,0.26-0.54,0.38c-0.16,0.11-0.31,0.22-0.47,0.32l-0.05,0.03
	c-0.12,0.08-0.24,0.16-0.36,0.23c-0.45,0.28-0.9,0.55-1.36,0.81l-0.15,0.08c-0.2,0.11-0.41,0.22-0.61,0.33
	c-0.03,0.02-0.06,0.03-0.09,0.04l-0.03,0.02c-0.26,0.13-0.52,0.26-0.79,0.39c-1.02,0.49-2.07,0.92-3.14,1.27
	c-0.14,0.05-0.28,0.1-0.42,0.14c-1.93,0.61-3.92,1.02-5.94,1.21c-0.88,0.08-1.78,0.12-2.68,0.12c-2.47,0.01-4.93-0.32-7.32-0.96
	c-1.22-0.32-2.43-0.73-3.59-1.22c-0.06-0.03-0.12-0.05-0.18-0.08c-0.06-0.03-0.12-0.05-0.18-0.08c-0.06-0.03-0.12-0.05-0.19-0.09
	c-0.51-0.22-1.01-0.46-1.5-0.72l-0.24-0.12c-0.6-0.31-1.18-0.65-1.76-1c-0.17-0.1-0.34-0.21-0.5-0.32
	c-0.04-0.03-0.08-0.05-0.12-0.08c-0.38-0.25-0.76-0.52-1.14-0.79c-0.25-0.19-0.51-0.38-0.75-0.57c-0.41-0.31-0.81-0.65-1.2-0.99
	c-0.2-0.17-0.4-0.36-0.6-0.54c-0.76-0.71-1.49-1.45-2.17-2.24c-0.23-0.26-0.45-0.52-0.66-0.79c-0.05-0.05-0.09-0.11-0.13-0.17
	c-9.73-12.28-7.66-30.11,4.61-39.84s30.11-7.66,39.84,4.61c9.73,12.28,7.66,30.11-4.61,39.84C86.27,98.32,86.12,98.44,85.96,98.55
	L85.96,98.55z"/>
<path class="st0" d="M97.14,169.98c-5.45-15.65-22.55-23.92-38.2-18.47c-15.65,5.45-23.92,22.55-18.47,38.2
	c1.1,3.17,2.74,6.14,4.82,8.77c0.27,0.34,0.55,0.68,0.83,1.01c0.02,0.02,0.04,0.04,0.06,0.06c0.7,0.81,1.45,1.58,2.24,2.31
	c0.2,0.19,0.42,0.38,0.64,0.57c0.41,0.37,0.83,0.72,1.27,1.05c0.85,0.67,1.74,1.3,2.66,1.87l0.03,0.02c0.6,0.37,1.21,0.72,1.83,1.04
	l0.25,0.13c0.58,0.3,1.17,0.59,1.78,0.85c0.12,0.05,0.26,0.11,0.38,0.16c0.01,0.01,0.02,0.01,0.03,0.01
	c1.23,0.51,2.49,0.94,3.78,1.28c2.52,0.67,5.13,1.01,7.74,1.01c0.95,0,1.9-0.04,2.83-0.13c2.13-0.2,4.23-0.62,6.27-1.27
	c0.01,0,0.01-0.01,0.02-0.01c1.29-0.41,2.55-0.91,3.76-1.49c0.01-0.01,0.02-0.01,0.02-0.01c0.27-0.13,0.54-0.27,0.81-0.4l0.13-0.06
	c0.22-0.11,0.43-0.23,0.65-0.34c0.54-0.3,1.07-0.61,1.59-0.94c0.15-0.09,0.29-0.18,0.43-0.27c0.47-0.31,0.94-0.65,1.39-0.99
	c0.08-0.06,0.17-0.12,0.25-0.18C97.3,195.88,101.42,182.25,97.14,169.98L97.14,169.98z"/>
<circle id="f2095780-2301-4cc1-9693-3d089d317ca1" class="st4" cx="78.71" cy="187.71" r="4.5"/>
<path id="fe36a822-bf42-420c-ba8a-fcca90365ca6-1196" class="st4" d="M79.96,183.34c2.48,0,4.5,2.01,4.5,4.5
	c0,0.74-0.19,1.48-0.54,2.13c1.55-1.94,1.23-4.77-0.71-6.32c-1.94-1.55-4.77-1.23-6.32,0.71c-0.17,0.21-0.32,0.44-0.44,0.67
	C77.3,183.96,78.59,183.34,79.96,183.34L79.96,183.34z"/>
<circle id="e26e4994-e49f-47aa-919e-dc7dee2cb7c3" class="st4" cx="70.3" cy="174.5" r="13.21"/>
<path id="ac420ffb-80fa-461b-bc18-228b12874f63-1197" class="st4" d="M59.94,166.3c4.73-5.32,12.83-5.93,18.31-1.39
	c-0.11-0.1-0.22-0.21-0.33-0.31c-5.43-4.87-13.78-4.41-18.65,1.02c-4.87,5.43-4.41,13.78,1.02,18.65c0.03,0.02,0.05,0.04,0.08,0.07
	c0.11,0.1,0.23,0.19,0.34,0.29C55.55,179.73,55.21,171.62,59.94,166.3L59.94,166.3z"/>
<circle id="a12696bc-31d6-40e2-aafc-0c11595f0891" class="st5" cx="70.19" cy="179.09" r="8.51"/>
<path class="st6" d="M85.42,201.25v2.85c-0.52,0.33-1.05,0.65-1.59,0.94c-0.22,0.12-0.43,0.23-0.65,0.34l-0.13,0.06
	c-0.27,0.13-0.53,0.27-0.81,0.4c-0.01,0.01-0.02,0.01-0.02,0.01c-1.22,0.58-2.48,1.08-3.76,1.49c-0.01,0-0.01,0.01-0.02,0.01
	c-2.04,0.64-4.14,1.07-6.27,1.27c-0.93,0.09-1.87,0.13-2.83,0.13c-2.61,0-5.21-0.34-7.74-1.01c-1.29-0.34-2.55-0.77-3.78-1.28
	c-0.01-0.01-0.02-0.01-0.03-0.01c-0.12-0.05-0.26-0.11-0.38-0.16c-0.61-0.26-1.2-0.55-1.78-0.85l-0.25-0.13
	c-0.62-0.33-1.23-0.67-1.83-1.04l-0.03-0.02c-0.92-0.57-1.81-1.2-2.66-1.87c-0.44-0.33-0.86-0.68-1.27-1.05
	c-0.22-0.18-0.43-0.38-0.64-0.57c-0.79-0.73-1.53-1.5-2.24-2.31c0.09-0.56,0.23-1.11,0.41-1.65l0.01-0.01
	c0.03-0.09,0.07-0.18,0.11-0.27c0.03-0.08,0.06-0.15,0.1-0.23c0.96-1.8,2.71-2.25,4.87-2.35c1.22-0.05,2.57,0.01,4-0.01
	c0.75-0.01,1.53-0.03,2.32-0.1c4.93-0.45,4.03-3.36,4.25-4.92c0.22-1.52,1.59-0.2,1.68-0.12l0.01,0.01
	c2.79,1.31,5.87,1.85,8.94,1.57c0.53-0.06,1.06-0.1,1.58-0.12c1.39-0.02,1.09,0.38,0.61,0.71c-0.23,0.15-0.48,0.29-0.73,0.41
	c0,0-0.22,1.35-0.45,3.36c-0.22,1.93,3.48,2.83,3.79,2.9c0.01,0,0.01,0.01,0.02,0.01c1.35-0.35,2.77-0.31,4.1,0.11h0.01
	C83.9,198.34,85.05,199.65,85.42,201.25z"/>
<path class="st4" d="M57.88,204.71c0,0.4-0.01,0.78-0.03,1.14c-0.01,0.22-0.02,0.43-0.03,0.62c-0.01-0.01-0.02-0.01-0.03-0.01
	c-0.12-0.05-0.26-0.11-0.38-0.16c-0.61-0.26-1.2-0.55-1.78-0.85l-0.25-0.13c-0.62-0.33-1.23-0.67-1.83-1.04
	c0.02-0.19,0.04-0.38,0.07-0.57c0.06-0.41,0.11-0.83,0.14-1.25c0.21-2.91-0.32-5.83-1.54-8.49v-0.01c-0.11-0.22-0.17-0.33-0.17-0.33
	s1.57-1.35,3.8,0c0.14,0.08,0.27,0.19,0.37,0.32C57.58,195.55,57.94,200.9,57.88,204.71z"/>
<path class="st4" d="M82.34,203.98c-0.02,0.6-0.05,1.23-0.09,1.87v0.01c-0.01,0.01-0.02,0.01-0.02,0.01
	c-1.22,0.58-2.48,1.08-3.76,1.49c-0.01,0-0.01,0.01-0.02,0.01l-0.06-1.51l-0.01-0.2l-0.29-7.37c-0.03-0.68,0.5-1.26,1.18-1.29
	c0.02,0,0.04,0,0.05,0h2.73c0.13,0,0.23,0.27,0.3,0.77v0.01C82.48,199.84,82.48,201.91,82.34,203.98z"/>
<path id="e6a5f050-bb79-4898-9f1b-a16710d0980e-1198" class="st4" d="M62.92,168.45v8.51h1.97l2.51-2.69l-0.34,2.69h8.71l-0.54-2.69
	l1.08,2.69h1.39v-8.51H62.92z"/>
<ellipse id="bcc9b546-fa99-40e5-8b80-3cc98cb6450e" class="st5" cx="61.57" cy="177.29" rx="0.67" ry="1.23"/>
<ellipse id="aac24dc1-8688-403d-884a-09279027a7ab" class="st5" cx="78.81" cy="177.29" rx="0.67" ry="1.23"/>
<path class="st7" d="M87.24,202.85c-0.45,0.34-0.92,0.67-1.39,0.99c-0.15,0.1-0.29,0.19-0.43,0.27c-0.52,0.33-1.05,0.65-1.59,0.94
	c-0.22,0.12-0.43,0.23-0.65,0.34v-5.94c0,0,0.86,0.69,2.24,1.84c0.17,0.15,0.35,0.3,0.54,0.46
	C86.35,202.09,86.78,202.45,87.24,202.85z"/>
<path class="st2" d="M97.14,169.98c-5.45-15.65-22.55-23.92-38.2-18.47c-15.65,5.45-23.92,22.55-18.47,38.2
	c1.1,3.17,2.74,6.14,4.82,8.77c0.27,0.34,0.55,0.68,0.83,1.01c0.02,0.02,0.04,0.04,0.06,0.06c0.7,0.81,1.45,1.58,2.24,2.31
	c0.2,0.19,0.42,0.38,0.64,0.57c0.41,0.37,0.83,0.72,1.27,1.05c0.85,0.67,1.74,1.3,2.66,1.87l0.03,0.02c0.6,0.37,1.21,0.72,1.83,1.04
	l0.25,0.13c0.58,0.3,1.17,0.59,1.78,0.85c0.12,0.05,0.26,0.11,0.38,0.16c0.01,0.01,0.02,0.01,0.03,0.01
	c1.23,0.51,2.49,0.94,3.78,1.28c2.52,0.67,5.13,1.01,7.74,1.01c0.95,0,1.9-0.04,2.83-0.13c2.13-0.2,4.23-0.62,6.27-1.27
	c0.01,0,0.01-0.01,0.02-0.01c1.29-0.41,2.55-0.91,3.76-1.49c0.01-0.01,0.02-0.01,0.02-0.01c0.27-0.13,0.54-0.27,0.81-0.4l0.13-0.06
	c0.22-0.11,0.43-0.23,0.65-0.34c0.54-0.3,1.07-0.61,1.59-0.94c0.15-0.09,0.29-0.18,0.43-0.27c0.47-0.31,0.94-0.65,1.39-0.99
	c0.08-0.06,0.17-0.12,0.25-0.18C97.3,195.88,101.42,182.25,97.14,169.98L97.14,169.98z M85.96,202.43c-0.18,0.14-0.36,0.27-0.54,0.4
	c-0.18,0.13-0.36,0.26-0.54,0.38c-0.16,0.11-0.31,0.22-0.47,0.32c-0.13,0.09-0.27,0.18-0.4,0.26c-0.45,0.28-0.9,0.55-1.36,0.81
	l-0.15,0.08c-0.2,0.11-0.41,0.22-0.61,0.33c-0.03,0.02-0.06,0.03-0.09,0.04l-0.03,0.02c-0.26,0.13-0.52,0.26-0.79,0.39
	c-1.02,0.49-2.07,0.92-3.14,1.27c-0.14,0.05-0.28,0.1-0.42,0.14c-1.93,0.61-3.92,1.02-5.94,1.21c-0.88,0.08-1.78,0.12-2.68,0.12
	c-2.47,0.01-4.93-0.32-7.32-0.96c-1.22-0.32-2.43-0.73-3.59-1.22c-0.12-0.05-0.25-0.1-0.37-0.15c-0.06-0.03-0.12-0.05-0.19-0.09
	c-0.51-0.22-1.01-0.46-1.5-0.72l-0.24-0.12c-0.6-0.31-1.18-0.65-1.76-1c-0.21-0.13-0.42-0.26-0.62-0.4
	c-0.65-0.43-1.28-0.88-1.89-1.36c-0.41-0.31-0.81-0.65-1.2-0.99c-0.2-0.17-0.4-0.36-0.6-0.54c-0.76-0.71-1.49-1.45-2.17-2.24
	c-0.23-0.26-0.45-0.52-0.66-0.79c-0.05-0.05-0.09-0.11-0.13-0.17c-9.73-12.28-7.66-30.11,4.61-39.84
	c12.28-9.73,30.11-7.66,39.84,4.61s7.66,30.11-4.61,39.84C86.27,202.19,86.12,202.31,85.96,202.43L85.96,202.43z"/>
<circle class="st4" cx="68.98" cy="285.45" r="11.76"/>
<ellipse transform="matrix(0.7071 -0.7071 0.7071 0.7071 -178.7786 121.4557)" class="st4" cx="57.22" cy="276.53" rx="4.86" ry="3.65"/>
<ellipse transform="matrix(0.3928 -0.9196 0.9196 0.3928 -204.8814 236.6281)" class="st4" cx="76.76" cy="273.47" rx="3.65" ry="4.86"/>
<path class="st8" d="M83.04,308.25l-1.39-2.18c-1.23-2.74-4.44-3.97-7.18-2.74c-2.73,1.22-3.96,4.41-2.76,7.15l0.39,1.41l0.45,1.6
	c1.81-0.23,3.6-0.62,5.35-1.17c0.01,0,0.01,0,0.01-0.01c1.29-0.41,2.55-0.91,3.77-1.49c0.01-0.01,0.01-0.01,0.02-0.01
	c0.27-0.13,0.54-0.26,0.81-0.4c0.04-0.02,0.09-0.04,0.13-0.07c0.22-0.11,0.43-0.22,0.65-0.34c0.22-0.12,0.43-0.24,0.63-0.37
	L83.04,308.25z"/>
<circle class="st9" cx="69.35" cy="288.26" r="9.98"/>
<path class="st8" d="M83.76,307.83c-1.1-1.83-2.47-3.49-4.05-4.92c-1.09-0.97-2.49-1.51-3.95-1.51H61.7c-3.27,0-5.92,2.65-5.93,5.92
	c0,0.13,0,0.25,0.01,0.38c0.03,0.46,0.11,0.91,0.24,1.34c0.1,0.32,0.22,0.63,0.37,0.92l0.69,1.39c0.05,0.02,0.11,0.05,0.16,0.07
	c0.01,0.01,0.02,0.01,0.03,0.01c0.29,0.12,0.57,0.23,0.86,0.34c0.96,0.37,1.93,0.68,2.92,0.94c1.59,0.43,3.22,0.72,4.86,0.88
	c0.96,0.09,1.91,0.14,2.88,0.14c0.96,0,1.89-0.05,2.83-0.14c0.31-0.03,0.61-0.06,0.92-0.1c1.81-0.23,3.6-0.62,5.35-1.17
	c0.01,0,0.01,0,0.01-0.01c1.29-0.41,2.55-0.91,3.77-1.49c0.01-0.01,0.01-0.01,0.02-0.01c0.27-0.13,0.54-0.26,0.81-0.4
	c0.04-0.02,0.09-0.04,0.13-0.07c0.22-0.11,0.43-0.22,0.65-0.34c0.22-0.12,0.43-0.24,0.63-0.37c0.22-0.12,0.42-0.24,0.63-0.37
	C84.29,308.76,84.03,308.28,83.76,307.83z"/>
<path class="st8" d="M64.24,303.22c-2.71-1.27-5.93-0.11-7.21,2.59l-1.25,1.89l-0.6,0.9l-0.91,1.37c0.19,0.1,0.37,0.2,0.56,0.31
	l0.25,0.13c0.58,0.3,1.17,0.58,1.79,0.85c0.07,0.03,0.14,0.06,0.22,0.1c0.05,0.02,0.11,0.05,0.16,0.07
	c0.01,0.01,0.02,0.01,0.03,0.01c0.29,0.12,0.57,0.23,0.86,0.34c0.96,0.37,1.93,0.68,2.92,0.94c1.59,0.43,3.22,0.72,4.86,0.88
	l0.48-1.61l0.46-1.53C68.13,307.73,66.96,304.5,64.24,303.22z"/>
<path class="st4" d="M58.87,281.98c2.28,1.57,4.99,2.41,7.75,2.4c-0.99,0.68-2.11,1.15-3.3,1.36c3.68,0.79,7.49,0.81,11.18,0.06
	c0.82-0.13,1.61-0.4,2.34-0.8c0.73-0.41,1.26-1.11,1.44-1.93c0.25-1.4-0.85-2.67-1.98-3.53c-3.52-2.62-8.02-3.52-12.28-2.45
	c-1.4,0.28-2.67,1-3.64,2.05c-0.96,1.1-1.08,2.7-0.31,3.93L58.87,281.98z"/>
<path class="st2" d="M97.15,273.86c-5.45-15.65-22.55-23.92-38.2-18.48c-15.65,5.45-23.92,22.55-18.48,38.2
	c1.11,3.18,2.74,6.14,4.83,8.78c0.26,0.34,0.55,0.68,0.84,1c0.02,0.02,0.03,0.05,0.05,0.07c0.7,0.81,1.45,1.58,2.24,2.3
	c0.2,0.19,0.41,0.39,0.63,0.57c0.41,0.37,0.83,0.71,1.27,1.05c0.17,0.14,0.34,0.27,0.52,0.4c0.69,0.52,1.41,1,2.14,1.47
	c0.01,0,0.02,0.01,0.03,0.01c0.21,0.13,0.43,0.26,0.65,0.38c0.2,0.12,0.41,0.24,0.62,0.36c0.19,0.1,0.37,0.2,0.56,0.31l0.25,0.13
	c0.58,0.3,1.17,0.58,1.79,0.85c0.07,0.03,0.14,0.06,0.22,0.1c0.05,0.02,0.11,0.05,0.16,0.07c0.01,0.01,0.02,0.01,0.03,0.01
	c0.29,0.12,0.57,0.23,0.86,0.34c0.96,0.37,1.93,0.68,2.92,0.94c1.59,0.43,3.22,0.72,4.86,0.88c0.96,0.09,1.91,0.14,2.88,0.14
	c0.96,0,1.89-0.05,2.83-0.14c0.31-0.03,0.61-0.06,0.92-0.1c1.81-0.23,3.6-0.62,5.35-1.17c0.01,0,0.01,0,0.01-0.01
	c1.29-0.41,2.55-0.91,3.77-1.49c0.01-0.01,0.01-0.01,0.02-0.01c0.27-0.13,0.54-0.26,0.81-0.4c0.04-0.02,0.09-0.04,0.13-0.07
	c0.22-0.11,0.43-0.22,0.65-0.34c0.22-0.12,0.43-0.24,0.63-0.37c0.22-0.12,0.42-0.24,0.63-0.37c0.11-0.07,0.22-0.14,0.33-0.2
	c0.15-0.09,0.29-0.18,0.43-0.28c0.2-0.13,0.41-0.27,0.6-0.41c0.26-0.18,0.53-0.37,0.79-0.57c0.09-0.06,0.17-0.12,0.25-0.18
	C97.3,299.75,101.41,286.13,97.15,273.86L97.15,273.86z M85.96,306.3c-0.18,0.14-0.36,0.28-0.54,0.4c-0.18,0.14-0.36,0.26-0.54,0.39
	c-0.16,0.11-0.31,0.22-0.48,0.32c-0.01,0.01-0.03,0.02-0.05,0.03c-0.12,0.08-0.24,0.16-0.35,0.23c-0.08,0.05-0.16,0.1-0.24,0.15
	c-0.24,0.15-0.48,0.29-0.72,0.43c-0.13,0.08-0.26,0.16-0.39,0.23c-0.05,0.03-0.1,0.05-0.14,0.08c-0.21,0.12-0.41,0.22-0.62,0.33
	c-0.03,0.02-0.06,0.03-0.08,0.05c-0.01,0-0.02,0.01-0.03,0.01c-0.26,0.14-0.52,0.26-0.79,0.39c-1.02,0.49-2.07,0.91-3.14,1.27
	c-0.14,0.05-0.28,0.1-0.41,0.14c-1.73,0.55-3.51,0.93-5.32,1.14c-0.2,0.03-0.41,0.05-0.62,0.07c-0.88,0.08-1.77,0.12-2.67,0.12
	c-0.8,0-1.61-0.03-2.4-0.1c-1.66-0.14-3.31-0.42-4.92-0.86c-1.23-0.32-2.43-0.73-3.59-1.22c-0.06-0.03-0.12-0.05-0.18-0.07
	c-0.07-0.03-0.12-0.05-0.18-0.07c-0.07-0.03-0.12-0.05-0.19-0.09c-0.44-0.19-0.88-0.4-1.31-0.62c-0.06-0.03-0.12-0.06-0.18-0.1
	l-0.24-0.12c-0.14-0.07-0.29-0.15-0.42-0.22c-0.45-0.24-0.9-0.51-1.34-0.78c-0.16-0.1-0.34-0.21-0.5-0.32l-0.12-0.08
	c-0.38-0.26-0.76-0.52-1.13-0.79c-0.25-0.19-0.51-0.37-0.75-0.57c-0.41-0.31-0.81-0.64-1.2-0.99c-0.2-0.17-0.41-0.36-0.6-0.54
	c-0.76-0.7-1.49-1.45-2.17-2.24c-0.22-0.26-0.45-0.52-0.66-0.79c-0.05-0.05-0.09-0.11-0.14-0.17c-9.73-12.28-7.67-30.12,4.61-39.85
	c12.28-9.73,30.12-7.67,39.85,4.61c9.73,12.28,7.67,30.12-4.61,39.85C86.27,306.07,86.12,306.19,85.96,306.3L85.96,306.3z"/>
<path class="st10" d="M119,127.27c-29.76-25.12-74.25-21.35-99.37,8.42s-21.35,74.25,8.42,99.37c27.84,23.49,68.99,21.91,94.95-3.65
	l86.5,72.99c2.75,2.31,6.85,1.95,9.15-0.8c2.3-2.73,1.95-6.81-0.76-9.12l-0.01-0.01l-86.5-72.99
	C152.21,191.59,146.84,150.76,119,127.27z M113.43,214.45c-18.82,22.3-52.15,25.12-74.45,6.31s-25.12-52.15-6.31-74.45
	s52.15-25.12,74.45-6.31l0,0C129.42,158.82,132.24,192.15,113.43,214.45L113.43,214.45z"/>
<path class="st11" d="M38.98,220.76c-21.01-17.73-24.91-48.62-8.96-71.02c-1.01,1.02-1.99,2.08-2.93,3.2
	c-18.82,22.3-15.99,55.63,6.31,74.45s55.63,15.99,74.45-6.31c0.94-1.11,1.83-2.26,2.66-3.43C91.1,237.13,60,238.49,38.98,220.76z"/>
<path class="st9" d="M293.38,307.12c2.55-3.12,2.1-7.71-1.02-10.26c-0.33-0.27-0.69-0.51-1.06-0.72l-15.77-64.53l-11.5,3.67
	l17.02,64.09c-1.74,3.66-0.18,8.03,3.48,9.77C287.59,310.59,291.25,309.76,293.38,307.12L293.38,307.12z"/>
<polygon class="st6" points="285.23,265.84 276.83,273.1 265.07,283.23 259.87,256.66 259.33,253.9 258.9,251.7 270.82,230.95 
	280.75,231.52 281.43,231.56 281.44,231.71 281.6,233.1 283.64,251.42 283.68,251.86 "/>
<polygon class="st9" points="230.29,446.22 221.97,446.22 218.01,414.11 230.29,414.12 "/>
<path class="st4" d="M232.42,454.29l-26.84,0v-0.34c0-5.77,4.68-10.45,10.45-10.45h0l16.39,0L232.42,454.29z"/>
<polygon class="st9" points="317.2,446.9 308.87,446.9 304.91,414.79 317.2,414.79 "/>
<path class="st4" d="M319.32,454.97l-26.84,0v-0.34c0-5.77,4.68-10.45,10.45-10.45h0l16.39,0L319.32,454.97z"/>
<path class="st10" d="M323.85,434.12l-22.4,3.39l-32.6-110.31l-34.62,110.99l-25.12-3.39l32.59-129v-10.18l4.41-15.28l-0.46-4.13
	l-3.21-28.92l-1.39-12.54l-0.09-0.81c-0.16-1.41,0.78-2.71,2.17-3l0,0l10.46-2.2h17.09l10.08,2.78l0.69,0.19l0.31,0.09l-0.16,1.3
	l-2.36,19.81l-0.13,1.09l-2.28,19.1l-0.5,4.19c19.69,14.26,20.37,28.52,20.37,28.52L323.85,434.12z"/>
<circle class="st9" cx="260.06" cy="203.48" r="16.68"/>
<rect x="244.75" y="275.59" transform="matrix(0.9916 -0.1297 0.1297 0.9916 -33.837 36.2408)" class="st6" width="33.27" height="4.75"/>
<path class="st9" d="M200.34,279.19c0.32,0.2,0.61,0.43,0.89,0.68l32.63-8.32l2.23-7.87l12.32,1.81l-2.59,14.32
	c-0.43,2.38-2.38,4.18-4.78,4.44l-38.1,4.01c-1.69,3.56-5.94,5.07-9.5,3.38c-3.56-1.69-5.07-5.94-3.38-9.5
	c1.69-3.56,5.94-5.07,9.5-3.38C199.83,278.89,200.09,279.03,200.34,279.19z"/>
<path class="st6" d="M250.52,235.19l-5.77-4.41c-1.56-0.59-3.7,1.09-4.07,2.72l-8.15,33.27l16.97,12.22l2.38-3.73L250.52,235.19z"/>
<g class="st12">
	<path class="st13" d="M283.64,251.42c-1.44,0.57-2.91,1.07-4.4,1.49c-0.48,0.14-0.96,0.28-1.45,0.41
		c-3.18,0.88-6.44,1.41-9.74,1.58c-1.42,0.06-2.84,0.02-4.25-0.12c-1.52-0.15-3.01-0.45-4.47-0.88c-0.05-0.01-0.1-0.03-0.15-0.04
		c-3.04-0.86-5.82-2.44-8.11-4.61c-0.51-0.5-0.99-1.03-1.43-1.6c-2.56-3.14-3.69-7.21-3.1-11.22c0.06-0.36,0.13-0.72,0.23-1.07
		c0.26-0.96,0.59-1.89,1.01-2.78c0.18-0.42,0.39-0.84,0.6-1.24l7.67-2.59h14.61l10.08,2.78l0.68,0.04l0.01,0.15l0.31,0.09l-0.16,1.3
		L283.64,251.42z"/>
</g>
<path class="st4" d="M247.28,189.67c-3.12-0.38-6.54-0.11-8.97,1.88c-2.43,1.99-3.22,6.13-0.91,8.27c2.04,1.89,5.22,1.45,7.95,1.99
	c4.84,1.08,8.31,5.33,8.41,10.29c-0.04,6.91-6.67,12.14-7.86,18.94c-0.81,4.64,1.15,9.53,4.53,12.81c3.39,3.28,8.04,5.05,12.73,5.53
	s9.43-0.25,13.99-1.46c4.58-1.21,9.08-2.93,12.92-5.69c3.84-2.77,6.99-6.67,8.22-11.24c1.23-4.57,0.35-9.81-2.83-13.32
	c-3.64-4.02-9.69-5.4-12.84-9.81c-3.53-4.95-2.22-11.99-5.08-17.36c-1.91-3.58-5.52-6.02-9.36-7.31s-7.96-1.54-12.01-1.67
	c-2.13-0.07-4.33-0.09-6.31,0.69c-1.99,0.78-3.73,2.55-3.83,4.68C245.92,189.02,247.28,189.67,247.28,189.67z"/>
<path class="st8" d="M403.39,455.24H144.72c-0.37,0-0.68-0.3-0.68-0.68c0-0.38,0.3-0.68,0.68-0.68h258.67c0.37,0,0.68,0.3,0.68,0.68
	C404.07,454.94,403.77,455.24,403.39,455.24z"/>
</svg>
