<?xml version="1.0" encoding="utf-8"?>
<!-- Generator: Adobe Illustrator 26.0.2, SVG Export Plug-In . SVG Version: 6.00 Build 0)  -->
<svg version="1.1" id="Capa_1" xmlns="http://www.w3.org/2000/svg" xmlns:xlink="http://www.w3.org/1999/xlink" x="0px" y="0px"
	 viewBox="0 0 409 439.17" style="enable-background:new 0 0 409 439.17;" xml:space="preserve">
<style type="text/css">
	.st0{fill:#F6B6B8;}
	.st1{fill:#E7E8E9;}
	.st2{fill:#F6B5B7;}
	.st3{fill:#282929;}
	.st4{fill:#CDCCCC;}
	.st5{fill:#3F3F3F;}
	.st6{fill:#E72F40;}
	.st7{fill:#E41F1C;}
</style>
<path id="a7c5c542-e960-402d-86b7-e161a3e2924b-3499" class="st0" d="M303.36,184.79c-4.66,0.67-8.98-2.56-9.65-7.22
	c-0.07-0.49-0.1-0.99-0.08-1.49l-28.27-10.86l12.8-9.16l24.88,11.72c4.71,0.47,8.15,4.66,7.68,9.37
	C310.32,181.09,307.28,184.25,303.36,184.79L303.36,184.79z"/>
<path id="b1c26e50-8516-4a28-8986-b88082ea0766-3500" class="st1" d="M287.2,177l4.41-15.57l-0.22-0.15l-41.34-28.08l-35.74-35.86
	l-20.82,8.32l1.37,6.59l0.09,0.08l47.52,42.56l0.04,0.02L287.2,177z"/>
<polygon class="st2" points="244.85,212.56 180.87,203.59 186.5,164.33 233.6,164.33 "/>
<polygon class="st2" points="136.14,404.81 149.26,407.86 167.27,358.68 147.9,354.18 "/>
<path class="st3" d="M123.92,425.94l9.41,2.19l3.75-8.5l2.24,9.89l24.96,5.8c3.1,0.72,6.2-1.21,6.92-4.31
	c0.43-1.84-0.08-3.78-1.35-5.18l-16.74-18.4l2.09-8.98l-21.26-3.62L123.92,425.94z"/>
<polygon class="st2" points="217.12,412.12 230.59,412.12 237.01,360.15 217.12,360.15 "/>
<path class="st3" d="M210.01,435.47h9.66l1.72-9.12l4.42,9.12h25.63c3.18,0,5.76-2.58,5.76-5.76c0-1.89-0.93-3.67-2.49-4.74
	l-20.47-14.13v-9.22l-21.53,1.28L210.01,435.47z"/>
<path class="st3" d="M180.06,196.93l62.57-4.98c18.46,43.13,6.72,111.99-7.47,189.5l-20.13,2.6l-1.56-124.55l-50.45,115.87
	l-20.98-1.07L180.06,196.93z"/>
<path id="be563295-45cb-4583-a2cc-1b51a6e0af2d-3501" class="st3" d="M216.48,83.35V62.18c0.01-15.67-12.69-28.37-28.35-28.38
	c-15.67-0.01-28.37,12.69-28.38,28.35c0,0.01,0,0.02,0,0.02c-5,10.42-1.87,15.37,0,21.17c0,2.1,1.71,3.81,3.81,3.81h49.11
	C214.77,87.16,216.48,85.46,216.48,83.35z"/>
<circle id="e6de18e8-d8d7-4938-bc85-74b57e27a471" class="st0" cx="195.12" cy="66.05" r="20.8"/>
<path id="b4d76e12-782b-49dd-9dc2-b18e04e0f0ec-3502" class="st3" d="M223.19,63.88c-0.01-12.39-10.05-22.42-22.44-22.44h-4.23
	c-12.39,0.01-22.42,10.05-22.44,22.44v0.42c3.17,2.17,6.18,2.48,8.95,0l3.05-8.55l0.61,8.55h4.62l1.54-4.31l0.31,4.31
	c6.25,5.32,18.06,2.77,30.03,0L223.19,63.88z"/>
<path id="a580674d-06d2-46e1-9b07-6683bd33a718-3503" class="st1" d="M182.99,175.81l52.95-2.01l2.96-34.64
	c2.28-6.34,2.32-11.79,0.11-16.18c-1.9-3.61-5.09-6.37-8.94-7.73l-11.59-13.99c-3.02-3.64-7.51-5.74-12.24-5.71l-30.11,0.21
	c-0.73-0.44-5.13-2.67-13.81,1.09c-9.42,4.08-7.23,18.26-7.21,18.4l0.02,0.13l0.1,0.09l20.02,16.87L182.99,175.81z"/>
<path id="ba19af05-e5c9-4e56-8465-909fb7fb4880-3504" class="st4" d="M10.05,436.35h385.16c0.36,0,0.64-0.4,0.64-0.89
	s-0.29-0.89-0.64-0.89H10.05c-0.36,0-0.64,0.4-0.64,0.89S9.7,436.35,10.05,436.35z"/>
<path class="st5" d="M323.47,226.09c-0.09,44.64-36.35,80.76-80.99,80.67c-44.64-0.09-80.76-36.35-80.67-80.99
	s36.35-80.76,80.99-80.67c33.66,0.07,63.76,20.99,75.55,52.52c0.18,0.47,0.35,0.95,0.52,1.43v0c0.75,2.11,1.4,4.25,1.97,6.44
	C322.59,212.22,323.47,219.14,323.47,226.09z"/>
<path class="st6" d="M233.19,171.19c-7.41-4.01-16.26-4.37-23.97-0.98c-3.35,1.46-6.88,4.07-8,8.8c4.52-2.67,10.37,1.55,11.54,8.31
	l-0.27,0.07c-0.61,4.68,0.76,9.79,3.41,12.69c0.4-2.65,1.97-4.99,4.28-6.35c1.95-1.28,4.11-2.21,5.6-4.42
	c1.77-2.61,2.21-6.43,2.92-9.92C229.4,175.9,230.73,172.16,233.19,171.19z"/>
<path class="st6" d="M207.88,211.05c-1.25,1.88-2.92,3.06-4.43,4.53c-1.73,1.58-2.87,3.7-3.22,6.02c-0.19,1.64,0.1,3.3,0.06,4.95
	c-0.04,1.65-0.59,3.52-1.72,3.93c-1.78,0.64-3.13-2.66-4.96-2.89c-1.45-0.18-2.76,2.1-2.34,4.08c0.42,1.98,2.4,2.86,3.53,1.56
	c1.03,1.72,0.3,4.85-1.24,5.38c-0.16,1.08-0.33,2.17-0.48,3.25c-3.9-2.73-7.83-5.5-11.15-9.49c-3.69-4.4-5.97-9.8-6.56-15.52
	c-0.43-4.59,0.21-9.84-1.9-13.37c-1.69-2.83-4.58-3.45-7.18-3.27c-0.47,0.03-0.95,0.09-1.43,0.14c1.54-4.61,3.49-9.08,5.83-13.34
	c0.53-0.23,1.02-0.53,1.46-0.91c2.42-2.06,3.5-6.22,5.47-9.1c0.13-0.19,0.26-0.37,0.39-0.54c2.01-2.63,4.71-3.98,7.31-5.24
	c5.76-2.8,11.7-5.63,17.78-5.24l-1.73,0.17c-2.02,5.66-4.04,11.32-6.07,16.98c-0.31,0.87-0.62,1.74-0.93,2.61
	c-1.15,3.22-2.33,6.65-2.16,10.25c0.1,2.13,0.85,4.41,2.26,5.14c1.32,0.68,2.75-0.15,4.02-0.98c0.54-0.34,1.07-0.69,1.61-1.04
	c1.93-1.24,4.07-2.52,6.11-1.69c1.87,0.76,3.25,3.3,3.51,6.03C209.96,206.14,209.32,208.8,207.88,211.05z"/>
<path class="st6" d="M219.36,249.69c-5.64-3.47-11.28-6.94-16.91-10.41l0.1-0.25c-3.51,1.34-4.96,7.57-4.38,12.66
	c0.58,5.1,2.54,9.65,3.54,14.62c1.34,6.79,0.83,13.82-1.46,20.36c7.41-8.32,13.97-17.36,19.58-26.99c0.78-1.21,1.38-2.54,1.77-3.93
	c0.41-1.48,0.27-3.06-0.41-4.44C220.71,250.63,220.09,250.07,219.36,249.69z"/>
<path class="st6" d="M197.11,186.54c-0.66,1.42-0.76,3.04-0.29,4.53c0.56,1.2,1.57,2.14,2.81,2.6l3.12,1.54
	c1.04,0.51,2.15,1.03,3.21,0.61c1.27-0.51,2.16-2.51,1.93-4.36c-0.24-1.97-1.49-3.33-2.64-4.49c-1.61-1.62-3.22-3.24-4.83-4.85
	l-0.91,1.11C198.53,184.2,197.72,185.31,197.11,186.54z"/>
<path class="st6" d="M306.77,207.64c1.4,0.33,2.8,0.66,4.2,0.99c-0.24,4.73-2.59,9.11-5.74,10.7c-1.31,0.66-2.77,0.9-3.86,2.14
	c-0.98,1.12-1.48,2.87-1.93,4.53c-0.8,2.91-1.6,5.82-2.4,8.73c-0.86,3.14-1.96,6.62-4.2,7.75c-1.92,0.97-4.11-0.22-5.58-2.21
	c-1.47-1.99-2.37-4.67-3.25-7.29c0.05,2.85-1.27,5.64-3.15,6.63c-1.88,0.99-4.17,0.09-5.42-2.12c-0.9-1.59-1.28-3.68-2.17-5.29
	c-0.89-1.61-2.74-2.53-3.71-1.02c-0.64,1-0.56,2.54-0.87,3.82c-0.33,1.73-1.72,3.07-3.46,3.33c-1.58-0.04-3.08-0.72-4.15-1.89
	c-2.77-2.83-4.57-6.47-5.15-10.38c-0.39-1.88-0.34-3.82,0.14-5.68c0.56-1.76,1.9-3.11,3.23-2.78c0.88-1.85-0.85-4.31-2.41-4.1
	c-1.56,0.22-2.79,1.89-4.07,3.18c-1.28,1.29-3.07,2.22-4.36,0.94c0.06,0.97-0.68,1.81-1.66,1.87c-0.05,0-0.09,0-0.14,0
	c-0.86-0.25-1.65-0.67-2.34-1.24c-2.95-1.84-6.7-0.62-8.8,2.86c1.31-5.58,3.23-11.98,7.26-13.29c1.65-0.54,3.44-0.09,5-1.03
	c2.75-1.65,3.31-7.88,0.93-10.46c0.3,2.43,0.24,5.27-1.04,6.93c-1.28,1.66-3.98,0.58-3.82-1.88c-0.1,0.9-0.91,1.56-1.81,1.47
	c-0.52-0.06-0.99-0.36-1.25-0.81c-0.85-1.3-0.78-3.43-0.18-4.99c0.62-1.41,1.52-2.68,2.64-3.74c2.15-2.3,4.33-4.63,6.81-6.08
	c2.49-1.45,5.37-1.93,7.86-0.5c1.32,0.76,2.47,2.03,3.82,2.69c1.33,0.82,3.07,0.42,3.89-0.91c0,0,0,0,0,0
	c0.02-0.02,0.03-0.05,0.04-0.07c1-1.75,0.53-4.36,0.9-6.55c0.66-3.87,4.54-5.69,6.69-3.13c-1.6-0.41-3.26,1.49-3.46,3.79
	c-0.2,2.3,0.96,4.62,2.51,5.32c2.61,1.16,5.17-1.75,7.15-4.45c2.06-2.82,4.13-5.64,6.19-8.46c0.33-0.48,0.7-0.93,1.11-1.35
	c1.34-1.31,3.47-1.35,4.87-0.1c2.09,1.7,3.07,5.2,4.78,7.6c2.49,3.49,6.21,4.34,9.67,5.02c2.58,0.5,5.16,1.01,7.75,1.51
	c1.72,3.2,3.23,6.52,4.5,9.93C313.61,199.79,309.59,203.26,306.77,207.64z"/>
<path class="st6" d="M320.83,205.5c-0.53,1.56-0.82,3.19-0.86,4.84c-2.22-2.7-2.57-7.77-1.11-11.28
	C319.61,201.17,320.27,203.31,320.83,205.5z"/>
<path class="st6" d="M315.11,262.03c-1.94,3.93-4.19,7.7-6.74,11.27c-1.63-0.7-3.38,0.55-4.9,1.71c-1.59,1.22-3.5,2.41-5.14,1.3
	c-1.67-1.14-2.21-4.33-1.68-6.85c0.61-2.33,1.67-4.52,3.13-6.44c1.36-2.03,2.81-4.13,4.69-4.91c1.89-0.79,4.32,0.33,4.87,3.01
	l1.34-0.05c-0.75-1.03-0.36-3.16,0.65-3.54c1.16-0.44,2.17,1.16,2.86,2.57C314.51,260.74,314.82,261.38,315.11,262.03z"/>
<path class="st6" d="M263.86,242.94c-2.88,0.18-5.15-3.36-6.67-6.84c-1.51-3.48-2.9-7.47-5.49-9.24c-1.48-1.01-3.17-1.15-4.78-1.64
	c-1.85-0.47-3.36-1.8-4.06-3.58l-1.82-0.74c-2.55,1.28-4.89,2.94-6.93,4.94c-2.33,2.47-3.78,5.64-4.13,9.02
	c-0.35,3.65,0.94,7.72,3.34,9.1c1.9,1.08,4.11,0.4,6.04,1.39c2.4,1.24,3.83,4.84,4.37,8.4c0.54,3.56,0.4,7.25,0.79,10.85
	c0.39,3.6,1.45,7.34,3.66,9.18c2.76,2.31,6.81,0.39,8.05-3.81c0.61-2.06,0.59-4.38,1.04-6.52c0.8-3.76,2.96-6.56,4.67-9.65
	S265,246.52,263.86,242.94z"/>
<path class="st6" d="M235.44,205.94c0.27,0.25,0.52,0.51,0.75,0.8c0.49,0.84,0.47,1.88-0.05,2.7c0.7-0.04,1.35-0.37,1.8-0.91
	c0.52-0.6,0.99-1.25,1.38-1.94c0.37-0.48,0.52-1.1,0.41-1.69c-0.14-0.39-0.46-0.55-0.68-0.84c-0.31-0.57-0.53-1.19-0.63-1.83
	c-0.25-1.23-1.18-2.2-2.39-2.52l0.14,0.03c-0.5,0.3-0.76,0.88-0.64,1.46c0.09,0.56,0.45,1.03,0.41,1.61
	c-0.05,0.83-0.88,1.22-0.93,2.04C235,205.24,235.15,205.64,235.44,205.94z"/>
<path class="st7" d="M230.51,191.88l0.01,0c0.09-0.08,0.17-0.17,0.25-0.26L230.51,191.88z"/>
<path class="st6" d="M231.38,195.77c0.7-0.62,1.01-1.58,0.78-2.49c-0.21-0.94-0.95-1.57-1.63-1.4c-0.4,0.41-0.99,0.58-1.55,0.45
	c-0.42-0.11-0.88-0.39-1.25-0.07c-0.21,0.24-0.36,0.52-0.43,0.83c-0.14,0.42-0.27,0.83-0.41,1.25c-0.06,0.15-0.08,0.31-0.05,0.47
	c0.05,0.13,0.17,0.22,0.31,0.24c0.81,0.24,1.62,0.48,2.44,0.72C230.16,196.04,230.81,196.04,231.38,195.77z"/>
<path class="st6" d="M292.7,249.38c-0.38-0.61-0.75-1.23-1.13-1.84c-0.37-0.71-0.87-1.34-1.48-1.86c-0.56-0.47-1.39-0.39-1.85,0.16
	c0,0,0,0,0,0l-0.02,0.02l0.05,0.35c1.01,1.08,1.69,2.41,1.98,3.86c0.09,0.63,0.06,1.28,0.13,1.91c0.02,0.59,0.27,1.15,0.7,1.56
	c0.59,0.39,1.29-0.19,1.71-0.9c0.38-0.58,0.54-1.28,0.48-1.97C293.15,250.21,292.97,249.77,292.7,249.38z"/>
<path class="st6" d="M298.59,250.18c0.07-0.58,0.02-1.16-0.14-1.72c-0.03-0.75,0.17-1.5,0.57-2.14c0.4-0.6,0.7-1.26,0.89-1.96
	c0.08-0.32,0.07-0.65-0.04-0.96c-0.12-0.28-0.43-0.41-0.6-0.19l0.37,0.24c-0.5-0.09-1.01-0.06-1.5,0.07
	c-0.57,0.22-0.99,0.69-1.14,1.28c-0.06,0.45-0.16,0.9-0.3,1.33c-0.22,0.45-0.65,0.6-0.92,1c-0.37,0.72-0.36,1.57,0.04,2.27
	c0.34,0.57,0.87,0.99,1.5,1.18C297.78,250.77,298.38,250.78,298.59,250.18z"/>
<path class="st6" d="M309.07,253.35c0.16,0.42,0.38,0.83,0.65,1.19c0.5,0.51,1.18,0.19,1.79,0.07c1.13-0.18,2.26,0.28,2.95,1.18
	c-0.48-2.39-2.09-4.4-4.32-5.39c-1.43-0.49-2.93-0.73-4.44-0.69l-0.26,0.07C306.11,251.69,308.17,251.65,309.07,253.35z"/>
<path class="st7" d="M264.65,257.26L264.65,257.26l0.08-0.14L264.65,257.26z"/>
<path class="st6" d="M263.06,260.34c-0.35,0.63-0.65,1.29-0.89,1.96c-0.33,1.09-0.54,2.22-0.65,3.36c-0.08,0.65-0.11,1.47,0.3,1.79
	c0.24,0.16,0.56,0.12,0.75-0.1c0.23-0.24,0.41-0.51,0.55-0.81c0.8-1.37,1.41-2.84,1.84-4.37c0.44-1.62,0.34-3.34-0.3-4.9
	C264.12,258.29,263.59,259.32,263.06,260.34z"/>
<path class="st6" d="M247.71,178.28c0.52,0.5,1.28,0.65,1.95,0.38c0.68-0.3,1.3-0.71,1.84-1.21c0.45-0.33,0.82-0.74,1.11-1.21
	c0.32-0.57,0.4-1.25,0.23-1.88c-0.25-0.61-0.8-1.04-1.45-1.15c-0.9-0.27-1.8-0.53-2.7-0.8l0.65-0.59c-0.67-0.36-1.41,0.31-1.83,1.14
	c-0.27,0.54-0.46,1.12-0.56,1.71C246.65,175.93,246.93,177.25,247.71,178.28z"/>
<path class="st6" d="M263.62,172.94c0.53,0.58,1.42,0.65,2.03,0.17c0.52-0.39,0.84-0.98,0.9-1.62c0.06-0.71-0.29-1.5-0.79-1.56
	l0.11-0.66c-0.96-0.17-2.15-0.21-2.67,0.96C262.86,171.14,263.01,172.17,263.62,172.94z"/>
<path id="b456961e-c574-43f5-93e7-af00230a566f-3505" class="st0" d="M168.6,244c-3.5-3.15-3.79-8.54-0.64-12.04
	c0.33-0.37,0.7-0.71,1.09-1.02l-9.78-28.66l15.23,3.96l6.94,26.61c2.66,3.91,1.65,9.24-2.27,11.9
	C175.9,246.98,171.53,246.67,168.6,244L168.6,244z"/>
<path id="f9e29824-911d-4b82-8399-58a66d30c3ed-3506" class="st1" d="M164.23,226.61l14.78-6.59l-4.97-50l4.62-50.41l-19.74-10.65
	l-4.18,5.27v0.12l-2.22,63.75l0.01,0.05L164.23,226.61z"/>
<path class="st6" d="M317.47,313.41c-5.02-2.17-10.49-4.8-16.38-7.89c-30.5-15.95-68.97-42.17-108.32-73.81
	c-39.35-31.64-74.88-64.94-100.04-93.75c-12.26-14.04-21.39-26.25-27.15-36.32c-6.1-10.65-8.16-18.53-6.14-23.41
	c3.95-9.51,22.11-4.11,36.66,2.1l-0.28,1.51c-19.97-8.53-32.51-9.51-35.31-2.76c-3.57,8.6,8.45,29.63,32.96,57.71
	c25.11,28.75,60.57,61.98,99.86,93.58c39.29,31.59,77.68,57.76,108.12,73.68c29.72,15.55,48.82,19.53,52.39,10.94
	c2.96-7.14-4.79-22.9-21.84-44.38l0.79-1.11c12.38,15.61,26.27,36.32,22.11,46.34c-2.03,4.88-7.96,6.33-17.64,4.29
	C331.74,318.98,325.12,316.72,317.47,313.41z"/>
<path class="st6" d="M125.4,232.4c-13.85-6-26.62-12.18-37.91-18.41c-14.77-8.14-26.22-15.92-34.04-23.11
	c-8.28-7.61-12.17-14.34-11.56-19.98c1.19-11,19.15-13.87,34.01-14.34l0.13,1.59c-20.41,0.65-32.11,5.3-32.95,13.1
	c-1.07,9.94,15.25,24.98,44.79,41.27c30.24,16.68,71.09,33.09,115.01,46.19c43.92,13.11,85.64,21.34,117.49,23.19
	c31.1,1.8,49.55-2.86,50.63-12.8c0.89-8.25-10.2-20.08-31.23-33.31l0.44-1.43c15.28,9.61,33.24,23.5,31.99,35.09
	c-0.61,5.65-5.66,9.7-15.02,12.05c-8.84,2.22-21.2,2.89-36.75,1.98c-31.92-1.85-73.72-10.1-117.71-23.23
	C175.11,252.04,148.72,242.5,125.4,232.4z"/>
</svg>
