<?xml version="1.0" encoding="utf-8"?>
<!-- Generator: Adobe Illustrator 26.0.2, SVG Export Plug-In . SVG Version: 6.00 Build 0)  -->
<svg version="1.1" id="Capa_1" xmlns="http://www.w3.org/2000/svg" xmlns:xlink="http://www.w3.org/1999/xlink" x="0px" y="0px"
	 viewBox="0 0 409 398.33" style="enable-background:new 0 0 409 398.33;" xml:space="preserve">
<style type="text/css">
	.st0{fill:#F0F0F0;}
	.st1{fill:#FFFFFF;}
	.st2{fill:#CBCACA;}
	.st3{fill:#E72F40;}
	.st4{fill:#F6B5B7;}
	.st5{fill:#302F42;}
	.st6{fill:#646464;}
	.st7{fill:#282929;}
</style>
<rect x="2.64" y="18.91" class="st0" width="404.62" height="214.37"/>
<path class="st1" d="M407.25,59.03v-2.1h-78.76V18.91h-2.1v38.02h-78.76V18.91h-2.1v38.02h-78.76V18.91h-2.1v38.02H85.89V18.91h-2.1
	v38.02H2.64v2.1h81.16v42.01H2.64v2.1h81.16v42.01H2.64v2.1h81.16v42H2.64v2.1h81.16v41.92h2.1v-41.92h78.76v41.92h2.1v-41.92h78.76
	v41.92h2.1v-41.92h78.76v41.92h2.1v-41.92h78.76v-2.1h-78.76v-42h78.76v-2.1h-78.76v-42.01h78.76v-2.1h-78.76V59.03L407.25,59.03z
	 M164.66,189.25H85.89v-42h78.76V189.25z M164.66,145.15H85.89v-42.01h78.76V145.15z M164.66,101.04H85.89V59.03h78.76V101.04z
	 M245.52,189.25h-78.76v-42h78.76V189.25z M245.52,145.15h-78.76v-42.01h78.76V145.15z M245.52,101.04h-78.76V59.03h78.76V101.04z
	 M326.39,189.25h-78.76v-42h78.76V189.25z M326.39,145.15h-78.76v-42.01h78.76V145.15z M326.39,101.04h-78.76V59.03h78.76V101.04z"
	/>
<rect x="101.56" y="69.25" class="st2" width="27.07" height="26.21"/>
<rect x="350.78" y="154.1" class="st2" width="27.07" height="26.21"/>
<rect x="109.97" y="197.68" class="st2" width="27.07" height="26.21"/>
<rect x="117.97" y="64.39" class="st3" width="27.07" height="26.21"/>
<polygon class="st4" points="272.29,173.32 304.41,144.7 313.88,149.4 275.36,189.8 "/>
<circle class="st4" cx="308.63" cy="146.89" r="7.64"/>
<polygon class="st4" points="242.22,388.73 234.62,388.73 231,359.41 242.22,359.41 "/>
<path class="st5" d="M244.16,396.1l-24.51,0v-0.31c0-5.27,4.27-9.54,9.54-9.54h0l14.97,0L244.16,396.1z"/>
<polygon class="st4" points="214.7,388.73 207.1,388.73 203.48,359.41 214.7,359.41 "/>
<path class="st5" d="M216.64,396.1l-24.51,0v-0.31c0-5.27,4.27-9.54,9.54-9.54h0l14.97,0L216.64,396.1z"/>
<path class="st3" d="M248.6,221.15c0,0,19.11-1.53,13,32.11c-6.12,33.64-18.78,125.65-18.78,125.65l-11.49,1.58l-6.79-122.74
	l-5.13,122.74l-14.61-1.58l-14.3-131.76c0,0-4.59-10.59,0-17.91S248.6,221.15,248.6,221.15z"/>
<path class="st6" d="M236.37,137.82l5.31-2.84c0,0,13.07-1.12,18.41,14.24l14.15,21.37l22.93-19.88l9.94,6.88l-28.9,34.5
	l-12.02,1.54l-25.99-33.64L236.37,137.82z"/>
<path class="st7" d="M217.12,75.8c-21.8,0-27.9,23.95-27.9,37.46c0,13.51,12.49,11.47,27.9,11.47c6.61,0,12.69,0.37,17.47-0.27
	l2.3-5.62l1.85,4.65c3.93-1.44,6.28-4.37,6.28-10.24C245.02,99.75,239.67,75.8,217.12,75.8z"/>
<circle class="st4" cx="217.02" cy="105.92" r="18.78"/>
<path class="st7" d="M195.33,104.08L195.33,104.08h7.43l3.28-9.17l0.66,9.17h3.55l1.91-5.35l0.38,5.35h26.37l0,0
	c0-10.98-8.9-19.88-19.88-19.88h-3.82C204.23,84.21,195.33,93.11,195.33,104.08z"/>
<rect x="293.8" y="117.9" class="st3" width="27.07" height="26.21"/>
<path class="st6" d="M254.54,214.23c-2.88,0.04-11.57-51.49-11.57-51.49l-1.3-27.77l-9.49-0.32v-0.62c0-2.61-2.12-4.73-4.73-4.73
	h-18.07c-2.49,0-4.55,1.94-4.71,4.42l-7.44-0.25l-12.89,40.94c0,0,11.87,38.04,6.14,54.8c0,0,55.83,4.79,66.52-5.85
	C257.02,223.38,257.43,214.19,254.54,214.23z"/>
<path class="st6" d="M200.44,138.59l-3.2-5.1c0,0-10.4-2.57-14.69,4.32c-4.28,6.89-16.87,44.25-16.87,44.25l13,4.59l14.75-20.68
	L200.44,138.59z"/>
<rect x="205.88" y="165.3" class="st3" width="27.07" height="26.21"/>
<path class="st4" d="M185.12,174.77l-9.42-1l0,0c-2.17,4.62-0.18,10.12,4.44,12.29c0.67,0.32,1.38,0.55,2.11,0.69l37.26,7.44
	l-3.89-11.97L185.12,174.77z"/>
<circle class="st4" cx="219.63" cy="186.68" r="7.64"/>
<path class="st6" d="M210.09,194.56l-28.39-6.49c-4.18-0.97-7.56-4.05-8.89-8.13l-1.15-3.54l7.37-5.8l33.75,9.43L210.09,194.56z"/>
<path class="st2" d="M369.61,397.64H78.35c-0.42,0-0.76-0.34-0.76-0.76s0.34-0.76,0.76-0.76h291.26c0.42,0,0.76,0.34,0.76,0.76
	S370.03,397.64,369.61,397.64z"/>
</svg>
