<?xml version="1.0" encoding="utf-8"?>
<!-- Generator: Adobe Illustrator 26.0.2, SVG Export Plug-In . SVG Version: 6.00 Build 0)  -->
<svg version="1.1" id="Capa_1" xmlns="http://www.w3.org/2000/svg" xmlns:xlink="http://www.w3.org/1999/xlink" x="0px" y="0px"
	 viewBox="0 0 409 330.59" style="enable-background:new 0 0 409 330.59;" xml:space="preserve">
<style type="text/css">
	.st0{fill:#282929;}
	.st1{fill:#E72F40;}
	.st2{opacity:0.1;fill:#020203;enable-background:new    ;}
	.st3{fill:#302F42;}
	.st4{fill:#A1626A;}
	.st5{fill:#FFFFFF;}
	.st6{fill:#D0CDE1;}
	.st7{fill:#E41F1C;}
	.st8{fill:#F7BEBE;}
	.st9{fill:#403E56;}
	.st10{fill:#B4B4B4;}
	.st11{opacity:0.2;fill:#020203;enable-background:new    ;}
	.st12{fill:#E7E6E6;}
</style>
<path class="st0" d="M266.65,184.74c-8.43,5.06-23.45,11.39-38.8,4.88l-9.92-4.21l19.88-22.29c-35.23-38.84-32.3-98.89,6.54-134.12
	s98.89-32.3,134.12,6.54s32.3,98.89-6.54,134.12C343.21,195.73,301.53,201.69,266.65,184.74z M228.55,99.19
	c-0.09,22.01,9.02,43.05,25.12,58.06l5.48,5.15l-12.51,14.02c6.52-1.32,12.19-4.85,15.07-6.9l3.95-2.81l4.25,2.33
	c11.74,6.43,24.91,9.8,38.29,9.8c43.92,0,79.66-35.73,79.66-79.66c0-43.92-35.73-79.66-79.66-79.66S228.55,55.27,228.55,99.19
	L228.55,99.19z"/>
<path class="st1" d="M220.83,99.19c0-48.26,39.12-87.38,87.38-87.38s87.38,39.12,87.38,87.38s-39.12,87.38-87.38,87.38
	c-14.69,0.02-29.14-3.68-42.01-10.75c-6.04,4.3-20.78,12.87-35.33,6.7l17.52-19.64C230.78,146.38,220.8,123.32,220.83,99.19z"/>
<path class="st2" d="M380.7,99.38c0-45.66-35.02-83.13-79.66-87.04c2.55-0.22,5.12-0.34,7.72-0.34c48.26,0,87.38,39.12,87.38,87.38
	s-39.12,87.38-87.38,87.38c-2.6,0-5.17-0.12-7.71-0.34C345.69,182.5,380.7,145.03,380.7,99.38z"/>
<path class="st0" d="M106.85,306.13c-52.58,0.02-95.22-42.58-95.25-95.16c-0.02-52.58,42.58-95.22,95.16-95.25
	s95.22,42.58,95.25,95.16c0.01,23.7-8.82,46.55-24.76,64.09l19.88,22.29l-9.92,4.21c-15.35,6.51-30.37,0.18-38.8-4.88
	C135.46,302.87,121.25,306.13,106.85,306.13z M106.85,131.37c-43.92,0-79.66,35.73-79.66,79.66c0,43.92,35.73,79.66,79.66,79.66
	c13.38,0,26.55-3.37,38.29-9.8l4.25-2.33l3.95,2.81c2.88,2.05,8.55,5.57,15.07,6.9l-12.51-14.02l5.48-5.15
	c16.1-15,25.21-36.05,25.12-58.06C186.51,167.11,150.77,131.37,106.85,131.37L106.85,131.37z"/>
<path class="st1" d="M194.23,211.03c0-48.26-39.12-87.38-87.38-87.38s-87.38,39.12-87.38,87.38s39.12,87.38,87.38,87.38
	c14.69,0.02,29.14-3.68,42.01-10.75c6.04,4.3,20.78,12.87,35.33,6.7l-17.52-19.64C184.28,258.22,194.26,235.16,194.23,211.03z"/>
<path class="st2" d="M34.92,210.59c0-45.66,35.02-83.13,79.66-87.04c-2.55-0.22-5.12-0.34-7.72-0.34
	c-48.26,0-87.38,39.12-87.38,87.38s39.12,87.38,87.38,87.38c2.6,0,5.17-0.12,7.71-0.34C69.93,293.71,34.92,256.24,34.92,210.59z"/>
<path class="st3" d="M328.72,71.43c-5.72-9.66-17.03-10.11-17.03-10.11s-11.02-1.41-18.09,13.3c-6.59,13.71-15.69,26.95-1.46,30.16
	l2.57-8l1.59,8.59c2.02,0.15,4.06,0.18,6.08,0.1c15.23-0.49,29.73,0.14,29.27-5.32C331.03,92.9,334.22,80.72,328.72,71.43z"/>
<path class="st3" d="M291.33,156.03c-0.17,1.06-0.41,2.11-0.73,3.14c-0.36,1.01-0.91,1.94-1.24,2.95c-1.04,3.24,0.4,6.85,2.71,9.35
	c2,2.16,4.59,3.69,7.44,4.42c2.1,0.45,4.25,0.67,6.39,0.67c5.94,0.2,12.04,0.38,17.67-1.53c1.78-0.62,3.5-1.4,5.13-2.33
	c0.52-0.25,0.97-0.6,1.33-1.05c0.38-0.65,0.55-1.4,0.48-2.15c-0.01-2.52-0.52-5.03-0.4-7.54c0.07-1.39,0.33-2.79,0.2-4.18
	c-0.36-3.23-2.72-5.89-5.89-6.64c-1.6-0.34-3.25-0.16-4.88,0c-4.22,0.41-8.46,0.6-12.7,0.57c-4.33-0.03-8.64-0.69-12.95-0.76
	c-1.28-0.02-1.25,0.37-1.66,1.61C291.87,153.7,291.56,154.85,291.33,156.03z"/>
<path class="st4" d="M303.62,93.81c-0.21,1.09-0.43,2.22-1.09,3.12c-0.75,1.03-1.98,1.62-2.79,2.61c-1.22,1.49-1.29,3.57-1.3,5.5
	c0,1.77,0.03,3.66,1.02,5.13c0.7,0.91,1.58,1.68,2.57,2.27c3.7,2.5,7.71,5.04,12.17,5.12c1.85,0.03,3.83-0.44,5.05-1.84
	c0.53-0.65,0.94-1.39,1.22-2.18c1.14-2.81,1.83-5.79,2.05-8.82c0.16-1.42,0.03-2.87-0.39-4.24c-0.54-1.51-1.64-2.76-2.36-4.19
	c-0.86-1.71-1.17-3.63-0.9-5.52c0.04-0.13,0.02-0.27-0.03-0.4c-0.12-0.14-0.3-0.21-0.48-0.19l-8.85-0.64
	c-0.82-0.04-1.65-0.13-2.46-0.28c-0.48-0.1-1.74-0.77-2.19-0.59C304.02,88.98,303.8,92.91,303.62,93.81z"/>
<path class="st2" d="M303.62,94.09c-0.21,1.09-0.43,2.22-1.09,3.12c-0.75,1.03-1.98,1.62-2.79,2.61c-1.22,1.49-1.29,3.57-1.3,5.5
	c0,1.77,0.03,3.66,1.02,5.13c0.7,0.91,1.58,1.68,2.57,2.27c3.7,2.5,7.71,5.04,12.17,5.12c1.85,0.03,3.83-0.44,5.05-1.84
	c0.53-0.65,0.94-1.39,1.22-2.18c1.14-2.81,1.83-5.79,2.05-8.82c0.16-1.42,0.03-2.87-0.39-4.24c-0.54-1.51-1.64-2.76-2.36-4.19
	c-0.86-1.71-1.17-3.63-0.9-5.52c0.04-0.13,0.02-0.27-0.03-0.4c-0.12-0.14-0.3-0.21-0.48-0.19l-8.85-0.64
	c-0.82-0.04-1.65-0.13-2.46-0.28c-0.48-0.1-1.74-0.77-2.19-0.59C304.02,89.26,303.8,93.19,303.62,94.09z"/>
<circle class="st4" cx="312.09" cy="82.01" r="12.99"/>
<path class="st5" d="M305.45,111.11c0.64,0.74,1.42,1.36,2.28,1.82c0.9,0.37,1.87,0.56,2.85,0.54c2.34,0.07,4.88-0.36,6.51-2.05
	c2.1-2.17,2.03-5.67,3.68-8.2c0.13-0.23,0.31-0.43,0.53-0.58c0.28-0.15,0.59-0.22,0.9-0.21c2.08-0.02,3.89,1.33,5.52,2.61
	c0.77,0.53,1.43,1.2,1.94,1.98c0.32,0.63,0.54,1.31,0.66,2.01c0.81,3.96,1.07,8.01,1.33,12.04c0.14,2.23,0.29,4.46,0.28,6.69
	c-0.04,7.35-1.74,14.58-3.44,21.74c-0.22,0.92-0.52,1.95-1.36,2.39c-0.37,0.17-0.78,0.27-1.18,0.29c-4.87,0.57-9.75,1.14-14.65,1.22
	c-1.91,0.03-3.82-0.02-5.74-0.14c-0.33,0-0.66-0.06-0.97-0.17c-0.42-0.2-0.78-0.51-1.05-0.89c-2.65-3.34-2.81-7.96-2.79-12.22
	c0.04-10.43,0.41-20.85,1.12-31.26c0.06-0.86,0.07-1.9-0.55-2.58C302.53,107.93,303.91,109.6,305.45,111.11z"/>
<path class="st5" d="M302.69,96.11c-0.44,0.79-3.67,2.77-4.3,3.42c-3.49,3.68-9.86,3.54-13.05,7.48c-1.12,1.39-1.71,3.13-2.14,4.86
	c-0.61,2.45-0.93,5.12,0.09,7.43c0.98,2.22,3.04,3.76,4.43,5.74c1.53,2.18,2.22,4.82,2.89,7.41c0.49,1.91,0.98,3.86,0.79,5.82
	c-0.22,2.23-1.29,4.27-1.93,6.41c-0.64,2.15-0.75,4.7,0.73,6.39c1.08,1.24,2.78,1.73,4.4,2.01c2.08,0.31,4.17,0.49,6.27,0.55
	c1.85,0.08,3.89,0.1,5.32-1.09c1.12-0.94,1.61-2.46,1.68-3.92c0.06-1.46-0.24-2.91-0.43-4.36c-0.2-1.5-0.27-3.02-0.34-4.54
	c-0.28-6.8-0.32-13.6-0.12-20.41c0.1-1.41,0.04-2.84-0.21-4.24c-0.4-1.82-1.38-3.45-2.2-5.12c-1.64-3.15-2.38-6.69-2.15-10.24
	C302.67,96.06,304.26,93.28,302.69,96.11z"/>
<path class="st5" d="M320.94,96.38c0.67,0.69,2.94,0.91,3.79,1.36c0.8,0.37,1.63,0.66,2.49,0.86c3.1,0.89,6.05,2.25,8.75,4.02
	c0.56,0.33,1.06,0.76,1.46,1.26c0.43,0.7,0.7,1.48,0.81,2.29c0.42,2.06,0.83,4.15,0.74,6.25c-0.1,2.23-0.77,4.39-1.44,6.52
	l-2.49,7.96c-1.86,5.94-3.73,11.95-4.25,18.15c-0.29,3.44-0.16,6.9,0.38,10.31c0.1,0.34,0.06,0.7-0.13,1
	c-0.16,0.16-0.38,0.26-0.61,0.28c-1.2,0.19-2.37-0.42-3.45-0.97c-3.33-1.66-6.88-2.82-10.55-3.45c1.43-2.07,2.54-4.35,3.28-6.75
	c0.42-1.53,0.75-3.08,0.99-4.64l1.16-6.7c0.47-2.45,0.8-4.92,0.99-7.41c0.09-0.93,0.03-1.87-0.16-2.79
	c-0.27-0.87-0.62-1.72-1.06-2.52c-1.91-3.97-2.81-8.5-2.05-12.85c0.33-1.9,0.97-3.8,0.7-5.71c-0.26-1.84,0.01-3.26-0.46-5.08
	C317.9,90.3,319.68,95.09,320.94,96.38z"/>
<path class="st5" d="M285.32,113.29c-0.87,1.81-2.33,3.35-2.82,5.29c-0.19,0.91-0.28,1.84-0.25,2.76c-0.09,1.4,0.05,2.8,0.41,4.16
	c0.28,0.86,0.73,1.65,1.05,2.49c0.45,1.17,0.65,2.43,0.59,3.68c-0.09,1.74-0.68,3.43-0.72,5.17c-0.07,2.74,1.19,5.31,2.43,7.76
	c1.18-2.92,4.5-4.33,7.42-3.15c0.3,0.12,0.59,0.27,0.87,0.44c0.28-0.35,0.42-0.79,0.37-1.24c0.09-3.18,0.18-6.36,0.26-9.53
	c0.13-4.91,0.26-9.89-0.87-14.68c-0.51-2.16-1.3-4.31-2.76-5.99c-0.77-0.88-3.37-3.21-4.63-2.22c-0.57,0.44-0.43,1.65-0.52,2.27
	C286.02,111.47,285.73,112.41,285.32,113.29z"/>
<path class="st5" d="M339.24,108.08c0.35,1.3,0.5,2.65,0.44,4c0.02,2.75-0.02,5.49-0.11,8.24c0.01,1.41-0.17,2.81-0.54,4.17
	c-0.28,0.88-0.71,1.71-1.01,2.59c-0.87,2.64-0.39,5.5-0.32,8.28c0.05,0.9-0.02,1.8-0.23,2.68c-0.46,1.72-1.69,3.11-2.55,4.68
	c-0.82,1.48-1.31,3.14-2.29,4.53s-2.67,2.48-4.31,2.05c-1.24-0.32-2.12-1.42-2.73-2.55c-1.33-2.48-1.79-5.34-1.29-8.11
	c0.61-3.37,2.59-6.37,3.31-9.72c0.98-4.6-0.51-9.36-0.47-14.06c-0.02-0.74,0.08-1.47,0.3-2.18c0.37-1.08,1.18-1.93,1.92-2.8
	c0.93-1.08,1.79-2.21,2.59-3.39c0.53-0.79,1.26-2.84,2.2-3.01C336.26,103.11,338.71,106.46,339.24,108.08z"/>
<path class="st3" d="M274.38,153.98c-1.17-0.29-2.37-0.42-3.57-0.38c-4.91,0.27-8.67,4.47-8.4,9.38c0.02,0.37,0.06,0.75,0.13,1.11
	c0.29,1.35,0.77,2.65,1.41,3.86c0.95,1.92,2.08,3.83,3.83,5.07c1.06,0.68,2.19,1.22,3.38,1.61l9.22,3.47
	c1.36,0.51,2.71,1.02,4.08,1.5c6.88,2.38,14.06,3.81,21.33,4.24c2.21,0.21,4.44,0.09,6.62-0.34c0.53-0.07,1.01-0.33,1.36-0.73
	c0.18-0.31,0.28-0.65,0.3-1l0.57-3.97c0.13-0.55,0.11-1.13-0.05-1.67c-0.26-0.67-0.91-1.09-1.53-1.44
	c-6.06-3.48-13.14-5.4-18.25-10.18c-1.2-1.13-2.21-2.91-3.67-3.67c-1.66-0.87-3.6-1.36-5.32-2.16
	C282.11,156.92,278.43,154.91,274.38,153.98z"/>
<path class="st2" d="M283.59,159.34c3.26,1.02,17.02,8.1,19.38,10.57c-0.32,0.11-11.05-5.9-11.37-6c-2.95-0.81-5.84-1.83-8.65-3.05
	c-0.56-0.26-3.63-1.47-3.49-2.18C279.62,157.89,283.01,159.15,283.59,159.34z"/>
<path class="st4" d="M324.26,185.9c0.18,0.01,0.37-0.04,0.52-0.15c0.13-0.17,0.19-0.38,0.16-0.59l-0.02-5.41
	c-1.56-0.74-3.3-0.98-5.01-1.21l-7.97-1.07c0.18,0.02-1.25,3.43-1.03,3.89c0.39,0.8,3.34,1.51,4.17,1.89
	C317.98,184.57,321,186.02,324.26,185.9z"/>
<path class="st4" d="M299.24,179.73c-1.51,0.24-3.19,0.45-4.16,1.62c-1.24,1.49-0.71,3.7-0.12,5.54c0.15,0.98,1.06,1.66,2.05,1.51
	c0.02,0,0.03-0.01,0.05-0.01c1.37,0.09,2.83,0.16,4.03-0.52c0.54-0.36,1.07-0.75,1.57-1.16c0.88-0.59,1.86-1.03,2.88-1.32
	c1.88-0.59,3.82-0.99,5.78-1.19c0.77-0.04,1.54-0.17,2.28-0.4c0.75-0.24,1.34-0.82,1.6-1.56c0.28-0.98-0.29-1.99-0.84-2.85
	c-0.63-1.13-1.45-2.14-2.43-3c-1.49-1.15-2.22-0.27-3.72,0.47C305.39,178.26,302.36,179.23,299.24,179.73z"/>
<path class="st3" d="M295.31,181.08l-9.56-2.83c-1.15-0.4-2.34-0.63-3.56-0.69c-1.23-0.05-2.42,0.43-3.27,1.32
	c-0.74,0.87-0.95,2.06-1.14,3.19l-0.4,2.41c-0.26,1.22-0.34,2.47-0.22,3.71c0.13,1.26,0.83,2.38,1.9,3.05
	c1.32,0.72,2.94,0.37,4.42,0.07c2.98-0.61,6.02-0.93,9.06-0.97c1.14-0.01,2.34,0,3.36-0.54c1.19-0.71,1.96-1.96,2.04-3.34
	C298.13,184.41,297.45,181.71,295.31,181.08z"/>
<path class="st3" d="M328.02,178.62c1.24-0.22,2.33-0.92,3.52-1.34c1.67-0.59,3.48-0.59,5.25-0.58c0.65-0.06,1.31,0.07,1.88,0.38
	c0.78,0.52,0.98,1.56,1.11,2.49l0.8,5.6c0.21,1.04,0.24,2.12,0.07,3.17c-0.23,1.04-0.94,2.04-1.97,2.3c-1.25,0.32-2.48-0.47-3.66-1
	c-2.95-1.31-6.38-0.98-9.45-1.96c-0.59-0.12-1.11-0.49-1.42-1.01c-0.11-0.31-0.14-0.64-0.11-0.97c0.05-1.8-0.33-4.26,0.21-5.97
	C324.75,178.18,326.63,178.62,328.02,178.62z"/>
<path class="st3" d="M348.25,151.73c1.91-0.48,3.89-0.61,5.85-0.4c1.56,0.17,3.17,0.61,4.32,1.69c1.39,1.32,1.84,3.35,1.87,5.27
	c0.06,3.81-1.2,7.53-3.58,10.51c-0.58,0.75-1.27,1.42-2.05,1.97c-0.84,0.52-1.73,0.95-2.66,1.28l-20.65,8.15
	c-5.43,2.14-10.89,4.29-16.55,5.71c-0.64,0.31-1.41,0.04-1.72-0.6c0-0.01-0.01-0.02-0.01-0.03c-1.81-2.58-3.33-5.36-4.53-8.28
	c-0.2-0.24-0.16-0.59,0.08-0.79c0.05-0.04,0.11-0.07,0.17-0.09l14.61-8.39c1.07-0.56,2.07-1.25,2.97-2.05
	c0.63-0.61,1.15-1.33,1.53-2.13c0.3-0.63,0.33-2.13,0.72-2.59c0.38-0.46,1.67-0.49,2.27-0.67c0.84-0.26,1.67-0.57,2.47-0.94
	c3.27-1.46,6.18-3.59,9.31-5.3C344.42,153.03,346.29,152.26,348.25,151.73z"/>
<path class="st2" d="M339.96,158c-2.51,1.89-5.76,3.62-8.25,5.55c-0.85,0.66-15,8.62-15.2,9.67c2.32,0.39,17.1-9.95,19.22-10.98
	c2.12-1.03,3.99-2.49,5.85-3.93c0.47-0.37,2.48-1.47,1.12-1.89C341.94,156.19,340.53,157.62,339.96,158z"/>
<path class="st6" d="M322.69,96.57h-22.03c-1.86,0-3.38,1.51-3.38,3.38l0,0v1.24h-0.24v2.76h0.24v1.93h-0.24v1.66h0.24v20.39
	c0,1.86,1.51,3.38,3.38,3.38l0,0h22.03c1.86,0,3.38-1.51,3.38-3.38l0,0V99.94C326.07,98.08,324.56,96.57,322.69,96.57z"/>
<polygon class="st3" points="326.2,70.5 315.02,64.64 299.59,67.04 296.4,81.14 304.34,80.83 306.56,75.65 306.56,80.75 
	310.23,80.61 312.36,72.36 313.69,81.14 326.73,80.87 "/>
<path class="st4" d="M288.24,149.9c0.51,0.86,1.22,1.57,2.09,2.08c1.15,0.52,2.47,0.49,3.59-0.1c1.1-0.59,2-1.49,2.59-2.59
	c1.21-2.14,1.47-4.71,1.31-7.17c-0.15-2.46-0.68-4.88-0.91-7.34c-0.17-1.78-0.18-3.58-0.2-5.37c-0.04-0.38,0.04-0.76,0.23-1.09
	c0.32-0.32,0.74-0.53,1.2-0.6c2.45-0.73,4.08-3.03,5.24-5.3c0.78-1.52,1.46-3.18,1.31-4.88c-0.15-1.7-1.37-3.41-3.07-3.59
	c-1.4-0.14-2.69,0.75-3.7,1.73c-2.55,2.49-4.19,5.76-4.65,9.29c-0.22,1.73-0.16,3.51-0.63,5.18c-1,3.58-4.15,5.78-5.71,9.01
	C285.19,142.72,286.14,146.76,288.24,149.9z"/>
<path class="st4" d="M334.48,136.21c-0.72,1.68-2.09,3-3.8,3.65c-1.05,0.42-2.21,0.49-3.3,0.2c-1.1-0.31-1.99-1.11-2.42-2.16
	c-0.17-0.53-0.26-1.07-0.27-1.63c-0.16-2.42-0.1-4.91,0.78-7.17c0.34-0.87,0.8-1.7,1.06-2.59c0.26-1.03,0.4-2.1,0.4-3.16l0.29-6.6
	c0.05-0.48,0.01-0.96-0.1-1.43c-0.29-0.95-1.18-1.57-2-2.14c-1.98-1.37-3.93-2.98-4.89-5.19c-0.33-0.66-0.45-1.41-0.34-2.15
	c0.27-1.31,1.59-2.16,2.9-2.44c3.5-0.76,6.95,1.45,7.72,4.95c0.02,0.09,0.04,0.18,0.05,0.28c0.13,0.74,0.13,1.5,0.2,2.26
	c0.16,1.59,0.67,3.13,0.98,4.7c0.78,3.87,0.38,7.87,1.15,11.74C333.55,130.56,335.98,132.67,334.48,136.21z"/>
<circle class="st7" cx="311.97" cy="108.64" r="2.76"/>
<circle class="st3" cx="11.86" cy="199.82" r="8.15"/>
<polygon class="st8" points="41.41,224.03 37.3,220.04 29.06,222.6 29.85,232.15 46.81,231.36 41.6,224.28 "/>
<circle class="st8" cx="32.43" cy="210.76" r="13.18"/>
<path class="st3" d="M114.26,240.95c0,0,16.19,27.83,20.05,32.01c1.83,2.06,3.79,4,5.85,5.83c0,0-1.81,6.01-4.7,5.8
	c-1.64-0.1-3.26-0.5-4.76-1.17c0,0-1.29-3.34-3.53-4.8c-2.25-1.46-20.6-19.52-20.17-25.29
	C107.42,247.54,114.26,240.95,114.26,240.95z"/>
<path class="st3" d="M56.59,280.66c0,0,17.27,13.4,40.73,0.81l2.02-1.49c0,0-3.41,7.68-3.73,9.76c-0.37,2.41-9.25,16.55-10.7,17.23
	c-1.45,0.68-1.77,1.3-1.77,1.3l6.15,6.77l2.28-1.67c0,0,8.87-12.57,11.47-14.87c2.59-2.3,14.96-26.01,14.96-26.01
	s4.73-8.93-7.07-9.61s-17.22,2.54-17.22,2.54l-20.93,3.33L56.59,280.66z"/>
<path class="st3" d="M140.36,277.47l8.73,6.04c0,0,11.14,3.49,4.28,5.81s-24.95,3.16-25.36-0.04c-0.41-3.21,0.71-8.25,1.62-7.97
	S136.79,283.21,140.36,277.47z"/>
<path class="st3" d="M92.34,311.29l1.62,8.88c0,0,4.6,8.79-0.92,6.06c-5.52-2.73-16.89-13.09-15.21-15.26s5.38-4.53,5.76-3.82
	S86.75,312.6,92.34,311.29z"/>
<path class="st5" d="M75.69,271.67c0,0-11.74,13.7-18.86,10.37s-36.28-41.88-32.95-49.01s4.44-5.61,4.44-5.61l15.05,1.39l-4.33-6.94
	c0,0,2.02-1.49,3.95,0.6c1.93,2.09,9.66,7.31,12.36,14.68s10.61,7,10.61,7L75.69,271.67z"/>
<polygon class="st9" points="123.09,243.41 102.74,265.01 84.52,232.83 101.85,211.9 "/>
<polygon class="st5" points="121.56,243.18 103.18,262.16 86.53,232.91 101.8,213.69 "/>
<polygon class="st10" points="101.75,264.19 102.74,265.01 102.11,266.26 73.66,274.73 73.39,273.75 74.68,272.41 "/>
<polygon class="st6" points="103,264.82 73.54,274.04 55.58,240.1 84.52,232.83 "/>
<polygon class="st9" points="100.78,260.22 99.52,261.15 85.49,236.79 86.94,236.12 "/>
<polygon class="st9" points="97.88,261.58 85.42,265.29 71.27,240.24 83.6,237.41 "/>
<path class="st8" d="M62.77,242.99l2.58-0.73c0,0,14.39-1.63,14.6,2.89c0.21,4.52-16.53,2.42-16.53,2.42l-2.23-3.03L62.77,242.99z"
	/>
<path class="st8" d="M75.39,263.32l3.59-1.47c0,0,10.84-4.86,7.73-8.03c-3.11-3.17-12.7,2.33-12.7,2.33l-1.84,1.74L75.39,263.32z"/>
<path class="st5" d="M72.19,256.32c0,0,5.85,5.83,4.52,7.2s-23.15,19.38-28.56,13.61s-31.76-34.69-21.51-37.17
	c10.25-2.48,12.96,3.32,12.96,3.32l13.54,23.16L72.19,256.32z"/>
<polygon class="st5" points="54.68,238.62 64.29,241.88 64.13,248.81 53.97,247.71 "/>
<polygon class="st11" points="63.34,259.91 52.99,265.97 41.16,247.79 52.58,262.77 "/>
<circle class="st3" cx="26.64" cy="206.94" r="15.69"/>
<polygon class="st7" points="111.43,244.78 100.45,228.71 105.1,222.94 116.52,239.48 "/>
<polygon class="st12" points="111.12,251.25 94.4,226.93 95.22,225.93 111.87,250.31 "/>
<polygon class="st12" points="108.97,253.61 92.24,229.29 93.07,228.3 109.72,252.67 "/>
<polygon class="st12" points="107.13,255.35 90.4,231.03 91.23,230.04 107.88,254.41 "/>
<path class="st3" d="M33.59,196.47h4.85c5.12,0,9.27,4.15,9.27,9.27l0,0l0,0l0,0H33.59l0,0V196.47L33.59,196.47z"/>
<path class="st9" d="M100.46,190.57l-0.88-0.07c-0.03,0.46-0.06,0.92-0.09,1.38l-3.95-0.13l4.14,7.76l4.65-7.47l-3.96-0.13
	C100.41,191.46,100.43,191.02,100.46,190.57z"/>
<path class="st9" d="M123.63,127.28l0.7,0.54c1.05-1.38,2.15-2.75,3.27-4.09l-0.68-0.57C125.8,124.5,124.69,125.89,123.63,127.28z"
	/>
<path class="st9" d="M130.39,119.19l0.65,0.6c1.17-1.28,2.39-2.56,3.61-3.79l-0.62-0.62C132.8,116.61,131.57,117.89,130.39,119.19z"
	/>
<path class="st9" d="M137.84,111.72l0.6,0.65c1.28-1.18,2.6-2.34,3.93-3.45l-0.57-0.68C140.46,109.37,139.13,110.54,137.84,111.72z"
	/>
<path class="st9" d="M117.61,135.94l0.75,0.47c0.93-1.47,1.9-2.94,2.9-4.36l-0.72-0.5C119.52,132.98,118.54,134.46,117.61,135.94z"
	/>
<path class="st9" d="M145.9,104.94l0.54,0.7c1.38-1.06,2.8-2.1,4.22-3.09l-0.51-0.72C148.72,102.83,147.29,103.88,145.9,104.94z"/>
<path class="st9" d="M112.37,145.1l0.78,0.4c0.8-1.55,1.64-3.1,2.5-4.6l-0.77-0.44C114.02,141.98,113.17,143.54,112.37,145.1z"/>
<path class="st9" d="M103.86,169.94l-0.85-0.22c-0.44,1.69-0.84,3.42-1.2,5.13l0.86,0.18C103.02,173.34,103.42,171.62,103.86,169.94
	z"/>
<path class="st9" d="M154.53,98.91l0.47,0.74c1.46-0.93,2.97-1.84,4.47-2.71l-0.44-0.76C157.52,97.05,156,97.97,154.53,98.91z"/>
<path class="st9" d="M101.7,180.18l-0.87-0.14c-0.28,1.72-0.53,3.48-0.74,5.22l0.88,0.1C101.17,183.63,101.42,181.89,101.7,180.18z"
	/>
<path class="st9" d="M107.96,154.69l0.82,0.33c0.65-1.61,1.35-3.23,2.08-4.81l-0.8-0.37C109.33,151.44,108.62,153.07,107.96,154.69z
	"/>
<path class="st9" d="M104.43,164.65l0.84,0.26c0.51-1.67,1.06-3.34,1.64-4.98l-0.83-0.3C105.5,161.28,104.94,162.97,104.43,164.65z"
	/>
<path class="st9" d="M214.24,81.31c1.73-0.06,3.49-0.08,5.24-0.07l0.01-0.88c-1.75-0.02-3.53,0.01-5.27,0.07L214.24,81.31z"/>
<path class="st9" d="M163.65,93.65l0.41,0.78c1.54-0.8,3.12-1.57,4.69-2.3l-0.37-0.8C166.8,92.07,165.21,92.85,163.65,93.65z"/>
<path class="st9" d="M235.12,82.41c1.72,0.24,3.46,0.53,5.16,0.85l0.16-0.87c-1.72-0.32-3.47-0.61-5.2-0.85L235.12,82.41z"/>
<path class="st9" d="M245.41,84.34c1.69,0.39,3.4,0.83,5.07,1.3l0.24-0.85c-1.69-0.47-3.4-0.92-5.11-1.31L245.41,84.34z"/>
<path class="st9" d="M255.48,87.17c1.65,0.54,3.31,1.13,4.93,1.75l0.31-0.82c-1.64-0.62-3.31-1.22-4.97-1.76L255.48,87.17z"/>
<path class="st9" d="M224.7,81.41c1.74,0.09,3.49,0.22,5.22,0.39l0.09-0.88c-1.74-0.17-3.51-0.3-5.26-0.39L224.7,81.41z"/>
<path class="st9" d="M203.7,81.26l0.11,0.88c1.72-0.21,3.47-0.39,5.21-0.52l-0.07-0.88C207.2,80.87,205.43,81.04,203.7,81.26z"/>
<path class="st9" d="M183.11,85.67l0.26,0.84c1.66-0.51,3.35-1,5.03-1.44l-0.22-0.85C186.49,84.67,184.78,85.15,183.11,85.67z"/>
<path class="st9" d="M173.2,89.23l0.34,0.82c1.6-0.66,3.24-1.29,4.87-1.87l-0.3-0.83C176.47,87.93,174.82,88.57,173.2,89.23z"/>
<path class="st9" d="M193.31,83.01l0.18,0.86c1.7-0.36,3.42-0.69,5.14-0.98l-0.15-0.87C196.76,82.31,195.01,82.64,193.31,83.01z"/>
<path class="st9" d="M273.59,94.38l-4.93-7.29l-1.73,3.57c-0.42-0.19-0.84-0.38-1.26-0.56l-0.35,0.81c0.41,0.18,0.81,0.36,1.22,0.54
	l-1.73,3.55L273.59,94.38z"/>
</svg>
