<svg width="3000" height="3800" viewBox="0 0 430 488" fill="none" xmlns="http://www.w3.org/2000/svg">
<path d="M351.6 394.476L352.069 394.754C351.463 395.777 350.856 396.827 350.25 397.954L349.77 397.696C349.486 398.223 349.202 398.768 348.918 399.335C348.677 399.776 348.434 400.216 348.189 400.655L348.664 400.921C348.169 401.806 347.665 402.686 347.154 403.558L346.683 403.283C346.171 404.156 345.651 405.023 345.123 405.883L345.587 406.168C345.056 407.033 344.517 407.892 343.97 408.743L343.512 408.449C342.965 409.3 342.411 410.144 341.849 410.981L342.301 411.285C341.735 412.128 341.161 412.964 340.579 413.793L340.133 413.48C339.552 414.308 338.964 415.129 338.368 415.943L338.807 416.265C338.208 417.083 337.6 417.895 336.985 418.699L336.552 418.368C335.938 419.172 335.316 419.968 334.686 420.757L335.112 421.097C334.48 421.89 333.839 422.676 333.192 423.454L332.773 423.106C332.126 423.883 331.472 424.653 330.811 425.415L331.223 425.772C330.557 426.539 329.885 427.298 329.205 428.049L328.801 427.684C328.123 428.433 327.438 429.175 326.746 429.909L327.142 430.283C326.446 431.021 325.743 431.752 325.033 432.474L324.644 432.092C323.936 432.813 323.22 433.526 322.497 434.231L322.878 434.621C322.152 435.33 321.419 436.03 320.68 436.723L320.307 436.325C319.57 437.016 318.825 437.698 318.074 438.372L318.438 438.778C317.683 439.456 316.922 440.125 316.153 440.786L315.798 440.373C315.032 441.033 314.26 441.684 313.481 442.326L313.828 442.746C313.046 443.392 312.257 444.029 311.462 444.657L311.124 444.23C310.331 444.856 309.532 445.474 308.727 446.084L309.056 446.518C308.247 447.131 307.433 447.734 306.612 448.328L306.292 447.887C305.474 448.48 304.65 449.064 303.82 449.639L304.131 450.087C303.297 450.665 302.458 451.233 301.613 451.793L301.312 451.339C300.469 451.896 299.621 452.445 298.768 452.985L299.059 453.445C298.202 453.987 297.34 454.52 296.472 455.044L296.19 454.577C295.325 455.099 294.455 455.612 293.579 456.115L293.851 456.587C292.972 457.093 292.088 457.589 291.198 458.075L290.937 457.597C290.051 458.082 289.16 458.557 288.263 459.023L288.515 459.507C287.615 459.974 286.711 460.432 285.802 460.881L285.561 460.392C284.655 460.839 283.744 461.276 282.829 461.704L283.06 462.197C282.142 462.627 281.218 463.046 280.291 463.456L280.07 462.957C279.147 463.365 278.219 463.763 277.286 464.152L277.496 464.655C276.56 465.044 275.62 465.424 274.676 465.794L274.477 465.287C273.537 465.655 272.592 466.013 271.644 466.362L271.832 466.873C270.881 467.223 269.926 467.562 268.967 467.892L268.79 467.376C267.835 467.704 266.876 468.022 265.914 468.33L266.08 468.849C265.114 469.158 264.145 469.456 263.172 469.745L263.017 469.222C262.05 469.509 261.079 469.786 260.104 470.052L260.248 470.578C259.271 470.845 258.29 471.102 257.306 471.349L257.174 470.82C256.194 471.065 255.212 471.301 254.226 471.526L254.347 472.057C253.36 472.282 252.369 472.497 251.376 472.701L251.266 472.168C250.278 472.371 249.287 472.564 248.292 472.747L248.391 473.283C247.394 473.466 246.395 473.638 245.392 473.801L245.305 473.263C244.31 473.424 243.312 473.574 242.311 473.714L242.386 474.254C241.383 474.395 240.378 474.525 239.37 474.644L239.306 474.103C238.304 474.221 237.299 474.33 236.292 474.427L236.344 474.97C235.337 475.067 234.328 475.154 233.316 475.231L233.275 474.687C232.771 474.725 232.266 474.761 231.761 474.794L231.749 474.795L231.737 474.796C231.292 474.845 230.846 474.889 230.401 474.926L230.447 475.469C229.544 475.546 228.642 475.601 227.74 475.64L227.716 475.096C226.818 475.135 225.92 475.158 225.02 475.172L225.028 475.717C224.124 475.731 223.22 475.736 222.316 475.738L222.315 475.193C221.863 475.194 221.412 475.194 220.959 475.194C220.445 475.194 219.931 475.191 219.418 475.186L219.413 475.731C218.383 475.721 217.356 475.701 216.331 475.671L216.347 475.127C215.325 475.097 214.306 475.057 213.29 475.008L213.264 475.553C212.234 475.503 211.207 475.443 210.183 475.373L210.22 474.829C209.198 474.76 208.179 474.681 207.162 474.591L207.115 475.134C206.092 475.045 205.072 474.945 204.055 474.836L204.113 474.294C203.093 474.184 202.075 474.065 201.061 473.936L200.992 474.476C199.974 474.347 198.959 474.207 197.947 474.058L198.027 473.519C197.012 473.37 196.001 473.21 194.993 473.041L194.903 473.579C193.889 473.409 192.879 473.229 191.872 473.04L191.972 472.504C190.967 472.316 189.966 472.117 188.968 471.909L188.857 472.443C187.849 472.233 186.845 472.013 185.844 471.783L185.966 471.252C184.969 471.024 183.975 470.786 182.986 470.538L182.853 471.067C181.856 470.818 180.863 470.559 179.873 470.29L180.016 469.764C179.027 469.496 178.043 469.219 177.062 468.932L176.909 469.455C175.925 469.167 174.944 468.869 173.967 468.562L174.131 468.042C173.153 467.735 172.179 467.419 171.209 467.093L171.036 467.609C170.063 467.282 169.094 466.946 168.129 466.6L168.313 466.087C167.349 465.742 166.39 465.388 165.435 465.024L165.241 465.533C164.281 465.168 163.325 464.793 162.374 464.409L162.578 463.904C161.63 463.522 160.686 463.13 159.747 462.729L159.533 463.231C158.588 462.827 157.647 462.415 156.711 461.994L156.935 461.497C156.002 461.077 155.074 460.648 154.151 460.211L153.918 460.703C152.99 460.263 152.067 459.814 151.149 459.357L151.392 458.869C150.476 458.413 149.565 457.947 148.659 457.474L148.406 457.956C147.497 457.481 146.593 456.996 145.694 456.504L145.957 456.026C145.059 455.533 144.166 455.033 143.28 454.523L143.008 454.996C142.118 454.485 141.234 453.965 140.355 453.437L140.635 452.97C139.758 452.443 138.886 451.908 138.02 451.365L137.731 451.826C136.861 451.28 135.997 450.726 135.139 450.164L135.438 449.708C134.582 449.148 133.733 448.579 132.889 448.003L132.581 448.453C131.734 447.873 130.892 447.286 130.056 446.69L130.372 446.246C129.539 445.653 128.712 445.052 127.892 444.442L127.567 444.88C126.743 444.268 125.924 443.648 125.113 443.021L125.446 442.589C124.637 441.964 123.834 441.331 123.037 440.69L122.695 441.114C121.896 440.471 121.103 439.82 120.316 439.161L120.666 438.743C119.881 438.087 119.104 437.423 118.332 436.751L117.974 437.162C117.201 436.488 116.433 435.807 115.673 435.118L116.039 434.714C115.28 434.028 114.529 433.334 113.785 432.633L113.411 433.029C112.664 432.326 111.923 431.615 111.19 430.897L111.571 430.508C110.841 429.792 110.117 429.07 109.4 428.34L109.011 428.722C108.292 427.99 107.58 427.251 106.875 426.506L107.271 426.131C106.569 425.388 105.874 424.638 105.186 423.881L104.783 424.247C104.092 423.488 103.41 422.722 102.734 421.949L103.145 421.591C102.472 420.821 101.806 420.044 101.148 419.261L100.731 419.612C100.071 418.826 99.4185 418.034 98.7737 417.236L99.1977 416.893C98.5553 416.098 97.9206 415.296 97.2936 414.488L96.863 414.822C96.2339 414.011 95.6126 413.194 94.9992 412.371L95.4363 412.045C94.8256 411.226 94.2227 410.4 93.6278 409.568L93.1845 409.885C92.5876 409.05 91.9986 408.21 91.4178 407.363L91.8672 407.055C91.2889 406.212 90.7187 405.363 90.1567 404.509L89.7013 404.808C89.1376 403.951 88.5821 403.088 88.0349 402.22L88.496 401.929C87.9509 401.064 87.414 400.193 86.8856 399.317L86.4189 399.598C85.8894 398.72 85.3683 397.837 84.8557 396.948L85.3279 396.676C84.8171 395.79 84.3147 394.898 83.8209 394.002L83.3435 394.265C82.8489 393.367 82.3629 392.463 81.8856 391.555L82.368 391.301C81.8926 390.396 81.4259 389.486 80.9679 388.571L80.4805 388.815C80.0213 387.898 79.5709 386.975 79.1293 386.048L79.6213 385.814C79.1823 384.891 78.752 383.964 78.3307 383.033L77.8341 383.257C77.4112 382.322 76.9973 381.382 76.5925 380.437L77.0934 380.223C76.6912 379.284 76.2979 378.341 75.9137 377.393L75.4086 377.598C75.0233 376.648 74.6471 375.693 74.2801 374.733L74.7891 374.539C74.4239 373.584 74.0679 372.625 73.721 371.662L73.2082 371.846C72.8612 370.882 72.5235 369.914 72.195 368.942L72.7113 368.767C72.384 367.798 72.066 366.825 71.7574 365.848L71.2377 366.012C70.9293 365.036 70.6302 364.055 70.3406 363.071L70.8635 362.917C70.5752 361.937 70.2962 360.953 70.0268 359.965L69.501 360.108C69.2312 359.119 68.9708 358.126 68.7201 357.129L69.2486 356.996C68.9998 356.006 68.7605 355.013 68.5307 354.017L67.9997 354.139C67.7691 353.139 67.5482 352.135 67.337 351.128L67.8704 351.016C67.6611 350.018 67.4614 349.017 67.2714 348.012L66.7359 348.113C66.5455 347.106 66.3647 346.096 66.1938 345.082L66.7312 344.992C66.5613 343.984 66.401 342.973 66.2506 341.959L65.7115 342.038C65.5614 341.027 65.4211 340.012 65.2906 338.994L65.8312 338.925C65.7011 337.911 65.5809 336.893 65.4706 335.873L64.9287 335.932C64.8187 334.915 64.7185 333.895 64.6281 332.872L65.171 332.824C65.0813 331.808 65.0014 330.788 64.9313 329.767L64.3876 329.804C64.3174 328.78 64.2572 327.753 64.2069 326.724L64.7513 326.697C64.7017 325.68 64.6619 324.661 64.632 323.64L64.0872 323.656C64.0572 322.631 64.0371 321.604 64.0271 320.574L64.572 320.569C64.5688 320.237 64.5666 319.905 64.5655 319.573H65.4801V319.028H68.4013V319.573H71.3224V319.028H74.2436V319.573H77.1648V319.028H80.0859V319.573H83.0071V319.028H85.9282V319.573H88.8494V319.028H91.7706V319.573H94.6917V319.028H97.6129V319.573H100.534V319.028H103.455V319.573H106.376V319.028H109.298V319.573H112.219V319.028H115.14V319.573H116.6C117.178 319.573 117.75 319.594 118.315 319.636L118.355 319.092C119.539 319.179 120.697 319.355 121.824 319.617L121.701 320.148C122.82 320.408 123.908 320.756 124.958 321.189L125.166 320.685C126.247 321.131 127.29 321.665 128.288 322.285L128.001 322.748C128.961 323.344 129.88 324.022 130.752 324.781L131.11 324.37C131.979 325.126 132.802 325.959 133.574 326.868L133.159 327.221C133.525 327.652 133.88 328.102 134.223 328.569L135.125 329.807L135.566 329.486L137.372 331.966L136.931 332.287L138.738 334.767L139.178 334.446L140.984 336.926L140.544 337.247L142.35 339.727L142.791 339.406L144.597 341.886L144.156 342.207L145.962 344.687L146.403 344.366L148.209 346.846L147.769 347.166L149.575 349.646L150.015 349.326L151.822 351.805L151.381 352.126L153.187 354.606L153.628 354.285L155.434 356.765L154.993 357.086L156.8 359.566L157.24 359.245L159.046 361.725L158.606 362.046L160.412 364.526L160.853 364.205L162.659 366.685L162.218 367.006L163.121 368.245C163.435 368.677 163.753 369.104 164.077 369.526L164.509 369.194C165.155 370.036 165.819 370.856 166.502 371.655L166.088 372.009C166.782 372.822 167.496 373.613 168.227 374.382L168.622 374.007C169.351 374.774 170.098 375.52 170.862 376.243L170.488 376.639C171.264 377.373 172.057 378.085 172.866 378.773L173.219 378.358C174.025 379.043 174.847 379.706 175.684 380.345L175.353 380.778C176.202 381.426 177.065 382.05 177.943 382.649L178.25 382.199C179.124 382.795 180.011 383.368 180.911 383.915L180.627 384.381C181.538 384.935 182.463 385.465 183.399 385.97L183.658 385.49C184.588 385.991 185.53 386.468 186.483 386.919L186.25 387.411C187.213 387.867 188.188 388.298 189.172 388.702L189.379 388.198C190.356 388.6 191.343 388.975 192.338 389.325L192.157 389.839C193.162 390.193 194.176 390.519 195.198 390.82L195.351 390.297C196.364 390.595 197.384 390.866 198.411 391.111L198.285 391.641C199.32 391.888 200.363 392.109 201.41 392.302L201.509 391.766C202.546 391.957 203.589 392.121 204.636 392.258L204.566 392.799C205.621 392.937 206.68 393.048 207.743 393.132L207.785 392.588C208.837 392.671 209.891 392.726 210.947 392.753L210.933 393.298C211.465 393.312 211.998 393.319 212.53 393.319C213.058 393.319 213.586 393.313 214.114 393.3L214.1 392.755C215.147 392.729 216.193 392.678 217.237 392.601L217.277 393.145C218.33 393.067 219.381 392.963 220.429 392.833L220.361 392.292C221.4 392.163 222.435 392.008 223.467 391.826L223.561 392.363C224.601 392.18 225.636 391.971 226.666 391.735L226.544 391.203C227.564 390.97 228.578 390.71 229.586 390.423L229.735 390.947C230.75 390.658 231.758 390.342 232.759 390L232.582 389.484C233.571 389.145 234.552 388.78 235.524 388.387L235.728 388.893C236.706 388.498 237.675 388.077 238.634 387.628L238.403 387.134C239.349 386.692 240.285 386.223 241.21 385.727L241.468 386.207C242.396 385.709 243.314 385.185 244.219 384.633L243.936 384.167C244.826 383.625 245.705 383.056 246.57 382.46L246.879 382.909C247.314 382.61 247.745 382.305 248.173 381.992L247.852 381.552L248.173 381.992C248.604 381.678 249.029 381.359 249.449 381.035L249.116 380.604C249.953 379.959 250.769 379.296 251.563 378.617L251.918 379.031C252.727 378.338 253.514 377.628 254.28 376.901L253.904 376.506C254.669 375.779 255.412 375.036 256.132 374.277L256.528 374.652C257.26 373.88 257.97 373.092 258.656 372.288L258.242 371.934C258.926 371.133 259.588 370.316 260.225 369.485L260.658 369.817C261.305 368.973 261.928 368.115 262.527 367.244L262.078 366.935C262.675 366.067 263.247 365.186 263.795 364.292L264.26 364.577C264.815 363.671 265.346 362.753 265.851 361.824L265.372 361.563C265.875 360.638 266.353 359.702 266.805 358.756L267.297 358.991C267.755 358.033 268.187 357.064 268.594 356.086L268.091 355.877C268.494 354.906 268.873 353.925 269.225 352.936L269.738 353.119C270.094 352.119 270.424 351.111 270.728 350.096L270.206 349.94C270.507 348.932 270.782 347.918 271.03 346.897L271.56 347.026C271.811 345.996 272.035 344.959 272.232 343.918L271.697 343.816C271.893 342.784 272.062 341.746 272.204 340.705L272.744 340.779C272.887 339.728 273.004 338.674 273.093 337.618L272.55 337.572C272.638 336.525 272.699 335.476 272.733 334.425L273.278 334.443C273.312 333.383 273.319 332.323 273.299 331.262L272.754 331.273C272.734 330.223 272.686 329.173 272.611 328.123L273.155 328.085C273.079 327.028 272.976 325.972 272.845 324.919L272.305 324.986C272.175 323.944 272.019 322.905 271.835 321.869L272.371 321.773C272.186 320.731 271.974 319.692 271.733 318.658L271.202 318.781C270.965 317.76 270.701 316.742 270.409 315.73L270.932 315.579C270.639 314.563 270.319 313.552 269.971 312.548L269.456 312.726C269.113 311.736 268.742 310.753 268.345 309.776L268.85 309.571C268.452 308.592 268.027 307.621 267.574 306.657L267.081 306.889C266.636 305.942 266.164 305.003 265.666 304.073L266.147 303.815C265.648 302.885 265.123 301.963 264.572 301.052L264.105 301.334C263.564 300.44 262.997 299.555 262.404 298.681L262.854 298.375C262.557 297.937 262.253 297.501 261.942 297.068L261.94 297.066L261.026 295.802L260.584 296.121L258.755 293.593L259.196 293.274L257.367 290.746L256.926 291.065L255.096 288.537L255.538 288.217L253.708 285.689L253.267 286.009L251.437 283.481L251.879 283.161L250.05 280.633L249.608 280.953L247.779 278.425L248.22 278.105L246.391 275.577L245.949 275.897L244.12 273.368L244.561 273.049L242.732 270.521L242.291 270.84L240.461 268.312L240.903 267.993L239.073 265.465L238.632 265.784L236.802 263.256L237.244 262.937L235.415 260.409L234.973 260.728L233.144 258.2L233.585 257.88L231.756 255.352L231.314 255.672L229.485 253.144L229.926 252.824L228.097 250.296L227.656 250.616L225.826 248.088L226.268 247.768L224.438 245.24L223.997 245.559L222.167 243.031L222.609 242.712L220.78 240.184L220.338 240.503L218.509 237.975L218.95 237.656L217.121 235.128L216.679 235.447L214.85 232.919L215.292 232.6L213.462 230.071L213.021 230.391L211.191 227.863L211.633 227.543L209.803 225.015L209.362 225.335L207.532 222.807L207.974 222.487L206.145 219.959L205.703 220.279L203.874 217.75L204.315 217.431L202.486 214.903L202.044 215.222L200.215 212.694L200.657 212.375L198.827 209.847L198.386 210.166L196.556 207.638L196.998 207.319L195.168 204.791L194.727 205.11L192.898 202.582L193.339 202.262L191.51 199.734L191.068 200.054L189.239 197.526L189.68 197.206L187.851 194.678L187.409 194.998L185.58 192.47L186.022 192.15L184.192 189.622L183.751 189.942L181.921 187.413L182.363 187.094L180.533 184.566L180.092 184.885L178.263 182.357L178.704 182.038L176.875 179.51L176.433 179.829L174.604 177.301L175.045 176.982L173.216 174.453L172.774 174.773L170.945 172.245L171.387 171.925L169.557 169.397L169.116 169.717L167.286 167.189L167.728 166.869L166.839 165.641L166.658 165.28L166.171 165.524L165.77 164.722L166.257 164.478L166.056 164.078L166.05 164.066L166.044 164.055C165.803 163.625 165.57 163.193 165.344 162.758L164.86 163.009C164.4 162.122 163.972 161.227 163.575 160.325L164.074 160.105C163.678 159.202 163.313 158.29 162.98 157.373L162.468 157.559C162.128 156.621 161.821 155.678 161.547 154.729L162.07 154.578C161.796 153.631 161.556 152.68 161.347 151.726L160.815 151.842C160.603 150.868 160.424 149.892 160.278 148.914L160.817 148.833C160.672 147.86 160.56 146.886 160.481 145.911L159.938 145.955C159.857 144.964 159.81 143.972 159.796 142.981L160.341 142.973C160.327 141.991 160.346 141.01 160.397 140.032L159.853 140.004C159.905 139.012 159.99 138.022 160.108 137.037L160.649 137.102C160.765 136.128 160.914 135.158 161.095 134.194L160.559 134.094C160.742 133.118 160.957 132.149 161.205 131.187L161.732 131.323C161.976 130.374 162.252 129.432 162.558 128.5L162.041 128.329C162.35 127.387 162.691 126.455 163.063 125.533L163.569 125.737C163.935 124.829 164.332 123.931 164.759 123.046L164.268 122.81C164.698 121.917 165.158 121.038 165.649 120.172L166.123 120.44C166.605 119.589 167.116 118.751 167.655 117.928L167.199 117.629C167.742 116.802 168.313 115.99 168.913 115.195L169.348 115.523C169.936 114.742 170.552 113.978 171.195 113.231L170.782 112.875C171.426 112.127 172.098 111.396 172.796 110.684L173.185 111.066C173.869 110.369 174.578 109.69 175.313 109.031L174.949 108.625C175.683 107.967 176.443 107.328 177.227 106.71L177.565 107.138C177.948 106.836 178.337 106.539 178.732 106.248C179.166 105.942 179.604 105.645 180.044 105.356L179.746 104.9C180.649 104.308 181.565 103.752 182.494 103.231L182.76 103.706C183.691 103.184 184.633 102.698 185.586 102.247L185.353 101.754C186.327 101.293 187.312 100.868 188.305 100.48L188.503 100.988C189.495 100.6 190.496 100.249 191.503 99.9346L191.341 99.4143C192.368 99.0935 193.403 98.8101 194.443 98.5638L194.568 99.0941C195.603 98.849 196.642 98.6412 197.685 98.4702L197.597 97.9324C198.658 97.7584 199.722 97.6221 200.787 97.5234L200.837 98.0661C201.895 97.968 202.953 97.9074 204.011 97.8837L203.998 97.3389C205.072 97.3149 206.145 97.3286 207.215 97.3799L207.189 97.9242C208.248 97.975 209.305 98.0629 210.356 98.1877L210.42 97.6465C211.486 97.773 212.546 97.9369 213.599 98.138L213.497 98.6733C214.538 98.8721 215.572 99.1076 216.596 99.3795L216.735 98.8527C217.772 99.1279 218.798 99.4398 219.813 99.7882L219.636 100.304C220.637 100.647 221.627 101.027 222.603 101.443L222.816 100.941C223.801 101.36 224.773 101.816 225.728 102.306L225.479 102.791C226.419 103.274 227.344 103.792 228.251 104.344L228.535 103.879C229.448 104.435 230.343 105.025 231.219 105.65L230.902 106.094C231.761 106.707 232.601 107.353 233.42 108.033L233.768 107.614C234.589 108.295 235.388 109.009 236.165 109.756L235.787 110.149C236.547 110.879 237.284 111.64 237.997 112.433L238.402 112.069C239.114 112.861 239.802 113.683 240.464 114.536L240.034 114.87C240.358 115.287 240.676 115.712 240.988 116.144L240.988 116.145L241.895 117.399L242.337 117.08L244.15 119.589L243.709 119.908L245.522 122.417L245.964 122.097L247.778 124.606L247.336 124.925L249.15 127.434L249.591 127.115L251.405 129.623L250.963 129.943L252.777 132.451L253.219 132.132L255.032 134.641L254.591 134.96L256.404 137.469L256.846 137.149L258.66 139.658L258.218 139.977L260.031 142.486L260.473 142.167L262.287 144.675L261.845 144.995L263.659 147.503L264.1 147.184L265.914 149.693L265.472 150.012L267.286 152.521L267.728 152.201L269.541 154.71L269.1 155.029L270.913 157.538L271.355 157.219L273.169 159.727L272.727 160.047L274.541 162.555L274.982 162.236L276.796 164.745L276.354 165.064L278.168 167.573L278.61 167.253L280.423 169.762L279.982 170.081L281.795 172.59L282.237 172.271L284.051 174.779L283.609 175.099L285.422 177.607L285.864 177.288L287.678 179.797L287.236 180.116L289.05 182.625L289.491 182.305L291.305 184.814L290.863 185.133L292.677 187.642L293.119 187.323L294.932 189.831L294.491 190.151L296.304 192.659L296.746 192.34L298.56 194.849L298.118 195.168L299.932 197.677L300.373 197.357L302.187 199.866L301.745 200.185L303.559 202.694L304.001 202.375L305.814 204.883L305.373 205.203L307.186 207.711L307.628 207.392L309.442 209.901L309 210.22L310.814 212.729L311.255 212.41L313.069 214.918L312.627 215.237L314.441 217.746L314.882 217.427L316.696 219.936L316.254 220.255L318.068 222.764L318.51 222.444L320.323 224.953L319.882 225.272L321.695 227.781L322.137 227.462L323.951 229.97L323.509 230.29L325.323 232.798L325.764 232.479L327.578 234.988L327.136 235.307L328.95 237.816L329.392 237.496L331.205 240.005L330.764 240.324L332.577 242.833L333.019 242.514L334.833 245.022L334.391 245.342L336.205 247.85L336.646 247.531L338.46 250.04L338.018 250.359L338.925 251.613L338.926 251.615C339.232 252.034 339.535 252.455 339.836 252.877L340.28 252.561C340.884 253.409 341.478 254.262 342.062 255.12L341.611 255.427C342.195 256.285 342.768 257.148 343.332 258.017L343.789 257.721C344.355 258.594 344.911 259.473 345.457 260.357L344.994 260.643C345.539 261.525 346.073 262.412 346.598 263.304L347.067 263.028C347.595 263.926 348.113 264.828 348.62 265.736L348.144 266.002C348.65 266.907 349.145 267.817 349.63 268.731L350.111 268.476C350.599 269.395 351.076 270.319 351.542 271.247L351.056 271.492C351.521 272.419 351.976 273.35 352.421 274.285L352.913 274.051C353.36 274.991 353.796 275.935 354.222 276.883L353.724 277.106C354.149 278.052 354.563 279.002 354.965 279.955L355.467 279.743C355.873 280.702 356.267 281.665 356.651 282.631L356.144 282.832C356.527 283.795 356.898 284.762 357.259 285.733L357.77 285.543C358.133 286.518 358.484 287.497 358.825 288.479L358.31 288.657C358.65 289.637 358.979 290.62 359.296 291.605L359.815 291.438C360.134 292.428 360.443 293.422 360.74 294.418L360.217 294.573C360.514 295.566 360.799 296.562 361.073 297.561L361.598 297.417C361.874 298.42 362.138 299.426 362.391 300.435L361.862 300.567C362.114 301.573 362.355 302.58 362.585 303.59L363.116 303.469C363.347 304.484 363.566 305.5 363.774 306.519L363.24 306.628C363.447 307.643 363.643 308.661 363.828 309.68L364.364 309.583C364.55 310.606 364.724 311.632 364.886 312.659L364.348 312.744C364.51 313.767 364.66 314.792 364.799 315.819L365.339 315.745C365.479 316.776 365.607 317.809 365.723 318.842L365.182 318.903C365.298 319.933 365.402 320.963 365.495 321.995L366.038 321.946C366.131 322.982 366.212 324.019 366.282 325.056L365.739 325.093C365.808 326.127 365.866 327.161 365.912 328.196L366.457 328.171C366.503 329.211 366.538 330.25 366.561 331.29L366.016 331.302C366.039 332.337 366.05 333.373 366.049 334.409L366.594 334.41C366.593 335.449 366.581 336.489 366.556 337.529L366.012 337.516C365.987 338.552 365.951 339.587 365.903 340.622L366.448 340.647C366.399 341.686 366.339 342.725 366.267 343.762L365.724 343.725C365.652 344.758 365.568 345.79 365.473 346.822L366.016 346.872C365.92 347.907 365.812 348.941 365.692 349.975L365.151 349.912C365.032 350.941 364.9 351.969 364.757 352.995L365.297 353.07C365.153 354.1 364.998 355.128 364.83 356.155L364.292 356.067C364.126 357.088 363.947 358.109 363.756 359.127L364.292 359.228C364.1 360.249 363.897 361.27 363.681 362.288L363.148 362.175C362.934 363.188 362.708 364.198 362.469 365.207L363 365.332C362.761 366.343 362.51 367.352 362.247 368.359L361.719 368.222C361.458 369.223 361.184 370.223 360.898 371.219L361.422 371.37C361.136 372.368 360.838 373.364 360.528 374.357L360.007 374.195C359.699 375.182 359.379 376.167 359.046 377.149L359.562 377.324C359.229 378.308 358.884 379.29 358.526 380.269L358.014 380.082C357.66 381.053 357.293 382.021 356.914 382.986L357.422 383.185C357.042 384.152 356.651 385.115 356.248 386.075L355.745 385.864C355.345 386.818 354.932 387.769 354.507 388.716L355.004 388.939C354.58 389.886 354.144 390.829 353.695 391.769L353.203 391.534C352.983 391.995 352.76 392.455 352.535 392.914C352.224 393.431 351.912 393.95 351.6 394.476Z" fill="white" stroke="#282828" stroke-width="1.09" stroke-dasharray="3.09 3.09"/>
<path d="M239.02 369.131C259.089 354.702 263.504 326.647 249.054 306.206L153.526 173.544C153.124 173.143 152.723 172.742 152.723 172.341L152.322 171.54C140.682 150.298 142.287 123.845 157.54 105.008C183.629 72.5436 231.394 75.75 253.871 107.012L283.172 147.492C287.587 153.504 294.009 156.71 301.234 156.71H353.815C353.815 70.5396 283.573 0 196.875 0C193.263 0 189.65 -9.7856e-05 186.038 0.400696C136.668 3.60705 92.5159 32.0635 68.4331 76.1508C67.2289 78.1548 66.4261 80.1588 65.2219 82.1627C42.7446 127.853 48.7654 182.361 78.4676 223.643L176.003 358.71C190.854 379.151 218.951 383.56 239.02 369.131Z" fill="#E8EFFF"/>
<path d="M88.3388 109.023C82.8499 109.023 78.4131 113.454 78.4131 118.935C78.4131 124.416 82.8499 128.846 88.3388 128.846C93.8278 128.846 98.2646 124.416 98.2646 118.935C98.2646 113.454 93.8278 109.023 88.3388 109.023ZM93.3017 122.493L91.9022 123.89L88.3388 120.332L84.7755 123.89L83.376 122.493L86.9393 118.935L83.376 115.377L84.7755 113.979L88.3388 117.537L91.9022 113.979L93.3017 115.377L89.7384 118.935L93.3017 122.493Z" fill="#EF293D"/>
<path d="M184.822 211.896C179.297 209.531 173.389 214.562 170.375 219.753C167.362 224.945 164.93 231.218 159.425 233.624C155.145 235.488 150.222 234.425 145.541 234.606C131.174 235.167 120.043 247.534 113.593 260.362C109.574 268.38 106.641 277.58 109.313 286.098C111.664 293.595 117.993 299.167 124.584 303.456C137.827 312.296 153.528 316.742 169.451 316.164C177.366 315.804 185.122 313.829 192.242 310.361C199.361 306.893 205.692 302.005 210.843 296C218.578 286.539 222.697 274.573 224.486 262.507C226.274 250.44 225.872 238.174 225.47 225.987" fill="#263238"/>
<path d="M122.654 275.075C122.755 275.075 122.654 273.772 122.896 271.507C123.232 268.287 124.137 265.152 125.568 262.247C127.67 257.941 130.778 254.202 134.63 251.343C139.388 247.874 144.892 245.561 150.704 244.588C156.832 243.485 162.941 244.047 168.426 242.884C173.261 241.829 177.732 239.52 181.386 236.19C183.836 233.994 186.033 231.534 187.936 228.853C188.599 227.911 189.102 227.17 189.423 226.629C189.596 226.369 189.744 226.094 189.865 225.807C189.063 226.7 188.312 227.637 187.615 228.613C185.608 231.16 183.361 233.509 180.904 235.628C177.302 238.8 172.931 240.976 168.225 241.942C162.941 243.024 156.853 242.443 150.523 243.566C144.561 244.559 138.924 246.964 134.087 250.581C130.147 253.556 127.001 257.452 124.925 261.926C123.532 264.928 122.714 268.164 122.514 271.467C122.448 272.354 122.448 273.245 122.514 274.132C122.514 274.452 122.561 274.769 122.654 275.075V275.075Z" fill="#455A64"/>
<mask id="mask0_1620_20063" style="mask-type:alpha" maskUnits="userSpaceOnUse" x="26" y="248" width="404" height="240">
<path d="M66.7361 248.877L87.8939 327.89L130.853 281.789C150.622 268.9 173.973 262.586 197.561 263.75V263.75L264.39 260.643L301.28 273.892C310.165 277.111 318.69 281.242 326.718 286.219L398.61 335.707C413.821 346.671 426.318 355.049 429.252 371.786C433.11 393.834 421.918 418.548 398.63 422.637L296.94 423.86L293.806 488L133.967 473.168L138.247 376.376C105.616 401.451 90.285 411.212 65.7315 406.442C57.5536 404.858 45.8596 396.279 42.062 383.572C28.4993 338.273 26.1886 267.017 26.1886 267.017L66.7361 248.877ZM317.415 362.265L308.132 359.639L307.549 362.987L317.415 362.265Z" fill="#263238"/>
</mask>
<g mask="url(#mask0_1620_20063)">
<path d="M-20.1562 299.312C-20.1562 220.193 139.818 192.808 219.053 192.808C298.287 192.808 460.234 311.602 460.234 390.721C460.234 406.107 412.536 422.56 405.644 438.522C396.071 460.696 342.656 491.355 314.101 441.876C287.836 471.101 261.473 479.321 219.053 479.321C167.618 479.321 122.505 452.294 97.1805 411.686H56.1627C33.8065 414.882 10.3788 418.583 8.39862 411.686C4.79058 399.121 -20.1562 313.035 -20.1562 299.312Z" fill="#5487A1"/>
</g>
<path d="M400.137 422.677H399.273H396.761H387.056L351.331 422.577H233.044L233.567 423.078C233.567 421.916 233.446 420.673 233.386 419.43C232.642 403.496 231.919 388.082 231.256 373.75L230.794 374.292C266.78 370.944 297.623 365.773 319.624 362.987C330.635 361.544 339.436 360.582 345.464 359.88L352.376 359.118L354.164 358.898L354.767 358.798H354.144L352.356 358.938L345.424 359.539C339.396 360.121 330.575 361.003 319.544 362.366C297.442 364.971 266.66 370.002 230.713 373.289H230.231V373.771C230.894 388.082 231.598 403.516 232.241 419.45C232.241 420.693 232.361 421.936 232.421 423.078V423.579H232.924L351.211 423.179L387.137 422.918L396.841 422.798H399.353C399.617 422.779 399.879 422.739 400.137 422.677V422.677Z" fill="#263238"/>
<path d="M398.088 354.147C397.589 353.8 397.04 353.529 396.46 353.345C394.931 352.723 393.36 352.207 391.759 351.802C381.057 349.071 369.732 350.207 359.791 355.009C358.299 355.718 356.862 356.535 355.491 357.454C354.959 357.753 354.473 358.124 354.044 358.557C354.165 358.717 356.315 357.314 360.072 355.671C369.982 351.348 381.005 350.247 391.578 352.524C395.616 353.386 398.028 354.328 398.088 354.147Z" fill="#263238"/>
<path d="M375.966 335.727C374.414 336.316 372.942 337.097 371.586 338.052C368.209 340.166 364.992 342.524 361.961 345.108C358.465 348.134 355.25 351.121 353.924 353.987C353.366 355.107 353.084 356.344 353.1 357.595C353.084 358.054 353.187 358.51 353.402 358.918C353.43 357.319 353.829 355.748 354.567 354.328C356.766 351.102 359.481 348.258 362.604 345.909C366.12 342.903 369.496 340.417 371.967 338.673C373.382 337.807 374.72 336.821 375.966 335.727V335.727Z" fill="#263238"/>
<path d="M306.766 363.368C307.537 361.328 308.142 359.23 308.574 357.094C309.579 353.205 310.905 347.813 312.593 341.921C314.281 336.028 315.928 330.736 317.315 326.968C318.701 323.2 319.626 320.955 319.485 320.834C319.107 321.293 318.802 321.807 318.581 322.358C318.058 323.36 317.395 324.843 316.571 326.707C314.607 331.583 312.93 336.569 311.548 341.64C309.921 347.653 308.715 353.005 307.891 356.933C307.341 359.044 306.964 361.196 306.766 363.368V363.368Z" fill="#263238"/>
<path d="M136.177 421.274C136.459 421.274 137.604 397.221 138.749 367.496C139.895 337.771 140.578 313.659 140.276 313.659C139.975 313.659 138.83 337.711 137.705 367.456C136.579 397.201 135.876 421.274 136.177 421.274Z" fill="#263238"/>
<g opacity="0.3">
<path d="M139.412 324.703C137.744 335.046 133.384 344.747 129.788 354.589C126.191 364.43 123.76 375.154 125.89 385.396L137.945 375.755" fill="black"/>
</g>
<path d="M77.4051 370.342C77.7805 369.886 78.0914 369.38 78.3293 368.839C78.8718 367.837 79.555 366.354 80.3386 364.49C84.4924 354.746 86.9978 344.383 87.7529 333.822C87.8936 331.818 87.9337 330.154 87.9136 329.032C87.9441 328.413 87.8901 327.793 87.7529 327.188C87.3654 329.336 87.1037 331.504 86.9693 333.682C85.8524 344.122 83.4152 354.379 79.7157 364.209C78.2691 367.977 77.2644 370.262 77.4051 370.342Z" fill="#263238"/>
<path opacity="0.3" d="M316.651 327.389L314.059 361.323L308.132 359.639L316.651 327.389Z" fill="black"/>
<path d="M143.068 327.188C143.254 327.144 143.43 327.069 143.591 326.968L145.098 326.246C147.015 325.33 148.996 324.553 151.025 323.921C158.493 321.56 166.444 321.159 174.112 322.758C179.368 323.927 184.393 325.959 188.981 328.772C193.984 331.698 199.027 335.426 204.492 339.054C210.162 343.043 216.485 346.014 223.179 347.833C230.407 349.635 237.929 349.942 245.281 348.735C249.001 348.083 252.654 347.09 256.191 345.769C259.609 344.429 262.887 342.757 265.977 340.778C268.941 338.835 271.701 336.599 274.215 334.103C276.588 331.702 278.797 329.144 280.825 326.447C284.844 321.195 288.199 315.964 291.655 311.273C294.743 306.849 298.352 302.812 302.405 299.247C305.779 296.372 309.582 294.039 313.677 292.332C316.776 291.051 320.072 290.312 323.422 290.147C326.282 290.084 329.133 290.491 331.861 291.35L331.339 291.129L329.772 290.588C329.068 290.368 328.164 290.207 327.119 289.987C325.888 289.815 324.646 289.735 323.402 289.746C319.999 289.81 316.636 290.489 313.476 291.751C309.284 293.426 305.385 295.753 301.923 298.646C297.787 302.186 294.108 306.226 290.972 310.672C287.456 315.342 284.06 320.574 280.062 325.745C278.046 328.404 275.858 330.928 273.512 333.302C271.055 335.732 268.362 337.914 265.474 339.816C262.438 341.75 259.222 343.388 255.87 344.706C252.395 346.01 248.802 346.977 245.14 347.593C237.917 348.791 230.525 348.498 223.42 346.731C216.825 344.953 210.59 342.043 204.995 338.132C199.509 334.564 194.486 330.856 189.383 327.91C184.705 325.074 179.584 323.042 174.233 321.897C166.447 320.333 158.385 320.852 150.865 323.4C148.84 324.081 146.871 324.919 144.977 325.905L143.531 326.727L143.068 327.188Z" fill="#FAFAFA"/>
<path d="M103.827 310.812C103.637 311.62 103.563 312.45 103.606 313.278C103.571 315.549 103.759 317.818 104.169 320.053C104.774 323.375 105.85 326.594 107.364 329.614C109.22 333.287 111.441 336.766 113.994 339.996C118.663 345.904 124.63 350.663 131.435 353.907C133.477 354.88 135.594 355.691 137.764 356.332C138.55 356.61 139.366 356.791 140.195 356.873C140.195 356.673 136.82 355.811 131.756 353.245C125.181 349.874 119.405 345.138 114.818 339.355C112.304 336.176 110.097 332.767 108.228 329.173C106.71 326.247 105.588 323.133 104.892 319.912C104.366 316.901 104.01 313.863 103.827 310.812V310.812Z" fill="#FAFAFA"/>
<path d="M79.515 406.482C79.515 406.482 79.7963 406.382 80.2785 406.061C80.9786 405.631 81.6498 405.156 82.2878 404.638C84.7398 402.74 86.9112 400.507 88.7376 398.004C94.6685 389.597 97.835 379.56 97.7995 369.281C97.5901 359.107 95.8354 349.024 92.5955 339.375C91.4502 335.647 90.4254 332.681 89.7021 330.636C89.3629 329.559 88.9465 328.507 88.4563 327.489C88.6581 328.597 88.9401 329.689 89.3002 330.756C89.9633 333.021 90.8474 335.988 91.8922 339.576C94.8948 349.202 96.5315 359.201 96.7547 369.281C96.8018 379.375 93.8208 389.252 88.1951 397.643C85.722 400.973 82.8012 403.947 79.515 406.482V406.482Z" fill="#FAFAFA"/>
<path d="M32.1364 316.705C32.7623 317.137 33.4366 317.493 34.1457 317.768C35.4316 318.369 37.3002 319.191 39.6712 320.073C45.8809 322.437 52.4976 323.554 59.1412 323.36C65.8501 323.101 72.3173 320.792 77.6669 316.746C79.256 315.514 80.6748 314.079 81.8863 312.476C82.3682 311.918 82.7612 311.289 83.0518 310.612C81.29 312.65 79.3315 314.509 77.2047 316.164C71.8972 319.911 65.6175 322.048 59.1211 322.318C52.5996 322.49 46.1001 321.492 39.9324 319.371C35.0699 317.808 32.2167 316.545 32.1364 316.705Z" fill="#FAFAFA"/>
<path d="M331.098 360.962C331.279 360.962 332.083 357.835 333.951 352.945C338.827 340.059 346.586 328.453 356.636 319.01C360.474 315.403 363.086 313.418 362.985 313.278C362.265 313.603 361.589 314.021 360.976 314.521C359.27 315.767 357.633 317.105 356.074 318.529C345.629 327.783 337.754 339.568 333.208 352.744C332.514 354.716 331.923 356.724 331.44 358.757C331.24 359.476 331.125 360.216 331.098 360.962V360.962Z" fill="#FAFAFA"/>
<path d="M307.629 364.41C307.75 364.788 307.926 365.146 308.152 365.472C308.716 366.467 309.354 367.418 310.06 368.318C312.735 371.625 316.058 374.353 319.826 376.336C325.392 379.215 331.391 381.171 337.588 382.128C344.52 383.311 352.255 383.792 360.192 385.075C364.057 385.669 367.863 386.602 371.565 387.861C374.988 389.075 378.259 390.683 381.31 392.651C386.478 396.011 390.975 400.3 394.571 405.299C396.969 408.701 398.939 412.383 400.438 416.263C401.523 419.009 401.865 420.613 401.985 420.572C401.963 420.177 401.888 419.786 401.764 419.41C401.527 418.294 401.212 417.195 400.82 416.123C399.45 412.14 397.551 408.358 395.174 404.878C391.605 399.722 387.076 395.299 381.832 391.85C378.732 389.812 375.4 388.15 371.906 386.899C368.153 385.61 364.294 384.651 360.373 384.033C352.336 382.75 344.62 382.309 337.748 381.186C331.637 380.282 325.704 378.429 320.167 375.694C316.45 373.824 313.129 371.258 310.382 368.138C308.493 365.813 307.73 364.35 307.629 364.41Z" fill="#FAFAFA"/>
<path d="M264.732 369.922C264.411 370.557 264.175 371.231 264.028 371.926C263.502 373.754 263.106 375.616 262.843 377.499C262.451 380.3 262.283 383.129 262.34 385.957C262.48 392.904 263.989 399.756 266.781 406.121C267.909 408.714 269.253 411.209 270.8 413.577C271.83 415.179 272.971 416.706 274.215 418.147C275.12 419.15 275.622 419.691 275.682 419.631C275.742 419.571 273.894 417.266 271.422 413.197C270.001 410.799 268.746 408.308 267.665 405.74C266.379 402.595 265.351 399.351 264.591 396.039C263.881 392.707 263.451 389.321 263.305 385.917C263.194 383.141 263.288 380.361 263.586 377.599C264.109 372.828 264.932 369.962 264.732 369.922Z" fill="#FAFAFA"/>
<path d="M139.512 400.308C143.834 398.468 148.37 397.175 153.014 396.46C157.708 396.076 162.431 396.264 167.079 397.021C165.825 396.371 164.464 395.95 163.061 395.778C156.331 394.49 149.367 395.317 143.128 398.143C141.802 398.642 140.577 399.375 139.512 400.308V400.308Z" fill="#FAFAFA"/>
<path d="M45.7993 199.148L66.0127 249.218L27.9769 266.215L18.2117 223.642L45.7993 199.148Z" fill="#FFBE9D"/>
<path d="M2.15723 248.576L36.3151 206.284C43.207 196.783 54.1778 181.49 54.6801 180.227C55.3833 178.222 55.6445 164.553 55.323 161.085C55.3392 156.635 55.6278 152.191 56.187 147.776L84.3171 158.419L90.3248 136.772L94.1827 137.974C94.1827 137.974 104.37 155.553 101.215 165.555C98.0606 175.557 84.739 180.087 81.4438 182.111C78.1485 184.135 65.6307 189.507 51.5054 210.774L49.2349 214.061L43.5084 222.319L17.3877 259.801C16.6703 260.864 15.7442 261.771 14.6656 262.467C13.587 263.163 12.3781 263.633 11.112 263.85C9.84593 264.067 8.54892 264.026 7.29935 263.728C6.04977 263.431 4.87353 262.884 3.84177 262.121C2.81002 261.357 1.94415 260.393 1.29643 259.287C0.648719 258.18 0.23264 256.954 0.0733117 255.682C-0.0860168 254.411 0.0146928 253.12 0.369419 251.888C0.724146 250.657 1.32554 249.509 2.13717 248.516L2.15723 248.576Z" fill="#455A64"/>
<path d="M69.2476 152.626L76.6016 131.941L73.9493 131.079C73.9493 131.079 60.9693 139.097 58.1763 148.437L69.2476 152.626Z" fill="#455A64"/>
<path d="M77.1045 179.947L76.783 179.806L75.8989 179.405L72.5836 177.922L60.5279 172.47L60.8292 172.29C60.8994 173.511 60.8994 174.736 60.8292 175.958C60.8065 177.34 60.5059 178.703 59.9451 179.967C58.5587 182.332 56.8709 184.657 55.1429 187.142C51.6668 192.053 47.809 197.385 43.7302 202.917C43.1434 203.576 42.7415 204.378 42.5648 205.242C42.4711 205.864 42.5293 206.499 42.7345 207.094C42.9397 207.689 43.2858 208.226 43.7434 208.659C44.201 209.092 44.7566 209.408 45.363 209.581C45.9693 209.754 46.6085 209.778 47.2263 209.651C48.0029 209.475 48.7051 209.062 49.2356 208.469C49.7379 207.848 50.2402 207.106 50.7426 206.465L53.6962 202.456L63.8833 188.746C64.5965 187.813 65.4427 186.989 66.3949 186.3C67.279 185.639 68.1431 185.078 68.9468 184.537C70.5743 183.494 72.021 182.652 73.2065 181.991C74.3919 181.33 75.3363 180.828 75.9592 180.488L76.7026 180.127H76.9638C76.9638 180.127 76.9638 180.127 76.7227 180.267L76.0195 180.688L73.327 182.272C72.1415 182.973 70.735 183.835 69.1276 184.897C68.3239 185.439 67.4599 186.02 66.616 186.681C65.6852 187.352 64.8649 188.164 64.1847 189.087L54.1383 202.857L51.2047 206.865C50.7024 207.547 50.2402 208.208 49.6776 208.87C49.0439 209.549 48.2163 210.018 47.3067 210.213C46.603 210.359 45.8742 210.334 45.1823 210.14C44.4904 209.945 43.8561 209.586 43.3331 209.094C42.8102 208.602 42.4142 207.991 42.179 207.313C41.9438 206.635 41.8762 205.911 41.9821 205.202C42.1758 204.252 42.6118 203.368 43.248 202.636C47.2665 197.104 51.2851 191.792 54.7009 186.882C56.4088 184.416 58.1368 182.071 59.483 179.786C60.0058 178.617 60.2991 177.358 60.347 176.078C60.4268 174.87 60.4268 173.658 60.347 172.45V172.109L60.6484 172.25L72.7041 177.982L75.919 179.546L76.7428 179.947H77.1045Z" fill="#263238"/>
<g opacity="0.3">
<path d="M79.7161 169.864L67.0776 165.194L67.158 158.138L79.917 162.989L79.7161 169.864Z" fill="black"/>
</g>
<path d="M69.8505 157.718C70.3697 159.403 70.5406 161.176 70.3528 162.929C70.5038 164.682 70.2988 166.448 69.7501 168.12C69.2172 166.438 69.046 164.662 69.2478 162.909C69.0968 161.156 69.3018 159.39 69.8505 157.718V157.718Z" fill="#263238"/>
<path d="M73.6882 159.121C74.2045 160.807 74.3686 162.58 74.1704 164.332C74.3334 166.086 74.1281 167.854 73.5676 169.524C73.0473 167.838 72.8831 166.064 73.0854 164.312C72.9225 162.559 73.1277 160.791 73.6882 159.121Z" fill="#263238"/>
<path d="M77.3453 160.023C77.8667 161.708 78.0377 163.481 77.8476 165.234C77.9986 166.988 77.7935 168.753 77.2448 170.426C76.7256 168.74 76.5547 166.967 76.7425 165.214C76.5915 163.461 76.7966 161.695 77.3453 160.023V160.023Z" fill="#263238"/>
<path d="M64.707 245.991L63.3407 236.189L62.4165 210.132L63.4211 191.912C63.4211 191.912 57.3932 192.373 54.0377 200.231C50.6822 208.088 50.6219 220.094 50.6219 220.094C50.6219 220.094 25.1039 230.116 34.1055 254.169" fill="#FFBE9D"/>
<path d="M30.1666 206.244C29.9369 204.213 30.3441 202.161 31.332 200.371C31.9901 199.429 32.8336 198.63 33.8112 198.023C34.7888 197.417 35.88 197.015 37.0183 196.843C39.0751 196.443 41.1902 196.443 43.2471 196.843L38.4448 203.518C39.4161 207.537 40.1275 211.614 40.5747 215.725C40.8359 217.829 40.8158 220.455 38.9874 221.537C38.1939 221.891 37.3068 221.979 36.4591 221.788C35.6114 221.596 34.8488 221.135 34.2857 220.475C33.2095 219.092 32.4669 217.48 32.1156 215.765C31.1108 212.674 30.457 209.48 30.1666 206.244Z" fill="#FFBE9D"/>
<path d="M22.9537 213.961C22.7434 211.931 23.1494 209.885 24.119 208.088C24.7794 207.143 25.6261 206.343 26.6074 205.736C27.5886 205.13 28.6837 204.73 29.8255 204.56C31.8754 204.157 33.9843 204.157 36.0342 204.56L31.2521 211.235C32.2137 215.256 32.925 219.332 33.3819 223.441C33.623 225.446 33.623 228.172 31.7745 229.254C30.981 229.608 30.0939 229.696 29.2462 229.504C28.3985 229.313 27.6358 228.852 27.0727 228.192C26.0024 226.807 25.2668 225.196 24.9228 223.481C23.9115 220.391 23.251 217.198 22.9537 213.961V213.961Z" fill="#FFBE9D"/>
<path d="M15.4195 221.578C15.1949 219.541 15.6016 217.484 16.5849 215.685C17.243 214.743 18.0866 213.944 19.0642 213.337C20.0418 212.731 21.133 212.329 22.2712 212.157C24.3299 211.776 26.4413 211.776 28.5 212.157L23.6978 218.832C24.669 222.851 25.3804 226.928 25.8276 231.038C26.0888 233.163 26.0688 235.769 24.2403 236.871C23.4448 237.223 22.5563 237.307 21.7085 237.112C20.8606 236.917 20.0991 236.453 19.5385 235.789C18.4736 234.369 17.7516 232.722 17.4288 230.978C16.4129 227.928 15.7391 224.776 15.4195 221.578Z" fill="#FFBE9D"/>
<path d="M30.6895 201.534C29.8408 204.425 29.7098 207.48 30.3078 210.433C30.5647 213.431 31.536 216.324 33.1409 218.871C33.4423 218.751 31.9956 215.063 31.3325 210.273C30.6695 205.482 30.9909 201.574 30.6895 201.534Z" fill="#EB996E"/>
<path d="M22.9732 211.997C22.4109 214.582 22.4049 217.257 22.9556 219.845C23.5063 222.433 24.6012 224.875 26.1679 227.009C26.4492 226.849 24.8217 223.762 23.9778 219.633C23.1339 215.504 23.2947 212.017 22.9732 211.997Z" fill="#EB996E"/>
<path d="M53.5947 201.534C53.0901 203.253 52.7207 205.009 52.4896 206.785C51.9069 210.092 51.1233 214.803 50.2392 220.355L50.5607 219.954C46.7853 221.259 43.3408 223.369 40.4674 226.139C37.594 228.908 35.3608 232.27 33.9238 235.989C32.6982 239.048 32.0182 242.297 31.9145 245.59C31.8568 247.798 32.066 250.006 32.5374 252.164C32.6487 252.969 32.8789 253.752 33.2205 254.489C32.7907 251.557 32.6026 248.594 32.6579 245.63C32.8593 242.438 33.5928 239.301 34.828 236.35C36.2972 232.724 38.5312 229.457 41.3783 226.769C44.1057 224.172 47.3508 222.178 50.9023 220.916H51.1836V220.635C51.9873 215.083 52.6303 210.353 53.0522 207.006C53.3645 205.197 53.5457 203.368 53.5947 201.534V201.534Z" fill="#EB996E"/>
<path d="M56.2471 147.716L56.6892 147.896L57.9751 148.377L62.717 150.141L78.3091 156.154L93.8811 162.168L98.623 163.932L99.929 164.393C100.21 164.513 100.371 164.553 100.371 164.533L99.9492 164.332L98.6833 163.791L94.0016 161.787C89.983 160.203 84.5379 158.039 78.4699 155.774C72.4018 153.509 66.8561 151.384 62.8175 149.961C60.8082 149.259 59.1806 148.698 58.0353 148.337L56.7293 147.916C56.5808 147.824 56.4179 147.756 56.2471 147.716V147.716Z" fill="#263238"/>
<path d="M230.754 380.946C230.754 380.946 205.718 374.111 201.439 373.951C198.163 373.851 179.176 377.058 170.435 378.561C168.798 378.805 167.321 379.676 166.319 380.991C165.317 382.305 164.869 383.957 165.07 385.596C165.112 385.8 165.166 386 165.231 386.198C165.611 387.199 166.264 388.075 167.116 388.727C167.968 389.378 168.985 389.78 170.053 389.886C168.791 390.512 167.758 391.519 167.102 392.764C166.445 394.009 166.199 395.428 166.397 396.821C167.08 401.752 173.208 401.892 173.208 401.892C173.208 401.892 172.907 402.213 172.485 402.774C171.878 403.638 171.509 404.646 171.416 405.696C171.323 406.747 171.509 407.804 171.955 408.76C172.401 409.717 173.091 410.54 173.956 411.146C174.822 411.752 175.832 412.121 176.885 412.214L179.678 412.415C178.745 412.973 177.985 413.778 177.482 414.74C176.978 415.702 176.751 416.784 176.825 417.867C177.91 424.341 192.738 423.359 192.738 423.359L232.562 422.597L230.754 380.946Z" fill="#FFBE9D"/>
<path d="M172.625 370.383C173.107 372.387 174.313 376.977 178.271 378.401L198.364 374.552C198.364 374.552 182.551 371.666 180.04 369.421C179.029 368.508 177.917 367.714 176.724 367.056C176.225 366.804 175.664 366.702 175.108 366.762C174.553 366.822 174.026 367.041 173.593 367.393C173.159 367.745 172.837 368.215 172.665 368.745C172.494 369.276 172.48 369.845 172.625 370.383Z" fill="#FFBE9D"/>
<path d="M188.801 375.875C188.801 376.216 184.782 377.238 179.699 377.879C174.615 378.521 170.476 379.002 170.416 378.621C170.356 378.24 174.434 377.258 179.518 376.617C184.601 375.975 188.741 375.514 188.801 375.875Z" fill="#EB996E"/>
<path d="M185.987 387.781C185.987 388.122 182.612 389.284 178.171 389.785C173.731 390.286 170.134 389.966 170.134 389.605C170.134 389.244 173.69 388.983 178.051 388.482C182.411 387.981 185.907 387.42 185.987 387.781Z" fill="#EB996E"/>
<path d="M196.033 384.795C196.355 384.935 196.134 386.097 195.109 386.999C194.084 387.901 192.919 387.982 192.818 387.641C192.718 387.3 193.441 386.719 194.225 386.017C195.008 385.316 195.692 384.634 196.033 384.795Z" fill="#EB996E"/>
<path d="M190.227 400.188C190.227 400.549 186.389 401.311 181.607 401.872C176.825 402.433 172.866 402.613 172.806 402.253C172.746 401.892 176.624 401.15 181.446 400.569C186.268 399.988 190.126 399.827 190.227 400.188Z" fill="#EB996E"/>
<path d="M200.855 393.072C201.016 393.072 201.378 393.353 201.599 394.135C201.858 395.173 201.707 396.271 201.177 397.201C200.654 398.155 199.783 398.873 198.746 399.206C197.982 399.406 197.48 399.206 197.46 399.106C197.44 399.005 199.107 398.264 200.032 396.6C200.956 394.936 200.514 393.193 200.855 393.072Z" fill="#EB996E"/>
<path d="M195.109 412.194C195.109 412.555 191.573 412.956 187.213 413.076C182.853 413.196 179.296 413.076 179.296 412.655C179.296 412.234 182.813 411.893 187.173 411.773C191.533 411.653 195.089 411.833 195.109 412.194Z" fill="#EB996E"/>
<path d="M205.377 404.157C205.538 404.157 205.859 404.497 205.96 405.279C206.035 406.292 205.804 407.305 205.296 408.185C204.091 410.19 202.524 411.092 202.303 410.871C202.082 410.651 203.147 409.228 204.151 407.544C205.156 405.86 205.055 404.257 205.377 404.157Z" fill="#EB996E"/>
<path d="M309.036 183.454C309.84 177.02 316.912 172.51 323.322 173.432C326.508 174.08 329.448 175.606 331.807 177.839C334.166 180.071 335.848 182.92 336.664 186.06C338.224 192.395 337.513 199.074 334.654 204.941C332.645 209.591 329.109 214.181 324.106 215.204C321.781 215.511 319.416 215.217 317.238 214.35C315.06 213.483 313.142 212.072 311.668 210.253C308.757 206.581 306.513 202.43 305.037 197.986L309.036 183.454Z" fill="#263238"/>
<path d="M300.879 182.051C301.946 181.488 303.178 181.322 304.356 181.583C305.534 181.844 306.581 182.514 307.309 183.474C308.709 185.442 309.416 187.817 309.318 190.229C309.432 194.228 308.664 198.204 307.068 201.874C306.898 202.451 306.606 202.984 306.21 203.437C305.815 203.89 305.326 204.253 304.777 204.5C304.214 204.627 303.626 204.588 303.084 204.389C302.542 204.19 302.069 203.838 301.723 203.377C301.033 202.448 300.572 201.37 300.377 200.231C298.769 193.533 299.11 186.517 301.361 180.006" fill="#ED5B69"/>
<path d="M187.032 151.103C175.74 145.591 169.25 139.879 170.195 135.209C171.139 130.539 193.864 123.303 199.189 121.338C211.747 116.688 223.622 127.752 243.393 131.721C281.911 139.438 311.568 153.509 309.7 163.15C308.775 167.8 300.658 170.566 288.2 171.328" fill="#FFA412"/>
<g opacity="0.4">
<path d="M193.763 152.105C183.716 147.215 177.688 142.084 178.834 138.075C181.888 126.73 209.616 128.053 243.774 134.988C277.932 141.923 304.193 154.23 302.465 162.829C301.641 166.958 294.428 169.403 283.417 170.085" fill="black"/>
</g>
<path d="M283.358 166.477C284.487 160.15 284.334 153.662 282.908 147.395C281.482 141.128 278.811 135.21 275.054 129.989C271.297 124.769 266.529 120.353 261.033 117.001C255.536 113.649 249.422 111.43 243.052 110.475C217.554 106.686 193.784 124.505 188.58 149.66C184.019 171.709 179.92 194.057 179.578 202.215C178.574 226.829 192.498 237.172 198.184 240.299C200.244 241.189 202.393 241.861 204.594 242.303C204.615 242.308 204.636 242.317 204.653 242.329C204.671 242.342 204.686 242.358 204.698 242.377C204.709 242.396 204.716 242.417 204.719 242.439C204.722 242.46 204.72 242.482 204.714 242.503L197.722 270.444C194.246 288.825 203.75 305.862 222.095 309.55C240.439 313.238 255.811 299.809 259.648 281.489L283.358 166.477Z" fill="#FFBE9D"/>
<path d="M196.114 164.994C195.923 165.993 196.12 167.027 196.664 167.886C197.209 168.746 198.061 169.367 199.048 169.624C199.529 169.76 200.033 169.799 200.53 169.738C201.027 169.677 201.506 169.518 201.941 169.269C202.375 169.021 202.755 168.688 203.059 168.292C203.362 167.895 203.584 167.441 203.709 166.958C203.9 165.959 203.703 164.925 203.159 164.065C202.614 163.205 201.762 162.584 200.776 162.328C200.294 162.192 199.79 162.153 199.293 162.214C198.796 162.275 198.317 162.434 197.882 162.682C197.448 162.931 197.068 163.263 196.764 163.66C196.461 164.057 196.24 164.51 196.114 164.994V164.994Z" fill="#263238"/>
<path d="M193.904 156.655C194.285 157.237 197.641 155.673 201.78 156.515C205.919 157.357 208.531 160.023 209.074 159.622C209.616 159.221 209.074 158.439 207.908 157.217C206.372 155.609 204.369 154.523 202.182 154.11C200.029 153.669 197.792 153.921 195.792 154.831C194.245 155.553 193.723 156.375 193.904 156.655Z" fill="#263238"/>
<path d="M236.822 173.152C236.631 174.151 236.828 175.185 237.373 176.044C237.917 176.904 238.769 177.525 239.756 177.782C240.241 177.924 240.751 177.968 241.253 177.91C241.756 177.853 242.242 177.695 242.683 177.446C243.123 177.198 243.509 176.863 243.817 176.463C244.126 176.063 244.35 175.605 244.478 175.116C244.669 174.117 244.472 173.083 243.927 172.223C243.383 171.363 242.531 170.742 241.544 170.486C241.059 170.34 240.549 170.295 240.045 170.351C239.541 170.407 239.054 170.565 238.613 170.814C238.172 171.063 237.786 171.398 237.478 171.8C237.17 172.202 236.947 172.662 236.822 173.152V173.152Z" fill="#263238"/>
<path d="M234.432 165.575C234.793 166.176 238.149 164.613 242.288 165.434C246.427 166.256 249.039 168.962 249.602 168.541C249.863 168.361 249.602 167.359 248.436 166.136C246.888 164.544 244.89 163.461 242.71 163.029C240.555 162.593 238.317 162.853 236.32 163.771C234.894 164.492 234.271 165.294 234.432 165.575Z" fill="#263238"/>
<path d="M213.253 193.195C211.21 192.083 209.037 191.228 206.783 190.65C205.738 190.329 204.774 189.908 204.774 189.166C204.903 188.06 205.366 187.019 206.1 186.18L210.862 178.764C217.493 168.201 222.536 159.421 222.114 159.161C221.692 158.9 215.945 167.178 209.295 177.822L204.673 185.298C203.756 186.431 203.265 187.85 203.287 189.307C203.362 189.709 203.53 190.089 203.778 190.416C204.025 190.743 204.346 191.008 204.714 191.191C205.265 191.476 205.853 191.685 206.462 191.812C208.656 192.564 210.939 193.029 213.253 193.195V193.195Z" fill="#263238"/>
<path d="M204.754 242.363C204.754 242.363 220.487 246.873 242.931 238.875C242.931 238.875 232.362 258.698 202.906 249.879L204.754 242.363Z" fill="#EB996E"/>
<path d="M213.012 203.518C214 202.686 215.185 202.119 216.454 201.87C217.723 201.621 219.035 201.698 220.265 202.095C221.159 202.358 221.991 202.799 222.709 203.392C223.427 203.984 224.018 204.716 224.445 205.543C224.866 206.34 225.029 207.249 224.91 208.144C224.792 209.038 224.397 209.873 223.782 210.534C222.971 211.144 221.996 211.497 220.982 211.547C219.968 211.597 218.962 211.342 218.095 210.814C216.27 209.743 214.684 208.31 213.434 206.605C213.024 206.185 212.703 205.688 212.489 205.142C212.386 204.885 212.362 204.603 212.419 204.332C212.476 204.06 212.612 203.812 212.811 203.618" fill="#EB996E"/>
<path d="M224.867 198.507C224.204 198.327 223.3 202.817 218.839 205.222C214.378 207.627 209.657 206.184 209.496 206.805C209.375 207.066 210.38 207.888 212.389 208.349C215.019 208.916 217.766 208.54 220.145 207.286C222.419 206.074 224.138 204.036 224.947 201.594C225.47 199.75 225.188 198.547 224.867 198.507Z" fill="#263238"/>
<path d="M235.536 152.246C235.717 153.448 239.957 153.749 244.699 155.312C249.441 156.876 253.118 158.98 253.962 158.098C254.343 157.678 253.861 156.475 252.495 155.072C250.649 153.305 248.42 151.985 245.982 151.213C243.543 150.442 240.959 150.239 238.43 150.622C236.441 150.983 235.476 151.684 235.536 152.246Z" fill="#263238"/>
<path d="M197.56 146.313C198.103 147.395 201.157 146.994 204.593 147.636C208.029 148.277 210.801 149.64 211.685 148.678C212.067 148.257 211.806 147.235 210.701 146.092C209.223 144.67 207.353 143.72 205.331 143.363C203.309 143.006 201.226 143.258 199.348 144.088C197.942 144.89 197.339 145.792 197.56 146.313Z" fill="#263238"/>
<path d="M225.128 126.95C226.696 130.589 229.05 133.836 232.024 136.459C234.998 139.082 238.516 141.017 242.328 142.124C247.331 143.547 253.278 143.807 256.393 147.916C258.703 150.923 258.704 155.012 259.226 158.76C260.05 164.472 258.603 171.047 262.963 174.795C266.379 177.741 269.594 177.661 271.684 181.65C273.773 185.639 273.371 191.271 272.507 195.941C271.643 200.611 270.498 207.968 274.336 210.934C277.912 194.017 287.075 175.917 290.631 159C291.323 156.511 291.541 153.914 291.274 151.344C290.269 145.611 284.764 141.883 279.56 139.317C264.792 131.941 248.516 128.153 232.442 124.425" fill="#263238"/>
<path d="M180.703 132.603C180.703 132.603 198.907 93.6979 200.173 91.8739C201.439 90.05 216.71 74.4959 245.664 74.9569L268.75 79.5871C268.75 79.5871 299.412 96.6845 303.792 105.824C308.173 114.964 302.948 154.17 302.948 154.17L241.042 127.171L194.829 129.055L180.703 132.603Z" fill="#FFA412"/>
<path d="M254.162 71.7898L247.793 70.507C246.52 70.2441 245.197 70.3604 243.99 70.8415C242.782 71.3226 241.743 72.1473 241.002 73.2129C239.737 75.1086 238.8 77.2021 238.229 79.4064C236.32 86.4819 224.807 135.269 224.807 135.269L254.022 139.738L265.294 78.9053L274.617 83.0344L274.798 81.2304C274.918 80.1362 274.701 79.0314 274.175 78.0635V78.0635C273.809 77.3985 273.303 76.8199 272.693 76.3668C272.083 75.9138 271.382 75.5969 270.639 75.4378L254.162 71.7898Z" fill="#FFA412"/>
<path d="M187.997 138.315L193.904 124.746L241.986 119.735L293.163 146.613L289.948 162.649C289.948 162.649 247.854 135.168 187.997 138.315Z" fill="#455A64"/>
<path d="M199.188 121.338L196.898 122.801L179.336 131.12C179.336 131.12 211.063 127.111 242.147 133.645C273.231 140.179 306.766 157.858 306.766 157.858L288.682 141.342C286.129 137.228 282.776 133.665 278.821 130.863C274.867 128.061 270.39 126.077 265.656 125.026L226.695 116.427C222.013 115.385 217.17 115.283 212.447 116.126C207.725 116.969 203.218 118.741 199.188 121.338V121.338Z" fill="#FFA412"/>
<path d="M183.677 132.583C183.677 132.583 184.038 132.302 184.822 131.921C185.951 131.353 187.136 130.903 188.358 130.578C192.846 129.395 197.461 128.763 202.102 128.694C217.373 128.464 232.589 130.586 247.21 134.988C255.77 137.353 263.988 139.438 271.322 142.023C277.754 144.347 284.053 147.024 290.189 150.041C292.801 151.344 295.112 152.667 297.081 153.909C298.888 154.872 300.444 156.246 301.622 157.918C302.33 159.039 302.602 160.379 302.385 161.686C302.185 162.568 301.843 162.929 301.803 162.909C302.038 162.13 302.091 161.308 301.959 160.506C301.827 159.703 301.512 158.942 301.039 158.279C299.822 156.805 298.292 155.621 296.559 154.811C294.549 153.649 292.239 152.446 289.626 151.203C284.382 148.798 277.953 146.052 270.779 143.527C263.606 141.001 255.328 139.017 246.668 136.652C232.183 132.328 217.16 130.06 202.042 129.917C197.481 129.877 192.928 130.313 188.459 131.22C185.364 131.901 183.777 132.763 183.677 132.583Z" fill="#263238"/>
<path d="M188.218 137.875C182.652 150.282 163.243 167.94 181.849 185.078C181.849 185.078 187.716 157.017 192.217 146.534C193.36 143.356 195.2 140.473 197.602 138.095" fill="#263238"/>
<path d="M283.638 161.085C289.98 162.307 295.606 165.919 299.348 171.171C303.09 176.423 304.66 182.911 303.731 189.287C303.108 192.594 301.722 195.861 302.144 199.309C302.566 202.756 304.314 205.462 305.138 208.649C306.765 214.943 307.147 225.306 304.917 231.459C299.813 246.091 281.207 264.131 264.349 260.763" fill="#263238"/>
<path d="M271.161 248.637C269.406 248.973 267.596 248.88 265.885 248.367C264.174 247.854 262.613 246.936 261.335 245.69C258.827 243.144 257.032 239.985 256.131 236.53C254.55 231.025 254.319 225.22 255.459 219.607C256.599 213.994 259.077 208.737 262.682 204.28C258.488 196.721 256.235 188.244 256.123 179.606C256.01 170.968 258.043 162.436 262.039 154.771L285.668 161.746L271.161 248.637Z" fill="#263238"/>
<path d="M308.775 197.866C309.727 199.27 311.011 200.419 312.512 201.213C316.05 203.403 320.235 204.316 324.367 203.799C328.509 203.331 332.355 201.43 335.237 198.427C336.507 197.252 337.325 195.67 337.548 193.957C336.79 195.415 335.836 196.764 334.715 197.966C331.825 200.643 328.161 202.341 324.246 202.816C320.324 203.278 316.356 202.508 312.894 200.612C310.242 199.128 308.915 197.725 308.775 197.866Z" fill="#455A64"/>
<path d="M310.583 194.699C311.842 195.495 313.263 196.001 314.743 196.182C318.297 196.884 321.972 196.671 325.421 195.563C328.87 194.455 331.979 192.488 334.454 189.848C335.542 188.828 336.392 187.583 336.945 186.2C336.805 186.2 335.86 187.503 333.931 189.327C331.418 191.711 328.399 193.501 325.098 194.562C321.797 195.624 318.299 195.931 314.863 195.46C312.231 195.1 310.644 194.538 310.583 194.699Z" fill="#455A64"/>
<path d="M259.287 161.266C259.222 162.057 259.27 162.853 259.427 163.631C259.714 165.781 260.219 167.896 260.934 169.945C263.263 176.793 267.634 182.767 273.463 187.066C279.292 191.365 286.299 193.784 293.545 193.997C295.717 194.082 297.892 193.941 300.035 193.576C300.829 193.496 301.608 193.3 302.346 192.995C299.434 193.272 296.508 193.359 293.585 193.256C286.542 192.854 279.768 190.414 274.091 186.236C268.414 182.057 264.08 176.32 261.617 169.724C260.676 166.953 259.897 164.128 259.287 161.266V161.266Z" fill="#455A64"/>
<path d="M258.542 196.602C258.542 196.602 258.884 197.164 259.708 197.985C260.916 199.151 262.266 200.161 263.726 200.992C268.548 203.704 274.005 205.087 279.539 205.001C284.983 204.87 290.386 204.034 295.614 202.515C297.623 201.954 299.231 201.473 300.336 201.092C300.927 200.952 301.495 200.729 302.023 200.431C299.799 200.741 297.598 201.197 295.433 201.794C290.21 203.092 284.86 203.818 279.479 203.958C274.113 204.028 268.811 202.797 264.028 200.371C262.121 199.233 260.288 197.974 258.542 196.602V196.602Z" fill="#455A64"/>
<path d="M179.678 128.554C180.161 128.474 180.633 128.34 181.085 128.153L184.983 126.75L199.309 121.619L203.006 118.312C204.254 117.072 205.643 115.982 207.145 115.064C208.775 114.164 210.574 113.611 212.43 113.441C214.455 113.369 216.481 113.558 218.457 114.002C226.655 115.365 235.637 117.269 245 119.434C253.7 121.438 262.019 123.443 269.614 125.447C271.462 125.818 273.235 126.495 274.858 127.452C276.341 128.339 277.626 129.519 278.636 130.919C280.504 133.826 282.152 136.752 283.719 139.338L297.644 149.6L301.481 152.366C301.911 152.704 302.368 153.006 302.848 153.268C302.469 152.867 302.052 152.505 301.602 152.186L297.905 149.259L284.402 138.776V138.897C282.835 136.251 281.288 133.385 279.359 130.338C278.292 128.81 276.925 127.514 275.34 126.53C273.635 125.564 271.782 124.887 269.855 124.525C262.26 122.521 253.962 120.516 245.221 118.512C235.858 116.347 226.856 114.503 218.598 113.12C216.573 112.683 214.499 112.515 212.43 112.619C210.45 112.804 208.533 113.405 206.804 114.383C205.252 115.345 203.822 116.489 202.544 117.79L198.907 121.138H199.028L184.802 126.57L180.964 128.093C180.525 128.217 180.096 128.371 179.678 128.554V128.554Z" fill="#263238"/>
<path d="M257.377 121.819C257.639 121.174 257.827 120.502 257.94 119.815C258.241 118.512 258.643 116.648 259.125 114.323C260.069 109.693 261.315 103.279 262.641 96.2835C263.264 92.7357 263.887 89.3683 264.45 86.2615C264.711 84.7382 264.952 83.275 265.193 81.892C265.231 81.6281 265.326 81.3754 265.47 81.151C265.615 80.9267 265.806 80.7359 266.031 80.5915C266.256 80.4471 266.509 80.3525 266.773 80.314C267.038 80.2756 267.307 80.2942 267.564 80.3686L272.728 82.373C273.36 82.6912 274.038 82.9076 274.737 83.0144C274.177 82.6092 273.57 82.2727 272.929 82.0122C271.723 81.4109 270.056 80.5891 267.825 79.5869C267.468 79.469 267.089 79.4283 266.715 79.4676C266.34 79.5069 265.979 79.6253 265.654 79.815C265.329 80.0046 265.048 80.2611 264.83 80.5673C264.612 80.8736 264.462 81.2227 264.389 81.5913C264.108 82.9743 263.827 84.4375 263.525 85.9609C262.943 89.0476 262.32 92.415 261.637 95.9828C260.331 103.078 259.205 109.512 258.442 114.183C258.06 116.508 257.759 118.412 257.578 119.715C257.404 120.402 257.336 121.112 257.377 121.819V121.819Z" fill="#263238"/>
<path d="M229.468 115.626C230.387 113.78 231.094 111.837 231.578 109.833C232.683 106.185 233.949 101.094 235.295 95.4616C236.641 89.8293 237.787 84.6981 238.57 80.99C239.095 79.02 239.444 77.0079 239.615 74.9768C238.855 76.9274 238.264 78.939 237.847 80.99C236.883 84.658 235.617 89.7491 234.271 95.3814C232.924 101.014 231.799 105.804 230.855 109.813C230.277 111.721 229.814 113.662 229.468 115.626Z" fill="#263238"/>
<path d="M180.18 196.182C176.056 196.002 172.005 195.036 168.245 193.335C164.171 191.598 160.62 188.835 157.937 185.318C156.465 183.069 155.479 180.538 155.043 177.888C154.607 175.237 154.73 172.525 155.405 169.924C155.989 167.297 157.093 164.812 158.653 162.616C160.212 160.42 162.196 158.557 164.487 157.136C168.489 155.138 172.594 153.351 176.784 151.785C179.623 150.563 182.156 148.728 184.199 146.413C184.731 145.796 185.196 145.124 185.585 144.408C185.826 143.907 185.947 143.627 185.906 143.607C185.286 144.518 184.615 145.395 183.897 146.232C181.771 148.351 179.235 150.015 176.443 151.123C172.177 152.611 168.003 154.351 163.945 156.335C161.523 157.8 159.425 159.74 157.778 162.038C156.13 164.336 154.968 166.944 154.361 169.704C153.647 172.444 153.523 175.304 153.997 178.096C154.472 180.887 155.534 183.547 157.113 185.899C159.912 189.544 163.638 192.374 167.903 194.097C170.721 195.325 173.721 196.083 176.784 196.342C177.614 196.401 178.446 196.401 179.276 196.342C179.585 196.349 179.892 196.295 180.18 196.182V196.182Z" fill="#263238"/>
<path d="M330.576 188.204C330.576 188.204 330.757 188.204 331.038 187.863C331.443 187.498 331.813 187.095 332.143 186.661C333.334 185.033 334.113 183.142 334.413 181.149C334.903 178.147 334.343 175.068 332.826 172.43C331.817 170.868 330.486 169.539 328.921 168.53C327.357 167.521 325.595 166.857 323.754 166.58C321.912 166.303 320.032 166.42 318.239 166.924C316.446 167.429 314.782 168.308 313.356 169.503C311.123 171.568 309.669 174.334 309.237 177.34C308.932 179.359 309.118 181.422 309.78 183.354C309.958 183.866 310.194 184.357 310.483 184.817C310.664 185.137 310.784 185.298 310.804 185.278C310.824 185.258 310.523 184.556 310.181 183.273C309.699 181.407 309.624 179.459 309.96 177.561C310.458 174.771 311.872 172.225 313.979 170.325C315.313 169.24 316.86 168.445 318.521 167.991C320.181 167.537 321.918 167.434 323.621 167.688C325.323 167.943 326.954 168.55 328.407 169.47C329.861 170.39 331.106 171.603 332.063 173.031C333.484 175.449 334.077 178.264 333.75 181.048C333.512 182.953 332.868 184.785 331.862 186.42C331.058 187.583 330.515 188.124 330.576 188.204Z" fill="#263238"/>
<path d="M268.046 257.436C268.309 257.581 268.594 257.683 268.89 257.736C269.453 257.917 270.277 258.117 271.362 258.378C274.424 259.103 277.543 259.566 280.685 259.761C285.389 260.128 290.114 259.401 294.489 257.636C299.797 255.21 304.16 251.111 306.906 245.971C309.662 240.892 311.105 235.209 311.105 229.434C311.101 224.759 310.424 220.108 309.096 215.624C308.212 212.622 307.111 209.688 305.801 206.845C305.339 205.843 304.957 205.061 304.676 204.56C304.555 204.287 304.4 204.031 304.214 203.798C304.549 204.891 304.951 205.962 305.419 207.005C306.579 209.884 307.565 212.829 308.373 215.825C309.606 220.249 310.222 224.822 310.201 229.414C310.158 235.019 308.729 240.527 306.042 245.449C303.418 250.399 299.25 254.36 294.167 256.734C289.891 258.509 285.269 259.297 280.645 259.039C277.536 258.912 274.441 258.564 271.382 257.997C270.283 257.738 269.169 257.55 268.046 257.436V257.436Z" fill="#263238"/>
<path d="M310.925 207.948C310.951 208.273 311.032 208.592 311.166 208.89C311.483 209.79 311.915 210.646 312.452 211.435C314.462 214.365 317.443 216.494 320.871 217.448C323.219 218.145 325.703 218.255 328.105 217.769C330.866 217.203 333.455 215.994 335.659 214.241C338.096 212.324 340.062 209.876 341.406 207.086C342.81 204.072 343.536 200.788 343.536 197.465C343.563 191.043 341.346 184.814 337.267 179.846C335.67 177.763 333.623 176.066 331.279 174.879C328.934 173.692 326.353 173.047 323.724 172.991C320.163 172.973 316.731 174.322 314.14 176.759C313.178 177.611 312.44 178.685 311.99 179.886C312.697 178.866 313.505 177.919 314.401 177.06C316.992 174.844 320.312 173.659 323.724 173.733C326.223 173.835 328.669 174.49 330.882 175.652C333.096 176.813 335.023 178.451 336.523 180.447C340.43 185.262 342.558 191.27 342.551 197.465C342.551 200.633 341.865 203.764 340.542 206.645C339.268 209.304 337.415 211.646 335.117 213.5C333.038 215.167 330.605 216.339 328.004 216.927C325.724 217.408 323.361 217.34 321.112 216.727C317.815 215.871 314.9 213.938 312.834 211.235C312.11 210.192 311.472 209.093 310.925 207.948V207.948Z" fill="#263238"/>
</svg>
