<svg width="312" height="134" viewBox="0 0 312 134" fill="none" xmlns="http://www.w3.org/2000/svg">
<g clip-path="url(#clip0_3090_42817)">
<path d="M0 0H312V94C312 116.091 294.091 134 272 134H0V0Z" fill="#EF293D"/>
<g style="mix-blend-mode:screen" opacity="0.2">
<path d="M290.386 116.221C302.554 107.475 305.257 90.2554 296.605 77.9556L238.743 -2.94912C238.472 -3.22244 238.472 -3.49574 238.202 -3.76907L237.931 -4.31575C230.901 -17.1621 231.712 -33.2884 240.906 -44.7681C256.858 -64.721 285.519 -62.8078 299.039 -43.6749L316.614 -19.0755C319.047 -15.5222 323.103 -13.3355 327.699 -13.3355H359.335C359.335 -66.0876 316.884 -109 264.7 -109C262.537 -109 260.373 -109 258.21 -108.727C228.468 -106.813 201.7 -89.3204 187.099 -62.5344C186.558 -61.4411 185.747 -60.0745 185.206 -58.7079C171.687 -30.8285 175.202 2.51745 193.318 27.6635L252.262 110.208C261.185 122.235 278.219 124.968 290.386 116.221ZM358.794 130.981C372.313 103.102 368.798 69.7559 350.682 44.3364L291.468 -38.4816C282.816 -50.7814 265.781 -53.5146 253.614 -44.7681C242.258 -36.5683 239.013 -21.2621 245.773 -8.96234L246.313 -7.86898L303.635 72.4891C315.262 88.8887 311.747 111.848 295.524 123.875C289.035 128.521 281.734 130.708 274.434 130.708C263.077 130.708 251.991 125.515 244.961 115.402L227.657 91.0753C225.223 87.5221 221.167 85.3355 216.571 85.3355H184.936C184.936 138.088 227.386 181 279.571 181C281.734 181 283.897 181 286.06 180.727C315.803 178.813 342.571 161.32 357.172 134.534C357.712 133.441 358.253 132.348 358.794 130.981Z" fill="#DDE1EA"/>
</g>
</g>
<defs>
<clipPath id="clip0_3090_42817">
<path d="M0 0H312V94C312 116.091 294.091 134 272 134H0V0Z" fill="white"/>
</clipPath>
</defs>
</svg>
