<svg width="303" height="292" viewBox="0 0 303 292" fill="none" xmlns="http://www.w3.org/2000/svg">
<path d="M136.741 51.9705C136.741 51.8025 136.231 51.6682 135.6 51.6682C136.197 52.2661 135.768 51.8361 135.895 51.9705V51.7555V51.5405C135.882 51.418 135.86 51.2967 135.828 51.1777C135.774 50.9694 135.701 50.8418 135.62 50.8418C135.539 50.8418 135.466 50.9694 135.412 51.1777C135.38 51.2967 135.358 51.418 135.345 51.5405C135.345 51.6279 135.345 51.7018 135.345 51.7555V51.9369L135.64 52.2325C136.231 52.2661 136.741 52.1317 136.741 51.9705Z" fill="#282828"/>
<path d="M141.32 51.9703C141.32 51.8023 140.81 51.668 140.179 51.668C139.548 51.668 139.031 51.8023 139.031 51.9703C139.031 52.1383 139.548 52.2659 140.179 52.2659C140.81 52.2659 141.32 52.1315 141.32 51.9703Z" fill="#282828"/>
<path d="M145.919 51.9703C145.919 51.8023 145.409 51.668 144.778 51.668C144.146 51.668 143.629 51.8023 143.629 51.9703C143.629 52.1383 144.14 52.2659 144.778 52.2659C145.415 52.2659 145.919 52.1315 145.919 51.9703Z" fill="#282828"/>
<path d="M150.479 51.9703C150.479 51.8023 149.968 51.668 149.33 51.668C148.693 51.668 148.189 51.8023 148.189 51.9703C148.189 52.1383 148.699 52.2659 149.33 52.2659C149.962 52.2659 150.479 52.1315 150.479 51.9703Z" fill="#282828"/>
<path d="M155.058 51.9703C155.058 51.8023 154.541 51.668 153.91 51.668C153.278 51.668 152.768 51.8023 152.768 51.9703C152.768 52.1383 153.278 52.2659 153.91 52.2659C154.541 52.2659 155.058 52.1315 155.058 51.9703Z" fill="#282828"/>
<path d="M159.636 51.9703C159.636 51.8023 159.119 51.668 158.488 51.668C157.857 51.668 157.346 51.8023 157.346 51.9703C157.346 52.1383 157.857 52.2659 158.488 52.2659C159.119 52.2659 159.636 52.1315 159.636 51.9703Z" fill="#282828"/>
<path d="M164.209 51.9703C164.209 51.8023 163.699 51.668 163.068 51.668C162.437 51.668 161.92 51.8023 161.92 51.9703C161.92 52.1383 162.437 52.2659 163.068 52.2659C163.699 52.2659 164.209 52.1315 164.209 51.9703Z" fill="#282828"/>
<path d="M168.787 51.9703C168.787 51.8023 168.277 51.668 167.646 51.668C167.015 51.668 166.498 51.8023 166.498 51.9703C166.498 52.1383 167.015 52.2659 167.646 52.2659C168.277 52.2659 168.787 52.1315 168.787 51.9703Z" fill="#282828"/>
<path d="M173.366 51.9703C173.366 51.8023 172.856 51.668 172.225 51.668C171.594 51.668 171.077 51.8023 171.077 51.9703C171.077 52.1383 171.587 52.2659 172.225 52.2659C172.863 52.2659 173.366 52.1315 173.366 51.9703Z" fill="#282828"/>
<path d="M177.945 51.9703C177.945 51.8023 177.435 51.668 176.797 51.668C176.159 51.668 175.656 51.8023 175.656 51.9703C175.656 52.1383 176.166 52.2659 176.797 52.2659C177.428 52.2659 177.945 52.1315 177.945 51.9703Z" fill="#282828"/>
<path d="M182.524 51.9703C182.524 51.8023 182.007 51.668 181.376 51.668C180.745 51.668 180.235 51.8023 180.235 51.9703C180.235 52.1383 180.745 52.2659 181.376 52.2659C182.007 52.2659 182.524 52.1315 182.524 51.9703Z" fill="#282828"/>
<path d="M187.104 51.9703C187.104 51.8023 186.587 51.668 185.955 51.668C185.324 51.668 184.814 51.8023 184.814 51.9703C184.814 52.1383 185.324 52.2659 185.955 52.2659C186.587 52.2659 187.104 52.1315 187.104 51.9703Z" fill="#282828"/>
<path d="M191.676 51.9703C191.676 51.8023 191.166 51.668 190.534 51.668C189.903 51.668 189.386 51.8023 189.386 51.9703C189.386 52.1383 189.903 52.2659 190.534 52.2659C191.166 52.2659 191.676 52.1315 191.676 51.9703Z" fill="#282828"/>
<path d="M196.274 51.9703C196.274 51.8023 195.764 51.668 195.133 51.668C194.502 51.668 193.985 51.8023 193.985 51.9703C193.985 52.1383 194.502 52.2659 195.133 52.2659C195.764 52.2659 196.274 52.1315 196.274 51.9703Z" fill="#282828"/>
<path d="M199.692 52.2663C199.061 52.2663 198.55 52.1339 198.55 51.9707C198.55 51.8074 199.061 51.675 199.692 51.675C200.322 51.675 200.833 51.8074 200.833 51.9707C200.833 52.1339 200.322 52.2663 199.692 52.2663Z" fill="#282828"/>
<path d="M204.264 50.8218C204.103 50.8218 203.969 51.3324 203.969 51.9706C204.566 51.3727 204.13 51.8027 204.264 51.6683H204.036H203.821C203.699 51.6791 203.578 51.6994 203.459 51.7288C203.25 51.7825 203.123 51.8564 203.123 51.9438C203.123 52.0311 203.25 52.0983 203.459 52.152C203.578 52.1814 203.699 52.2017 203.821 52.2125H204.036H204.264L204.566 51.9169C204.566 51.3324 204.432 50.8218 204.264 50.8218Z" fill="#282828"/>
<path d="M204.264 46.2729C204.103 46.2729 203.969 46.7768 203.969 47.4084C203.969 48.0399 204.103 48.5438 204.264 48.5438C204.425 48.5438 204.566 48.0399 204.566 47.4084C204.566 46.7768 204.432 46.2729 204.264 46.2729Z" fill="#282828"/>
<path d="M204.264 41.7178C204.103 41.7178 203.969 42.2284 203.969 42.8532C203.969 43.478 204.103 43.9953 204.264 43.9953C204.425 43.9953 204.566 43.4847 204.566 42.8532C204.566 42.2217 204.432 41.7178 204.264 41.7178Z" fill="#282828"/>
<path d="M204.264 37.1565C204.103 37.1565 203.969 37.6671 203.969 38.2986C203.969 38.9302 204.103 39.4341 204.264 39.4341C204.425 39.4341 204.566 38.9235 204.566 38.2986C204.566 37.6738 204.432 37.1565 204.264 37.1565Z" fill="#282828"/>
<path d="M204.264 32.6145C204.103 32.6145 203.969 33.1251 203.969 33.7499C203.969 34.3748 204.103 34.8921 204.264 34.8921C204.425 34.8921 204.566 34.3815 204.566 33.7499C204.566 33.1184 204.432 32.6145 204.264 32.6145Z" fill="#282828"/>
<path d="M204.264 28.0596C204.103 28.0596 203.969 28.5702 203.969 29.195C203.969 29.8198 204.103 30.3371 204.264 30.3371C204.425 30.3371 204.566 29.8265 204.566 29.195C204.566 28.5635 204.432 28.0596 204.264 28.0596Z" fill="#282828"/>
<path d="M204.264 23.5042C204.103 23.5042 203.969 24.0148 203.969 24.6463C203.969 25.2778 204.103 25.7817 204.264 25.7817C204.425 25.7817 204.566 25.2711 204.566 24.6463C204.566 24.0215 204.432 23.5042 204.264 23.5042Z" fill="#282828"/>
<path d="M204.264 18.9558C204.103 18.9558 203.969 19.4664 203.969 20.0912C203.969 20.7161 204.103 21.2334 204.264 21.2334C204.425 21.2334 204.566 20.7228 204.566 20.0912C204.566 19.4597 204.432 18.9558 204.264 18.9558Z" fill="#282828"/>
<path d="M204.264 14.4004C204.103 14.4004 203.969 14.911 203.969 15.5425C203.969 16.1741 204.103 16.678 204.264 16.678C204.425 16.678 204.566 16.1674 204.566 15.5425C204.566 14.9177 204.432 14.4004 204.264 14.4004Z" fill="#282828"/>
<path d="M203.123 10.9541C203.123 11.122 203.633 11.2497 204.264 11.2497L203.969 10.9541V11.1691C203.969 11.2295 203.969 11.2967 203.969 11.384C203.985 11.5083 204.008 11.6316 204.036 11.7536C204.09 11.9551 204.164 12.0828 204.244 12.0828C204.325 12.0828 204.405 11.9551 204.459 11.7536C204.488 11.6321 204.509 11.5086 204.52 11.384V11.1691V10.9541L204.217 10.6584C203.66 10.6853 203.123 10.8197 203.123 10.9541Z" fill="#282828"/>
<path d="M198.544 10.9541C198.544 11.122 199.054 11.2497 199.692 11.2497C200.329 11.2497 200.833 11.122 200.833 10.9541C200.833 10.7861 200.323 10.6584 199.692 10.6584C199.061 10.6584 198.544 10.8197 198.544 10.9541Z" fill="#282828"/>
<path d="M193.965 10.9541C193.965 11.122 194.482 11.2497 195.113 11.2497C195.744 11.2497 196.274 11.1489 196.274 10.9541C196.274 10.7592 195.764 10.6584 195.133 10.6584C194.502 10.6584 193.965 10.8197 193.965 10.9541Z" fill="#282828"/>
<path d="M189.386 10.9541C189.386 11.122 189.903 11.2497 190.534 11.2497C191.166 11.2497 191.676 11.122 191.676 10.9541C191.676 10.7861 191.166 10.6584 190.534 10.6584C189.903 10.6584 189.386 10.8197 189.386 10.9541Z" fill="#282828"/>
<path d="M184.814 10.9541C184.814 11.122 185.324 11.2497 185.955 11.2497C186.587 11.2497 187.104 11.122 187.104 10.9541C187.104 10.7861 186.587 10.6584 185.955 10.6584C185.324 10.6584 184.814 10.8197 184.814 10.9541Z" fill="#282828"/>
<path d="M180.235 10.9541C180.235 11.122 180.745 11.2497 181.376 11.2497C182.007 11.2497 182.524 11.122 182.524 10.9541C182.524 10.7861 182.007 10.6584 181.376 10.6584C180.745 10.6584 180.235 10.8197 180.235 10.9541Z" fill="#282828"/>
<path d="M175.656 10.9541C175.656 11.122 176.166 11.2497 176.797 11.2497C177.428 11.2497 177.945 11.122 177.945 10.9541C177.945 10.7861 177.435 10.6584 176.797 10.6584C176.159 10.6584 175.656 10.8197 175.656 10.9541Z" fill="#282828"/>
<path d="M171.077 10.9541C171.077 11.122 171.587 11.2497 172.225 11.2497C172.863 11.2497 173.366 11.122 173.366 10.9541C173.366 10.7861 172.856 10.6584 172.225 10.6584C171.594 10.6584 171.077 10.8197 171.077 10.9541Z" fill="#282828"/>
<path d="M166.498 10.9541C166.498 11.122 167.015 11.2497 167.646 11.2497C168.277 11.2497 168.787 11.122 168.787 10.9541C168.787 10.7861 168.277 10.6584 167.646 10.6584C167.015 10.6584 166.498 10.8197 166.498 10.9541Z" fill="#282828"/>
<path d="M161.92 10.9541C161.92 11.122 162.437 11.2497 163.068 11.2497C163.699 11.2497 164.209 11.122 164.209 10.9541C164.209 10.7861 163.699 10.6584 163.068 10.6584C162.437 10.6584 161.92 10.8197 161.92 10.9541Z" fill="#282828"/>
<path d="M157.334 10.9541C157.334 11.122 157.844 11.2497 158.475 11.2497C159.106 11.2497 159.623 11.122 159.623 10.9541C159.623 10.7861 159.106 10.6584 158.475 10.6584C157.844 10.6584 157.334 10.8197 157.334 10.9541Z" fill="#282828"/>
<path d="M152.768 10.9541C152.768 11.122 153.278 11.2497 153.91 11.2497C154.541 11.2497 155.058 11.122 155.058 10.9541C155.058 10.7861 154.541 10.6584 153.91 10.6584C153.278 10.6584 152.768 10.8197 152.768 10.9541Z" fill="#282828"/>
<path d="M148.189 10.9541C148.189 11.122 148.699 11.2497 149.33 11.2497C149.962 11.2497 150.479 11.122 150.479 10.9541C150.479 10.7861 149.968 10.6584 149.33 10.6584C148.693 10.6584 148.189 10.8197 148.189 10.9541Z" fill="#282828"/>
<path d="M143.609 10.9541C143.609 11.122 144.12 11.2497 144.757 11.2497C145.395 11.2497 145.919 11.1489 145.919 10.9541C145.919 10.7592 145.409 10.6584 144.778 10.6584C144.146 10.6584 143.609 10.8197 143.609 10.9541Z" fill="#282828"/>
<path d="M139.031 10.9541C139.031 11.122 139.548 11.2497 140.179 11.2497C140.81 11.2497 141.32 11.122 141.32 10.9541C141.32 10.7861 140.81 10.6584 140.179 10.6584C139.548 10.6584 139.031 10.8197 139.031 10.9541Z" fill="#282828"/>
<path d="M135.6 12.123C135.768 12.123 135.896 11.6124 135.896 10.9809C135.305 11.5788 135.734 11.1488 135.6 11.2765H135.849H136.063C136.188 11.2636 136.312 11.2412 136.433 11.2093C136.634 11.1556 136.762 11.0816 136.762 11.001C136.762 10.9204 136.634 10.8465 136.433 10.7928C136.312 10.7609 136.188 10.7384 136.063 10.7256H135.849H135.62C135.486 10.8532 135.916 10.4232 135.325 11.0212C135.305 11.6258 135.439 12.123 135.6 12.123Z" fill="#282828"/>
<path d="M135.6 16.678C135.768 16.678 135.896 16.1674 135.896 15.5425C135.896 14.9177 135.768 14.4004 135.6 14.4004C135.432 14.4004 135.305 14.911 135.305 15.5425C135.305 16.1741 135.439 16.678 135.6 16.678Z" fill="#282828"/>
<path d="M135.6 21.2334C135.768 21.2334 135.896 20.7228 135.896 20.0912C135.896 19.4597 135.768 18.9558 135.6 18.9558C135.432 18.9558 135.305 19.4664 135.305 20.0912C135.305 20.7161 135.439 21.2334 135.6 21.2334Z" fill="#282828"/>
<path d="M135.6 25.7817C135.768 25.7817 135.896 25.2711 135.896 24.6463C135.896 24.0215 135.768 23.5042 135.6 23.5042C135.432 23.5042 135.305 24.0148 135.305 24.6463C135.305 25.2778 135.439 25.7817 135.6 25.7817Z" fill="#282828"/>
<path d="M135.6 30.3371C135.768 30.3371 135.896 29.8265 135.896 29.2017C135.896 28.5769 135.768 28.0596 135.6 28.0596C135.432 28.0596 135.305 28.5702 135.305 29.2017C135.305 29.8333 135.439 30.3371 135.6 30.3371Z" fill="#282828"/>
<path d="M135.6 34.8921C135.768 34.8921 135.896 34.3815 135.896 33.7499C135.896 33.1184 135.768 32.6145 135.6 32.6145C135.432 32.6145 135.305 33.1251 135.305 33.7499C135.305 34.3748 135.439 34.8921 135.6 34.8921Z" fill="#282828"/>
<path d="M135.6 39.4411C135.768 39.4411 135.896 38.9305 135.896 38.3057C135.896 37.6809 135.768 37.1636 135.6 37.1636C135.432 37.1636 135.305 37.6742 135.305 38.3057C135.305 38.9373 135.439 39.4411 135.6 39.4411Z" fill="#282828"/>
<path d="M135.6 43.9953C135.768 43.9953 135.896 43.4847 135.896 42.8532C135.896 42.2217 135.768 41.7178 135.6 41.7178C135.432 41.7178 135.305 42.2284 135.305 42.8532C135.305 43.478 135.439 43.9953 135.6 43.9953Z" fill="#282828"/>
<path d="M135.6 48.5777C135.768 48.5777 135.896 48.0738 135.896 47.4423C135.896 46.8108 135.768 46.3069 135.6 46.3069C135.432 46.3069 135.305 46.8108 135.305 47.4423C135.305 48.0738 135.439 48.5777 135.6 48.5777Z" fill="#282828"/>
<path d="M202.626 49.9951H205.902V53.2738H202.626V49.9951Z" fill="#282828"/>
<path d="M202.626 9.34155H205.902V12.6202H202.626V9.34155Z" fill="#282828"/>
<path d="M133.962 9.34155H137.238V12.6202H133.962V9.34155Z" fill="#282828"/>
<path d="M133.962 49.8477H137.238V53.1263H133.962V49.8477Z" fill="#282828"/>
<path d="M168.298 49.8477H171.574V53.1263H168.298V49.8477Z" fill="#282828"/>
<path d="M168.298 9.34155H171.574V12.6202H168.298V9.34155Z" fill="#282828"/>
<path d="M202.626 29.833H205.902V33.1117H202.626V29.833Z" fill="#282828"/>
<path d="M133.962 29.833H137.238V33.1117H133.962V29.833Z" fill="#282828"/>
<path d="M74.1074 164.341C74.1074 164.18 73.5972 164.046 72.9661 164.046L73.2615 164.341V164.126V163.911C73.2487 163.789 73.2263 163.668 73.1944 163.549C73.1407 163.34 73.0668 163.213 72.9863 163.213C72.9057 163.213 72.8318 163.34 72.7781 163.549C72.7463 163.668 72.7238 163.789 72.711 163.911C72.711 163.999 72.711 164.066 72.711 164.126V164.341C72.8386 164.476 72.4089 164.046 73.0064 164.644C73.5838 164.644 74.1074 164.509 74.1074 164.341Z" fill="#282828"/>
<path d="M78.6855 164.342C78.6855 164.18 78.1753 164.046 77.5442 164.046C76.9131 164.046 76.3961 164.18 76.3961 164.342C76.3961 164.503 76.9131 164.644 77.5442 164.644C78.1753 164.644 78.6855 164.509 78.6855 164.342Z" fill="#282828"/>
<path d="M83.2646 164.342C83.2646 164.18 82.7544 164.046 82.1233 164.046C81.4922 164.046 80.9753 164.18 80.9753 164.342C80.9753 164.503 81.4855 164.644 82.1233 164.644C82.7611 164.644 83.2646 164.509 83.2646 164.342Z" fill="#282828"/>
<path d="M87.8438 164.342C87.8438 164.18 87.3268 164.046 86.6956 164.046C86.0645 164.046 85.5542 164.18 85.5542 164.342C85.5542 164.503 86.0645 164.644 86.6956 164.644C87.3268 164.644 87.8438 164.509 87.8438 164.342Z" fill="#282828"/>
<path d="M92.4229 164.342C92.4229 164.18 91.9059 164.046 91.2748 164.046C90.6437 164.046 90.1334 164.18 90.1334 164.342C90.1334 164.503 90.6437 164.644 91.2748 164.644C91.9059 164.644 92.4229 164.509 92.4229 164.342Z" fill="#282828"/>
<path d="M96.9951 164.342C96.9951 164.18 96.4849 164.046 95.8538 164.046C95.2227 164.046 94.7124 164.18 94.7124 164.342C94.7124 164.503 95.2227 164.644 95.8538 164.644C96.4849 164.644 96.9951 164.509 96.9951 164.342Z" fill="#282828"/>
<path d="M101.573 164.342C101.573 164.18 101.063 164.046 100.432 164.046C99.8008 164.046 99.2839 164.18 99.2839 164.342C99.2839 164.503 99.8008 164.644 100.432 164.644C101.063 164.644 101.573 164.509 101.573 164.342Z" fill="#282828"/>
<path d="M106.152 164.342C106.152 164.18 105.642 164.046 105.011 164.046C104.38 164.046 103.863 164.18 103.863 164.342C103.863 164.503 104.38 164.644 105.011 164.644C105.642 164.644 106.152 164.509 106.152 164.342Z" fill="#282828"/>
<path d="M110.731 164.342C110.731 164.18 110.221 164.046 109.583 164.046C108.946 164.046 108.442 164.18 108.442 164.342C108.442 164.503 108.952 164.644 109.583 164.644C110.214 164.644 110.731 164.509 110.731 164.342Z" fill="#282828"/>
<path d="M115.311 164.342C115.311 164.18 114.794 164.046 114.162 164.046C113.531 164.046 113.021 164.18 113.021 164.342C113.021 164.503 113.531 164.644 114.162 164.644C114.794 164.644 115.311 164.509 115.311 164.342Z" fill="#282828"/>
<path d="M119.909 164.342C119.909 164.18 119.392 164.046 118.761 164.046C118.13 164.046 117.62 164.18 117.62 164.342C117.62 164.503 118.13 164.644 118.761 164.644C119.392 164.644 119.909 164.509 119.909 164.342Z" fill="#282828"/>
<path d="M124.462 164.342C124.462 164.18 123.952 164.046 123.321 164.046C122.689 164.046 122.179 164.18 122.179 164.342C122.179 164.503 122.689 164.644 123.321 164.644C123.952 164.644 124.462 164.509 124.462 164.342Z" fill="#282828"/>
<path d="M129.041 164.342C129.041 164.18 128.531 164.046 127.9 164.046C127.269 164.046 126.752 164.18 126.752 164.342C126.752 164.503 127.269 164.644 127.9 164.644C128.531 164.644 129.041 164.509 129.041 164.342Z" fill="#282828"/>
<path d="M133.62 164.342C133.62 164.18 133.11 164.046 132.479 164.046C131.848 164.046 131.331 164.18 131.331 164.342C131.331 164.503 131.841 164.644 132.479 164.644C133.117 164.644 133.62 164.509 133.62 164.342Z" fill="#282828"/>
<path d="M137.05 164.637C136.42 164.637 135.909 164.505 135.909 164.342C135.909 164.178 136.42 164.046 137.05 164.046C137.68 164.046 138.191 164.178 138.191 164.342C138.191 164.505 137.68 164.637 137.05 164.637Z" fill="#282828"/>
<path d="M141.629 163.199C141.468 163.199 141.334 163.71 141.334 164.341L141.629 164.046H141.394H141.179C141.057 164.061 140.936 164.083 140.817 164.113C140.609 164.166 140.481 164.24 140.481 164.321C140.481 164.402 140.609 164.482 140.817 164.536C140.936 164.566 141.057 164.586 141.179 164.596H141.394H141.622L141.925 164.294C141.931 163.71 141.797 163.199 141.629 163.199Z" fill="#282828"/>
<path d="M141.63 158.645C141.468 158.645 141.334 159.155 141.334 159.787C141.334 160.418 141.468 160.922 141.63 160.922C141.791 160.922 141.932 160.411 141.932 159.787C141.932 159.162 141.797 158.645 141.63 158.645Z" fill="#282828"/>
<path d="M141.63 154.096C141.468 154.096 141.334 154.607 141.334 155.232C141.334 155.856 141.468 156.374 141.63 156.374C141.791 156.374 141.932 155.863 141.932 155.232C141.932 154.6 141.797 154.096 141.63 154.096Z" fill="#282828"/>
<path d="M141.63 149.541C141.468 149.541 141.334 150.051 141.334 150.683C141.334 151.314 141.468 151.818 141.63 151.818C141.791 151.818 141.932 151.308 141.932 150.683C141.932 150.058 141.797 149.541 141.63 149.541Z" fill="#282828"/>
<path d="M141.63 144.992C141.468 144.992 141.334 145.496 141.334 146.128C141.334 146.759 141.468 147.263 141.63 147.263C141.791 147.263 141.932 146.752 141.932 146.128C141.932 145.503 141.797 144.992 141.63 144.992Z" fill="#282828"/>
<path d="M141.63 140.437C141.468 140.437 141.334 140.948 141.334 141.572C141.334 142.197 141.468 142.715 141.63 142.715C141.791 142.715 141.932 142.204 141.932 141.572C141.932 140.941 141.797 140.437 141.63 140.437Z" fill="#282828"/>
<path d="M141.63 135.881C141.468 135.881 141.334 136.392 141.334 137.023C141.334 137.655 141.468 138.159 141.63 138.159C141.791 138.159 141.932 137.648 141.932 137.023C141.932 136.399 141.797 135.881 141.63 135.881Z" fill="#282828"/>
<path d="M141.63 131.334C141.468 131.334 141.334 131.838 141.334 132.469C141.334 133.101 141.468 133.605 141.63 133.605C141.791 133.605 141.932 133.101 141.932 132.469C141.932 131.838 141.797 131.334 141.63 131.334Z" fill="#282828"/>
<path d="M141.63 126.778C141.468 126.778 141.334 127.289 141.334 127.914C141.334 128.539 141.468 129.056 141.63 129.056C141.791 129.056 141.932 128.545 141.932 127.914C141.932 127.282 141.797 126.778 141.63 126.778Z" fill="#282828"/>
<path d="M140.488 123.358C140.488 123.52 140.999 123.654 141.63 123.654L141.334 123.358V123.573C141.334 123.634 141.334 123.701 141.334 123.788C141.35 123.911 141.372 124.032 141.401 124.151C141.455 124.36 141.529 124.487 141.609 124.487C141.69 124.487 141.771 124.36 141.824 124.151C141.854 124.032 141.875 123.911 141.885 123.788V123.573V123.358L141.583 123.056C140.998 123.056 140.488 123.191 140.488 123.358Z" fill="#282828"/>
<path d="M135.909 123.358C135.909 123.52 136.419 123.654 137.05 123.654C137.681 123.654 138.198 123.52 138.198 123.358C138.198 123.197 137.688 123.056 137.05 123.056C136.412 123.056 135.909 123.191 135.909 123.358Z" fill="#282828"/>
<path d="M131.324 123.358C131.324 123.52 131.834 123.654 132.472 123.654C133.11 123.654 133.613 123.52 133.613 123.358C133.613 123.197 133.103 123.056 132.472 123.056C131.841 123.056 131.324 123.191 131.324 123.358Z" fill="#282828"/>
<path d="M126.752 123.358C126.752 123.52 127.269 123.654 127.9 123.654C128.531 123.654 129.041 123.52 129.041 123.358C129.041 123.197 128.531 123.056 127.9 123.056C127.269 123.056 126.752 123.191 126.752 123.358Z" fill="#282828"/>
<path d="M122.179 123.358C122.179 123.52 122.689 123.654 123.321 123.654C123.952 123.654 124.462 123.52 124.462 123.358C124.462 123.197 123.952 123.056 123.321 123.056C122.689 123.056 122.179 123.191 122.179 123.358Z" fill="#282828"/>
<path d="M117.6 123.358C117.6 123.52 118.11 123.654 118.742 123.654C119.373 123.654 119.89 123.52 119.89 123.358C119.89 123.197 119.373 123.056 118.742 123.056C118.11 123.056 117.6 123.191 117.6 123.358Z" fill="#282828"/>
<path d="M113.021 123.358C113.021 123.52 113.531 123.654 114.162 123.654C114.794 123.654 115.311 123.52 115.311 123.358C115.311 123.197 114.794 123.056 114.162 123.056C113.531 123.056 113.021 123.191 113.021 123.358Z" fill="#282828"/>
<path d="M108.442 123.358C108.442 123.52 108.952 123.654 109.583 123.654C110.214 123.654 110.731 123.52 110.731 123.358C110.731 123.197 110.221 123.056 109.583 123.056C108.946 123.056 108.442 123.191 108.442 123.358Z" fill="#282828"/>
<path d="M103.863 123.358C103.863 123.52 104.38 123.654 105.011 123.654C105.642 123.654 106.152 123.52 106.152 123.358C106.152 123.197 105.642 123.056 105.011 123.056C104.38 123.056 103.863 123.191 103.863 123.358Z" fill="#282828"/>
<path d="M99.2839 123.358C99.2839 123.52 99.8008 123.654 100.432 123.654C101.063 123.654 101.573 123.52 101.573 123.358C101.573 123.197 101.063 123.056 100.432 123.056C99.8008 123.056 99.2839 123.191 99.2839 123.358Z" fill="#282828"/>
<path d="M94.7124 123.358C94.7124 123.52 95.2227 123.654 95.8538 123.654C96.4849 123.654 96.9951 123.52 96.9951 123.358C96.9951 123.197 96.4849 123.056 95.8538 123.056C95.2227 123.056 94.7124 123.191 94.7124 123.358Z" fill="#282828"/>
<path d="M90.1334 123.358C90.1334 123.52 90.6437 123.654 91.2748 123.654C91.9059 123.654 92.4229 123.52 92.4229 123.358C92.4229 123.197 91.9059 123.056 91.2748 123.056C90.6437 123.056 90.1334 123.191 90.1334 123.358Z" fill="#282828"/>
<path d="M85.5542 123.358C85.5542 123.52 86.0645 123.654 86.6956 123.654C87.3268 123.654 87.8438 123.52 87.8438 123.358C87.8438 123.197 87.3268 123.056 86.6956 123.056C86.0645 123.056 85.5542 123.191 85.5542 123.358Z" fill="#282828"/>
<path d="M80.9684 123.358C80.9684 123.52 81.4786 123.654 82.1164 123.654C82.7543 123.654 83.2578 123.52 83.2578 123.358C83.2578 123.197 82.7475 123.056 82.1164 123.056C81.4853 123.056 80.9684 123.191 80.9684 123.358Z" fill="#282828"/>
<path d="M76.3961 123.358C76.3961 123.52 76.9131 123.654 77.5442 123.654C78.1753 123.654 78.6855 123.52 78.6855 123.358C78.6855 123.197 78.1753 123.056 77.5442 123.056C76.9131 123.056 76.3961 123.191 76.3961 123.358Z" fill="#282828"/>
<path d="M72.9661 124.501C73.1272 124.501 73.2615 123.99 73.2615 123.359L72.9661 123.654H73.1944H73.4092C73.5312 123.639 73.6523 123.616 73.7717 123.587C73.9799 123.533 74.1074 123.459 74.1074 123.379C74.1074 123.298 73.9799 123.217 73.7717 123.164C73.6527 123.134 73.5315 123.114 73.4092 123.103H73.1944H72.9661L72.6707 123.406C72.6707 123.99 72.7982 124.501 72.9661 124.501Z" fill="#282828"/>
<path d="M72.9663 129.056C73.1274 129.056 73.2617 128.545 73.2617 127.914C73.2617 127.282 73.1274 126.778 72.9663 126.778C72.8052 126.778 72.671 127.289 72.671 127.914C72.671 128.539 72.7985 129.056 72.9663 129.056Z" fill="#282828"/>
<path d="M72.9663 133.605C73.1274 133.605 73.2617 133.101 73.2617 132.469C73.2617 131.838 73.1274 131.334 72.9663 131.334C72.8052 131.334 72.671 131.838 72.671 132.469C72.671 133.101 72.7985 133.605 72.9663 133.605Z" fill="#282828"/>
<path d="M72.9663 138.159C73.1274 138.159 73.2617 137.648 73.2617 137.023C73.2617 136.399 73.1274 135.881 72.9663 135.881C72.8052 135.881 72.671 136.392 72.671 137.023C72.671 137.655 72.7985 138.159 72.9663 138.159Z" fill="#282828"/>
<path d="M72.9663 142.715C73.1274 142.715 73.2617 142.204 73.2617 141.572C73.2617 140.941 73.1274 140.437 72.9663 140.437C72.8052 140.437 72.671 140.948 72.671 141.572C72.671 142.197 72.7985 142.715 72.9663 142.715Z" fill="#282828"/>
<path d="M72.9663 147.263C73.1274 147.263 73.2617 146.752 73.2617 146.128C73.2617 145.503 73.1274 144.992 72.9663 144.992C72.8052 144.992 72.671 145.496 72.671 146.128C72.671 146.759 72.7985 147.263 72.9663 147.263Z" fill="#282828"/>
<path d="M72.9663 151.818C73.1274 151.818 73.2617 151.308 73.2617 150.683C73.2617 150.058 73.1274 149.541 72.9663 149.541C72.8052 149.541 72.671 150.051 72.671 150.683C72.671 151.314 72.7985 151.818 72.9663 151.818Z" fill="#282828"/>
<path d="M72.9663 156.374C73.1274 156.374 73.2617 155.863 73.2617 155.232C73.2617 154.6 73.1274 154.096 72.9663 154.096C72.8052 154.096 72.671 154.607 72.671 155.232C72.671 155.856 72.7985 156.374 72.9663 156.374Z" fill="#282828"/>
<path d="M72.9663 160.922C73.1274 160.922 73.2617 160.411 73.2617 159.787C73.2617 159.162 73.1274 158.645 72.9663 158.645C72.8052 158.645 72.671 159.155 72.671 159.787C72.671 160.418 72.7985 160.922 72.9663 160.922Z" fill="#282828"/>
<path d="M139.991 162.373H143.268V165.651H139.991V162.373Z" fill="#282828"/>
<path d="M139.991 121.719H143.268V124.997H139.991V121.719Z" fill="#282828"/>
<path d="M71.3271 121.719H74.6035V124.997H71.3271V121.719Z" fill="#282828"/>
<path d="M71.3271 162.225H74.6035V165.503H71.3271V162.225Z" fill="#282828"/>
<path d="M105.656 162.225H108.933V165.503H105.656V162.225Z" fill="#282828"/>
<path d="M105.656 121.719H108.933V124.997H105.656V121.719Z" fill="#282828"/>
<path d="M139.991 142.211H143.268V145.49H139.991V142.211Z" fill="#282828"/>
<path d="M71.3271 142.211H74.6035V145.49H71.3271V142.211Z" fill="#282828"/>
<path d="M265.536 127.719C265.43 127.564 265.306 127.422 265.166 127.296L264.099 126.227C263.193 125.327 261.924 124.098 260.514 122.754V122.935C261.937 121.592 263.199 120.409 264.126 119.529L265.2 118.481C265.337 118.357 265.46 118.22 265.569 118.071C265.41 118.164 265.264 118.277 265.133 118.407C264.831 118.676 264.462 119.012 264.005 119.401C263.065 120.248 261.769 121.417 260.346 122.761L260.252 122.848L260.346 122.942C261.756 124.286 263.031 125.502 263.978 126.368L265.099 127.383C265.233 127.509 265.38 127.622 265.536 127.719Z" fill="#282828"/>
<path d="M276.506 118.038C276.612 118.189 276.733 118.329 276.869 118.454C277.164 118.743 277.54 119.126 277.936 119.529C278.849 120.423 280.118 121.652 281.528 123.003V122.821C280.105 124.165 278.843 125.348 277.916 126.228L276.842 127.283C276.701 127.402 276.577 127.54 276.473 127.692C276.626 127.588 276.771 127.474 276.909 127.35L278.03 126.355C278.977 125.509 280.273 124.34 281.696 122.996L281.79 122.909L281.696 122.815C280.286 121.471 279.01 120.255 278.057 119.395L276.936 118.374C276.805 118.246 276.661 118.134 276.506 118.038Z" fill="#282828"/>
<path d="M273.659 129.996C273.726 129.996 272.572 126.731 271.088 122.767C269.604 118.803 268.349 115.598 268.288 115.619C268.228 115.639 269.376 118.884 270.86 122.854C272.343 126.825 273.626 130.023 273.659 129.996Z" fill="#282828"/>
<path d="M253.075 136.923C253.075 136.923 253.075 136.735 253.075 136.385C253.075 136.036 253.075 135.505 253.075 134.827C253.075 133.483 253.075 131.467 253.075 128.928C253.075 123.849 253.075 116.586 253.129 107.838L253.028 107.939H288.699L288.578 107.818C288.578 118.333 288.578 128.263 288.578 136.903L288.686 136.795L262.931 136.849H255.626H253.686H255.599L262.918 136.983L288.746 137.037H288.86V136.923C288.86 128.283 288.86 118.353 288.86 107.838V107.711H288.733H253.061H252.954V107.818C252.954 116.593 252.994 123.875 253.008 128.968C253.008 131.501 253.008 133.483 253.008 134.847C253.008 135.519 253.008 136.029 253.008 136.385C253.008 136.741 253.075 136.923 253.075 136.923Z" fill="#282828"/>
<path d="M252.793 112.152C252.793 112.219 260.85 112.28 270.78 112.28C280.71 112.28 288.767 112.219 288.767 112.152C288.767 112.085 280.71 112.031 270.78 112.031C260.85 112.031 252.793 112.085 252.793 112.152Z" fill="#282828"/>
<path d="M285.839 110.029C285.839 110.125 285.867 110.219 285.921 110.298C285.974 110.378 286.05 110.44 286.139 110.476C286.228 110.513 286.325 110.522 286.419 110.503C286.513 110.484 286.599 110.437 286.666 110.369C286.734 110.3 286.779 110.213 286.797 110.119C286.815 110.025 286.805 109.927 286.767 109.839C286.729 109.751 286.666 109.676 286.586 109.623C286.506 109.571 286.411 109.544 286.316 109.545C286.252 109.545 286.19 109.558 286.132 109.582C286.073 109.607 286.02 109.642 285.976 109.687C285.932 109.732 285.897 109.786 285.873 109.844C285.85 109.903 285.838 109.966 285.839 110.029Z" fill="#282828"/>
<path d="M284.087 110.029C284.087 110.125 284.115 110.219 284.169 110.298C284.222 110.378 284.298 110.44 284.387 110.476C284.476 110.513 284.573 110.522 284.667 110.503C284.761 110.484 284.847 110.437 284.915 110.369C284.982 110.3 285.027 110.213 285.045 110.119C285.063 110.025 285.053 109.927 285.015 109.839C284.977 109.751 284.914 109.676 284.834 109.623C284.754 109.571 284.659 109.544 284.564 109.545C284.5 109.545 284.438 109.558 284.38 109.582C284.321 109.607 284.268 109.642 284.224 109.687C284.18 109.732 284.145 109.786 284.121 109.844C284.098 109.903 284.086 109.966 284.087 110.029Z" fill="#282828"/>
<path d="M282.817 110.513C282.55 110.513 282.334 110.296 282.334 110.029C282.334 109.762 282.55 109.545 282.817 109.545C283.084 109.545 283.301 109.762 283.301 110.029C283.301 110.296 283.084 110.513 282.817 110.513Z" fill="#282828"/>
<path d="M56.7982 275.452C57.9262 274.478 60.4439 271.421 58.5036 267.847C57.7919 266.537 56.2813 265.892 54.9116 265.314C53.5043 264.849 52.1771 264.169 50.9772 263.298C48.8421 261.478 48.2513 258.461 46.8346 256.036C45.2099 253.254 42.1751 251.171 38.9658 251.333C35.2933 251.501 32.2518 254.497 30.8419 257.924C29.4319 261.35 29.4051 265.146 29.3782 268.841C29.3782 270.857 29.4521 273.188 30.956 274.565C32.3324 275.835 34.4137 275.855 36.2869 275.795L56.3551 275.177" fill="#F5F5F5"/>
<path d="M211.375 259.858V281.458H179.806H144.98V259.858H211.375Z" fill="#F5F5F5"/>
<path d="M214.16 253.818V259.858H142.656V253.818H179.805H214.16Z" fill="#EBEBEB"/>
<path d="M178.408 281.458H144.979V259.858H142.656V253.818H179.805V259.294L178.408 281.458Z" fill="#EBEBEB"/>
<path d="M188.621 263.339H202.089V266.591H188.621V263.339Z" fill="#282828"/>
<path d="M186.533 270.655H203.821V277.522H186.533V270.655Z" fill="white"/>
<path d="M98.3779 62.8585C98.0377 62.74 97.6753 62.6987 97.3171 62.7376H96.9613L97.0754 62.8518C97.0754 62.4419 97.015 62.1799 96.9613 62.1799C96.9076 62.1799 96.8606 62.4688 96.8472 62.8518V62.966H97.3238C97.6788 63.0082 98.0387 62.9714 98.3779 62.8585Z" fill="#282828"/>
<path d="M96.9612 15.4118C97.0283 15.4118 97.082 15.0894 97.082 14.6997C97.082 14.31 97.0283 14.0278 96.9612 14.0278C96.894 14.0278 96.8403 14.3436 96.8403 14.6997C96.8403 15.0558 96.894 15.4118 96.9612 15.4118Z" fill="#282828"/>
<path d="M96.9612 18.2408C97.0283 18.2408 97.082 17.9251 97.082 17.569C97.082 17.2129 97.0283 16.8635 96.9612 16.8635C96.894 16.8635 96.8403 17.1793 96.8403 17.569C96.8403 17.9586 96.894 18.2408 96.9612 18.2408Z" fill="#282828"/>
<path d="M96.9612 21.1096C97.0283 21.1096 97.082 20.7938 97.082 20.4377C97.082 20.0817 97.0283 19.7256 96.9612 19.7256C96.894 19.7256 96.8403 20.0414 96.8403 20.4377C96.8403 20.8341 96.894 21.1096 96.9612 21.1096Z" fill="#282828"/>
<path d="M96.9612 23.9111C97.0283 23.9111 97.082 23.5953 97.082 23.199C97.082 22.8026 97.0283 22.5271 96.9612 22.5271C96.894 22.5271 96.8403 22.8429 96.8403 23.199C96.8403 23.555 96.894 23.9111 96.9612 23.9111Z" fill="#282828"/>
<path d="M96.9612 26.7397C97.0283 26.7397 97.082 26.4239 97.082 26.0678C97.082 25.7118 97.0283 25.396 96.9612 25.396C96.894 25.396 96.8403 25.7118 96.8403 26.0678C96.8403 26.4239 96.894 26.7397 96.9612 26.7397Z" fill="#282828"/>
<path d="M96.9612 29.5749C97.0283 29.5749 97.082 29.2592 97.082 28.9031C97.082 28.547 97.0283 28.1909 96.9612 28.1909C96.894 28.1909 96.8403 28.5067 96.8403 28.9031C96.8403 29.2995 96.894 29.5749 96.9612 29.5749Z" fill="#282828"/>
<path d="M96.9612 32.4098C97.0283 32.4098 97.082 32.094 97.082 31.6976C97.082 31.3012 97.0283 30.9922 96.9612 30.9922C96.894 30.9922 96.8403 31.308 96.8403 31.6976C96.8403 32.0873 96.894 32.4098 96.9612 32.4098Z" fill="#282828"/>
<path d="M96.9612 35.2185C97.0283 35.2185 97.082 34.9027 97.082 34.5466C97.082 34.1905 97.0283 33.8748 96.9612 33.8748C96.894 33.8748 96.8403 34.1905 96.8403 34.5466C96.8403 34.9027 96.894 35.2185 96.9612 35.2185Z" fill="#282828"/>
<path d="M96.9612 38.0737C97.0283 38.0737 97.082 37.7579 97.082 37.4019C97.082 37.0458 97.0283 36.6897 96.9612 36.6897C96.894 36.6897 96.8403 37.0122 96.8403 37.4019C96.8403 37.7915 96.894 38.0737 96.9612 38.0737Z" fill="#282828"/>
<path d="M96.9612 40.9087C97.0283 40.9087 97.082 40.5929 97.082 40.1965C97.082 39.8001 97.0283 39.5247 96.9612 39.5247C96.894 39.5247 96.8403 39.8404 96.8403 40.1965C96.8403 40.5526 96.894 40.9087 96.9612 40.9087Z" fill="#282828"/>
<path d="M96.9612 43.7442C97.0283 43.7442 97.082 43.4217 97.082 43.032C97.082 42.6423 97.0283 42.3601 96.9612 42.3601C96.894 42.3601 96.8403 42.6759 96.8403 43.032C96.8403 43.3881 96.894 43.7442 96.9612 43.7442Z" fill="#282828"/>
<path d="M96.9612 46.5724C97.0283 46.5724 97.082 46.2566 97.082 45.867C97.082 45.4773 97.0283 45.1548 96.9612 45.1548C96.894 45.1548 96.8403 45.4773 96.8403 45.867C96.8403 46.2566 96.894 46.5724 96.9612 46.5724Z" fill="#282828"/>
<path d="M96.9612 49.4077C97.0283 49.4077 97.082 49.0919 97.082 48.6955C97.082 48.2991 97.0283 48.0237 96.9612 48.0237C96.894 48.0237 96.8403 48.3394 96.8403 48.6955C96.8403 49.0516 96.894 49.4077 96.9612 49.4077Z" fill="#282828"/>
<path d="M96.9612 52.2432C97.0283 52.2432 97.082 51.9207 97.082 51.531C97.082 51.1413 97.0283 50.8591 96.9612 50.8591C96.894 50.8591 96.8403 51.1749 96.8403 51.531C96.8403 51.8871 96.894 52.2432 96.9612 52.2432Z" fill="#282828"/>
<path d="M96.9612 55.0717C97.0283 55.0717 97.082 54.7559 97.082 54.3662C97.082 53.9765 97.0283 53.6541 96.9612 53.6541C96.894 53.6541 96.8403 53.9765 96.8403 54.3662C96.8403 54.7559 96.894 55.0717 96.9612 55.0717Z" fill="#282828"/>
<path d="M96.9612 57.9064C97.0283 57.9064 97.082 57.5906 97.082 57.2009C97.082 56.8113 97.0283 56.4888 96.9612 56.4888C96.894 56.4888 96.8403 56.8045 96.8403 57.2009C96.8403 57.5973 96.894 57.9064 96.9612 57.9064Z" fill="#282828"/>
<path d="M96.9612 60.7487C97.0283 60.7487 97.082 60.4262 97.082 60.0365C97.082 59.6468 97.0283 59.3311 96.9612 59.3311C96.894 59.3311 96.8403 59.6468 96.8403 60.0365C96.8403 60.4262 96.894 60.7487 96.9612 60.7487Z" fill="#282828"/>
<path d="M95.0952 60.48H98.8281V64.2155H95.0952V60.48Z" fill="#282828"/>
<path d="M21.3755 3.50059C21.3755 3.58121 32.0306 3.6484 45.1766 3.6484C58.3226 3.6484 68.9844 3.58121 68.9844 3.50059C68.9844 3.41997 58.3293 3.35278 45.1766 3.35278C32.0239 3.35278 21.3755 3.41325 21.3755 3.50059Z" fill="white"/>
<path d="M65.1102 1.04181C65.0867 1.17886 65.1063 1.31983 65.1663 1.44526C65.2262 1.5707 65.3236 1.67442 65.445 1.74213C65.5664 1.80985 65.7057 1.83821 65.8439 1.82331C65.982 1.80841 66.1122 1.75099 66.2163 1.65895C66.3205 1.56692 66.3936 1.44481 66.4255 1.30947C66.4573 1.17413 66.4465 1.03223 66.3943 0.903328C66.3422 0.774431 66.2514 0.664892 66.1345 0.589817C66.0175 0.514742 65.8801 0.47783 65.7413 0.484174C65.5839 0.474966 65.4291 0.52842 65.3109 0.632879C65.1927 0.737338 65.1205 0.884333 65.1102 1.04181Z" fill="white"/>
<path d="M62.7942 1.04141C62.8046 1.19889 62.8768 1.34588 62.995 1.45034C63.1132 1.5548 63.2679 1.60825 63.4254 1.59904C63.5058 1.61157 63.588 1.60654 63.6663 1.58427C63.7446 1.56201 63.8172 1.52305 63.879 1.47007C63.9408 1.41708 63.9905 1.35134 64.0245 1.27734C64.0585 1.20335 64.0762 1.12286 64.0762 1.04141C64.0762 0.959954 64.0585 0.879465 64.0245 0.805471C63.9905 0.731477 63.9408 0.665729 63.879 0.612748C63.8172 0.559767 63.7446 0.520806 63.6663 0.498542C63.588 0.476278 63.5058 0.471238 63.4254 0.483769C63.2679 0.474562 63.1132 0.528015 62.995 0.632475C62.8768 0.736934 62.8046 0.883928 62.7942 1.04141Z" fill="white"/>
<path d="M60.4707 1.04183C60.4472 1.17859 60.4666 1.31928 60.5262 1.44457C60.5859 1.56985 60.6828 1.67357 60.8037 1.74149C60.9247 1.80941 61.0636 1.8382 61.2016 1.82389C61.3395 1.80957 61.4696 1.75287 61.5741 1.66157C61.6785 1.57026 61.7521 1.44884 61.7848 1.31397C61.8175 1.17911 61.8076 1.03743 61.7566 0.908397C61.7056 0.779361 61.6159 0.669304 61.4998 0.593346C61.3838 0.517388 61.2471 0.479255 61.1085 0.484189C60.9503 0.474923 60.7949 0.52817 60.6756 0.632466C60.5563 0.736762 60.4827 0.883768 60.4707 1.04183Z" fill="white"/>
<path d="M269.108 193.493C263.066 184.195 262.495 172.753 269.78 164.342C272.036 161.735 276.608 157.623 280.045 157.919C283.483 158.215 286.39 161.238 287.431 164.604C288.471 167.97 288.102 171.611 287.505 175.085C286.625 179.949 285.148 184.927 281.778 188.522C278.407 192.116 273.452 195.852 269.115 193.48" fill="#DDE1EA"/>
<path d="M272.472 238.245C271.381 235.541 271.167 232.561 271.863 229.728C272.558 226.896 274.127 224.354 276.346 222.463C277.742 221.328 279.569 220.448 281.314 220.905C283.06 221.361 284.282 223.189 284.53 225.023C284.669 226.873 284.356 228.73 283.617 230.432C282.724 232.857 281.516 235.282 279.448 236.841C277.38 238.4 274.493 239.858 272.479 238.245" fill="#DDE1EA"/>
<path d="M257.823 235.054C258.574 230.901 257.999 226.617 256.181 222.809C254.362 219.001 251.392 215.862 247.691 213.837C245.382 212.628 242.528 211.916 240.198 213.085C237.869 214.254 236.66 217.196 236.841 219.864C237.023 222.531 238.312 224.99 239.728 227.254C241.709 230.425 244.139 233.516 247.523 235.115C250.907 236.714 255.426 237.93 257.816 235.048" fill="#DDE1EA"/>
<path d="M258.889 212.762C261.796 203.356 256.875 191.982 248.644 186.593C246.092 184.92 242.863 183.758 240.01 184.846C237.156 185.935 235.417 189.214 235.31 192.338C235.202 195.462 236.424 198.472 237.801 201.28C239.734 205.204 242.198 209.08 245.945 211.358C249.691 213.635 255.761 215.866 258.876 212.789" fill="#DDE1EA"/>
<path d="M264.717 258.669C264.668 258.523 264.634 258.372 264.616 258.219C264.569 257.877 264.502 257.44 264.422 256.909C264.381 256.614 264.341 256.298 264.294 255.962C264.247 255.626 264.153 255.243 264.079 254.84C263.925 254.04 263.764 253.127 263.502 252.152C263.381 251.655 263.26 251.131 263.126 250.587C262.992 250.043 262.804 249.492 262.636 248.914C262.32 247.745 261.857 246.542 261.427 245.252C259.377 239.727 256.578 234.51 253.109 229.746C252.276 228.678 251.531 227.623 250.732 226.716L249.611 225.372L248.516 224.19C247.845 223.417 247.173 222.786 246.576 222.215L245.763 221.415L245.045 220.784L244.065 219.897C243.947 219.796 243.837 219.686 243.736 219.568C243.873 219.64 243.999 219.73 244.112 219.836L245.146 220.649L245.891 221.261L246.724 222.04C247.328 222.598 248.019 223.222 248.738 223.982L249.859 225.151L251.007 226.494C251.819 227.395 252.578 228.443 253.424 229.518C256.95 234.287 259.767 239.542 261.79 245.118C262.219 246.408 262.669 247.631 262.971 248.807C263.133 249.391 263.294 249.955 263.441 250.493C263.589 251.03 263.683 251.575 263.797 252.079C264.046 253.08 264.187 254 264.314 254.813C264.381 255.209 264.442 255.586 264.502 255.935C264.563 256.284 264.569 256.607 264.596 256.896C264.65 257.433 264.69 257.87 264.717 258.239C264.732 258.382 264.732 258.526 264.717 258.669Z" fill="#263238"/>
<path d="M264.502 260.356C264.494 260.296 264.494 260.234 264.502 260.174C264.502 260.026 264.516 259.845 264.543 259.63C264.59 259.119 264.65 258.421 264.731 257.541C264.778 257.084 264.825 256.58 264.878 256.036C264.932 255.491 264.932 254.914 264.972 254.242C265.019 252.952 265.14 251.487 265.1 249.861C265.1 249.048 265.1 248.195 265.1 247.308C265.1 246.421 265.006 245.501 264.959 244.547C264.899 242.639 264.637 240.61 264.408 238.5C263.782 233.886 262.819 229.323 261.528 224.848C260.175 220.388 258.495 216.033 256.499 211.821C255.533 209.906 254.646 208.066 253.659 206.446C253.176 205.627 252.746 204.807 252.27 204.061L250.887 201.911C250.041 200.527 249.141 199.365 248.396 198.31C248.013 197.786 247.677 197.289 247.342 196.852L246.395 195.67C245.851 194.998 245.415 194.427 245.099 194.024L244.77 193.587C244.729 193.54 244.693 193.488 244.663 193.433C244.663 193.433 244.716 193.473 244.797 193.56L245.159 193.97L246.502 195.569L247.476 196.678C247.825 197.114 248.147 197.605 248.563 198.122C249.322 199.17 250.242 200.319 251.108 201.703L252.518 203.846C253.001 204.592 253.438 205.405 253.928 206.231C254.935 207.864 255.835 209.712 256.815 211.606C260.923 220.037 263.607 229.091 264.758 238.4C264.979 240.55 265.228 242.585 265.275 244.5C265.315 245.461 265.389 246.388 265.389 247.275C265.389 248.162 265.389 249.022 265.389 249.834C265.389 251.467 265.275 252.938 265.207 254.228C265.16 254.9 265.134 255.478 265.087 256.029C265.04 256.58 264.952 257.077 264.899 257.534L264.63 259.617C264.63 259.832 264.576 260.013 264.556 260.154C264.55 260.224 264.532 260.292 264.502 260.356Z" fill="#263238"/>
<path d="M280.314 169.146C280.298 169.207 280.273 169.266 280.241 169.32L279.979 169.811C279.724 170.261 279.374 170.879 278.938 171.665C278.717 172.068 278.448 172.505 278.186 173.009C277.924 173.513 277.669 174.064 277.374 174.648L276.44 176.523C276.125 177.195 275.823 177.92 275.487 178.673C275.151 179.425 274.816 180.218 274.46 181.051L273.453 183.664L272.922 185.042L272.432 186.486C272.103 187.467 271.761 188.502 271.418 189.503C270.129 193.675 268.907 198.311 267.88 203.242C266.853 208.174 266.182 212.924 265.665 217.257C265.148 221.591 264.892 225.514 264.805 228.813C264.718 230.459 264.704 231.957 264.698 233.267C264.691 234.577 264.698 235.706 264.698 236.627C264.698 237.547 264.698 238.239 264.698 238.756V239.307C264.704 239.37 264.704 239.433 264.698 239.495C264.686 239.435 264.686 239.374 264.698 239.314C264.698 239.166 264.698 238.978 264.657 238.756C264.657 238.239 264.597 237.534 264.557 236.633C264.516 235.733 264.483 234.577 264.483 233.274C264.483 231.971 264.483 230.466 264.53 228.813C264.584 225.501 264.879 221.577 265.302 217.223C265.725 212.87 266.49 208.106 267.491 203.182C268.491 198.257 269.753 193.588 271.063 189.416L272.103 186.385L272.6 184.941C272.788 184.471 272.963 184.007 273.144 183.557C273.5 182.65 273.815 181.777 274.178 180.937C274.54 180.097 274.896 179.324 275.232 178.565C275.568 177.806 275.903 177.087 276.212 176.422L277.179 174.554L278.025 172.948C278.294 172.451 278.569 172.021 278.804 171.605L279.905 169.784L280.2 169.32C280.232 169.258 280.27 169.2 280.314 169.146Z" fill="#263238"/>
<path d="M278.253 226.199C278.06 226.596 277.836 226.975 277.582 227.335C277.138 228.047 276.527 229.095 275.816 230.412C275.104 231.729 274.312 233.321 273.513 235.115C272.714 236.909 271.962 238.971 271.284 241.162C270.657 243.214 270.137 245.297 269.726 247.403C269.364 249.352 269.102 251.112 268.961 252.603C268.82 254.095 268.719 255.291 268.686 256.144C268.685 256.578 268.651 257.012 268.585 257.441C268.527 257.009 268.509 256.572 268.531 256.137C268.531 255.297 268.531 254.081 268.679 252.576C268.827 251.071 269.015 249.298 269.35 247.336C269.748 245.211 270.262 243.11 270.888 241.041C271.535 238.985 272.295 236.966 273.164 234.994C273.983 233.18 274.802 231.581 275.554 230.291C276.306 229.001 276.957 227.96 277.441 227.274C277.68 226.893 277.951 226.534 278.253 226.199Z" fill="#263238"/>
<path d="M252.786 254.484H279.468L276.238 281.761H256.11L252.786 254.484Z" fill="#EF293D"/>
<path d="M253.76 278.819L256.023 281.761H276.239L278.568 278.913L253.76 278.819Z" fill="#263238"/>
<path d="M278.427 262.506C278.427 262.62 272.888 262.708 266.06 262.708C259.232 262.708 253.693 262.62 253.693 262.506C253.693 262.392 259.232 262.311 266.06 262.311C272.888 262.311 278.427 262.399 278.427 262.506Z" fill="#FAFAFA"/>
<path d="M278.427 264.32C278.427 264.428 272.888 264.515 266.06 264.515C259.232 264.515 253.693 264.428 253.693 264.32C253.693 264.212 259.232 264.118 266.06 264.118C272.888 264.118 278.427 264.212 278.427 264.32Z" fill="#FAFAFA"/>
<path d="M278.099 266.08C278.099 266.194 272.727 266.281 266.161 266.281C259.595 266.281 254.224 266.194 254.224 266.08C254.224 265.966 259.595 265.885 266.161 265.885C272.727 265.885 278.099 265.972 278.099 266.08Z" fill="#FAFAFA"/>
<path d="M26.7672 281.728C26.7672 281.829 85.6086 281.903 158.173 281.903C230.738 281.903 289.593 281.829 289.593 281.728C289.593 281.627 230.765 281.553 158.173 281.553C85.5817 281.553 26.7672 281.634 26.7672 281.728Z" fill="#B2B1B1"/>
<path d="M73.0732 272.067L72.9255 263.877L58.685 263.03V273.048L63.8011 276.293L73.0732 272.067Z" fill="#FFCEB0"/>
<path d="M58.4172 271.18V272.12C58.4172 272.12 42.4514 278.308 42.2499 281.325L73.8057 281.546L73.4498 271.039C68.7165 273.175 63.8086 273.39 58.4172 271.18Z" fill="#EF293D"/>
<g opacity="0.6">
<path opacity="0.6" d="M70.2265 274.398C70.5291 274.493 70.7861 274.696 70.9484 274.969C71.1107 275.241 71.1668 275.564 71.106 275.876C71.0236 276.183 70.8263 276.446 70.555 276.611C70.2837 276.776 69.9593 276.83 69.6491 276.763C69.3265 276.664 69.0527 276.448 68.8823 276.156C68.7119 275.865 68.6573 275.52 68.7293 275.19C68.8486 274.881 69.0831 274.63 69.3835 274.489C69.6839 274.349 70.0269 274.331 70.3406 274.438" fill="white"/>
</g>
<g opacity="0.6">
<path opacity="0.6" d="M73.7783 281.546L73.6978 279.013L43.4849 279.732C43.4849 279.732 42.075 280.337 42.2294 281.324L73.7783 281.546Z" fill="white"/>
</g>
<path d="M58.2888 272.208C58.2888 272.362 59.0676 272.436 59.8196 272.933C60.5716 273.43 60.9744 274.089 61.1154 274.028C61.2564 273.968 61.0348 273.074 60.1083 272.483C59.1818 271.892 58.2552 272.066 58.2888 272.208Z" fill="#263238"/>
<path d="M54.973 273.551C54.973 273.699 55.6041 273.968 56.1211 274.626C56.6381 275.284 56.7925 275.97 56.9402 275.97C57.088 275.97 57.1954 275.096 56.5374 274.29C55.8794 273.484 54.9797 273.403 54.973 273.551Z" fill="#263238"/>
<path d="M53.0664 277.502C53.2074 277.536 53.429 276.77 53.0664 275.923C52.7038 275.077 51.9585 274.734 51.8913 274.862C51.8242 274.989 52.2674 275.44 52.5628 276.145C52.8583 276.851 52.912 277.489 53.0664 277.502Z" fill="#263238"/>
<path d="M111.827 251.293L114.868 275.439L103.649 276.138L98.0362 252.973L111.827 251.293Z" fill="#FFCEB0"/>
<path d="M102.628 271.455C102.628 271.455 111.181 275.829 114.337 270.635L115.626 272.778L122.226 288.359C122.444 288.849 122.473 289.404 122.305 289.914C122.138 290.425 121.786 290.854 121.32 291.12C120.959 291.319 120.549 291.414 120.137 291.392C119.726 291.371 119.328 291.235 118.99 290.999C115.371 288.446 102.124 278.98 102.037 277.468L101.554 273.491C101.508 273.085 101.586 272.676 101.778 272.316C101.97 271.956 102.266 271.663 102.628 271.475V271.455Z" fill="#EF293D"/>
<g opacity="0.6">
<path opacity="0.6" d="M120.951 291.281L101.85 276.091L101.971 276.958C102.011 277.905 102.481 278.221 103.018 278.765C104.616 280.371 108.906 283.858 118.924 291.013C119.214 291.215 119.548 291.344 119.898 291.391C120.248 291.438 120.605 291.4 120.938 291.281H120.951Z" fill="white"/>
</g>
<g opacity="0.6">
<path opacity="0.6" d="M103.964 273.176C104.247 273.322 104.464 273.569 104.572 273.868C104.68 274.166 104.672 274.495 104.549 274.788C104.399 275.072 104.148 275.29 103.846 275.398C103.544 275.506 103.213 275.497 102.917 275.373C102.622 275.216 102.397 274.955 102.284 274.641C102.171 274.327 102.179 273.982 102.306 273.673C102.493 273.393 102.778 273.193 103.105 273.114C103.432 273.034 103.777 273.08 104.072 273.243" fill="white"/>
</g>
<path d="M114.929 282.998C115.056 283.038 115.379 281.903 116.547 281.157C117.715 280.411 118.896 280.485 118.903 280.371C118.91 280.257 118.628 280.196 118.131 280.196C117.475 280.213 116.837 280.416 116.292 280.781C115.746 281.134 115.314 281.638 115.05 282.232C114.862 282.682 114.875 282.991 114.929 282.998Z" fill="#263238"/>
<path d="M116.802 285.537C116.909 285.611 117.473 284.866 118.54 284.402C119.608 283.939 120.555 283.992 120.555 283.865C120.555 283.737 119.527 283.455 118.346 283.986C117.164 284.516 116.681 285.497 116.802 285.537Z" fill="#263238"/>
<path d="M111.659 279.874C111.773 279.954 112.666 278.785 114.224 277.945C115.781 277.106 117.258 276.944 117.245 276.81C117.232 276.676 115.661 276.622 113.995 277.549C112.33 278.476 111.552 279.827 111.659 279.874Z" fill="#263238"/>
<path d="M110.632 274.996C110.706 275.11 111.8 274.478 113.318 274.216C114.835 273.954 116.064 274.149 116.09 274.015C116.117 273.88 114.848 273.477 113.237 273.773C111.626 274.069 110.551 274.908 110.632 274.996Z" fill="#263238"/>
<path d="M114.156 274.062C114.143 273.797 114.067 273.539 113.934 273.309C113.639 272.65 113.214 272.056 112.686 271.563C112.321 271.165 111.839 270.897 111.309 270.797C111.132 270.78 110.954 270.818 110.798 270.904C110.643 270.99 110.517 271.121 110.436 271.28C110.311 271.598 110.311 271.951 110.436 272.268C110.712 272.919 111.205 273.454 111.83 273.782C112.456 274.11 113.176 274.212 113.867 274.069C114.551 273.925 115.177 273.582 115.667 273.084C116.157 272.586 116.488 271.953 116.62 271.267C116.648 271.096 116.639 270.922 116.593 270.755C116.548 270.588 116.468 270.433 116.358 270.299C116.227 270.177 116.061 270.098 115.884 270.073C115.706 270.048 115.525 270.078 115.365 270.158C114.908 270.423 114.528 270.803 114.263 271.26C113.857 271.858 113.563 272.525 113.397 273.229C113.309 273.478 113.279 273.745 113.31 274.008C113.589 273.096 114.003 272.231 114.539 271.442C114.786 271.052 115.125 270.729 115.526 270.501C115.611 270.454 115.71 270.436 115.806 270.45C115.903 270.463 115.993 270.507 116.063 270.575C116.134 270.67 116.184 270.779 116.207 270.895C116.23 271.012 116.227 271.132 116.197 271.247C116.065 271.835 115.768 272.373 115.341 272.798C114.914 273.223 114.375 273.517 113.787 273.645C113.201 273.76 112.595 273.676 112.062 273.407C111.53 273.138 111.102 272.7 110.846 272.161C110.77 271.943 110.77 271.706 110.846 271.489C110.888 271.398 110.957 271.322 111.043 271.273C111.13 271.224 111.23 271.203 111.329 271.213C111.773 271.299 112.18 271.517 112.498 271.838C113.177 272.476 113.738 273.229 114.156 274.062Z" fill="#263238"/>
<path d="M50.7562 157.221C52.7033 149.427 55.456 139.584 57.0875 138.664L59.7731 133.645L101.534 138.684L102.454 140.982C102.454 140.982 104.884 144.234 104.884 146.988C104.884 149.743 104.972 154.432 105.757 157.026C107.342 162.233 108.094 169.992 109.43 190.544L108.456 213.79L112.095 242.149C112.908 249.459 114.056 262.466 114.056 262.466C114.056 262.466 107.342 270.696 100.339 265.986L89.2341 227.604C88.4124 224.765 87.74 221.886 87.2199 218.977C85.105 207.045 78.4581 173.963 78.4581 173.963C78.4581 173.963 74.3492 220.025 74.4298 222.504L74.5237 226.979C74.5237 226.979 74.611 260.759 74.564 263.373L74.5103 266.732C74.5103 266.732 58.4303 269.608 58.0141 265.973C57.8529 264.549 55.9394 232.226 55.9394 232.226L50.7562 178.162C50.7562 178.162 48.7823 165.014 50.7562 157.221Z" fill="#DDE1EA"/>
<path d="M74.5913 169.992C74.6305 169.595 74.6439 169.195 74.6316 168.796C74.6316 167.97 74.6316 166.875 74.6316 165.545C74.6316 162.797 74.7323 159.001 74.9808 154.795C75.2292 150.589 75.6052 146.833 75.914 144.099C76.0685 142.755 76.196 141.687 76.2968 140.867C76.3623 140.474 76.396 140.077 76.3975 139.678C76.2851 140.061 76.2043 140.452 76.1557 140.847C76.0282 141.606 75.8536 142.708 75.6723 144.072C75.2963 146.793 74.8868 150.576 74.6316 154.775C74.3765 158.974 74.3429 162.77 74.3832 165.524C74.3832 166.868 74.4436 168.01 74.4839 168.783C74.4853 169.188 74.5213 169.593 74.5913 169.992Z" fill="#282828"/>
<path d="M58.2554 138.684C58.3919 138.756 58.5333 138.819 58.6784 138.872L59.8936 139.363C60.424 139.571 61.082 139.82 61.8541 140.035C62.6262 140.249 63.4923 140.606 64.4793 140.868C65.4663 141.13 66.5338 141.466 67.7087 141.728C68.8837 141.99 70.1325 142.265 71.4551 142.527C74.3425 143.033 77.2568 143.372 80.1833 143.542C83.1124 143.68 86.0471 143.644 88.9719 143.434C90.3147 143.313 91.5971 143.212 92.7855 143.031C93.9738 142.85 95.0817 142.695 96.082 142.514C97.0824 142.332 97.9888 142.124 98.7676 141.956C99.5465 141.788 100.238 141.607 100.782 141.452L102.044 141.096C102.193 141.057 102.339 141.007 102.48 140.948C102.328 140.955 102.177 140.98 102.031 141.022L100.748 141.318C100.198 141.452 99.5196 141.613 98.7341 141.761C97.9485 141.909 97.0421 142.124 96.0485 142.265C95.0548 142.406 93.947 142.614 92.7519 142.742C91.5568 142.87 90.2946 142.997 88.9518 143.112C86.0462 143.301 83.1322 143.328 80.2236 143.192C77.312 143.023 74.4117 142.696 71.5357 142.211C70.1929 141.956 68.9508 141.734 67.7893 141.445C66.6278 141.156 65.5468 140.901 64.5666 140.632C63.5863 140.364 62.7068 140.082 61.9347 139.846C61.1626 139.611 60.4979 139.39 59.9608 139.175L58.7187 138.745C58.5669 138.708 58.4116 138.688 58.2554 138.684Z" fill="#282828"/>
<path d="M54.623 160.768C54.7279 160.817 54.8384 160.853 54.952 160.875L55.9188 161.104C56.7581 161.298 57.9666 161.581 59.4571 161.95C62.4448 162.689 66.5404 163.818 70.985 165.309C75.4297 166.801 79.3574 168.433 82.1706 169.676C83.5805 170.295 84.7152 170.805 85.494 171.168L86.4004 171.578C86.5036 171.629 86.6115 171.669 86.7227 171.699C86.7227 171.699 86.6287 171.625 86.4272 171.511L85.5544 171.047C84.789 170.644 83.6678 170.1 82.2713 169.448C78.6237 167.767 74.8926 166.273 71.0925 164.973C67.2823 163.686 63.4075 162.598 59.484 161.715C57.98 161.372 56.7581 161.124 55.9121 160.969L54.9319 160.801C54.8308 160.777 54.727 160.765 54.623 160.768Z" fill="#282828"/>
<path d="M58.6109 167.036C58.9189 167.09 59.2318 167.11 59.5441 167.096C60.1484 167.096 61.0212 167.15 62.0954 167.244C64.8902 167.494 67.6435 168.087 70.2932 169.011C71.7475 169.526 73.169 170.13 74.5498 170.818C75.673 171.391 76.7645 172.023 77.8195 172.713C78.7192 173.304 79.4309 173.808 79.9076 174.178C80.1496 174.378 80.4079 174.558 80.6797 174.715C80.4814 174.467 80.2562 174.242 80.0083 174.043C79.3649 173.486 78.6926 172.964 77.9941 172.478C76.9484 171.756 75.8611 171.096 74.7378 170.503C73.3498 169.791 71.9167 169.172 70.4476 168.648C68.9727 168.146 67.4653 167.744 65.9358 167.446C64.6869 167.21 63.4245 167.053 62.1559 166.975C61.3001 166.914 60.4416 166.901 59.5844 166.935C59.2575 166.939 58.9317 166.973 58.6109 167.036Z" fill="#282828"/>
<path d="M93.3157 227.704C93.9589 227.616 94.5883 227.447 95.1889 227.2C98.1372 226.151 100.838 224.507 103.125 222.37C103.632 221.952 104.083 221.471 104.468 220.938C103.953 221.328 103.46 221.745 102.991 222.188C101.808 223.179 100.551 224.077 99.2308 224.876C97.9085 225.675 96.5257 226.369 95.0949 226.952C94.4864 227.164 93.8922 227.415 93.3157 227.704Z" fill="#282828"/>
<path d="M62.3711 223.163C63.2606 223.673 64.2041 224.084 65.1842 224.386C66.1239 224.799 67.1085 225.101 68.1182 225.286C67.2294 224.774 66.2858 224.363 65.3051 224.063C64.3657 223.649 63.381 223.347 62.3711 223.163Z" fill="#282828"/>
<path d="M67.2189 76.988C67.6848 76.3191 68.0701 75.5974 68.367 74.8381C68.602 73.8908 68.2394 72.9099 68.0716 71.9424C67.9004 70.9006 67.9564 69.834 68.2356 68.8159C68.5149 67.7977 69.0109 66.852 69.6896 66.0436C71.7441 63.6787 75.0607 62.9262 76.8131 65.5263L78.3841 68.1398C79.2435 69.161 79.2703 70.639 79.0555 71.9626C78.8407 73.2861 78.4915 74.6164 78.7265 75.9332C78.9414 77.1358 79.6463 78.2041 79.935 79.3932C80.3781 81.2207 79.794 83.1489 79.0018 84.8554C78.2096 86.5619 77.1958 88.2146 76.7191 90.0085C76.0277 89.8075 75.4124 89.4037 74.9528 88.8492C74.4932 88.2946 74.2104 87.6149 74.1409 86.8978C73.4271 87.7005 72.4318 88.1973 71.3615 88.2849C70.2913 88.3725 69.2285 88.0441 68.3938 87.3681C67.5653 86.5878 67.0058 85.5645 66.796 84.4456C66.5876 83.3386 66.5021 82.212 66.5408 81.0863C66.4315 79.6854 66.6642 78.2789 67.2189 76.988Z" fill="#282828"/>
<path d="M111.276 130.985C109.59 128.642 108.653 125.843 108.59 122.956L104.629 104.816C104.629 104.816 107.422 82.6051 115.7 81.2009C115.7 81.2009 119.299 82.9612 120.131 89.7536C120.601 93.5764 123.79 113.268 123.958 115.687L135.647 110.312L141.388 119.335C141.388 119.335 132.66 128.345 125.825 133.269C124.72 134.078 123.468 134.66 122.138 134.983C120.808 135.306 119.428 135.363 118.076 135.151C116.724 134.939 115.428 134.461 114.261 133.747C113.094 133.032 112.079 132.093 111.276 130.985Z" fill="#EF293D"/>
<path d="M39.7649 115.532C41.9066 109.713 53.8643 84.6264 55.6703 81.2201C56.9419 79.0182 58.7447 77.1703 60.914 75.8453C62.8556 74.5838 65.0281 73.7206 67.3057 73.3057L75.725 71.747L80.21 67.7764L97.4716 69.5904L101.782 73.944C101.782 73.944 114.653 79.2785 115.982 81.6367C117.312 83.9948 104.112 111.4 103.79 113.314C103.467 115.229 102.138 123.923 101.997 126.751C101.856 129.58 105.354 136.157 103.172 138.092C100.99 140.027 75.1946 140.155 73.7243 139.564C72.2539 138.972 60.914 136.325 59.739 133.672L59.4839 124.125L57.04 125.199C57.04 125.199 45.5725 130.097 40.9801 127.652C36.3877 125.206 37.6231 121.35 39.7649 115.532Z" fill="#EF293D"/>
<path d="M65.285 100.086L54.3211 84.0291L30.1912 89.5114L45.7877 114.504L53.0589 114.43L58.7322 111.649L65.9229 103.224L65.285 100.086Z" fill="#282828"/>
<g opacity="0.3">
<path opacity="0.3" d="M61.552 128.431C63.8616 126.651 66.8157 125.939 69.7094 125.603C73.6799 125.142 77.6986 125.319 81.6133 126.127L81.2574 126.698C78.9134 129.274 75.9593 131.219 72.667 132.353C69.3748 133.488 65.8503 133.775 62.4181 133.188C61.9862 133.156 61.5652 133.037 61.1809 132.837C60.7966 132.637 60.4569 132.361 60.1823 132.026C59.4438 130.823 60.4375 129.278 61.552 128.431Z" fill="black"/>
</g>
<path d="M71.9187 112.448L81.8555 126.779L57.0942 131.065L51.4545 123.017L71.9187 112.448Z" fill="#282828"/>
<path d="M58.2756 111.004L51.9577 114.397L50.2657 123.467L53.8175 126.382L64.2041 119.449L58.2756 111.004Z" fill="#EF293D"/>
<path d="M97.4385 68.9926V76.5307L85.501 87.623C85.501 87.623 79.3845 78.8889 79.3845 78.3783C79.3845 77.8677 80.0559 67.2256 80.0559 67.2256L97.4385 68.9926Z" fill="#FFCEB0"/>
<path d="M104.226 112.482C104.286 112.394 104.336 112.299 104.374 112.2C104.474 111.971 104.595 111.703 104.736 111.373C105.045 110.648 105.461 109.593 105.952 108.276C106.945 105.649 108.228 101.988 109.765 97.9968C111.03 94.5713 112.549 91.2453 114.311 88.0467C114.856 87.0895 115.456 86.1652 116.11 85.2787L116.661 84.5598C116.788 84.3986 116.849 84.3045 116.835 84.2978C116.822 84.2911 116.748 84.365 116.607 84.5128C116.466 84.6606 116.244 84.9226 116.003 85.1846C115.299 86.0469 114.662 86.961 114.096 87.9191C112.262 91.0943 110.703 94.4209 109.436 97.8625C107.899 101.894 106.657 105.542 105.723 108.182L104.609 111.313L104.307 112.166C104.239 112.341 104.213 112.442 104.226 112.482Z" fill="#263238"/>
<path d="M87.8844 87.267C88.2009 87.0343 88.5015 86.7807 88.7841 86.5078C89.3615 86.0174 90.194 85.3187 91.2817 84.4923C91.8255 84.0959 92.4365 83.6793 93.1012 83.2561C93.7995 82.7929 94.5311 82.3819 95.2899 82.0266C95.6908 81.8575 96.1242 81.7794 96.5589 81.7982C97.0017 81.8335 97.4222 82.0074 97.7607 82.2953C98.4845 82.9451 98.9275 83.8509 98.996 84.8215C99.0591 85.4105 99.086 86.0029 99.0766 86.5952V87.5223L99.4056 86.6556C100.514 83.7238 101.242 80.6622 101.574 77.5454C101.688 76.3629 101.729 75.4156 101.735 74.7572C101.756 74.4187 101.744 74.0791 101.702 73.7427C101.645 74.0757 101.613 74.4126 101.608 74.7505C101.567 75.4223 101.487 76.3495 101.339 77.5185C100.951 80.6109 100.198 83.6464 99.0968 86.5616L99.4325 86.6221C99.4458 86.0139 99.4167 85.4055 99.3452 84.8013C99.2757 83.7444 98.7934 82.7573 98.0024 82.0535C97.6071 81.7241 97.1188 81.5268 96.6059 81.4891C96.1215 81.4696 95.6392 81.5616 95.1959 81.7579C94.4215 82.1243 93.6782 82.5535 92.9736 83.0411C92.3022 83.4778 91.7047 83.9145 91.1608 84.3243C90.3111 84.9735 89.4975 85.6688 88.7237 86.4071C88.4484 86.6758 88.2403 86.8841 88.106 87.0319C87.9717 87.1797 87.8777 87.2536 87.8844 87.267Z" fill="#263238"/>
<path d="M85.501 87.6237C85.3181 87.3897 85.1232 87.1654 84.9169 86.9518C84.5342 86.5218 84.0037 85.8634 83.3726 85.0236C82.1037 83.3373 80.499 80.8514 78.6057 78.0028L78.5116 77.8617L78.3707 77.9557L75.2688 80.0653L72.0125 82.2959L72.2743 82.4639C72.7159 79.7219 73.5812 77.0655 74.8391 74.5898C75.3023 73.6693 75.7253 72.9572 76.0207 72.4667C76.1881 72.2269 76.3341 71.9729 76.4571 71.7075C76.2608 71.917 76.0812 72.1417 75.92 72.3794C75.4576 73.0501 75.0317 73.7453 74.6443 74.4621C73.3211 76.9372 72.4137 79.6133 71.9587 82.3832L71.8916 82.7729L72.2206 82.5512L75.4836 80.3274L78.5654 78.2178L78.3304 78.1707C80.2237 80.9992 81.8754 83.4783 83.2048 85.1311C83.7116 85.7893 84.2564 86.4175 84.8363 87.0123C85.031 87.2206 85.2056 87.3684 85.313 87.4691C85.4204 87.5699 85.4943 87.6237 85.501 87.6237Z" fill="#263238"/>
<path d="M78.8003 122.378C78.8364 122.267 78.8567 122.152 78.8607 122.035C78.8607 121.773 78.9144 121.451 78.948 121.061C79.0286 120.168 79.136 118.958 79.2636 117.487C79.5388 114.464 79.982 110.298 80.7407 105.736C81.3647 101.837 82.2462 97.9833 83.3793 94.2006C83.5942 93.475 83.809 92.8569 84.0105 92.2589C84.2119 91.661 84.373 91.1974 84.5274 90.8077C84.6819 90.4181 84.7759 90.1359 84.8699 89.8873C84.9188 89.7834 84.9505 89.6722 84.9639 89.5581C84.9001 89.6532 84.8461 89.7545 84.8027 89.8604C84.6953 90.1023 84.561 90.3979 84.4066 90.754C84.2522 91.1101 84.0373 91.6274 83.8292 92.1918C83.621 92.7561 83.3793 93.4011 83.1578 94.1267C81.9517 97.9013 81.0338 101.762 80.4117 105.676C79.6463 110.251 79.2434 114.41 79.0286 117.467C78.9211 118.978 78.854 120.208 78.8271 121.054C78.8271 121.444 78.8271 121.767 78.8271 122.035C78.8085 122.149 78.7995 122.263 78.8003 122.378Z" fill="#263238"/>
<path d="M58.4104 111.192L56.4768 104.144L55.6711 101.457L55.7248 96.3575C55.7248 96.3575 57.739 95.2087 58.5447 98.6687L59.1691 101.309C59.1691 101.309 61.8547 104.608 62.1904 104.453L64.0099 103.62L64.7283 99.3002C64.7283 99.3002 66.5411 98.2656 67.3333 98.709C67.6905 98.8885 67.9963 99.1559 68.2218 99.4862C68.4473 99.8164 68.5852 100.199 68.6224 100.597C68.6224 100.597 70.4889 100.751 69.9652 103.58C69.9652 103.58 71.9055 103.499 71.7914 106.361C72.1786 106.619 72.4751 106.991 72.639 107.427C72.8029 107.862 72.8258 108.338 72.7045 108.787C72.3822 110.534 71.9458 112.482 71.9458 112.482C71.9458 112.482 70.321 114.867 68.8104 115.539C67.2997 116.211 63.2915 118.146 63.2915 118.146L58.4104 111.192Z" fill="#FFCEB0"/>
<path d="M67.3329 104.151C67.7075 103.623 67.9828 103.031 68.1454 102.404C68.4169 101.821 68.5785 101.192 68.6221 100.55C67.9799 101.658 67.5432 102.874 67.3329 104.138V104.151Z" fill="#263238"/>
<path d="M69.1461 106.435C69.476 105.966 69.7046 105.432 69.8175 104.87C70.0322 104.344 70.1351 103.778 70.1196 103.21C69.8062 103.685 69.5895 104.217 69.4818 104.776C69.2578 105.3 69.1435 105.865 69.1461 106.435Z" fill="#263238"/>
<path d="M71.0061 108.827C71.1 108.827 71.3216 108.29 71.4961 107.584C71.6612 107.157 71.7144 106.694 71.6505 106.24C71.5633 106.24 71.3417 106.771 71.1605 107.49C70.9792 108.209 70.8986 108.814 71.0061 108.827Z" fill="#263238"/>
<path d="M41.5379 114.148C42.0285 114.3 42.5357 114.393 43.0485 114.424C44.2742 114.571 45.5068 114.654 46.7412 114.672C48.1847 114.672 49.494 114.672 50.4406 114.578C50.952 114.58 51.4616 114.519 51.958 114.397C51.958 114.289 49.6215 114.397 46.7479 114.323C45.3111 114.323 44.0086 114.236 43.0687 114.182C42.5611 114.116 42.0478 114.104 41.5379 114.148Z" fill="#263238"/>
<path d="M117.352 120.813C118.251 119.606 119.293 118.512 120.454 117.555C121.685 116.693 123.018 115.986 124.422 115.452C123.96 115.461 123.504 115.559 123.079 115.741C121.007 116.463 119.217 117.822 117.963 119.624C117.691 119.981 117.484 120.384 117.352 120.813Z" fill="#263238"/>
<path d="M118.265 117.111C119.137 116.493 120.088 115.993 121.092 115.626C122.13 115.366 123.198 115.248 124.268 115.277C123.979 115.121 123.656 115.04 123.328 115.042C121.739 114.905 120.159 115.386 118.917 116.385C118.453 116.775 118.239 117.084 118.265 117.111Z" fill="#263238"/>
<g opacity="0.3">
<path opacity="0.3" d="M123.831 115.761C122.177 116.109 120.673 116.969 119.534 118.22C118.408 119.467 117.463 120.867 116.728 122.379C116.412 122.99 115.848 123.722 115.21 123.467C114.573 123.212 114.599 122.526 114.687 121.955C114.85 120.881 115.235 119.851 115.816 118.933C116.397 118.014 117.163 117.227 118.064 116.619C118.965 116.012 119.982 115.598 121.051 115.404C122.12 115.21 123.218 115.24 124.274 115.492" fill="black"/>
</g>
<g opacity="0.3">
<path opacity="0.3" d="M85.5015 87.6234C82.8158 86.1655 80.3585 84.6673 78.4517 82.2486C78.1934 81.8306 77.7966 81.5167 77.3305 81.3617C76.9085 81.3358 76.4895 81.4465 76.1354 81.6775L70.4687 84.5866C70.715 81.6134 71.8894 78.793 73.8257 76.5244C73.1073 78.0159 72.1338 82.383 72.1338 82.383C73.7037 81.1822 75.3328 80.0611 77.0149 79.0237C77.4879 78.6733 77.9836 78.3546 78.4987 78.0697C78.8159 78.4059 79.0685 78.7976 79.244 79.2253C79.4588 80.1524 83.447 85.1376 85.5283 87.6033" fill="black"/>
</g>
<path d="M96.6057 138.805C96.6159 138.752 96.6159 138.697 96.6057 138.644C96.6057 138.517 96.6057 138.362 96.6057 138.174C96.6057 137.73 96.6057 137.132 96.5587 136.367C96.5587 135.977 96.5587 135.54 96.5184 135.07C96.4781 134.6 96.5184 134.076 96.5184 133.518C96.5184 132.403 96.5184 131.14 96.6191 129.742C96.6594 129.043 96.6997 128.311 96.74 127.545C96.787 126.786 96.8944 125.993 96.9682 125.18C97.1025 123.534 97.3912 121.821 97.6396 119.973C98.3184 116.018 99.2536 112.111 100.439 108.277C101.664 104.454 103.14 100.718 104.857 97.0902C105.683 95.4374 106.442 93.8519 107.274 92.4275C107.684 91.7154 108.053 91.0099 108.449 90.3582L109.604 88.4905C110.316 87.2879 111.068 86.2599 111.685 85.3395C112.001 84.8827 112.283 84.4459 112.565 84.063L113.344 83.0216L114.418 81.5704L114.693 81.1875C114.756 81.1024 114.783 81.0553 114.774 81.0464L114.666 81.1673L114.364 81.5234L113.236 82.941L112.431 83.9622C112.142 84.3452 111.853 84.7751 111.524 85.2253C110.893 86.139 110.128 87.1602 109.396 88.3561L108.221 90.2171C107.811 90.889 107.435 91.5609 107.026 92.2864C106.18 93.7108 105.408 95.2963 104.562 96.9491C102.827 100.585 101.337 104.334 100.104 108.169C98.9184 112.02 97.9898 115.946 97.3241 119.92C97.0622 121.761 96.787 123.501 96.6527 125.147C96.5855 125.973 96.4848 126.766 96.4445 127.532C96.4043 128.298 96.3774 129.03 96.3438 129.729C96.2566 131.133 96.2968 132.416 96.2968 133.518C96.2968 134.076 96.2968 134.593 96.2968 135.07C96.2968 135.547 96.411 135.997 96.411 136.373C96.458 137.132 96.4983 137.717 96.5251 138.181C96.5251 138.369 96.5251 138.523 96.5587 138.644C96.5669 138.7 96.5828 138.754 96.6057 138.805Z" fill="white"/>
<path d="M86.9042 139.242C86.9255 139.188 86.9369 139.131 86.9378 139.074C86.9378 138.939 86.9847 138.778 87.0116 138.577C87.072 138.113 87.1526 137.468 87.26 136.655C87.3674 135.842 87.4816 134.807 87.6696 133.625C87.8576 132.443 88.0254 131.106 88.3074 129.628C88.4349 128.888 88.576 128.116 88.7169 127.31C88.8579 126.503 89.0526 125.67 89.2272 124.81C89.5629 123.077 90.0194 121.25 90.476 119.321C91.4562 115.478 92.6715 111.259 94.1687 106.959C95.6659 102.659 97.3511 98.6082 98.9758 94.9936C99.8218 93.1931 100.601 91.4798 101.42 89.9144C101.823 89.1351 102.192 88.3625 102.581 87.6436C102.971 86.9247 103.34 86.2327 103.702 85.5743C104.374 84.2306 105.106 83.0817 105.717 82.0471C106.328 81.0124 106.838 80.1323 107.281 79.4201L108.281 77.7674L108.536 77.3374C108.568 77.2892 108.592 77.2373 108.61 77.1829C108.61 77.1829 108.57 77.2232 108.503 77.3172L108.221 77.7338L107.16 79.3529C106.704 80.0248 106.146 80.9183 105.542 81.9463C104.938 82.9742 104.199 84.1298 103.528 85.4533C103.159 86.1252 102.776 86.797 102.38 87.5159C101.984 88.2348 101.608 89.0007 101.198 89.7868C100.372 91.3455 99.5801 93.0587 98.7274 94.8593C97.0758 98.4738 95.404 102.518 93.88 106.845C92.3559 111.172 91.1944 115.384 90.2007 119.241C89.7509 121.176 89.3078 123.01 88.9855 124.75C88.8109 125.617 88.6297 126.45 88.4954 127.263C88.3611 128.076 88.2268 128.848 88.0993 129.587C87.8374 131.065 87.683 132.416 87.5151 133.618C87.3473 134.821 87.2399 135.822 87.1593 136.662C87.0787 137.502 87.025 138.12 86.9847 138.59L86.9445 139.094C86.9241 139.141 86.9106 139.191 86.9042 139.242Z" fill="white"/>
<path d="M80.5798 139.463C80.5876 139.412 80.5876 139.36 80.5798 139.309C80.5798 139.188 80.6134 139.04 80.6335 138.858C80.6738 138.435 80.7342 137.851 80.8014 137.118C80.8685 136.386 80.9558 135.439 81.0901 134.37C81.2244 133.302 81.3385 132.079 81.5466 130.742C81.7548 129.405 81.9427 127.927 82.218 126.362C82.4933 124.797 82.8156 123.117 83.1647 121.363C83.9167 117.856 84.8634 114.034 86.0517 110.07C87.2401 106.106 88.6232 102.404 89.9391 99.0445C90.6105 97.3918 91.2819 95.8062 91.9198 94.3416C92.5576 92.8769 93.1954 91.5399 93.7795 90.3105C94.3637 89.081 94.9277 87.9993 95.4111 87.0318C95.8945 86.0644 96.3309 85.2514 96.7001 84.5863L97.5192 83.0477L97.7274 82.6446C97.7744 82.5506 97.7945 82.5035 97.7878 82.4968C97.7496 82.5338 97.7178 82.577 97.6938 82.6245C97.6334 82.732 97.5528 82.8596 97.4588 83.0142L96.5793 84.5258C96.1966 85.1977 95.74 85.9837 95.2365 86.9445C94.7329 87.9052 94.1354 88.96 93.5513 90.203C92.9671 91.4459 92.2958 92.7493 91.6512 94.2341C91.0067 95.7189 90.3084 97.2641 89.637 98.937C88.2942 102.296 86.9514 105.991 85.7429 109.955C84.5344 113.919 83.6145 117.769 82.876 121.283C82.5403 123.05 82.2046 124.723 81.9629 126.302C81.7212 127.88 81.4929 129.352 81.3251 130.695C81.1572 132.039 81.0297 133.269 80.9155 134.337C80.8014 135.405 80.7342 136.352 80.6872 137.098C80.6402 137.844 80.6067 138.442 80.5865 138.845C80.5865 139.026 80.5865 139.174 80.5865 139.295C80.5757 139.35 80.5735 139.407 80.5798 139.463Z" fill="white"/>
<path d="M75.1416 127.747C74.8755 128.233 74.6745 128.753 74.544 129.292C73.7476 131.844 73.3247 134.499 73.2884 137.173C73.2491 137.727 73.2785 138.285 73.3757 138.832C73.4784 138.289 73.5301 137.738 73.5302 137.186C73.604 136.172 73.7383 134.774 73.98 133.242C74.2217 131.711 74.5306 130.347 74.779 129.359C74.9417 128.832 75.063 128.293 75.1416 127.747Z" fill="white"/>
<path d="M67.622 129.218C66.9673 130.41 66.5693 131.725 66.4537 133.081C66.2276 134.421 66.2802 135.793 66.6081 137.112C66.7223 137.112 66.5141 135.304 66.8028 133.081C67.0916 130.857 67.7228 129.278 67.622 129.218Z" fill="white"/>
<path d="M82.1172 83.2158C82.1172 83.2158 82.0568 83.3166 81.9695 83.5316C81.8822 83.7466 81.7546 84.0825 81.6136 84.4587C81.3115 85.265 80.902 86.4743 80.432 87.9121C79.2016 91.7363 78.1641 95.62 77.3234 99.5485C76.3365 104.157 75.7188 108.377 75.3831 111.447C75.2153 112.979 75.1011 114.222 75.0474 115.082C75.0474 115.478 75.0071 115.807 74.987 116.076C74.971 116.19 74.971 116.305 74.987 116.419C75.0249 116.308 75.0475 116.193 75.0541 116.076C75.0877 115.814 75.128 115.492 75.175 115.095C75.269 114.242 75.4234 112.999 75.6248 111.474C76.0209 108.424 76.6722 104.218 77.639 99.6224C78.6058 95.027 79.7539 90.9287 80.6401 87.986C81.0833 86.5079 81.4525 85.2986 81.7143 84.4991C81.8352 84.1228 81.9292 83.8272 82.0098 83.5517C82.0553 83.4431 82.0913 83.3307 82.1172 83.2158Z" fill="white"/>
<path d="M70.8646 101.732C71 101.444 71.1057 101.142 71.1801 100.832C71.3816 100.16 71.63 99.3404 71.9321 98.3327C72.5699 96.2231 73.4561 93.3139 74.5035 90.1227C75.5509 86.9314 76.5647 84.076 77.3032 81.9933L78.176 79.5343C78.3008 79.2401 78.3953 78.934 78.458 78.6206C78.2926 78.8949 78.1553 79.1853 78.0484 79.4873C77.8067 80.0516 77.4711 80.878 77.0749 81.9059C76.2693 83.9618 75.2219 86.8172 74.1745 90.0152C73.1272 93.2132 72.2678 96.1357 71.6971 98.2655C71.4084 99.327 71.1936 100.194 71.0257 100.792C70.9462 101.1 70.8923 101.415 70.8646 101.732Z" fill="white"/>
<path d="M73.9531 72.2314C73.7645 72.5408 73.605 72.8669 73.4764 73.2056C73.1877 73.8775 72.8051 74.7778 72.3217 75.9401C71.3817 78.2579 70.1799 81.4963 69.0251 85.1377C67.8704 88.7791 67.011 92.1249 66.4269 94.5436C66.1382 95.7597 65.9301 96.754 65.7958 97.4393C65.7098 97.7925 65.6514 98.1519 65.6212 98.5142C65.7564 98.1752 65.8597 97.8243 65.9301 97.4661C66.1181 96.7338 66.3665 95.7664 66.6619 94.6041C67.293 92.1854 68.2061 88.8597 69.3474 85.1982C70.4888 81.5366 71.6704 78.3184 72.5432 75.9804C72.9729 74.8517 73.322 73.9245 73.5906 73.2124C73.7354 72.8948 73.8566 72.5669 73.9531 72.2314Z" fill="white"/>
<path d="M60.8949 93.7972C60.9926 93.5273 61.0623 93.2482 61.103 92.9641C61.2037 92.4266 61.3649 91.6204 61.5797 90.6932C62.1396 88.2051 62.8413 85.7511 63.6812 83.3432C64.5303 80.9363 65.5235 78.5828 66.6555 76.2954C67.0852 75.4153 67.4477 74.7099 67.7029 74.2261C67.8482 73.9785 67.9696 73.7175 68.0654 73.4468C67.8803 73.667 67.7183 73.9056 67.582 74.1589C67.2933 74.6225 66.9106 75.3145 66.4339 76.1745C65.2362 78.443 64.2062 80.7963 63.3522 83.2155C62.5059 85.6278 61.8327 88.0976 61.338 90.6059C61.1567 91.5733 61.0291 92.3594 60.9687 92.9103C60.9161 93.2029 60.8914 93.4999 60.8949 93.7972Z" fill="white"/>
<path d="M74.893 75.6777C76.1708 74.6984 77.7793 74.2551 79.3779 74.4415C79.3779 74.4012 79.1362 74.2668 78.7065 74.1862C78.1137 74.0894 77.5071 74.1216 76.9278 74.2804C76.3485 74.4392 75.8103 74.721 75.3496 75.1066C75.0139 75.4022 74.8662 75.6441 74.893 75.6777Z" fill="white"/>
<path d="M77.4707 70.108C77.4707 70.2021 77.9541 70.4238 78.5986 70.5985C79.2432 70.7732 79.7937 70.8471 79.8139 70.753C79.834 70.659 79.3372 70.444 78.6926 70.2626C78.0481 70.0812 77.4976 70.0207 77.4707 70.108Z" fill="white"/>
<path d="M97.3044 77.3511C97.9673 77.7899 98.5917 78.2844 99.1709 78.8291C99.6728 79.4489 100.122 80.1096 100.514 80.8044C100.382 79.9772 100.007 79.2078 99.4386 78.5931C98.8699 77.9785 98.1319 77.5463 97.3178 77.3511H97.3044Z" fill="white"/>
<path d="M98.0364 71.6938C97.9759 71.7812 99.0502 72.5538 99.9968 73.8438C100.943 75.1337 101.387 76.3834 101.487 76.3498C101.343 75.3588 100.924 74.428 100.279 73.6624C99.7263 72.8124 98.9504 72.1313 98.0364 71.6938Z" fill="white"/>
<path d="M121.528 114.746C121.463 114.37 121.362 114.001 121.226 113.644C121.005 112.972 120.702 111.918 120.347 110.655C119.432 107.356 118.712 104.007 118.191 100.624C117.685 97.239 117.385 93.8264 117.292 90.405C117.258 89.0613 117.245 88.0267 117.251 87.2877C117.273 86.9065 117.259 86.5242 117.211 86.1455C117.154 86.5236 117.122 86.9052 117.117 87.2877C117.07 88.02 117.043 89.0882 117.043 90.405C117.08 97.29 118.113 104.133 120.112 110.722C120.501 111.985 120.837 112.999 121.099 113.685C121.215 114.049 121.359 114.404 121.528 114.746Z" fill="white"/>
<path d="M121.408 117.366C121.619 117.4 121.835 117.4 122.046 117.366C122.462 117.366 123.053 117.292 123.785 117.192C125.685 116.914 127.552 116.444 129.358 115.787C131.166 115.127 132.901 114.28 134.534 113.261C135.03 112.96 135.509 112.632 135.971 112.28C136.153 112.166 136.318 112.025 136.461 111.864C136.461 111.817 135.675 112.327 134.406 113.053C131.103 114.954 127.496 116.27 123.745 116.943C122.308 117.218 121.401 117.313 121.408 117.366Z" fill="white"/>
<path d="M109.986 98.5137C109.942 98.6946 109.913 98.8788 109.899 99.0646C109.852 99.4341 109.778 99.9649 109.731 100.664C109.574 102.628 109.547 104.601 109.651 106.569C109.793 109.491 110.211 112.393 110.9 115.236C111.299 116.919 111.79 118.578 112.37 120.208C112.932 121.992 113.78 123.674 114.881 125.186C115.474 125.953 116.243 126.566 117.123 126.973C118.001 127.351 118.973 127.452 119.91 127.262C121.736 126.899 123.193 125.838 124.549 124.924L131.74 119.959L136.581 116.6L137.883 115.666C138.039 115.562 138.187 115.448 138.326 115.323C138.156 115.404 137.994 115.501 137.843 115.612L136.5 116.486L131.605 119.771C129.531 121.169 127.08 122.828 124.368 124.676C123.025 125.583 121.568 126.604 119.849 126.94C118.981 127.105 118.083 127.007 117.271 126.658C116.444 126.269 115.721 125.689 115.163 124.964C114.086 123.482 113.257 121.835 112.706 120.087C112.111 118.475 111.603 116.834 111.182 115.169C110.474 112.347 110.025 109.466 109.839 106.562C109.722 104.602 109.722 102.637 109.839 100.677C109.839 100.005 109.919 99.4475 109.939 99.078C109.973 98.8919 109.989 98.7029 109.986 98.5137Z" fill="white"/>
<path d="M39.215 121.834C39.215 121.834 39.2755 121.894 39.4098 121.982C39.6013 122.113 39.8009 122.232 40.0073 122.338C40.7704 122.745 41.586 123.046 42.4311 123.231C45.2363 123.796 48.1456 123.523 50.7967 122.445C53.4095 121.352 55.8515 119.888 58.0478 118.098C58.9005 117.427 59.5719 116.876 60.062 116.479C60.3072 116.278 60.5321 116.053 60.7334 115.807C60.4564 115.957 60.1954 116.135 59.9546 116.338L57.9068 117.863C55.69 119.578 53.2592 120.997 50.6758 122.082C48.0803 123.132 45.2431 123.435 42.4848 122.956C41.3537 122.715 40.2558 122.338 39.215 121.834Z" fill="white"/>
<path d="M40.6046 114.692C40.7933 114.877 41.0082 115.033 41.2424 115.156C41.8522 115.529 42.4923 115.85 43.1559 116.116C45.366 117.008 47.7651 117.327 50.1312 117.044C52.4972 116.761 54.7536 115.885 56.6914 114.497C57.2759 114.081 57.8239 113.616 58.3296 113.106C58.5251 112.93 58.6966 112.729 58.8398 112.508C58.7928 112.461 58.0409 113.295 56.5504 114.289C54.6185 115.594 52.4032 116.419 50.0887 116.694C47.7742 116.97 45.4273 116.689 43.2432 115.874C41.5647 115.27 40.6382 114.632 40.6046 114.692Z" fill="white"/>
<path d="M146.095 107.564C146.294 107.58 146.493 107.58 146.692 107.564L146.021 107.181L157.891 104.419C157.855 104.908 157.658 105.37 157.331 105.735C157.005 106.1 156.566 106.346 156.085 106.435C155.293 106.63 154.52 106.895 153.776 107.228C157.556 107.026 161.302 106.805 161.302 106.805C161.302 106.805 161.792 107.712 160.443 108.43C158.939 109.102 157.391 109.67 155.81 110.13L161.302 110.802C160.184 111.512 158.886 111.885 157.562 111.877C155.152 111.951 153.762 111.877 153.762 111.877L159.1 114.054C157.911 114.681 156.548 114.893 155.226 114.658C153.171 114.222 143.57 114.188 143.57 114.188L146.095 107.564Z" fill="#FFCEB0"/>
<path d="M151.889 92.2725H224.991V121.982H151.889V92.2725Z" fill="white"/>
<path d="M151.889 121.982C151.889 121.982 151.889 121.8 151.889 121.451C151.889 121.102 151.889 120.578 151.889 119.906C151.889 118.562 151.889 116.547 151.923 113.987C151.923 108.854 151.963 101.443 151.99 92.2725L151.869 92.3935L224.964 92.4472L224.789 92.2725C224.789 102.673 224.789 112.717 224.789 121.982L224.957 121.814L172.588 121.894L157.374 121.941H153.299H152.245H151.876H152.225H153.259H157.287L172.461 121.982L224.964 122.062H225.132V121.894C225.132 112.63 225.132 102.585 225.132 92.1852V92.0105H224.957L151.862 92.0575H151.735V92.1852C151.735 101.39 151.788 108.827 151.802 113.973C151.802 116.526 151.802 118.508 151.835 119.865C151.835 120.537 151.835 121.034 151.835 121.384C151.835 121.733 151.889 121.982 151.889 121.982Z" fill="#EF293D"/>
<path d="M201.122 99.0779H218.78V116.748H201.122V99.0779Z" fill="#EF293D"/>
<path d="M156.951 105.844C156.951 105.904 166.035 105.958 177.241 105.958C188.446 105.958 197.537 105.904 197.537 105.844C197.537 105.783 188.453 105.73 177.241 105.73C166.028 105.73 156.951 105.763 156.951 105.844Z" fill="#EF293D"/>
<path d="M156.951 109.445C156.951 109.506 166.035 109.559 177.241 109.559C188.446 109.559 197.537 109.506 197.537 109.445C197.537 109.385 188.453 109.324 177.241 109.324C166.028 109.324 156.951 109.378 156.951 109.445Z" fill="#EF293D"/>
<path d="M171.406 113.04C171.495 113.051 171.586 113.051 171.675 113.04H172.434H175.233L184.472 113.073L193.71 113.154H196.51H197.269C197.358 113.165 197.448 113.165 197.537 113.154C197.448 113.145 197.358 113.145 197.269 113.154H196.51L193.71 113.113L184.472 113.08L175.233 113.113L172.434 113.154H171.675C171.589 113.107 171.499 113.068 171.406 113.04Z" fill="#EF293D"/>
<path d="M135.937 110.829L144.081 104.856L155.494 101.672C155.494 101.672 156.045 102.23 154.695 103.869C153.346 105.508 148.921 107.309 148.921 107.309C149.217 108.151 149.347 109.043 149.304 109.936C149.02 111.348 148.256 112.618 147.143 113.53C146.029 114.443 144.634 114.941 143.194 114.941H142.463L140.858 118.582L135.937 110.829Z" fill="#FFCEB0"/>
<path d="M154.151 104.42C154.151 104.379 153.621 104.729 152.755 105.199C151.889 105.669 150.667 106.247 149.324 106.926C149.17 107.006 149.015 107.08 148.874 107.161L148.753 107.221L148.787 107.356C149.06 108.476 149.09 109.642 148.874 110.775C148.706 111.635 148.498 112.119 148.545 112.159C148.828 111.758 149.018 111.299 149.102 110.816C149.396 109.649 149.396 108.428 149.102 107.262L149.015 107.456L149.458 107.228C150.801 106.556 152.023 105.938 152.862 105.401C153.347 105.153 153.783 104.82 154.151 104.42Z" fill="#EB996E"/>
<path d="M71.5225 65.1367C71.3483 64.7878 71.2828 64.3946 71.3345 64.008C71.363 63.8152 71.4506 63.6359 71.5853 63.4951C71.72 63.3543 71.8952 63.2588 72.0864 63.2219C72.4103 63.2275 72.7245 63.3331 72.9861 63.5243C74.7154 64.5086 76.6154 65.156 78.5856 65.4323L78.6527 65.5129C78.7287 65.6472 78.7686 65.7988 78.7686 65.953C78.7686 66.1072 78.7287 66.2588 78.6527 66.3931C78.4903 66.671 78.2591 66.9024 77.9813 67.0649C77.4453 67.4257 76.8365 67.6639 76.1981 67.7626C75.5597 67.8613 74.9074 67.818 74.2876 67.6358C73.6678 67.4537 73.0957 67.1371 72.612 66.7087C72.1283 66.2802 71.7448 65.7504 71.4889 65.1569L71.5225 65.1367Z" fill="#EF293D"/>
<path d="M92.5644 52.3917C93.1485 49.3415 93.9072 46.1771 95.861 43.7987C97.4659 41.8723 99.7565 40.646 102.249 40.3789C104.741 40.1119 107.239 40.8251 109.215 42.3677L110.672 43.4494C111.637 47.3463 111.999 51.3681 111.746 55.3747C111.605 57.7061 110.33 60.0441 108.792 61.8044C108.054 62.6509 107.047 63.2623 106.442 64.2163C105.905 65.0561 105.771 66.084 105.328 66.9843C103.985 69.8599 99.9565 70.8139 97.1098 69.45C94.2631 68.0862 92.4906 64.9956 91.9669 61.8581C91.4432 58.7206 91.9669 55.5158 92.5644 52.3917Z" fill="#282828"/>
<path d="M94.9542 33.707C100.634 34.0564 104.663 31.893 107.711 34.0698C109.013 34.9903 114.673 38.5981 114.586 39.9418C114.499 41.2855 112.33 42.3739 108.859 43.0592L79.9351 41.2654C76.5781 40.1568 74.6042 38.8198 74.6848 37.4828C74.8526 34.7215 83.9299 33.0285 94.9542 33.707Z" fill="#EF293D"/>
<g opacity="0.4">
<path opacity="0.4" d="M106.986 42.8515C110.068 42.2401 112.068 41.2726 112.068 40.0834C112.068 36.7712 104.414 35.1588 94.612 34.5541C84.8096 33.9495 76.7932 35.4611 76.6454 37.9134C76.5716 39.0958 78.3508 40.2783 81.2982 41.2726" fill="black"/>
</g>
<path d="M81.6 40.2982C81.7477 38.4906 82.2567 36.7312 83.0967 35.1242C83.9367 33.5172 85.0907 32.0954 86.4902 30.9431C87.8897 29.7908 89.5061 28.9315 91.2438 28.4161C92.9814 27.9007 94.8047 27.7398 96.6057 27.9428C103.803 28.749 108.979 35.3332 108.577 42.5623C108.214 48.9046 107.717 55.2804 107.234 57.5311C105.723 64.3168 101.191 66.1308 99.4188 66.5944C98.7938 66.6807 98.1617 66.7033 97.5322 66.6616C97.5197 66.6616 97.5078 66.6665 97.499 66.6754C97.4901 66.6842 97.4852 66.6961 97.4852 66.7086L97.3509 74.8582L79.7268 73.3868L81.6 40.2982Z" fill="#FFCEB0"/>
<path d="M105.972 47.097C105.958 47.3846 105.832 47.6552 105.621 47.8511C105.41 48.0469 105.131 48.1525 104.844 48.1451C104.703 48.1487 104.563 48.1239 104.431 48.072C104.3 48.0201 104.181 47.9423 104.081 47.8431C103.981 47.744 103.901 47.6257 103.848 47.4951C103.794 47.3646 103.768 47.2247 103.769 47.0836C103.783 46.7961 103.909 46.5254 104.12 46.3296C104.331 46.1337 104.61 46.0282 104.897 46.0355C105.038 46.0319 105.179 46.0568 105.31 46.1087C105.441 46.1605 105.56 46.2384 105.66 46.3375C105.761 46.4366 105.84 46.555 105.893 46.6855C105.947 46.816 105.973 46.956 105.972 47.097Z" fill="#263238"/>
<path d="M106.624 44.0735C106.476 44.2146 105.677 43.5427 104.495 43.4755C103.314 43.4083 102.401 43.9458 102.28 43.7913C102.159 43.6368 102.38 43.4688 102.777 43.2202C103.31 42.8931 103.932 42.7404 104.556 42.7835C105.174 42.8242 105.764 43.0593 106.241 43.4554C106.583 43.751 106.691 44.013 106.624 44.0735Z" fill="#263238"/>
<path d="M95.1889 46.2976C95.1667 46.5791 95.0372 46.8414 94.8273 47.0301C94.6175 47.2189 94.3431 47.3199 94.061 47.3121C93.9198 47.3157 93.7793 47.2909 93.6478 47.239C93.5164 47.1872 93.3967 47.1095 93.2959 47.0105C93.195 46.9114 93.1151 46.7932 93.0609 46.6626C93.0066 46.5321 92.9792 46.392 92.9801 46.2506C92.9958 45.9625 93.123 45.6918 93.3349 45.4961C93.5467 45.3004 93.8265 45.1951 94.1147 45.2025C94.258 45.2006 94.4002 45.2278 94.5327 45.2824C94.6652 45.3371 94.7853 45.418 94.8857 45.5203C94.9861 45.6227 95.0647 45.7443 95.1168 45.8779C95.169 46.0115 95.1935 46.1543 95.1889 46.2976Z" fill="#263238"/>
<path d="M94.9537 43.5834C94.806 43.7177 94.0071 43.0459 92.8254 42.9787C91.6438 42.9115 90.7307 43.449 90.6098 43.2945C90.489 43.1399 90.7106 42.9787 91.1067 42.7234C91.642 42.4019 92.2628 42.2518 92.8858 42.2934C93.505 42.3308 94.0958 42.5664 94.571 42.9653C94.9134 43.281 95.0208 43.5229 94.9537 43.5834Z" fill="#263238"/>
<path d="M98.7139 52.6472C99.3512 52.492 100.005 52.4153 100.661 52.4188C100.97 52.4188 101.259 52.365 101.332 52.1567C101.379 51.8471 101.33 51.5307 101.191 51.2497C100.95 50.4973 100.695 49.7112 100.433 48.8848C99.392 45.5256 98.6602 42.771 98.7945 42.7307C98.9287 42.6904 99.8822 45.3778 100.923 48.737C101.178 49.5701 101.413 50.3562 101.641 51.1154C101.81 51.4914 101.841 51.9148 101.729 52.3113C101.677 52.4154 101.602 52.5064 101.511 52.5774C101.419 52.6484 101.312 52.6975 101.198 52.7211C101.028 52.7561 100.854 52.7697 100.681 52.7614C100.023 52.8071 99.3621 52.7687 98.7139 52.6472Z" fill="#263238"/>
<path d="M97.4717 66.6611C97.4717 66.6611 92.8727 66.7552 87.3538 62.9592C87.3538 62.9592 88.7906 69.1268 97.4247 68.8514L97.4717 66.6611Z" fill="#EB996E"/>
<path d="M98.0427 55.4754C97.8342 55.1776 97.5536 54.9376 97.2272 54.7778C96.9007 54.618 96.5391 54.5437 96.1762 54.5617C95.9101 54.5733 95.6491 54.6388 95.409 54.7543C95.169 54.8698 94.9549 55.0328 94.7797 55.2336C94.6103 55.4214 94.5021 55.6564 94.4697 55.9073C94.4373 56.1582 94.4822 56.413 94.5984 56.6377C94.7757 56.8628 95.0161 57.0298 95.2889 57.1172C95.5616 57.2046 95.8542 57.2084 96.1292 57.1282C96.7015 56.9639 97.2355 56.6876 97.7003 56.3153C97.8403 56.2287 97.9631 56.1171 98.0628 55.9861C98.1053 55.9199 98.1279 55.843 98.1279 55.7643C98.1279 55.6857 98.1053 55.6088 98.0628 55.5426" fill="#EB996E"/>
<path d="M95.1762 53.2509C95.3709 53.2509 95.2971 54.5409 96.3378 55.5218C97.3786 56.5027 98.7617 56.4489 98.7617 56.6303C98.7617 56.7109 98.4394 56.8587 97.862 56.8386C97.1121 56.8013 96.3992 56.5017 95.8476 55.992C95.3165 55.4969 94.9966 54.8159 94.9546 54.0907C94.9278 53.5465 95.0688 53.2375 95.1762 53.2509Z" fill="#263238"/>
<path d="M95.6257 39.8749C95.4914 40.1907 94.3164 39.9623 92.94 40.0429C91.5636 40.1235 90.3887 40.4393 90.2208 40.137C90.147 39.9959 90.3618 39.7002 90.8385 39.4181C91.455 39.0693 92.1452 38.8713 92.8528 38.8403C93.5709 38.7991 94.2886 38.928 94.9475 39.2165C95.4444 39.4517 95.6861 39.7204 95.6257 39.8749Z" fill="#282828"/>
<path d="M106.375 40.9969C106.147 41.2522 105.348 40.923 104.361 40.8491C103.374 40.7752 102.535 40.9162 102.347 40.6206C102.273 40.4795 102.421 40.2175 102.797 39.9891C103.304 39.7135 103.881 39.5946 104.456 39.6472C105.031 39.6998 105.577 39.9216 106.026 40.2847C106.375 40.5938 106.483 40.8692 106.375 40.9969Z" fill="#282828"/>
<path d="M80.1437 37.7314C80.1382 37.0017 80.2679 36.2773 80.5264 35.5949C81.1978 34.1034 82.977 33.4853 84.5548 33.1494C89.1069 32.2088 93.7999 32.3499 98.4393 32.4775L100.259 33.707C99.5682 34.5847 98.6928 35.2993 97.6948 35.7998C96.6968 36.3003 95.6007 36.5744 94.4848 36.6027C93.0211 36.6027 91.3829 36.2735 90.2281 37.1603C89.3822 37.8322 89.0868 38.934 88.6705 39.9149C88.0327 41.4064 87.9588 43.2742 86.4952 44.0132C85.3538 44.5709 84.481 44.3156 83.6283 45.2562C82.7756 46.1967 82.4802 47.7554 82.3728 49.0924C82.2654 50.4294 82.0237 52.539 80.7883 53.0496C81.0703 48.1989 79.8886 42.6091 80.1437 37.7314Z" fill="#282828"/>
<path d="M111.947 38.4705C111.947 38.4705 109.839 26.5519 109.604 25.9674C109.369 25.3829 106.368 20.0282 98.4588 18.0732L91.8523 17.6633C91.8523 17.6633 82.2848 20.1089 80.4385 22.2924C78.5922 24.4759 77.1688 35.5278 77.1688 35.5278L95.968 32.6322L108.382 36.4819L111.947 38.4705Z" fill="#EF293D"/>
<path d="M96.3774 16.5885L98.2036 16.7027C98.569 16.723 98.9204 16.8504 99.2141 17.069C99.5077 17.2876 99.7307 17.5878 99.8552 17.9322C100.061 18.5402 100.166 19.1781 100.164 19.8201C100.164 21.8827 99.7679 36.0117 99.7679 36.0117L91.5099 35.1316L92.8527 17.7239L89.9993 18.1807L90.0798 17.6701C90.1273 17.3622 90.2679 17.0761 90.4827 16.8505C90.6303 16.6966 90.8091 16.5762 91.0072 16.4974C91.2052 16.4186 91.4179 16.3832 91.6307 16.3936L96.3774 16.5885Z" fill="#EF293D"/>
<path d="M109.551 39.5057L108.933 35.3671L96.2235 30.5164L80.3717 34.1511L80.0898 38.7398C80.0898 38.7398 93.5178 34.3257 109.551 39.5057Z" fill="#282828"/>
<path d="M107.737 34.0697L108.254 34.6341L112.424 38.168C106.893 36.0425 101.078 34.7475 95.1689 34.325C86.246 33.8682 75.8528 36.2599 75.8528 36.2599L81.9827 33.0619C82.9727 32.1246 84.1406 31.3954 85.4172 30.9177C86.6939 30.4399 88.0533 30.2232 89.415 30.2805L100.627 30.7508C101.973 30.8043 103.295 31.1253 104.516 31.6951C105.736 32.2649 106.832 33.0721 107.737 34.0697Z" fill="#EF293D"/>
<path d="M111.142 38.2556C111.142 38.2556 111.061 38.1481 110.88 37.9936C110.613 37.7563 110.323 37.5469 110.014 37.3687C108.877 36.7356 107.669 36.2394 106.415 35.8907C102.29 34.7203 98.0106 34.1923 93.7255 34.3253C91.2347 34.3253 88.8445 34.3253 86.6691 34.4999C84.7507 34.6786 82.8434 34.9612 80.9556 35.3465C80.1499 35.5144 79.4315 35.7093 78.8071 35.9041C78.2463 36.0369 77.7244 36.2992 77.283 36.67C77.0082 36.9246 76.8362 37.2712 76.7996 37.6442C76.7817 37.7714 76.8053 37.901 76.8668 38.0137C76.8616 37.7853 76.9078 37.5586 77.0019 37.3505C77.096 37.1423 77.2357 36.958 77.4106 36.8111C77.8445 36.4803 78.3469 36.2507 78.8809 36.1393C79.5053 35.9713 80.2237 35.8101 81.0227 35.6622C82.6206 35.3801 84.5677 35.0979 86.7027 34.9299C88.8378 34.762 91.2279 34.8157 93.7323 34.7888C97.9816 34.6545 102.229 35.1204 106.348 36.1728C107.591 36.495 108.797 36.9453 109.947 37.5166C110.732 37.9465 111.101 38.3026 111.142 38.2556Z" fill="#263238"/>
<path d="M109.531 39.3709C110.149 43.1534 114.143 49.368 107.852 52.7004C107.852 52.7004 108.282 44.6382 107.819 41.4469C107.736 40.4991 107.445 39.5813 106.966 38.7595" fill="#282828"/>
<path d="M72.6239 50.1945C73.0805 49.3883 73.7921 48.7298 74.1144 47.8632C74.3431 46.9409 74.4403 45.9909 74.4031 45.0414C74.6129 43.2343 75.5109 41.5778 76.9102 40.4165C78.3096 39.2552 80.1026 38.6786 81.916 38.8066L80.0697 67.3469C75.2423 67.0512 71.3415 60.7829 71.0327 56.4293C71.0455 54.2521 71.5919 52.1112 72.6239 50.1945Z" fill="#282828"/>
<path d="M78.9552 63.5778C79.4066 63.7981 79.905 63.9048 80.407 63.8884C80.909 63.872 81.3994 63.7331 81.8355 63.4837C82.703 62.9727 83.4191 62.24 83.9101 61.3606C84.7371 59.9749 85.2194 58.4107 85.3163 56.7996C85.4133 55.1884 85.1222 53.5776 84.4674 52.1025C86.1502 50.3452 87.3733 48.1991 88.028 45.855C88.6828 43.511 88.7489 41.0413 88.2205 38.6655L81.2917 38.8604L78.9552 63.5778Z" fill="#282828"/>
<path d="M112.525 37.4427C112.4 37.3897 112.282 37.3196 112.176 37.2345L111.209 36.5626C110.35 35.9647 109.155 35.1383 107.685 34.1305L106.919 32.9682C106.672 32.5382 106.374 32.1391 106.033 31.779C105.647 31.4156 105.19 31.1364 104.69 30.9594C104.154 30.7967 103.599 30.7019 103.039 30.6772C100.709 30.4622 98.1306 30.3345 95.4316 30.2472C92.9139 30.1666 90.5103 30.133 88.3014 30.1128C87.7753 30.0757 87.2468 30.1256 86.737 30.2606C86.2632 30.3974 85.8207 30.6257 85.4345 30.9325C84.7228 31.6043 84.0917 32.2762 83.4203 32.8607L78.8951 34.6545L77.653 35.1248C77.5115 35.1911 77.3628 35.2407 77.2098 35.2726C77.3455 35.1948 77.4869 35.1274 77.6328 35.0711L78.8279 34.547L83.3128 32.6591H83.2793C83.897 32.0478 84.5214 31.3826 85.2935 30.6906C85.6989 30.3503 86.1695 30.0965 86.6766 29.9449C87.2046 29.8239 87.7489 29.7899 88.2879 29.8441C90.4968 29.8441 92.9071 29.8844 95.4249 29.9583C98.1105 30.0456 100.709 30.18 103.052 30.4152C103.634 30.4434 104.209 30.5473 104.764 30.7242C105.289 30.9177 105.767 31.2199 106.167 31.6111C106.52 31.9847 106.827 32.3998 107.08 32.8473C107.335 33.2571 107.591 33.6468 107.826 34.023L111.297 36.5357L112.23 37.2076C112.335 37.2772 112.434 37.3558 112.525 37.4427Z" fill="#263238"/>
<path d="M91.893 29.9986C91.8655 29.8047 91.8655 29.608 91.893 29.4141C91.893 29.0446 91.9266 28.5004 91.9668 27.8353C92.0407 26.4916 92.1683 24.6708 92.3294 22.6418C92.41 21.6274 92.4838 20.6666 92.5577 19.7798C92.598 19.3431 92.6315 18.9265 92.6718 18.5301C92.6793 18.456 92.6712 18.3812 92.648 18.3105C92.6247 18.2397 92.5868 18.1747 92.5368 18.1196C92.4868 18.0644 92.4257 18.0205 92.3576 17.9905C92.2895 17.9605 92.2158 17.9452 92.1414 17.9456L90.5838 18.1472C90.3899 18.1724 90.1935 18.1724 89.9996 18.1472C90.1804 18.0734 90.37 18.0237 90.5636 17.9994C90.9329 17.9255 91.4499 17.818 92.128 17.7037C92.2348 17.6986 92.3415 17.7163 92.4409 17.7558C92.5404 17.7952 92.6303 17.8554 92.7046 17.9323C92.779 18.0092 92.8361 18.1012 92.8721 18.2019C92.9081 18.3027 92.9222 18.41 92.9135 18.5167C92.9135 18.9131 92.8598 19.3296 92.8262 19.7663C92.7658 20.6532 92.692 21.6206 92.6181 22.6284C92.4637 24.644 92.3025 26.4915 92.175 27.8218C92.1078 28.4937 92.0541 29.0177 92.0071 29.3939C91.9963 29.5997 91.9579 29.8031 91.893 29.9986Z" fill="#263238"/>
<path d="M99.9155 30.3281C99.8088 29.7567 99.7593 29.176 99.7678 28.5947C99.7342 27.5265 99.7678 26.0417 99.8014 24.4091C99.8349 22.7765 99.9021 21.2984 99.9558 20.2235C99.9558 19.6448 100.005 19.0671 100.103 18.4968C100.173 19.0719 100.193 19.6517 100.164 20.2302C100.164 21.3052 100.164 22.7832 100.09 24.4158C100.016 26.0484 100.009 27.4324 99.9759 28.5947C99.9965 29.1732 99.9763 29.7525 99.9155 30.3281Z" fill="#263238"/>
<path d="M67.5409 53.0703C67.6847 52.3348 68.0434 51.6586 68.5718 51.1276C69.1001 50.5965 69.7742 50.2344 70.5085 50.0872C70.2463 49.586 70.19 49.002 70.3518 48.4598C70.5136 47.9177 70.8806 47.4602 71.3746 47.1848C72.046 46.8288 72.9189 46.8825 73.6104 46.513C73.9891 46.2676 74.3145 45.9484 74.5671 45.5744C74.8197 45.2004 74.9944 44.7793 75.0808 44.3362C75.2416 43.446 75.4867 42.5732 75.8126 41.7294C75.9814 41.3098 76.2675 40.9479 76.6366 40.6869C77.0058 40.4259 77.4424 40.277 77.8939 40.2581L82.5938 59.3655C82.305 60.7063 81.6441 61.9384 80.687 62.9202C79.7299 63.902 78.5154 64.5937 77.1831 64.9158C75.8508 65.2378 74.4547 65.1772 73.1552 64.741C71.8558 64.3047 70.7057 63.5104 69.8371 62.4493C68.5548 60.8906 68.0244 58.4182 69.3134 56.8797C68.6747 56.4912 68.1654 55.922 67.8499 55.2439C67.5344 54.5659 67.4269 53.8095 67.5409 53.0703Z" fill="#282828"/>
<path d="M72.6639 47.0034C72.7042 47.0034 72.7377 46.7212 72.9391 46.2576C73.243 45.6192 73.7543 45.1029 74.3894 44.793C75.3568 44.3662 76.3948 44.1225 77.4509 44.0741C78.6527 43.9599 79.9955 43.9666 81.4054 43.7247C82.1082 43.6091 82.7881 43.3823 83.4196 43.0529C83.9844 42.7395 84.5134 42.3655 84.9974 41.9376C85.8037 41.2097 86.5533 40.4214 87.2398 39.5794C87.8307 38.874 88.2939 38.2894 88.5826 37.8796C88.765 37.6763 88.9207 37.4506 89.0459 37.2078C88.3126 37.879 87.6282 38.602 86.9982 39.3711C86.2894 40.1723 85.5315 40.9285 84.7288 41.6353C84.2586 42.0405 83.7479 42.3963 83.2048 42.6968C82.6099 42.9896 81.9736 43.189 81.3181 43.288C79.9754 43.5299 78.6326 43.5366 77.4039 43.671C76.3048 43.7397 75.2302 44.0251 74.2417 44.5108C73.5687 44.866 73.05 45.4567 72.7847 46.1703C72.6735 46.433 72.6319 46.7199 72.6639 47.0034Z" fill="white"/>
<path d="M67.9638 54.8368C68.004 54.8368 68.0645 54.4606 68.3532 53.8223C68.774 52.9373 69.3918 52.1605 70.1592 51.5515C71.3011 50.636 72.6101 49.9515 74.0131 49.5359C75.5842 49.0321 77.3701 48.7028 79.2299 48.0915C80.9674 47.5125 82.5673 46.5816 83.9297 45.357C85.0318 44.3591 86.0347 43.2566 86.9241 42.065C87.6895 41.0572 88.2669 40.2039 88.6429 39.6127C88.8574 39.3171 89.044 39.0023 89.2002 38.6721C88.9491 38.9339 88.7242 39.2197 88.5288 39.5254C88.1058 40.0897 87.5083 40.9094 86.716 41.8836C85.8134 43.0375 84.8065 44.1057 83.7081 45.0749C82.3631 46.2505 80.7973 47.1458 79.1023 47.7085C77.303 48.3132 75.4902 48.6491 73.8989 49.1866C72.4609 49.6159 71.1263 50.3362 69.978 51.3029C69.1954 51.964 68.5887 52.8088 68.2122 53.7619C68.1119 54.0175 68.0398 54.2833 67.9973 54.5547C67.957 54.7428 67.9503 54.8368 67.9638 54.8368Z" fill="white"/>
<path d="M111.484 49.7983C111.491 49.2532 111.419 48.71 111.269 48.1859C110.999 46.9096 110.645 45.6527 110.208 44.4235C109.782 43.1902 109.273 41.9871 108.684 40.8224C108.474 40.3203 108.191 39.8517 107.845 39.4316C107.738 39.4854 108.832 41.6958 109.859 44.5579C110.886 47.42 111.363 49.8185 111.484 49.7983Z" fill="white"/>
<path d="M89.7441 44.6249C89.6568 44.6249 89.8112 45.0818 90.2879 45.2968C90.7646 45.5118 91.1674 45.2968 91.1271 45.196C91.0868 45.0952 90.7713 45.1154 90.4155 44.9743C90.0597 44.8332 89.8314 44.551 89.7441 44.6249Z" fill="#EB996E"/>
<path d="M89.6969 46.0089C89.7506 46.0963 90.093 46.009 90.5228 45.9015C90.9525 45.794 91.3151 45.8208 91.3352 45.7268C91.3553 45.6327 90.9592 45.4715 90.4623 45.5588C89.9655 45.6461 89.6499 45.9686 89.6969 46.0089Z" fill="#EB996E"/>
<path d="M92.9804 52.9956C93.0676 53.0494 93.3362 52.7538 93.7726 52.5724C94.209 52.391 94.5984 52.3775 94.6185 52.2767C94.6387 52.176 94.1687 52.0147 93.6316 52.2767C93.0945 52.5388 92.8931 52.9553 92.9804 52.9956Z" fill="#EB996E"/>
<path d="M106.483 46.8759C106.483 46.9633 106.771 46.9565 107.067 46.8759C107.362 46.7953 107.577 46.6206 107.543 46.5265C107.51 46.4325 107.255 46.4392 106.959 46.5265C106.664 46.6139 106.483 46.7819 106.483 46.8759Z" fill="#EB996E"/>
<path d="M106.939 47.5072C106.886 47.5879 107.027 47.7693 107.289 47.8163C107.55 47.8633 107.745 47.7424 107.718 47.6483C107.691 47.5543 107.53 47.5072 107.349 47.4736C107.168 47.44 106.993 47.4266 106.939 47.5072Z" fill="#EB996E"/>
<path d="M84.9038 72.1706C84.9819 71.0882 84.9459 70.0005 84.7963 68.9256C84.7411 68.5368 84.7803 68.1404 84.9105 67.77C85.0863 67.4698 85.2411 67.1578 85.3737 66.8361C85.4132 66.7128 85.4259 66.5824 85.4108 66.4538C85.3958 66.3252 85.3534 66.2012 85.2865 66.0904C85.1723 65.9359 85.0582 65.9224 85.0515 65.9359C85.0447 65.9493 85.1119 66.0232 85.1656 66.1576C85.2381 66.3526 85.2381 66.5672 85.1656 66.7622C85.0716 67.0108 84.8366 67.2594 84.6486 67.6356C84.4706 68.0596 84.4103 68.5239 84.4741 68.9793C84.5007 70.0556 84.6448 71.1257 84.9038 72.1706Z" fill="#EB996E"/>
</svg>
