<svg width="550" height="345" viewBox="0 0 550 345" fill="none" xmlns="http://www.w3.org/2000/svg">
<g clip-path="url(#clip0_1924_69729)">
<path d="M542.153 139.368C521.972 59.8062 452.239 2.37368 370.387 0.0701092C327.114 -1.14772 281.58 13.2407 248.427 63.5911C189.163 153.598 252.069 215.795 295.925 245.35C317.113 259.658 336.205 276.861 352.647 296.463C382.27 331.706 439.259 375.501 507.13 306.881C556.323 257.145 555.596 192.364 542.153 139.368Z" fill="#F2F2F2"/>
<path d="M75.7478 199.688C75.2041 198.88 74.6696 198.051 74.1589 197.224L74.9837 196.712C75.4874 197.529 76.0149 198.347 76.5513 199.144L75.7478 199.688Z" fill="#3F3D56"/>
<path d="M71.2352 192.014C70.3359 190.244 69.5 188.416 68.751 186.581L69.6482 186.212C70.3875 188.023 71.212 189.827 72.0993 191.573L71.2352 192.014ZM66.7246 180.96C66.1297 179.067 65.6068 177.126 65.17 175.19L66.116 174.975C66.5466 176.885 67.0624 178.8 67.6493 180.667L66.7246 180.96ZM64.0979 169.311C63.823 167.349 63.6261 165.348 63.512 163.364L64.4802 163.308C64.5924 165.266 64.787 167.24 65.058 169.175L64.0979 169.311ZM64.3803 157.412L63.4111 157.389C63.4578 155.402 63.5865 153.396 63.7937 151.427L64.7581 151.529C64.5536 153.472 64.4264 155.451 64.3803 157.412V157.412ZM65.6153 145.697L64.6627 145.516C65.032 143.567 65.4872 141.609 66.0158 139.697L66.9504 139.957C66.4287 141.843 65.9796 143.774 65.6153 145.697V145.697ZM68.7557 134.347L67.8462 134.01C68.5318 132.148 69.3042 130.291 70.142 128.491L71.0207 128.902C70.1941 130.678 69.432 132.51 68.7557 134.347V134.347ZM201.549 131.342C200.791 129.54 199.948 127.746 199.042 126.009L199.901 125.559C200.82 127.319 201.675 129.137 202.443 130.964L201.549 131.342ZM73.7268 123.665L72.8849 123.182C73.8669 121.46 74.9334 119.757 76.0547 118.119L76.8539 118.669C75.7477 120.285 74.6954 121.966 73.7268 123.665ZM196.104 120.902C195.06 119.249 193.934 117.618 192.757 116.055L193.531 115.469C194.724 117.053 195.865 118.706 196.923 120.382L196.104 120.902ZM80.38 113.949L79.6281 113.335C80.879 111.796 82.2085 110.291 83.5803 108.861L84.2791 109.534C82.9258 110.946 81.6138 112.431 80.38 113.949ZM189.025 111.498C187.724 110.037 186.348 108.612 184.933 107.263L185.601 106.558C187.035 107.926 188.43 109.37 189.748 110.851L189.025 111.498ZM88.5253 105.454L87.8838 104.726C89.3673 103.413 90.9238 102.145 92.5099 100.958L93.0899 101.737C91.5249 102.908 89.9892 104.159 88.5253 105.454ZM180.509 103.377C178.988 102.148 177.397 100.968 175.781 99.8684L176.326 99.0638C177.963 100.178 179.575 101.375 181.117 102.62L180.509 103.377ZM97.9418 98.4086L97.4277 97.5845C99.1065 96.5317 100.848 95.537 102.605 94.628L103.05 95.492C101.317 96.3886 99.5982 97.37 97.9418 98.4086ZM170.783 96.7605C169.079 95.7967 167.317 94.8936 165.545 94.0765L165.95 93.1931C167.746 94.0216 169.532 94.937 171.259 95.9137L170.783 96.7605ZM108.379 93.0082L108.007 92.1106C109.835 91.3497 111.715 90.6565 113.598 90.0503L113.894 90.9759C112.037 91.5738 110.182 92.2575 108.379 93.0082ZM160.104 91.8355C158.269 91.1677 156.382 90.5686 154.496 90.0553L154.75 89.1173C156.662 89.6376 158.574 90.2447 160.435 90.9218L160.104 91.8355ZM119.562 89.4078L119.343 88.4609C121.268 88.0133 123.239 87.6409 125.199 87.3537L125.339 88.3156C123.405 88.599 121.462 88.9664 119.562 89.4079V89.4078ZM148.761 88.7476C146.844 88.3935 144.885 88.1148 142.938 87.9197L143.035 86.9524C145.008 87.1503 146.994 87.4325 148.936 87.7916L148.761 88.7476ZM131.187 87.7045L131.126 86.7343C133.098 86.6094 135.109 86.565 137.085 86.6009L137.068 87.573C135.116 87.5372 133.134 87.5815 131.187 87.7045V87.7045Z" fill="#3F3D56"/>
<path d="M204.47 139.706C204.21 138.781 203.928 137.849 203.631 136.935L204.553 136.633C204.854 137.56 205.14 138.505 205.403 139.443L204.47 139.706Z" fill="#3F3D56"/>
<path d="M198.557 85.267H197.587C197.587 84.2941 197.604 83.307 197.638 82.3335L198.607 82.3672C198.574 83.3298 198.557 84.3053 198.557 85.267Z" fill="#3F3D56"/>
<path d="M199.019 76.5215L198.054 76.4185C198.262 74.4607 198.543 72.487 198.89 70.5522L199.844 70.7241C199.502 72.6361 199.224 74.5867 199.019 76.5215ZM201.083 65.0012L200.144 64.761C200.629 62.8531 201.19 60.9402 201.811 59.0752L202.731 59.3828C202.117 61.2259 201.563 63.116 201.083 65.0012V65.0012ZM355.722 54.745C354.997 52.941 354.197 51.141 353.345 49.3957L354.216 48.9685C355.079 50.7347 355.888 52.556 356.622 54.3819L355.722 54.745ZM204.78 53.8929L203.885 53.5194C204.639 51.7028 205.469 49.8893 206.353 48.1292L207.219 48.5664C206.346 50.3059 205.525 52.0977 204.78 53.8929V53.8929ZM350.591 44.2308C349.616 42.5509 348.568 40.8841 347.474 39.2769L348.276 38.7291C349.382 40.3555 350.443 42.0421 351.429 43.7419L350.591 44.2308ZM210.033 43.4302L209.201 42.9318C210.206 41.2439 211.286 39.5688 212.412 37.9532L213.207 38.51C212.094 40.1066 211.026 41.762 210.033 43.4302H210.033ZM344.012 34.5586C342.807 33.0328 341.532 31.5326 340.224 30.0996L340.939 29.4431C342.263 30.8932 343.553 32.411 344.773 33.9548L344.012 34.5586ZM216.723 33.8305L215.97 33.2182C217.207 31.6888 218.514 30.1855 219.855 28.7501L220.563 29.4146C219.237 30.8334 217.945 32.3191 216.723 33.8305ZM336.128 25.9222C334.719 24.5841 333.244 23.2807 331.745 22.0477L332.36 21.2963C333.877 22.5435 335.369 23.8626 336.795 25.2164L336.128 25.9222ZM224.706 25.2848L224.047 24.5713C225.486 23.2349 226.993 21.9331 228.524 20.7025L229.131 21.461C227.617 22.6774 226.128 23.9637 224.706 25.2847V25.2848ZM327.098 18.4962C325.514 17.3727 323.87 16.2928 322.21 15.2865L322.712 14.4549C324.391 15.4731 326.055 16.5657 327.658 17.7026L327.098 18.4962ZM233.815 17.9637L233.264 17.1638C234.878 16.0465 236.554 14.9735 238.244 13.9743L238.736 14.8116C237.066 15.7991 235.41 16.8596 233.815 17.9636V17.9637ZM317.106 12.4363C315.377 11.5511 313.595 10.7185 311.81 9.96117L312.187 9.06594C313.995 9.83206 315.797 10.6748 317.547 11.5705L317.106 12.4363ZM243.869 12.0217L243.438 11.1512C245.194 10.2768 247.005 9.45543 248.819 8.70995L249.187 9.60946C247.394 10.3461 245.605 11.1578 243.869 12.0217V12.0217ZM306.349 7.87523C304.515 7.24915 302.632 6.68191 300.753 6.18944L300.998 5.24911C302.9 5.74728 304.806 6.3214 306.662 6.95485L306.349 7.87523ZM254.663 7.58759L254.361 6.66388C256.225 6.05155 258.135 5.49927 260.041 5.02244L260.276 5.96561C258.393 6.43672 256.504 6.98236 254.663 7.58756L254.663 7.58759ZM295.051 4.91375C293.145 4.55893 291.201 4.26915 289.273 4.05222L289.381 3.08627C291.332 3.3058 293.299 3.59891 295.228 3.95778L295.051 4.91375ZM265.99 4.75379L265.824 3.7959C267.756 3.45865 269.726 3.18735 271.679 2.9892L271.777 3.95657C269.846 4.15213 267.899 4.42032 265.99 4.75378L265.99 4.75379ZM283.448 3.60651C281.507 3.52747 279.533 3.51703 277.606 3.5747L277.576 2.60306C279.527 2.54468 281.523 2.55488 283.488 2.63534L283.448 3.60651Z" fill="#3F3D56"/>
<path d="M358.558 63.0867C358.299 62.1616 358.018 61.2277 357.726 60.3104L358.649 60.0142C358.945 60.9421 359.229 61.8872 359.492 62.8233L358.558 63.0867Z" fill="#3F3D56"/>
<path d="M75.1805 211.753C84.1001 211.753 91.3309 211.209 91.3309 210.539C91.3309 209.868 84.1001 209.324 75.1805 209.324C66.2608 209.324 59.03 209.868 59.03 210.539C59.03 211.209 66.2608 211.753 75.1805 211.753Z" fill="#EF293D"/>
<path d="M203.981 153.057C212.9 153.057 220.131 152.514 220.131 151.843C220.131 151.172 212.9 150.628 203.981 150.628C195.061 150.628 187.83 151.172 187.83 151.843C187.83 152.514 195.061 153.057 203.981 153.057Z" fill="#EF293D"/>
<path d="M363.063 91.9327C371.982 91.9327 379.213 91.389 379.213 90.7183C379.213 90.0476 371.982 89.5039 363.063 89.5039C354.143 89.5039 346.912 90.0476 346.912 90.7183C346.912 91.389 354.143 91.9327 363.063 91.9327Z" fill="#EF293D"/>
<path d="M356.663 86.7314L308.099 135.42L308.785 136.108L357.349 87.4187L356.663 86.7314Z" fill="#3F3D56"/>
<path d="M294.02 141.642H212.46V142.614H294.02V141.642Z" fill="#3F3D56"/>
<path d="M197.574 148.269L151.957 194.003L152.642 194.69L198.259 148.956L197.574 148.269Z" fill="#3F3D56"/>
<path d="M138.168 200.337H83.6599V201.31H138.168V200.337Z" fill="#3F3D56"/>
<path d="M68.8422 206.491L14.6772 260.795L15.3628 261.482L69.5278 207.178L68.8422 206.491Z" fill="#3F3D56"/>
<path d="M75.1807 209.81C73.4078 209.81 71.6747 209.283 70.2006 208.296C68.7264 207.308 67.5775 205.905 66.899 204.263C66.2205 202.621 66.0429 200.814 66.3888 199.07C66.7346 197.327 67.5883 195.726 68.8419 194.469C70.0956 193.212 71.6928 192.356 73.4316 192.009C75.1705 191.662 76.9728 191.84 78.6108 192.52C80.2487 193.201 81.6487 194.353 82.6337 195.83C83.6187 197.308 84.1444 199.046 84.1444 200.823C84.1417 203.206 83.1965 205.49 81.5161 207.175C79.8356 208.86 77.5572 209.808 75.1807 209.81V209.81ZM75.1807 192.809C73.5996 192.809 72.054 193.279 70.7393 194.159C69.4246 195.04 68.3999 196.292 67.7948 197.756C67.1897 199.221 67.0313 200.832 67.3398 202.387C67.6482 203.942 68.4096 205.37 69.5276 206.491C70.6456 207.612 72.07 208.375 73.6208 208.684C75.1715 208.993 76.7789 208.835 78.2397 208.228C79.7005 207.622 80.949 206.594 81.8275 205.276C82.7059 203.958 83.1748 202.409 83.1748 200.823C83.1723 198.698 82.3293 196.661 80.8307 195.159C79.3321 193.656 77.3002 192.811 75.1807 192.809V192.809Z" fill="#3F3D56"/>
<path d="M146.647 209.81C144.874 209.81 143.141 209.283 141.666 208.296C140.192 207.308 139.043 205.905 138.365 204.263C137.687 202.62 137.509 200.813 137.855 199.07C138.201 197.327 139.054 195.726 140.308 194.469C141.562 193.212 143.159 192.356 144.898 192.009C146.637 191.662 148.439 191.84 150.077 192.521C151.715 193.201 153.115 194.353 154.1 195.83C155.085 197.308 155.61 199.046 155.61 200.823C155.608 203.206 154.663 205.49 152.982 207.175C151.302 208.86 149.023 209.808 146.647 209.81ZM146.647 192.809C145.065 192.809 143.52 193.279 142.205 194.159C140.89 195.04 139.866 196.292 139.261 197.756C138.656 199.221 138.497 200.832 138.806 202.387C139.114 203.942 139.876 205.37 140.994 206.491C142.112 207.612 143.536 208.375 145.087 208.684C146.638 208.993 148.245 208.835 149.706 208.228C151.167 207.621 152.415 206.594 153.294 205.276C154.172 203.958 154.641 202.409 154.641 200.823C154.638 198.698 153.795 196.661 152.297 195.159C150.798 193.656 148.766 192.811 146.647 192.809V192.809Z" fill="#3F3D56"/>
<path d="M203.981 151.114C202.208 151.114 200.475 150.587 199.001 149.6C197.527 148.612 196.378 147.209 195.699 145.567C195.021 143.924 194.843 142.117 195.189 140.374C195.535 138.631 196.389 137.03 197.643 135.773C198.896 134.516 200.493 133.66 202.232 133.313C203.971 132.967 205.773 133.145 207.411 133.825C209.049 134.505 210.449 135.657 211.434 137.135C212.419 138.612 212.945 140.35 212.945 142.127C212.942 144.51 211.997 146.794 210.316 148.479C208.636 150.164 206.357 151.112 203.981 151.114V151.114ZM203.981 134.113C202.4 134.113 200.854 134.583 199.539 135.464C198.225 136.344 197.2 137.596 196.595 139.06C195.99 140.525 195.832 142.136 196.14 143.691C196.449 145.246 197.21 146.674 198.328 147.795C199.446 148.916 200.871 149.679 202.421 149.988C203.972 150.297 205.58 150.139 207.04 149.532C208.501 148.925 209.75 147.898 210.628 146.58C211.506 145.262 211.975 143.713 211.975 142.127C211.973 140.002 211.13 137.965 209.631 136.463C208.132 134.96 206.1 134.115 203.981 134.113V134.113Z" fill="#3F3D56"/>
<path d="M302.499 151.114C300.726 151.114 298.993 150.587 297.519 149.6C296.045 148.612 294.896 147.209 294.217 145.567C293.539 143.924 293.361 142.117 293.707 140.374C294.053 138.631 294.907 137.03 296.16 135.773C297.414 134.516 299.011 133.66 300.75 133.313C302.489 132.967 304.291 133.145 305.929 133.825C307.567 134.505 308.967 135.657 309.952 137.135C310.937 138.612 311.462 140.35 311.462 142.127C311.46 144.51 310.515 146.794 308.834 148.479C307.154 150.164 304.875 151.112 302.499 151.114V151.114ZM302.499 134.113C300.917 134.113 299.372 134.583 298.057 135.464C296.743 136.344 295.718 137.596 295.113 139.06C294.508 140.525 294.35 142.136 294.658 143.691C294.967 145.246 295.728 146.674 296.846 147.795C297.964 148.916 299.389 149.679 300.939 149.988C302.49 150.297 304.097 150.139 305.558 149.532C307.019 148.925 308.267 147.898 309.146 146.58C310.024 145.262 310.493 143.713 310.493 142.127C310.49 140.002 309.647 137.965 308.149 136.463C306.65 134.96 304.618 134.115 302.499 134.113V134.113Z" fill="#3F3D56"/>
<path d="M363.063 89.9898C361.29 89.9897 359.557 89.4627 358.083 88.4752C356.609 87.4877 355.46 86.0841 354.781 84.442C354.103 82.7999 353.925 80.9929 354.271 79.2497C354.617 77.5064 355.471 75.9051 356.725 74.6483C357.978 73.3915 359.575 72.5356 361.314 72.1888C363.053 71.842 364.855 72.02 366.493 72.7002C368.131 73.3803 369.531 74.5322 370.516 76.01C371.501 77.4879 372.027 79.2254 372.027 81.0028C372.024 83.3855 371.079 85.6698 369.398 87.3546C367.718 89.0394 365.439 89.9871 363.063 89.9898V89.9898ZM363.063 72.9882C361.482 72.9883 359.936 73.4583 358.621 74.339C357.307 75.2197 356.282 76.4715 355.677 77.936C355.072 79.4005 354.914 81.012 355.222 82.5667C355.531 84.1214 356.292 85.5494 357.41 86.6703C358.528 87.7911 359.953 88.5544 361.503 88.8637C363.054 89.1729 364.662 89.0142 366.122 88.4075C367.583 87.8009 368.831 86.7736 369.71 85.4556C370.588 84.1376 371.057 82.588 371.057 81.0028C371.055 78.8779 370.212 76.8408 368.713 75.3383C367.214 73.8358 365.182 72.9906 363.063 72.9882V72.9882Z" fill="#3F3D56"/>
<path d="M8.96392 276.198C7.19101 276.198 5.45791 275.671 3.98377 274.683C2.50963 273.696 1.36066 272.292 0.682166 270.65C0.00367169 269.008 -0.173878 267.201 0.17197 265.457C0.517819 263.714 1.37153 262.113 2.62515 260.856C3.87877 259.599 5.47599 258.743 7.21482 258.396C8.95366 258.05 10.756 258.228 12.394 258.908C14.0319 259.588 15.4319 260.74 16.4169 262.218C17.4019 263.696 17.9276 265.433 17.9276 267.211C17.9249 269.593 16.9797 271.878 15.2993 273.562C13.6188 275.247 11.3404 276.195 8.96392 276.198V276.198ZM8.96392 259.196C7.38279 259.196 5.83715 259.666 4.52247 260.546C3.20778 261.427 2.1831 262.679 1.57799 264.143C0.972888 265.608 0.81454 267.219 1.12297 268.774C1.43141 270.329 2.19277 271.757 3.31078 272.878C4.4288 273.999 5.85324 274.762 7.40399 275.071C8.95473 275.381 10.5621 275.222 12.0229 274.615C13.4837 274.009 14.7322 272.981 15.6107 271.663C16.4891 270.345 16.958 268.796 16.958 267.211C16.9555 265.086 16.1125 263.049 14.6139 261.546C13.1153 260.044 11.0834 259.198 8.96392 259.196V259.196Z" fill="#3F3D56"/>
<path d="M75.1805 147.795C73.0596 147.795 70.9594 148.214 69 149.027C67.0405 149.841 65.2601 151.034 63.7604 152.537C62.2607 154.041 61.071 155.826 60.2594 157.79C59.4478 159.755 59.03 161.861 59.03 163.987C59.03 172.929 75.1805 202.443 75.1805 202.443C75.1805 202.443 91.331 172.929 91.331 163.987C91.331 161.861 90.9132 159.755 90.1016 157.79C89.2899 155.826 88.1003 154.041 86.6006 152.537C85.1009 151.034 83.3205 149.841 81.361 149.027C79.4015 148.214 77.3014 147.795 75.1805 147.795V147.795ZM75.1805 172.488C73.5035 172.488 71.8642 171.989 70.4698 171.055C69.0755 170.121 67.9887 168.793 67.3469 167.24C66.7052 165.687 66.5373 163.977 66.8644 162.328C67.1916 160.679 67.9991 159.165 69.1849 157.976C70.3708 156.787 71.8816 155.977 73.5263 155.649C75.1711 155.321 76.8759 155.49 78.4253 156.133C79.9746 156.777 81.2988 157.866 82.2305 159.264C83.1622 160.662 83.6595 162.306 83.6595 163.987C83.6595 166.241 82.7662 168.404 81.176 169.998C79.5859 171.592 77.4293 172.488 75.1805 172.488V172.488Z" fill="#EF293D"/>
<path d="M203.981 87.0747C199.697 87.0747 195.589 88.7806 192.56 91.8172C189.532 94.8538 187.83 98.9723 187.83 103.267C187.83 112.209 203.981 141.723 203.981 141.723C203.981 141.723 220.131 112.209 220.131 103.267C220.131 101.14 219.713 99.0348 218.902 97.0703C218.09 95.1058 216.9 93.3208 215.401 91.8172C213.901 90.3136 212.121 89.121 210.161 88.3072C208.202 87.4935 206.101 87.0747 203.981 87.0747V87.0747ZM203.981 111.767C202.304 111.767 200.664 111.269 199.27 110.335C197.875 109.401 196.789 108.073 196.147 106.52C195.505 104.966 195.337 103.257 195.664 101.608C195.992 99.9593 196.799 98.4446 197.985 97.2557C199.171 96.0669 200.682 95.2572 202.326 94.9292C203.971 94.6012 205.676 94.7696 207.225 95.413C208.775 96.0564 210.099 97.146 211.031 98.5439C211.962 99.9418 212.459 101.585 212.459 103.267C212.459 105.521 211.566 107.683 209.976 109.278C208.386 110.872 206.229 111.767 203.981 111.767V111.767Z" fill="#EF293D"/>
<path d="M521.039 343.812H301.157V345H521.039V343.812Z" fill="#2F2E41"/>
<path d="M482.604 35.2067C479.185 45.3536 473.944 54.5989 463.261 54.5989C452.579 54.5989 444.521 45.8997 443.919 35.2067C443.149 21.5431 452.332 15.7578 463.261 15.8144C476.172 15.8812 486.661 23.1647 482.604 35.2067Z" fill="#2F2E41"/>
<path d="M482.095 33.6753H443.918V82.156H482.095V33.6753Z" fill="#2F2E41"/>
<path d="M483.215 69.7939H486.463C486.463 69.7939 494.4 79.922 490.792 93.6673C487.184 107.413 490.07 109.945 490.07 109.945C490.07 109.945 494.767 124.83 489.716 147.256C484.665 169.683 494.4 175.777 494.4 175.777L485.38 157.691L480.329 109.945L483.215 69.7939Z" fill="#575A89"/>
<path opacity="0.1" d="M483.215 70.9839H486.463C486.463 70.9839 494.4 81.112 490.792 94.8573C487.184 108.603 490.07 111.135 490.07 111.135C490.07 111.135 494.767 126.02 489.716 148.446C484.665 170.873 494.4 176.967 494.4 176.967L485.38 158.881L480.329 111.135L483.215 70.9839Z" fill="black"/>
<path d="M471.851 52.2505C471.851 52.2505 468.964 63.8254 470.407 63.8254C471.851 63.8254 476.902 69.9746 476.902 69.9746L480.149 81.9113L477.623 90.5926L468.964 88.784L458.14 76.8473L454.893 73.5918L452.007 63.102C452.007 63.102 455.615 58.7614 453.089 55.1442C450.564 51.527 471.851 52.2505 471.851 52.2505Z" fill="#FBBEBE"/>
<path opacity="0.1" d="M471.851 52.2505C471.851 52.2505 468.964 63.8254 470.407 63.8254C471.851 63.8254 476.902 69.9746 476.902 69.9746L480.149 81.9113L477.623 90.5926L468.964 88.784L458.14 76.8473L454.893 73.5918L452.007 63.102C452.007 63.102 455.615 58.7614 453.089 55.1442C450.564 51.527 471.851 52.2505 471.851 52.2505Z" fill="black"/>
<path d="M384.539 84.4434L376.602 71.4216C376.602 71.4216 368.034 52.4153 361.901 59.288C355.767 66.1606 371.19 80.1028 371.19 80.1028L379.128 90.5926L384.539 84.4434Z" fill="#FBBEBE"/>
<path d="M489.89 197.661L484.118 239.982C484.118 239.982 484.839 243.238 477.623 255.174C470.407 267.111 450.925 293.155 450.925 293.155L445.152 282.303C445.152 282.303 452.007 247.94 463.913 240.706L462.47 188.618L489.89 197.661Z" fill="#FBBEBE"/>
<path opacity="0.1" d="M489.89 197.661L484.118 239.982C484.118 239.982 484.839 243.238 477.623 255.174C470.407 267.111 450.925 293.155 450.925 293.155L445.152 282.303C445.152 282.303 452.007 247.94 463.913 240.706L462.47 188.618L489.89 197.661Z" fill="black"/>
<path d="M445.152 277.962L453.089 293.155C453.089 293.155 446.595 311.602 449.121 313.411C451.646 315.219 454.893 331.497 448.038 329.688C441.183 327.879 435.771 320.645 435.771 319.56C435.771 318.475 439.74 303.283 437.575 299.665C435.411 296.048 433.968 294.963 433.968 294.963L428.556 304.006L426.752 302.921L435.771 287.729C435.771 287.729 436.854 284.835 441.183 283.026L445.152 277.962Z" fill="#2F2E41"/>
<path opacity="0.1" d="M445.152 277.962L453.089 293.155C453.089 293.155 446.595 311.602 449.121 313.411C451.646 315.219 454.893 331.497 448.038 329.688C441.183 327.879 435.771 320.645 435.771 319.56C435.771 318.475 439.74 303.283 437.575 299.665C435.411 296.048 433.968 294.963 433.968 294.963L428.556 304.006L426.752 302.921L435.771 287.729C435.771 287.729 436.854 284.835 441.183 283.026L445.152 277.962Z" fill="black"/>
<path d="M462.554 191.657C462.554 191.657 465.356 231.663 459.223 242.152V294.24L450.925 295.325C450.925 295.325 434.167 267.749 440.3 240.62C446.434 213.491 433.968 188.618 433.968 188.618L462.554 191.657Z" fill="#FBBEBE"/>
<path d="M460.486 61.1128C468.855 61.1128 475.639 54.3111 475.639 45.9207C475.639 37.5303 468.855 30.7285 460.486 30.7285C452.117 30.7285 445.333 37.5303 445.333 45.9207C445.333 54.3111 452.117 61.1128 460.486 61.1128Z" fill="#FBBEBE"/>
<path d="M475.819 85.8902L460.666 66.7191L452.007 60.9316L448.399 65.634L438.297 68.5277C438.297 68.5277 431.802 69.9746 424.947 77.9324C418.092 85.8902 405.826 90.5925 405.826 90.5925L395.723 88.7839C395.723 88.7839 383.817 83.3582 383.817 81.9113C383.817 80.4644 373.354 91.6777 375.88 96.0183C378.405 100.359 383.817 105.785 386.704 108.678C389.59 111.572 390.672 119.892 408.351 117.36C426.03 114.828 432.524 106.146 432.524 106.146C432.524 106.146 435.771 122.785 445.152 126.041C454.532 129.296 485.2 131.467 485.2 131.467L491.694 109.764C491.694 109.764 498.91 100.359 489.168 86.6136C489.168 86.6136 488.981 78.9263 487.934 73.8109C487.527 71.8212 486.989 70.2207 486.282 69.6129C483.756 67.4426 470.407 63.8254 470.407 63.8254C470.407 63.8254 472.572 71.0598 473.654 71.4215C474.737 71.7832 477.262 84.0816 475.819 85.8902Z" fill="#575A89"/>
<path d="M427.293 193.863C445.462 192.597 456.041 195.581 460.76 197.857C461.637 198.255 462.463 198.757 463.22 199.354C463.567 199.647 463.733 199.875 463.733 200.012C463.733 201.098 488.627 203.268 497.647 201.098C506.667 198.927 491.514 152.266 487.545 148.287C483.576 144.308 485.716 129.745 485.716 129.745C485.716 129.745 477.804 128.03 475.639 128.754C473.474 129.477 462.29 127.669 458.321 125.498C454.352 123.328 449.301 124.775 446.054 124.052C444.604 123.73 443.871 124.272 443.507 124.974C442.94 126.027 442.083 126.894 441.039 127.473C433.379 131.897 427.231 162.484 422.602 179.394C417.551 197.842 427.293 193.863 427.293 193.863Z" fill="#2F2E41"/>
<path d="M460.666 290.984L462.109 298.942C462.109 298.942 469.686 309.794 467.521 318.837C467.521 318.837 469.325 330.773 475.819 334.029C482.314 337.284 476.902 344.88 470.768 344.519C464.635 344.157 458.862 344.88 458.141 343.072C457.419 341.263 453.09 323.539 453.09 323.539L451.905 344.28L448.297 344.642L449.482 320.645C449.482 320.645 446.595 315.219 450.564 306.177L449.562 292.296C449.562 292.296 459.584 294.602 460.666 290.984Z" fill="#2F2E41"/>
<path opacity="0.1" d="M460.76 197.856C461.637 198.254 462.463 198.757 463.22 199.354C463.412 195.936 464.516 175.263 463.191 175.596L460.76 197.856Z" fill="black"/>
<path d="M454.212 24.9999C454.212 24.9999 454.045 24.0633 447.481 26.5308C440.918 28.9984 436.984 47.2079 440.265 57.9007C441.588 62.2098 440.512 65.3167 438.756 67.4906C432.167 75.6481 434.761 87.9005 444.359 92.0954C444.629 92.2138 444.906 92.3309 445.188 92.4465L449.29 94.9141C449.29 94.9141 444.061 88.0158 446.678 79.1917C448.95 71.6732 449.231 63.6909 447.492 56.0306C447.192 54.7384 446.851 53.4063 446.463 52.047C443.182 40.5317 444.778 41.8616 456.263 30.3463C456.263 30.3463 462.827 35.2814 468.57 37.7489C474.313 40.2165 479.235 42.6841 475.133 50.9093C471.031 59.1345 461.186 66.5372 467.749 77.2299C474.313 87.9227 475.133 83.8101 474.313 87.9227L473.492 92.0353L478.415 87.1002L475.133 93.6803C475.133 93.6803 485.798 93.6803 489.08 85.4551L490.721 87.1002C490.721 87.1002 497.284 75.5849 484.978 64.8921C484.978 64.8921 480.876 62.4245 486.619 54.1993C492.362 45.9741 487.951 28.2899 480.567 24.9999C473.184 21.7098 454.212 24.9999 454.212 24.9999Z" fill="#2F2E41"/>
<path d="M463.261 19.8966C467.478 19.8966 470.896 16.4694 470.896 12.2418C470.896 8.0141 467.478 4.58691 463.261 4.58691C459.044 4.58691 455.625 8.0141 455.625 12.2418C455.625 16.4694 459.044 19.8966 463.261 19.8966Z" fill="#2F2E41"/>
<path d="M454.099 8.15924C454.099 6.26164 454.802 4.43173 456.072 3.02447C457.341 1.6172 459.087 0.732881 460.97 0.543051C460.719 0.518038 460.465 0.504395 460.207 0.504395C458.182 0.504395 456.24 1.31088 454.808 2.74645C453.376 4.18201 452.572 6.12905 452.572 8.15924C452.572 10.1894 453.376 12.1365 454.808 13.572C456.24 15.0076 458.182 15.8141 460.207 15.8141C460.465 15.8141 460.719 15.8004 460.97 15.7754C459.087 15.5856 457.341 14.7013 456.072 13.294C454.802 11.8867 454.099 10.0568 454.099 8.15924V8.15924Z" fill="#2F2E41"/>
<path d="M363.063 28.7837C360.942 28.7837 358.842 29.2025 356.882 30.0162C354.923 30.83 353.142 32.0226 351.642 33.5262C350.143 35.0298 348.953 36.8148 348.141 38.7793C347.33 40.7438 346.912 42.8493 346.912 44.9757C346.912 53.9182 363.063 83.4315 363.063 83.4315C363.063 83.4315 379.213 53.9182 379.213 44.9757C379.213 42.8493 378.795 40.7438 377.984 38.7793C377.172 36.8148 375.982 35.0298 374.483 33.5262C372.983 32.0226 371.203 30.83 369.243 30.0162C367.284 29.2025 365.183 28.7837 363.063 28.7837V28.7837ZM363.063 53.4764C361.386 53.4764 359.746 52.9779 358.352 52.0438C356.958 51.1097 355.871 49.7821 355.229 48.2288C354.587 46.6755 354.419 44.9662 354.747 43.3172C355.074 41.6683 355.881 40.1536 357.067 38.9647C358.253 37.7759 359.764 36.9662 361.408 36.6382C363.053 36.3102 364.758 36.4786 366.307 37.122C367.857 37.7654 369.181 38.855 370.113 40.2529C371.044 41.6508 371.542 43.2944 371.542 44.9757C371.542 47.2302 370.648 49.3924 369.058 50.9866C367.468 52.5808 365.311 53.4764 363.063 53.4764V53.4764Z" fill="#EF293D"/>
<path d="M232.868 330.06C237.694 330.06 241.607 326.138 241.607 321.299C241.607 316.46 237.694 312.538 232.868 312.538C228.041 312.538 224.129 316.46 224.129 321.299C224.129 326.138 228.041 330.06 232.868 330.06Z" fill="#F1F1F1"/>
<path d="M287.238 293.001C292.065 293.001 295.977 289.078 295.977 284.239C295.977 279.401 292.065 275.478 287.238 275.478C282.412 275.478 278.5 279.401 278.5 284.239C278.5 289.078 282.412 293.001 287.238 293.001Z" fill="#F1F1F1"/>
<path d="M220 258.493C224.827 258.493 228.739 254.57 228.739 249.732C228.739 244.893 224.827 240.97 220 240.97C215.174 240.97 211.261 244.893 211.261 249.732C211.261 254.57 215.174 258.493 220 258.493Z" fill="#F1F1F1"/>
</g>
<defs>
<clipPath id="clip0_1924_69729">
<rect width="550" height="345" fill="white"/>
</clipPath>
</defs>
</svg>
