<svg width="537" height="322" viewBox="0 0 537 322" fill="none" xmlns="http://www.w3.org/2000/svg">
<g clip-path="url(#clip0_1924_69476)">
<path d="M147.285 321.578L133.338 282.549C133.338 282.549 148.68 290.215 149.377 299.973C149.377 299.973 145.89 251.187 138.917 240.733C138.917 240.733 150.075 242.127 162.627 296.488C162.627 296.488 164.719 233.763 145.89 215.643C145.89 215.643 171.693 236.551 173.785 281.852V321.578H147.285Z" fill="#F2F2F2"/>
<path d="M408.852 321.577L405.498 312.193C405.498 312.193 409.187 314.037 409.355 316.383C409.355 316.383 408.516 304.653 406.84 302.139C406.84 302.139 409.523 302.474 412.541 315.545C412.541 315.545 413.044 300.463 408.516 296.106C408.516 296.106 414.72 301.134 415.223 312.026V321.577L408.852 321.577Z" fill="#F2F2F2"/>
<path d="M346.724 240.866C380.586 240.866 408.035 213.433 408.035 179.593C408.035 145.753 380.586 118.32 346.724 118.32C312.863 118.32 285.413 145.753 285.413 179.593C285.413 213.433 312.863 240.866 346.724 240.866Z" fill="#F2F2F2"/>
<path d="M144.609 4.64844H0V84.9371H144.609V4.64844Z" fill="#DDE1EA"/>
<path d="M340.805 4.64844H196.195V84.9371H340.805V4.64844Z" fill="#DDE1EA"/>
<path d="M537 4.64844H392.39V84.9371H537V4.64844Z" fill="#DDE1EA"/>
<path d="M371.734 321.798C371.636 321.64 369.349 317.822 368.555 309.893C367.828 302.62 368.296 290.359 374.658 273.257C386.711 240.858 371.88 214.717 371.729 214.456L372.46 214.032C372.499 214.098 376.326 220.763 378.586 231.376C381.574 245.447 380.486 260.077 375.451 273.552C363.418 305.895 372.364 321.207 372.455 321.358L371.734 321.798Z" fill="#282828"/>
<path d="M367.02 212.554C370.056 212.554 372.517 210.094 372.517 207.06C372.517 204.026 370.056 201.567 367.02 201.567C363.984 201.567 361.523 204.026 361.523 207.06C361.523 210.094 363.984 212.554 367.02 212.554Z" fill="#EF293D"/>
<path d="M384.357 232.837C387.393 232.837 389.854 230.378 389.854 227.344C389.854 224.31 387.393 221.851 384.357 221.851C381.321 221.851 378.86 224.31 378.86 227.344C378.86 230.378 381.321 232.837 384.357 232.837Z" fill="#282828"/>
<path d="M372.517 246.359C375.553 246.359 378.014 243.9 378.014 240.866C378.014 237.832 375.553 235.373 372.517 235.373C369.482 235.373 367.021 237.832 367.021 240.866C367.021 243.9 369.482 246.359 372.517 246.359Z" fill="#EF293D"/>
<path d="M386.894 257.769C389.929 257.769 392.39 255.31 392.39 252.276C392.39 249.242 389.929 246.782 386.894 246.782C383.858 246.782 381.397 249.242 381.397 252.276C381.397 255.31 383.858 257.769 386.894 257.769Z" fill="#EF293D"/>
<path d="M368.289 275.517C371.325 275.517 373.786 273.058 373.786 270.024C373.786 266.99 371.325 264.53 368.289 264.53C365.253 264.53 362.792 266.99 362.792 270.024C362.792 273.058 365.253 275.517 368.289 275.517Z" fill="#282828"/>
<path d="M375.055 322C375.055 322 369.558 308.478 386.048 298.336L375.055 322Z" fill="#282828"/>
<path d="M368.294 321.755C368.294 321.755 365.792 307.375 346.43 307.498L368.294 321.755Z" fill="#282828"/>
<path d="M144.398 0H0.211517V7.18372H144.398V0Z" fill="#282828"/>
<path d="M341.016 0H196.407V7.18372H341.016V0Z" fill="#282828"/>
<path d="M536.789 0H392.602V7.18372H536.789V0Z" fill="#282828"/>
<path d="M37.2095 18.3818H10.9937V36.975H37.2095V18.3818Z" fill="#DDE1EA"/>
<path d="M133.616 18.3818H61.3109V20.4947H133.616V18.3818Z" fill="white"/>
<path d="M133.616 26.8335H61.3109V28.9464H133.616V26.8335Z" fill="white"/>
<path d="M133.616 35.2847H61.3109V37.3975H133.616V35.2847Z" fill="white"/>
<path d="M233.405 18.3818H207.189V36.975H233.405V18.3818Z" fill="white"/>
<path d="M329.811 18.3818H257.506V20.4947H329.811V18.3818Z" fill="white"/>
<path d="M329.811 26.8335H257.506V28.9464H329.811V26.8335Z" fill="white"/>
<path d="M329.811 35.2847H257.506V37.3975H329.811V35.2847Z" fill="white"/>
<path d="M429.6 18.3818H403.384V36.975H429.6V18.3818Z" fill="#DDE1EA"/>
<path d="M526.006 18.3818H453.702V20.4947H526.006V18.3818Z" fill="white"/>
<path d="M526.006 26.8335H453.702V28.9464H526.006V26.8335Z" fill="white"/>
<path d="M526.006 35.2847H453.702V37.3975H526.006V35.2847Z" fill="white"/>
<path d="M24.1015 36.3414C28.772 36.3414 32.5582 32.5575 32.5582 27.8899C32.5582 23.2223 28.772 19.4385 24.1015 19.4385C19.431 19.4385 15.6448 23.2223 15.6448 27.8899C15.6448 32.5575 19.431 36.3414 24.1015 36.3414Z" fill="#EF293D"/>
<path d="M416.492 36.3414C421.163 36.3414 424.949 32.5575 424.949 27.8899C424.949 23.2223 421.163 19.4385 416.492 19.4385C411.822 19.4385 408.036 23.2223 408.036 27.8899C408.036 32.5575 411.822 36.3414 416.492 36.3414Z" fill="#EF293D"/>
<path d="M67.557 84.937H66.7114V87.4724H67.557V84.937Z" fill="#282828"/>
<path d="M67.557 188.89H66.7114V183.819H67.557V188.89ZM67.557 178.748H66.7114V173.677H67.557V178.748ZM67.557 168.606H66.7114V163.536H67.557V168.606ZM67.557 158.465H66.7114V153.394H67.557V158.465ZM67.557 148.323H66.7114V143.252H67.557V148.323ZM67.557 138.181H66.7114V133.11H67.557V138.181ZM67.557 128.04H66.7114V122.969H67.557V128.04ZM67.557 117.898H66.7114V112.827H67.557V117.898ZM67.557 107.756H66.7114V102.685H67.557V107.756ZM67.557 97.6143H66.7114V92.5435H67.557V97.6143Z" fill="#282828"/>
<path d="M69.6711 196.919H66.7112V193.961H67.5568V196.073H69.6711V196.919Z" fill="#282828"/>
<path d="M457.061 196.919H451.964V196.074H457.061V196.919ZM446.867 196.919H441.77V196.074H446.867V196.919ZM436.672 196.919H431.575V196.074H436.672V196.919ZM426.478 196.919H421.381V196.074H426.478V196.919ZM416.283 196.919H411.186V196.074H416.283V196.919ZM406.089 196.919H400.992V196.074H406.089V196.919ZM395.894 196.919H390.797V196.074H395.894V196.919ZM385.7 196.919H380.603V196.074H385.7V196.919ZM375.505 196.919H370.408V196.074H375.505V196.919ZM365.311 196.919H360.214V196.074H365.311L365.311 196.919ZM355.117 196.919H350.019V196.074H355.117V196.919ZM344.922 196.919H339.825V196.074H344.922V196.919ZM334.728 196.919H329.63V196.074H334.728V196.919ZM324.533 196.919H319.436V196.074H324.533V196.919ZM314.339 196.919H309.241V196.074H314.339V196.919ZM304.144 196.919H299.047V196.074H304.144V196.919ZM293.95 196.919H288.852V196.074H293.95V196.919ZM283.755 196.919H278.658V196.074H283.755V196.919ZM273.561 196.919H268.463V196.074H273.561V196.919ZM263.366 196.919H258.269V196.074H263.366V196.919ZM253.172 196.919H248.074V196.074H253.172V196.919ZM242.977 196.919H237.88V196.074H242.977V196.919ZM232.783 196.919H227.685V196.074H232.783V196.919ZM222.588 196.919H217.491V196.074H222.588V196.919ZM212.394 196.919H207.296V196.074H212.394V196.919ZM202.199 196.919H197.102V196.074H202.199V196.919ZM192.005 196.919H186.907V196.074H192.005V196.919ZM181.81 196.919H176.713V196.074H181.81V196.919ZM171.616 196.919H166.518V196.074H171.616V196.919ZM161.421 196.919H156.324V196.074H161.421V196.919ZM151.227 196.919H146.129V196.074H151.227V196.919ZM141.032 196.919H135.935V196.074H141.032V196.919ZM130.838 196.919H125.741V196.074H130.838V196.919ZM120.643 196.919H115.546V196.074H120.643V196.919ZM110.449 196.919H105.352V196.074H110.449V196.919ZM100.254 196.919H95.1573V196.074H100.254V196.919ZM90.0599 196.919H84.9628V196.074H90.0599V196.919ZM79.8654 196.919H74.7683V196.074H79.8654L79.8654 196.919Z" fill="#282828"/>
<path d="M465.118 196.919H462.159V196.073H464.272V193.961H465.118V196.919Z" fill="#282828"/>
<path d="M465.118 188.89H464.272V183.819H465.118V188.89ZM465.118 178.748H464.272V173.677H465.118V178.748ZM465.118 168.606H464.272V163.536H465.118V168.606ZM465.118 158.465H464.272V153.394H465.118V158.465ZM465.118 148.323H464.272V143.252H465.118V148.323ZM465.118 138.181H464.272V133.11H465.118V138.181ZM465.118 128.04H464.272V122.969H465.118V128.04ZM465.118 117.898H464.272V112.827H465.118V117.898ZM465.118 107.756H464.272V102.685H465.118V107.756ZM465.118 97.6143H464.272V92.5435H465.118V97.6143Z" fill="#282828"/>
<path d="M465.118 84.937H464.272V87.4724H465.118V84.937Z" fill="#282828"/>
<path d="M340.805 171.142H196.195V321.577H340.805V171.142Z" fill="#282828"/>
<path d="M233.405 190.792H207.189V209.385H233.405V190.792Z" fill="white"/>
<path d="M329.811 190.792H257.506V192.904H329.811V190.792Z" fill="white"/>
<path d="M329.811 199.243H257.506V201.356H329.811V199.243Z" fill="white"/>
<path d="M329.811 207.694H257.506V209.807H329.811V207.694Z" fill="white"/>
<path d="M233.405 257.769H207.189V276.362H233.405V257.769Z" fill="white"/>
<path d="M329.811 257.769H257.506V259.882H329.811V257.769Z" fill="white"/>
<path d="M329.811 266.22H257.506V268.333H329.811V266.22Z" fill="white"/>
<path d="M329.811 274.672H257.506V276.785H329.811V274.672Z" fill="white"/>
<path d="M220.408 204.791L211.434 192.833L213.56 191.24L220.87 200.981L239.503 185.899L241.186 187.955L220.408 204.791Z" fill="#EF293D"/>
<path d="M220.408 271.134L211.434 259.177L213.56 257.584L220.87 267.325L239.503 252.243L241.186 254.298L220.408 271.134Z" fill="#EF293D"/>
<path d="M526.006 321.155H3.80545V322H526.006V321.155Z" fill="#282828"/>
<path d="M286.702 89.5853C286.702 89.5853 300.655 83.509 307.209 89.9277C313.763 96.3465 289.662 94.2336 286.702 89.5853Z" fill="#282828"/>
<path d="M310.796 60.7679C306.107 52.8496 296.83 52.4806 296.83 52.4806C296.83 52.4806 287.79 51.3252 281.991 63.3849C276.585 74.6256 269.125 85.4787 280.79 88.11L282.897 81.5565L284.201 88.5979C285.862 88.7173 287.528 88.7458 289.192 88.6832C301.684 88.2801 313.58 88.8011 313.197 84.3214C312.687 78.3663 315.308 68.3869 310.796 60.7679Z" fill="#2F2E41"/>
<path d="M317.357 204.313C317.357 204.313 311.438 215.3 307.632 215.3C303.827 215.3 304.25 222.484 305.095 224.174C305.941 225.865 308.055 229.668 304.672 235.161C303.491 237.08 303.702 239.257 304.478 241.277C306.65 246.937 315.101 245.223 314.831 239.166C314.828 239.099 314.825 239.032 314.821 238.964C314.398 232.203 317.78 221.639 321.163 219.104C324.546 216.568 327.506 209.807 327.506 209.807L317.357 204.313Z" fill="#FFB8B8"/>
<path d="M276.766 201.778C276.766 201.778 282.685 212.765 286.491 212.765C290.296 212.765 289.874 219.949 289.028 221.639C288.182 223.329 286.068 227.133 289.451 232.626C290.632 234.545 290.421 236.722 289.646 238.742C287.473 244.402 279.022 242.687 279.292 236.631C279.295 236.564 279.298 236.497 279.303 236.429C279.726 229.668 276.343 219.104 272.96 216.568C269.577 214.033 266.618 207.272 266.618 207.272L276.766 201.778Z" fill="#FFB8B8"/>
<path d="M281.417 147.689L278.88 153.182C278.88 153.182 241.67 165.437 245.053 179.804C248.436 194.172 264.926 216.568 267.463 215.723C270 214.878 283.531 212.342 283.954 205.159C284.376 197.975 274.228 185.298 274.228 185.298L288.182 172.621L308.487 172.198L325.814 185.298C325.814 185.298 307.632 201.355 315.666 207.694C323.7 214.033 335.539 218.258 337.231 215.723C338.922 213.187 357.95 175.579 354.99 172.198C352.03 168.817 322.009 156.14 322.009 156.14L313.975 144.731L282.685 143.041L281.417 147.689Z" fill="#2F2E41"/>
<path d="M289.028 77.9647C289.028 77.9647 291.142 91.9096 286.914 93.5999C282.685 95.2902 295.37 102.474 295.37 102.474H302.559L307.21 92.7548C307.21 92.7548 302.981 85.1485 305.518 77.9647C308.055 70.781 289.028 77.9647 289.028 77.9647Z" fill="#FFB8B8"/>
<path opacity="0.1" d="M289.028 77.9647C289.028 77.9647 291.142 91.9096 286.914 93.5999C282.685 95.2902 295.37 102.474 295.37 102.474H302.559L307.21 92.7548C307.21 92.7548 302.981 85.1485 305.518 77.9647C308.055 70.781 289.028 77.9647 289.028 77.9647Z" fill="black"/>
<path d="M286.068 89.7964C286.068 89.7964 290.719 94.8673 291.565 95.7124C292.41 96.5576 296.216 101.206 304.25 94.4447C312.284 87.6835 313.129 95.7124 313.129 95.7124V146.421C313.129 146.421 306.364 143.463 300.867 146.421C295.37 149.379 283.954 145.576 283.954 145.576L281.839 93.177L286.068 89.7964Z" fill="white"/>
<path d="M289.174 89.7966C289.174 89.7966 285.222 88.1064 281.839 89.7966C278.457 91.4869 266.617 99.9384 267.463 103.742C268.309 107.545 279.302 134.167 271.691 146.844C264.08 159.521 262.812 162.902 262.812 162.902L281.416 153.182C281.416 153.182 295.793 144.308 294.524 138.815C293.256 133.322 289.174 89.7966 289.174 89.7966Z" fill="#EF293D"/>
<path d="M305.946 89.7964C305.946 89.7964 314.821 90.6415 315.244 91.4867C315.666 92.3318 328.563 95.9237 327.717 99.7268C326.872 103.53 315.244 137.547 320.318 143.886C325.392 150.224 333.848 159.098 330.889 159.943C327.929 160.789 322.855 158.676 317.781 159.943C312.707 161.211 300.867 150.647 302.136 139.237C303.404 127.828 302.146 92.7544 305.946 89.7964Z" fill="#EF293D"/>
<path d="M284.8 170.508V174.734C284.8 174.734 282.685 184.453 289.451 184.03C296.216 183.608 291.988 172.198 291.988 172.198L291.565 168.395L284.8 170.508Z" fill="#FFB8B8"/>
<path d="M303.827 170.931C303.827 170.931 299.176 180.65 303.827 181.495C308.478 182.34 311.861 176.001 311.861 174.311C311.861 172.621 303.827 170.931 303.827 170.931Z" fill="#FFB8B8"/>
<path d="M309.958 73.9499C310.425 73.9499 310.804 73.1931 310.804 72.2596C310.804 71.3261 310.425 70.5693 309.958 70.5693C309.491 70.5693 309.112 71.3261 309.112 72.2596C309.112 73.1931 309.491 73.9499 309.958 73.9499Z" fill="#FFB8B8"/>
<path d="M285.011 73.9499C285.478 73.9499 285.857 73.1931 285.857 72.2596C285.857 71.3261 285.478 70.5693 285.011 70.5693C284.544 70.5693 284.165 71.3261 284.165 72.2596C284.165 73.1931 284.544 73.9499 285.011 73.9499Z" fill="#FFB8B8"/>
<path d="M317.358 95.29C317.358 95.29 327.929 95.29 327.506 99.5158C327.083 103.741 313.129 176.424 313.129 176.424C313.129 176.424 307.21 170.93 302.136 172.198L317.358 95.29Z" fill="#EF293D"/>
<path d="M276.343 96.5576C276.343 96.5576 265.772 98.6705 265.772 105.009C265.772 111.348 280.994 172.198 283.108 172.198C285.222 172.198 293.256 170.93 293.256 168.817C293.256 166.705 276.343 96.5576 276.343 96.5576Z" fill="#EF293D"/>
<path opacity="0.2" d="M278.668 109.023L288.182 146.206C288.182 146.206 283.742 113.672 278.668 109.023Z" fill="black"/>
<path opacity="0.2" d="M315.673 103.799L306.051 152.413C306.051 152.413 309.127 106.603 315.673 103.799Z" fill="black"/>
<path d="M297.485 84.726C304.257 84.726 309.747 79.2394 309.747 72.4714C309.747 65.7034 304.257 60.2168 297.485 60.2168C290.712 60.2168 285.222 65.7034 285.222 72.4714C285.222 79.2394 290.712 84.726 297.485 84.726Z" fill="#FFB8B8"/>
<path d="M308.723 60.0044L299.558 55.2065L286.901 57.1691L284.282 68.7279L290.801 68.4775L292.622 64.231V68.4075L295.63 68.2917L297.376 61.5308L298.467 68.7279L309.16 68.5101L308.723 60.0044Z" fill="#2F2E41"/>
</g>
<defs>
<clipPath id="clip0_1924_69476">
<rect width="537" height="322" fill="white"/>
</clipPath>
</defs>
</svg>
