<svg width="471" height="410" viewBox="0 0 471 410" fill="none" xmlns="http://www.w3.org/2000/svg">
<g clip-path="url(#clip0_1924_69645)">
<path d="M424.672 213.371C424.733 264.104 405.112 312.885 369.932 349.46C367.811 351.679 365.633 353.845 363.398 355.957C359.992 359.195 356.472 362.307 352.837 365.294C318.837 393.289 276.392 409.02 232.349 409.95C230.881 409.983 229.408 410 227.929 410C192.804 410 148.624 391.25 108.532 365.294C105.215 363.146 101.927 360.949 98.6691 358.702C97.1463 357.662 95.6308 356.607 94.1227 355.537C78.6595 344.624 63.9818 332.641 50.1979 319.674C41.1731 311.209 32.7102 302.166 24.863 292.6C-5.94302 254.624 -12.7377 220.405 31.1815 213.371C36.3814 212.54 41.4281 211.653 46.3215 210.709C53.4098 209.347 60.1934 207.877 66.6725 206.298C75.3998 204.178 83.5993 201.879 91.2708 199.402C93.8514 198.572 96.3729 197.725 98.8353 196.862C135.24 184.083 159.606 167.419 176.191 149.338C179.004 146.278 181.598 143.18 183.971 140.046C187.603 135.275 190.902 130.261 193.845 125.037C197.907 117.779 201.318 110.177 204.04 102.319L204.189 101.887C217.386 63.8439 213.371 28.5569 227.929 16.7467C290.162 -33.7431 367.639 38.159 404.005 122.951C405.838 127.223 407.562 131.521 409.177 135.846C409.903 137.777 410.603 139.712 411.276 141.651C413.048 146.704 414.656 151.77 416.1 156.848C416.653 158.785 417.181 160.721 417.683 162.654C418.221 164.74 418.736 166.821 419.212 168.902C422.75 184.138 424.672 199.164 424.672 213.371Z" fill="#F2F2F2"/>
<path d="M232.349 409.95C230.881 409.983 229.408 410 227.93 410C192.804 410 148.625 391.25 108.532 365.294C105.215 363.146 101.927 360.949 98.6692 358.702L101.527 341.324L188.031 329.846L231.446 363.025L232.349 409.95Z" fill="#2F2E41"/>
<path d="M236.513 99.6455H224.186C223.804 99.6457 223.438 99.7973 223.168 100.067C222.898 100.337 222.746 100.703 222.746 101.084V113.409C222.746 113.598 222.784 113.785 222.856 113.959C222.929 114.133 223.035 114.291 223.169 114.424C223.302 114.558 223.461 114.663 223.635 114.735C223.81 114.807 223.997 114.843 224.186 114.843H236.513C236.894 114.843 237.259 114.692 237.529 114.423C237.799 114.155 237.951 113.79 237.952 113.409V101.084C237.951 100.703 237.799 100.338 237.53 100.068C237.26 99.7985 236.894 99.6466 236.513 99.6455V99.6455Z" fill="white"/>
<path d="M236.513 120.648H224.186C223.804 120.649 223.438 120.8 223.168 121.07C222.898 121.34 222.746 121.706 222.746 122.087V134.412C222.746 134.601 222.784 134.788 222.856 134.962C222.929 135.136 223.035 135.294 223.169 135.427C223.302 135.561 223.461 135.666 223.635 135.738C223.81 135.81 223.997 135.846 224.186 135.846H236.513C236.894 135.846 237.259 135.695 237.529 135.426C237.799 135.158 237.951 134.793 237.952 134.412V122.087C237.951 121.706 237.799 121.341 237.53 121.071C237.26 120.801 236.894 120.65 236.513 120.648Z" fill="#E6E6E6"/>
<path d="M236.513 141.651H224.186C223.804 141.651 223.438 141.803 223.168 142.073C222.898 142.342 222.746 142.708 222.746 143.09V155.409C222.746 155.598 222.783 155.786 222.855 155.96C222.927 156.135 223.033 156.294 223.167 156.428C223.301 156.561 223.46 156.667 223.634 156.739C223.809 156.812 223.997 156.849 224.186 156.848H236.513C236.894 156.848 237.261 156.696 237.531 156.427C237.801 156.157 237.952 155.791 237.952 155.409V143.09C237.951 142.709 237.799 142.343 237.53 142.074C237.26 141.804 236.894 141.652 236.513 141.651V141.651Z" fill="#E6E6E6"/>
<path d="M237.93 163.838C237.869 163.507 237.694 163.207 237.435 162.991C237.176 162.775 236.85 162.656 236.513 162.654H224.186C223.804 162.654 223.438 162.806 223.168 163.076C222.898 163.345 222.746 163.711 222.746 164.093V176.412C222.746 176.601 222.783 176.789 222.855 176.963C222.927 177.138 223.033 177.297 223.167 177.431C223.301 177.564 223.46 177.67 223.634 177.742C223.809 177.815 223.997 177.852 224.186 177.851H236.513C236.894 177.851 237.261 177.699 237.531 177.43C237.801 177.16 237.952 176.794 237.952 176.412V164.093C237.954 164.007 237.946 163.922 237.93 163.838V163.838Z" fill="#E6E6E6"/>
<path d="M237.072 183.767C236.895 183.694 236.705 183.657 236.513 183.657H224.186C223.997 183.656 223.809 183.693 223.635 183.766C223.46 183.838 223.301 183.944 223.167 184.077C223.033 184.211 222.927 184.37 222.855 184.545C222.783 184.719 222.746 184.907 222.746 185.096V197.415C222.745 197.604 222.782 197.792 222.854 197.967C222.926 198.142 223.032 198.301 223.166 198.434C223.3 198.568 223.459 198.674 223.634 198.746C223.809 198.818 223.997 198.855 224.186 198.854H236.513C236.895 198.854 237.261 198.702 237.531 198.432C237.801 198.163 237.953 197.797 237.953 197.415V185.096C237.952 184.812 237.868 184.536 237.712 184.3C237.555 184.064 237.333 183.879 237.072 183.767Z" fill="#E6E6E6"/>
<path d="M262.407 99.6455H250.08C249.698 99.6457 249.332 99.7973 249.062 100.067C248.792 100.337 248.641 100.703 248.64 101.084V113.409C248.641 113.598 248.678 113.785 248.75 113.959C248.823 114.133 248.929 114.291 249.063 114.424C249.197 114.558 249.355 114.663 249.53 114.735C249.704 114.807 249.891 114.843 250.08 114.843H262.407C262.788 114.843 263.153 114.692 263.423 114.423C263.693 114.155 263.845 113.79 263.847 113.409V101.084C263.846 100.703 263.694 100.338 263.424 100.068C263.154 99.7985 262.788 99.6466 262.407 99.6455V99.6455Z" fill="#E6E6E6"/>
<path d="M262.407 120.648H250.08C249.698 120.649 249.332 120.8 249.062 121.07C248.792 121.34 248.641 121.706 248.64 122.087V134.412C248.641 134.601 248.678 134.788 248.75 134.962C248.823 135.136 248.929 135.294 249.063 135.427C249.197 135.561 249.355 135.666 249.53 135.738C249.704 135.81 249.891 135.846 250.08 135.846H262.407C262.788 135.846 263.153 135.695 263.423 135.426C263.693 135.158 263.845 134.793 263.847 134.412V122.087C263.846 121.706 263.694 121.341 263.424 121.071C263.154 120.801 262.788 120.65 262.407 120.648Z" fill="#EF293D"/>
<path d="M262.407 141.651H250.08C249.698 141.651 249.332 141.803 249.062 142.073C248.792 142.342 248.641 142.708 248.64 143.09V155.409C248.64 155.598 248.677 155.786 248.749 155.96C248.821 156.135 248.927 156.294 249.061 156.428C249.195 156.561 249.354 156.667 249.529 156.739C249.704 156.812 249.891 156.849 250.08 156.848H262.407C262.789 156.848 263.155 156.696 263.425 156.427C263.695 156.157 263.847 155.791 263.847 155.409V143.09C263.846 142.709 263.694 142.343 263.424 142.074C263.154 141.804 262.788 141.652 262.407 141.651V141.651Z" fill="#EF293D"/>
<path d="M262.407 162.654H250.08C249.778 162.654 249.484 162.749 249.24 162.926C248.995 163.103 248.812 163.352 248.718 163.639C248.667 163.785 248.64 163.938 248.64 164.093V176.412C248.64 176.601 248.677 176.789 248.749 176.963C248.821 177.138 248.927 177.297 249.061 177.431C249.195 177.564 249.354 177.67 249.529 177.742C249.704 177.815 249.891 177.852 250.08 177.851H262.407C262.789 177.851 263.155 177.699 263.425 177.43C263.695 177.16 263.847 176.794 263.847 176.412V164.093C263.846 163.711 263.694 163.346 263.424 163.077C263.154 162.807 262.788 162.655 262.407 162.654V162.654Z" fill="#EF293D"/>
<path d="M262.407 183.657H250.08C249.891 183.656 249.704 183.693 249.529 183.766C249.354 183.838 249.195 183.944 249.061 184.077C248.927 184.211 248.821 184.37 248.749 184.545C248.677 184.719 248.64 184.907 248.64 185.096V197.415C248.64 197.604 248.677 197.791 248.749 197.966C248.821 198.141 248.927 198.3 249.061 198.433C249.195 198.567 249.354 198.673 249.529 198.745C249.704 198.817 249.891 198.854 250.08 198.854H262.407C262.789 198.854 263.155 198.702 263.425 198.432C263.695 198.163 263.847 197.797 263.847 197.415V185.096C263.847 184.714 263.695 184.348 263.425 184.078C263.155 183.809 262.789 183.657 262.407 183.657V183.657Z" fill="#E6E6E6"/>
<path d="M288.301 99.6455H275.974C275.593 99.6457 275.227 99.7973 274.957 100.067C274.687 100.337 274.535 100.703 274.535 101.084V113.409C274.535 113.598 274.572 113.785 274.645 113.959C274.717 114.133 274.823 114.291 274.957 114.424C275.091 114.558 275.25 114.663 275.424 114.735C275.599 114.807 275.786 114.843 275.974 114.843H288.301C288.682 114.843 289.048 114.692 289.318 114.423C289.587 114.155 289.74 113.79 289.741 113.409V101.084C289.74 100.703 289.588 100.338 289.318 100.068C289.048 99.7985 288.683 99.6466 288.301 99.6455V99.6455Z" fill="#EF293D"/>
<path d="M288.301 120.648H275.974C275.593 120.649 275.226 120.8 274.957 121.07C274.687 121.34 274.535 121.706 274.535 122.087V134.412C274.535 134.601 274.572 134.788 274.645 134.962C274.717 135.136 274.823 135.294 274.957 135.427C275.091 135.561 275.25 135.666 275.424 135.738C275.599 135.81 275.786 135.846 275.974 135.846H288.301C288.682 135.846 289.048 135.695 289.318 135.426C289.587 135.158 289.74 134.793 289.741 134.412V122.087C289.74 121.706 289.588 121.341 289.318 121.071C289.048 120.801 288.683 120.65 288.301 120.648Z" fill="#EF293D"/>
<path d="M288.301 141.651H275.974C275.593 141.651 275.226 141.803 274.957 142.073C274.687 142.342 274.535 142.708 274.535 143.09V155.409C274.534 155.598 274.571 155.786 274.644 155.96C274.716 156.135 274.822 156.294 274.956 156.428C275.089 156.561 275.248 156.667 275.423 156.739C275.598 156.812 275.785 156.849 275.974 156.848H288.301C288.683 156.848 289.049 156.696 289.319 156.427C289.589 156.157 289.741 155.791 289.741 155.409V143.09C289.74 142.709 289.588 142.343 289.318 142.074C289.048 141.804 288.683 141.652 288.301 141.651V141.651Z" fill="#E6E6E6"/>
<path d="M288.301 162.654H275.974C275.593 162.654 275.227 162.806 274.957 163.076C274.687 163.345 274.535 163.711 274.535 164.093V176.412C274.534 176.601 274.571 176.789 274.643 176.963C274.716 177.138 274.822 177.297 274.956 177.431C275.089 177.564 275.248 177.67 275.423 177.742C275.598 177.815 275.785 177.852 275.974 177.851H288.301C288.683 177.851 289.049 177.699 289.319 177.43C289.589 177.16 289.741 176.794 289.741 176.412V164.093C289.74 163.711 289.588 163.346 289.318 163.077C289.048 162.807 288.683 162.655 288.301 162.654V162.654Z" fill="#EF293D"/>
<path d="M288.301 183.657H275.974C275.785 183.656 275.598 183.693 275.423 183.766C275.248 183.838 275.089 183.944 274.956 184.077C274.822 184.211 274.716 184.37 274.644 184.545C274.571 184.719 274.534 184.907 274.535 185.096V197.415C274.534 197.604 274.571 197.791 274.643 197.966C274.716 198.141 274.822 198.3 274.956 198.433C275.089 198.567 275.248 198.673 275.423 198.745C275.598 198.817 275.785 198.854 275.974 198.854H288.301C288.683 198.854 289.049 198.702 289.319 198.432C289.589 198.163 289.741 197.797 289.741 197.415V185.096C289.741 184.714 289.589 184.348 289.319 184.078C289.049 183.809 288.683 183.657 288.301 183.657V183.657Z" fill="#EF293D"/>
<path d="M314.195 99.6455H301.868C301.487 99.6457 301.121 99.7973 300.851 100.067C300.581 100.337 300.429 100.703 300.429 101.084V113.409C300.429 113.598 300.466 113.785 300.539 113.959C300.611 114.133 300.717 114.291 300.851 114.424C300.985 114.558 301.144 114.663 301.318 114.735C301.493 114.807 301.68 114.843 301.868 114.843H314.195C314.576 114.843 314.942 114.692 315.212 114.423C315.482 114.155 315.634 113.79 315.635 113.409V101.084C315.634 100.703 315.482 100.338 315.212 100.068C314.942 99.7985 314.577 99.6466 314.195 99.6455V99.6455Z" fill="#EF293D"/>
<path d="M314.195 120.648H301.868C301.487 120.649 301.121 120.8 300.851 121.07C300.581 121.34 300.429 121.706 300.429 122.087V134.412C300.429 134.601 300.466 134.788 300.539 134.962C300.611 135.136 300.717 135.294 300.851 135.427C300.985 135.561 301.144 135.666 301.318 135.738C301.493 135.81 301.68 135.846 301.868 135.846H314.195C314.576 135.846 314.942 135.695 315.212 135.426C315.482 135.158 315.634 134.793 315.635 134.412V122.087C315.634 121.706 315.482 121.341 315.212 121.071C314.942 120.801 314.577 120.65 314.195 120.648V120.648Z" fill="white"/>
<path d="M314.195 141.651H301.868C301.487 141.651 301.121 141.803 300.851 142.073C300.581 142.342 300.429 142.708 300.429 143.09V155.409C300.428 155.598 300.465 155.786 300.538 155.96C300.61 156.135 300.716 156.294 300.85 156.428C300.983 156.561 301.142 156.667 301.317 156.739C301.492 156.812 301.679 156.849 301.868 156.848H314.195C314.577 156.848 314.943 156.696 315.213 156.427C315.483 156.157 315.635 155.791 315.635 155.409V143.09C315.634 142.709 315.482 142.343 315.212 142.074C314.942 141.804 314.577 141.652 314.195 141.651V141.651Z" fill="white"/>
<path d="M314.195 162.654H301.868C301.487 162.654 301.121 162.806 300.851 163.076C300.581 163.345 300.429 163.711 300.429 164.093V176.412C300.428 176.601 300.465 176.789 300.538 176.963C300.61 177.138 300.716 177.297 300.85 177.431C300.983 177.564 301.142 177.67 301.317 177.742C301.492 177.815 301.679 177.852 301.868 177.851H314.195C314.577 177.851 314.943 177.699 315.213 177.43C315.483 177.16 315.635 176.794 315.635 176.412V164.093C315.634 163.711 315.482 163.346 315.212 163.077C314.942 162.807 314.577 162.655 314.195 162.654V162.654Z" fill="#E6E6E6"/>
<path d="M314.195 183.657H301.868C301.679 183.656 301.492 183.693 301.317 183.766C301.142 183.838 300.983 183.944 300.85 184.077C300.716 184.211 300.61 184.37 300.538 184.545C300.465 184.719 300.428 184.907 300.429 185.096V197.415C300.428 197.604 300.465 197.791 300.538 197.966C300.61 198.141 300.716 198.3 300.85 198.433C300.983 198.567 301.142 198.673 301.317 198.745C301.492 198.817 301.679 198.854 301.868 198.854H314.195C314.577 198.854 314.943 198.702 315.213 198.432C315.483 198.163 315.635 197.797 315.635 197.415V185.096C315.635 184.714 315.483 184.348 315.213 184.078C314.943 183.809 314.577 183.657 314.195 183.657V183.657Z" fill="#EF293D"/>
<path d="M340.089 99.6455H327.757C327.376 99.6468 327.011 99.799 326.742 100.069C326.473 100.338 326.322 100.704 326.323 101.084V113.409C326.323 113.789 326.474 114.154 326.743 114.423C327.012 114.692 327.376 114.843 327.757 114.843H340.089C340.47 114.843 340.836 114.692 341.106 114.423C341.375 114.155 341.528 113.79 341.529 113.409V101.084C341.528 100.703 341.376 100.338 341.106 100.068C340.836 99.7985 340.471 99.6466 340.089 99.6455Z" fill="white"/>
<path d="M340.089 120.648H327.757C327.376 120.65 327.011 120.802 326.742 121.072C326.473 121.341 326.322 121.707 326.323 122.087V134.412C326.323 134.792 326.474 135.157 326.743 135.426C327.012 135.695 327.376 135.846 327.757 135.846H340.089C340.47 135.846 340.836 135.695 341.106 135.426C341.375 135.158 341.528 134.793 341.529 134.412V122.087C341.528 121.706 341.376 121.341 341.106 121.071C340.836 120.801 340.471 120.65 340.089 120.648V120.648Z" fill="white"/>
<path d="M340.089 141.651H327.757C327.376 141.652 327.011 141.804 326.742 142.074C326.473 142.344 326.322 142.709 326.323 143.09V155.409C326.322 155.598 326.359 155.785 326.431 155.959C326.502 156.134 326.608 156.292 326.741 156.426C326.874 156.56 327.033 156.666 327.207 156.738C327.381 156.811 327.568 156.848 327.757 156.848H340.089C340.471 156.848 340.837 156.696 341.107 156.427C341.377 156.157 341.529 155.791 341.529 155.409V143.09C341.528 142.709 341.376 142.343 341.106 142.074C340.836 141.804 340.471 141.652 340.089 141.651V141.651Z" fill="white"/>
<path d="M340.089 162.654H327.757C327.376 162.655 327.011 162.807 326.742 163.077C326.473 163.347 326.322 163.712 326.323 164.093V176.412C326.322 176.601 326.359 176.788 326.431 176.962C326.502 177.137 326.608 177.295 326.741 177.429C326.874 177.563 327.033 177.669 327.207 177.741C327.381 177.814 327.568 177.851 327.757 177.851H340.089C340.471 177.851 340.837 177.699 341.107 177.43C341.377 177.16 341.529 176.794 341.529 176.412V164.093C341.528 163.711 341.376 163.346 341.106 163.077C340.836 162.807 340.471 162.655 340.089 162.654V162.654Z" fill="#EF293D"/>
<path d="M340.089 183.657H327.757C327.568 183.657 327.381 183.694 327.207 183.767C327.033 183.839 326.874 183.945 326.741 184.079C326.608 184.213 326.502 184.371 326.431 184.546C326.359 184.72 326.322 184.907 326.323 185.096V197.415C326.322 197.604 326.359 197.791 326.431 197.965C326.502 198.14 326.608 198.298 326.741 198.432C326.874 198.565 327.033 198.672 327.207 198.744C327.381 198.816 327.568 198.854 327.757 198.854H340.089C340.471 198.854 340.837 198.702 341.107 198.432C341.377 198.163 341.529 197.797 341.529 197.415V185.096C341.529 184.714 341.377 184.348 341.107 184.078C340.837 183.809 340.471 183.657 340.089 183.657V183.657Z" fill="#E6E6E6"/>
<path d="M365.983 99.6455H353.651C353.27 99.6468 352.905 99.799 352.636 100.069C352.368 100.338 352.217 100.704 352.217 101.084V113.409C352.217 113.789 352.368 114.154 352.637 114.423C352.906 114.692 353.271 114.843 353.651 114.843H365.983C366.364 114.843 366.73 114.692 367 114.423C367.27 114.155 367.422 113.79 367.423 113.409V101.084C367.422 100.703 367.27 100.338 367 100.068C366.731 99.7986 366.365 99.6466 365.983 99.6455V99.6455Z" fill="white"/>
<path d="M365.983 120.648H353.651C353.27 120.65 352.905 120.802 352.636 121.072C352.368 121.341 352.217 121.707 352.217 122.087V134.412C352.217 134.792 352.368 135.157 352.637 135.426C352.906 135.695 353.271 135.846 353.651 135.846H365.983C366.364 135.846 366.73 135.695 367 135.426C367.27 135.158 367.422 134.793 367.423 134.412V122.087C367.422 121.706 367.27 121.341 367 121.071C366.731 120.802 366.365 120.65 365.983 120.648V120.648Z" fill="white"/>
<path d="M365.983 141.651H353.651C353.27 141.652 352.905 141.804 352.636 142.074C352.368 142.344 352.217 142.709 352.217 143.09V155.409C352.216 155.598 352.253 155.785 352.325 155.959C352.397 156.134 352.502 156.292 352.635 156.426C352.769 156.56 352.927 156.666 353.101 156.738C353.275 156.811 353.462 156.848 353.651 156.848H365.983C366.365 156.848 366.731 156.696 367.001 156.427C367.271 156.157 367.423 155.791 367.423 155.409V143.09C367.422 142.709 367.27 142.343 367 142.074C366.73 141.804 366.365 141.652 365.983 141.651V141.651Z" fill="#EF293D"/>
<path d="M365.983 162.654H353.651C353.27 162.655 352.905 162.807 352.636 163.077C352.368 163.347 352.217 163.712 352.217 164.093V176.412C352.216 176.601 352.253 176.788 352.325 176.962C352.397 177.137 352.502 177.295 352.635 177.429C352.769 177.563 352.927 177.669 353.101 177.741C353.275 177.814 353.462 177.851 353.651 177.851H365.983C366.365 177.851 366.731 177.699 367.001 177.43C367.271 177.16 367.423 176.794 367.423 176.412V164.093C367.422 163.711 367.27 163.346 367 163.077C366.73 162.807 366.365 162.655 365.983 162.654V162.654Z" fill="#E6E6E6"/>
<path d="M365.983 183.657H353.651C353.462 183.657 353.275 183.694 353.101 183.767C352.927 183.839 352.769 183.945 352.635 184.079C352.502 184.213 352.397 184.371 352.325 184.546C352.253 184.72 352.216 184.907 352.217 185.096V197.415C352.216 197.604 352.253 197.791 352.325 197.965C352.397 198.14 352.502 198.298 352.635 198.432C352.769 198.565 352.927 198.672 353.101 198.744C353.275 198.816 353.462 198.854 353.651 198.854H365.983C366.365 198.854 366.731 198.702 367.001 198.432C367.271 198.163 367.423 197.797 367.423 197.415V185.096C367.423 184.714 367.271 184.348 367.001 184.078C366.731 183.809 366.365 183.657 365.983 183.657Z" fill="white"/>
<path d="M391.878 99.6455H379.545C379.164 99.6468 378.8 99.799 378.531 100.069C378.262 100.338 378.111 100.704 378.111 101.084V113.409C378.111 113.789 378.262 114.154 378.531 114.423C378.8 114.692 379.165 114.843 379.545 114.843H391.878C392.259 114.843 392.624 114.692 392.894 114.423C393.164 114.155 393.316 113.79 393.318 113.409V101.084C393.316 100.703 393.164 100.338 392.895 100.068C392.625 99.7986 392.259 99.6466 391.878 99.6455V99.6455Z" fill="#EF293D"/>
<path d="M391.878 120.648H379.545C379.164 120.65 378.8 120.802 378.531 121.072C378.262 121.341 378.111 121.707 378.111 122.087V134.412C378.111 134.792 378.262 135.157 378.531 135.426C378.8 135.695 379.165 135.846 379.545 135.846H391.878C392.259 135.846 392.624 135.695 392.894 135.426C393.164 135.158 393.316 134.793 393.318 134.412V122.087C393.316 121.706 393.164 121.341 392.895 121.071C392.625 120.802 392.259 120.65 391.878 120.648Z" fill="#EF293D"/>
<path d="M391.878 141.651H379.545C379.164 141.652 378.8 141.804 378.531 142.074C378.262 142.344 378.111 142.709 378.111 143.09V155.409C378.111 155.598 378.147 155.785 378.219 155.959C378.291 156.134 378.396 156.292 378.53 156.426C378.663 156.56 378.821 156.666 378.995 156.738C379.17 156.811 379.357 156.848 379.545 156.848H391.878C392.26 156.848 392.626 156.696 392.896 156.427C393.166 156.157 393.317 155.791 393.318 155.409V143.09C393.316 142.709 393.164 142.343 392.895 142.074C392.625 141.804 392.259 141.652 391.878 141.651V141.651Z" fill="#E6E6E6"/>
<path d="M391.878 162.654H379.545C379.164 162.655 378.8 162.807 378.531 163.077C378.262 163.347 378.111 163.712 378.111 164.093V176.412C378.111 176.601 378.147 176.788 378.219 176.962C378.291 177.137 378.396 177.295 378.53 177.429C378.663 177.563 378.821 177.669 378.995 177.741C379.17 177.814 379.357 177.851 379.545 177.851H391.878C392.26 177.851 392.626 177.699 392.896 177.43C393.166 177.16 393.317 176.794 393.318 176.412V164.093C393.316 163.711 393.164 163.346 392.895 163.077C392.625 162.807 392.259 162.655 391.878 162.654V162.654Z" fill="white"/>
<path d="M391.878 183.657H379.545C379.357 183.657 379.17 183.694 378.995 183.767C378.821 183.839 378.663 183.945 378.53 184.079C378.396 184.213 378.291 184.371 378.219 184.546C378.147 184.72 378.111 184.907 378.111 185.096V197.415C378.111 197.604 378.147 197.791 378.219 197.965C378.291 198.14 378.396 198.298 378.53 198.432C378.663 198.565 378.821 198.672 378.995 198.744C379.17 198.816 379.357 198.854 379.545 198.854H391.878C392.26 198.854 392.626 198.702 392.896 198.432C393.166 198.163 393.317 197.797 393.318 197.415V185.096C393.317 184.714 393.166 184.348 392.896 184.078C392.626 183.809 392.26 183.657 391.878 183.657Z" fill="#EF293D"/>
<path d="M417.772 99.6455H405.44C405.059 99.6468 404.694 99.799 404.425 100.069C404.156 100.338 404.005 100.704 404.005 101.084V113.409C404.005 113.789 404.157 114.154 404.426 114.423C404.694 114.692 405.059 114.843 405.44 114.843H417.772C418.153 114.843 418.518 114.692 418.788 114.423C419.058 114.155 419.21 113.79 419.212 113.409V101.084C419.211 100.703 419.059 100.338 418.789 100.068C418.519 99.7986 418.154 99.6466 417.772 99.6455Z" fill="#EF293D"/>
<path d="M417.772 120.648H405.44C405.059 120.65 404.694 120.802 404.425 121.072C404.156 121.341 404.005 121.707 404.005 122.087V134.412C404.005 134.792 404.157 135.157 404.426 135.426C404.694 135.695 405.059 135.846 405.44 135.846H417.772C418.153 135.846 418.518 135.695 418.788 135.426C419.058 135.158 419.21 134.793 419.212 134.412V122.087C419.211 121.706 419.059 121.341 418.789 121.071C418.519 120.802 418.154 120.65 417.772 120.648V120.648Z" fill="#EF293D"/>
<path d="M417.772 141.651H405.44C405.059 141.652 404.694 141.804 404.425 142.074C404.156 142.344 404.005 142.709 404.005 143.09V155.409C404.005 155.598 404.042 155.785 404.113 155.959C404.185 156.134 404.291 156.292 404.424 156.426C404.557 156.56 404.715 156.666 404.89 156.738C405.064 156.811 405.251 156.848 405.44 156.848H417.772C418.154 156.848 418.52 156.696 418.79 156.427C419.06 156.157 419.212 155.791 419.212 155.409V143.09C419.211 142.709 419.059 142.343 418.789 142.074C418.519 141.804 418.154 141.652 417.772 141.651Z" fill="#E6E6E6"/>
<path d="M417.772 162.654H405.44C405.059 162.655 404.694 162.807 404.425 163.077C404.156 163.347 404.005 163.712 404.005 164.093V176.412C404.005 176.601 404.042 176.788 404.113 176.962C404.185 177.137 404.291 177.295 404.424 177.429C404.557 177.563 404.715 177.669 404.89 177.741C405.064 177.814 405.251 177.851 405.44 177.851H417.772C418.154 177.851 418.52 177.699 418.79 177.43C419.06 177.16 419.212 176.794 419.212 176.412V164.093C419.211 163.712 419.059 163.346 418.789 163.077C418.519 162.807 418.154 162.655 417.772 162.654V162.654Z" fill="#EF293D"/>
<path d="M417.772 183.657H405.44C405.251 183.657 405.064 183.694 404.89 183.767C404.715 183.839 404.557 183.945 404.424 184.079C404.291 184.213 404.185 184.371 404.113 184.546C404.042 184.72 404.005 184.907 404.005 185.096V197.415C404.005 197.604 404.042 197.791 404.113 197.965C404.185 198.14 404.291 198.298 404.424 198.432C404.557 198.565 404.715 198.672 404.89 198.744C405.064 198.816 405.251 198.854 405.44 198.854H417.772C418.154 198.854 418.52 198.702 418.79 198.432C419.06 198.163 419.212 197.797 419.212 197.415V185.096C419.212 184.714 419.06 184.348 418.79 184.078C418.52 183.809 418.154 183.657 417.772 183.657V183.657Z" fill="#EF293D"/>
<path d="M443.666 99.6455H431.333C430.952 99.6468 430.588 99.799 430.319 100.069C430.05 100.338 429.899 100.704 429.899 101.084V113.409C429.899 113.789 430.05 114.154 430.319 114.423C430.588 114.692 430.953 114.843 431.333 114.843H443.666C444.047 114.843 444.412 114.692 444.682 114.423C444.952 114.155 445.104 113.79 445.106 113.409V101.084C445.104 100.703 444.952 100.338 444.683 100.068C444.413 99.7986 444.047 99.6466 443.666 99.6455V99.6455Z" fill="#E6E6E6"/>
<path d="M443.666 120.648H431.333C430.952 120.65 430.588 120.802 430.319 121.072C430.05 121.341 429.899 121.707 429.899 122.087V134.412C429.899 134.792 430.05 135.157 430.319 135.426C430.588 135.695 430.953 135.846 431.333 135.846H443.666C444.047 135.846 444.412 135.695 444.682 135.426C444.952 135.158 445.104 134.793 445.106 134.412V122.087C445.104 121.706 444.952 121.341 444.683 121.071C444.413 120.802 444.047 120.65 443.666 120.648V120.648Z" fill="#EF293D"/>
<path d="M443.666 141.651H431.333C430.952 141.652 430.588 141.804 430.319 142.074C430.05 142.344 429.899 142.709 429.899 143.09V155.409C429.899 155.598 429.935 155.785 430.007 155.959C430.079 156.134 430.185 156.292 430.318 156.426C430.451 156.56 430.609 156.666 430.784 156.738C430.958 156.811 431.145 156.848 431.333 156.848H443.666C444.048 156.848 444.414 156.696 444.684 156.427C444.954 156.157 445.105 155.791 445.106 155.409V143.09C445.104 142.709 444.952 142.343 444.683 142.074C444.413 141.804 444.047 141.652 443.666 141.651V141.651Z" fill="#EF293D"/>
<path d="M443.666 162.654H431.333C430.952 162.655 430.588 162.807 430.319 163.077C430.05 163.347 429.899 163.712 429.899 164.093V176.412C429.899 176.601 429.935 176.788 430.007 176.962C430.079 177.137 430.185 177.295 430.318 177.429C430.451 177.563 430.609 177.669 430.783 177.741C430.958 177.814 431.145 177.851 431.333 177.851H443.666C444.048 177.851 444.414 177.699 444.684 177.43C444.954 177.16 445.105 176.794 445.106 176.412V164.093C445.104 163.712 444.952 163.346 444.683 163.077C444.413 162.807 444.047 162.655 443.666 162.654V162.654Z" fill="#EF293D"/>
<path d="M443.666 183.657H431.333C431.145 183.657 430.958 183.694 430.783 183.767C430.609 183.839 430.451 183.945 430.318 184.079C430.185 184.213 430.079 184.371 430.007 184.546C429.935 184.72 429.899 184.907 429.899 185.096V197.415C429.899 197.604 429.935 197.791 430.007 197.965C430.079 198.14 430.185 198.298 430.318 198.432C430.451 198.565 430.609 198.672 430.783 198.744C430.958 198.816 431.145 198.854 431.333 198.854H443.666C444.048 198.854 444.414 198.702 444.684 198.432C444.954 198.163 445.105 197.797 445.106 197.415V185.096C445.105 184.714 444.954 184.348 444.684 184.078C444.414 183.809 444.048 183.657 443.666 183.657V183.657Z" fill="#E6E6E6"/>
<path d="M469.56 99.6455H457.228C456.847 99.6468 456.482 99.799 456.213 100.069C455.944 100.338 455.793 100.704 455.793 101.084V113.409C455.794 113.789 455.945 114.154 456.214 114.423C456.483 114.692 456.847 114.843 457.228 114.843H469.56C469.941 114.843 470.307 114.692 470.577 114.423C470.846 114.155 470.999 113.79 471 113.409V101.084C470.999 100.703 470.847 100.338 470.577 100.068C470.307 99.7986 469.942 99.6466 469.56 99.6455V99.6455Z" fill="#E6E6E6"/>
<path d="M469.56 120.648H457.228C456.847 120.65 456.482 120.802 456.213 121.072C455.944 121.341 455.793 121.707 455.793 122.087V134.412C455.794 134.792 455.945 135.157 456.214 135.426C456.483 135.695 456.847 135.846 457.228 135.846H469.56C469.941 135.846 470.307 135.695 470.577 135.426C470.846 135.158 470.999 134.793 471 134.412V122.087C470.999 121.706 470.847 121.341 470.577 121.071C470.307 120.802 469.942 120.65 469.56 120.648V120.648Z" fill="#E6E6E6"/>
<path d="M469.56 141.651H457.228C456.847 141.652 456.482 141.804 456.213 142.074C455.944 142.344 455.793 142.709 455.793 143.09V155.409C455.793 155.598 455.83 155.785 455.901 155.959C455.973 156.134 456.079 156.292 456.212 156.426C456.345 156.56 456.504 156.666 456.678 156.738C456.852 156.811 457.039 156.848 457.228 156.848H469.56C469.942 156.848 470.308 156.696 470.578 156.427C470.848 156.157 471 155.791 471 155.409V143.09C470.999 142.709 470.847 142.343 470.577 142.074C470.307 141.804 469.942 141.652 469.56 141.651V141.651Z" fill="#EF293D"/>
<path d="M469.56 162.654H457.228C456.847 162.655 456.482 162.807 456.213 163.077C455.944 163.347 455.793 163.712 455.793 164.093V176.412C455.793 176.601 455.83 176.788 455.901 176.962C455.973 177.137 456.079 177.295 456.212 177.429C456.345 177.563 456.504 177.669 456.678 177.741C456.852 177.814 457.039 177.851 457.228 177.851H469.56C469.942 177.851 470.308 177.699 470.578 177.43C470.848 177.16 471 176.794 471 176.412V164.093C470.999 163.712 470.847 163.346 470.577 163.077C470.307 162.807 469.942 162.655 469.56 162.654V162.654Z" fill="#E6E6E6"/>
<path d="M469.56 183.657H457.228C457.039 183.657 456.852 183.694 456.678 183.767C456.504 183.839 456.345 183.945 456.212 184.079C456.079 184.213 455.973 184.371 455.901 184.546C455.83 184.72 455.793 184.907 455.793 185.096V197.415C455.793 197.604 455.83 197.791 455.901 197.965C455.973 198.14 456.079 198.298 456.212 198.432C456.345 198.565 456.504 198.672 456.678 198.744C456.852 198.816 457.039 198.854 457.228 198.854H469.56C469.942 198.854 470.308 198.702 470.578 198.432C470.848 198.163 471 197.797 471 197.415V185.096C471 184.714 470.848 184.348 470.578 184.078C470.308 183.809 469.942 183.657 469.56 183.657V183.657Z" fill="#E6E6E6"/>
<path d="M186.119 365.295H185.775L186.069 365.256L186.119 365.295Z" fill="#2F2E41"/>
<path d="M156.613 135.621C177.509 135.621 194.448 118.692 194.448 97.8097C194.448 76.9269 177.509 59.998 156.613 59.998C135.718 59.998 118.779 76.9269 118.779 97.8097C118.779 118.692 135.718 135.621 156.613 135.621Z" fill="#FFB6B6"/>
<path d="M189.746 70.0871C189.746 70.0871 199.641 51.1813 177.871 49.4625C177.871 49.4625 159.312 32.6369 140.394 46.3865C140.394 46.3865 130.076 46.3865 124.433 58.0561C124.433 58.0561 116.318 54.9801 114.535 63.2122C114.535 63.2122 108.596 80.3993 114.535 95.8677C120.473 111.336 122.445 113.055 122.445 113.055C122.445 113.055 112.687 80.6245 136.439 78.9057C160.19 77.187 186.769 62.3529 188.748 81.2586C190.728 100.164 193.706 104.823 193.706 104.823C193.706 104.823 212.507 77.8213 189.746 70.0871Z" fill="#2F2E41"/>
<path d="M254.483 190.995L254.361 191.637L252.993 198.854L243.54 248.774L242.981 251.713L241.807 257.928L240.201 266.406L236.64 285.195L235.621 290.58L235.239 292.6L235.106 293.309L234.049 298.882L233.727 300.564L231.147 319.674L228.893 336.327L236.435 343.865L231.939 348.359L228.987 365.255L228.993 365.294H108.532C103.659 362.139 98.8556 358.887 94.1228 355.537L95.114 348.121C95.114 348.121 98.5252 334.877 97.0909 333.294C95.6623 331.711 92.5279 328.883 92.5279 328.883L96.4763 319.674L97.0245 318.396L96.1053 299.341L96.0832 298.882L95.7786 292.6L95.7398 291.792L95.6789 290.58L94.5104 266.406L94.4883 266.008L94.1339 258.68L93.8016 251.713L93.6576 248.774L92.2345 219.37L91.2709 199.402L90.4292 182.019L93.8127 180.873L130.001 168.581L144.992 149.106L176.191 149.338L191.464 149.455L216.948 173.075L222.746 175.842L222.791 175.864L226.949 177.851L237.493 182.882L248.64 188.206L254.361 190.935L254.483 190.995Z" fill="#CACACA"/>
<path d="M149.024 308.567C146.738 309.453 144.285 309.826 141.839 309.661C139.392 309.497 137.012 308.798 134.865 307.615C132.718 306.431 130.857 304.792 129.413 302.811C127.968 300.831 126.976 298.559 126.506 296.154L67.4968 287.787L88.0099 264.597L140.901 276.098C144.996 275.576 149.14 276.573 152.548 278.9C155.956 281.228 158.392 284.724 159.393 288.727C160.394 292.729 159.892 296.959 157.981 300.616C156.07 304.273 152.883 307.102 149.024 308.567V308.567Z" fill="#FFB6B6"/>
<path d="M122.714 266.406C121.621 265.021 120.073 264.067 118.344 263.711L94.1338 258.68L91.6474 258.166C90.2024 257.864 88.8373 257.261 87.6416 256.396C86.4459 255.531 85.4464 254.424 84.7086 253.146C83.9433 251.805 83.4802 250.313 83.3519 248.774C83.2365 247.375 83.4041 245.967 83.8447 244.634L92.2343 219.37L97.6778 202.977C98.3375 201 98.7269 198.943 98.8352 196.862C99.1385 191.102 97.3554 185.426 93.8125 180.873C90.6978 176.871 86.3776 173.977 81.4904 172.618C76.6031 171.258 71.4079 171.506 66.6724 173.324C66.5339 173.374 66.39 173.429 66.2515 173.485C62.8554 174.84 59.8212 176.966 57.3887 179.695C54.9562 182.424 53.1921 185.68 52.2357 189.208L46.3214 210.709L34.1219 255.033C32.9007 259.474 32.654 264.126 33.3987 268.671C34.1434 273.216 35.8618 277.547 38.4365 281.367C41.0112 285.187 44.3813 288.405 48.3161 290.803C52.2509 293.2 56.6575 294.719 61.2344 295.257L96.1051 299.341L112.242 301.234C114.108 301.458 115.99 300.971 117.513 299.871C119.036 298.77 120.088 297.137 120.46 295.296C120.486 295.195 120.506 295.094 120.521 294.991L120.908 292.6L124.192 272.466L124.225 272.262C124.397 271.234 124.35 270.182 124.09 269.174C123.83 268.165 123.361 267.223 122.714 266.406Z" fill="#CACACA"/>
<path d="M186.61 309.213C188.998 309.767 191.479 309.791 193.878 309.283C196.277 308.775 198.535 307.748 200.493 306.274C202.452 304.8 204.063 302.914 205.213 300.75C206.364 298.587 207.025 296.197 207.152 293.75L264.39 277.15L240.81 257.083L190.07 275.923C185.943 275.983 181.981 277.554 178.935 280.339C175.889 283.124 173.971 286.928 173.545 291.032C173.118 295.135 174.213 299.252 176.621 302.603C179.029 305.954 182.583 308.306 186.61 309.213V309.213Z" fill="#FFB6B6"/>
<path d="M292.809 240.019L265.585 177.403C263.359 172.262 259.382 168.076 254.361 165.587C252.808 164.824 251.178 164.23 249.499 163.816C249.238 163.75 248.978 163.689 248.718 163.639C245.156 162.862 241.461 162.931 237.93 163.838C234.703 164.667 231.686 166.166 229.078 168.239C226.469 170.311 224.327 172.909 222.79 175.865C222.773 175.889 222.759 175.915 222.746 175.942C221.03 179.26 220.117 182.934 220.082 186.668C220.046 190.403 220.889 194.093 222.541 197.443L222.879 198.118L242.117 236.731C242.774 238.052 243.144 239.496 243.203 240.969C243.262 242.443 243.009 243.912 242.46 245.281C241.911 246.649 241.078 247.886 240.017 248.911C238.956 249.936 237.69 250.724 236.302 251.226L234.951 251.713L210.652 260.484C208.828 261.135 207.329 262.467 206.468 264.2C205.608 265.933 205.454 267.932 206.039 269.777L206.1 269.97L212.911 291.753C212.944 291.853 212.977 291.953 213.016 292.052C213.076 292.24 213.15 292.423 213.238 292.6C213.962 294.223 215.241 295.534 216.846 296.298C218.451 297.062 220.276 297.228 221.993 296.768L235.106 293.309L237.781 292.6L271.644 283.662C276.099 282.486 280.248 280.361 283.805 277.433C287.363 274.505 290.245 270.843 292.255 266.698C294.265 262.554 295.355 258.024 295.451 253.419C295.546 248.814 294.645 244.243 292.809 240.018L292.809 240.019Z" fill="#CACACA"/>
<path d="M24.8628 292.6C32.7099 302.166 41.1728 311.209 50.1976 319.674H300.484C302.895 319.678 305.207 320.637 306.911 322.342C308.616 324.046 309.574 326.357 309.577 328.767L309.937 392.152C325.334 385.082 339.753 376.055 352.837 365.294C356.47 362.311 359.99 359.198 363.397 355.957C365.629 353.843 367.807 351.677 369.932 349.46C385.86 332.876 398.759 313.632 408.042 292.6H24.8628Z" fill="#3F3D56"/>
<path d="M369.932 349.46C367.811 351.679 365.633 353.845 363.398 355.957H310.12V349.46H369.932Z" fill="white"/>
<path d="M253.984 141.651C253.721 141.166 253.331 140.76 252.857 140.478C252.382 140.195 251.84 140.046 251.287 140.046H69.7402C68.9263 140.049 68.1464 140.373 67.5713 140.949C66.9963 141.524 66.673 142.304 66.6724 143.118V251.713H254.361V143.118C254.363 142.605 254.234 142.1 253.984 141.651V141.651Z" fill="#3F3D56"/>
<path d="M66.5078 248.772V262.173C66.5078 262.729 66.6173 263.279 66.83 263.792C67.0427 264.305 67.3545 264.772 67.7476 265.165C68.1406 265.557 68.6073 265.869 69.1209 266.082C69.6344 266.294 70.1848 266.404 70.7407 266.404H140.015V292.85H139.095C139.023 292.85 138.951 292.865 138.884 292.892C138.818 292.92 138.757 292.96 138.706 293.011C138.655 293.062 138.614 293.123 138.587 293.19C138.559 293.256 138.545 293.328 138.545 293.4V295.239C138.545 295.311 138.559 295.383 138.587 295.45C138.614 295.516 138.655 295.577 138.706 295.628C138.757 295.679 138.818 295.719 138.884 295.747C138.951 295.775 139.023 295.789 139.095 295.789H182.1C182.172 295.789 182.243 295.775 182.31 295.747C182.377 295.719 182.437 295.679 182.488 295.628C182.539 295.577 182.58 295.516 182.608 295.45C182.635 295.383 182.649 295.311 182.649 295.239V293.4C182.649 293.328 182.635 293.256 182.608 293.19C182.58 293.123 182.539 293.062 182.488 293.011C182.437 292.96 182.377 292.92 182.31 292.892C182.243 292.865 182.172 292.85 182.1 292.85H181.179V266.404H250.454C251.01 266.404 251.56 266.294 252.074 266.082C252.587 265.869 253.054 265.557 253.447 265.165C253.84 264.772 254.152 264.305 254.364 263.792C254.577 263.279 254.687 262.729 254.687 262.173V248.772H66.5078Z" fill="#3F3D56"/>
<path d="M158.324 210.31C167.898 210.31 175.66 202.553 175.66 192.984C175.66 183.415 167.898 175.658 158.324 175.658C148.749 175.658 140.987 183.415 140.987 192.984C140.987 202.553 148.749 210.31 158.324 210.31Z" fill="#EF293D"/>
<path d="M202.495 95.7438H199.726C199.726 74.824 179.01 61.1155 158.111 61.1044C155.071 61.0955 152.038 61.3903 149.056 61.9844C145.701 62.654 142.217 63.4565 138.795 64.5025C125.3 68.6366 112.785 76.6282 112.785 95.7438C112.782 99.4562 113.255 103.154 114.191 106.746L111.511 107.443C110.517 103.623 110.014 99.6914 110.016 95.7438C110.016 79.0412 116.877 67.5685 128.728 60.7281C134.958 57.1307 142.561 54.8119 151.272 53.6829C154.896 53.2009 158.561 53.0897 162.208 53.3508C186.242 55.0775 202.495 73.4958 202.495 95.7438Z" fill="#EF293D"/>
<path d="M207.108 97.277L206.017 89.219C205.748 87.184 204.767 85.3098 203.248 83.9281C202.273 83.0274 201.106 82.3601 199.835 81.9765C198.563 81.593 197.222 81.5034 195.911 81.7144L194.177 81.9524C193.703 82.0148 193.246 82.1707 192.832 82.411C192.419 82.6514 192.057 82.9714 191.769 83.3526C191.477 83.7324 191.264 84.1662 191.142 84.6288C191.019 85.0914 190.989 85.5737 191.054 86.0478L193.574 104.61C193.678 105.367 194.017 106.071 194.544 106.624C195.07 107.178 195.758 107.551 196.509 107.693C196.731 107.737 196.958 107.759 197.184 107.759C197.347 107.759 197.51 107.748 197.672 107.726L199.61 107.466C200.792 107.309 201.929 106.912 202.952 106.3C203.974 105.689 204.861 104.874 205.557 103.907C205.707 103.697 205.851 103.481 205.984 103.26C207.022 101.449 207.418 99.3408 207.108 97.277Z" fill="#EF293D"/>
<path d="M193.059 82.29C192.55 82.5369 192.108 82.9011 191.769 83.3526C191.477 83.7325 191.264 84.1662 191.142 84.6288C191.019 85.0914 190.989 85.5737 191.054 86.0479L193.574 104.61C193.678 105.367 194.017 106.071 194.544 106.625C195.07 107.178 195.758 107.551 196.509 107.693L193.059 82.29Z" fill="white"/>
<path d="M207.108 97.277L206.017 89.219C205.748 87.1841 204.767 85.3099 203.248 83.9282L205.756 102.396C205.794 102.693 205.87 102.983 205.983 103.26C207.021 101.449 207.417 99.3409 207.108 97.277V97.277Z" fill="#3F3D56"/>
<path d="M198.486 103.083C199.243 102.98 199.624 101.178 199.337 99.0577C199.049 96.9376 198.201 95.3021 197.444 95.4048C196.686 95.5075 196.305 97.3095 196.593 99.4297C196.881 101.55 197.728 103.185 198.486 103.083Z" fill="#3F3D56"/>
<path d="M196.824 93.1207C197.582 93.0179 197.963 91.2159 197.675 89.0958C197.387 86.9756 196.54 85.3402 195.782 85.4429C195.025 85.5456 194.644 87.3476 194.931 89.4678C195.219 91.5879 196.067 93.2234 196.824 93.1207Z" fill="#3F3D56"/>
<path d="M207.346 96.9947C208.104 96.892 208.484 95.09 208.197 92.9698C207.909 90.8497 207.061 89.2142 206.304 89.3169C205.546 89.4197 205.165 91.2217 205.453 93.3418C205.741 95.462 206.588 97.0974 207.346 96.9947Z" fill="#3F3D56"/>
<path d="M158.11 61.1044C155.071 61.0955 152.037 61.3903 149.056 61.9844C145.701 62.654 142.217 63.4565 138.795 64.5025C133.451 64.2424 129.519 62.8588 128.728 60.7281C134.957 57.1307 142.561 54.8119 151.271 53.6829C154.896 53.2009 158.561 53.0897 162.208 53.3508C162.594 53.577 162.928 53.8823 163.188 54.2467C163.447 54.6111 163.627 55.0263 163.715 55.4649C163.975 57.3909 161.776 59.4386 158.11 61.1044Z" fill="#3F3D56"/>
<path d="M122.758 114.948L118.494 97.2323C118.342 96.5932 118.004 96.0132 117.524 95.5652C117.043 95.1172 116.44 94.8211 115.792 94.7142C115.609 94.6857 115.423 94.6709 115.238 94.6699C114.977 94.6708 114.717 94.7024 114.463 94.764L112.812 95.1625C110.688 95.676 108.854 97.011 107.713 98.8745C106.572 100.738 106.217 102.978 106.727 105.102L108.637 113.049C109.073 114.92 110.112 116.597 111.594 117.82C111.834 118.014 112.086 118.193 112.347 118.357C113.276 118.938 114.311 119.328 115.392 119.503C116.474 119.678 117.579 119.634 118.644 119.375L120.288 118.977C120.723 118.875 121.132 118.685 121.49 118.418C122.022 118.03 122.426 117.493 122.652 116.876C122.878 116.258 122.915 115.587 122.758 114.948Z" fill="#EF293D"/>
<path d="M113.819 111.652C114.562 111.473 114.759 109.642 114.258 107.561C113.757 105.481 112.748 103.94 112.005 104.119C111.262 104.297 111.065 106.129 111.566 108.209C112.067 110.289 113.075 111.83 113.819 111.652Z" fill="#3F3D56"/>
<path d="M108.281 113.312C109.024 113.133 109.221 111.302 108.72 109.222C108.219 107.141 107.21 105.6 106.467 105.779C105.724 105.958 105.527 107.789 106.028 109.869C106.529 111.949 107.538 113.491 108.281 113.312Z" fill="#3F3D56"/>
<path d="M123.029 114.882L118.765 97.1663C118.599 96.4747 118.233 95.8475 117.712 95.3632C117.191 94.8789 116.538 94.5589 115.836 94.4434L121.656 118.639C122.231 118.219 122.668 117.637 122.912 116.969C123.157 116.3 123.198 115.574 123.029 114.882V114.882Z" fill="white"/>
<path d="M107.69 101.594C107.572 101.101 107.351 100.639 107.042 100.238C106.443 101.789 106.332 103.487 106.726 105.102L108.637 113.05C109.073 114.921 110.112 116.597 111.594 117.82L107.69 101.594Z" fill="#3F3D56"/>
</g>
<defs>
<clipPath id="clip0_1924_69645">
<rect width="471" height="410" fill="white"/>
</clipPath>
</defs>
</svg>
