<svg width="281" height="270" viewBox="0 0 281 270" fill="none" xmlns="http://www.w3.org/2000/svg">
<path d="M209.749 36.0571H114.255C112.461 36.0607 110.741 36.7752 109.471 38.0442C108.202 39.3133 107.488 41.0334 107.484 42.8281V137.418C107.486 139.213 108.2 140.934 109.47 142.204C110.739 143.473 112.46 144.187 114.255 144.189H209.749C211.545 144.187 213.266 143.473 214.535 142.204C215.804 140.934 216.518 139.213 216.52 137.418V42.8281C216.518 41.0329 215.804 39.3118 214.535 38.0424C213.266 36.773 211.545 36.059 209.749 36.0571ZM215.724 137.418C215.722 139.002 215.092 140.52 213.972 141.64C212.852 142.76 211.333 143.391 209.749 143.392H114.255C112.671 143.391 111.153 142.76 110.033 141.64C108.913 140.52 108.283 139.002 108.281 137.418V42.8281C108.283 41.2443 108.914 39.7261 110.034 38.6063C111.153 37.4864 112.672 36.8562 114.255 36.8537H209.749C211.333 36.8556 212.852 37.4857 213.972 38.6057C215.092 39.7257 215.722 41.2442 215.724 42.8281V137.418Z" fill="#3F3D56"/>
<path d="M202.231 72.8954H121.776C120.931 72.8954 120.121 72.5597 119.523 71.9621C118.926 71.3646 118.59 70.5541 118.59 69.709C118.59 68.864 118.926 68.0535 119.523 67.456C120.121 66.8584 120.931 66.5227 121.776 66.5227H202.231C203.076 66.5227 203.886 66.8584 204.484 67.456C205.081 68.0535 205.417 68.864 205.417 69.709C205.417 70.5541 205.081 71.3646 204.484 71.9621C203.886 72.5597 203.076 72.8954 202.231 72.8954Z" fill="#CCCCCC"/>
<path d="M179.33 59.3534H144.679C143.833 59.3534 143.023 59.0177 142.425 58.4201C141.828 57.8226 141.492 57.0121 141.492 56.167C141.492 55.322 141.828 54.5115 142.425 53.914C143.023 53.3164 143.833 52.9807 144.679 52.9807H179.33C180.175 52.9807 180.985 53.3164 181.583 53.914C182.18 54.5115 182.516 55.322 182.516 56.167C182.516 57.0121 182.18 57.8226 181.583 58.4201C180.985 59.0177 180.175 59.3534 179.33 59.3534Z" fill="#EF293D"/>
<path d="M156.228 92.0133H121.577C120.732 92.0133 119.921 91.6776 119.324 91.08C118.726 90.4825 118.391 89.672 118.391 88.8269C118.391 87.9819 118.726 87.1714 119.324 86.5739C119.921 85.9763 120.732 85.6406 121.577 85.6406H156.228C157.073 85.6406 157.884 85.9763 158.481 86.5739C159.079 87.1714 159.415 87.9819 159.415 88.8269C159.415 89.672 159.079 90.4825 158.481 91.08C157.884 91.6776 157.073 92.0133 156.228 92.0133Z" fill="#CCCCCC"/>
<path d="M156.228 105.953H121.577C120.732 105.953 119.921 105.618 119.324 105.02C118.726 104.422 118.391 103.612 118.391 102.767C118.391 101.922 118.726 101.111 119.324 100.514C119.921 99.9163 120.732 99.5806 121.577 99.5806H156.228C157.073 99.5806 157.884 99.9163 158.481 100.514C159.079 101.111 159.415 101.922 159.415 102.767C159.415 103.612 159.079 104.422 158.481 105.02C157.884 105.618 157.073 105.953 156.228 105.953Z" fill="#CCCCCC"/>
<path d="M156.228 119.894H121.577C120.732 119.894 119.921 119.558 119.324 118.96C118.726 118.363 118.391 117.552 118.391 116.707C118.391 115.862 118.726 115.052 119.324 114.454C119.921 113.857 120.732 113.521 121.577 113.521H156.228C157.073 113.521 157.884 113.857 158.481 114.454C159.079 115.052 159.415 115.862 159.415 116.707C159.415 117.552 159.079 118.363 158.481 118.96C157.884 119.558 157.073 119.894 156.228 119.894Z" fill="#CCCCCC"/>
<path d="M199.446 94.7448C202.73 94.7448 205.392 92.0826 205.392 88.7987C205.392 85.5147 202.73 82.8525 199.446 82.8525C196.162 82.8525 193.5 85.5147 193.5 88.7987C193.5 92.0826 196.162 94.7448 199.446 94.7448Z" fill="#EF293D"/>
<path d="M198.854 91.0672C198.72 91.0675 198.59 91.0242 198.483 90.9439L198.477 90.939L197.079 89.87C196.948 89.7698 196.863 89.6218 196.841 89.4585C196.82 89.2952 196.864 89.13 196.964 88.9993C197.064 88.8686 197.212 88.7831 197.376 88.7615C197.539 88.7399 197.704 88.7841 197.835 88.8843L198.74 89.5784L200.879 86.788C200.928 86.7233 200.99 86.669 201.061 86.6282C201.131 86.5874 201.209 86.5609 201.29 86.5503C201.371 86.5396 201.453 86.5449 201.532 86.566C201.611 86.5871 201.684 86.6234 201.749 86.673L201.749 86.6732L201.736 86.6916L201.75 86.6732C201.88 86.7735 201.966 86.9215 201.987 87.0847C202.009 87.2479 201.964 87.4129 201.864 87.5437L199.349 90.8243C199.29 90.8999 199.216 90.9611 199.13 91.0031C199.044 91.0451 198.95 91.0668 198.855 91.0665L198.854 91.0672Z" fill="white"/>
<path d="M199.446 108.685C202.73 108.685 205.392 106.023 205.392 102.739C205.392 99.4547 202.73 96.7925 199.446 96.7925C196.162 96.7925 193.5 99.4547 193.5 102.739C193.5 106.023 196.162 108.685 199.446 108.685Z" fill="#EF293D"/>
<path d="M198.854 105.007C198.72 105.007 198.59 104.964 198.483 104.884L198.477 104.879L197.079 103.81C197.014 103.76 196.96 103.698 196.919 103.628C196.878 103.557 196.852 103.479 196.841 103.398C196.831 103.318 196.836 103.235 196.857 103.157C196.878 103.078 196.914 103.004 196.964 102.939C197.014 102.875 197.076 102.82 197.146 102.779C197.217 102.739 197.295 102.712 197.376 102.701C197.456 102.691 197.539 102.696 197.617 102.717C197.696 102.738 197.77 102.775 197.835 102.824L198.74 103.518L200.879 100.728C200.928 100.663 200.99 100.609 201.061 100.568C201.131 100.527 201.209 100.501 201.29 100.49C201.371 100.48 201.453 100.485 201.532 100.506C201.611 100.527 201.684 100.563 201.749 100.613L201.749 100.613L201.736 100.632L201.75 100.613C201.88 100.713 201.966 100.861 201.987 101.025C202.009 101.188 201.964 101.353 201.864 101.484L199.349 104.764C199.29 104.84 199.216 104.901 199.13 104.943C199.044 104.985 198.95 105.007 198.855 105.006L198.854 105.007Z" fill="white"/>
<path d="M199.446 122.654C202.73 122.654 205.392 119.991 205.392 116.707C205.392 113.423 202.73 110.761 199.446 110.761C196.162 110.761 193.5 113.423 193.5 116.707C193.5 119.991 196.162 122.654 199.446 122.654Z" fill="#EF293D"/>
<path d="M198.854 118.975C198.72 118.976 198.59 118.932 198.483 118.852L198.476 118.847L197.079 117.778C196.948 117.678 196.863 117.53 196.841 117.367C196.82 117.204 196.864 117.039 196.964 116.908C197.064 116.777 197.212 116.692 197.375 116.67C197.538 116.649 197.703 116.693 197.834 116.793L198.739 117.487L200.878 114.696C200.928 114.632 200.99 114.577 201.06 114.536C201.131 114.496 201.209 114.469 201.29 114.458C201.37 114.448 201.453 114.453 201.531 114.474C201.61 114.495 201.684 114.532 201.749 114.581L201.749 114.581L201.735 114.6L201.749 114.581C201.88 114.682 201.965 114.83 201.987 114.993C202.008 115.156 201.964 115.321 201.864 115.452L199.348 118.733C199.29 118.808 199.215 118.869 199.129 118.911C199.044 118.953 198.95 118.975 198.854 118.975L198.854 118.975Z" fill="white"/>
<path d="M162.014 27.9414C155.741 27.8344 152.89 23.0751 152.891 18.6984C152.891 14.3217 155.742 9.56302 162.001 9.45703H162.014C168.274 9.5638 171.124 14.3231 171.124 18.6998C171.124 23.0765 168.273 27.8354 162.014 27.9414ZM162.007 10.2536C156.291 10.3536 153.687 14.7005 153.687 18.6984C153.687 22.6981 156.292 27.0472 162.014 27.1448C167.721 27.0479 170.327 22.6992 170.327 18.6998C170.328 14.7019 167.724 10.3549 162.007 10.2536Z" fill="#EF293D"/>
<path d="M161.127 22.0729C160.928 22.0733 160.734 22.0089 160.575 21.8895L160.565 21.8821L158.487 20.2922C158.292 20.1431 158.165 19.923 158.133 19.6801C158.101 19.4373 158.167 19.1916 158.316 18.9972C158.465 18.8028 158.685 18.6756 158.928 18.6435C159.171 18.6114 159.416 18.6771 159.611 18.8261L160.957 19.8585L164.138 15.7082C164.212 15.612 164.304 15.5312 164.409 15.4706C164.514 15.4099 164.63 15.3705 164.75 15.3546C164.87 15.3388 164.992 15.3467 165.109 15.378C165.227 15.4094 165.336 15.4635 165.433 15.5372L165.433 15.5374L165.413 15.5649L165.433 15.5374C165.627 15.6866 165.754 15.9067 165.787 16.1495C165.819 16.3922 165.753 16.6377 165.604 16.8321L161.862 21.7116C161.776 21.8241 161.664 21.915 161.537 21.9775C161.41 22.04 161.27 22.0722 161.128 22.0718L161.127 22.0729Z" fill="#CCCCCC"/>
<path d="M59.162 158.757C58.9202 158.223 58.7984 157.644 58.8049 157.058C58.8115 156.473 58.9464 155.896 59.2 155.368C59.4537 154.84 59.82 154.375 60.2731 154.004C60.7262 153.633 61.2551 153.366 61.8226 153.222L63.03 139.04L68.8367 143.621L66.7999 156.386C66.9792 157.355 66.7967 158.356 66.2869 159.2C65.7771 160.044 64.9756 160.671 64.0341 160.964C63.0926 161.256 62.0766 161.193 61.1787 160.786C60.2807 160.379 59.5631 159.657 59.162 158.757H59.162Z" fill="#FFB8B8"/>
<path d="M62.8986 151.733C62.4807 151.678 62.0957 151.477 61.8113 151.166C61.527 150.854 61.3614 150.453 61.3438 150.032L60.6716 133.938C60.4299 128.154 61.6072 122.398 64.1007 117.173L70.0623 104.681C70.4616 103.929 71.0345 103.284 71.7332 102.799C72.432 102.313 73.2364 102.001 74.0799 101.889C74.8986 101.774 75.733 101.858 76.5121 102.135C77.2912 102.411 77.9919 102.872 78.5546 103.478C78.84 103.783 79.0965 104.114 79.3205 104.466C79.7703 105.196 80.0307 106.026 80.0782 106.882C80.1256 107.738 79.9586 108.592 79.5922 109.367L70.4509 134.34L69.7476 150.609C69.7369 150.855 69.6754 151.097 69.567 151.319C69.4586 151.54 69.3057 151.737 69.1176 151.897C68.9296 152.057 68.7107 152.176 68.4744 152.247C68.2382 152.319 67.9898 152.34 67.7448 152.311L62.9223 151.736L62.8986 151.733Z" fill="#EF293D"/>
<path d="M45.793 222.05L50.2642 224.012L59.9618 207.7L53.3629 204.804L45.793 222.05Z" fill="#FFB8B8"/>
<path d="M45.2932 220.089L54.0985 223.954L54.0989 223.955C54.8358 224.278 55.5018 224.743 56.0588 225.324C56.6158 225.905 57.053 226.59 57.3453 227.34C57.6376 228.09 57.7794 228.89 57.7625 229.694C57.7457 230.499 57.5705 231.292 57.247 232.029L57.1669 232.212L42.75 225.883L45.2932 220.089Z" fill="#2F2E41"/>
<path d="M105.821 227.478H110.704L113.027 208.644L105.82 208.644L105.821 227.478Z" fill="#FFB8B8"/>
<path d="M104.574 225.884L114.19 225.884H114.191C114.996 225.884 115.793 226.042 116.536 226.35C117.28 226.658 117.955 227.109 118.524 227.678C119.093 228.247 119.545 228.923 119.853 229.667C120.161 230.41 120.319 231.207 120.319 232.012V232.211L104.575 232.211L104.574 225.884Z" fill="#2F2E41"/>
<path d="M56.6411 222.123C56.4533 222.123 56.2666 222.094 56.088 222.036L47.8085 219.375C47.3613 219.229 46.989 218.914 46.7711 218.497C46.5533 218.08 46.5072 217.595 46.6428 217.144L74.0991 129.713L94.6648 125.681L94.7371 125.799C108.333 147.923 112.872 181.719 115.751 217.528C115.786 217.995 115.638 218.458 115.338 218.818C115.037 219.178 114.608 219.407 114.142 219.456L105.09 220.361C104.668 220.406 104.244 220.298 103.894 220.057C103.544 219.816 103.292 219.458 103.182 219.048L86.6088 160.417C86.5763 160.297 86.5074 160.191 86.4117 160.112C86.3159 160.033 86.1981 159.986 86.0745 159.978C85.9509 159.969 85.8276 159.999 85.7218 160.063C85.6159 160.128 85.5327 160.223 85.4836 160.337L58.2823 221.039C58.1449 221.361 57.9161 221.635 57.6244 221.828C57.3326 222.02 56.9907 222.123 56.6411 222.123Z" fill="#2F2E41"/>
<path d="M84.7199 94.7035C90.1226 94.7035 94.5024 90.3238 94.5024 84.9211C94.5024 79.5184 90.1226 75.1387 84.7199 75.1387C79.3172 75.1387 74.9375 79.5184 74.9375 84.9211C74.9375 90.3238 79.3172 94.7035 84.7199 94.7035Z" fill="#FFB8B8"/>
<path d="M72.345 132.303L72.2779 132.163C72.2324 132.067 67.7253 122.506 68.1447 111.477C68.2836 107.858 69.8005 104.428 72.3851 101.889C74.9697 99.3509 78.4265 97.8962 82.0483 97.8228C85.3863 97.7575 88.6402 98.8721 91.237 100.97C93.8338 103.069 95.6069 106.016 96.244 109.293C97.5 115.705 97.4686 121.778 96.1505 127.343L96.1212 127.467L95.9964 127.492L72.345 132.303Z" fill="#EF293D"/>
<path d="M122.222 146.103C121.642 146.017 121.089 145.805 120.6 145.483C120.112 145.16 119.7 144.734 119.394 144.235C119.087 143.736 118.894 143.176 118.828 142.594C118.762 142.013 118.824 141.423 119.01 140.868L107.742 132.172L114.738 129.772L124.365 138.398C125.277 138.772 126.02 139.468 126.453 140.353C126.887 141.239 126.98 142.252 126.716 143.202C126.452 144.152 125.848 144.972 125.02 145.506C124.192 146.041 123.196 146.253 122.222 146.103H122.222Z" fill="#FFB8B8"/>
<path d="M94.5691 126.932L94.5431 126.89L82.6647 107.653C82.2495 106.911 82.0174 106.08 81.9876 105.229C81.9579 104.379 82.1315 103.534 82.4939 102.764C82.8402 102.014 83.3629 101.358 84.0175 100.852C84.6721 100.347 85.4391 100.008 86.2532 99.8631C86.664 99.7882 87.0809 99.7519 87.4984 99.7545C88.3554 99.7715 89.1946 100.002 89.9398 100.426C90.6849 100.849 91.3125 101.452 91.7655 102.18L107.807 123.39L121.103 132.793C121.304 132.935 121.474 133.118 121.602 133.329C121.73 133.54 121.812 133.775 121.845 134.02C121.877 134.265 121.859 134.513 121.791 134.751C121.723 134.988 121.606 135.208 121.449 135.398L118.354 139.141C118.083 139.47 117.704 139.692 117.284 139.766C116.865 139.84 116.432 139.761 116.066 139.544L94.5691 126.932Z" fill="#EF293D"/>
<path d="M82.9738 84.3143C83.6948 83.1283 85.2858 82.7932 86.6672 82.9285C88.0486 83.0638 89.3919 83.5494 90.7799 83.5386C94.6338 83.5087 97.6086 78.8116 95.9883 75.3147C94.6595 72.4469 91.3407 71.1876 88.3385 70.1993C82.0439 68.1271 74.8132 66.136 69.1012 69.496C67.2809 70.5984 65.788 72.1668 64.7766 74.0391C63.7652 75.9115 63.272 78.02 63.3479 80.1467C63.4764 82.791 64.4891 85.5072 63.6326 88.0123C62.6446 90.9022 59.5117 92.4528 56.551 93.2028C51.361 94.5177 45.8889 94.3059 40.6665 95.4852C35.444 96.6645 30.0924 99.7958 28.6847 104.961C27.76 108.354 28.7249 112.007 30.3227 115.14C31.953 118.336 34.2185 121.165 36.9806 123.455C39.7427 125.745 42.9432 127.448 46.386 128.457C49.8289 129.467 53.4417 129.764 57.0031 129.328C60.5646 128.893 63.9997 127.736 67.0981 125.926C73.4116 122.24 77.9698 116.009 80.6873 109.222C82.2281 105.263 83.3128 101.141 83.9204 96.9359C84.5291 92.9999 84.0126 89.0222 82.9103 85.1949C82.8581 85.052 82.8369 84.8996 82.8478 84.7478C82.8588 84.5961 82.9017 84.4483 82.9738 84.3143Z" fill="#2F2E41"/>
<path d="M152.284 232.356H0.535009C0.429376 232.356 0.328069 232.314 0.253375 232.239C0.178681 232.165 0.136719 232.063 0.136719 231.958C0.136719 231.852 0.178681 231.751 0.253375 231.676C0.328069 231.601 0.429376 231.559 0.535009 231.559H152.284C152.389 231.559 152.491 231.601 152.565 231.676C152.64 231.751 152.682 231.852 152.682 231.958C152.682 232.063 152.64 232.165 152.565 232.239C152.491 232.314 152.389 232.356 152.284 232.356Z" fill="#3F3D56"/>
</svg>
