<svg width="270" height="208" viewBox="0 0 270 208" fill="none" xmlns="http://www.w3.org/2000/svg">
<g clip-path="url(#clip0_2846_41537)">
<path opacity="0.1" d="M249.08 120.577C249.08 120.735 249.08 120.893 249.08 121.049C249.053 123.773 248.891 126.491 248.595 129.202C248.597 129.219 248.597 129.235 248.595 129.252C248.572 129.477 248.546 129.7 248.52 129.925C248.476 130.306 248.429 130.684 248.377 131.065C247.772 135.699 246.772 140.274 245.386 144.738C243.529 150.771 240.905 156.541 237.577 161.906C236.553 163.547 235.462 165.134 234.305 166.67C233.688 167.483 233.057 168.278 232.406 169.06C231.95 169.608 231.484 170.146 231.01 170.677L230.715 171.003C228.221 173.736 225.533 176.286 222.672 178.634C218.002 182.498 212.974 185.86 207.866 188.979C207.575 189.158 207.282 189.334 206.989 189.497C206.968 189.512 206.947 189.525 206.924 189.536C199.981 193.727 192.782 197.508 185.365 200.536C177.244 203.859 168.859 206.276 160.256 207.333C148.265 208.804 136.128 207.607 124.21 205.551C114.297 203.85 104.505 201.514 94.8931 198.557L93.3105 198.063C92.4907 197.802 91.6717 197.536 90.8536 197.265C85.9122 195.633 81.0261 193.82 76.1953 191.825C64.0627 186.836 52.4722 180.623 41.6043 173.282C40.2206 172.353 38.8569 171.404 37.513 170.433C35.6346 169.083 33.7788 167.693 31.9454 166.263L30.8143 165.387C26.0163 161.636 21.5211 157.515 17.3701 153.061C11.787 146.994 7.01591 140.151 3.8793 132.339C3.38463 131.111 2.93148 129.86 2.51984 128.586L2.48092 128.459C2.27337 127.811 2.08138 127.164 1.90496 126.49C1.64553 125.527 1.41809 124.551 1.22264 123.564C1.18113 123.374 1.14481 123.185 1.11108 122.994C0.490993 119.67 0.217123 116.29 0.293849 112.91C0.358736 109.948 0.706226 106.999 1.3316 104.103C1.9717 101.101 2.95809 98.1835 4.27105 95.4082C5.45757 92.9126 6.96936 90.5846 8.76713 88.4846C10.0304 87.0165 11.4511 85.691 13.0038 84.532C15.8187 82.4391 18.9397 80.9809 22.1749 79.8282C23.6952 79.2843 25.2363 78.8077 26.7852 78.3648C27.8826 78.0488 28.9852 77.7483 30.0826 77.453L33.3204 76.5801C35.3959 76.0155 37.4715 75.4353 39.5158 74.8084C45.0886 73.1093 50.5498 71.0527 55.6011 67.9859C56.4001 67.5015 57.2148 66.9705 58.0294 66.4007C59.0672 65.6806 60.0894 64.8984 61.1012 64.054C62.1234 63.1992 63.1248 62.2849 64.0795 61.3161C64.2274 61.1659 64.3727 61.0157 64.518 60.8629C65.2963 60.0443 66.0513 59.187 66.7518 58.296C67.0942 57.8608 67.4263 57.4179 67.7428 56.9672C68.1813 56.343 68.5964 55.7084 68.9803 55.0556C70.9054 51.792 72.0936 48.1916 71.9535 44.397C71.933 43.7718 71.8767 43.1483 71.7849 42.5295C71.4476 40.2424 71.1233 38.0096 70.8846 35.8261C69.8832 26.7941 70.3061 18.6039 77.0956 10.9085C85.5377 1.34289 98.7873 -0.607527 110.849 0.156579C145.72 2.35824 177.465 22.2354 205.362 45.8993C207.775 47.9439 210.158 50.016 212.512 52.1158C213.106 52.6442 213.7 53.176 214.295 53.7113C218.705 57.6769 223.048 61.7901 227.093 66.196C227.42 66.5535 227.747 66.9109 228.068 67.271C228.266 67.4937 228.465 67.7139 228.66 67.9393C229.921 69.3639 231.144 70.823 232.331 72.3167C235.509 76.282 238.316 80.5305 240.716 85.0086C244.391 92.0363 246.878 99.6213 248.079 107.458C248.53 110.304 248.827 113.172 248.969 116.049C249.013 116.896 249.041 117.746 249.057 118.593C249.057 118.865 249.057 119.134 249.057 119.406C249.083 119.8 249.083 120.183 249.08 120.577Z" fill="#EF293D"/>
<path d="M102.495 116.232L98.3438 189.998L102.495 190.053L105.867 115.196L102.495 116.232Z" fill="#3F3D56"/>
<path d="M87.1892 153.606H35.8203V164.744H87.1892V153.606Z" fill="#EF293D"/>
<path d="M90.5642 163.446V170.44H37.5012C35.6228 169.089 33.767 167.699 31.9336 166.269V163.446H90.5642Z" fill="#3F3D56"/>
<path d="M101.157 147.529C101.012 148.2 100.822 148.863 100.622 149.524C100.034 151.433 99.3253 153.316 99.1878 155.3C99.0036 157.921 99.7066 160.97 97.8906 162.874C97.4236 163.366 96.8139 163.734 96.3962 164.26C96.3319 164.342 96.2729 164.428 96.2198 164.519C95.8462 165.135 95.8021 165.886 95.7969 166.591C95.8013 168.093 95.8992 169.594 96.0901 171.085C96.7049 176.213 97.9191 181.352 96.3236 186.193C96.0345 187.033 95.6975 187.855 95.3143 188.656C94.536 190.366 93.6877 192.052 93.4334 193.904C93.2466 195.277 93.3037 196.691 93.2933 198.087C92.4735 197.827 91.6545 197.561 90.8364 197.29C85.895 195.658 81.0089 193.845 76.1781 191.85C76.1911 191.78 76.2041 191.708 76.2145 191.638C76.5855 189.333 76.077 186.975 75.4595 184.727C74.1623 179.964 72.3255 175.247 71.2384 170.45C70.8006 168.576 70.5135 166.671 70.3797 164.752C70.3485 164.322 70.3304 163.889 70.3278 163.457C70.3148 162.892 70.3278 162.327 70.3511 161.757C70.4056 160.62 70.4549 159.271 69.5443 158.579C69.0436 158.204 68.382 158.139 67.7983 157.911C66.6723 157.473 65.9018 156.458 65.0093 155.645C64.5836 155.232 64.0637 154.929 63.4947 154.763C62.9256 154.596 62.3244 154.569 61.7429 154.686C55.9108 156.02 51.6248 160.96 46.1974 163.457C45.9872 163.555 45.7771 163.648 45.5643 163.736C44.8623 163.993 44.1941 164.334 43.5744 164.752C43.139 165.053 42.8233 165.498 42.682 166.008C42.5445 166.557 42.6638 167.132 42.7313 167.697C42.8404 168.615 42.801 169.544 42.6145 170.45C42.5442 170.801 42.4514 171.147 42.3369 171.486C42.1294 172.1 41.8518 172.701 41.5871 173.299C40.2035 172.37 38.8397 171.421 37.4958 170.45C35.6174 169.1 33.7616 167.71 31.9282 166.28L30.8152 165.386C26.0173 161.635 21.5221 157.514 17.3711 153.06C17.9237 151.505 18.7228 150.06 19.1067 148.467C19.3247 147.553 19.4051 146.602 19.706 145.714C20.0531 144.793 20.5358 143.928 21.1381 143.149C23.3443 140.078 26.0381 137.387 29.1133 135.182C32.3278 132.882 36.0403 131.038 38.9331 128.427C40.107 127.401 41.119 126.203 41.9348 124.876C41.9841 124.795 42.0308 124.71 42.0723 124.617C42.2981 124.148 42.4545 123.649 42.5367 123.135C42.7442 121.975 42.7131 120.7 42.8169 119.586C46.3408 120.196 49.9333 120.304 53.4876 119.908C57.6256 119.444 61.6729 118.297 65.811 117.851C66.1223 117.815 66.4362 117.786 66.7501 117.76C68.0759 117.654 69.4042 117.631 70.7351 117.646C71.8481 117.646 72.9611 117.696 74.0741 117.732L86.3274 118.146C87.6842 118.193 89.0696 118.245 90.3331 118.74C91.8327 119.327 93.0339 120.498 93.9964 121.786C94.1183 121.951 94.2403 122.117 94.3544 122.288C95.1464 123.442 95.7816 124.695 96.2431 126.015C96.2924 126.15 96.3391 126.274 96.3832 126.422C96.5 126.782 96.6012 127.145 96.692 127.512C96.762 127.8 96.8243 128.088 96.8814 128.378C97.1668 129.813 97.3354 131.279 97.7868 132.664C97.8179 132.765 97.8517 132.866 97.888 132.965C98.4302 134.483 99.3305 135.843 100.01 137.301C100.5 138.356 100.874 139.462 101.126 140.598C101.634 142.88 101.645 145.244 101.157 147.529Z" fill="#35323E"/>
<path d="M63.9129 54.834C62.818 53.9637 61.2303 54.6009 59.9486 55.1629C58.8741 55.6368 57.768 56.0357 56.6382 56.357C56.407 56.4459 56.1563 56.4718 55.9118 56.4321C55.3929 56.3078 55.175 55.6939 54.7884 55.3209C54.1165 54.676 53.0164 54.8288 52.1499 55.1785C51.2834 55.5282 50.4272 56.0332 49.4984 55.9555C48.5074 55.8778 47.646 55.1474 46.6446 55.1241C44.8804 55.0826 43.399 57.2532 41.7308 56.6782C40.7138 56.3285 39.9148 55.0075 38.9133 55.3831C38.135 55.6784 38.065 56.7533 37.5954 57.4553C37.0428 58.2738 35.9661 58.5043 35.0451 58.8669C32.142 60.0118 30.2195 63.2417 30.5983 66.3344C30.8085 68.0414 31.6361 69.6058 32.1835 71.2351C33.8076 75.9725 33.2498 81.3161 35.2967 85.8852C35.5562 85.6417 35.7015 85.551 35.9531 85.3102C35.3059 86.6503 35.1811 88.1829 35.6029 89.6099C35.8182 90.3274 36.1685 90.9956 36.4331 91.6976C36.708 92.4849 36.9299 93.2896 37.0973 94.1064L39.3544 104.048C40.2365 107.933 41.1211 111.818 41.2742 115.797C41.3695 118.384 41.1711 120.973 40.6827 123.515C44.7715 122.839 48.5126 121.029 52.6558 121.052C54.1761 121.052 55.6835 121.311 57.1908 121.518C61.5855 122.132 66.0184 122.433 70.4559 122.417C71.1461 122.456 71.8372 122.36 72.4899 122.132C73.0607 121.889 73.5277 121.456 74.0673 121.143C75.1232 120.521 76.4023 120.366 77.619 120.366C83.1684 120.265 88.5155 122.293 94.0285 123.008C96.2052 118.446 96.335 112.981 94.6642 108.213C94.1686 106.796 93.5019 105.415 93.3047 103.926C93.2255 103.01 93.2047 102.091 93.2424 101.172C93.2338 98.8218 92.8096 96.4912 91.9894 94.2878C91.6677 93.4252 91.2811 92.5471 91.3148 91.6276C91.3485 90.7081 91.8026 89.8508 92.2488 89.0374C93.1542 87.3797 94.0649 85.7065 95.3439 84.3078C96.6541 82.8624 98.2937 81.7616 99.9152 80.6815L103.918 77.998C103.371 74.5453 102.665 70.9087 101.199 67.7331C99.7336 64.5576 97.5414 61.6384 94.576 59.7812C93.5762 59.1808 92.5299 58.6611 91.4471 58.2271C89.932 57.5899 88.3546 57.0279 86.7124 56.932C84.8444 56.8258 83.005 57.3257 81.1604 57.6366C75.3541 58.6131 68.5205 58.4939 63.9129 54.834Z" fill="#EF293D"/>
<path d="M107.683 114.75L105.779 117.152L102.188 121.677L98.0371 126.906L96.8774 128.367H94.6281L38.9291 128.432L4.04757 128.471H2.49093C2.28338 127.823 2.0914 127.176 1.91498 126.502C1.65554 125.539 1.4281 124.563 1.23265 123.575C1.19114 123.386 1.15482 123.197 1.12109 123.005L13.7765 114.745L18.5346 114.719L33.0892 114.637L41.2174 114.59H42.7014H43.6328L49.0499 114.561L90.337 114.326L92.4488 114.313H93.3646L95.7904 114.3L104.816 114.248L106.549 113.59L106.676 113.725L107.683 114.75Z" fill="#3F3D56"/>
<path d="M106.905 113.456L106.69 113.715L105.273 115.38L102.357 118.817L96.2422 126.016L42.0713 124.635L1.22264 123.599C1.18113 123.41 1.14481 123.221 1.11108 123.029C0.490993 119.705 0.217123 116.326 0.293849 112.945L4.82365 110.63L5.86141 110.096L13.9377 105.952L21.0256 102.326L39.5132 104.724L43.6072 105.255L45.4596 105.493L48.1707 105.846L48.399 105.877L90.9133 111.381L95.6117 111.99L98.3696 112.347L106.869 113.451L106.905 113.456Z" fill="#504F60"/>
<path d="M98.0834 125.888L98.0393 126.906L97.7798 132.654L96.384 164.254L96.0883 171.085L95.31 188.656L94.8715 198.582L93.2889 198.087C92.4691 197.827 91.6501 197.561 90.832 197.29L94.6276 128.391L94.7081 126.945L96.3788 126.427L98.0834 125.888Z" fill="#3F3D56"/>
<path d="M4.16465 125.813L4.0479 128.474L3.87667 132.359C3.38201 131.131 2.92886 129.88 2.51721 128.606L2.4783 128.479C2.27075 127.831 2.07876 127.184 1.90234 126.51L4.16465 125.813Z" fill="#3F3D56"/>
<path d="M72.0123 86.6496C78.6034 86.6496 83.9465 79.4597 83.9465 70.5904C83.9465 61.7212 78.6034 54.5312 72.0123 54.5312C65.4212 54.5312 60.0781 61.7212 60.0781 70.5904C60.0781 79.4597 65.4212 86.6496 72.0123 86.6496Z" fill="#A1616A"/>
<path opacity="0.1" d="M72.0123 86.6496C78.6034 86.6496 83.9465 79.4597 83.9465 70.5904C83.9465 61.7212 78.6034 54.5312 72.0123 54.5312C65.4212 54.5312 60.0781 61.7212 60.0781 70.5904C60.0781 79.4597 65.4212 86.6496 72.0123 86.6496Z" fill="black"/>
<path d="M73.6978 77.4547C82.868 77.4547 90.3019 70.0328 90.3019 60.8775C90.3019 51.7222 82.868 44.3003 73.6978 44.3003C64.5277 44.3003 57.0938 51.7222 57.0938 60.8775C57.0938 70.0328 64.5277 77.4547 73.6978 77.4547Z" fill="#A1616A"/>
<path d="M74.0258 35.3274C73.0121 35.4081 72.0055 35.5613 71.0137 35.7859C68.3882 36.4231 66.1181 37.8373 63.9077 39.2256C62.9166 39.8499 61.897 40.5 61.2821 41.4169C60.1769 43.0617 60.605 45.1546 59.9849 46.9807C59.6632 47.9183 59.0717 48.7601 58.571 49.633C57.1934 52.0264 56.4721 54.6554 55.7639 57.2585C55.6186 57.7973 55.5771 58.5277 56.166 58.735C56.5051 58.8053 56.8579 58.7653 57.1726 58.621C59.0328 58.0071 61.3963 57.831 62.7765 59.0769C64.1567 60.3227 64.04 62.5322 65.6822 63.4802C67.5632 64.5758 70.5 63.2522 72.2071 64.5447C72.9387 65.099 73.2034 65.9875 73.8027 66.6557C75.1984 68.2099 77.8836 68.1347 80.1174 67.8213C81.399 67.64 82.9712 67.5183 83.7496 68.4171C84.1231 68.8419 84.2295 69.4247 84.6628 69.808C85.4411 70.5022 86.8654 70.1499 87.6256 69.4376C88.3857 68.7253 88.7489 67.7618 89.382 66.9614C90.6143 65.4073 92.7806 64.5603 94.0519 63.0243C95.1156 61.7292 95.4373 60.1078 95.7279 58.5433L96.8097 52.7438C97.2482 50.392 97.6477 47.8225 96.322 45.7503C95.8498 45.0044 95.1726 44.362 94.7653 43.5901C94.4929 43.0721 94.3399 42.5255 94.0233 42.036C93.648 41.526 93.1996 41.0739 92.6924 40.6943L90.1318 38.5781C89.2562 37.813 88.3201 37.12 87.3324 36.5059C83.6769 34.3794 78.2027 34.9389 74.0258 35.3274Z" fill="#464353"/>
<path d="M19.3392 78.0293C18.7243 78.682 18.1562 79.3866 17.4972 79.9978C16.9175 80.5125 16.3113 80.9967 15.6811 81.4484C14.6641 82.2081 13.6696 82.9947 12.6976 83.808C11.6835 84.6085 10.7658 85.5238 9.96307 86.5355C8.57766 88.3927 7.92129 90.7031 6.62409 92.6224C5.47737 94.3242 3.86106 95.6685 2.69618 97.3573C2.18515 98.0673 1.80557 98.863 1.57541 99.7066C1.40361 100.523 1.32613 101.357 1.3445 102.191C1.32116 103.558 1.3004 104.941 1.5806 106.281C1.86079 107.62 2.47566 108.935 3.52898 109.814C4.50707 110.629 5.77053 111.005 7.00806 111.316C7.64628 111.474 8.33638 111.621 8.94347 111.37C9.3877 111.146 9.7733 110.822 10.0694 110.422L13.2268 106.796C15.3386 104.361 17.5335 101.875 20.4314 100.45C21.3395 100.007 22.2968 99.6729 23.2074 99.243C27.0679 97.3858 29.7972 93.5834 30.8557 89.4391C31.1151 88.4263 31.2812 87.3928 31.4498 86.3594L31.9064 83.5257C31.9415 83.3836 31.9415 83.2352 31.9064 83.0931C31.8349 82.9334 31.7198 82.7969 31.5743 82.6994C29.3751 80.9262 27.316 78.9865 25.4153 76.8974C24.9638 76.4001 24.5409 75.7189 24.0195 75.3018C23.3657 74.7838 23.415 74.8226 22.6289 75.3018C21.4196 76.0663 20.314 76.983 19.3392 78.0293Z" fill="#A1616A"/>
<path d="M40.9332 96.8862C40.907 96.826 40.8688 96.7718 40.821 96.7267C40.7733 96.6817 40.7168 96.6467 40.6552 96.624C40.5935 96.6012 40.5279 96.5911 40.4623 96.5943C40.3966 96.5975 40.3323 96.6139 40.2731 96.6426C40.214 96.6712 40.1613 96.7115 40.1181 96.761C40.075 96.8105 40.0423 96.8682 40.0221 96.9307C40.0018 96.9931 39.9944 97.059 40.0003 97.1243C40.0062 97.1897 40.0252 97.2532 40.0563 97.311L39.7969 97.4379L47.5333 113.269L48.9317 112.588L41.1953 96.7463L40.9332 96.8862Z" fill="#3F3D56"/>
<path opacity="0.04" d="M19.3392 78.0293C18.7243 78.682 18.1562 79.3866 17.4972 79.9978C16.9175 80.5125 16.3113 80.9967 15.6811 81.4484C14.6641 82.2081 13.6696 82.9947 12.6976 83.808C11.6835 84.6085 10.7658 85.5238 9.96307 86.5355C8.57766 88.3927 7.92129 90.7031 6.62409 92.6224C5.47737 94.3242 3.86106 95.6685 2.69618 97.3573C2.18515 98.0673 1.80557 98.863 1.57541 99.7066C1.40361 100.523 1.32613 101.357 1.3445 102.191C1.32116 103.558 1.3004 104.941 1.5806 106.281C1.86079 107.62 2.47566 108.935 3.52898 109.814C4.50707 110.629 5.77053 111.005 7.00806 111.316C7.64628 111.474 8.33638 111.621 8.94347 111.37C9.3877 111.146 9.7733 110.822 10.0694 110.422L13.2268 106.796C15.3386 104.361 17.5335 101.875 20.4314 100.45C21.3395 100.007 22.2968 99.6729 23.2074 99.243C27.0679 97.3858 29.7972 93.5834 30.8557 89.4391C31.1151 88.4263 31.2812 87.3928 31.4498 86.3594L31.9064 83.5257C31.9415 83.3836 31.9415 83.2352 31.9064 83.0931C31.8349 82.9334 31.7198 82.7969 31.5743 82.6994C29.3751 80.9262 27.316 78.9865 25.4153 76.8974C24.9638 76.4001 24.5409 75.7189 24.0195 75.3018C23.3657 74.7838 23.415 74.8226 22.6289 75.3018C21.4196 76.0663 20.314 76.983 19.3392 78.0293Z" fill="black"/>
<path d="M108.775 107.205C108.749 108.858 108.685 110.559 107.997 112.067C107.701 112.72 107.242 113.362 106.555 113.577C106.139 113.673 105.708 113.689 105.286 113.624C100.196 113.177 95.0671 113.583 90.1113 114.826C91.4345 112.184 90.6743 109.016 91.0401 106.084C91.1413 105.283 91.3255 104.496 91.3956 103.693C91.655 100.844 90.433 98.0773 89.8727 95.2644C89.3862 92.8294 89.3862 90.3225 89.8727 87.8875C89.9681 87.2608 90.1839 86.6583 90.5083 86.1133C90.8883 85.5829 91.3877 85.1491 91.9663 84.8467C94.0678 83.6526 96.5454 83.5153 98.9063 83.6733C100.497 83.7795 103.685 83.6293 105.011 84.6058C106.461 85.6755 106.92 89.2681 107.312 90.9284C107.899 93.4748 108.298 96.0607 108.506 98.6653C108.76 101.504 108.814 104.356 108.775 107.205Z" fill="#A1616A"/>
<path d="M15.8438 112.94L25.1836 119.157L67.2127 117.603L39.4527 112.94H15.8438Z" fill="white"/>
<path d="M28.1572 63.5477C26.6239 64.8972 25.3242 66.4876 23.8713 67.9252C21.8788 69.8989 19.6139 71.5773 17.3594 73.248C18.1677 73.4736 18.9035 73.9049 19.4948 74.4997C20.086 75.0945 20.5123 75.8324 20.7321 76.6411C20.8307 77.0219 20.88 77.4182 20.9915 77.7912C21.251 78.6744 21.8217 79.436 22.434 80.1224C25.0647 83.0829 28.7462 85.2742 30.2976 88.929C30.3482 89.1068 30.458 89.2621 30.6089 89.3693C30.7352 89.4251 30.8754 89.4414 31.0111 89.416C32.4146 89.2683 33.4887 88.139 34.3838 87.0407C36.2517 84.7096 37.8732 82.1349 38.7942 79.2909C39.7152 76.4469 39.8631 73.3024 38.8591 70.4843C38.3584 69.0804 37.5852 67.7905 36.8173 66.5135C36.1445 65.3963 35.4734 64.2807 34.8041 63.167C34.4538 62.579 34.0076 61.3849 33.3201 61.0948C31.8361 60.4576 29.1094 62.5971 28.1572 63.5477Z" fill="#EF293D"/>
<path d="M104.574 80.288L106.782 85.4684C104.379 84.63 101.81 84.3748 99.288 84.7238C96.7661 85.0729 94.3638 86.0162 92.2794 87.4758C91.0212 88.3746 89.8667 89.5039 89.2985 90.9389C89.018 90.9921 88.7283 90.9652 88.4625 90.8611C88.1967 90.7571 87.9658 90.5803 87.7963 90.3509C87.4642 89.8859 87.2717 89.336 87.2411 88.7657C87.0362 86.7765 87.7911 84.8261 88.5383 82.9663C88.886 82.096 89.244 81.2076 89.8615 80.5004C90.4789 79.7933 91.2988 79.3271 92.1186 78.8868C94.7341 77.4426 97.4733 76.2342 100.304 75.276C101.497 74.8901 102.748 74.8979 103.417 76.0117C104.193 77.3404 103.967 78.8738 104.574 80.288Z" fill="#EF293D"/>
<path d="M15.8975 95.8319C16.4501 96.2722 16.9352 96.7928 17.5034 97.2124C18.1043 97.629 18.7437 97.9872 19.4129 98.2822L21.9709 99.5099C22.7636 99.9213 23.5931 100.258 24.4486 100.515C25.5434 100.808 26.6927 100.836 27.7927 101.108C29.1807 101.45 30.4494 102.162 31.8166 102.574C33.1839 102.986 34.7846 103.053 35.9262 102.196C36.6396 101.66 37.1792 100.774 38.0639 100.642C38.6347 100.567 39.1847 100.841 39.6932 101.108L46.3504 104.602C47.2481 105.074 48.1976 105.597 48.6672 106.496C49.1368 107.394 48.8203 108.76 47.8318 108.993C47.4873 109.032 47.1408 109.052 46.7941 109.052C46.4516 109.094 46.078 109.296 46.0313 109.64C46.0296 109.854 46.0861 110.065 46.1948 110.249C46.4931 110.933 46.5813 111.751 46.2337 112.414C45.886 113.077 45.0325 113.489 44.3501 113.191C44.4669 114.194 43.3747 114.896 42.4018 115.162C39.9475 115.833 37.3453 115.421 34.8365 114.997C33.8506 114.831 32.8492 114.66 31.9516 114.22C31.5209 114.01 31.1213 113.74 30.6855 113.546C29.4895 113.015 28.13 113.085 26.8224 113.108C20.7749 113.215 14.7793 112.096 8.83294 110.982C7.73033 110.775 6.59658 110.555 5.65482 109.946C3.83874 108.765 3.1642 106.34 3.46256 104.196C3.76091 102.051 4.85055 100.108 5.92204 98.2226L7.31004 95.7801C7.49148 95.4059 7.74544 95.0714 8.05722 94.7958C10.099 93.2391 14.1489 94.428 15.8975 95.8319Z" fill="#A1616A"/>
<path opacity="0.04" d="M15.8975 95.8319C16.4501 96.2722 16.9352 96.7928 17.5034 97.2124C18.1043 97.629 18.7437 97.9872 19.4129 98.2822L21.9709 99.5099C22.7636 99.9213 23.5931 100.258 24.4486 100.515C25.5434 100.808 26.6927 100.836 27.7927 101.108C29.1807 101.45 30.4494 102.162 31.8166 102.574C33.1839 102.986 34.7846 103.053 35.9262 102.196C36.6396 101.66 37.1792 100.774 38.0639 100.642C38.6347 100.567 39.1847 100.841 39.6932 101.108L46.3504 104.602C47.2481 105.074 48.1976 105.597 48.6672 106.496C49.1368 107.394 48.8203 108.76 47.8318 108.993C47.4873 109.032 47.1408 109.052 46.7941 109.052C46.4516 109.094 46.078 109.296 46.0313 109.64C46.0296 109.854 46.0861 110.065 46.1948 110.249C46.4931 110.933 46.5813 111.751 46.2337 112.414C45.886 113.077 45.0325 113.489 44.3501 113.191C44.4669 114.194 43.3747 114.896 42.4018 115.162C39.9475 115.833 37.3453 115.421 34.8365 114.997C33.8506 114.831 32.8492 114.66 31.9516 114.22C31.5209 114.01 31.1213 113.74 30.6855 113.546C29.4895 113.015 28.13 113.085 26.8224 113.108C20.7749 113.215 14.7793 112.096 8.83294 110.982C7.73033 110.775 6.59658 110.555 5.65482 109.946C3.83874 108.765 3.1642 106.34 3.46256 104.196C3.76091 102.051 4.85055 100.108 5.92204 98.2226L7.31004 95.7801C7.49148 95.4059 7.74544 95.0714 8.05722 94.7958C10.099 93.2391 14.1489 94.428 15.8975 95.8319Z" fill="black"/>
<path d="M95.0915 100.308C93.7398 100.945 92.1884 101.007 90.7771 101.497C89.3657 101.986 88.1671 102.867 86.8725 103.584C83.4998 105.465 79.6082 106.174 75.7867 106.85C73.4699 107.265 71.1168 107.679 68.7818 107.581C65.6219 107.446 62.5864 106.395 59.525 105.602C56.4637 104.809 53.1973 104.276 50.1645 105.167C48.5807 105.648 47.1329 106.496 45.9385 107.64C44.744 108.784 43.8364 110.194 43.2893 111.754C42.6537 113.616 42.5655 115.623 42.6875 117.587C43.3257 118.056 44.2181 117.405 44.5658 116.693C44.9134 115.981 45.1028 115.108 45.7774 114.694C46.9474 115.09 47.2328 116.647 48.1979 117.416C48.7998 117.898 49.6041 118.025 50.3694 118.133L54.3129 118.693C55.2625 118.827 56.3651 118.918 57.0526 118.25C57.3873 117.926 57.5715 117.473 57.8776 117.126C58.5054 116.432 59.5536 116.312 60.4876 116.406C63.4036 116.696 66.1381 118.584 69.0335 118.136C70.0297 117.983 70.9559 117.558 71.9055 117.224C77.5327 115.24 83.7852 116.447 89.6407 115.31C91.8745 114.877 94.0252 114.111 96.15 113.303C97.3045 112.865 98.472 112.406 99.4579 111.666C100.392 110.949 101.128 110.007 101.599 108.928C102.069 107.849 102.257 106.669 102.146 105.498C101.928 103.714 101.037 102.079 99.6525 100.929C99.1958 100.541 98.5965 99.7973 98.0491 99.5539C97.0036 99.0954 95.9788 99.8906 95.0915 100.308Z" fill="#A1616A"/>
<g opacity="0.1">
<path opacity="0.1" d="M87.5121 67.2177C87.0788 66.8344 86.9725 66.2516 86.5989 65.8268C85.8206 64.928 84.2484 65.0497 82.9667 65.231C80.733 65.5445 78.0374 65.617 76.652 64.0655C76.0527 63.3972 75.788 62.5113 75.0564 61.9545C73.3493 60.6594 70.4125 61.9855 68.5315 60.8899C66.8893 59.9341 66.9957 57.7169 65.6258 56.4866C64.256 55.2562 61.8821 55.4168 60.0219 56.0307C59.7072 56.175 59.3544 56.215 59.0153 56.1447C58.4264 55.9374 58.4679 55.207 58.6132 54.6682C59.3214 52.0651 60.0427 49.4361 61.4203 47.0427C61.921 46.1698 62.5125 45.328 62.8342 44.3904C63.3972 42.7482 63.1093 40.891 63.8487 39.3369C63.0548 39.855 62.292 40.4196 61.8017 41.15C60.6965 42.7948 61.1245 44.8877 60.5045 46.7138C60.1828 47.6514 59.5913 48.4932 59.0905 49.3661C57.7129 51.7595 56.9917 54.3885 56.2834 56.9916C56.1381 57.5304 56.0966 58.2608 56.6855 58.4681C57.0247 58.5384 57.3774 58.4984 57.6922 58.3541C59.5523 57.7402 61.9158 57.5641 63.296 58.81C64.6763 60.0558 64.5595 62.2653 66.2018 63.2133C68.0827 64.3089 71.0196 62.9854 72.7267 64.2779C73.4583 64.8322 73.7229 65.7206 74.3222 66.3889C75.718 67.943 78.4032 67.8679 80.637 67.5544C81.9186 67.3731 83.4908 67.2514 84.2691 68.1502C84.6427 68.575 84.7491 69.1578 85.1823 69.5411C85.9606 70.2353 87.385 69.883 88.1451 69.1707C88.6325 68.664 89.0496 68.0942 89.3852 67.4767C88.7107 67.6814 87.9921 67.6503 87.5121 67.2177Z" fill="black"/>
<path opacity="0.1" d="M92.2378 64.3682C92.0707 64.5831 91.9157 64.8071 91.7734 65.0391C92.7697 64.3294 93.8256 63.6663 94.5702 62.7623C94.7635 62.5284 94.937 62.2789 95.0891 62.0164C94.0539 62.7571 92.9746 63.4384 92.2378 64.3682Z" fill="black"/>
</g>
<path d="M144.652 115.66L145.431 189.998L149.063 189.48L148.285 115.66H144.652Z" fill="#3F3D56"/>
<path d="M166.445 129.129L167.224 203.467L170.856 202.949L170.077 129.129H166.445Z" fill="#3F3D56"/>
<path d="M234.299 166.682L234.283 165.254V164.405L234.146 151.329L233.93 130.888L233.894 129.124H230.262L230.28 130.823L230.394 141.772L230.443 146.512L230.485 150.35L230.552 156.986L230.594 160.9V161.315L230.648 166.459L230.695 170.994L230.991 170.668C231.466 170.138 231.932 169.599 232.387 169.052L234.299 166.682Z" fill="#3F3D56"/>
<path d="M162.427 141.173L160.352 144.271L162.427 158.385L180.069 163.205H208.607L225.73 164.239L233.887 158.665L232.476 149.091L226.249 141.173H162.427Z" fill="#EF293D"/>
<path d="M160.347 144.271L159.31 152.876C159.31 152.876 153.861 169.746 197.707 168.712C241.552 167.679 234.028 164.236 234.028 164.236L233.769 154.254C233.769 154.254 235.297 158.978 213.013 158.338C190.73 157.699 169.947 155.632 169.947 155.632C169.947 155.632 162.163 157.007 160.347 144.271Z" fill="#3F3D56"/>
<path d="M196.878 67.1458C194.377 68.2829 192.483 70.4872 191.215 72.9245C189.946 75.3619 189.233 78.0376 188.53 80.6951C187.788 83.4977 187.043 86.3081 186.659 89.1806C185.974 94.2884 186.488 99.6579 188.838 104.245C191.189 108.832 195.532 112.534 200.617 113.417C202.581 113.761 204.599 113.692 206.584 113.487C210.171 113.108 213.705 112.33 217.12 111.169C220.687 109.964 224.4 108.11 225.987 104.693C226.908 102.712 226.986 100.453 226.942 98.2721C226.82 92.3279 225.92 86.4251 224.267 80.7132C223.787 79.0555 223.23 77.3848 222.213 75.9887C221.196 74.5926 219.805 73.5695 218.386 72.6215C212.318 68.5419 204.342 63.7579 196.878 67.1458Z" fill="#FBBEBE"/>
<path opacity="0.05" d="M196.878 67.1458C194.377 68.2829 192.483 70.4872 191.215 72.9245C189.946 75.3619 189.233 78.0376 188.53 80.6951C187.788 83.4977 187.043 86.3081 186.659 89.1806C185.974 94.2884 186.488 99.6579 188.838 104.245C191.189 108.832 195.532 112.534 200.617 113.417C202.581 113.761 204.599 113.692 206.584 113.487C210.171 113.108 213.705 112.33 217.12 111.169C220.687 109.964 224.4 108.11 225.987 104.693C226.908 102.712 226.986 100.453 226.942 98.2721C226.82 92.3279 225.92 86.4251 224.267 80.7132C223.787 79.0555 223.23 77.3848 222.213 75.9887C221.196 74.5926 219.805 73.5695 218.386 72.6215C212.318 68.5419 204.342 63.7579 196.878 67.1458Z" fill="black"/>
<path d="M194.071 99.7481C194.795 100.742 195.671 101.616 196.666 102.338C199.136 104.043 202.306 104.273 205.305 104.366C207.713 104.439 210.473 104.302 211.983 102.426C212.663 101.582 212.969 100.504 213.244 99.4554C214.941 93.0138 216.147 86.4531 216.85 79.8295L223.72 79.8528C226.693 92.5629 226.449 105.775 226.19 118.827L225.814 137.86L221.388 137.391C210.878 136.28 200.352 135.169 189.786 134.977C183.594 134.864 177.401 135.068 171.23 135.589L180.869 106.977C182.119 103.258 183.383 99.4891 183.676 95.5805C184.099 89.9105 182.506 83.9246 184.714 78.6795C184.89 78.2573 185.113 77.8195 185.515 77.5994C185.917 77.3792 186.426 77.4336 186.888 77.4932C187.759 77.6097 190.424 77.4932 191.057 78.0501C191.991 78.8582 191.373 78.9799 191.044 80.2828C190.455 82.614 189.897 84.7716 189.905 87.2012C189.913 91.6123 191.283 96.2695 194.071 99.7481Z" fill="#EF293D"/>
<path d="M234.297 166.681C235.454 165.148 236.544 163.56 237.568 161.918C237.049 160.809 236.479 159.727 236.025 158.595C235.329 156.859 234.93 155.02 234.536 153.194C234.401 152.572 234.267 151.951 234.133 151.329C232.681 144.566 231.316 137.707 231.033 130.851C231.007 130.281 230.991 129.711 230.984 129.142C230.984 129.059 230.984 128.978 230.984 128.883C230.984 128.258 230.984 127.634 230.984 127.012C231.015 125.458 231.114 123.891 231.293 122.332C231.326 122.026 231.365 121.721 231.407 121.415C231.407 121.348 231.422 121.283 231.433 121.216L249.075 120.573L250.558 120.519C251.578 120.483 252.657 120.426 253.498 119.848C254.912 118.879 255.078 116.893 255.055 115.186C254.969 110.871 254.479 106.574 253.591 102.351C252.922 99.1757 251.967 95.9302 249.824 93.4902C248.065 91.4854 245.518 90.0271 244.602 87.5328C244.262 86.6055 244.176 85.5875 243.735 84.7017C243.294 83.8158 242.565 83.1657 241.878 82.4819C239.458 80.0882 237.451 77.3122 235.937 74.2658C234.886 72.1522 233.747 69.8211 232.374 68.3602C232.307 68.2851 232.239 68.2151 232.169 68.1478C231.002 66.9952 229.666 66.4901 228.083 67.2749C227.799 67.4175 227.528 67.5857 227.274 67.7774C226.71 68.2076 226.194 68.6974 225.735 69.2383C224.137 71.0734 222.734 73.07 221.551 75.1957C220.718 76.6923 220.004 78.2511 219.413 79.858C218.947 81.1276 218.561 82.4253 218.258 83.7433C218.035 84.7198 217.859 85.7067 217.719 86.6961C217.2 90.4157 217.2 94.2077 217.272 97.9738C217.35 101.434 217.503 104.903 217.817 108.35C217.895 109.184 217.982 110.017 218.077 110.85C218.267 112.495 218.502 114.136 218.782 115.771C218.894 116.395 219.008 117.019 219.135 117.641C219.166 117.807 219.2 117.973 219.234 118.136L219.249 118.206C219.592 119.651 219.858 121.113 220.046 122.586C220.067 122.771 220.082 122.954 220.093 123.138C220.136 123.984 220.129 124.833 220.072 125.678C220.012 126.678 219.919 127.676 219.872 128.675C219.872 128.851 219.872 129.025 219.854 129.193C219.841 129.698 219.854 130.204 219.854 130.709C219.906 131.917 220.05 133.12 220.285 134.306C220.722 136.514 221.478 138.646 222.529 140.637C222.627 140.823 222.728 141.007 222.83 141.189C224.145 143.535 225.805 145.688 227.022 148.089C228.072 150.25 228.856 152.529 229.357 154.878C229.53 155.653 229.694 156.43 229.85 157.209C230.091 158.452 230.307 159.706 230.527 160.959C230.548 161.084 230.571 161.218 230.595 161.332C230.888 162.995 231.197 164.65 231.593 166.275C231.824 167.22 232.084 168.152 232.387 169.069L234.297 166.681Z" fill="#464353"/>
<path d="M230.831 146.265C230.831 146.498 230.815 146.731 230.805 146.967C230.759 148.104 230.654 149.237 230.491 150.363C230.276 151.9 229.9 153.409 229.368 154.867C229.015 155.826 228.567 156.747 228.029 157.615C227.552 158.387 226.994 159.105 226.363 159.758C224.807 161.374 222.565 161.889 220.396 162.57C219.398 162.859 218.434 163.252 217.519 163.744C217.356 163.834 217.195 163.933 217.039 164.036L214.325 165.832C213.48 166.388 212.616 166.966 212.035 167.792C211.939 167.933 211.853 168.079 211.775 168.23C211.408 168.991 211.139 169.795 210.976 170.623C209.565 176.493 208.151 182.367 207.183 188.325C207.118 188.718 207.056 189.115 206.988 189.511L206.965 189.635C206.953 189.606 206.94 189.577 206.924 189.55C199.981 193.741 192.782 197.522 185.364 200.55L183.753 187.081C183.585 185.987 183.53 184.877 183.587 183.771C183.74 182.028 184.451 180.375 184.643 178.637C184.825 176.936 184.503 175.219 183.717 173.698C183.411 173.107 183.027 172.527 182.957 171.867C182.887 171.206 183.268 170.603 183.932 170.535C184.451 169.96 184.493 169.175 184.339 168.398C184.258 167.993 184.136 167.596 183.976 167.215C183.535 166.132 182.977 164.953 183.356 163.847C183.456 163.647 183.501 163.423 183.486 163.2C183.489 163.186 183.489 163.172 183.486 163.158C183.398 162.868 183.053 162.741 182.874 162.495C182.536 162.037 182.874 161.413 183.081 160.884C183.283 160.316 183.4 159.722 183.429 159.12C183.457 158.786 183.478 158.449 183.514 158.118C183.565 157.669 183.646 157.224 183.756 156.787C184.386 154.305 185.902 152.139 188.018 150.694C189.028 150.016 190.151 149.521 191.181 148.881C192.236 148.171 193.243 147.392 194.196 146.55C196.48 144.651 198.856 142.86 201.322 141.178C203.974 139.37 206.721 137.705 209.552 136.189C210.157 135.863 210.762 135.545 211.368 135.236C212.027 134.891 212.69 134.564 213.358 134.254C215.495 133.237 217.921 133.617 220.285 134.296C221.276 134.578 222.254 134.915 223.198 135.221C224.12 135.52 225.008 135.918 225.845 136.407C227.938 137.635 229.669 139.448 230.387 141.738C230.388 141.752 230.388 141.767 230.387 141.782C230.844 143.217 230.872 144.755 230.831 146.265Z" fill="#F86D70"/>
<path opacity="0.1" d="M230.831 146.265C230.831 146.498 230.815 146.731 230.805 146.967C230.759 148.104 230.654 149.237 230.491 150.363C230.276 151.9 229.9 153.409 229.368 154.867C229.015 155.826 228.567 156.747 228.029 157.615C227.552 158.387 226.994 159.105 226.363 159.758C224.807 161.374 222.565 161.889 220.396 162.57C219.398 162.859 218.434 163.252 217.519 163.744C217.356 163.834 217.195 163.933 217.039 164.036L214.325 165.832C213.48 166.388 212.616 166.966 212.035 167.792C211.939 167.933 211.853 168.079 211.775 168.23C211.408 168.991 211.139 169.795 210.976 170.623C209.565 176.493 208.151 182.367 207.183 188.325C207.118 188.718 207.056 189.115 206.988 189.511L206.965 189.635C206.953 189.606 206.94 189.577 206.924 189.55C199.981 193.741 192.782 197.522 185.364 200.55L183.753 187.081C183.585 185.987 183.53 184.877 183.587 183.771C183.74 182.028 184.451 180.375 184.643 178.637C184.825 176.936 184.503 175.219 183.717 173.698C183.411 173.107 183.027 172.527 182.957 171.867C182.887 171.206 183.268 170.603 183.932 170.535C184.451 169.96 184.493 169.175 184.339 168.398C184.258 167.993 184.136 167.596 183.976 167.215C183.535 166.132 182.977 164.953 183.356 163.847C183.456 163.647 183.501 163.423 183.486 163.2C183.489 163.186 183.489 163.172 183.486 163.158C183.398 162.868 183.053 162.741 182.874 162.495C182.536 162.037 182.874 161.413 183.081 160.884C183.283 160.316 183.4 159.722 183.429 159.12C183.457 158.786 183.478 158.449 183.514 158.118C183.565 157.669 183.646 157.224 183.756 156.787C184.386 154.305 185.902 152.139 188.018 150.694C189.028 150.016 190.151 149.521 191.181 148.881C192.236 148.171 193.243 147.392 194.196 146.55C196.48 144.651 198.856 142.86 201.322 141.178C203.974 139.37 206.721 137.705 209.552 136.189C210.157 135.863 210.762 135.545 211.368 135.236C212.027 134.891 212.69 134.564 213.358 134.254C215.495 133.237 217.921 133.617 220.285 134.296C221.276 134.578 222.254 134.915 223.198 135.221C224.12 135.52 225.008 135.918 225.845 136.407C227.938 137.635 229.669 139.448 230.387 141.738C230.388 141.752 230.388 141.767 230.387 141.782C230.844 143.217 230.872 144.755 230.831 146.265Z" fill="black"/>
<path d="M206.199 103.362C206.173 103.301 206.134 103.247 206.087 103.202C206.039 103.157 205.982 103.122 205.921 103.099C205.859 103.077 205.794 103.066 205.728 103.07C205.662 103.073 205.598 103.089 205.539 103.118C205.48 103.147 205.427 103.187 205.384 103.236C205.341 103.286 205.308 103.344 205.288 103.406C205.267 103.468 205.26 103.534 205.266 103.6C205.272 103.665 205.291 103.729 205.322 103.786L205.062 103.913L212.799 119.745L214.197 119.063L206.461 103.222L206.199 103.362Z" fill="#3F3D56"/>
<path d="M215.87 86.7794C225.04 86.7794 232.474 79.3575 232.474 70.2022C232.474 61.0469 225.04 53.625 215.87 53.625C206.7 53.625 199.266 61.0469 199.266 70.2022C199.266 79.3575 206.7 86.7794 215.87 86.7794Z" fill="#FBBEBE"/>
<path d="M237.785 59.9396C237.707 58.6218 237.511 57.3137 237.198 56.031C236.223 51.8427 234.441 47.7191 231.371 44.7119C231.182 43.9766 230.956 43.2513 230.694 42.5387C230.689 42.5211 230.683 42.5038 230.676 42.4869C229.761 39.9765 228.437 37.6338 226.759 35.553C225.786 34.3459 224.525 33.1545 222.973 33.1078C222.537 33.0923 222.076 33.1674 221.676 32.968C221.382 32.7783 221.135 32.5251 220.952 32.2272C220.184 31.2579 219.165 30.5166 218.005 30.0834C216.846 29.6501 215.59 29.5415 214.373 29.7691L214.212 29.8028C214.121 29.8209 214.03 29.8416 213.953 29.8649C213.875 29.8882 213.735 29.9271 213.626 29.9608C213.745 30.1576 213.862 30.3571 213.976 30.5591C214.284 31.1065 214.569 31.666 214.832 32.2375C215.05 32.7141 215.252 33.1985 215.437 33.6906C212.78 33.9937 210.616 35.8767 208.639 37.6692L203.985 41.886C203.977 41.8931 203.969 41.9009 203.962 41.9093L203.827 42.0388C203.793 42.0725 203.759 42.1062 203.728 42.1424C203.716 42.1532 203.704 42.1654 203.694 42.1787C203.655 42.2201 203.619 42.2642 203.583 42.3082C203.518 42.3898 203.46 42.4764 203.409 42.5672C203.384 42.6061 203.361 42.6468 203.342 42.689C203.334 42.7014 203.328 42.7144 203.323 42.7278C203.306 42.7631 203.292 42.7995 203.279 42.8366C203.278 42.8417 203.278 42.847 203.279 42.8521C203.272 42.8734 203.266 42.895 203.261 42.9169C203.208 43.0992 203.224 43.2945 203.305 43.466L206.374 43.4997H206.735C206.751 43.9089 206.764 44.3208 206.779 44.73C206.292 45.094 205.825 45.483 205.378 45.8956C204.891 46.3454 204.435 46.8265 204.011 47.3358C201.243 50.6745 199.798 54.9872 199.652 59.3283C199.652 59.463 199.652 59.5874 199.652 59.7272C199.652 60.1235 199.652 60.5198 199.652 60.9135C199.652 61.1726 199.676 61.4316 199.696 61.6906C199.698 62.028 199.787 62.3592 199.956 62.6516C199.978 62.6842 200.002 62.7154 200.029 62.7448C200.184 62.9135 200.371 63.0507 200.579 63.1489L200.802 63.2577C200.913 63.3121 201.02 63.3639 201.123 63.4234C202.101 63.9751 202.68 65.0397 203.57 65.7235C203.622 65.7624 203.674 65.8012 203.726 65.8349L203.842 65.9126L203.915 65.9592L204.014 66.0162C204.078 66.0551 204.145 66.0906 204.213 66.1224L204.338 66.1846H204.359C204.462 66.2312 204.566 66.2752 204.672 66.3141L204.82 66.3659L204.864 66.3814C204.906 66.3944 204.95 66.4099 204.994 66.4203C205.082 66.4462 205.169 66.4695 205.254 66.4902L205.513 66.5472C205.614 66.5653 205.718 66.5835 205.822 66.5964L205.975 66.6171L206.131 66.6327C206.378 66.6551 206.627 66.6681 206.878 66.6715C207.665 66.6667 208.451 66.6122 209.231 66.5084L215.852 65.7313C217.354 65.5578 218.887 65.3842 220.369 65.6899C221.624 65.9489 222.781 66.5446 224.001 66.9668C224.276 67.0627 224.551 67.1507 224.828 67.2258C224.929 67.2543 225.033 67.2854 225.137 67.3113L225.28 67.3476L225.612 67.4279C225.731 67.4564 225.851 67.4849 225.97 67.5082C226.138 67.5444 226.305 67.5755 226.473 67.6066C226.587 67.6299 226.704 67.648 226.821 67.6688H226.844L227.176 67.7206H227.257L227.503 67.7542C227.622 67.7724 227.742 67.7879 227.864 67.8009C228.128 67.8337 228.393 67.8622 228.658 67.8863C229.086 67.9278 229.516 67.9589 229.955 67.9848L230.385 68.0107L230.816 68.0314L232.113 68.0884H232.17H232.352C232.891 68.1259 233.433 68.0981 233.966 68.0055C234.059 67.9874 234.15 67.9666 234.241 67.9407C234.332 67.9148 234.407 67.8889 234.5 67.8578C235.473 67.4849 236.184 66.6275 236.677 65.7106C236.781 65.5163 236.877 65.322 236.965 65.1226C237.053 64.9232 237.134 64.7211 237.206 64.5191C237.297 64.2601 237.375 64.014 237.442 63.755C237.463 63.685 237.481 63.6151 237.497 63.5426C237.512 63.4701 237.549 63.3276 237.569 63.2188C237.634 62.9209 237.684 62.6205 237.72 62.3174C237.72 62.2216 237.743 62.1232 237.754 62.0273C237.777 61.7683 237.795 61.5274 237.805 61.2736C237.805 61.0819 237.805 60.8876 237.805 60.6934C237.803 60.4836 237.785 60.2064 237.785 59.9396ZM231.133 44.4762C230.923 44.2793 230.707 44.0902 230.489 43.9115C230.732 44.0643 230.948 44.255 231.13 44.4762H231.133Z" fill="#464353"/>
<path d="M184.003 69.2899C182.05 69.049 180.112 68.1943 178.184 68.6139C176.978 68.8729 175.94 69.6215 174.975 70.3908C171.383 73.2648 168.329 76.7505 165.954 80.6868C165.551 81.2753 165.268 81.9371 165.121 82.6346C164.997 83.4427 165.217 84.2638 165.479 85.0383C167.254 90.273 171.049 94.6453 172.777 99.8956C174.593 105.418 173.963 111.453 172.624 117.11C170.965 124.094 168.268 130.79 164.623 136.977C164.128 137.897 163.508 138.744 162.781 139.494C161.837 140.401 160.568 141.049 160.008 142.235C159.748 142.753 159.673 143.343 159.489 143.898C158.97 145.452 157.714 146.783 157.592 148.423C157.501 149.674 158.096 150.858 158.456 152.049C159.064 154.096 159 156.284 158.272 158.291C156.957 161.892 153.516 165.166 154.515 168.867C156.744 168.227 159.214 167.396 160.264 165.332C160.635 164.601 160.82 163.731 161.445 163.197C162.693 162.138 164.818 163.096 166.143 162.122C167.145 161.382 167.181 159.864 166.735 158.698C166.289 157.532 165.521 156.507 165.178 155.308C164.582 153.145 165.536 150.858 165.36 148.622C165.277 147.586 164.958 146.594 164.934 145.563C164.89 143.561 166.001 141.678 167.477 140.318C168.953 138.958 170.777 138.057 172.572 137.168L179.359 133.801C181.821 132.584 184.519 131.1 185.326 128.478C185.632 127.497 185.635 126.45 185.651 125.424C185.881 109.751 189.815 94.394 193.724 79.2129C194.331 76.8611 194.949 74.4988 195.852 72.2402C196.755 69.9815 198.521 68.1684 199.422 66.0703C194.199 65.459 189.428 69.9686 184.003 69.2899Z" fill="#464353"/>
<path d="M221.418 167.616C222.017 171.242 222.383 174.946 222.669 178.632C217.999 182.497 212.971 185.859 207.862 188.977C207.572 189.156 207.279 189.332 206.985 189.495L206.962 189.62C206.95 189.59 206.936 189.562 206.921 189.534C206.524 188.679 205.831 187.997 204.97 187.612C203.055 183.598 201.142 179.583 199.231 175.568C198.193 173.4 197.155 171.211 196.636 168.872C196.636 168.823 196.613 168.771 196.605 168.722C196.211 166.909 196.12 165.026 195.858 163.19C195.725 162.138 195.488 161.102 195.15 160.097C194.838 159.203 194.41 158.335 194.032 157.463C193.565 156.385 193.173 155.295 193.155 154.132C193.155 153.761 193.178 153.355 192.996 153.044C192.802 152.776 192.563 152.545 192.288 152.36C191.946 152.057 191.686 151.672 191.534 151.241C191.381 150.81 191.341 150.347 191.416 149.897C189.86 149.977 188.983 151.648 188.358 153.064C187.789 154.45 187.043 155.756 186.137 156.95C185.477 157.802 184.637 158.5 183.677 158.993C183.592 159.035 183.506 159.076 183.418 159.113C181.252 160.066 178.722 159.729 176.374 159.299C174.322 158.923 172.2 158.457 170.55 157.183L170.373 157.043C169.885 156.638 169.449 156.173 169.076 155.66C167.693 153.774 167.081 151.29 166.741 148.925C166.71 148.703 166.679 148.48 166.65 148.257C166.415 146.586 166.349 144.896 166.456 143.211C166.487 142.797 166.531 142.383 166.586 141.971C166.622 141.712 166.661 141.432 166.705 141.163C166.704 141.155 166.704 141.147 166.705 141.139C166.772 140.712 166.845 140.282 166.918 139.844C167.177 138.376 167.437 136.868 168.215 135.604C168.727 134.818 169.373 134.127 170.124 133.563C170.404 133.343 170.692 133.133 170.983 132.931C171.455 132.605 171.94 132.294 172.433 132.001C173.673 131.26 174.976 130.627 176.325 130.11C176.647 129.986 176.973 129.869 177.3 129.758C178.571 129.307 179.939 129.199 181.265 129.445C182.44 129.614 183.627 129.684 184.814 129.652C187.857 129.592 190.913 129.012 193.951 128.636C198.17 128.118 202.702 128.056 206.381 130.191C206.557 130.292 206.729 130.398 206.9 130.509C208.716 131.695 210.179 133.358 211.36 135.215C211.619 135.607 211.845 136.008 212.068 136.415C212.582 137.348 213.047 138.308 213.461 139.29C213.706 139.772 213.838 140.303 213.848 140.844C213.842 140.947 213.828 141.049 213.806 141.15C213.736 141.517 213.596 141.875 213.547 142.248C213.383 143.659 214.584 144.838 215.033 146.182C215.324 147.058 215.293 147.995 215.456 148.918C215.692 150.213 216.328 151.378 216.899 152.544C217.801 154.42 218.572 156.356 219.208 158.338C219.659 159.719 220.046 161.12 220.385 162.534C220.496 162.988 220.601 163.443 220.699 163.899C220.982 165.153 221.213 166.381 221.418 167.616Z" fill="#F86D70"/>
<path d="M249.077 129.258V131.071L248.742 131.066L248.368 131.061L244.197 131.009L233.918 130.875L231.033 130.838L230.286 130.828L225.955 130.774L219.853 130.693L206.907 130.525L184.443 130.235L176.335 130.131L173.082 130.09L170.088 130.051L168.223 130.025L166.456 130.002L153.357 129.833L149.725 129.787L148.933 129.776L148.42 128.453L144.686 118.841L144.004 117.084L144.523 115.012L146.858 116.566L148.295 116.745L171.958 119.682L176.4 120.234L185.818 121.405L195.043 122.55L198.66 122.998L220.061 125.655L226.041 126.399L230.991 127.013L248.592 129.199L249.077 129.258Z" fill="#3F3D56"/>
<path d="M144.523 115.012L149.193 127.186L249.077 129.258V116.048L144.523 115.012Z" fill="#504F60"/>
<path d="M149.715 128.481L150.493 202.82L154.125 202.302L153.347 128.481H149.715Z" fill="#3F3D56"/>
<path d="M248.743 131.064H248.37C247.765 135.698 246.764 140.273 245.378 144.737L244.198 131.009L244.148 130.424L248.512 129.921L248.657 129.906L248.743 131.064Z" fill="#3F3D56"/>
<path d="M234.547 122.265L196.539 123.042L184.734 119.157L216.386 117.344L234.547 122.265Z" fill="white"/>
<path d="M186.875 107.159C186.472 107.313 186.115 107.567 185.837 107.897C185.62 108.254 185.488 108.656 185.45 109.073L184.812 112.873C184.715 113.22 184.732 113.59 184.861 113.927C185.028 114.245 185.51 114.411 185.751 114.147C185.72 114.89 185.785 115.683 186.218 116.289C186.652 116.895 187.56 117.214 188.172 116.792C188.268 116.948 188.397 117.081 188.55 117.183C188.702 117.284 188.876 117.351 189.057 117.38C189.238 117.408 189.424 117.396 189.6 117.345C189.777 117.295 189.94 117.207 190.079 117.087C189.71 117.211 189.684 117.773 189.946 118.058C190.24 118.317 190.614 118.466 191.005 118.48C195.564 119.122 200.212 118.538 204.47 116.789C204.872 116.623 203.814 111.673 203.707 111.166C203.448 109.972 203.318 108.513 202.309 107.71C199.896 105.788 195.61 105.41 192.671 105.638C190.662 105.79 188.698 106.305 186.875 107.159Z" fill="#FBBEBE"/>
<path opacity="0.1" d="M225.543 107.734C216.159 107.913 206.58 108.065 197.624 105.26C198.48 108.57 198.421 112.049 197.453 115.328L241.329 118.955C243.19 119.107 250.903 119.978 252.716 119.54C254.53 119.102 237.5 113.502 238.188 111.769C240.079 106.996 246.414 104.198 241.851 104.02C236.091 103.792 231.346 107.625 225.543 107.734Z" fill="black"/>
<path d="M225.804 108.252C216.42 108.43 206.842 108.583 197.886 105.778C198.742 109.088 198.682 112.567 197.715 115.846L241.591 119.472C243.451 119.625 251.164 120.509 252.978 120.058C254.791 119.607 254.366 117.387 255.053 115.654C256.945 110.881 246.676 104.716 242.113 104.537C236.353 104.309 231.608 108.143 225.804 108.252Z" fill="#464353"/>
<path d="M210.883 108.972C211.286 109.126 211.643 109.38 211.92 109.71C212.137 110.068 212.27 110.47 212.31 110.886L212.948 114.686C213.044 115.034 213.027 115.403 212.898 115.74C212.732 116.059 212.247 116.224 212.009 115.96C212.037 116.704 211.975 117.496 211.542 118.102C211.108 118.708 210.2 119.027 209.585 118.605C209.489 118.761 209.361 118.894 209.208 118.996C209.055 119.098 208.882 119.165 208.7 119.193C208.519 119.221 208.334 119.209 208.157 119.159C207.981 119.108 207.817 119.02 207.679 118.9C208.047 119.024 208.076 119.586 207.813 119.871C207.519 120.13 207.144 120.279 206.752 120.294C202.194 120.935 197.547 120.351 193.29 118.602C192.888 118.436 193.944 113.487 194.053 112.979C194.312 111.785 194.442 110.327 195.451 109.524C197.861 107.602 202.15 107.224 205.089 107.451C207.097 107.603 209.06 108.119 210.883 108.972Z" fill="#FBBEBE"/>
<path d="M148.878 100.722C148.017 101.831 147.153 102.963 146.598 104.255C145.537 106.721 145.692 109.513 145.869 112.191C145.918 112.968 145.98 113.761 146.388 114.406C146.74 114.893 147.204 115.289 147.742 115.559C149.989 116.833 152.62 117.214 155.188 117.499C159.121 117.934 163.068 118.199 167.029 118.294C176.841 118.532 186.803 117.732 196.361 119.952C195.178 118.157 195.18 115.781 195.842 113.735C196.504 111.689 197.777 109.907 199.025 108.153C194.651 106.77 189.961 108.93 185.379 108.715C180.675 108.495 176.322 105.781 171.613 105.783C170.601 105.783 169.571 105.91 168.588 105.667C167.605 105.423 166.653 104.682 166.562 103.675C167.817 103.957 169.008 102.885 169.527 101.709C170.046 100.533 170.139 99.2042 170.643 98.0205C171.896 95.0755 175.282 93.7104 177.388 91.286C177.72 90.9027 178.034 90.4494 178.024 89.9417C177.974 89.5116 177.793 89.1073 177.505 88.7839C175.754 86.4527 173.115 85.1576 170.923 83.3445C170.16 82.7125 168.622 80.3295 167.766 80.1093C166.178 79.7027 164.831 81.9924 163.799 83.1088C158.586 88.764 153.612 94.6351 148.878 100.722Z" fill="#464353"/>
<path opacity="0.07" d="M201.047 100.064C201.704 100.551 202.289 101.13 202.783 101.782C203.028 102.109 203.204 102.484 203.297 102.883C203.39 103.281 203.4 103.695 203.325 104.097C203.244 103.347 203.412 102.59 203.802 101.943C204.192 101.297 204.784 100.795 205.486 100.515L201.047 100.064Z" fill="black"/>
<g opacity="0.1">
<path opacity="0.1" d="M215.432 32.1393C215.127 31.3298 214.775 30.5384 214.379 29.7693C214.122 29.8185 213.869 29.8833 213.621 29.9636C214.066 30.7017 214.467 31.4654 214.822 32.2507C215.022 32.1989 215.224 32.1626 215.432 32.1393Z" fill="black"/>
<path opacity="0.1" d="M230.484 42.3525C230.555 42.4097 230.622 42.4747 230.69 42.5344C230.685 42.5176 230.679 42.5011 230.672 42.4851C230.613 42.4418 230.55 42.3976 230.484 42.3525Z" fill="black"/>
<path opacity="0.1" d="M206.368 43.4921C206.503 43.3859 206.627 43.2745 206.772 43.1709L206.731 41.9406L203.96 41.9121C203.511 42.3239 203.034 42.9145 203.299 43.4662L206.368 43.4921Z" fill="black"/>
<path opacity="0.1" d="M236.659 64.2033C236.167 65.1203 235.456 65.9802 234.483 66.3506C233.733 66.6355 232.908 66.6096 232.106 66.5734C229.372 66.462 226.591 66.3402 224.007 65.4363C222.798 65.0115 221.641 64.4183 220.374 64.1567C218.893 63.8511 217.36 64.0246 215.858 64.2008L209.237 64.9778C207.283 65.2057 205.106 65.3767 203.547 64.18C202.655 63.4962 202.079 62.4317 201.101 61.8825C200.688 61.6494 200.198 61.4992 199.931 61.1055C199.762 60.8131 199.673 60.4819 199.671 60.1445C199.65 59.8726 199.638 59.6006 199.627 59.3286C199.599 60.1188 199.614 60.91 199.671 61.6986C199.673 62.036 199.762 62.3672 199.931 62.6596C200.19 63.0507 200.688 63.2009 201.101 63.4366C202.079 63.9858 202.657 65.0503 203.547 65.7341C205.104 66.9308 207.283 66.7702 209.237 66.5319L215.858 65.7549C217.36 65.5787 218.893 65.4052 220.374 65.7108C221.63 65.9699 222.787 66.5656 224.007 66.9904C226.601 67.8944 229.372 68.0265 232.106 68.1275C232.908 68.1612 233.733 68.1896 234.483 67.9047C235.456 67.5343 236.167 66.6744 236.659 65.7575C237.614 63.9832 237.881 61.9706 237.78 59.9425C237.725 61.4277 237.342 62.8825 236.659 64.2033Z" fill="black"/>
</g>
<path opacity="0.1" d="M215.355 33.8047L218.988 37.1719C218.988 37.1719 215.874 35.8768 215.355 33.8047Z" fill="black"/>
</g>
<defs>
<clipPath id="clip0_2846_41537">
<rect width="269" height="208" fill="white" transform="translate(0.140625)"/>
</clipPath>
</defs>
</svg>
