<svg width="291" height="178" viewBox="0 0 291 178" fill="none" xmlns="http://www.w3.org/2000/svg">
<g clip-path="url(#clip0_2846_41602)">
<path d="M242.193 168.184H231.539V177.5H242.193V168.184Z" fill="#F0F0F0"/>
<path d="M290.134 78.7526C290.139 92.7998 286.327 106.589 279.099 118.673C271.872 130.757 261.495 140.69 249.057 147.429C248.352 147.811 247.638 148.183 246.92 148.543C244.259 149.888 241.521 151.078 238.72 152.108C237.604 152.524 236.477 152.911 235.339 153.27C235.229 153.307 235.117 153.344 235.007 153.375C223.857 156.883 212.058 157.888 200.468 156.315C188.878 154.742 177.786 150.632 167.998 144.283C166.685 143.432 165.399 142.544 164.14 141.619C163.429 141.094 162.727 140.56 162.035 140.01C160.076 138.47 158.196 136.838 156.394 135.113C148.734 127.822 142.643 119.07 138.486 109.384C134.329 99.6976 132.193 89.2782 132.207 78.7526C132.207 35.5336 167.559 0.5 211.171 0.5C254.782 0.5 290.134 35.5336 290.134 78.7526Z" fill="#F2F2F2"/>
<path d="M230.03 115.271L228.25 121.941L235.009 153.375C216.841 159.046 197.22 158.047 179.734 150.559L185.011 128.633L185.187 116.739L185.76 77.5231L185.904 77.4485C185.913 77.4431 185.922 77.4389 185.932 77.4361L199.375 70.5952L222.569 70.0208L239.875 78.3739L239.744 78.8614L230.03 115.271Z" fill="#3F3D56"/>
<path d="M239.514 172.576C238.982 171.948 238.594 171.211 238.38 170.419C238.166 169.626 238.129 168.796 238.274 167.988C238.418 167.18 238.739 166.413 239.215 165.741C239.69 165.07 240.309 164.509 241.026 164.1L237.262 144.504L246.917 148.491L249.012 166.489C249.626 167.729 249.759 169.15 249.387 170.481C249.014 171.813 248.162 172.963 246.991 173.713C245.821 174.463 244.413 174.762 243.035 174.553C241.657 174.343 240.404 173.64 239.514 172.576Z" fill="#9E616A"/>
<path d="M236.383 78.9836L238.861 78.1846C238.861 78.1846 246.72 83.1829 245.972 95.2673C245.972 95.2673 246.267 101.521 245.985 105.682C245.663 110.456 249.986 157.89 249.986 157.89H235.982L229.98 114.934L236.383 78.9836Z" fill="#3F3D56"/>
<path d="M228.266 48.579C228.266 51.7303 227.323 54.8109 225.556 57.4311C223.789 60.0513 221.278 62.0936 218.34 63.2995C215.402 64.5055 212.17 64.821 209.051 64.2062C205.932 63.5914 203.067 62.0739 200.819 59.8456C198.57 57.6173 197.039 54.7782 196.418 51.6874C195.798 48.5967 196.116 45.393 197.333 42.4815C198.55 39.5701 200.611 37.0816 203.255 35.3308C205.899 33.58 209.008 32.6456 212.187 32.6456H212.188C214.294 32.6403 216.38 33.0463 218.328 33.8402C220.276 34.6341 222.047 35.8005 223.54 37.2727C225.033 38.7448 226.219 40.494 227.03 42.4204C227.84 44.3467 228.26 46.4124 228.266 48.4996C228.266 48.5261 228.266 48.5525 228.266 48.579Z" fill="#9E616A"/>
<path d="M196.159 27.177C198.042 23.1634 201.687 23.9569 204.875 25.3174C208.912 24.4301 212.751 21.7735 217.1 23.3446C221.384 29.5198 235.769 27.7029 232.708 37.7562C232.704 40.1651 237.283 38.763 236.483 42.7083C238.909 50.3011 227.729 64.6806 221.312 61.6525C222.899 58.7698 226.525 52.2223 221.026 51.5729C209.196 62.4808 219.805 30.8017 204.941 40.0145C200.02 44.4778 193.282 31.6415 196.159 27.177Z" fill="#2F2E41"/>
<path d="M220.767 154.988L195.102 149.951L201.682 117.023C210.764 120.427 219.319 122.106 227.347 122.06C220.331 132.258 217.143 143.208 220.767 154.988Z" fill="#E4E4E4"/>
<path d="M217.033 156.923L191.368 151.885C189.261 136.968 191.176 125.736 197.949 118.957C207.03 122.361 215.585 124.04 223.614 123.995C219.372 134.469 217.14 145.637 217.033 156.923Z" fill="#EF293D"/>
<path d="M200.028 147.75C199.926 146.936 199.645 146.153 199.206 145.458C198.766 144.763 198.177 144.171 197.482 143.726C196.787 143.28 196.001 142.991 195.181 142.879C194.36 142.767 193.525 142.834 192.734 143.077L180.815 127.001L177.188 136.725L189.062 150.499C189.561 151.789 190.52 152.853 191.758 153.49C192.995 154.126 194.426 154.29 195.777 153.951C197.129 153.612 198.308 152.794 199.092 151.651C199.875 150.508 200.208 149.12 200.028 147.75Z" fill="#9E616A"/>
<path d="M189.343 78.3708L187.184 76.9258C187.184 76.9258 174.336 78.1112 171.693 89.9314C171.693 89.9314 169.76 97.0331 168.872 101.11C168.416 103.207 162.328 123.468 162.328 123.468L182.973 145.826L188.613 137.442L182.973 123.468L189.343 78.3708Z" fill="#3F3D56"/>
<path d="M10.7905 39.7876H0.136719V49.1034H10.7905V39.7876Z" fill="#EF293D"/>
<path d="M33.6655 77.0508H23.0117V86.3666H33.6655V77.0508Z" fill="#EF293D"/>
<path d="M50.271 140.709H39.6172V150.025H50.271V140.709Z" fill="#EF293D"/>
<path d="M39.6947 18.4016C39.3789 18.4016 39.076 18.5259 38.8527 18.7472C38.6294 18.9685 38.5039 19.2687 38.5039 19.5816C38.5039 19.8946 38.6294 20.1948 38.8527 20.4161C39.076 20.6374 39.3789 20.7617 39.6947 20.7617H126.634C126.949 20.761 127.251 20.6363 127.474 20.4151C127.697 20.1939 127.822 19.8941 127.822 19.5816C127.822 19.2691 127.697 18.9694 127.474 18.7482C127.251 18.527 126.949 18.4023 126.634 18.4016H39.6947Z" fill="#E4E4E4"/>
<path d="M39.6944 25.4817C39.5379 25.4812 39.3829 25.5113 39.2381 25.5703C39.0934 25.6292 38.9618 25.7158 38.8509 25.8252C38.74 25.9345 38.6519 26.0645 38.5917 26.2076C38.5315 26.3507 38.5003 26.5042 38.5 26.6592C38.4997 26.8143 38.5302 26.9679 38.5898 27.1113C38.6494 27.2546 38.7369 27.3849 38.8474 27.4948C38.9578 27.6046 39.089 27.6918 39.2335 27.7513C39.378 27.8108 39.5329 27.8416 39.6893 27.8418H94.653C94.9688 27.8418 95.2717 27.7174 95.495 27.4961C95.7183 27.2748 95.8438 26.9747 95.8438 26.6617C95.8438 26.3488 95.7183 26.0486 95.495 25.8273C95.2717 25.606 94.9688 25.4817 94.653 25.4817H39.6944Z" fill="#E4E4E4"/>
<path d="M28.4173 103.175C28.1015 103.175 27.7986 103.299 27.5753 103.521C27.352 103.742 27.2266 104.042 27.2266 104.355C27.2266 104.668 27.352 104.968 27.5753 105.19C27.7986 105.411 28.1015 105.535 28.4173 105.535H115.356C115.672 105.534 115.974 105.41 116.196 105.189C116.419 104.967 116.544 104.668 116.544 104.355C116.544 104.043 116.419 103.743 116.196 103.522C115.974 103.3 115.672 103.176 115.356 103.175H28.4173Z" fill="#E4E4E4"/>
<path d="M28.4131 110.256C28.2566 110.255 28.1016 110.285 27.9569 110.344C27.8122 110.403 27.6806 110.49 27.5697 110.599C27.4588 110.708 27.3707 110.838 27.3105 110.982C27.2502 111.125 27.2191 111.278 27.2188 111.433C27.2184 111.588 27.2489 111.742 27.3085 111.885C27.3681 112.029 27.4557 112.159 27.5661 112.269C27.6766 112.379 27.8078 112.466 27.9523 112.525C28.0967 112.585 28.2516 112.616 28.4081 112.616H83.3718C83.6876 112.616 83.9904 112.491 84.2138 112.27C84.4371 112.049 84.5625 111.749 84.5625 111.436C84.5625 111.123 84.4371 110.823 84.2138 110.601C83.9904 110.38 83.6876 110.256 83.3718 110.256H28.4131Z" fill="#E4E4E4"/>
<path d="M77.9251 163.728C77.6093 163.728 77.3064 163.853 77.0831 164.074C76.8598 164.295 76.7344 164.595 76.7344 164.908C76.7344 165.221 76.8598 165.521 77.0831 165.743C77.3064 165.964 77.6093 166.088 77.9251 166.088H164.864C165.179 166.088 165.482 165.963 165.704 165.742C165.927 165.521 166.052 165.221 166.052 164.908C166.052 164.596 165.927 164.296 165.704 164.075C165.482 163.854 165.179 163.729 164.864 163.728H77.9251Z" fill="#E4E4E4"/>
<path d="M77.9248 170.808C77.7684 170.808 77.6133 170.838 77.4686 170.897C77.3239 170.956 77.1923 171.042 77.0814 171.152C76.9705 171.261 76.8824 171.391 76.8222 171.534C76.762 171.677 76.7308 171.831 76.7305 171.986C76.7301 172.141 76.7606 172.294 76.8203 172.438C76.8799 172.581 76.9674 172.711 77.0778 172.821C77.1883 172.931 77.3195 173.018 77.464 173.078C77.6084 173.137 77.7633 173.168 77.9198 173.168H132.884C133.199 173.168 133.502 173.044 133.725 172.823C133.949 172.601 134.074 172.301 134.074 171.988C134.074 171.675 133.949 171.375 133.725 171.154C133.502 170.932 133.199 170.808 132.884 170.808H77.9248Z" fill="#E4E4E4"/>
<path d="M5.14355 44.4876C7.69584 43.9321 10.1103 42.8765 12.2449 41.3829C14.3796 39.8893 16.1913 37.9878 17.5736 35.7902C18.3584 34.5408 18.9909 33.2035 19.4579 31.8064C19.4932 31.6908 19.4817 31.566 19.426 31.4585C19.3703 31.351 19.2747 31.2692 19.1593 31.2302C19.0438 31.1913 18.9176 31.1982 18.8073 31.2497C18.697 31.3011 18.6111 31.393 18.5678 31.506C17.7665 33.841 16.5019 35.9936 14.8483 37.8368C13.1947 39.68 11.1856 41.1767 8.93933 42.2386C7.67363 42.838 6.34038 43.2857 4.96778 43.5724C4.37569 43.6961 4.55021 44.6116 5.14355 44.4876Z" fill="#3F3D56"/>
<path d="M14.3066 33.5906C16.0011 32.6449 17.6956 31.6992 19.3901 30.7535C19.4686 30.7099 19.6884 30.5449 19.7705 30.5646C19.7047 30.5488 19.7644 30.5971 19.7663 30.6561C19.769 30.7355 19.7791 30.8162 19.7821 30.8961C19.8005 31.3865 19.8095 31.8775 19.8232 32.368L19.902 35.1892C19.9186 35.783 20.8567 35.8536 20.84 35.2528L20.7475 31.941C20.7263 31.182 20.9178 29.4986 19.677 29.6441C19.2292 29.6966 18.8152 30.0075 18.4332 30.2207L16.8861 31.0842L13.9022 32.7494C13.3768 33.0427 13.7788 33.8851 14.3066 33.5906V33.5906Z" fill="#3F3D56"/>
<path d="M28.434 81.6756C25.9076 82.3327 23.5392 83.4836 21.4681 85.0607C19.3969 86.6378 17.6648 88.6092 16.3734 90.8591C15.6403 92.138 15.0629 93.4985 14.6535 94.9123C14.6252 95.0298 14.644 95.1537 14.706 95.2577C14.7681 95.3617 14.8685 95.4378 14.986 95.47C15.1036 95.5021 15.2291 95.4877 15.3362 95.4299C15.4433 95.372 15.5235 95.2752 15.5599 95.1599C16.2694 92.7941 17.4495 90.5929 19.0307 88.6862C20.612 86.7794 22.5624 85.2056 24.767 84.0575C26.0085 83.4105 27.3234 82.9124 28.6839 82.5739C29.2701 82.4273 29.0217 81.5286 28.434 81.6756L28.434 81.6756Z" fill="#3F3D56"/>
<path d="M19.7182 92.9287L14.8059 95.93C14.7217 95.9814 14.639 96.0376 14.5514 96.0833C14.4644 96.1287 14.3749 96.1273 14.4312 96.182C14.3553 96.1082 14.3747 95.8346 14.369 95.751L14.2733 94.3431L14.082 91.5273C14.0415 90.9323 13.1012 90.9278 13.1419 91.5273L13.3666 94.8328C13.4177 95.5855 13.2762 97.1433 14.439 97.0803C14.9567 97.0523 15.4499 96.6308 15.8742 96.3716L17.2777 95.5141L20.1927 93.7331C20.7067 93.4191 20.2351 92.6129 19.7182 92.9287V92.9287Z" fill="#3F3D56"/>
<path d="M44.6003 144.99C47.0096 145.615 49.2682 146.712 51.2431 148.216C53.2179 149.719 54.8691 151.6 56.0991 153.746C56.7926 154.954 57.3381 156.24 57.7242 157.576C57.7607 157.691 57.8409 157.788 57.948 157.846C58.0551 157.904 58.1806 157.918 58.2981 157.886C58.4157 157.854 58.5161 157.778 58.5781 157.674C58.6402 157.57 58.659 157.446 58.6307 157.328C57.8891 154.847 56.6544 152.537 54.9991 150.534C53.3438 148.532 51.3012 146.878 48.9916 145.669C47.679 144.983 46.2888 144.453 44.8502 144.092C44.2635 143.945 44.0132 144.843 44.6003 144.99Z" fill="#3F3D56"/>
<path d="M53.0893 156.149L56.0043 157.93L57.4078 158.788C57.8332 159.048 58.3245 159.468 58.843 159.497C60.0055 159.559 59.8643 158.002 59.9154 157.249L60.1401 153.944C60.1808 153.345 59.2405 153.348 59.2 153.944L59.0087 156.759L58.9172 158.106C58.9102 158.209 58.9374 158.513 58.8508 158.598C58.9126 158.537 58.8482 158.566 58.7792 158.525C58.6789 158.464 58.5762 158.407 58.4761 158.346L53.5638 155.345C53.0474 155.03 52.5747 155.835 53.0893 156.149Z" fill="#3F3D56"/>
<path d="M21.4455 27.0561C23.8682 27.0561 25.8323 25.1097 25.8323 22.7087C25.8323 20.3077 23.8682 18.3613 21.4455 18.3613C19.0227 18.3613 17.0586 20.3077 17.0586 22.7087C17.0586 25.1097 19.0227 27.0561 21.4455 27.0561Z" fill="#EF293D"/>
<path d="M13.922 112.243C16.3448 112.243 18.3089 110.296 18.3089 107.895C18.3089 105.494 16.3448 103.548 13.922 103.548C11.4992 103.548 9.53516 105.494 9.53516 107.895C9.53516 110.296 11.4992 112.243 13.922 112.243Z" fill="#EF293D"/>
<path d="M61.2384 172.693C63.6612 172.693 65.6253 170.746 65.6253 168.345C65.6253 165.944 63.6612 163.998 61.2384 163.998C58.8156 163.998 56.8516 165.944 56.8516 168.345C56.8516 170.746 58.8156 172.693 61.2384 172.693Z" fill="#EF293D"/>
</g>
<defs>
<clipPath id="clip0_2846_41602">
<rect width="290" height="177" fill="white" transform="translate(0.136719 0.5)"/>
</clipPath>
</defs>
</svg>
