<svg width="186" height="235" viewBox="0 0 186 235" fill="none" xmlns="http://www.w3.org/2000/svg">
<g clip-path="url(#clip0_2846_41504)">
<path d="M40.5204 176.202H141.006C141.715 176.201 142.395 175.919 142.897 175.417C143.398 174.915 143.68 174.234 143.681 173.524L148.266 2.536C148.266 2.18368 148.198 1.83467 148.064 1.5089C147.93 1.18313 147.733 0.886979 147.484 0.637364C147.236 0.387749 146.941 0.189556 146.616 0.0540995C146.291 -0.0813573 145.943 -0.151425 145.591 -0.1521H45.1053C44.3962 -0.151304 43.7164 0.13108 43.215 0.633097C42.7136 1.13511 42.4316 1.81577 42.4308 2.52573L41.6001 33.5017L42.3639 33.5223L43.1948 2.536C43.1941 2.28411 43.2429 2.03455 43.3385 1.80156C43.4341 1.56857 43.5747 1.35673 43.7521 1.17815C43.9295 0.999561 44.1403 0.857728 44.3725 0.760757C44.6047 0.663785 44.8537 0.613576 45.1053 0.612994H145.591C146.098 0.613582 146.583 0.815293 146.941 1.17387C147.3 1.53245 147.501 2.01862 147.502 2.52573L142.917 173.514C142.918 173.766 142.869 174.015 142.773 174.248C142.677 174.481 142.537 174.693 142.36 174.872C142.182 175.05 141.971 175.192 141.739 175.289C141.507 175.386 141.258 175.436 141.006 175.437H40.5204C40.0139 175.436 39.5283 175.235 39.1702 174.876C38.812 174.517 38.6106 174.031 38.61 173.524L39.5022 140.253L38.7384 140.232L37.846 173.514C37.8453 173.866 37.9139 174.215 38.0479 174.541C38.182 174.867 38.3788 175.163 38.6271 175.412C38.8755 175.662 39.1705 175.86 39.4953 175.996C39.8202 176.131 40.1685 176.201 40.5204 176.202Z" fill="#CCCCCC"/>
<path d="M40.3688 79.4072L41.1328 79.4277L40.7391 94.1121L39.9751 94.0915L40.3688 79.4072Z" fill="#CCCCCC"/>
<path d="M49.5378 161.133H132.777C133.381 161.132 133.961 160.891 134.389 160.463C134.816 160.035 135.057 159.455 135.058 158.849L138.855 17.2107C138.856 16.9101 138.798 16.6123 138.684 16.3343C138.569 16.0563 138.402 15.8035 138.19 15.5905C137.978 15.3774 137.726 15.2083 137.449 15.0926C137.172 14.977 136.875 14.9171 136.575 14.9165H53.3358C52.731 14.9172 52.1512 15.158 51.7236 15.5862C51.296 16.0144 51.0554 16.5949 51.0547 17.2004L50.3669 33.4958L51.1303 33.5279L51.8185 17.2165C51.8172 17.0158 51.8554 16.8169 51.9309 16.6311C52.0065 16.4453 52.118 16.2763 52.259 16.1337C52.3999 15.9911 52.5676 15.8778 52.7524 15.8002C52.9372 15.7226 53.1354 15.6823 53.3358 15.6816H136.575C136.977 15.6821 137.362 15.8423 137.647 16.127C137.931 16.4117 138.091 16.7977 138.091 17.2004L134.294 158.839C134.294 159.039 134.256 159.237 134.18 159.423C134.104 159.608 133.993 159.776 133.852 159.918C133.711 160.06 133.543 160.173 133.359 160.25C133.174 160.327 132.977 160.367 132.777 160.368H49.5378C49.1356 160.367 48.7501 160.207 48.4657 159.923C48.1813 159.638 48.0213 159.252 48.0209 158.849L48.5127 140.252L47.7489 140.232L47.2569 158.839C47.2562 159.14 47.3146 159.437 47.4288 159.715C47.5431 159.993 47.7109 160.246 47.9227 160.459C48.1345 160.672 48.3862 160.841 48.6633 160.957C48.9404 161.073 49.2376 161.132 49.5378 161.133Z" fill="#CCCCCC"/>
<path d="M49.3454 79.7901L50.1094 79.8103L49.7251 94.3471L48.9611 94.3268L49.3454 79.7901Z" fill="#CCCCCC"/>
<path d="M27.3913 79.8006H124.821C125.526 79.7998 126.202 79.5204 126.703 79.0232C127.204 78.5259 127.488 77.8509 127.495 77.1448L129.023 35.8077C129.023 35.0978 128.741 34.4171 128.239 33.9151C127.738 33.4131 127.058 33.1307 126.349 33.1299H28.9196C28.2143 33.1306 27.5378 33.41 27.037 33.9073C26.5363 34.4045 26.2517 35.0795 26.2451 35.7857L24.7168 77.1227C24.7175 77.8327 24.9996 78.5134 25.501 79.0154C26.0024 79.5174 26.6822 79.7998 27.3913 79.8006ZM128.259 35.7875L126.731 77.1227C126.73 77.6299 126.529 78.116 126.171 78.4746C125.813 78.8332 125.327 79.0349 124.821 79.0355H27.3913C26.8883 79.0349 26.4058 78.8359 26.0482 78.4817C25.6907 78.1275 25.4869 77.6465 25.481 77.1429L27.0092 35.8077C27.0098 35.3006 27.2112 34.8144 27.5694 34.4558C27.9275 34.0973 28.4131 33.8956 28.9196 33.895H126.349C126.852 33.8956 127.334 34.0945 127.692 34.4487C128.05 34.803 128.253 35.284 128.259 35.7875Z" fill="#3F3D56"/>
<path d="M9.05145 140.625H106.481C107.186 140.624 107.863 140.345 108.363 139.848C108.864 139.35 109.149 138.675 109.155 137.969L110.684 96.6322C110.683 95.9222 110.401 95.2416 109.899 94.7395C109.398 94.2375 108.718 93.9551 108.009 93.9543H10.5798C9.87447 93.9551 9.19796 94.2345 8.6972 94.7317C8.19644 95.229 7.91189 95.904 7.90532 96.6101L6.37692 137.947C6.37772 138.657 6.65975 139.338 7.16116 139.84C7.66255 140.342 8.34237 140.624 9.05145 140.625ZM109.919 96.612L108.391 137.947C108.391 138.454 108.189 138.94 107.831 139.299C107.473 139.658 106.987 139.859 106.481 139.86H9.05145C8.54846 139.859 8.06593 139.66 7.70838 139.306C7.35084 138.952 7.14707 138.471 7.14117 137.967L8.66938 96.6322C8.66996 96.1251 8.87141 95.6389 9.22955 95.2803C9.58769 94.9217 10.0733 94.72 10.5798 94.7194H108.009C108.512 94.72 108.995 94.919 109.352 95.2732C109.71 95.6274 109.913 96.1084 109.919 96.612Z" fill="#3F3D56"/>
<path d="M83.3603 102.944C84.0189 102.944 84.6506 103.206 85.1164 103.672C85.5821 104.139 85.8438 104.771 85.8438 105.431C85.8438 106.09 85.5821 106.723 85.1164 107.189C84.6506 107.655 84.0189 107.917 83.3603 107.917H33.6904C33.0317 107.917 32.4001 107.655 31.9343 107.189C31.4686 106.723 31.2069 106.09 31.2069 105.431C31.2069 104.771 31.4686 104.139 31.9343 103.672C32.4001 103.206 33.0317 102.944 33.6904 102.944H83.3603Z" fill="white"/>
<path d="M83.3603 114.803C84.0189 114.803 84.6506 115.065 85.1164 115.532C85.5821 115.998 85.8438 116.63 85.8438 117.29C85.8438 117.949 85.5821 118.582 85.1164 119.048C84.6506 119.514 84.0189 119.776 83.3603 119.776H33.6904C33.0317 119.776 32.4001 119.514 31.9343 119.048C31.4686 118.582 31.2069 117.949 31.2069 117.29C31.2069 116.63 31.4686 115.998 31.9343 115.532C32.4001 115.065 33.0317 114.803 33.6904 114.803H83.3603Z" fill="#EF293D"/>
<path d="M83.3603 126.662C84.0189 126.662 84.6506 126.924 85.1164 127.39C85.5821 127.856 85.8438 128.489 85.8438 129.148C85.8438 129.808 85.5821 130.44 85.1164 130.907C84.6506 131.373 84.0189 131.635 83.3603 131.635H33.6904C33.0317 131.635 32.4001 131.373 31.9343 130.907C31.4686 130.44 31.2069 129.808 31.2069 129.148C31.2069 128.489 31.4686 127.856 31.9343 127.39C32.4001 126.924 33.0317 126.662 33.6904 126.662H83.3603Z" fill="white"/>
<path d="M101.704 42.1194C102.363 42.1194 102.994 42.3814 103.46 42.8477C103.926 43.314 104.188 43.9465 104.188 44.6059C104.188 45.2654 103.926 45.8979 103.46 46.3642C102.994 46.8305 102.363 47.0925 101.704 47.0925H52.0342C51.3755 47.0925 50.7438 46.8305 50.2781 46.3642C49.8123 45.8979 49.5507 45.2654 49.5507 44.6059C49.5507 43.9465 49.8123 43.314 50.2781 42.8477C50.7438 42.3814 51.3755 42.1194 52.0342 42.1194H101.704Z" fill="#EF293D"/>
<path d="M101.704 53.9788C102.363 53.9788 102.994 54.2407 103.46 54.7071C103.926 55.1734 104.188 55.8058 104.188 56.4653C104.188 57.1248 103.926 57.7572 103.46 58.2236C102.994 58.6899 102.363 58.9519 101.704 58.9519H52.0342C51.3755 58.9519 50.7438 58.6899 50.2781 58.2236C49.8123 57.7572 49.5507 57.1248 49.5507 56.4653C49.5507 55.8058 49.8123 55.1734 50.2781 54.7071C50.7438 54.2407 51.3755 53.9788 52.0342 53.9788H101.704Z" fill="white"/>
<path d="M101.704 65.8369C102.363 65.8369 102.994 66.0989 103.46 66.5652C103.926 67.0315 104.188 67.664 104.188 68.3235C104.188 68.9829 103.926 69.6154 103.46 70.0817C102.994 70.548 102.363 70.81 101.704 70.81H52.0342C51.3755 70.81 50.7438 70.548 50.2781 70.0817C49.8123 69.6154 49.5507 68.9829 49.5507 68.3235C49.5507 67.664 49.8123 67.0315 50.2781 66.5652C50.7438 66.0989 51.3755 65.8369 52.0342 65.8369H101.704Z" fill="white"/>
<path d="M94.6324 11.3243C92.5222 11.3243 90.8116 9.61155 90.8116 7.49881C90.8116 5.38606 92.5222 3.67334 94.6324 3.67334C96.7425 3.67334 98.4531 5.38606 98.4531 7.49881C98.4531 9.61155 96.7425 11.3243 94.6324 11.3243Z" fill="#E6E6E6"/>
<path d="M209.762 220.742H94.7571C94.6557 220.742 94.5585 220.701 94.4869 220.63C94.4152 220.558 94.375 220.461 94.375 220.359C94.375 220.258 94.4152 220.16 94.4869 220.089C94.5585 220.017 94.6557 219.977 94.7571 219.977H209.762C209.863 219.977 209.96 220.017 210.032 220.089C210.104 220.16 210.144 220.258 210.144 220.359C210.144 220.461 210.104 220.558 210.032 220.63C209.96 220.701 209.863 220.742 209.762 220.742Z" fill="#3F3D56"/>
<path d="M137.959 216.361H133.276L131.047 198.271L137.961 198.272L137.959 216.361Z" fill="#FFB8B8"/>
<path d="M129.93 215.021H138.964V220.716H124.242C124.242 219.968 124.389 219.228 124.675 218.537C124.961 217.846 125.38 217.218 125.908 216.689C126.436 216.16 127.063 215.741 127.753 215.455C128.443 215.168 129.183 215.021 129.93 215.021Z" fill="#2F2E41"/>
<path d="M171.947 211.048L167.686 212.997L158.152 197.47L164.441 194.594L171.947 211.048Z" fill="#FFB8B8"/>
<path d="M164.092 213.169L172.309 209.412L174.672 214.592L161.281 220.716C160.971 220.035 160.797 219.3 160.771 218.553C160.744 217.806 160.864 217.06 161.125 216.36C161.386 215.659 161.783 215.017 162.292 214.469C162.801 213.922 163.412 213.48 164.092 213.169Z" fill="#2F2E41"/>
<path d="M158.303 155.367C158.752 155.029 159.121 154.596 159.385 154.1C159.649 153.603 159.801 153.055 159.83 152.493C159.859 151.932 159.765 151.37 159.554 150.849C159.343 150.328 159.021 149.859 158.609 149.476L164.116 136.967L157.12 138.154L152.964 149.851C152.367 150.586 152.06 151.514 152.101 152.46C152.142 153.406 152.529 154.304 153.187 154.983C153.845 155.663 154.729 156.078 155.672 156.149C156.615 156.219 157.551 155.941 158.303 155.367Z" fill="#FFB8B8"/>
<path d="M137.661 211.591H133.187C132.753 211.589 132.335 211.424 132.017 211.128C131.699 210.832 131.505 210.427 131.472 209.994L126.739 144.748C126.721 144.498 126.757 144.247 126.846 144.012C126.935 143.778 127.074 143.566 127.253 143.391C127.432 143.216 127.648 143.082 127.884 142.999C128.12 142.916 128.372 142.885 128.621 142.91L156.793 145.661C157.212 145.702 157.602 145.896 157.888 146.206C158.174 146.516 158.337 146.92 158.345 147.342L158.887 176.123C158.89 176.279 158.921 176.434 158.977 176.58L169.593 204.143C169.675 204.356 169.714 204.583 169.707 204.811C169.701 205.04 169.649 205.264 169.555 205.472C169.461 205.68 169.327 205.867 169.16 206.023C168.993 206.178 168.797 206.299 168.583 206.378L164.048 208.05C163.654 208.196 163.221 208.192 162.83 208.039C162.439 207.887 162.117 207.596 161.925 207.223L148.884 181.833C148.813 181.695 148.761 181.548 148.729 181.396L146.502 170.649C146.437 170.337 146.264 170.059 146.013 169.864C145.762 169.668 145.449 169.569 145.132 169.584C144.814 169.598 144.512 169.725 144.28 169.942C144.047 170.159 143.9 170.452 143.864 170.769L139.37 210.065C139.322 210.485 139.121 210.873 138.806 211.154C138.491 211.435 138.084 211.591 137.661 211.591Z" fill="#2F2E41"/>
<path d="M139.892 93.7312C145.075 93.7312 149.276 89.5246 149.276 84.3354C149.276 79.1463 145.075 74.9397 139.892 74.9397C134.709 74.9397 130.508 79.1463 130.508 84.3354C130.508 89.5246 134.709 93.7312 139.892 93.7312Z" fill="#FFB8B8"/>
<path d="M128.527 145.124C129.729 145.954 143.263 154.884 158.689 147.781C158.489 146.056 156.564 128.738 158.246 115.971C159.043 109.914 156.634 104.303 151.636 100.575C148.922 98.5609 145.72 97.3074 142.361 96.9442C139.002 96.581 135.606 97.1212 132.525 98.5092H132.525C132.272 98.6228 132.016 98.7409 131.76 98.8637L128.527 145.124Z" fill="#EF293D"/>
<path d="M158.83 147.639C158.592 147.639 158.357 147.59 158.139 147.494C157.921 147.397 157.726 147.257 157.565 147.081L155.512 144.839C155.313 144.619 155.173 144.352 155.106 144.063C155.039 143.774 155.048 143.473 155.131 143.188L159.832 127.256L152.679 112.215C152.365 111.554 152.289 110.805 152.461 110.094C152.614 109.47 152.952 108.906 153.43 108.478C153.909 108.05 154.506 107.777 155.143 107.696C155.78 107.614 156.426 107.728 156.997 108.022C157.568 108.316 158.036 108.776 158.341 109.342L168.011 125.052C168.387 125.662 168.608 126.356 168.654 127.072C168.7 127.787 168.569 128.503 168.274 129.157L160.4 146.626C160.283 146.886 160.103 147.112 159.877 147.286C159.651 147.459 159.386 147.573 159.105 147.617C159.014 147.632 158.922 147.639 158.83 147.639Z" fill="#EF293D"/>
<path opacity="0.2" d="M135.468 145.602H131.719L138.263 114.767L138.641 114.816L137.185 143.967C137.163 144.408 136.973 144.824 136.653 145.128C136.333 145.432 135.909 145.602 135.468 145.602Z" fill="black"/>
<path d="M131.999 153.268C132.368 152.844 132.64 152.344 132.795 151.804C132.95 151.263 132.985 150.695 132.897 150.14C132.809 149.584 132.6 149.055 132.286 148.589C131.972 148.123 131.559 147.731 131.077 147.442L133.87 134.061L127.273 136.676L125.633 148.982C125.201 149.825 125.093 150.797 125.33 151.714C125.566 152.63 126.13 153.428 126.915 153.957C127.699 154.485 128.651 154.707 129.588 154.58C130.525 154.453 131.383 153.986 131.999 153.268Z" fill="#FFB8B8"/>
<path d="M131.624 145.64C131.559 145.64 131.494 145.637 131.43 145.63L127.432 145.185C126.999 145.135 126.602 144.924 126.319 144.594C126.035 144.263 125.887 143.838 125.904 143.403L127.558 103.319C127.61 102.061 128.117 100.866 128.986 99.9565C129.854 99.0469 131.024 98.4853 132.276 98.3767C133.528 98.2682 134.777 98.6201 135.789 99.3666C136.8 100.113 137.506 101.203 137.773 102.433L138.838 107.341L138.833 107.376L133.32 144.174C133.26 144.581 133.056 144.954 132.745 145.223C132.433 145.492 132.035 145.641 131.624 145.64Z" fill="#EF293D"/>
<path d="M147.624 92.6188C146.651 92.7859 145.85 91.4297 145.729 90.4758C145.608 89.5218 145.955 88.6087 145.993 87.6609C146.031 86.7132 145.585 85.5615 144.602 85.2805C143.571 84.9859 142.616 85.8136 141.561 85.7141C140.09 85.5754 139.352 83.8527 139.174 82.4592C138.996 81.0656 138.856 79.4153 137.583 78.6206C136.314 77.8284 134.743 78.4048 133.285 78.4295C130.82 78.4712 128.31 76.5891 127.734 74.2665C128.033 74.3528 128.353 74.3368 128.642 74.2209C128.93 74.1051 129.172 73.8961 129.329 73.6269C129.453 73.3398 129.478 73.0199 129.401 72.717C129.324 72.414 129.149 72.1451 128.904 71.9521L131.698 73.322C131.316 72.5438 131.893 71.6575 132.686 71.3628C133.48 71.0681 134.404 71.2005 135.28 71.3367C139.655 72.0173 144.722 71.6818 147.624 75.0217C149.634 77.335 151.289 81.7371 151.063 84.5854C150.837 87.4337 147.624 92.6188 147.624 92.6188Z" fill="#2F2E41"/>
</g>
<defs>
<clipPath id="clip0_2846_41504">
<rect width="184.906" height="234.336" fill="white" transform="matrix(-1 0 0 1 185.078 0)"/>
</clipPath>
</defs>
</svg>
