<svg width="36" height="36" viewBox="0 0 36 36" fill="none" xmlns="http://www.w3.org/2000/svg">
<path d="M18 36C27.9411 36 36 27.9411 36 18C36 8.05887 27.9411 0 18 0C8.05887 0 0 8.05887 0 18C0 27.9411 8.05887 36 18 36Z" fill="#EF293D"/>
<path d="M25.4748 16.4884H19.3548V10.3684C19.3548 9.9865 19.2031 9.62021 18.933 9.35014C18.663 9.08007 18.2967 8.92834 17.9147 8.92834C17.5328 8.92834 17.1665 9.08007 16.8964 9.35014C16.6263 9.62021 16.4746 9.9865 16.4746 10.3684V16.4884H10.3546C9.97271 16.4884 9.60641 16.6401 9.33635 16.9102C9.06628 17.1803 8.91455 17.5466 8.91455 17.9285C8.91455 18.3104 9.06628 18.6767 9.33635 18.9468C9.60641 19.2169 9.97271 19.3686 10.3546 19.3686H16.4746V25.4886C16.4746 25.8705 16.6263 26.2368 16.8964 26.5069C17.1665 26.7769 17.5328 26.9287 17.9147 26.9287C18.2967 26.9287 18.663 26.7769 18.933 26.5069C19.2031 26.2368 19.3548 25.8705 19.3548 25.4886V19.3686H25.4748C25.8567 19.3686 26.223 19.2169 26.4931 18.9468C26.7632 18.6767 26.9149 18.3104 26.9149 17.9285C26.9149 17.5466 26.7632 17.1803 26.4931 16.9102C26.223 16.6401 25.8567 16.4884 25.4748 16.4884Z" fill="white"/>
</svg>
