<svg width="223" height="217" viewBox="0 0 223 217" fill="none" xmlns="http://www.w3.org/2000/svg">
<g clip-path="url(#clip0_2631_40293)">
<path d="M209.801 59.8927C207.713 56.1217 205.397 52.4822 202.865 48.9947C201.091 46.5478 199.216 44.1827 197.241 41.8992H197.236C193.662 37.7654 189.776 33.9135 185.611 30.3777C184.758 29.6528 183.894 28.9428 183.019 28.2476C175.116 21.9525 166.352 16.8252 156.995 13.0221L157.078 26.7128L157.973 182.779H80.3669L76.0024 27.0073L76.3275 13.5352C38.2797 29.5574 11.5645 67.2284 11.5645 111.149C11.5574 120.215 12.7125 129.244 15.0015 138.015C15.9684 141.722 17.1389 145.374 18.5078 148.952C19.0019 150.251 19.5233 151.538 20.0718 152.814C20.3362 153.435 20.6055 154.051 20.8848 154.665C21.243 155.466 21.6162 156.265 21.9991 157.055C22.2956 157.676 22.6004 158.292 22.9134 158.905C23.3161 159.709 23.7321 160.507 24.1612 161.298C24.4923 161.918 24.8333 162.535 25.1792 163.148C30.7601 173.032 37.8868 181.957 46.2882 189.583C48.6825 191.758 51.174 193.819 53.7627 195.768C72.0793 209.549 94.3709 217 117.282 217C140.194 217 162.485 209.549 180.802 195.768C182.211 194.709 183.59 193.615 184.941 192.485C185.838 191.738 186.72 190.977 187.587 190.201C187.817 189.996 188.047 189.791 188.274 189.583C196.02 182.552 202.686 174.415 208.056 165.434C210.028 162.141 211.817 158.742 213.413 155.251C213.836 154.331 214.245 153.402 214.641 152.465C216.465 148.17 217.998 143.757 219.232 139.257C219.422 138.561 219.606 137.864 219.783 137.164V137.161C219.813 137.04 219.845 136.916 219.875 136.795C220.057 136.058 220.233 135.315 220.401 134.573V134.571C220.945 132.178 221.403 129.757 221.777 127.307C221.824 126.993 221.871 126.679 221.916 126.364C221.933 126.251 221.95 126.137 221.963 126.023V126.021C222.229 124.128 222.446 122.221 222.612 120.301C222.869 117.285 222.999 114.234 223 111.149C223.028 93.2175 218.485 75.5752 209.801 59.8927V59.8927Z" fill="#F2F2F2"/>
<path d="M199.417 175.045C205.675 166.58 208.081 154.656 203.214 145.32C198.649 155.821 190.521 164.367 180.269 169.446C176.308 171.391 171.7 173.14 169.867 177.158C168.726 179.657 168.943 182.609 169.86 185.199C170.777 187.79 172.337 190.095 173.881 192.367L173.962 193.049C183.678 189.015 193.16 183.511 199.417 175.045Z" fill="#E6E6E6"/>
<path d="M203.008 145.395C202.728 154.107 199.712 162.51 194.391 169.409C193.272 170.915 191.922 172.235 190.393 173.32C188.868 174.328 187.102 174.91 185.278 175.004C183.578 175.126 181.826 175.053 180.185 175.587C179.35 175.872 178.584 176.332 177.938 176.934C177.292 177.537 176.781 178.27 176.437 179.084C175.529 181.091 175.395 183.305 175.34 185.475C175.278 187.884 175.252 190.388 174.117 192.578C173.98 192.843 174.399 193.041 174.536 192.776C176.511 188.966 175.229 184.51 176.405 180.505C176.954 178.636 178.069 176.921 179.933 176.172C181.563 175.517 183.37 175.59 185.092 175.481C186.873 175.416 188.611 174.914 190.154 174.021C191.734 173.018 193.132 171.752 194.288 170.279C196.943 167.005 199.068 163.332 200.583 159.397C202.338 154.915 203.314 150.166 203.47 145.354C203.479 145.056 203.017 145.099 203.008 145.395V145.395Z" fill="white"/>
<path d="M196.235 167.289C197.512 168.026 199.01 168.284 200.46 168.018C201.909 167.751 203.218 166.977 204.15 165.834C204.338 165.602 203.987 165.299 203.799 165.531C202.932 166.597 201.714 167.318 200.363 167.563C199.012 167.809 197.619 167.563 196.433 166.869C196.176 166.719 195.979 167.14 196.235 167.289Z" fill="white"/>
<path d="M186.147 175.056C185.338 172.149 185.654 169.044 187.03 166.36C187.166 166.094 186.747 165.896 186.611 166.162C185.184 168.957 184.862 172.189 185.71 175.212C185.791 175.5 186.228 175.342 186.147 175.056H186.147Z" fill="white"/>
<path d="M201.724 154.937C201.17 154.755 200.67 154.438 200.269 154.015C199.868 153.592 199.579 153.075 199.426 152.512C199.349 152.223 198.913 152.382 198.99 152.669C199.161 153.29 199.482 153.86 199.924 154.328C200.366 154.797 200.916 155.15 201.525 155.356C201.581 155.381 201.644 155.383 201.702 155.362C201.759 155.342 201.806 155.3 201.834 155.246C201.86 155.19 201.863 155.126 201.842 155.068C201.822 155.011 201.779 154.963 201.724 154.937V154.937Z" fill="white"/>
<path d="M168.383 137.89C168.427 138.072 168.47 138.253 168.51 138.438C169.078 140.885 169.446 143.375 169.612 145.881C169.627 146.075 169.641 146.272 169.651 146.465C169.984 152.509 169.194 158.562 167.321 164.317C166.573 166.607 165.653 168.836 164.568 170.985C163.069 173.954 161.207 177.053 160.788 180.25C160.74 180.583 160.713 180.919 160.707 181.255L173.127 193.095C173.169 193.108 173.208 193.123 173.25 193.136L173.724 193.632C173.788 193.525 173.852 193.412 173.915 193.306C173.953 193.244 173.987 193.179 174.024 193.117C174.048 193.075 174.072 193.033 174.096 192.996C174.104 192.982 174.112 192.968 174.117 192.957C174.141 192.92 174.16 192.884 174.181 192.85C174.539 192.223 174.894 191.593 175.244 190.959C175.247 190.956 175.247 190.956 175.247 190.951C177.907 186.114 180.187 181.012 181.621 175.726C181.664 175.567 181.71 175.405 181.747 175.241C182.38 172.854 182.818 170.42 183.055 167.962C183.18 166.616 183.238 165.265 183.227 163.913C183.192 160.419 182.608 156.953 181.497 153.642C179.282 147.04 174.983 141.222 168.854 138.122C168.697 138.043 168.543 137.966 168.383 137.89Z" fill="#E6E6E6"/>
<path d="M168.26 138.074C173.275 145.2 175.921 153.727 175.82 162.444C175.832 164.32 175.548 166.187 174.979 167.976C174.369 169.7 173.308 171.229 171.908 172.404C170.624 173.526 169.182 174.525 168.193 175.939C167.697 176.671 167.362 177.499 167.208 178.37C167.055 179.241 167.087 180.134 167.303 180.991C167.785 183.141 169.009 184.99 170.27 186.755C171.669 188.716 173.154 190.731 173.564 193.163C173.614 193.458 174.068 193.364 174.018 193.069C173.304 188.837 169.601 186.052 168.132 182.145C167.446 180.321 167.305 178.28 168.343 176.559C169.25 175.053 170.737 174.022 172.047 172.898C173.429 171.771 174.516 170.323 175.211 168.68C175.869 166.926 176.224 165.073 176.261 163.2C176.412 158.985 175.9 154.772 174.744 150.716C173.45 146.08 171.374 141.699 168.605 137.764C168.433 137.52 168.09 137.833 168.26 138.074V138.074Z" fill="white"/>
<path d="M176.018 159.639C177.481 159.457 178.832 158.761 179.829 157.674C180.827 156.587 181.406 155.181 181.463 153.706C181.474 153.407 181.011 153.377 181.001 153.676C180.95 155.049 180.41 156.359 179.479 157.369C178.548 158.379 177.288 159.023 175.924 159.184C175.628 159.22 175.724 159.674 176.018 159.639H176.018Z" fill="white"/>
<path d="M172.634 171.921C170.241 170.088 168.625 167.419 168.11 164.446C168.059 164.151 167.606 164.246 167.656 164.54C168.198 167.632 169.885 170.407 172.38 172.309C172.618 172.49 172.871 172.101 172.634 171.921V171.921Z" fill="white"/>
<path d="M172.974 146.467C172.423 146.656 171.833 146.704 171.258 146.608C170.684 146.512 170.142 146.274 169.682 145.917C169.446 145.733 169.193 146.122 169.427 146.305C169.937 146.697 170.536 146.959 171.171 147.066C171.806 147.174 172.457 147.124 173.068 146.922C173.127 146.908 173.179 146.871 173.212 146.82C173.246 146.769 173.258 146.708 173.248 146.647C173.235 146.587 173.199 146.535 173.148 146.501C173.097 146.467 173.034 146.455 172.974 146.467Z" fill="white"/>
<path d="M4.93531 127.633C-0.614231 118.686 -2.04494 106.606 3.56419 97.6965C7.26166 108.535 14.6687 117.714 24.4749 123.61C28.2649 125.87 32.7154 127.989 34.2167 132.142C35.1508 134.727 34.6947 137.651 33.5705 140.158C32.4461 142.665 30.7043 144.836 28.9816 146.975L28.8453 147.648C19.4884 142.837 10.4849 136.579 4.93531 127.633Z" fill="#E6E6E6"/>
<path d="M3.76559 97.788C3.33786 106.495 5.66096 115.115 10.4049 122.425C11.3983 124.016 12.636 125.441 14.0726 126.647C15.5099 127.776 17.223 128.5 19.0339 128.742C20.7179 129.002 22.4705 129.072 24.0621 129.738C24.8717 130.09 25.5978 130.61 26.1926 131.263C26.7875 131.917 27.2377 132.688 27.5138 133.528C28.256 135.602 28.2096 137.82 28.0889 139.987C27.9549 142.393 27.7777 144.891 28.7311 147.166C28.8466 147.441 28.4126 147.605 28.2973 147.329C26.6385 143.371 28.2781 139.035 27.4304 134.947C27.0348 133.039 26.0627 131.239 24.2661 130.341C22.695 129.556 20.8878 129.482 19.1805 129.233C17.4104 129.023 15.7187 128.382 14.2531 127.366C12.7599 126.237 11.4694 124.862 10.4369 123.3C8.0563 119.82 6.237 115.987 5.04561 111.941C3.66031 107.332 3.0728 102.518 3.3085 97.7102C3.32321 97.4126 3.78022 97.4924 3.7656 97.788L3.76559 97.788Z" fill="white"/>
<path d="M8.73924 120.161C7.40635 120.791 5.89305 120.927 4.46957 120.543C3.0461 120.16 1.80515 119.282 0.968355 118.067C0.799881 117.82 1.17445 117.547 1.34315 117.793C2.12029 118.926 3.27632 119.744 4.60258 120.098C5.92885 120.453 7.33799 120.321 8.57568 119.727C8.84479 119.598 9.00681 120.033 8.73924 120.161V120.161Z" fill="white"/>
<path d="M18.162 128.723C19.2038 125.892 19.1416 122.772 17.9878 119.984C17.8733 119.708 18.3072 119.545 18.4216 119.821C19.6169 122.723 19.675 125.971 18.5844 128.914C18.4802 129.195 18.0584 129.002 18.162 128.723V128.723Z" fill="white"/>
<path d="M4.27077 107.403C4.83726 107.267 5.36107 106.992 5.79514 106.603C6.22921 106.213 6.55996 105.722 6.75769 105.174C6.85823 104.892 7.27996 105.085 7.18007 105.365C6.9588 105.97 6.59286 106.512 6.11423 106.943C5.63559 107.374 5.05883 107.681 4.43434 107.837C4.37671 107.857 4.31376 107.854 4.25828 107.829C4.2028 107.804 4.15896 107.758 4.13567 107.702C4.1143 107.644 4.1165 107.581 4.1418 107.525C4.1671 107.469 4.21345 107.425 4.27077 107.403V107.403Z" fill="white"/>
<path d="M38.8829 93.1254C38.8251 93.3031 38.7673 93.4808 38.7119 93.6617C37.9474 96.0545 37.3782 98.5056 37.0102 100.991C36.9787 101.182 36.9496 101.377 36.9237 101.569C36.1007 107.566 36.3967 113.664 37.7968 119.552C38.3561 121.895 39.0926 124.191 39.9999 126.422C41.253 129.503 42.8566 132.743 43.0155 135.964C43.0358 136.3 43.0354 136.636 43.0141 136.972L29.6742 147.762C29.6315 147.771 29.5912 147.784 29.5485 147.793L29.0355 148.248C28.9807 148.137 28.9263 148.019 28.8714 147.908C28.8394 147.843 28.8103 147.776 28.7782 147.711C28.7578 147.667 28.7374 147.623 28.7165 147.585C28.7096 147.57 28.7029 147.555 28.6985 147.544C28.6776 147.505 28.6622 147.468 28.6437 147.432C28.3375 146.778 28.0354 146.121 27.7373 145.461C27.7348 145.458 27.7348 145.458 27.7353 145.452C25.4769 140.415 23.6186 135.144 22.6184 129.759C22.5883 129.597 22.5557 129.432 22.5317 129.265C22.0943 126.835 21.856 124.374 21.8192 121.905C21.8033 120.553 21.8559 119.201 21.9765 117.854C22.2951 114.375 23.1581 110.968 24.534 107.758C27.2779 101.359 32.0352 95.9094 38.3951 93.3186C38.5578 93.2524 38.7177 93.1885 38.8829 93.1254Z" fill="#E6E6E6"/>
<path d="M38.9902 93.3193C33.4132 100.013 30.0846 108.297 29.477 116.993C29.3131 118.862 29.4445 120.746 29.8664 122.575C30.3349 124.343 31.2678 125.953 32.568 127.238C33.7564 128.461 35.1133 129.574 35.9841 131.064C36.4185 131.834 36.6856 132.687 36.7677 133.567C36.8499 134.447 36.7453 135.335 36.4608 136.172C35.8061 138.275 34.4355 140.018 33.036 141.676C31.4822 143.516 29.8391 145.403 29.2323 147.794C29.1587 148.084 28.714 147.953 28.7874 147.664C29.8432 143.503 33.76 141.029 35.5412 137.254C36.3724 135.493 36.6785 133.47 35.784 131.669C35.0019 130.095 33.6036 128.947 32.3897 127.719C31.1029 126.484 30.1377 124.952 29.5784 123.258C29.0648 121.456 28.8612 119.581 28.9761 117.711C29.1679 113.497 30.0201 109.34 31.5016 105.392C33.1675 100.876 35.5926 96.6786 38.672 92.9816C38.8627 92.7529 39.1797 93.0921 38.9902 93.3193V93.3193Z" fill="white"/>
<path d="M29.5096 114.181C28.0663 113.881 26.7765 113.077 25.8706 111.912C24.9647 110.748 24.5017 109.299 24.5642 107.825C24.5673 107.764 24.5936 107.708 24.6375 107.667C24.6815 107.626 24.7396 107.603 24.7997 107.604C24.8598 107.605 24.9172 107.63 24.9598 107.672C25.0023 107.715 25.0267 107.772 25.0278 107.832C24.9671 109.205 25.3985 110.555 26.2443 111.637C27.0901 112.72 28.2945 113.464 29.6402 113.736C29.9326 113.795 29.8003 114.24 29.5096 114.181V114.181Z" fill="white"/>
<path d="M31.8836 126.698C34.4179 125.066 36.2445 122.537 36.9992 119.616C37.0738 119.326 37.5185 119.457 37.4441 119.746C36.653 122.785 34.7467 125.412 32.1058 127.105C31.854 127.267 31.6331 126.858 31.8836 126.698V126.698Z" fill="white"/>
<path d="M33.6118 101.301C34.146 101.533 34.7297 101.63 35.3102 101.581C35.8908 101.532 36.4501 101.339 36.938 101.02C37.1876 100.856 37.4082 101.264 37.1602 101.427C36.6196 101.777 36.0016 101.989 35.3603 102.045C34.719 102.1 34.0738 101.998 33.4812 101.746C33.4233 101.727 33.3749 101.687 33.3457 101.633C33.3165 101.58 33.3088 101.517 33.3241 101.458C33.3416 101.399 33.3817 101.35 33.4356 101.32C33.4895 101.291 33.5528 101.284 33.6118 101.301V101.301Z" fill="white"/>
<path d="M107.953 36.3085C116.065 36.3085 122.641 29.7244 122.641 21.6025C122.641 13.4806 116.065 6.89648 107.953 6.89648C99.8415 6.89648 93.2656 13.4806 93.2656 21.6025C93.2656 29.7244 99.8415 36.3085 107.953 36.3085Z" fill="#FF6584"/>
<path d="M152.922 20.835C151.599 19.4352 150.201 18.1072 148.736 16.8568C145.875 14.4273 142.707 12.3615 139.176 11.0602C137.847 10.5687 136.473 10.2066 135.075 9.97905C134.907 9.95185 134.741 9.92463 134.573 9.90236C134.561 9.90112 134.548 9.90112 134.536 9.90236C134.51 9.89503 134.484 9.89006 134.457 9.88751C134.113 9.84298 133.77 9.80834 133.424 9.78361C131.561 9.65961 129.69 9.82823 127.879 10.2834C126.829 10.5488 125.803 10.9064 124.815 11.3521C123.826 11.8373 122.866 12.3817 121.942 12.9825C121.445 13.2844 120.934 13.561 120.41 13.8113C118.879 14.5374 117.259 15.0566 115.591 15.3551C114.465 15.5573 113.325 15.6698 112.182 15.6916C111.188 15.7113 110.252 15.746 109.31 16.1047C108.306 16.4827 107.403 17.0908 106.675 17.8803C105.947 18.6699 105.414 19.6191 105.117 20.6519C105.094 20.7437 105.1 20.8405 105.136 20.9282C105.172 21.0159 105.234 21.0899 105.315 21.1393C105.569 21.3224 105.816 21.5302 106.086 21.6935C106.324 21.8021 106.577 21.8715 106.837 21.8988C107.262 21.9879 107.688 22.0745 108.114 22.1586C109.683 22.4703 111.259 22.7466 112.841 22.9874C116.024 23.4699 119.225 23.8096 122.443 24.0067C122.463 24.0096 122.483 24.0112 122.503 24.0117C126.139 24.2314 129.784 24.2669 133.424 24.118C133.975 24.0958 134.524 24.0686 135.075 24.0364C137.37 23.9077 139.66 23.7049 141.944 23.4278C144.056 23.1705 146.161 22.8513 148.257 22.4703C149.754 22.1982 151.246 21.8947 152.732 21.5599C152.804 21.5385 152.869 21.4989 152.922 21.4448C152.974 21.3907 153.012 21.324 153.031 21.2511C153.05 21.1783 153.05 21.1017 153.031 21.0288C153.012 20.9559 152.974 20.8892 152.922 20.835V20.835Z" fill="#E6E6E6"/>
<path d="M122.394 40.444C120.268 38.1665 117.925 36.1017 115.399 34.2788C114.561 33.69 113.699 33.1358 112.812 32.6286C111.724 32.0001 110.595 31.447 109.432 30.9735C109.172 30.8671 108.91 30.7657 108.648 30.6692C107.16 30.1174 105.617 29.7292 104.045 29.5114C104.033 29.5089 104.02 29.5114 104.008 29.5089C103.983 29.504 103.956 29.499 103.932 29.494C103.17 29.3951 102.402 29.348 101.634 29.353C101.083 29.353 100.529 29.3827 99.9805 29.4371C99.0943 29.5246 98.2156 29.6767 97.3515 29.8924C96.924 29.9988 96.499 30.1224 96.0814 30.2635C95.4724 30.4642 94.8744 30.697 94.29 30.9611C94.2801 30.9661 94.2727 30.9686 94.2629 30.9735C93.2819 31.454 92.3312 31.9944 91.4164 32.5915C91.3966 32.6039 91.3744 32.6162 91.3546 32.6286C90.3154 33.251 89.216 33.7666 88.0732 34.1675C87.0922 34.5109 86.086 34.7773 85.0637 34.9641C83.9378 35.1669 82.7975 35.2786 81.6538 35.2981C80.6605 35.3179 79.724 35.3525 78.7851 35.7137C77.78 36.0916 76.8772 36.6996 76.1487 37.4892C75.4202 38.2787 74.8863 39.2279 74.5895 40.261C74.5666 40.3527 74.5734 40.4493 74.6089 40.5369C74.6444 40.6245 74.7069 40.6986 74.7871 40.7483C75.0416 40.9314 75.2912 41.1368 75.5581 41.3C75.7954 41.4095 76.0492 41.4789 76.3092 41.5054C76.7342 41.5945 77.1592 41.6835 77.5867 41.7676C79.1557 42.0793 80.7322 42.3548 82.316 42.5939C84.4879 42.923 86.6689 43.1861 88.859 43.3832C89.8968 43.4796 90.9354 43.5588 91.9748 43.6207C94.6409 43.7815 97.3095 43.8441 99.9805 43.8087C100.532 43.8013 101.083 43.7889 101.634 43.7716C104.905 43.6751 108.167 43.4293 111.418 43.0343C115.043 42.5953 118.643 41.9718 122.204 41.1664C122.276 41.1453 122.341 41.1059 122.394 41.052C122.446 40.9982 122.484 40.9317 122.503 40.859C122.522 40.7863 122.522 40.7099 122.503 40.6372C122.484 40.5645 122.446 40.498 122.394 40.444V40.444Z" fill="#E6E6E6"/>
<path d="M85.7851 0.976397L98.7245 180.01L72.8457 182.31V3.25422C75.9294 0.842436 80.356 0.465106 85.7851 0.976397Z" fill="#CCCCCC"/>
<path d="M149.656 0.976397L136.717 180.01L162.596 182.31V3.25422C159.512 0.842436 155.085 0.465106 149.656 0.976397Z" fill="#CCCCCC"/>
<path d="M163.204 3.33229C162.401 1.36093 160.694 -3.05176e-05 158.72 -3.05176e-05H76.4458C73.7007 -3.05176e-05 71.4694 2.6372 71.4694 5.88191V183.827C71.4455 185.473 72.0602 187.065 73.1842 188.266C73.7724 188.885 74.517 189.332 75.3389 189.56C75.6994 189.66 76.0718 189.71 76.4458 189.709H158.72C159.094 189.71 159.466 189.66 159.827 189.56C162.041 188.964 163.696 186.622 163.696 183.827V5.88192C163.698 5.0082 163.531 4.14234 163.204 3.33229V3.33229ZM162.046 183.827C162.046 185.994 160.553 187.758 158.72 187.758H76.4458C74.9262 187.758 73.6389 186.546 73.246 184.896C73.1621 184.546 73.1198 184.187 73.12 183.827V5.88192C73.12 3.71489 74.6124 1.95382 76.4458 1.95382H158.72C159.057 1.95355 159.392 2.01389 159.708 2.13197C161.06 2.62846 162.046 4.12085 162.046 5.88192V183.827Z" fill="#CCCCCC"/>
<path d="M162.871 54.0891H72.2949V55.743H162.871V54.0891Z" fill="#CCCCCC"/>
<path d="M162.871 19.9478H72.2949V21.6017H162.871V19.9478Z" fill="#CCCCCC"/>
<path d="M162.871 81.6542H72.2949V83.3081H162.871V81.6542Z" fill="#CCCCCC"/>
<path d="M101.687 0.742126H100.035V105.085H101.687V0.742126Z" fill="#CCCCCC"/>
<path d="M135.13 0.742126H133.479V105.085H135.13V0.742126Z" fill="#CCCCCC"/>
<path d="M173.194 179.373H64.7235C62.753 179.375 60.8639 180.16 59.4705 181.555C58.0772 182.95 57.2933 184.842 57.291 186.815C57.29 187.763 57.4721 188.703 57.8272 189.583C58.379 190.963 59.3308 192.145 60.5599 192.979C61.789 193.812 63.2391 194.258 64.7235 194.259H173.194C174.492 194.258 175.766 193.918 176.892 193.271C178.017 192.624 178.954 191.694 179.609 190.573C179.795 190.256 179.957 189.925 180.093 189.583C180.448 188.703 180.63 187.763 180.629 186.815C180.626 184.841 179.842 182.95 178.448 181.555C177.054 180.16 175.165 179.375 173.194 179.373Z" fill="#CCCCCC"/>
<path d="M162.871 101.226H72.8457V106.739H162.871V101.226Z" fill="#CCCCCC"/>
<path d="M117.032 99.5717H118.684C119.487 99.5717 120.258 99.8912 120.826 100.46C121.393 101.028 121.713 101.8 121.713 102.604V102.604H114.004C114.004 102.206 114.082 101.811 114.234 101.443C114.387 101.076 114.61 100.741 114.891 100.46C115.172 100.178 115.506 99.9549 115.873 99.8025C116.241 99.6501 116.635 99.5717 117.032 99.5717V99.5717Z" fill="#CCCCCC"/>
<path d="M119.446 116.774C128.868 116.774 136.507 109.126 136.507 99.6911C136.507 90.2567 128.868 82.6086 119.446 82.6086C110.023 82.6086 102.385 90.2567 102.385 99.6911C102.385 109.126 110.023 116.774 119.446 116.774Z" fill="#FFB8B8"/>
<path d="M100.414 83.2578C100.543 81.2961 101.839 79.2887 105.955 78.2398C105.955 78.2398 113.02 69.1946 122.62 73.938C122.62 73.938 127.274 73.1363 130.725 77.9711C130.725 77.9711 134.147 75.9506 135.59 79.532C135.59 79.532 139.603 86.8371 138.126 94.2884C136.649 101.74 135.892 102.67 135.892 102.67C135.892 102.67 137.776 87.2568 126.929 88.3255C116.083 89.3942 107.35 85.5751 104.894 93.937C102.854 100.88 103.111 104.486 103.111 104.486C103.111 104.486 96.2909 97.5598 98.6099 92.1056C99.7959 89.316 100.215 86.2831 100.414 83.2578Z" fill="#2F2E41"/>
<path d="M73.0508 193.047H167.42C166.79 185.839 166.377 158.288 166.377 156.474C166.377 148.477 159.841 139.749 159.841 139.749L157.502 138.454L137.964 132.351L132.908 125.775C132.378 125.084 131.696 124.526 130.915 124.144C130.133 123.762 129.274 123.567 128.405 123.573L112.433 123.693C111.027 123.704 109.676 124.24 108.645 125.196L98.7546 134.383L84.2484 141.319L84.2237 141.294L84.0722 141.407L81.9194 142.959L80.5347 143.961C80.5347 143.961 76.902 148.325 73.9986 161.414C73.5617 163.382 73.2551 188.866 73.0508 193.047Z" fill="#EF293D"/>
<path d="M189.261 189.583C189.034 189.791 188.804 189.996 188.574 190.202C187.705 190.976 186.823 191.737 185.928 192.485C184.576 193.613 183.197 194.708 181.789 195.768H54.7499C52.1628 193.823 49.6713 191.762 47.2754 189.583H189.261Z" fill="#CCCCCC"/>
<path d="M142.696 191.068H95.9961L96.9843 186.367H141.708L142.696 191.068Z" fill="#2F2E41"/>
<path d="M184.945 170.781H172.793C172.518 170.78 172.247 170.839 171.998 170.955C171.75 171.07 171.529 171.239 171.352 171.449C171.183 171.416 171.011 171.399 170.838 171.399C170.46 171.399 170.084 171.473 169.734 171.618C169.384 171.763 169.066 171.975 168.798 172.243C168.53 172.511 168.318 172.83 168.173 173.18C168.028 173.53 167.953 173.906 167.953 174.285C167.953 174.664 168.028 175.04 168.173 175.39C168.318 175.74 168.53 176.059 168.798 176.327C169.066 176.595 169.384 176.807 169.734 176.952C170.084 177.097 170.46 177.171 170.838 177.171C171.273 177.171 171.703 177.071 172.093 176.879L172.296 179.373L173.102 189.229C173.14 189.352 173.191 189.471 173.255 189.583C173.418 189.882 173.658 190.132 173.951 190.306C174.243 190.481 174.577 190.572 174.918 190.573H182.82C183.16 190.572 183.495 190.48 183.788 190.306C184.081 190.132 184.321 189.882 184.485 189.583C184.547 189.47 184.597 189.352 184.636 189.229L186.761 173.242C186.848 172.958 186.868 172.657 186.818 172.363C186.768 172.07 186.65 171.792 186.473 171.553C186.296 171.313 186.066 171.119 185.801 170.984C185.535 170.85 185.242 170.781 184.945 170.781ZM170.838 176.347C170.292 176.346 169.769 176.129 169.384 175.742C168.998 175.356 168.781 174.831 168.781 174.285C168.781 173.738 168.998 173.214 169.384 172.828C169.769 172.441 170.292 172.223 170.838 172.223C170.875 172.223 170.91 172.233 170.947 172.235C170.866 172.567 170.876 172.915 170.977 173.242L171.846 176.072C171.54 176.251 171.192 176.345 170.838 176.347V176.347Z" fill="#3F3D56"/>
<path d="M157.5 118.472H80.5752C79.9143 118.474 79.2808 118.737 78.8134 119.205C78.3461 119.673 78.0831 120.307 78.082 120.969V172.943C78.0827 173.605 78.3455 174.239 78.813 174.707C79.2804 175.175 79.9142 175.438 80.5752 175.439H157.5C158.161 175.438 158.794 175.175 159.262 174.707C159.729 174.239 159.992 173.605 159.993 172.943V120.969C159.992 120.307 159.729 119.673 159.261 119.205C158.794 118.737 158.16 118.474 157.5 118.472Z" fill="#3F3D56"/>
<path d="M127.698 160.118H109.703C109.448 160.118 109.204 160.22 109.024 160.4C108.845 160.58 108.744 160.825 108.744 161.08V189.543H128.66V161.08C128.66 160.954 128.635 160.828 128.587 160.712C128.538 160.595 128.468 160.489 128.378 160.399C128.289 160.31 128.183 160.239 128.066 160.191C127.95 160.142 127.825 160.117 127.698 160.118V160.118ZM118.761 176.29C118.198 176.288 117.659 176.063 117.262 175.664C116.864 175.266 116.639 174.726 116.636 174.163V170.88C116.637 170.316 116.861 169.775 117.259 169.377C117.658 168.978 118.198 168.754 118.761 168.754C119.324 168.754 119.865 168.978 120.263 169.377C120.661 169.775 120.886 170.316 120.886 170.88V174.163C120.884 174.726 120.659 175.266 120.261 175.664C119.863 176.063 119.324 176.288 118.761 176.29V176.29Z" fill="#2F2E41"/>
<path d="M108.684 188.633V191.379C108.684 191.521 108.74 191.658 108.841 191.758C108.941 191.859 109.078 191.916 109.22 191.916H128.187C128.328 191.915 128.464 191.858 128.565 191.758C128.665 191.657 128.722 191.521 128.723 191.379V188.633H108.684Z" fill="#3F3D56"/>
<path d="M155.863 172.4C156.534 172.4 157.077 171.855 157.077 171.184C157.077 170.512 156.534 169.968 155.863 169.968C155.192 169.968 154.648 170.512 154.648 171.184C154.648 171.855 155.192 172.4 155.863 172.4Z" fill="#2F2E41"/>
<path d="M90.2844 169.42C90.2286 169.42 90.1733 169.431 90.1217 169.452C90.0702 169.474 90.0233 169.505 89.9838 169.544C89.9444 169.584 89.9131 169.631 89.8917 169.682C89.8704 169.734 89.8594 169.789 89.8594 169.845V172.035C89.8597 172.147 89.9046 172.255 89.9842 172.335C90.0639 172.415 90.1719 172.459 90.2844 172.459C90.3969 172.459 90.5048 172.415 90.5845 172.335C90.6642 172.255 90.7091 172.147 90.7094 172.035V169.845C90.7094 169.789 90.6984 169.734 90.677 169.682C90.6557 169.631 90.6244 169.584 90.5849 169.544C90.5454 169.505 90.4986 169.473 90.447 169.452C90.3955 169.431 90.3402 169.42 90.2844 169.42V169.42Z" fill="#2F2E41"/>
<path d="M92.593 169.42C92.5371 169.42 92.4819 169.431 92.4303 169.452C92.3787 169.474 92.3319 169.505 92.2924 169.544C92.253 169.584 92.2217 169.631 92.2003 169.682C92.179 169.734 92.168 169.789 92.168 169.845V172.035C92.168 172.148 92.2127 172.256 92.2924 172.336C92.3721 172.415 92.4803 172.46 92.593 172.46C92.7057 172.46 92.8138 172.415 92.8935 172.336C92.9732 172.256 93.018 172.148 93.018 172.035V169.845C93.018 169.789 93.007 169.734 92.9856 169.682C92.9642 169.631 92.9329 169.584 92.8935 169.544C92.854 169.505 92.8072 169.474 92.7556 169.452C92.704 169.431 92.6488 169.42 92.593 169.42V169.42Z" fill="#2F2E41"/>
<path d="M94.9016 169.42C94.8458 169.42 94.7905 169.431 94.7389 169.452C94.6874 169.474 94.6405 169.505 94.601 169.544C94.5616 169.584 94.5303 169.631 94.5089 169.682C94.4876 169.734 94.4766 169.789 94.4766 169.845V172.035C94.4768 172.147 94.5218 172.255 94.6014 172.335C94.6811 172.415 94.789 172.459 94.9016 172.459C95.0141 172.459 95.122 172.415 95.2017 172.335C95.2814 172.255 95.3263 172.147 95.3266 172.035V169.845C95.3266 169.789 95.3156 169.734 95.2942 169.682C95.2729 169.631 95.2416 169.584 95.2021 169.544C95.1626 169.505 95.1158 169.473 95.0642 169.452C95.0126 169.431 94.9574 169.42 94.9016 169.42Z" fill="#2F2E41"/>
<path d="M97.2082 169.42C97.1524 169.42 97.0971 169.431 97.0455 169.452C96.994 169.474 96.9471 169.505 96.9077 169.544C96.8682 169.584 96.8369 169.631 96.8156 169.682C96.7942 169.734 96.7832 169.789 96.7832 169.845V172.035C96.7835 172.147 96.8284 172.255 96.9081 172.335C96.9877 172.415 97.0957 172.459 97.2082 172.459C97.3207 172.459 97.4287 172.415 97.5083 172.335C97.588 172.255 97.6329 172.147 97.6332 172.035V169.845C97.6332 169.789 97.6222 169.734 97.6008 169.682C97.5795 169.631 97.5482 169.584 97.5087 169.544C97.4692 169.505 97.4224 169.474 97.3708 169.452C97.3193 169.431 97.264 169.42 97.2082 169.42V169.42Z" fill="#2F2E41"/>
<path d="M99.0494 189.83C102.597 189.83 105.474 186.95 105.474 183.398C105.474 179.845 102.597 176.966 99.0494 176.966C95.5013 176.966 92.625 179.845 92.625 183.398C92.625 186.95 95.5013 189.83 99.0494 189.83Z" fill="#FFB8B8"/>
<path d="M143.93 191.067C147.478 191.067 150.355 188.187 150.355 184.635C150.355 181.082 147.478 178.203 143.93 178.203C140.382 178.203 137.506 181.082 137.506 184.635C137.506 188.187 140.382 191.067 143.93 191.067Z" fill="#FFB8B8"/>
<path d="M210.242 106.994C209.607 105.942 208.855 104.82 207.677 104.477C206.313 104.079 204.911 104.869 203.722 105.648C200.167 107.979 196.743 110.504 193.467 113.214L193.47 113.254C196.021 113.078 198.138 119.87 200.689 119.694C202.532 119.566 204.873 112.454 206.501 111.581C207.119 111.25 207.722 110.807 208.422 110.776C209.292 110.738 210.051 111.347 210.647 111.982C214.174 115.743 215.195 121.493 219.151 124.797C216.656 118.636 213.677 112.683 210.242 106.994V106.994Z" fill="#3F3D56"/>
<path d="M217.03 116.127C218.89 119.492 220.864 122.79 222.95 126.021V126.023C222.938 126.137 222.92 126.251 222.903 126.365C222.651 125.979 222.401 125.591 222.154 125.202C220.281 122.26 218.501 119.262 216.815 116.209C216.014 114.756 215.233 113.293 214.472 111.817C213.884 110.674 213.308 109.525 212.745 108.369C212.584 108.037 212.429 107.706 212.273 107.372C211.907 106.59 211.547 105.803 211.161 105.031C210.721 104.15 210.185 103.23 209.377 102.639C209.01 102.358 208.57 102.188 208.11 102.149C207.461 102.153 206.826 102.335 206.274 102.676C202.094 104.876 198.192 107.569 194.653 110.699C191.109 113.816 187.942 117.338 185.214 121.191C185.13 121.31 184.932 121.196 185.016 121.075C185.35 120.605 185.686 120.142 186.032 119.682C190.319 113.974 195.576 109.065 201.562 105.18C202.567 104.526 203.593 103.904 204.638 103.312C205.164 103.012 205.693 102.718 206.232 102.441C206.747 102.138 207.326 101.959 207.922 101.916C209.973 101.884 211.035 104.21 211.764 105.773C211.991 106.266 212.223 106.757 212.458 107.248C213.345 109.103 214.267 110.944 215.223 112.77C215.811 113.896 216.413 115.015 217.03 116.127Z" fill="#3F3D56"/>
<path d="M194.453 109.551C194.333 109.418 194.215 109.285 194.095 109.152C193.15 108.105 192.135 107.07 190.837 106.47C190.218 106.174 189.542 106.018 188.856 106.01C188.149 106.029 187.451 106.182 186.8 106.459C186.49 106.583 186.187 106.723 185.889 106.873C185.548 107.045 185.214 107.228 184.881 107.412C184.255 107.759 183.638 108.121 183.029 108.497C181.817 109.247 180.643 110.055 179.507 110.919C178.918 111.367 178.342 111.83 177.777 112.308C177.252 112.752 176.737 113.207 176.234 113.675C176.126 113.774 175.965 113.613 176.073 113.514C176.206 113.39 176.34 113.267 176.474 113.145C176.854 112.802 177.239 112.465 177.631 112.135C178.345 111.531 179.077 110.951 179.828 110.395C180.996 109.529 182.204 108.721 183.452 107.972C184.076 107.599 184.709 107.241 185.35 106.898C185.543 106.795 185.739 106.694 185.937 106.598C186.386 106.371 186.853 106.181 187.333 106.029C188.013 105.809 188.732 105.738 189.442 105.821C190.127 105.921 190.787 106.15 191.388 106.495C192.662 107.209 193.651 108.312 194.613 109.389C194.711 109.498 194.55 109.66 194.453 109.551Z" fill="#3F3D56"/>
<path d="M185.123 114.588C184.799 114.604 184.479 114.512 184.213 114.327C183.507 113.792 183.526 112.506 184.269 110.397C184.472 109.826 184.789 109.302 185.201 108.858C185.614 108.414 186.113 108.059 186.668 107.816C187.187 107.584 187.749 107.462 188.319 107.458C188.888 107.455 189.452 107.57 189.974 107.796C190.065 107.836 190.155 107.879 190.244 107.924C190.848 108.263 191.415 108.666 191.935 109.125C192.376 109.509 192.847 109.857 193.343 110.167L193.508 110.264L193.352 110.375C189.349 113.196 186.635 114.588 185.123 114.588Z" fill="#3F3D56"/>
<path d="M200.514 97.7971C199.198 97.797 197.922 97.3394 196.905 96.5027C195.889 95.666 195.193 94.5018 194.938 93.209C193.838 93.4321 192.828 93.9766 192.036 94.7738C191.244 95.571 190.706 96.5851 190.49 97.6883C190.273 98.7914 190.388 99.934 190.819 100.972C191.25 102.01 191.979 102.897 192.913 103.521C193.847 104.144 194.945 104.477 196.068 104.477C197.191 104.476 198.288 104.143 199.222 103.518C200.156 102.894 200.884 102.007 201.315 100.969C201.745 99.9303 201.859 98.7876 201.642 97.6846C201.27 97.7595 200.893 97.7972 200.514 97.7971V97.7971Z" fill="#3F3D56"/>
<path opacity="0.74" d="M48.3871 106.951C53.0709 106.951 56.8679 103.149 56.8679 98.4595C56.8679 93.7698 53.0709 89.9681 48.3871 89.9681C43.7032 89.9681 39.9062 93.7698 39.9062 98.4595C39.9062 103.149 43.7032 106.951 48.3871 106.951Z" fill="#3F3D56"/>
<path opacity="0.74" d="M56.8675 106.951C61.5513 106.951 65.3483 103.149 65.3483 98.4595C65.3483 93.7698 61.5513 89.9681 56.8675 89.9681C52.1837 89.9681 48.3867 93.7698 48.3867 98.4595C48.3867 103.149 52.1837 106.951 56.8675 106.951Z" fill="#EF293D"/>
<path opacity="0.74" d="M52.6976 100.183C57.3814 100.183 61.1784 96.3816 61.1784 91.6919C61.1784 87.0022 57.3814 83.2005 52.6976 83.2005C48.0138 83.2005 44.2168 87.0022 44.2168 91.6919C44.2168 96.3816 48.0138 100.183 52.6976 100.183Z" fill="#FF6584"/>
<path d="M74.8756 89.2587L53.0918 96.111L53.2399 96.583L75.0237 89.7308L74.8756 89.2587Z" fill="#3F3D56"/>
<path d="M75.0138 90.405C75.5596 90.405 76.0021 89.9619 76.0021 89.4154C76.0021 88.8688 75.5596 88.4258 75.0138 88.4258C74.4679 88.4258 74.0254 88.8688 74.0254 89.4154C74.0254 89.9619 74.4679 90.405 75.0138 90.405Z" fill="#3F3D56"/>
<path d="M216.433 133.945C217.881 134.967 219.272 136.008 220.863 136.795C220.833 136.916 220.801 137.04 220.772 137.161C220.576 137.07 220.386 136.973 220.196 136.874C218.582 136.028 217.194 134.878 215.679 133.878C214.928 133.358 214.108 132.947 213.243 132.656C212.341 132.385 211.398 132.274 210.458 132.329C206.537 132.522 203.176 134.865 199.532 136.045C197.748 136.624 195.85 136.933 193.989 136.57C192.129 136.206 190.476 135.217 188.833 134.321C187.212 133.435 185.445 132.545 183.552 132.545C182.011 132.547 180.39 133.166 179.564 134.531C179.539 134.572 179.498 134.601 179.451 134.613C179.405 134.624 179.355 134.617 179.314 134.592C179.272 134.568 179.242 134.528 179.229 134.482C179.217 134.435 179.222 134.385 179.246 134.343C179.43 134.032 179.657 133.748 179.92 133.5C180.997 132.478 182.581 132.075 184.037 132.193C185.919 132.347 187.637 133.237 189.265 134.133C190.992 135.083 192.761 136.105 194.758 136.312C196.73 136.52 198.682 136.003 200.51 135.308C204.051 133.96 207.545 131.713 211.484 131.963C213.342 132.082 214.933 132.888 216.433 133.945Z" fill="#3F3D56"/>
<path d="M61.4474 62.394V62.8962C61.2813 62.8634 61.1125 62.8468 60.9433 62.8468H58.3587V68.4034C58.3582 69.2261 58.0316 70.0149 57.4507 70.5966C56.8697 71.1783 56.0818 71.5053 55.2602 71.5058H51.4402V72.3618C51.4402 72.705 51.5082 73.0447 51.6403 73.3613H51.1115C51.001 73.0397 50.9451 72.7019 50.946 72.3618V71.5058H48.8457V71.011H50.946V65.4544C50.9465 64.6317 51.2731 63.8429 51.854 63.2612C52.435 62.6794 53.2229 62.3524 54.0445 62.352H57.8645V61.4861H58.3587V62.352H60.9433C61.1122 62.3521 61.2808 62.3662 61.4474 62.394V62.394Z" fill="#EF293D"/>
<path d="M55.259 58.3936H48.3602C47.5386 58.394 46.7508 58.721 46.1698 59.3028C45.5888 59.8845 45.2622 60.6733 45.2617 61.496V68.4034C45.2622 69.2261 45.5888 70.0149 46.1698 70.5966C46.7508 71.1783 47.5386 71.5054 48.3602 71.5058H55.259C56.0807 71.5054 56.8685 71.1783 57.4495 70.5966C58.0305 70.0149 58.3571 69.2261 58.3576 68.4034V61.4861C58.3546 60.6651 58.0269 59.8787 57.4462 59.2991C56.8654 58.7195 56.079 58.3939 55.259 58.3936V58.3936ZM57.8634 68.4034C57.8625 69.0947 57.5878 69.7574 57.0996 70.2463C56.6114 70.7351 55.9495 71.0101 55.259 71.011H48.3602C47.6698 71.0101 47.0079 70.7351 46.5197 70.2463C46.0315 69.7574 45.7568 69.0947 45.7559 68.4034V61.496C45.7568 60.8047 46.0315 60.142 46.5197 59.6531C47.0079 59.1643 47.6698 58.8893 48.3602 58.8884H55.259C55.9478 58.8892 56.6083 59.1628 57.0962 59.6495C57.5842 60.1362 57.86 60.7965 57.8634 61.4861V68.4034Z" fill="#3F3D56"/>
<path d="M50.9453 71.011V71.5058H51.4395V71.011H50.9453ZM50.9453 71.011V71.5058H51.4395V71.011H50.9453ZM61.4467 62.394C61.2801 62.3662 61.1115 62.3522 60.9426 62.352H54.0438C53.2222 62.3525 52.4344 62.6795 51.8534 63.2612C51.2724 63.8429 50.9458 64.6317 50.9453 65.4544V72.3618C50.9444 72.7019 51.0004 73.0398 51.1109 73.3613C51.3194 73.9745 51.7144 74.5069 52.2404 74.884C52.7663 75.2611 53.3969 75.464 54.0438 75.4642H60.9426C61.7643 75.4638 62.5521 75.1368 63.1331 74.555C63.7141 73.9733 64.0407 73.1845 64.0411 72.3618V65.4544C64.0409 64.7192 63.78 64.008 63.3049 63.4475C62.8297 62.887 62.1712 62.5137 61.4467 62.394V62.394ZM63.547 72.3618C63.546 73.0531 63.2714 73.7159 62.7831 74.2047C62.2949 74.6935 61.6331 74.9685 60.9426 74.9694H54.0438C53.3534 74.9685 52.6916 74.6934 52.2034 74.2046C51.7152 73.7158 51.4405 73.0531 51.4395 72.3618V65.4544C51.4404 64.7631 51.7151 64.1004 52.2033 63.6116C52.6915 63.1227 53.3534 62.8477 54.0438 62.8468H60.9426C61.6333 62.8471 62.2955 63.1219 62.7839 63.6108C63.2722 64.0998 63.5467 64.7629 63.547 65.4544V72.3618ZM50.9453 71.011V71.5058H51.4395V71.011H50.9453Z" fill="#3F3D56"/>
<path d="M46.0662 135.506H16.7612C16.5572 135.506 16.3615 135.587 16.217 135.731C16.0726 135.876 15.991 136.071 15.9902 136.275V138.015C16.9571 141.722 18.1276 145.374 19.4965 148.952H46.0662C46.1671 148.952 46.2671 148.933 46.3603 148.894C46.4536 148.855 46.5384 148.799 46.6098 148.727C46.6811 148.656 46.7377 148.571 46.7763 148.477C46.8149 148.384 46.8347 148.284 46.8346 148.183V136.275C46.8344 136.071 46.7534 135.876 46.6093 135.732C46.4652 135.587 46.2699 135.506 46.0662 135.506V135.506Z" fill="#EF293D"/>
<path d="M43.274 152.814H21.0605C21.3249 153.435 21.5943 154.051 21.8735 154.665H43.274C44.4798 154.682 44.4675 152.797 43.274 152.814Z" fill="#E4E4E4"/>
<path d="M43.2725 157.055H22.9863C23.2828 157.676 23.5876 158.293 23.9006 158.905H43.2725C44.4783 158.923 44.466 157.04 43.2725 157.055Z" fill="#E4E4E4"/>
<path d="M43.2726 161.298H25.1484C25.4795 161.919 25.8205 162.535 26.1664 163.148H43.2726C44.4784 163.165 44.466 161.28 43.2726 161.298Z" fill="#E4E4E4"/>
<path d="M195.198 47.2542H195.057C195.495 47.2545 195.927 47.3569 196.319 47.5531H195.678C194.988 47.5539 194.326 47.8289 193.838 48.3177C193.35 48.8065 193.075 49.4693 193.074 50.1606V57.0683C193.075 57.7596 193.35 58.4223 193.838 58.9112C194.326 59.4 194.988 59.675 195.678 59.6758H196.087C195.759 59.8047 195.409 59.8711 195.057 59.8716H195.198C195.953 59.8707 196.678 59.5697 197.213 59.0345C197.747 58.4993 198.048 57.7736 198.049 57.0167V50.109C198.048 49.3521 197.747 48.6265 197.213 48.0913C196.678 47.5561 195.953 47.255 195.198 47.2542V47.2542Z" fill="#3F3D56"/>
<path opacity="0.21" d="M195.198 47.2542H195.057C195.495 47.2545 195.927 47.3569 196.319 47.5531H195.678C194.988 47.5539 194.326 47.8289 193.838 48.3177C193.35 48.8065 193.075 49.4693 193.074 50.1606V57.0683C193.075 57.7596 193.35 58.4223 193.838 58.9112C194.326 59.4 194.988 59.675 195.678 59.6758H196.087C195.759 59.8047 195.409 59.8711 195.057 59.8716H195.198C195.953 59.8707 196.678 59.5697 197.213 59.0345C197.747 58.4993 198.048 57.7736 198.049 57.0167V50.109C198.048 49.3521 197.747 48.6265 197.213 48.0913C196.678 47.5561 195.953 47.255 195.198 47.2542V47.2542Z" fill="black"/>
<path d="M176.912 47.2542H176.772C177.21 47.2545 177.642 47.3569 178.034 47.5531H177.393C176.703 47.5539 176.041 47.8289 175.553 48.3177C175.064 48.8065 174.79 49.4693 174.789 50.1606V57.0683C174.79 57.7596 175.064 58.4223 175.553 58.9112C176.041 59.4 176.703 59.675 177.393 59.6758H177.802C177.474 59.8047 177.124 59.8711 176.772 59.8716H176.912C177.668 59.8707 178.393 59.5697 178.928 59.0345C179.462 58.4993 179.763 57.7736 179.764 57.0167V50.109C179.763 49.3521 179.462 48.6265 178.928 48.0913C178.393 47.5561 177.668 47.255 176.912 47.2542V47.2542Z" fill="#EF293D"/>
<path opacity="0.21" d="M176.912 47.2542H176.772C177.21 47.2545 177.642 47.3569 178.034 47.5531H177.393C176.703 47.5539 176.041 47.8289 175.553 48.3177C175.064 48.8065 174.79 49.4693 174.789 50.1606V57.0683C174.79 57.7596 175.064 58.4223 175.553 58.9112C176.041 59.4 176.703 59.675 177.393 59.6758H177.802C177.474 59.8047 177.124 59.8711 176.772 59.8716H176.912C177.668 59.8707 178.393 59.5697 178.928 59.0345C179.462 58.4993 179.763 57.7736 179.764 57.0167V50.109C179.763 49.3521 179.462 48.6265 178.928 48.0913C178.393 47.5561 177.668 47.255 176.912 47.2542V47.2542Z" fill="black"/>
<path d="M177.421 59.6973C176.73 59.6965 176.069 59.4216 175.58 58.9327C175.092 58.4439 174.817 57.7811 174.817 57.0898V50.1821C174.817 49.4908 175.092 48.8281 175.58 48.3392C176.069 47.8504 176.73 47.5754 177.421 47.5746H178.062C177.67 47.3784 177.237 47.2761 176.799 47.2757H169.9C169.144 47.2766 168.419 47.5776 167.885 48.1128C167.35 48.648 167.05 49.3737 167.049 50.1306V57.0383C167.05 57.7952 167.35 58.5208 167.885 59.056C168.419 59.5912 169.144 59.8923 169.9 59.8932H176.799C177.152 59.8927 177.501 59.8262 177.829 59.6973L177.421 59.6973Z" fill="#EF293D"/>
<path d="M195.706 59.6973C195.016 59.6965 194.354 59.4216 193.865 58.9327C193.377 58.4439 193.103 57.7811 193.102 57.0898V50.1821C193.103 49.4908 193.377 48.8281 193.865 48.3392C194.354 47.8504 195.016 47.5754 195.706 47.5746H196.347C195.955 47.3784 195.523 47.2761 195.084 47.2757H188.185C187.429 47.2766 186.705 47.5776 186.17 48.1128C185.636 48.648 185.335 49.3737 185.334 50.1306V57.0383C185.335 57.7952 185.636 58.5208 186.17 59.056C186.705 59.5912 187.429 59.8923 188.185 59.8932H195.084C195.437 59.8927 195.786 59.8262 196.114 59.6973L195.706 59.6973Z" fill="#3F3D56"/>
<path d="M203.854 48.9948C206.386 52.4824 208.702 56.1219 210.79 59.8928H206.471C205.715 59.8917 204.99 59.5906 204.456 59.0554C203.921 58.5202 203.62 57.7947 203.619 57.0378V50.1304C203.619 49.7398 203.699 49.3532 203.854 48.9948V48.9948Z" fill="#FF6584"/>
<path d="M195.192 63.5173L192.775 59.8928L191.009 57.2432C190.906 57.0884 190.761 56.966 190.591 56.8903C190.421 56.8145 190.234 56.7885 190.05 56.8152C189.866 56.8418 189.693 56.9201 189.552 57.041C189.411 57.1618 189.307 57.3203 189.252 57.498L188.508 59.8928L187.011 64.7048C186.952 64.8965 186.952 65.1017 187.013 65.293C187.073 65.4844 187.19 65.6527 187.349 65.7756C187.507 65.8984 187.699 65.97 187.899 65.9807C188.099 65.9914 188.298 65.9407 188.469 65.8354L189 65.5064C189.107 65.4404 189.229 65.4028 189.354 65.3972C189.48 65.3916 189.604 65.4182 189.717 65.4744C189.829 65.5307 189.925 65.6147 189.996 65.7186C190.067 65.8225 190.11 65.9427 190.122 66.068L190.608 71.3871C190.631 71.6314 190.744 71.8585 190.925 72.024C191.106 72.1896 191.342 72.2818 191.587 72.2827C191.616 72.2827 191.646 72.2802 191.678 72.2777L192.424 72.2109C192.553 72.1992 192.678 72.1622 192.793 72.102C192.907 72.0418 193.009 71.9596 193.091 71.8601C193.174 71.7606 193.236 71.6457 193.274 71.5221C193.313 71.3985 193.326 71.2685 193.314 71.1397L192.812 65.6474C192.801 65.5184 192.823 65.3885 192.877 65.2708C192.931 65.1531 193.015 65.0518 193.121 64.9771C193.227 64.9024 193.35 64.8568 193.479 64.8451C193.608 64.8333 193.738 64.8557 193.855 64.9101L193.964 64.9596C194.159 65.0493 194.377 65.0729 194.586 65.0268C194.796 64.9807 194.984 64.8673 195.123 64.704C195.262 64.5407 195.344 64.3364 195.357 64.1222C195.369 63.9079 195.311 63.6955 195.192 63.5173V63.5173Z" fill="#CCCCCC"/>
</g>
<defs>
<clipPath id="clip0_2631_40293">
<rect width="223" height="217" fill="white"/>
</clipPath>
</defs>
</svg>
