<svg width="250" height="156" viewBox="0 0 250 156" fill="none" xmlns="http://www.w3.org/2000/svg">
<g clip-path="url(#clip0_2631_40185)">
<path d="M246.433 63.0186C237.26 27.0428 205.563 1.07331 168.357 0.0317016C148.688 -0.518968 127.991 5.98711 112.921 28.7543C85.9829 69.453 114.577 97.5771 134.511 110.941C144.142 117.411 152.82 125.189 160.294 134.053C173.759 149.989 199.663 169.792 230.514 138.764C252.874 116.274 252.543 86.982 246.433 63.0186Z" fill="#F2F2F2"/>
<path d="M34.4312 90.2936C34.184 89.9285 33.9411 89.5538 33.709 89.1797L34.0839 88.9483C34.3128 89.3177 34.5526 89.6875 34.7964 90.0477L34.4312 90.2936Z" fill="#3F3D56"/>
<path d="M32.3787 86.8237C31.9699 86.0235 31.5899 85.197 31.2495 84.3669L31.6573 84.2003C31.9933 85.0193 32.3681 85.8348 32.7714 86.6241L32.3787 86.8237ZM30.3284 81.8252C30.058 80.9694 29.8203 80.0916 29.6218 79.2162L30.0517 79.1192C30.2475 79.9829 30.4819 80.8488 30.7487 81.693L30.3284 81.8252ZM29.1344 76.5578C29.0095 75.6708 28.92 74.7662 28.8681 73.869L29.3082 73.8437C29.3592 74.7289 29.4476 75.6215 29.5709 76.4967L29.1344 76.5578ZM29.2628 71.1774L28.8223 71.1671C28.8435 70.2686 28.902 69.3616 28.9961 68.4713L29.4345 68.5175C29.3416 69.3959 29.2838 70.2909 29.2628 71.1774V71.1774ZM29.8242 65.8806L29.3912 65.7986C29.559 64.9171 29.7659 64.0318 30.0062 63.1674L30.431 63.2848C30.1939 64.1376 29.9898 65.011 29.8242 65.8806V65.8806ZM31.2516 60.748L30.8382 60.5958C31.1498 59.7538 31.5009 58.9142 31.8817 58.1003L32.2812 58.2862C31.9054 59.0891 31.559 59.9174 31.2516 60.748V60.748ZM91.6124 59.3893C91.2678 58.5744 90.8844 57.7632 90.4727 56.9781L90.8633 56.7744C91.2806 57.5703 91.6693 58.3925 92.0185 59.2184L91.6124 59.3893ZM33.5112 55.9179L33.1285 55.6998C33.5749 54.9211 34.0596 54.1509 34.5694 53.4104L34.9326 53.6592C34.4298 54.3898 33.9515 55.1497 33.5112 55.9179ZM89.1374 54.6687C88.6627 53.921 88.1509 53.1836 87.616 52.4769L87.9678 52.212C88.51 52.9284 89.0287 53.6758 89.5097 54.4336L89.1374 54.6687ZM36.5354 51.5248L36.1936 51.247C36.7622 50.5513 37.3665 49.8707 37.9901 49.2239L38.3077 49.5285C37.6926 50.1667 37.0962 50.8383 36.5354 51.5248ZM85.9195 50.4166C85.3283 49.7557 84.7025 49.1114 84.0594 48.5014L84.3631 48.1829C85.0149 48.8012 85.6492 49.4542 86.2483 50.1238L85.9195 50.4166ZM40.2378 47.6837L39.9462 47.3542C40.6205 46.7605 41.328 46.1874 42.049 45.6507L42.3126 46.0029C41.6012 46.5325 40.9032 47.0979 40.2378 47.6837ZM82.0484 46.7445C81.357 46.1888 80.634 45.6549 79.8996 45.1579L80.1471 44.7941C80.8915 45.298 81.6242 45.839 82.3249 46.4022L82.0484 46.7445ZM44.518 44.4978L44.2843 44.1251C45.0474 43.6491 45.8392 43.1993 46.6377 42.7883L46.8398 43.1789C46.052 43.5844 45.2709 44.0281 44.518 44.4978ZM77.6275 43.7526C76.8532 43.3167 76.0522 42.9084 75.2468 42.5389L75.431 42.1395C76.2474 42.5141 77.0592 42.928 77.8441 43.3696L77.6275 43.7526ZM49.2624 42.0559L49.0932 41.65C49.9238 41.3059 50.7787 40.9925 51.6343 40.7184L51.769 41.1369C50.9251 41.4072 50.0817 41.7164 49.2624 42.0559ZM72.7735 41.5256C71.9394 41.2236 71.0818 40.9528 70.2246 40.7206L70.3402 40.2965C71.2089 40.5317 72.0783 40.8063 72.9239 41.1124L72.7735 41.5256ZM54.3452 40.4279L54.2458 39.9997C55.1211 39.7973 56.0167 39.6289 56.9078 39.499L56.9715 39.934C56.0924 40.0621 55.2089 40.2283 54.3452 40.4279V40.4279ZM67.6176 40.1293C66.7464 39.9692 65.856 39.8432 64.9711 39.755L65.015 39.3176C65.9118 39.4071 66.8144 39.5347 67.6974 39.697L67.6176 40.1293ZM59.6296 39.6577L59.6019 39.2189C60.4983 39.1625 61.4123 39.1424 62.3105 39.1586L62.3025 39.5982C61.4155 39.582 60.5144 39.6021 59.6296 39.6577V39.6577Z" fill="#3F3D56"/>
<path d="M92.9419 63.1718C92.8238 62.7535 92.6956 62.3319 92.5605 61.9186L92.9795 61.7823C93.1164 62.2013 93.2465 62.6287 93.3661 63.0527L92.9419 63.1718Z" fill="#3F3D56"/>
<path d="M90.2533 38.5554H89.8125C89.8125 38.1155 89.8203 37.6691 89.8356 37.2289L90.2762 37.2442C90.261 37.6794 90.2533 38.1205 90.2533 38.5554Z" fill="#3F3D56"/>
<path d="M90.4638 34.601L90.0254 34.5544C90.1199 33.6692 90.2476 32.7767 90.4051 31.9019L90.839 31.9796C90.6833 32.8441 90.5571 33.7261 90.4638 34.601ZM91.4021 29.3918L90.9751 29.2832C91.1957 28.4205 91.4507 27.5555 91.7328 26.7122L92.151 26.8513C91.8721 27.6847 91.6202 28.5394 91.4021 29.3918V29.3918ZM161.692 24.7542C161.363 23.9385 160.999 23.1246 160.612 22.3354L161.008 22.1422C161.4 22.9409 161.768 23.7644 162.101 24.59L161.692 24.7542ZM93.0825 24.369L92.6756 24.2C93.0183 23.3786 93.3956 22.5586 93.7974 21.7628L94.191 21.9604C93.7941 22.747 93.4211 23.5572 93.0825 24.369V24.369ZM159.36 20C158.917 19.2404 158.44 18.4867 157.944 17.76L158.308 17.5123C158.811 18.2477 159.293 19.0103 159.741 19.7789L159.36 20ZM95.4703 19.638L95.0919 19.4126C95.5487 18.6494 96.0399 17.8919 96.5516 17.1614L96.913 17.4132C96.4071 18.1351 95.9217 18.8837 95.4703 19.638H95.4703ZM156.37 15.6265C155.822 14.9365 155.243 14.2582 154.648 13.6102L154.973 13.3134C155.575 13.9691 156.161 14.6554 156.716 15.3535L156.37 15.6265ZM98.5112 15.2972L98.1688 15.0204C98.731 14.3288 99.3251 13.6491 99.9347 13L100.256 13.3005C99.654 13.942 99.0668 14.6138 98.5112 15.2972ZM152.786 11.7213C152.145 11.1163 151.475 10.5269 150.794 9.96938L151.073 9.62962C151.763 10.1936 152.441 10.79 153.089 11.4022L152.786 11.7213ZM102.14 11.4331L101.84 11.1105C102.494 10.5062 103.179 9.91755 103.875 9.36111L104.151 9.70409C103.463 10.2541 102.786 10.8357 102.14 11.4331V11.4331ZM148.682 8.36349C147.962 7.85545 147.214 7.36716 146.46 6.91213L146.688 6.5361C147.451 6.99649 148.208 7.49058 148.936 8.00463L148.682 8.36349ZM106.28 8.12267L106.03 7.76101C106.764 7.25576 107.525 6.77059 108.293 6.31878L108.517 6.6974C107.758 7.14394 107.005 7.62344 106.28 8.12267V8.12267ZM144.14 5.62336C143.354 5.22307 142.544 4.8466 141.732 4.50416L141.904 4.09936C142.725 4.44578 143.545 4.82686 144.34 5.23187L144.14 5.62336ZM110.85 5.43589L110.654 5.04225C111.453 4.6469 112.276 4.27547 113.1 3.93839L113.268 4.34512C112.453 4.67822 111.639 5.04524 110.85 5.43588V5.43589ZM139.25 3.56095C138.417 3.27785 137.561 3.02136 136.707 2.79868L136.818 2.37349C137.682 2.59875 138.549 2.85835 139.392 3.14478L139.25 3.56095ZM115.757 3.43088L115.619 3.01321C116.466 2.73633 117.335 2.4866 118.201 2.27099L118.308 2.69747C117.452 2.9105 116.594 3.15722 115.757 3.43087L115.757 3.43088ZM134.115 2.22185C133.248 2.0614 132.365 1.93037 131.488 1.83229L131.537 1.39551C132.424 1.49477 133.318 1.62731 134.195 1.78958L134.115 2.22185ZM120.905 2.14952L120.83 1.71638C121.708 1.56389 122.603 1.44121 123.491 1.35161L123.536 1.78904C122.658 1.87746 121.773 1.99873 120.905 2.14951L120.905 2.14952ZM128.841 1.63074C127.958 1.59501 127.061 1.59029 126.185 1.61636L126.172 1.17701C127.058 1.15061 127.966 1.15523 128.859 1.19161L128.841 1.63074Z" fill="#3F3D56"/>
<path d="M162.982 28.526C162.864 28.1077 162.737 27.6854 162.604 27.2707L163.023 27.1367C163.158 27.5563 163.287 27.9837 163.406 28.4069L162.982 28.526Z" fill="#3F3D56"/>
<path d="M34.1731 95.749C38.2275 95.749 41.5143 95.5031 41.5143 95.1999C41.5143 94.8966 38.2275 94.6508 34.1731 94.6508C30.1188 94.6508 26.832 94.8966 26.832 95.1999C26.832 95.5031 30.1188 95.749 34.1731 95.749Z" fill="#EF293D"/>
<path d="M92.7181 69.2084C96.7725 69.2084 100.059 68.9625 100.059 68.6593C100.059 68.356 96.7725 68.1101 92.7181 68.1101C88.6637 68.1101 85.377 68.356 85.377 68.6593C85.377 68.9625 88.6637 69.2084 92.7181 69.2084Z" fill="#EF293D"/>
<path d="M165.029 41.5696C169.083 41.5696 172.37 41.3237 172.37 41.0205C172.37 40.7172 169.083 40.4713 165.029 40.4713C160.974 40.4713 157.688 40.7172 157.688 41.0205C157.688 41.3237 160.974 41.5696 165.029 41.5696Z" fill="#EF293D"/>
<path d="M162.12 39.2176L140.045 61.2336L140.357 61.5443L162.431 39.5284L162.12 39.2176Z" fill="#3F3D56"/>
<path d="M133.645 64.0464H96.5723V64.486H133.645V64.0464Z" fill="#3F3D56"/>
<path d="M89.8053 67.0433L69.0703 87.7231L69.3819 88.0339L90.117 67.3541L89.8053 67.0433Z" fill="#3F3D56"/>
<path d="M62.8037 90.5872H38.0273V91.0268H62.8037V90.5872Z" fill="#3F3D56"/>
<path d="M31.2923 93.3697L6.67188 117.925L6.9835 118.235L31.604 93.6805L31.2923 93.3697Z" fill="#3F3D56"/>
<path d="M34.1723 94.8708C33.3664 94.8709 32.5786 94.6326 31.9086 94.1861C31.2385 93.7395 30.7163 93.1049 30.4078 92.3623C30.0994 91.6198 30.0187 90.8027 30.1759 90.0145C30.3331 89.2262 30.7212 88.5021 31.291 87.9338C31.8608 87.3654 32.5868 86.9784 33.3772 86.8216C34.1676 86.6648 34.9869 86.7453 35.7314 87.0528C36.4759 87.3604 37.1123 87.8812 37.56 88.5495C38.0077 89.2178 38.2467 90.0034 38.2467 90.8072C38.2455 91.8845 37.8158 92.9174 37.052 93.6792C36.2881 94.4411 35.2525 94.8696 34.1723 94.8708V94.8708ZM34.1723 87.1831C33.4536 87.183 32.751 87.3956 32.1534 87.7938C31.5559 88.192 31.0901 88.758 30.815 89.4202C30.54 90.0824 30.468 90.8111 30.6082 91.5141C30.7484 92.2171 31.0945 92.8629 31.6027 93.3698C32.1109 93.8766 32.7583 94.2218 33.4632 94.3616C34.1681 94.5015 34.8987 94.4297 35.5627 94.1554C36.2267 93.8811 36.7942 93.4166 37.1935 92.8206C37.5928 92.2246 37.8059 91.524 37.8059 90.8072C37.8048 89.8464 37.4217 88.9252 36.7405 88.2458C36.0592 87.5664 35.1357 87.1842 34.1723 87.1831V87.1831Z" fill="#3F3D56"/>
<path d="M66.6566 94.8708C65.8507 94.8708 65.0629 94.6325 64.3929 94.186C63.7228 93.7395 63.2006 93.1048 62.8922 92.3623C62.5838 91.6197 62.5031 90.8027 62.6603 90.0144C62.8175 89.2261 63.2056 88.502 63.7754 87.9337C64.3453 87.3654 65.0713 86.9784 65.8617 86.8216C66.652 86.6648 67.4713 86.7453 68.2158 87.0528C68.9603 87.3604 69.5967 87.8813 70.0444 88.5495C70.4921 89.2178 70.7311 90.0035 70.7311 90.8072C70.7299 91.8846 70.3002 92.9175 69.5364 93.6793C68.7725 94.4411 67.7368 94.8697 66.6566 94.8708ZM66.6566 87.1831C65.9379 87.1831 65.2353 87.3956 64.6377 87.7938C64.0402 88.1921 63.5744 88.7581 63.2994 89.4203C63.0243 90.0825 62.9524 90.8112 63.0926 91.5142C63.2328 92.2172 63.5789 92.863 64.0871 93.3698C64.5953 93.8766 65.2428 94.2218 65.9476 94.3616C66.6525 94.5015 67.3831 94.4297 68.0471 94.1554C68.7111 93.8811 69.2786 93.4166 69.6779 92.8206C70.0772 92.2246 70.2903 91.5239 70.2903 90.8072C70.2892 89.8463 69.906 88.9252 69.2248 88.2458C68.5436 87.5663 67.62 87.1842 66.6566 87.1831V87.1831Z" fill="#3F3D56"/>
<path d="M92.719 68.33C91.9131 68.3299 91.1254 68.0916 90.4553 67.6451C89.7853 67.1986 89.2631 66.5639 88.9547 65.8214C88.6463 65.0789 88.5656 64.2618 88.7228 63.4736C88.88 62.6853 89.2681 61.9612 89.8379 61.3929C90.4077 60.8246 91.1337 60.4376 91.9241 60.2808C92.7145 60.124 93.5337 60.2045 94.2782 60.512C95.0227 60.8196 95.6591 61.3404 96.1068 62.0087C96.5545 62.6769 96.7935 63.4626 96.7935 64.2663C96.7923 65.3437 96.3626 66.3766 95.5987 67.1384C94.8349 67.9002 93.7992 68.3288 92.719 68.33V68.33ZM92.719 60.6423C92.0003 60.6423 91.2977 60.8549 90.7002 61.2531C90.1026 61.6513 89.6369 62.2173 89.3619 62.8795C89.0868 63.5417 89.0149 64.2704 89.1551 64.9734C89.2953 65.6764 89.6414 66.3221 90.1496 66.829C90.6578 67.3358 91.3053 67.6809 92.0102 67.8208C92.715 67.9606 93.4457 67.8888 94.1096 67.6145C94.7736 67.3402 95.3411 66.8757 95.7404 66.2797C96.1396 65.6837 96.3528 64.9831 96.3527 64.2663C96.3516 63.3055 95.9684 62.3843 95.2872 61.7049C94.606 61.0255 93.6823 60.6434 92.719 60.6423V60.6423Z" fill="#3F3D56"/>
<path d="M137.5 68.33C136.694 68.3299 135.907 68.0916 135.237 67.6451C134.567 67.1986 134.044 66.5639 133.736 65.8214C133.428 65.0789 133.347 64.2618 133.504 63.4736C133.661 62.6853 134.049 61.9612 134.619 61.3929C135.189 60.8246 135.915 60.4376 136.705 60.2808C137.496 60.124 138.315 60.2045 139.059 60.512C139.804 60.8196 140.44 61.3404 140.888 62.0087C141.336 62.6769 141.575 63.4626 141.575 64.2663C141.573 65.3437 141.144 66.3766 140.38 67.1384C139.616 67.9002 138.58 68.3288 137.5 68.33V68.33ZM137.5 60.6423C136.782 60.6423 136.079 60.8549 135.481 61.2531C134.884 61.6513 134.418 62.2173 134.143 62.8795C133.868 63.5417 133.796 64.2704 133.936 64.9734C134.077 65.6764 134.423 66.3221 134.931 66.829C135.439 67.3358 136.087 67.6809 136.791 67.8208C137.496 67.9606 138.227 67.8888 138.891 67.6145C139.555 67.3402 140.122 66.8757 140.522 66.2797C140.921 65.6837 141.134 64.9831 141.134 64.2663C141.133 63.3055 140.75 62.3843 140.068 61.7049C139.387 61.0255 138.464 60.6433 137.5 60.6423V60.6423Z" fill="#3F3D56"/>
<path d="M165.029 40.6908C164.224 40.6908 163.436 40.4525 162.766 40.006C162.096 39.5594 161.574 38.9248 161.265 38.1823C160.957 37.4397 160.876 36.6227 161.033 35.8344C161.191 35.0462 161.579 34.3221 162.148 33.7538C162.718 33.1855 163.444 32.7985 164.235 32.6417C165.025 32.4849 165.844 32.5654 166.589 32.8729C167.333 33.1805 167.97 33.7013 168.417 34.3696C168.865 35.0378 169.104 35.8234 169.104 36.6271C169.103 37.7045 168.673 38.7374 167.909 39.4993C167.145 40.2611 166.11 40.6896 165.029 40.6908V40.6908ZM165.029 33.0032C164.311 33.0032 163.608 33.2157 163.011 33.614C162.413 34.0122 161.947 34.5782 161.672 35.2404C161.397 35.9026 161.325 36.6313 161.466 37.3343C161.606 38.0373 161.952 38.683 162.46 39.1898C162.968 39.6967 163.616 40.0418 164.321 40.1816C165.026 40.3214 165.756 40.2497 166.42 39.9754C167.084 39.7011 167.652 39.2365 168.051 38.6406C168.45 38.0446 168.663 37.3439 168.663 36.6272C168.662 35.6663 168.279 34.7452 167.598 34.0658C166.916 33.3864 165.993 33.0042 165.029 33.0032V33.0032Z" fill="#3F3D56"/>
<path d="M4.07462 124.889C3.26875 124.889 2.48098 124.651 1.81091 124.204C1.14085 123.758 0.618593 123.123 0.310186 122.381C0.00177992 121.638 -0.0789245 120.821 0.0782793 120.033C0.235483 119.245 0.623534 118.52 1.19336 117.952C1.76319 117.384 2.4892 116.997 3.27958 116.84C4.06996 116.683 4.88921 116.764 5.63374 117.071C6.37826 117.379 7.01462 117.9 7.46234 118.568C7.91005 119.236 8.14902 120.022 8.14902 120.826C8.1478 121.903 7.71815 122.936 6.95432 123.698C6.19049 124.459 5.15485 124.888 4.07462 124.889V124.889ZM4.07462 117.201C3.35592 117.201 2.65336 117.414 2.05578 117.812C1.45819 118.21 0.992428 118.776 0.71738 119.439C0.442333 120.101 0.370357 120.83 0.510554 121.533C0.650751 122.236 0.996826 122.881 1.50501 123.388C2.0132 123.895 2.66067 124.24 3.36556 124.38C4.07044 124.52 4.80108 124.448 5.46507 124.174C6.12906 123.9 6.69658 123.435 7.09587 122.839C7.49516 122.243 7.70828 121.542 7.70828 120.826C7.70718 119.865 7.324 118.944 6.64279 118.264C5.96159 117.585 5.038 117.203 4.07462 117.201V117.201Z" fill="#3F3D56"/>
<path d="M34.1731 66.8289C33.2091 66.8289 32.2545 67.0182 31.3638 67.3862C30.4732 67.7541 29.6639 68.2934 28.9822 68.9733C28.3005 69.6532 27.7598 70.4603 27.3908 71.3486C27.0219 72.2369 26.832 73.189 26.832 74.1504C26.832 78.194 34.1731 91.5392 34.1731 91.5392C34.1731 91.5392 41.5143 78.194 41.5143 74.1504C41.5143 73.189 41.3244 72.2369 40.9555 71.3486C40.5865 70.4603 40.0458 69.6532 39.3641 68.9733C38.6824 68.2934 37.8731 67.7541 36.9825 67.3862C36.0918 67.0182 35.1372 66.8289 34.1731 66.8289V66.8289ZM34.1731 77.9943C33.4109 77.9943 32.6657 77.7688 32.0319 77.3465C31.3981 76.9241 30.9041 76.3238 30.6124 75.6214C30.3207 74.919 30.2444 74.1462 30.3931 73.4006C30.5418 72.6549 30.9089 71.97 31.4479 71.4325C31.9869 70.8949 32.6736 70.5288 33.4213 70.3805C34.1689 70.2322 34.9438 70.3083 35.648 70.5992C36.3523 70.8901 36.9542 71.3828 37.3777 72.0149C37.8012 72.647 38.0272 73.3902 38.0272 74.1504C38.0272 75.1699 37.6212 76.1476 36.8984 76.8684C36.1756 77.5893 35.1953 77.9943 34.1731 77.9943V77.9943Z" fill="#EF293D"/>
<path d="M92.7181 39.3729C90.7711 39.3729 88.9038 40.1443 87.5271 41.5173C86.1504 42.8904 85.377 44.7527 85.377 46.6945C85.377 50.7381 92.7181 64.0832 92.7181 64.0832C92.7181 64.0832 100.059 50.7381 100.059 46.6945C100.059 45.733 99.8693 44.7809 99.5004 43.8926C99.1315 43.0043 98.5907 42.1972 97.909 41.5173C97.2274 40.8375 96.4181 40.2982 95.5274 39.9302C94.6367 39.5623 93.6821 39.3729 92.7181 39.3729V39.3729ZM92.7181 50.5383C91.9558 50.5383 91.2107 50.3129 90.5769 49.8905C89.9431 49.4681 89.4491 48.8678 89.1574 48.1654C88.8657 47.4631 88.7893 46.6902 88.938 45.9446C89.0868 45.199 89.4538 44.5141 89.9928 43.9765C90.5318 43.4389 91.2186 43.0728 91.9662 42.9245C92.7138 42.7762 93.4887 42.8523 94.193 43.1433C94.8972 43.4342 95.4991 43.9268 95.9226 44.559C96.3461 45.1911 96.5722 45.9342 96.5722 46.6945C96.5722 47.7139 96.1661 48.6916 95.4433 49.4125C94.7205 50.1333 93.7402 50.5383 92.7181 50.5383V50.5383Z" fill="#EF293D"/>
<path d="M236.837 155.463H136.891V156H236.837V155.463Z" fill="#2F2E41"/>
<path d="M219.364 15.9193C217.811 20.5075 215.428 24.688 210.572 24.688C205.717 24.688 202.054 20.7544 201.78 15.9193C201.431 9.74101 205.605 7.12505 210.572 7.15064C216.441 7.18087 221.208 10.4743 219.364 15.9193Z" fill="#2F2E41"/>
<path d="M219.134 15.2273H201.781V37.149H219.134V15.2273Z" fill="#2F2E41"/>
<path d="M219.644 31.5589H221.12C221.12 31.5589 224.728 36.1386 223.088 42.3538C221.448 48.5691 222.76 49.714 222.76 49.714C222.76 49.714 224.895 56.4446 222.599 66.5853C220.303 76.726 224.728 79.4818 224.728 79.4818L220.628 71.3038L218.332 49.714L219.644 31.5589Z" fill="#575A89"/>
<path opacity="0.1" d="M219.644 32.0968H221.12C221.12 32.0968 224.728 36.6764 223.088 42.8917C221.448 49.107 222.76 50.2519 222.76 50.2519C222.76 50.2519 224.895 56.9825 222.599 67.1232C220.303 77.2638 224.728 80.0197 224.728 80.0197L220.628 71.8417L218.332 50.2519L219.644 32.0968Z" fill="black"/>
<path d="M214.477 23.6265C214.477 23.6265 213.165 28.8604 213.821 28.8604C214.477 28.8604 216.773 31.6409 216.773 31.6409L218.249 37.0384L217.101 40.9638L213.165 40.146L208.245 34.7486L206.769 33.2765L205.457 28.5333C205.457 28.5333 207.097 26.5706 205.949 24.935C204.801 23.2994 214.477 23.6265 214.477 23.6265Z" fill="#FBBEBE"/>
<path opacity="0.1" d="M214.477 23.6265C214.477 23.6265 213.165 28.8604 213.821 28.8604C214.477 28.8604 216.773 31.6409 216.773 31.6409L218.249 37.0384L217.101 40.9638L213.165 40.146L208.245 34.7486L206.769 33.2765L205.457 28.5333C205.457 28.5333 207.097 26.5706 205.949 24.935C204.801 23.2994 214.477 23.6265 214.477 23.6265Z" fill="black"/>
<path d="M174.791 38.1831L171.183 32.295C171.183 32.295 167.289 23.7008 164.501 26.8085C161.713 29.9161 168.724 36.2204 168.724 36.2204L172.331 40.9636L174.791 38.1831Z" fill="#FBBEBE"/>
<path d="M222.677 89.377L220.053 108.513C220.053 108.513 220.381 109.985 217.101 115.383C213.822 120.78 204.966 132.557 204.966 132.557L202.342 127.65C202.342 127.65 205.458 112.112 210.87 108.841L210.214 85.288L222.677 89.377Z" fill="#FBBEBE"/>
<path opacity="0.1" d="M222.677 89.377L220.053 108.513C220.053 108.513 220.381 109.985 217.101 115.383C213.822 120.78 204.966 132.557 204.966 132.557L202.342 127.65C202.342 127.65 205.458 112.112 210.87 108.841L210.214 85.288L222.677 89.377Z" fill="black"/>
<path d="M202.342 125.687L205.95 132.557C205.95 132.557 202.998 140.898 204.146 141.716C205.294 142.534 206.77 149.894 203.654 149.076C200.538 148.259 198.078 144.987 198.078 144.497C198.078 144.006 199.882 137.137 198.898 135.501C197.914 133.865 197.258 133.375 197.258 133.375L194.798 137.464L193.979 136.973L198.078 130.104C198.078 130.104 198.57 128.795 200.538 127.977L202.342 125.687Z" fill="#2F2E41"/>
<path opacity="0.1" d="M202.342 125.687L205.95 132.557C205.95 132.557 202.998 140.898 204.146 141.716C205.294 142.534 206.77 149.894 203.654 149.076C200.538 148.259 198.078 144.987 198.078 144.497C198.078 144.006 199.882 137.137 198.898 135.501C197.914 133.865 197.258 133.375 197.258 133.375L194.798 137.464L193.979 136.973L198.078 130.104C198.078 130.104 198.57 128.795 200.538 127.977L202.342 125.687Z" fill="black"/>
<path d="M210.252 86.6619C210.252 86.6619 211.525 104.752 208.738 109.495V133.047L204.966 133.538C204.966 133.538 197.348 121.069 200.136 108.802C202.924 96.5348 197.258 85.288 197.258 85.288L210.252 86.6619Z" fill="#FBBEBE"/>
<path d="M209.312 27.6338C213.116 27.6338 216.199 24.5583 216.199 20.7643C216.199 16.9704 213.116 13.8948 209.312 13.8948C205.508 13.8948 202.424 16.9704 202.424 20.7643C202.424 24.5583 205.508 27.6338 209.312 27.6338Z" fill="#FBBEBE"/>
<path d="M216.281 38.8374L209.394 30.1687L205.458 27.5518L203.818 29.678L199.226 30.9865C199.226 30.9865 196.274 31.6407 193.158 35.2391C190.042 38.8374 184.466 40.9636 184.466 40.9636L179.874 40.1458C179.874 40.1458 174.462 37.6924 174.462 37.0382C174.462 36.384 169.707 41.4543 170.855 43.417C172.003 45.3798 174.462 47.8331 175.774 49.1416C177.086 50.4501 177.578 54.212 185.614 53.067C193.65 51.9221 196.602 47.9967 196.602 47.9967C196.602 47.9967 198.078 55.5204 202.342 56.9925C206.606 58.4645 220.545 59.4459 220.545 59.4459L223.497 49.6323C223.497 49.6323 226.777 45.3798 222.349 39.1645C222.349 39.1645 222.264 35.6885 221.788 33.3754C221.603 32.4757 221.359 31.752 221.037 31.4772C219.889 30.4958 213.821 28.8602 213.821 28.8602C213.821 28.8602 214.805 32.1314 215.297 32.295C215.789 32.4585 216.937 38.0196 216.281 38.8374Z" fill="#575A89"/>
<path d="M194.224 87.66C202.483 87.0875 207.291 88.4369 209.436 89.4657C209.835 89.6457 210.211 89.873 210.555 90.1428C210.712 90.2753 210.788 90.3783 210.788 90.4405C210.788 90.9312 222.103 91.9125 226.203 90.9312C230.303 89.9498 223.415 68.8506 221.611 67.0515C219.807 65.2523 220.78 58.6674 220.78 58.6674C220.78 58.6674 217.183 57.8922 216.199 58.2193C215.215 58.5464 210.132 57.7286 208.328 56.7472C206.524 55.7659 204.228 56.4201 202.752 56.093C202.092 55.9474 201.76 56.1928 201.594 56.5101C201.336 56.9861 200.947 57.3783 200.472 57.6403C196.991 59.6406 194.196 73.4712 192.092 81.1176C189.796 89.4591 194.224 87.66 194.224 87.66Z" fill="#2F2E41"/>
<path d="M209.394 131.576L210.05 135.174C210.05 135.174 213.494 140.081 212.51 144.17C212.51 144.17 213.33 149.567 216.282 151.039C219.234 152.511 216.774 155.946 213.986 155.782C211.198 155.619 208.574 155.946 208.246 155.128C207.918 154.31 205.95 146.296 205.95 146.296L205.411 155.674L203.771 155.838L204.31 144.987C204.31 144.987 202.998 142.534 204.802 138.445L204.347 132.169C204.347 132.169 208.902 133.211 209.394 131.576Z" fill="#2F2E41"/>
<path opacity="0.1" d="M209.436 89.4657C209.834 89.6456 210.21 89.873 210.554 90.1428C210.641 88.5972 211.143 79.2498 210.541 79.4002L209.436 89.4657Z" fill="black"/>
<path d="M206.46 11.3044C206.46 11.3044 206.383 10.8809 203.4 11.9967C200.417 13.1124 198.629 21.3463 200.12 26.1813C200.721 28.1298 200.232 29.5346 199.434 30.5176C196.439 34.2062 197.618 39.7464 201.981 41.6432C202.104 41.6968 202.23 41.7497 202.358 41.802L204.222 42.9178C204.222 42.9178 201.845 39.7986 203.035 35.8085C204.068 32.4088 204.195 28.7995 203.405 25.3357C203.269 24.7514 203.113 24.1491 202.937 23.5344C201.446 18.3275 202.171 18.9288 207.392 13.7219C207.392 13.7219 210.375 15.9534 212.986 17.0692C215.596 18.185 217.834 19.3007 215.969 23.0199C214.105 26.7392 209.63 30.0865 212.613 34.9215C215.596 39.7564 215.969 37.8968 215.596 39.7565L215.223 41.6161L217.461 39.3845L215.969 42.3599C215.969 42.3599 220.817 42.3599 222.309 38.6407L223.054 39.3845C223.054 39.3845 226.038 34.1776 220.444 29.3426C220.444 29.3426 218.58 28.2268 221.19 24.5076C223.8 20.7884 221.795 12.7921 218.439 11.3044C215.083 9.81669 206.46 11.3044 206.46 11.3044Z" fill="#2F2E41"/>
<path d="M210.572 8.99692C212.489 8.99692 214.043 7.44724 214.043 5.5356C214.043 3.62397 212.489 2.07428 210.572 2.07428C208.655 2.07428 207.102 3.62397 207.102 5.5356C207.102 7.44724 208.655 8.99692 210.572 8.99692Z" fill="#2F2E41"/>
<path d="M206.409 3.68935C206.409 2.83131 206.729 2.00387 207.306 1.36754C207.883 0.731207 208.676 0.331343 209.532 0.245507C209.418 0.234196 209.303 0.228027 209.185 0.228027C208.265 0.228027 207.382 0.592701 206.731 1.24182C206.08 1.89095 205.715 2.77135 205.715 3.68935C205.715 4.60735 206.08 5.48775 206.731 6.13687C207.382 6.786 208.265 7.15067 209.185 7.15067C209.303 7.15067 209.418 7.1445 209.532 7.13319C208.676 7.04735 207.883 6.64749 207.306 6.01116C206.729 5.37483 206.409 4.54739 206.409 3.68935V3.68935Z" fill="#2F2E41"/>
<path d="M165.029 13.0153C164.065 13.0153 163.11 13.2047 162.219 13.5726C161.329 13.9406 160.519 14.4799 159.838 15.1597C159.156 15.8396 158.615 16.6467 158.246 17.535C157.877 18.4233 157.688 19.3754 157.688 20.3369C157.688 24.3805 165.029 37.7256 165.029 37.7256C165.029 37.7256 172.37 24.3805 172.37 20.3369C172.37 19.3754 172.18 18.4233 171.811 17.535C171.442 16.6467 170.901 15.8396 170.22 15.1597C169.538 14.4799 168.729 13.9406 167.838 13.5726C166.947 13.2047 165.993 13.0153 165.029 13.0153V13.0153ZM165.029 24.1807C164.266 24.1807 163.521 23.9553 162.887 23.5329C162.254 23.1105 161.76 22.5102 161.468 21.8078C161.176 21.1055 161.1 20.3326 161.249 19.587C161.397 18.8414 161.764 18.1565 162.303 17.6189C162.842 17.0813 163.529 16.7152 164.277 16.5669C165.024 16.4186 165.799 16.4947 166.504 16.7856C167.208 17.0766 167.81 17.5692 168.233 18.2014C168.657 18.8335 168.883 19.5766 168.883 20.3369C168.883 21.3563 168.477 22.334 167.754 23.0549C167.031 23.7757 166.051 24.1807 165.029 24.1807V24.1807Z" fill="#EF293D"/>
<path d="M105.849 149.245C108.043 149.245 109.821 147.471 109.821 145.283C109.821 143.095 108.043 141.321 105.849 141.321C103.655 141.321 101.877 143.095 101.877 145.283C101.877 147.471 103.655 149.245 105.849 149.245Z" fill="#F1F1F1"/>
<path d="M130.562 132.487C132.756 132.487 134.534 130.714 134.534 128.526C134.534 126.338 132.756 124.564 130.562 124.564C128.368 124.564 126.59 126.338 126.59 128.526C126.59 130.714 128.368 132.487 130.562 132.487Z" fill="#F1F1F1"/>
<path d="M99.9996 116.884C102.193 116.884 103.972 115.11 103.972 112.922C103.972 110.734 102.193 108.961 99.9996 108.961C97.8058 108.961 96.0273 110.734 96.0273 112.922C96.0273 115.11 97.8058 116.884 99.9996 116.884Z" fill="#F1F1F1"/>
</g>
<defs>
<clipPath id="clip0_2631_40185">
<rect width="250" height="156" fill="white"/>
</clipPath>
</defs>
</svg>
