<svg width="223" height="188" viewBox="0 0 223 188" fill="none" xmlns="http://www.w3.org/2000/svg">
<g clip-path="url(#clip0_2631_40234)">
<path d="M69.0725 -0.000112529L54.1934 5.52783L112.863 162.592L127.742 157.064L69.0725 -0.000112529Z" fill="#F2F2F2"/>
<path d="M93.2155 164.935C75.8655 164.935 59.0523 158.935 45.6406 147.958C32.2289 136.981 23.0485 121.706 19.6637 104.735C16.2789 87.7647 18.8991 70.1486 27.0779 54.8887C35.2567 39.6287 48.4879 27.6691 64.5173 21.0475C80.5466 14.4259 98.3822 13.5521 114.985 18.5749C131.588 23.5977 145.931 34.2065 155.57 48.5935C165.209 62.9805 169.548 80.2556 167.848 97.4753C166.147 114.695 158.512 130.794 146.244 143.029C139.296 149.996 131.032 155.519 121.93 159.279C112.827 163.039 103.068 164.962 93.2155 164.935V164.935ZM93.2155 15.8413C52.1335 15.8413 18.7109 49.1735 18.7109 90.1444C18.7109 131.115 52.1335 164.448 93.2155 164.448C134.298 164.448 167.72 131.115 167.72 90.1444C167.72 49.1735 134.298 15.8413 93.2155 15.8413Z" fill="#3F3D56"/>
<path d="M29.7761 24.3265C29.7761 24.3265 18.0597 21.035 14.5942 36.9986C11.1288 52.9623 13.7692 61.0264 13.7692 61.0264L39.9248 57.9818C39.9248 57.9818 47.3507 29.1814 29.7761 24.3265Z" fill="#2F2E41"/>
<path d="M6.92773 111.409L12.2695 134.383L13.271 143.372C13.271 143.372 12.6206 152.778 16.1343 161.026C16.1807 161.135 16.2279 161.243 16.2758 161.352C19.9482 169.676 19.6143 172.672 19.6143 172.672H23.9545L23.2868 158.355C23.2868 158.355 23.2868 148.034 21.6175 144.038L20.6159 112.741L6.92773 111.409Z" fill="#FFB9B9"/>
<path d="M25.291 116.07L40.9823 144.371C40.9823 144.371 43.9871 156.358 47.3256 160.02L55.0044 175.669L58.3429 169.343L49.3288 138.711L40.9823 114.738L25.291 116.07Z" fill="#FFB9B9"/>
<path d="M24.6223 171.008L18.9467 171.341L18.6129 176.668C18.6129 176.668 8.26328 187.322 15.2743 187.655C22.2853 187.988 23.2869 184.992 23.2869 184.992C23.2869 184.992 27.2932 181.995 27.2932 180.663C27.2932 179.331 26.6255 175.336 25.9577 174.337C25.29 173.338 24.6223 171.008 24.6223 171.008Z" fill="#2F2E41"/>
<path d="M58.3415 167.012L52.332 172.007C52.332 172.007 57.006 184.326 59.0092 183.993C61.0123 183.66 77.3714 172.007 75.7021 170.009C74.0328 168.011 71.6958 169.343 71.6958 169.343C71.6958 169.343 64.3509 173.005 62.6816 171.341L58.3415 167.012Z" fill="#2F2E41"/>
<path d="M8.26347 90.7655L5.25875 102.086C5.25875 102.086 -2.08612 109.744 0.584747 110.743C3.25562 111.742 5.25875 110.743 5.59262 112.075C5.92648 113.406 16.2761 116.736 20.2824 115.737L22.2855 114.738C22.2855 114.738 23.6209 119.067 25.6241 118.734C27.6272 118.401 43.6524 118.401 43.3185 117.402C42.9847 116.403 40.6477 112.741 40.6477 111.742C40.6477 110.743 38.9784 106.747 38.9784 106.747C39.1599 106.568 39.2772 106.334 39.3123 106.081C39.3123 105.748 38.6445 88.7677 38.6445 88.7677L11.602 87.4359L8.26347 90.7655Z" fill="#2F2E41"/>
<path d="M27.2936 49.8121C32.0876 49.8121 35.9739 45.9363 35.9739 41.1552C35.9739 36.3742 32.0876 32.4984 27.2936 32.4984C22.4996 32.4984 18.6133 36.3742 18.6133 41.1552C18.6133 45.9363 22.4996 49.8121 27.2936 49.8121Z" fill="#FFB9B9"/>
<path d="M24.4546 47.6477C24.4546 47.6477 25.4562 53.6409 21.7838 55.3057L18.1113 56.9705L32.4672 67.958L37.4751 54.3068C37.4751 54.3068 32.4672 53.308 32.8011 46.3159L24.4546 47.6477Z" fill="#FFB9B9"/>
<path d="M22.6196 56.4711C22.6196 56.4711 31.852 58.6501 35.5822 53.3986L43.9864 54.4733L41.6495 81.4427C41.6495 81.4427 41.9833 96.0927 38.3109 96.4257C34.6384 96.7586 35.9739 93.4291 35.9739 93.4291C35.9739 93.4291 34.3046 95.7597 31.6337 95.7597C28.9629 95.7597 23.6211 93.762 23.6211 93.762C23.6211 93.762 15.9424 92.7632 13.6054 93.0961C11.2684 93.4291 1.25266 95.0938 10.9345 85.4381C10.9345 85.4381 15.9424 82.1086 15.2747 81.1097C14.607 80.1109 13.6054 75.7825 13.6054 75.7825L13.9393 57.137L21.33 55.512L22.6196 56.4711Z" fill="#575A89"/>
<path d="M10.2672 98.4235C10.2672 98.4235 18.2798 103.751 19.9491 99.7553C21.6184 95.7599 12.6042 94.0951 12.6042 94.0951L9.26562 95.4269L10.2672 98.4235Z" fill="#FFB9B9"/>
<path d="M35.6396 100.754C35.6396 100.754 25.6239 100.088 27.2931 103.751C28.9624 107.413 38.3104 104.417 38.3104 104.417L35.6396 100.754Z" fill="#FFB9B9"/>
<path d="M15.6089 57.8029L13.9396 57.137C13.9396 57.137 11.2687 58.8017 8.93174 64.129C6.59473 69.4563 2.25459 78.4461 2.25459 78.4461C2.25459 78.4461 0.251436 78.779 1.25301 80.7767C2.25458 82.7745 2.25459 82.4415 1.58687 83.4404C0.919156 84.4392 0.251438 85.4381 0.919156 86.104C1.58687 86.7699 2.25458 86.7699 1.92072 88.1018C1.58687 89.4336 1.58687 90.7654 1.92072 91.0983C2.25458 91.4313 4.92544 93.0961 4.59159 94.0949C4.25773 95.0938 2.9223 95.4268 4.92545 95.4268C6.92859 95.4268 7.59631 98.7563 7.59631 98.7563L11.6026 99.4222C11.6026 99.4222 9.2656 94.7609 14.2735 94.4279C14.2735 94.4279 12.938 93.429 12.938 92.4302C12.938 91.4313 13.9396 91.4313 12.2703 91.0983C10.601 90.7654 10.2672 90.4324 10.601 89.4336C10.9349 88.4347 11.2687 87.7688 10.601 87.7688C9.93331 87.7688 9.2656 88.7677 9.93331 87.7688C10.601 86.7699 8.59788 84.7722 8.59788 84.7722C8.59788 84.7722 12.6042 74.4506 15.275 73.4517C17.9459 72.4529 15.6089 57.8029 15.6089 57.8029Z" fill="#575A89"/>
<path d="M41.3155 54.8064L43.9863 54.4734C43.9863 54.4734 47.3249 55.1394 48.3265 59.1348C49.328 63.1303 49.6619 84.1064 49.6619 84.1064C49.6619 84.1064 48.3265 85.4383 48.9942 87.103C49.6619 88.7678 49.9958 88.4349 49.328 89.4337C48.6603 90.4326 47.3249 91.0985 47.3249 92.4303C47.3249 93.7621 47.3249 94.428 46.6572 94.761C45.9895 95.094 44.9879 94.761 44.9879 95.7599C44.9879 96.7587 41.9832 99.0894 42.317 99.7553C42.6509 100.421 43.9863 103.085 39.3123 104.417L37.643 106.081C37.643 106.081 35.6399 100.754 33.6367 100.754C33.6367 100.754 35.306 100.421 34.9722 99.0894C34.6383 97.7576 35.9737 97.0917 35.9737 97.0917L41.6493 88.7678L42.6509 84.1064L37.9769 74.7837L41.3155 54.8064Z" fill="#575A89"/>
<path d="M30.687 29.2156C30.687 29.2156 27.3866 37.938 19.3006 41.5586L17.9805 33.8236L30.687 29.2156Z" fill="#2F2E41"/>
<path d="M36.1402 41.9876C36.7548 41.9876 37.2531 41.2422 37.2531 40.3228C37.2531 39.4034 36.7548 38.658 36.1402 38.658C35.5256 38.658 35.0273 39.4034 35.0273 40.3228C35.0273 41.2422 35.5256 41.9876 36.1402 41.9876Z" fill="#FFB9B9"/>
<path d="M195.641 39.8811C197.664 39.8811 199.305 38.245 199.305 36.2268C199.305 34.2086 197.664 32.5726 195.641 32.5726C193.617 32.5726 191.977 34.2086 191.977 36.2268C191.977 38.245 193.617 39.8811 195.641 39.8811Z" fill="#EF293D"/>
<path d="M118.937 164.369C122.58 164.369 125.533 161.424 125.533 157.792C125.533 154.159 122.58 151.214 118.937 151.214C115.295 151.214 112.342 154.159 112.342 157.792C112.342 161.424 115.295 164.369 118.937 164.369Z" fill="#3F3D56"/>
<path d="M108.19 62.0501C110.483 62.0501 112.343 60.1959 112.343 57.9086C112.343 55.6214 110.483 53.7672 108.19 53.7672C105.896 53.7672 104.037 55.6214 104.037 57.9086C104.037 60.1959 105.896 62.0501 108.19 62.0501Z" fill="#3F3D56"/>
<path d="M73.635 57.7475C82.3745 57.7475 89.4594 50.6745 89.4594 41.9496C89.4594 33.2247 82.3745 26.1517 73.635 26.1517C64.8954 26.1517 57.8105 33.2247 57.8105 41.9496C57.8105 50.6745 64.8954 57.7475 73.635 57.7475Z" fill="#EF293D"/>
<path d="M79.1503 23.1767C77.7175 22.9947 76.2674 22.9947 74.8346 23.1767C71.6425 23.5951 68.6376 24.9189 66.1766 26.991C63.7155 29.0631 61.9015 31.7966 60.9499 34.8671C60.517 36.2664 60.2719 37.7168 60.221 39.1804C60.2138 39.3838 60.209 39.5897 60.209 39.7955C60.2134 44.2379 61.9831 48.4971 65.1297 51.6384C68.2762 54.7797 72.5426 56.5464 76.9924 56.5508C77.3497 56.5508 77.7069 56.5389 78.0594 56.5173C78.8867 56.4655 79.709 56.3519 80.5194 56.1774C84.3891 55.3467 87.8402 53.1774 90.2632 50.0528C92.6862 46.9283 93.9253 43.0493 93.7615 39.1012C93.5977 35.1531 92.0416 31.3898 89.3681 28.4759C86.6945 25.562 83.0756 23.6851 79.1503 23.1767H79.1503ZM82.2456 55.2056H82.2432C80.8916 55.6661 79.4847 55.9454 78.0594 56.0362C77.7069 56.0601 77.3497 56.0721 76.9924 56.0721C72.67 56.0668 68.5261 54.3503 65.4696 51.299C62.4132 48.2477 60.6938 44.1107 60.6885 39.7955C60.6885 39.5897 60.6933 39.3838 60.7005 39.1804C60.8653 34.975 62.6532 30.9962 65.6899 28.0771C68.7266 25.1579 72.7767 23.5245 76.9924 23.5189C80.855 23.5192 84.5921 24.8884 87.5379 27.3826C90.4837 29.8769 92.4468 33.3341 93.0775 37.1385C93.7082 40.9429 92.9656 44.8473 90.9818 48.156C88.9981 51.4648 85.9022 53.963 82.2456 55.2056H82.2456Z" fill="#3F3D56"/>
<path d="M77.2315 24.4765H76.752V27.8276H77.2315V24.4765Z" fill="#3F3D56"/>
<path d="M66.3117 28.7941L65.9727 29.1326L68.3462 31.5021L68.6853 31.1636L66.3117 28.7941Z" fill="#3F3D56"/>
<path d="M61.6465 39.5561V40.0349H65.0032V39.5561H61.6465Z" fill="#3F3D56"/>
<path d="M65.9734 50.4587L66.3125 50.7972L68.686 48.4276L68.347 48.0891L65.9734 50.4587Z" fill="#3F3D56"/>
<path d="M85.2996 31.1636L85.6387 31.5021L88.0122 29.1326L87.6731 28.7941L85.2996 31.1636Z" fill="#3F3D56"/>
<path d="M88.9805 39.5561V40.0349H92.3372V39.5561H88.9805Z" fill="#3F3D56"/>
<path d="M85.6399 48.0891L85.3008 48.4276L87.6743 50.7972L88.0134 50.4587L85.6399 48.0891Z" fill="#3F3D56"/>
<path d="M77.2315 51.7636H76.752V55.1147H77.2315V51.7636Z" fill="#3F3D56"/>
<path d="M77.7113 38.8382C77.5038 38.6828 77.2514 38.5988 76.992 38.5988C76.7326 38.5988 76.4802 38.6828 76.2727 38.8382C76.1306 38.9459 76.0137 39.0831 75.9298 39.2403C75.8236 39.4427 75.7777 39.6713 75.7974 39.899C75.8172 40.1266 75.9018 40.3439 76.0413 40.5251C76.1808 40.7063 76.3694 40.8438 76.5847 40.9214C76.8 40.9991 77.033 41.0135 77.2563 40.9631C77.4796 40.9127 77.6837 40.7996 77.8446 40.637C78.0055 40.4745 78.1165 40.2693 78.1643 40.0459C78.2122 39.8224 78.1949 39.5899 78.1147 39.3759C78.0344 39.1619 77.8944 38.9753 77.7113 38.8382H77.7113ZM76.992 40.5137C76.8014 40.5131 76.6188 40.4373 76.484 40.3028C76.3492 40.1682 76.2733 39.9859 76.2727 39.7956C76.2736 39.6504 76.3179 39.5087 76.3998 39.3887C76.47 39.2871 76.5653 39.2054 76.6765 39.1513C76.7877 39.0973 76.9109 39.0728 77.0344 39.0802C77.1578 39.0877 77.2772 39.1268 77.381 39.1937C77.4849 39.2607 77.5697 39.3533 77.6272 39.4626C77.6847 39.5719 77.713 39.6941 77.7094 39.8175C77.7057 39.9409 77.6703 40.0612 77.6064 40.1669C77.5425 40.2726 77.4524 40.36 77.3448 40.4208C77.2371 40.4816 77.1156 40.5136 76.992 40.5137V40.5137Z" fill="#3F3D56"/>
<path d="M79.1497 18.9711H74.834V23.2796H79.1497V18.9711Z" fill="#3F3D56"/>
<path d="M76.9926 19.6893C80.1706 19.6893 82.7469 18.7784 82.7469 17.6548C82.7469 16.5311 80.1706 15.6202 76.9926 15.6202C73.8146 15.6202 71.2383 16.5311 71.2383 17.6548C71.2383 18.7784 73.8146 19.6893 76.9926 19.6893Z" fill="#3F3D56"/>
<path d="M77.712 30.6999H76.2734V38.8382H77.712V30.6999Z" fill="#3F3D56"/>
<path d="M99.847 55.8215H54.7715V56.3002H99.847V55.8215Z" fill="#3F3D56"/>
<path d="M140.083 76.9852C140.083 76.9852 140.641 78.824 137.481 80.4789C134.321 82.1338 133.392 88.3857 137.109 90.2245C140.826 92.0633 141.942 94.4538 140.083 96.1087C138.224 97.7636 134.879 102.177 139.34 103.28C143.8 104.383 144.358 106.59 143.057 107.509C141.756 108.429 146.031 105.854 146.031 105.854C146.031 105.854 146.774 110.267 150.677 109.164C154.58 108.061 165.546 87.0986 159.97 84.1565C154.395 81.2144 140.083 76.9852 140.083 76.9852Z" fill="#2F2E41"/>
<path d="M146.978 94.2504C146.978 94.2504 148.912 101.227 145.527 101.725C143.426 102.063 141.435 102.917 139.723 104.217L146.01 112.688H157.618L164.873 105.214C164.873 105.214 155.2 97.7387 157.134 93.2537C159.069 88.7688 146.978 94.2504 146.978 94.2504Z" fill="#FFB9B9"/>
<path opacity="0.1" d="M146.978 94.2504C146.978 94.2504 148.912 101.227 145.527 101.725C143.426 102.063 141.435 102.917 139.723 104.217L146.01 112.688H157.618L164.873 105.214C164.873 105.214 155.2 97.7387 157.134 93.2537C159.069 88.7688 146.978 94.2504 146.978 94.2504Z" fill="black"/>
<path d="M149.783 177.426L160.99 181.371L168.786 181.864L168.299 174.961L152.219 170.148L149.783 177.426Z" fill="#FFB9B9"/>
<path d="M163.756 175.99C163.756 175.99 163.756 182.734 164.718 182.734C165.68 182.734 178.664 181.289 182.511 182.734C186.359 184.179 192.13 178.88 189.244 175.99C186.359 173.1 181.652 168.764 178.715 169.727C175.779 170.691 163.756 173.1 163.756 173.1V175.99Z" fill="#575A89"/>
<path d="M128.977 169.591C128.977 169.591 123.24 181.638 127.065 182.642C130.889 183.645 135.192 182.14 135.67 181.638C136.148 181.136 142.84 179.128 143.796 180.132C144.753 181.136 144.753 176.116 144.753 176.116L128.977 169.591Z" fill="#575A89"/>
<path d="M133.904 154.528C133.904 154.528 124.914 166.663 131.539 169.93C138.163 173.197 169.865 173.197 172.23 169.93C174.596 166.663 175.542 156.395 172.23 155.462C168.918 154.528 133.904 154.528 133.904 154.528Z" fill="#2F2E41"/>
<path opacity="0.2" d="M133.904 154.528C133.904 154.528 124.914 166.663 131.539 169.93C138.163 173.197 169.865 173.197 172.23 169.93C174.596 166.663 175.542 156.395 172.23 155.462C168.918 154.528 133.904 154.528 133.904 154.528Z" fill="black"/>
<path d="M150.901 97.6261C157.074 97.6261 162.079 92.8806 162.079 87.0267C162.079 81.1728 157.074 76.4273 150.901 76.4273C144.727 76.4273 139.723 81.1728 139.723 87.0267C139.723 92.8806 144.727 97.6261 150.901 97.6261Z" fill="#FFB9B9"/>
<path d="M133.576 103.986L143.103 102.089C143.103 102.089 145.484 109.676 153.106 108.253C160.727 106.831 162.632 102.089 162.632 102.089C162.632 102.089 168.348 104.46 168.825 104.46C169.301 104.46 175.493 106.831 175.493 108.253C175.493 109.676 168.348 123.902 168.348 123.902L169.301 149.507L134.053 148.559L136.434 123.427L133.576 103.986Z" fill="#EF293D"/>
<path d="M128.458 116.594C128.458 116.594 125.634 142.054 127.516 143.975C129.399 145.897 136.929 151.181 136.929 151.181V145.416L133.164 138.211L136.929 121.397L128.458 116.594Z" fill="#FFB9B9"/>
<path d="M177.728 116.036C177.728 116.036 176.106 141.565 176.106 142.502C176.106 143.439 171.934 146.718 170.544 146.718C169.154 146.718 168.227 144.376 168.227 144.376L171.471 140.628L169.154 121.423L177.728 116.036Z" fill="#FFB9B9"/>
<path d="M173.09 152.04C173.09 152.04 194.564 140.066 195.041 152.04C195.518 164.014 184.066 168.804 184.066 168.804C184.066 168.804 154.48 177.708 153.287 174.454C152.094 171.199 149.708 165.93 151.617 165.451C153.526 164.972 155.912 164.014 156.866 164.972C157.821 165.93 169.75 157.788 169.75 157.788L173.09 152.04Z" fill="#2F2E41"/>
<path opacity="0.2" d="M183.318 151.181C183.318 151.181 179.006 152.966 177.569 154.305C176.132 155.644 169.904 157.875 169.904 157.875" stroke="black" stroke-width="2" stroke-miterlimit="10"/>
<path d="M136.181 105.25L133.384 104.32C133.384 104.32 123.128 115.013 126.391 117.802C129.654 120.591 131.519 121.521 132.452 122.451C133.384 123.381 138.046 123.846 138.046 123.846L136.181 105.25Z" fill="#EF293D"/>
<path d="M171.382 107.11L175.566 108.066C175.566 108.066 178.82 115.239 179.75 116.195C180.68 117.151 178.355 116.673 176.96 118.586C175.566 120.499 174.171 123.846 171.382 123.846C168.592 123.846 164.873 119.064 164.873 119.064L171.382 107.11Z" fill="#EF293D"/>
<path d="M134.764 156.395C134.764 156.395 116.552 143.461 110.321 153.042C104.091 162.623 137.16 175.557 141.953 177.473C146.746 179.389 151.059 181.306 151.059 181.306C151.059 181.306 155.373 170.767 155.373 168.85C155.373 166.934 152.018 166.934 151.059 166.934C150.101 166.934 145.787 165.976 144.829 164.539C143.87 163.102 134.764 156.395 134.764 156.395Z" fill="#2F2E41"/>
<path opacity="0.2" d="M124.074 153.413C124.074 153.413 129.122 157.35 133.666 158.335C138.209 159.319 139.723 161.78 139.723 161.78" stroke="black" stroke-width="2" stroke-miterlimit="10"/>
<path d="M131.34 135.833L131.721 155.464C131.734 156.113 132.01 156.73 132.488 157.182C132.967 157.633 133.61 157.883 134.277 157.875L171.853 157.465C172.493 157.458 173.107 157.215 173.57 156.785C174.033 156.355 174.311 155.77 174.348 155.149L175.489 135.928C175.508 135.594 175.458 135.26 175.34 134.945C175.222 134.631 175.039 134.343 174.803 134.1C174.567 133.857 174.282 133.663 173.966 133.53C173.65 133.398 173.309 133.329 172.965 133.329H133.868C133.532 133.329 133.199 133.395 132.889 133.521C132.579 133.647 132.299 133.833 132.063 134.066C131.828 134.299 131.643 134.575 131.519 134.879C131.395 135.182 131.334 135.507 131.34 135.833V135.833Z" fill="#575A89"/>
<path d="M151.24 73.638C151.24 73.638 151.853 75.667 148.378 77.4931C144.903 79.3193 143.881 86.2179 147.969 88.247C152.057 90.276 153.284 92.9137 151.24 94.7398C149.196 96.566 145.516 101.436 150.422 102.653C155.328 103.87 155.941 106.305 154.51 107.32C153.079 108.334 157.78 105.494 157.78 105.494C157.78 105.494 158.598 110.363 162.89 109.146C167.183 107.928 171.465 85.7987 166.681 80.099C162.232 74.7993 151.24 73.638 151.24 73.638Z" fill="#2F2E41"/>
<path d="M149.783 71.1371C149.784 68.1252 158.735 70.2894 162.572 74.4948C165.23 77.407 169.266 81.7883 165.884 84.8767C162.501 87.9651 171.681 92.0136 174.143 93.2411C176.605 94.4685 181.466 98.2222 177.077 100.74C172.688 103.259 172.759 105.801 174.41 106.402C176.062 107.004 170.769 105.508 170.769 105.508C170.769 105.508 171.303 110.481 166.844 110.457C162.384 110.433 149.589 85.7569 152.645 78.898C155.487 72.5205 149.783 71.1371 149.783 71.1371Z" fill="#2F2E41"/>
<path d="M152.187 70.8876C140.352 70.205 139.164 78.7379 139.164 78.7379C139.246 83.6759 147.433 81.2698 149.707 82.006C152.45 80.1157 157.738 76.5392 161.52 73.9868C158.774 72.1351 155.54 71.061 152.187 70.8876Z" fill="#2F2E41"/>
</g>
<defs>
<clipPath id="clip0_2631_40234">
<rect width="223" height="188" fill="white"/>
</clipPath>
</defs>
</svg>
