<svg width="278" height="210" viewBox="0 0 278 210" fill="none" xmlns="http://www.w3.org/2000/svg">
<g clip-path="url(#clip0_2631_40371)">
<path d="M254.021 187.203L254.438 177.761C258.788 175.421 263.64 174.185 268.573 174.16C261.784 179.745 262.633 190.512 258.03 198.023C256.577 200.355 254.621 202.327 252.307 203.794C249.993 205.262 247.38 206.186 244.663 206.5L238.982 210C238.202 205.627 238.374 201.135 239.486 196.835C240.597 192.535 242.622 188.529 245.42 185.092C247.009 183.18 248.831 181.477 250.842 180.022C252.203 183.633 254.021 187.203 254.021 187.203Z" fill="#F2F2F2"/>
<path d="M58.9796 103.26C58.6042 102.915 58.3085 102.492 58.1133 102.019C57.9181 101.547 57.8281 101.038 57.8498 100.527C57.8714 100.016 58.0041 99.516 58.2385 99.0622C58.473 98.6085 58.8034 98.212 59.2066 97.9007L55.3145 86.1029L61.514 87.7789L64.2595 98.7253C64.7344 99.4416 64.9316 100.308 64.8139 101.161C64.6962 102.014 64.2718 102.794 63.6209 103.352C62.9701 103.911 62.1381 104.211 61.2827 104.194C60.4273 104.176 59.6078 103.844 58.9796 103.26V103.26Z" fill="#A0616A"/>
<path d="M70.2144 39.1603C71.2431 39.7537 77.3292 38.2833 78.5178 38.7016C77.8617 42.7302 81.4253 41.2184 77.5555 46.5089C73.6857 51.7994 65.8913 67.6618 64.1207 73.5903C62.3501 79.5188 64.1026 87.8737 63.8374 90.6834C63.7093 92.3114 63.7172 93.9473 63.8613 95.5739C61.7704 95.5474 59.7096 95.984 57.5861 95.7051C55.3215 89.2568 53.7989 80.0784 52.765 75.0058C51.7311 69.9331 51.6933 72.0783 52.1675 69.5419C52.6417 67.0054 52.7565 68.8486 52.2583 66.422C51.7602 63.9955 53.7748 60.9466 55.6362 59.2083C56.4388 56.8853 57.476 54.7194 58.2705 52.4207C64.0931 47.3093 64.4759 44.3567 70.2144 39.1603Z" fill="#EF293D"/>
<path d="M239.382 203.457H234.238L231.791 183.49H239.384L239.382 203.457Z" fill="#FFB6B6"/>
<path d="M240.694 208.475L224.107 208.474V208.263C224.108 206.54 224.788 204.888 225.999 203.67C227.209 202.451 228.851 201.767 230.564 201.767H230.564L233.594 199.454L239.247 201.767L240.695 201.767L240.694 208.475Z" fill="#2F2E41"/>
<path d="M215.484 203.457H210.34L207.893 183.49H215.485L215.484 203.457Z" fill="#FFB6B6"/>
<path d="M216.796 208.475L200.209 208.474V208.263C200.209 206.54 200.889 204.888 202.1 203.67C203.311 202.451 204.953 201.767 206.665 201.767H206.666L209.695 199.454L215.348 201.767L216.796 201.767L216.796 208.475Z" fill="#2F2E41"/>
<path d="M213.257 94.2965L246.717 95.1383C253.072 98.6116 253.168 106.129 251.086 115.055C251.086 115.055 251.789 120.36 250.383 121.774C248.977 123.189 248.274 123.189 248.977 125.665C249.68 128.141 245.966 132.184 246.418 132.638C246.869 133.092 247.923 135.568 247.923 135.568L244.408 155.727C244.408 155.727 241.948 190.74 241.245 191.448C240.542 192.155 239.839 191.448 240.542 193.216C241.245 194.984 241.948 194.277 241.245 194.984C240.623 195.66 240.036 196.368 239.488 197.106H230.991C230.991 197.106 230.35 193.57 230.35 193.216C230.35 192.862 229.647 190.74 229.647 190.387C229.647 190.033 230.268 189.408 230.268 189.408C230.483 188.689 230.628 187.951 230.702 187.204C230.702 186.496 232.81 159.264 232.81 159.264L228.593 123.897L218.401 158.556C218.401 158.556 218.401 188.972 217.698 189.679C216.995 190.387 216.995 190.033 217.346 191.448C217.698 192.862 219.103 192.509 218.049 193.57C216.995 194.631 216.643 192.862 216.995 194.631L217.346 196.399L206.802 196.551C206.802 196.551 205.397 193.57 206.1 192.509C206.802 191.448 206.76 191.737 205.903 190.001C205.045 188.265 204.694 187.911 205.045 187.557C205.397 187.203 205.397 185.322 205.397 185.322L207.154 151.483C207.154 151.483 207.505 115.762 207.505 114.701C207.532 114.155 207.432 113.61 207.213 113.11V111.67L208.56 106.567L213.257 94.2965Z" fill="#2F2E41"/>
<path d="M233.357 24.2831C239.099 24.2831 243.754 19.5992 243.754 13.8214C243.754 8.0435 239.099 3.35962 233.357 3.35962C227.616 3.35962 222.961 8.0435 222.961 13.8214C222.961 19.5992 227.616 24.2831 233.357 24.2831Z" fill="#FFB6B6"/>
<path d="M228.159 31.1977C225.919 32.5376 224.579 34.9995 223.81 37.5047C222.386 42.1428 221.529 46.9382 221.258 51.785L220.446 66.2952L210.385 97.1915C219.104 104.616 251.879 98.8788 251.879 98.8788C251.879 98.8788 252.885 98.5414 251.879 97.5289C250.873 96.5165 249.894 97.4135 250.9 96.401C251.906 95.3886 251.212 96.5165 250.877 95.504C250.542 94.4916 250.877 95.1666 251.212 94.8291C251.548 94.4916 248.616 91.4543 248.616 91.4543L251.299 73.7196L254.653 37.9471C250.628 32.885 242.535 29.9009 242.535 29.9009L240.444 26.1129L229.987 26.9547L228.159 31.1977Z" fill="#3F3D56"/>
<path d="M226.734 7.68164C227.136 7.6848 227.536 7.73766 227.926 7.83905C228.694 8.02479 229.473 8.15637 230.259 8.23282C232.666 8.46067 234.928 9.49354 236.683 11.1665C238.438 12.8394 239.585 15.0559 239.941 17.4619C240.545 16.9319 241.92 15.9569 243.047 16.863C243.064 16.8774 243.074 16.8848 243.113 16.8659C243.862 16.5087 245.19 12.112 245.23 8.24082C245.251 6.18613 244.93 3.56237 243.279 2.73149L243.192 2.68772L243.169 2.59256C243.058 2.13036 241.826 1.34141 239.683 0.727345C235.79 -0.388581 230.101 -0.549909 226.833 2.64928C226.586 3.72781 225.667 4.02333 224.854 4.28495C223.954 4.57452 223.177 4.82441 223.054 5.9354C222.952 7.51643 222.959 9.10273 223.076 10.6827C223.381 9.7159 223.98 8.86969 224.788 8.26323C225.362 7.87403 226.041 7.67107 226.734 7.68164V7.68164Z" fill="#2F2E41"/>
<path d="M207.382 65.4874L224.364 54.5429L215.811 43.101L207.365 53.5558L181.049 55.18C180.357 54.4914 179.48 54.0205 178.527 53.8244C177.573 53.6284 176.584 53.7158 175.679 54.076C174.774 54.4362 173.992 55.0536 173.43 55.8529C172.867 56.6523 172.548 57.599 172.511 58.5777C172.474 59.5563 172.721 60.5247 173.222 61.3647C173.722 62.2046 174.455 62.8799 175.33 63.3081C176.205 63.7363 177.186 63.8991 178.151 63.7764C179.117 63.6537 180.026 63.251 180.768 62.6173L207.382 65.4874Z" fill="#FFB6B6"/>
<path d="M240.128 39.2666C241.113 45.2691 222.5 56.7314 222.5 56.7314C222.5 55.3225 211.39 65.9587 210.889 64.7903C209.464 61.4693 208.462 53.6036 206.47 52.3446C205.332 51.6246 213.329 44.8609 213.329 44.8609C213.329 44.8609 217.516 40.6167 223.01 35.2634C224.535 33.7209 226.424 32.5919 228.499 31.9814C230.575 31.3708 232.77 31.2987 234.881 31.7716C234.881 31.7716 239.142 33.2641 240.128 39.2666Z" fill="#3F3D56"/>
<path d="M221.204 108.186C221.212 114.609 220.143 120.988 218.042 127.054C217.946 127.336 217.846 127.614 217.745 127.896C213.446 139.646 205.449 149.661 194.971 156.415C194.256 156.878 193.533 157.32 192.796 157.749C184.426 162.633 174.95 165.273 165.275 165.418C164.958 165.422 164.64 165.426 164.322 165.426C163.912 165.426 163.506 165.422 163.101 165.414C153.413 165.22 143.937 162.527 135.58 157.594C134.843 157.16 134.118 156.71 133.405 156.243C121.772 148.655 113.291 137.057 109.551 123.624C105.811 110.192 107.069 95.8473 113.09 83.282C113.224 83 113.362 82.7222 113.504 82.4402C118.246 72.9704 125.508 65.0115 134.481 59.4506C143.453 53.8898 153.784 50.9453 164.322 50.9453C174.86 50.9453 185.19 53.8898 194.163 59.4506C203.136 65.0115 210.398 72.9704 215.14 82.4402C215.282 82.7222 215.42 83 215.554 83.282C219.285 91.0461 221.217 99.5612 221.204 108.186V108.186Z" fill="#F2F2F2"/>
<path d="M203.604 127.054V127.896H208.698V127.054H203.604ZM193.415 127.054V127.896H198.509V127.054H193.415ZM183.226 127.054V127.896H188.321V127.054H183.226ZM173.038 127.054V127.896H178.132V127.054H173.038ZM162.849 127.054V127.896H167.943V127.054H162.849ZM152.661 127.054V127.896H157.755V127.054H152.661ZM142.472 127.054V127.896H147.566V127.054H142.472ZM132.287 127.054V127.896H137.378V127.054H132.287ZM122.099 127.054V127.896H127.193V127.054H122.099ZM111.91 127.054V127.896H117.004V127.054H111.91ZM218.042 127.054H213.792V127.896H217.745L218.042 127.054Z" fill="#E6E6E6"/>
<path d="M213.792 121.162V122.004H218.887V121.162H213.792ZM203.604 121.162V122.004H208.698V121.162H203.604ZM193.415 121.162V122.004H198.509V121.162H193.415ZM183.226 121.162V122.004H188.321V121.162H183.226ZM173.038 121.162V122.004H178.132V121.162H173.038ZM162.849 121.162V122.004H167.943V121.162H162.849ZM152.661 121.162V122.004H157.755V121.162H152.661ZM142.472 121.162V122.004H147.566V121.162H142.472ZM132.287 121.162V122.004H137.378V121.162H132.287ZM122.099 121.162V122.004H127.193V121.162H122.099ZM111.91 121.162V122.004H117.004V121.162H111.91Z" fill="#E6E6E6"/>
<path d="M213.792 108.956V109.798H218.887V108.956H213.792ZM203.604 108.956V109.798H208.698V108.956H203.604ZM193.415 108.956V109.798H198.509V108.956H193.415ZM183.226 108.956V109.798H188.321V108.956H183.226ZM173.038 108.956V109.798H178.132V108.956H173.038ZM162.849 108.956V109.798H167.943V108.956H162.849ZM152.661 108.956V109.798H157.755V108.956H152.661ZM142.472 108.956V109.798H147.566V108.956H142.472ZM132.287 108.956V109.798H137.378V108.956H132.287ZM122.099 108.956V109.798H127.193V108.956H122.099ZM111.91 108.956V109.798H117.004V108.956H111.91Z" fill="#E6E6E6"/>
<path d="M213.792 100.538V101.38H218.887V100.538H213.792ZM203.604 100.538V101.38H208.698V100.538H203.604ZM193.415 100.538V101.38H198.509V100.538H193.415ZM183.226 100.538V101.38H188.321V100.538H183.226ZM173.038 100.538V101.38H178.132V100.538H173.038ZM162.849 100.538V101.38H167.943V100.538H162.849ZM152.661 100.538V101.38H157.755V100.538H152.661ZM142.472 100.538V101.38H147.566V100.538H142.472ZM132.287 100.538V101.38H137.378V100.538H132.287ZM122.099 100.538V101.38H127.193V100.538H122.099ZM111.91 100.538V101.38H117.004V100.538H111.91Z" fill="#E6E6E6"/>
<path d="M215.139 82.4402H213.793V83.282H215.553C215.42 83 215.282 82.7222 215.139 82.4402ZM203.604 82.4402V83.282H208.698V82.4402H203.604ZM193.415 82.4402V83.282H198.51V82.4402H193.415ZM183.227 82.4402V83.282H188.321V82.4402H183.227ZM173.038 82.4402V83.282H178.132V82.4402H173.038ZM162.849 82.4402V83.282H167.944V82.4402H162.849ZM152.661 82.4402V83.282H157.755V82.4402H152.661ZM142.472 82.4402V83.282H147.566V82.4402H142.472ZM132.288 82.4402V83.282H137.378V82.4402H132.288ZM122.099 82.4402V83.282H127.193V82.4402H122.099ZM113.504 82.4402C113.362 82.7222 113.224 83 113.09 83.282H117.005V82.4402H113.504Z" fill="#E6E6E6"/>
<path d="M194.972 85.2769V156.415C194.257 156.878 193.533 157.32 192.797 157.749V85.2769H194.972Z" fill="#3F3D56"/>
<path d="M165.276 108.846V165.418C164.959 165.422 164.641 165.426 164.323 165.426C163.913 165.426 163.507 165.422 163.102 165.414V108.846H165.276Z" fill="#3F3D56"/>
<path d="M135.579 85.2769V157.594C134.843 157.16 134.118 156.71 133.404 156.243V85.2769H135.579Z" fill="#3F3D56"/>
<path d="M29.0082 182.101L28.1786 170.489C22.7441 167.756 16.7285 166.398 10.6543 166.535C19.1999 173.182 18.5154 186.467 24.4337 195.559C26.3011 198.381 28.7756 200.743 31.6737 202.471C34.5718 204.2 37.8193 205.25 41.1754 205.543L48.2874 209.661C49.1009 204.25 48.7391 198.725 47.2268 193.469C45.7145 188.212 43.0877 183.348 39.5274 179.211C37.5072 176.91 35.2071 174.875 32.6815 173.152C31.1269 177.644 29.0082 182.101 29.0082 182.101Z" fill="#F2F2F2"/>
<path d="M193.599 90.9295C197.988 90.9295 201.546 87.3492 201.546 82.9326C201.546 78.5161 197.988 74.9358 193.599 74.9358C189.21 74.9358 185.652 78.5161 185.652 82.9326C185.652 87.3492 189.21 90.9295 193.599 90.9295Z" fill="#EF293D"/>
<path d="M197.678 79.5999C197.559 79.4851 197.4 79.4211 197.235 79.4211C197.07 79.4211 196.911 79.4851 196.791 79.5999C195.105 80.9532 193.59 82.5099 192.282 84.235C191.96 83.6094 191.639 82.9838 191.318 82.3582C190.947 81.6361 189.864 82.274 190.234 82.9955C190.704 83.9105 191.174 84.8256 191.644 85.7406C191.701 85.8341 191.78 85.9113 191.875 85.9648C191.97 86.0184 192.077 86.0465 192.186 86.0465C192.295 86.0465 192.402 86.0184 192.497 85.9648C192.591 85.9113 192.671 85.8341 192.728 85.7406C194.122 83.764 195.789 81.997 197.678 80.4927C197.795 80.3738 197.861 80.2134 197.861 80.0463C197.861 79.8792 197.795 79.7188 197.678 79.5999V79.5999Z" fill="white"/>
<path d="M164.322 114.499C168.711 114.499 172.269 110.919 172.269 106.502C172.269 102.086 168.711 98.5055 164.322 98.5055C159.933 98.5055 156.375 102.086 156.375 106.502C156.375 110.919 159.933 114.499 164.322 114.499Z" fill="#EF293D"/>
<path d="M168.401 103.169C168.282 103.055 168.123 102.991 167.957 102.991C167.792 102.991 167.633 103.055 167.514 103.169C165.828 104.523 164.313 106.079 163.004 107.805C162.683 107.179 162.362 106.553 162.04 105.928C161.67 105.206 160.586 105.843 160.957 106.565C161.427 107.48 161.897 108.395 162.367 109.31C162.424 109.404 162.503 109.481 162.598 109.534C162.693 109.588 162.8 109.616 162.909 109.616C163.017 109.616 163.124 109.588 163.219 109.534C163.314 109.481 163.394 109.404 163.45 109.31C164.845 107.334 166.512 105.567 168.401 104.062C168.518 103.943 168.583 103.783 168.583 103.616C168.583 103.449 168.518 103.288 168.401 103.169V103.169Z" fill="white"/>
<path d="M134.626 92.6131C139.015 92.6131 142.573 89.0328 142.573 84.6162C142.573 80.1997 139.015 76.6194 134.626 76.6194C130.238 76.6194 126.68 80.1997 126.68 84.6162C126.68 89.0328 130.238 92.6131 134.626 92.6131Z" fill="#EF293D"/>
<path d="M138.706 81.2833C138.586 81.1686 138.427 81.1046 138.262 81.1046C138.097 81.1046 137.938 81.1686 137.818 81.2833C136.132 82.6366 134.618 84.1933 133.309 85.9185C132.988 85.2929 132.666 84.6673 132.345 84.0416C131.974 83.3195 130.891 83.9574 131.262 84.6789C131.732 85.594 132.202 86.509 132.672 87.4241C132.728 87.5175 132.808 87.5947 132.903 87.6483C132.998 87.7018 133.104 87.7299 133.213 87.7299C133.322 87.7299 133.429 87.7018 133.524 87.6483C133.619 87.5947 133.698 87.5175 133.755 87.4241C135.15 85.4475 136.817 83.6805 138.706 82.1762C138.822 82.0573 138.888 81.8969 138.888 81.7298C138.888 81.5626 138.822 81.4022 138.706 81.2833V81.2833Z" fill="white"/>
<path d="M248.589 78.9294L253.821 59.3306L239.841 56.6675L240.593 70.12L222.224 89.1528C221.252 89.1128 220.289 89.3584 219.452 89.8596C218.616 90.3608 217.943 91.096 217.515 91.9756C217.087 92.8552 216.923 93.8411 217.042 94.8131C217.161 95.7851 217.558 96.7013 218.186 97.4499C218.813 98.1984 219.644 98.7471 220.576 99.0289C221.508 99.3107 222.502 99.3136 223.435 99.0371C224.369 98.7605 225.202 98.2166 225.834 97.4717C226.466 96.7267 226.869 95.8128 226.993 94.8415L248.589 78.9294Z" fill="#FFB6B6"/>
<path d="M255.253 37.3562C259.998 41.1261 253.907 62.2127 253.907 62.2127C252.964 61.1713 251.869 76.5625 250.716 76.0384C247.44 74.5489 241.436 69.4127 239.121 69.8314C237.797 70.0708 239.184 59.6509 239.184 59.6509C239.184 59.6509 239.439 53.6764 239.919 45.9958C240.014 43.8219 240.655 41.7077 241.781 39.8499C242.907 37.9921 244.482 36.4511 246.359 35.3705C246.359 35.3705 250.507 33.5864 255.253 37.3562Z" fill="#3F3D56"/>
<path d="M91.3503 81.3577L97.1017 107.186L60.2461 104.879L70.2683 79.513L91.3503 81.3577Z" fill="#A0616A"/>
<path d="M85.2137 200.565L89.3536 200.564L91.3232 184.495H85.2129L85.2137 200.565Z" fill="#A0616A"/>
<path d="M83.8115 198.509L90.3561 198.116V200.938L96.5781 205.262C96.8855 205.476 97.1169 205.783 97.2387 206.138C97.3605 206.493 97.3662 206.878 97.2551 207.237C97.1439 207.596 96.9217 207.91 96.6209 208.132C96.3201 208.355 95.9564 208.475 95.5829 208.475H87.7914L86.4484 205.684L85.924 208.475H82.9863L83.8115 198.509Z" fill="#2F2E41"/>
<path d="M46.084 198.492L50.1302 199.375L55.4403 184.091L49.4689 182.788L46.084 198.492Z" fill="#A0616A"/>
<path d="M45.1462 196.185L51.6248 197.197L51.0303 199.954L56.1999 205.507C56.4553 205.782 56.6169 206.131 56.6611 206.504C56.7052 206.877 56.6297 207.255 56.4455 207.582C56.2613 207.909 55.978 208.168 55.6371 208.321C55.2962 208.475 54.9154 208.515 54.5505 208.435L46.9361 206.773L46.2116 203.759L45.1112 206.374L42.2402 205.748L45.1462 196.185Z" fill="#2F2E41"/>
<path d="M98.0417 128.784C95.1362 144.853 94.4098 151.791 94.4098 151.791C94.4098 151.791 96.589 154.347 95.1362 155.809C93.6835 157.271 95.1362 160.19 95.1362 160.19L91.8695 195.615L89.24 195.186L82.9055 194.161L80.6208 193.79L82.0736 160.558C82.0736 160.558 80.6209 157.634 81.3472 156.903C82.0736 156.172 80.6208 151.791 80.6208 151.791L78.8069 117.097L67.5542 155.078C67.5542 155.078 68.6458 156.54 67.5542 157.634C66.4667 158.728 64.2916 164.209 64.2916 164.209L57.6 187.771L57.0319 189.771L53.542 189.114L49.7438 188.395L49.0458 188.265L47.8041 188.028L47.0047 187.877L46.7327 187.828L45.418 187.579L45.8157 185.802L46.0226 184.867L51.6835 159.566L51.8133 158.982L51.9513 158.365C51.9513 158.365 51.2249 156.54 52.3125 155.441C52.6306 155.106 52.863 154.699 52.9896 154.253C53.1161 153.808 53.1331 153.338 53.0389 152.885C53.0033 152.847 52.9707 152.806 52.9415 152.762C52.813 152.585 52.7244 152.382 52.6818 152.166C52.5844 151.709 52.6696 151.068 53.4041 150.329C53.6109 150.108 53.7845 149.857 53.9194 149.585C55.0232 147.482 55.5792 143.027 55.5792 143.027C55.5792 143.027 56.5612 107.742 59.7751 102.351C59.9455 102.07 63.3574 96.6603 63.5359 96.5501C67.1637 94.3613 95.4278 97.3845 95.4278 97.3845C95.4278 97.3845 97.1397 102.012 97.2168 102.494C97.6348 105.202 100.505 115.153 98.0417 128.784Z" fill="#2F2E41"/>
<path d="M89.4548 43.7903C89.4548 43.7903 90.0664 40.5957 84.1897 34.682C81.0785 33.6384 75.6879 34.2466 73.8191 34.682C65.1769 46.1615 66.7242 44.136 64.4746 50.55C63.8913 52.2132 63.5996 53.8112 63.8589 55.1157C64.8959 60.3337 66.5796 87.1188 66.2339 88.5103C65.8882 89.9017 63.4684 91.6411 65.8882 91.6411C68.308 91.6411 99.5137 91.0914 98.8223 90.0478C98.1309 89.0042 89.4548 43.7903 89.4548 43.7903Z" fill="#EF293D"/>
<path d="M126.516 86.2346C126.042 86.4193 125.534 86.4971 125.027 86.4627C124.52 86.4283 124.027 86.2824 123.582 86.0353C123.137 85.7882 122.751 85.446 122.452 85.0327C122.152 84.6194 121.947 84.1451 121.849 83.6432L109.619 81.895L113.872 77.056L124.834 79.4579C125.683 79.3491 126.542 79.5574 127.248 80.0433C127.954 80.5292 128.459 81.2589 128.666 82.0942C128.874 82.9296 128.769 83.8124 128.373 84.5755C127.977 85.3386 127.316 85.929 126.516 86.2346L126.516 86.2346Z" fill="#A0616A"/>
<path d="M74.7715 41.7338C75.7576 41.0713 76.8777 40.7602 77.7793 39.8756C81.0713 42.2611 81.3135 38.377 84.297 44.2201C87.2804 50.0631 97.9219 64.1507 102.408 68.3866C106.894 72.6225 115.108 74.7649 117.49 76.2553C118.881 77.0959 120.34 77.8173 121.852 78.4121C120.897 80.284 120.367 82.3352 119.173 84.1242C112.428 83.2924 103.583 80.5761 98.6094 79.2482C93.6356 77.9203 95.5274 78.9099 93.4819 77.3529C91.4363 75.7959 93.1274 76.5134 90.7466 75.8814C88.3657 75.2494 86.5504 72.0764 85.8328 69.625C84.1235 67.8672 82.6584 65.968 80.9671 64.2283C79.0129 56.7057 76.8389 49.2185 74.7715 41.7338Z" fill="#EF293D"/>
<path d="M82.4943 30.2294C88.0227 30.2294 92.5042 25.7196 92.5042 20.1564C92.5042 14.5933 88.0227 10.0834 82.4943 10.0834C76.966 10.0834 72.4844 14.5933 72.4844 20.1564C72.4844 25.7196 76.966 30.2294 82.4943 30.2294Z" fill="#A0616A"/>
<path d="M89.183 38.5695C88.7085 37.8876 85.1612 31.1268 84.1068 28.5701C83.9983 29.1237 83.9299 29.6846 83.902 30.2482L83.8915 30.4582L83.6842 30.4852C83.3725 30.5253 76.0104 31.4245 72.1789 27.0526C69.9089 24.463 69.3941 20.5787 70.6468 15.5053C70.4189 15.4603 70.2006 15.3757 70.0017 15.2552C69.6703 15.0245 69.393 14.7238 69.1891 14.3741C68.9851 14.0244 68.8594 13.6342 68.8208 13.2306L68.6086 13.2878C61.7923 9.95003 67.6647 0.185936 73.8907 5.04044C74.4368 4.91765 75.0061 4.95058 75.5346 5.13551C76.0444 5.3442 76.4885 5.68778 76.8199 6.12985C77.1514 6.57191 77.3578 7.09598 77.4173 7.64651C80.6341 5.94384 84.8915 6.22091 87.0934 7.4984C88.0153 8.03338 88.5447 8.70712 88.6387 9.45874C91.2395 9.60488 94.0367 12.1542 94.0367 15.7661V16.0177H93.7868C92.7405 16.0401 91.7199 16.3485 90.8344 16.9098C89.9489 17.4711 89.2318 18.2642 88.7598 19.2042C88.1202 20.3669 87.8037 21.6816 87.8435 23.01C87.8832 24.3384 88.2778 25.6315 88.9858 26.7534C89.7564 27.9434 90.2825 29.2766 90.5332 30.6744C90.7839 32.0721 90.7541 33.5062 90.4455 34.8922L89.5062 39.0337L89.183 38.5695Z" fill="#2F2E41"/>
<path d="M118.227 208.558C118.228 208.624 118.215 208.689 118.19 208.75C118.165 208.811 118.128 208.866 118.082 208.913C118.036 208.959 117.981 208.996 117.92 209.021C117.86 209.046 117.795 209.059 117.73 209.059H0.497722C0.365718 209.059 0.239119 209.006 0.145778 208.912C0.0524376 208.818 0 208.691 0 208.558C0 208.425 0.0524376 208.298 0.145778 208.204C0.239119 208.11 0.365718 208.057 0.497722 208.057H117.73C117.795 208.057 117.86 208.07 117.92 208.095C117.981 208.12 118.036 208.157 118.082 208.204C118.128 208.25 118.165 208.305 118.19 208.366C118.215 208.427 118.228 208.492 118.227 208.558Z" fill="#CCCCCC"/>
<path d="M277.999 208.558C277.999 208.624 277.986 208.689 277.962 208.75C277.937 208.811 277.9 208.866 277.854 208.913C277.807 208.959 277.752 208.996 277.692 209.021C277.632 209.046 277.567 209.059 277.501 209.059H160.269C160.137 209.059 160.011 209.006 159.917 208.912C159.824 208.818 159.771 208.691 159.771 208.558C159.771 208.425 159.824 208.298 159.917 208.204C160.011 208.11 160.137 208.057 160.269 208.057H277.501C277.567 208.057 277.632 208.07 277.692 208.095C277.752 208.12 277.807 208.157 277.854 208.204C277.9 208.25 277.937 208.305 277.962 208.366C277.986 208.427 277.999 208.492 277.999 208.558Z" fill="#CCCCCC"/>
<path d="M134.379 172.462C136.825 172.462 138.808 170.467 138.808 168.005C138.808 165.543 136.825 163.547 134.379 163.547C131.932 163.547 129.949 165.543 129.949 168.005C129.949 170.467 131.932 172.462 134.379 172.462Z" fill="#E6E6E6"/>
<path d="M164.074 177.092C166.52 177.092 168.504 175.096 168.504 172.634C168.504 170.173 166.52 168.177 164.074 168.177C161.628 168.177 159.645 170.173 159.645 172.634C159.645 175.096 161.628 177.092 164.074 177.092Z" fill="#E6E6E6"/>
<path d="M193.771 171.62C196.218 171.62 198.201 169.625 198.201 167.163C198.201 164.701 196.218 162.706 193.771 162.706C191.325 162.706 189.342 164.701 189.342 167.163C189.342 169.625 191.325 171.62 193.771 171.62Z" fill="#E6E6E6"/>
</g>
<defs>
<clipPath id="clip0_2631_40371">
<rect width="278" height="210" fill="white"/>
</clipPath>
</defs>
</svg>
