<svg width="403" height="305" viewBox="0 0 403 305" fill="none" xmlns="http://www.w3.org/2000/svg">
<path opacity="0.1" d="M199.717 305C284.412 305 353.072 300.046 353.072 293.937C353.072 287.827 284.412 282.874 199.717 282.874C115.021 282.874 46.3613 287.827 46.3613 293.937C46.3613 300.046 115.021 305 199.717 305Z" fill="#EF293D"/>
<path opacity="0.6" d="M398.292 243.15C396.621 245.716 394.571 248.015 392.212 249.97C391.563 250.504 390.889 251.025 390.205 251.511C381.445 257.788 369.715 260.547 358.32 262.335C336.197 265.804 313.612 266.48 291.122 267.141C272.187 267.704 253.242 268.267 234.3 268.64C207.225 269.182 180.147 269.344 153.115 268.64C138.338 268.253 123.573 267.57 108.82 266.592C81.4456 264.724 53.366 261.423 29.536 249.896C25.1754 247.816 21.0082 245.355 17.0832 242.541C10.6117 237.837 5.28287 232.143 2.43329 225.402C-2.15142 214.564 0.271424 202.385 5.50858 191.759C8.68261 185.333 12.8053 179.316 17.0832 173.352C19.6154 169.812 22.204 166.293 24.6656 162.722C24.9231 162.37 25.1735 161.993 25.4203 161.627C25.8965 160.924 26.369 160.22 26.831 159.516C28.7637 156.55 30.594 153.488 32.2727 150.367C33.9461 147.254 35.4587 144.057 36.8045 140.789C38.039 137.803 39.0987 134.749 39.9786 131.64C40.564 129.547 41.0578 127.446 41.4386 125.345C43.5229 113.906 42.4226 102.473 36.2509 92.1246C36.1909 92.0226 36.1274 91.9135 36.0639 91.8114L35.9864 91.6883C34.2442 88.8345 32.1422 86.1462 30.0756 83.4473C27.6069 80.21 25.177 76.9516 23.4666 73.3871C18.9665 63.9674 19.9399 53.3759 21.5762 43.3157C23.7593 29.9444 27.822 15.5174 40.4018 7.18147C53.4682 -1.49581 72.0187 -1.05597 88.238 2.04759C113.44 6.85775 136.713 16.9461 160.211 26.0491C183.709 35.1522 208.312 43.4776 234.148 44.3678C256.963 45.1596 283.572 39.248 298.712 23.871C313.418 8.94086 341.064 7.80429 360.997 16.8335C380.013 25.4369 392.31 43.65 391.386 61.835C390.039 88.3208 364.457 108.635 349.193 131.809C348.509 132.844 347.842 133.903 347.207 134.976C341.212 145.086 337.52 156.694 341.942 167.219C347.874 181.318 365.486 188.198 380.341 197.054C387.514 201.33 394.06 206.069 398.292 212.319C398.45 212.544 398.595 212.766 398.74 212.987C404.71 222.206 404.259 233.98 398.292 243.15Z" fill="#DDE1EA"/>
<path opacity="0.3" d="M26.8275 159.509C28.7601 156.543 30.5905 153.481 32.2692 150.36C33.9436 147.249 35.4573 144.055 36.8046 140.789C38.039 137.803 39.0988 134.749 39.9786 131.64C40.564 129.547 41.0578 127.446 41.4386 125.345C43.5229 113.906 42.4226 102.473 36.2509 92.1247C36.1909 92.0226 36.1274 91.9135 36.0639 91.8115L30.0685 83.4474H74.5579V112.921H86.9331V201.33H102.902V172.652H122.063V201.33H138.021V152.338H138.818V126.848H153.983V152.338H189.112V190.573H208.675V178.609H220.666V190.573H240.225V77.4584H265.772V59.5338H270.163V77.4584H277.347V112.907H290.124V83.4333H300.902V53.1719H323.254V83.4333H334.035V112.907H347.207V134.973C341.212 145.082 337.52 156.691 341.942 167.215C347.874 181.315 365.486 188.194 380.341 197.051C387.514 201.33 394.06 206.069 398.292 212.319V243.161C396.62 245.723 394.57 248.018 392.212 249.97C391.563 250.505 390.889 251.025 390.205 251.511C381.445 257.788 369.715 260.547 358.32 262.335C336.197 265.804 313.612 266.48 291.122 267.141C272.187 267.704 253.242 268.267 234.3 268.64H153.108C138.331 268.253 123.566 267.571 108.813 266.592C81.4385 264.724 53.3589 261.423 29.529 249.896C25.1684 247.816 21.0011 245.355 17.0762 242.542V173.352C19.6083 169.812 22.1969 166.293 24.6586 162.722L26.8275 159.509Z" fill="#EF293D"/>
<path opacity="0.4" d="M41.4245 125.332V131.627H39.9785C40.5498 129.533 41.0365 127.432 41.4245 125.332Z" fill="white"/>
<path opacity="0.4" d="M62.1833 131.626H78.9492V122.066H62.1833V131.626Z" fill="white"/>
<path opacity="0.4" d="M41.4253 140.79V150.347H32.2559C33.9346 147.241 35.4531 144.051 36.8053 140.79H41.4253Z" fill="white"/>
<path opacity="0.4" d="M62.1833 150.347H78.9492V140.786H62.1833V150.347Z" fill="white"/>
<path opacity="0.4" d="M26.8271 159.506H41.4241V169.067H24.6582V162.722L26.8271 159.506Z" fill="white"/>
<path opacity="0.4" d="M62.1833 169.067H78.9492V159.506H62.1833V169.067Z" fill="white"/>
<path opacity="0.4" d="M41.4241 178.229H24.6582V187.79H41.4241V178.229Z" fill="white"/>
<path opacity="0.4" d="M62.1833 187.786H78.9492V178.225H62.1833V187.786Z" fill="white"/>
<path opacity="0.4" d="M41.4241 196.949H24.6582V206.509H41.4241V196.949Z" fill="white"/>
<path opacity="0.4" d="M62.1833 206.506H78.9492V196.946H62.1833V206.506Z" fill="white"/>
<path opacity="0.4" d="M41.4241 215.669H24.6582V225.23H41.4241V215.669Z" fill="white"/>
<path opacity="0.4" d="M62.1833 225.226H78.9492V215.666H62.1833V225.226Z" fill="white"/>
<path opacity="0.4" d="M41.4241 234.389H24.6582V243.95H41.4241V234.389Z" fill="white"/>
<path opacity="0.4" d="M62.1833 243.946H78.9492V234.386H62.1833V243.946Z" fill="white"/>
<path opacity="0.4" d="M132.044 210.887H92.9219V215.665H132.044V210.887Z" fill="white"/>
<path opacity="0.4" d="M132.044 218.058H92.9219V222.837H132.044V218.058Z" fill="white"/>
<path opacity="0.4" d="M132.044 225.226H92.9219V230.005H132.044V225.226Z" fill="white"/>
<path opacity="0.4" d="M234.237 213.28H195.115V218.058H234.237V213.28Z" fill="white"/>
<path opacity="0.4" d="M234.237 220.448H195.115V225.226H234.237V220.448Z" fill="white"/>
<path opacity="0.4" d="M234.237 227.615H195.115V232.394H234.237V227.615Z" fill="white"/>
<path opacity="0.4" d="M132.044 232.397H92.9219V237.176H132.044V232.397Z" fill="white"/>
<path opacity="0.4" d="M132.044 239.565H92.9219V244.344H132.044V239.565Z" fill="white"/>
<path opacity="0.4" d="M132.044 246.736H92.9219V251.515H132.044V246.736Z" fill="white"/>
<path opacity="0.4" d="M157.188 161.5H146.41V175.442H157.188V161.5Z" fill="white"/>
<path opacity="0.4" d="M169.967 175.439H180.744V161.498H169.967V175.439Z" fill="white"/>
<path opacity="0.4" d="M157.188 183.803H146.41V197.744H157.188V183.803Z" fill="white"/>
<path opacity="0.4" d="M169.967 197.745H180.744V183.803H169.967V197.745Z" fill="white"/>
<path opacity="0.4" d="M157.188 206.108H146.41V220.05H157.188V206.108Z" fill="white"/>
<path opacity="0.4" d="M169.967 220.05H180.744V206.109H169.967V220.05Z" fill="white"/>
<path opacity="0.4" d="M157.188 228.413H146.41V242.355H157.188V228.413Z" fill="white"/>
<path opacity="0.4" d="M169.967 242.355H180.744V228.414H169.967V242.355Z" fill="white"/>
<path opacity="0.4" d="M254.592 86.6212H240.221V104.943H254.592V86.6212Z" fill="white"/>
<path opacity="0.4" d="M254.592 112.907H240.221V131.229H254.592V112.907Z" fill="white"/>
<path opacity="0.4" d="M254.592 139.195H240.221V157.517H254.592V139.195Z" fill="white"/>
<path opacity="0.4" d="M254.592 165.485H240.221V183.807H254.592V165.485Z" fill="white"/>
<path opacity="0.4" d="M254.592 191.769H240.221V210.091H254.592V191.769Z" fill="white"/>
<path opacity="0.4" d="M254.592 218.058H240.221V236.381H254.592V218.058Z" fill="white"/>
<path opacity="0.4" d="M339.026 124.061H285.533V139.593H339.026V124.061Z" fill="white"/>
<path opacity="0.4" d="M339.224 157.518H285.73V173.049H339.224V157.518Z" fill="white"/>
<path opacity="0.4" d="M339.425 190.974H285.932V206.506H339.425V190.974Z" fill="white"/>
<path opacity="0.4" d="M339.622 224.43H286.129V239.962H339.622V224.43Z" fill="white"/>
<path opacity="0.4" d="M36.2377 91.7976V92.1108C36.1777 92.0087 36.1143 91.8997 36.0508 91.7976H36.2377Z" fill="white"/>
<path opacity="0.4" d="M398.291 212.319V218.069H380.34V197.062C387.513 201.33 394.059 206.07 398.291 212.319Z" fill="white"/>
<path opacity="0.4" d="M398.292 228.413V243.15C396.621 245.716 394.571 248.015 392.212 249.969C391.563 250.504 390.889 251.025 390.205 251.511H380.33V228.413H398.292Z" fill="white"/>
<path opacity="0.1" d="M122.737 72.1558H119.99C120.499 72.1558 120.988 71.9537 121.349 71.5941C121.709 71.2344 121.912 70.7467 121.912 70.238C121.912 69.7294 121.709 69.2416 121.349 68.882C120.988 68.5224 120.499 68.3203 119.99 68.3203H97.7396C97.2298 68.3203 96.7409 68.5224 96.3805 68.882C96.02 69.2416 95.8175 69.7294 95.8175 70.238C95.8175 70.7467 96.02 71.2344 96.3805 71.5941C96.7409 71.9537 97.2298 72.1558 97.7396 72.1558H100.487C99.9909 72.177 99.5223 72.3885 99.1788 72.7461C98.8354 73.1038 98.6437 73.5799 98.6437 74.0753C98.6437 74.5706 98.8354 75.0468 99.1788 75.4044C99.5223 75.7621 99.9909 75.9736 100.487 75.9948H96.6428C96.133 75.9948 95.6441 76.1968 95.2837 76.5564C94.9232 76.9161 94.7207 77.4039 94.7207 77.9125C94.7207 78.4211 94.9232 78.9089 95.2837 79.2685C95.6441 79.6282 96.133 79.8302 96.6428 79.8302H118.889C119.399 79.8302 119.888 79.6282 120.248 79.2685C120.609 78.9089 120.811 78.4211 120.811 77.9125C120.811 77.4039 120.609 76.9161 120.248 76.5564C119.888 76.1968 119.399 75.9948 118.889 75.9948H122.737C123.233 75.9736 123.701 75.7621 124.045 75.4044C124.388 75.0468 124.58 74.5706 124.58 74.0753C124.58 73.5799 124.388 73.1038 124.045 72.7461C123.701 72.3885 123.233 72.177 122.737 72.1558V72.1558Z" fill="#EF293D"/>
<path opacity="0.1" d="M220.937 120.349H218.19C218.7 120.349 219.189 120.147 219.549 119.787C219.909 119.428 220.112 118.94 220.112 118.431C220.112 117.923 219.909 117.435 219.549 117.075C219.189 116.715 218.7 116.513 218.19 116.513H195.94C195.43 116.513 194.941 116.715 194.581 117.075C194.22 117.435 194.018 117.923 194.018 118.431C194.018 118.94 194.22 119.428 194.581 119.787C194.941 120.147 195.43 120.349 195.94 120.349H198.68C198.184 120.37 197.716 120.582 197.372 120.939C197.029 121.297 196.837 121.773 196.837 122.268C196.837 122.764 197.029 123.24 197.372 123.598C197.716 123.955 198.184 124.167 198.68 124.188H194.836C194.584 124.188 194.334 124.237 194.101 124.334C193.867 124.43 193.655 124.571 193.477 124.75C193.299 124.928 193.157 125.139 193.06 125.372C192.964 125.604 192.914 125.854 192.914 126.106C192.914 126.357 192.964 126.607 193.06 126.839C193.157 127.072 193.299 127.284 193.477 127.462C193.655 127.64 193.867 127.781 194.101 127.877C194.334 127.974 194.584 128.023 194.836 128.023H217.09C217.599 128.023 218.088 127.821 218.449 127.462C218.809 127.102 219.012 126.614 219.012 126.106C219.012 125.597 218.809 125.109 218.449 124.75C218.088 124.39 217.599 124.188 217.09 124.188H220.937C221.433 124.167 221.902 123.955 222.245 123.598C222.589 123.24 222.78 122.764 222.78 122.268C222.78 121.773 222.589 121.297 222.245 120.939C221.902 120.582 221.433 120.37 220.937 120.349V120.349Z" fill="#EF293D"/>
<path opacity="0.1" d="M388.199 57.419H385.452C385.961 57.419 386.45 57.2169 386.811 56.8573C387.171 56.4976 387.374 56.0098 387.374 55.5012C387.374 54.9926 387.171 54.5048 386.811 54.1452C386.45 53.7855 385.961 53.5835 385.452 53.5835H363.202C362.692 53.5835 362.203 53.7855 361.843 54.1452C361.482 54.5048 361.28 54.9926 361.28 55.5012C361.28 56.0098 361.482 56.4976 361.843 56.8573C362.203 57.2169 362.692 57.419 363.202 57.419H365.949C365.439 57.419 364.95 57.621 364.59 57.9806C364.229 58.3403 364.027 58.8281 364.027 59.3367C364.027 59.8453 364.229 60.3331 364.59 60.6927C364.95 61.0524 365.439 61.2544 365.949 61.2544H362.105C361.609 61.2756 361.14 61.4871 360.797 61.8448C360.453 62.2024 360.262 62.6786 360.262 63.1739C360.262 63.6692 360.453 64.1454 360.797 64.5031C361.14 64.8607 361.609 65.0722 362.105 65.0934H384.351C384.611 65.1045 384.87 65.0631 385.113 64.9716C385.356 64.8801 385.578 64.7405 385.766 64.5612C385.954 64.3819 386.103 64.1665 386.205 63.9281C386.307 63.6897 386.359 63.4331 386.359 63.1739C386.359 62.9147 386.307 62.6582 386.205 62.4197C386.103 62.1813 385.954 61.966 385.766 61.7866C385.578 61.6073 385.356 61.4677 385.113 61.3762C384.87 61.2848 384.611 61.2433 384.351 61.2544H388.199C388.709 61.2544 389.198 61.0524 389.558 60.6927C389.919 60.3331 390.121 59.8453 390.121 59.3367C390.121 58.8281 389.919 58.3403 389.558 57.9806C389.198 57.621 388.709 57.419 388.199 57.419V57.419Z" fill="#EF293D"/>
<path d="M356.267 151.898L356.288 151.867L356.203 151.81L356.03 151.694C356.043 151.702 356.053 151.711 356.062 151.722C355.911 151.634 355.732 151.606 355.56 151.642C355.389 151.679 355.237 151.777 355.135 151.919L355.029 152.064L350.091 159.136L349.227 160.379C346.632 159.597 342.414 162.884 340.273 164.767L339.899 165.101C339.73 164.721 339.631 164.481 339.631 164.481C339.525 165.636 335.431 167.37 334.475 168C334.045 168.259 333.564 168.422 333.064 168.479C333.198 164.077 329.792 159.446 329.792 159.446L321.465 148.862C321.158 146.948 321.455 144.987 322.315 143.249C322.382 143.112 322.456 142.975 322.534 142.838C322.65 142.838 322.774 142.838 322.886 142.838H322.932C323.612 142.837 324.291 142.777 324.96 142.658C327.411 142.224 329.645 140.982 331.304 139.129C332.962 137.277 333.949 134.922 334.105 132.443C334.944 132.228 335.657 131.451 335.537 130.557C335.568 130.387 335.568 130.213 335.537 130.043C335.514 129.936 335.482 129.832 335.441 129.73V129.73C335.205 129.128 334.697 128.643 334.331 128.094C333.816 127.29 333.541 126.356 333.537 125.402C333.569 124.569 333.699 123.742 333.925 122.939C334.093 122.46 334.173 121.954 334.161 121.447V121.345C334.168 121.212 334.162 121.079 334.144 120.947C334.128 120.853 334.106 120.76 334.077 120.669V120.669C333.871 120.103 333.478 119.624 332.962 119.311C331.643 118.452 329.954 118.438 328.473 117.904C326.321 117.119 324.378 115.18 322.125 115.648C320.897 115.901 319.956 116.841 318.894 117.502C317.723 118.233 316.378 118.641 314.997 118.685C313.837 118.72 312.663 118.495 311.52 118.685C311.315 118.721 311.113 118.775 310.917 118.847C309.945 118.517 308.924 118.356 307.898 118.372C306.891 118.346 305.899 118.619 305.048 119.156C303.504 120.229 303.095 122.323 303.116 124.185C303.114 124.2 303.114 124.215 303.116 124.23C303.116 124.353 303.116 124.473 303.116 124.582C303.116 125.476 303.204 126.384 303.222 127.278C303.23 128.112 303.111 128.942 302.869 129.741C302.164 131.95 300.122 133.639 299.712 135.93C299.643 136.325 299.62 136.726 299.642 137.127C299.614 138.421 300.03 139.72 300.414 140.976C301.211 143.573 301.825 146.332 301.846 149.027C301.829 150.701 301.495 152.357 300.862 153.908C300.671 154.361 300.435 154.793 300.157 155.199C300.065 155.326 299.97 155.452 299.868 155.572L299.829 155.618C299.741 155.72 299.645 155.815 299.55 155.906L299.473 155.98C299.381 156.06 299.286 156.135 299.187 156.205L299.092 156.276C298.96 156.365 298.82 156.444 298.676 156.511L299.381 156.469C299.166 156.648 298.929 156.799 298.676 156.92L302.421 156.701C302.43 156.742 302.436 156.783 302.439 156.825C302.428 156.917 302.41 157.009 302.386 157.099C302.36 157.187 302.33 157.272 302.294 157.356C302.295 157.368 302.295 157.379 302.294 157.391C302.218 157.559 302.121 157.716 302.005 157.859L301.973 157.894C301.915 157.965 301.853 158.032 301.786 158.095V158.095C301.722 158.152 301.653 158.205 301.582 158.253L301.536 158.288C301.461 158.337 301.383 158.38 301.303 158.419V158.419C301.225 158.454 301.145 158.485 301.063 158.51L301 158.528C300.914 158.552 300.827 158.568 300.739 158.577L301.091 158.538C301.328 158.51 301.564 158.478 301.797 158.44H301.867C301.566 158.75 301.168 158.947 300.739 158.999C301.546 158.937 302.342 158.779 303.112 158.531C303.599 161.8 304.682 171.762 304.086 173.602C303.447 175.562 305.077 189.933 305.077 189.933C305.077 189.933 305.299 191.034 305.687 192.677C304.685 195.038 303.542 197.649 302.968 198.698C301.818 200.809 302.382 211.527 306.353 216.292C306.353 216.292 307.997 218.604 307.563 219.459C307.129 220.314 307.637 221.774 307.637 221.774L308.265 235.652C308.251 237.07 308.153 238.486 307.972 239.892C306.283 241.986 303.669 245.037 302.442 245.522C300.541 246.293 286.364 263.468 286.364 263.468C286.364 263.468 286.477 263.676 286.699 264.013L286.3 264.474L283.581 267.62L283.366 267.87C282.855 267.775 279.459 267.166 276.757 266.962L276.493 266.945V266.899C275.544 266.788 274.585 266.813 273.643 266.973H273.622C273.445 267.008 273.282 267.093 273.153 267.219C272.232 268.342 271.742 286.009 271.742 286.009C271.742 286.009 272.723 294.834 275.77 295.341C275.929 295.396 276.095 295.428 276.263 295.436H276.267C276.323 295.44 276.38 295.44 276.436 295.436C278.623 295.278 279.61 294.029 280.065 293.166C280.198 292.907 280.3 292.633 280.369 292.35C280.369 292.35 280.016 290.774 280.972 288.603C281.927 286.432 283.701 282.642 283.701 282.642C283.701 282.642 286.942 279.239 286.364 277.589L286.674 277.142C287.894 275.411 290.353 271.99 292.342 269.707L292.73 269.267C293.454 269.575 294.213 269.794 294.99 269.921C294.99 269.921 298.037 268.732 299.173 266.051C299.656 264.918 301.546 262.912 303.56 260.977C303.518 261.307 303.497 261.494 303.497 261.494L303.426 278.384C304.081 278.834 304.779 279.217 305.51 279.528C305.51 279.665 305.51 279.806 305.51 279.95C305.525 282.358 305.381 284.764 305.077 287.153L305.013 287.526C304.763 287.346 304.548 287.287 304.406 287.427C303.782 288.057 303.394 292.09 303.348 293.948C303.348 293.983 303.348 294.018 303.348 294.053C303.306 294.82 303.102 295.735 303.102 296.551C303.08 297.737 303.454 298.737 305.376 298.821C307.764 298.92 318.034 299.078 323.532 299.173C326.495 299.232 329.379 298.213 331.643 296.305C332.652 295.443 333.424 294.486 333.449 293.582C333.498 292.878 333.121 292.22 332.07 291.643C332.065 291.667 332.058 291.69 332.049 291.713C331.911 291.639 331.763 291.565 331.601 291.495L326.311 290.668L317.318 286.09C317.318 286.09 317.265 283.317 316.186 283.778C315.864 283.845 315.555 283.964 315.272 284.13C315.219 284.025 315.163 283.919 315.11 283.806C314.378 282.355 313.998 280.752 313.999 279.127C313.999 278.979 313.999 278.831 314.02 278.68C314.286 278.442 314.536 278.187 314.768 277.916C314.768 277.916 314.697 271.607 315.403 270.414C316.108 269.221 318.312 257.162 318.312 257.162C318.312 257.162 318.383 254.921 319.801 253.587C321.218 252.254 320.721 248.401 320.721 248.401C320.721 248.401 322.703 247.345 323.341 243.914C323.98 240.483 326.036 232.978 326.036 232.978C326.036 232.978 330.289 221.901 330.007 214.891C329.725 207.882 330.43 204.237 330.43 204.237L331.315 187.948V187.695C331.668 187.966 331.904 188.18 331.904 188.18C331.904 188.18 331.904 188.117 331.904 188.004L332.109 188.18C332.109 188.18 332.56 180.791 332.409 177.86C334.877 177.019 338.665 175.636 338.876 174.932C339.197 173.877 343.461 170.569 343.461 170.569C343.37 170.552 343.283 170.518 343.204 170.47C343.338 170.411 343.475 170.337 343.623 170.259C346.41 168.767 351.59 164.415 350.719 161.751L356.383 153.623C356.563 153.365 356.649 153.053 356.628 152.74C356.607 152.427 356.479 152.13 356.267 151.898V151.898ZM310.123 143.995C309.985 143.997 309.847 144.008 309.711 144.027C309.46 142.576 309.106 141.145 308.653 139.745C307.997 137.542 307.291 135.325 307.186 133.034C307.186 132.936 307.186 132.834 307.186 132.735C307.197 132.131 307.276 131.53 307.422 130.944C307.556 131.194 307.708 131.44 307.863 131.672C308.769 133.038 309.827 134.336 310.384 135.874C310.638 136.578 310.786 137.341 311.174 137.985C311.562 138.629 312.278 139.174 313.033 139.058C313.293 139.017 313.536 138.906 313.738 138.738C312.726 140.615 311.514 142.377 310.123 143.995Z" fill="url(#paint0_linear_2631_41147)"/>
<path d="M342.63 172.032C342.221 172.286 341.767 172.458 341.293 172.539C339.53 172.588 338.119 167.877 338.119 167.877C338.119 167.877 338.616 167.373 339.406 166.67C341.745 164.597 346.654 160.765 348.953 162.908C351.524 165.311 345.635 170.41 342.63 172.032Z" fill="#ECB4B6"/>
<path d="M316.119 284.404L309.683 291.336C309.683 291.336 303.726 291.403 304.894 288.124C305.123 287.414 305.288 286.685 305.388 285.946C305.683 283.611 305.823 281.261 305.807 278.908C305.807 277.37 305.783 276.294 305.783 276.294C305.783 276.294 315.16 272.194 314.201 276.462C314.077 277.006 314.011 277.562 314.003 278.12C313.997 279.7 314.359 281.26 315.061 282.677C315.357 283.285 315.711 283.864 316.119 284.404Z" fill="#ECB4B6"/>
<path opacity="0.1" d="M316.119 284.404L309.683 291.336C309.683 291.336 303.726 291.403 304.894 288.124C305.123 287.414 305.288 286.685 305.388 285.946C306.237 286.6 307.461 288.535 307.461 288.535C307.461 288.535 311.566 289.732 312.695 286.146C313.33 284.14 314.324 283.148 315.082 282.663C315.371 283.275 315.718 283.859 316.119 284.404V284.404Z" fill="black"/>
<path d="M331.047 294.844C328.868 296.709 326.078 297.711 323.208 297.659C317.9 297.582 307.979 297.427 305.676 297.332C302.594 297.198 303.617 294.573 303.716 292.757C303.716 292.694 303.716 292.634 303.716 292.574C303.751 290.766 304.128 286.839 304.731 286.241C305.334 285.643 307.45 288.971 307.45 288.971C307.45 288.971 311.555 290.168 312.684 286.582C313.812 282.996 316.119 282.627 316.119 282.627C317.177 282.177 317.216 284.879 317.216 284.879L325.909 289.355L331.009 290.157C331.174 290.231 331.322 290.308 331.464 290.382C333.752 291.656 332.737 293.387 331.047 294.844Z" fill="#EF293D"/>
<path opacity="0.25" d="M314.985 287.955C315.193 287.955 315.362 287.787 315.362 287.579C315.362 287.371 315.193 287.202 314.985 287.202C314.776 287.202 314.607 287.371 314.607 287.579C314.607 287.787 314.776 287.955 314.985 287.955Z" fill="white"/>
<path opacity="0.25" d="M318.51 289.696C318.719 289.696 318.888 289.528 318.888 289.32C318.888 289.112 318.719 288.943 318.51 288.943C318.302 288.943 318.133 289.112 318.133 289.32C318.133 289.528 318.302 289.696 318.51 289.696Z" fill="white"/>
<path opacity="0.25" d="M320.327 290.51C320.535 290.51 320.704 290.341 320.704 290.133C320.704 289.926 320.535 289.757 320.327 289.757C320.118 289.757 319.949 289.926 319.949 290.133C319.949 290.341 320.118 290.51 320.327 290.51Z" fill="white"/>
<path opacity="0.25" d="M324.09 291.953C324.299 291.953 324.468 291.784 324.468 291.576C324.468 291.369 324.299 291.2 324.09 291.2C323.882 291.2 323.713 291.369 323.713 291.576C323.713 291.784 323.882 291.953 324.09 291.953Z" fill="white"/>
<path opacity="0.25" d="M322.174 291.336C322.383 291.336 322.552 291.168 322.552 290.96C322.552 290.752 322.383 290.583 322.174 290.583C321.966 290.583 321.797 290.752 321.797 290.96C321.797 291.168 321.966 291.336 322.174 291.336Z" fill="white"/>
<path d="M331.047 294.845C328.868 296.71 326.078 297.712 323.208 297.66C317.9 297.583 307.979 297.428 305.676 297.333C302.594 297.199 303.617 294.574 303.716 292.759L323.063 293.955C323.063 293.955 330.987 292.755 331.46 290.401C333.752 291.657 332.737 293.388 331.047 294.845Z" fill="#EF293D"/>
<path opacity="0.25" d="M331.047 294.768C328.865 296.625 326.076 297.619 323.208 297.562C317.9 297.484 307.979 297.333 305.676 297.234C302.594 297.101 303.617 294.476 303.716 292.66L323.063 293.853C323.063 293.853 330.987 292.653 331.46 290.299C333.752 291.58 332.737 293.311 331.047 294.768Z" fill="white"/>
<path d="M295.029 266.987C294.317 267.565 293.666 268.215 293.086 268.926C291.168 271.153 288.794 274.485 287.616 276.171C287.161 276.825 286.883 277.227 286.883 277.227L284.315 276.846C284.315 276.846 281.543 272.624 281.578 272.511C281.614 272.399 283.769 267.867 283.769 267.867L284.604 266.892L287.235 263.824L288.424 262.437C288.424 262.437 297.357 265.312 295.029 266.987Z" fill="#ECB4B6"/>
<path opacity="0.1" d="M287.616 276.171C287.161 276.826 286.883 277.227 286.883 277.227L284.315 276.847C284.315 276.847 281.543 272.624 281.578 272.512C281.614 272.399 283.769 267.867 283.769 267.867L284.604 266.892L284.879 266.941H285.528C283.236 269.331 285.701 274.591 285.701 274.591C285.701 274.591 286.766 274.697 287.616 276.171Z" fill="black"/>
<path d="M284.733 281.53C284.733 281.53 283.019 285.217 282.095 287.336C281.171 289.454 281.513 290.992 281.513 290.992C281.447 291.266 281.349 291.532 281.22 291.784C280.891 292.434 280.391 292.984 279.774 293.374C279.157 293.763 278.445 293.979 277.715 293.997C277.659 294.002 277.604 294.002 277.549 293.997C274.442 293.916 273.447 284.876 273.447 284.876C273.447 284.876 273.923 267.666 274.816 266.579C274.937 266.454 275.095 266.37 275.267 266.339C276.174 266.183 277.1 266.158 278.014 266.265C280.836 266.466 284.468 267.159 284.468 267.159H285.117C282.825 269.548 285.286 274.809 285.286 274.809C285.286 274.809 286.383 274.911 287.24 276.449C288.097 277.986 284.733 281.53 284.733 281.53Z" fill="#EF293D"/>
<path opacity="0.25" d="M280.975 276.786C281.183 276.786 281.352 276.617 281.352 276.409C281.352 276.202 281.183 276.033 280.975 276.033C280.767 276.033 280.598 276.202 280.598 276.409C280.598 276.617 280.767 276.786 280.975 276.786Z" fill="white"/>
<path opacity="0.25" d="M280.79 279.767C280.998 279.767 281.167 279.598 281.167 279.39C281.167 279.182 280.998 279.014 280.79 279.014C280.581 279.014 280.412 279.182 280.412 279.39C280.412 279.598 280.581 279.767 280.79 279.767Z" fill="white"/>
<path d="M280.977 291.72C280.554 292.554 279.566 293.775 277.471 293.934H277.327C274.205 293.853 273.211 284.813 273.211 284.813C273.211 284.813 273.691 267.603 274.579 266.515C274.702 266.391 274.859 266.308 275.031 266.276C275.939 266.12 276.866 266.095 277.782 266.202C277.729 269.292 277.584 279.074 277.782 280.045C277.979 281.016 279.735 289.116 280.977 291.72Z" fill="#EF293D"/>
<path opacity="0.25" d="M281.205 291.783C280.877 292.434 280.377 292.984 279.76 293.374C279.142 293.764 278.43 293.979 277.7 293.997C277.645 294.002 277.589 294.002 277.534 293.997C274.413 293.916 273.422 284.876 273.422 284.876C273.422 284.876 273.902 267.666 274.79 266.578C274.913 266.454 275.07 266.371 275.242 266.339C276.15 266.183 277.077 266.158 277.992 266.265C277.94 269.355 277.791 279.137 277.992 280.108C278.194 281.079 279.96 289.179 281.205 291.783Z" fill="white"/>
<path d="M277.327 293.933C274.205 293.852 273.211 284.812 273.211 284.812C273.211 284.812 273.691 267.602 274.579 266.515C274.702 266.391 274.859 266.307 275.031 266.275C275.687 267.247 276.262 269.397 275.736 274.129C274.763 283.095 275.937 283.658 275.937 283.658C275.937 283.658 277.38 291.259 277.327 293.933Z" fill="#EF293D"/>
<path opacity="0.1" d="M277.284 293.933C274.152 293.852 273.168 284.805 273.168 284.805C273.168 284.805 273.648 267.595 274.536 266.508C274.659 266.383 274.816 266.3 274.988 266.268C275.644 267.239 276.215 269.389 275.693 274.122C274.72 283.088 275.894 283.651 275.894 283.651C275.894 283.651 277.354 291.259 277.284 293.933Z" fill="black"/>
<path opacity="0.1" d="M342.63 172.032C342.221 172.286 341.767 172.458 341.293 172.539C339.53 172.588 338.119 167.877 338.119 167.877C338.119 167.877 338.616 167.373 339.406 166.67C339.953 167.957 341.529 171.395 342.63 172.032Z" fill="black"/>
<path d="M331.433 170.337C331.433 170.337 332.872 170.439 333.796 169.823C334.72 169.208 338.673 167.519 338.776 166.393C338.776 166.393 341.139 172.128 342.472 172.332C342.472 172.332 338.367 175.562 338.056 176.586C337.746 177.61 329.74 180.105 329.74 180.105L331.433 170.337Z" fill="#FF748E"/>
<path d="M331.433 170.337C331.433 170.337 332.872 170.439 333.796 169.823C334.72 169.208 338.673 167.519 338.776 166.393C338.776 166.393 341.139 172.128 342.472 172.332C342.472 172.332 338.367 175.562 338.056 176.586C337.746 177.61 329.74 180.105 329.74 180.105L331.433 170.337Z" fill="#EF293D"/>
<path opacity="0.1" d="M295.03 266.986C294.318 267.565 293.667 268.214 293.087 268.925C289.994 267.63 287.995 264.991 287.236 263.83L288.425 262.444C288.425 262.444 297.358 265.312 295.03 266.986Z" fill="black"/>
<path d="M309.68 237.922C309.68 237.922 304.658 244.608 302.824 245.368C300.99 246.128 287.307 262.852 287.307 262.852C287.307 262.852 290.241 268.268 295.665 269.137C295.665 269.137 298.61 267.976 299.703 265.382C300.796 262.789 309.419 255.477 309.419 255.477L309.68 237.922Z" fill="#5E5A6B"/>
<path opacity="0.1" d="M309.68 237.922C309.68 237.922 304.658 244.608 302.824 245.368C300.99 246.128 287.307 262.852 287.307 262.852C287.307 262.852 290.241 268.268 295.665 269.137C295.665 269.137 298.61 267.976 299.703 265.382C300.796 262.789 309.419 255.477 309.419 255.477L309.68 237.922Z" fill="black"/>
<path opacity="0.1" d="M294.465 260.343C295.989 260.504 297.526 260.504 299.05 260.343C301.758 260.086 299.702 261.726 294.465 260.343Z" fill="black"/>
<path opacity="0.1" d="M293.234 262.085C293.234 262.085 296.828 264.133 298.214 263.109C299.6 262.085 296.877 264.098 293.234 262.085Z" fill="black"/>
<path opacity="0.1" d="M314.197 276.48C314.076 277.019 314.011 277.568 314.003 278.12C311.228 280.633 307.888 279.859 305.8 278.94C305.8 277.402 305.775 276.326 305.775 276.326C305.775 276.326 315.156 272.212 314.197 276.48Z" fill="black"/>
<path d="M330.834 187.378L330.731 189.268L329.874 205.138C329.874 205.138 329.169 208.688 329.462 215.518C329.754 222.348 325.642 233.14 325.642 233.14C325.642 233.14 323.657 240.452 323.04 243.798C322.422 247.145 320.507 248.169 320.507 248.169C320.507 248.169 320.987 251.927 319.619 253.222C318.25 254.517 318.183 256.705 318.183 256.705C318.183 256.705 316.067 268.454 315.362 269.616C314.657 270.777 314.745 276.924 314.745 276.924C310.294 282.185 303.791 277.403 303.791 277.403L303.858 260.942C303.858 260.942 305.709 245.779 307.078 243.661C308.446 241.543 308.446 235.737 308.446 235.737L307.836 222.214C307.836 222.214 307.349 220.779 307.769 219.959C308.189 219.139 306.598 216.894 306.598 216.894C302.765 212.249 302.218 201.798 303.329 199.747C304.44 197.695 307.769 189.504 307.769 189.504L312.354 186.837L320.631 187.083L330.834 187.378Z" fill="#5E5A6B"/>
<path opacity="0.1" d="M311.359 267.873C311.359 267.873 312.442 271.614 313.313 272.022C314.184 272.43 311.359 267.873 311.359 267.873Z" fill="black"/>
<path opacity="0.1" d="M312.848 255.423C312.848 255.423 315.669 257.633 316.829 257.626C317.99 257.619 312.848 255.423 312.848 255.423Z" fill="black"/>
<path d="M329.74 162.958V167.465L326.757 166.185L323.784 164.904L317.316 158.552C317.316 158.552 312.199 155.234 309.458 152.219C307.893 150.494 307.103 148.865 308.485 147.996C309.151 147.559 309.752 147.032 310.273 146.43C311.651 144.812 312.849 143.049 313.846 141.173L313.973 140.944C315.306 138.502 316.184 136.419 316.184 136.419C316.184 136.419 319.936 137.619 322.352 139.319C322.546 139.453 322.729 139.593 322.906 139.738C324.253 140.839 324.919 142.113 323.682 143.386C323.361 143.717 323.066 144.069 322.796 144.442V144.442C322.596 144.718 322.413 145.006 322.25 145.304C322.176 145.438 322.105 145.572 322.038 145.702C321.207 147.398 320.92 149.309 321.216 151.174L329.74 162.958Z" fill="#ECB4B6"/>
<path opacity="0.1" d="M323.682 143.39C323.361 143.721 323.066 144.073 322.796 144.446V144.446C322.596 144.721 322.413 145.009 322.25 145.308C322.176 145.442 322.105 145.576 322.038 145.706C320.456 145.618 318.912 145.183 317.518 144.431C316.123 143.68 314.913 142.63 313.973 141.357C313.926 141.298 313.883 141.238 313.846 141.177L313.973 140.948C315.306 138.506 316.184 136.423 316.184 136.423C316.184 136.423 319.936 137.623 322.352 139.323C322.546 139.456 322.729 139.597 322.906 139.741C324.253 140.843 324.937 142.117 323.682 143.39Z" fill="black"/>
<path d="M333.425 134.554C333.427 135.968 333.15 137.367 332.609 138.674C332.068 139.98 331.274 141.166 330.272 142.166C329.271 143.165 328.081 143.957 326.772 144.497C325.463 145.037 324.06 145.314 322.644 145.311H322.598C322.482 145.311 322.362 145.311 322.245 145.311C320.182 145.235 318.184 144.57 316.489 143.394C314.793 142.218 313.472 140.581 312.682 138.678C311.892 136.775 311.666 134.685 312.032 132.657C312.397 130.63 313.338 128.75 314.744 127.24C316.149 125.731 317.959 124.656 319.959 124.143C321.958 123.63 324.064 123.701 326.024 124.348C327.985 124.994 329.718 126.188 331.018 127.788C332.318 129.389 333.13 131.328 333.358 133.375C333.401 133.767 333.424 134.16 333.425 134.554V134.554Z" fill="#ECB4B6"/>
<path opacity="0.1" d="M324.059 161.149C324.059 161.149 329.49 164.206 328.097 161.627L321.012 151.176L329.056 161.49C329.056 161.49 334.191 168.527 331.384 173.373C331.384 173.373 330.971 177.405 331.451 178.359C331.931 179.312 331.313 189.496 331.313 189.496C331.313 189.496 329.398 187.736 328.372 188.06C327.346 188.384 320.088 189.017 320.088 189.017L324.059 161.149Z" fill="black"/>
<path opacity="0.1" d="M330.832 187.378L330.73 189.268C330.081 188.796 329.175 188.268 328.575 188.469C327.549 188.821 320.291 189.426 320.291 189.426L320.626 187.075L330.832 187.378Z" fill="black"/>
<path d="M324.262 161.149C324.262 161.149 329.693 164.206 328.3 161.627L321.215 151.176L329.259 161.49C329.259 161.49 334.394 168.527 331.587 173.373C331.587 173.373 331.178 177.405 331.654 178.359C332.13 179.312 331.52 189.496 331.52 189.496C331.52 189.496 329.602 187.736 328.575 188.06C327.549 188.384 320.291 189.017 320.291 189.017L324.262 161.149Z" fill="#464353"/>
<path opacity="0.1" d="M327.166 166.388C326.848 169.671 325.494 173.577 325.494 173.577C325.494 173.577 324.538 183.278 323.304 186.15C322.07 189.021 322.62 192.979 321.936 200.288C321.689 202.916 320.839 204.725 319.693 205.946C317.81 207.952 315.108 208.371 312.992 208.247C312.819 208.247 312.639 208.226 312.488 208.209C309.063 207.857 305.787 191.407 305.787 191.407C305.787 191.407 304.214 177.405 304.828 175.491C305.441 173.577 304.214 162.651 303.801 160.258C303.54 158.745 304.327 156.268 304.934 154.66C305.286 153.728 305.582 153.087 305.582 153.087C305.582 153.087 306.746 149.399 308.661 147.489C308.925 147.218 309.241 147.003 309.59 146.857C309.939 146.711 310.314 146.636 310.693 146.637C311.594 146.67 312.469 146.944 313.228 147.429L313.316 147.489C313.316 147.489 325.776 160.192 326.94 163.13C327.258 163.946 327.289 165.121 327.166 166.388Z" fill="black"/>
<path d="M326.757 166.185C326.439 169.468 325.085 173.373 325.085 173.373C325.085 173.373 324.126 183.075 322.895 185.943C321.664 188.81 322.19 192.772 321.527 200.081C321.28 202.713 320.43 204.522 319.284 205.743C317.397 207.748 314.699 208.167 312.583 208.044L312.082 208.005C308.658 207.653 305.381 191.203 305.381 191.203C305.381 191.203 303.808 177.198 304.426 175.288C305.043 173.377 303.808 162.448 303.399 160.055C303.138 158.542 303.921 156.065 304.531 154.453C304.884 153.524 305.177 152.884 305.177 152.884C305.177 152.884 306.341 149.196 308.259 147.282C308.523 147.012 308.838 146.798 309.187 146.653C309.535 146.507 309.909 146.432 310.287 146.434C311.189 146.467 312.066 146.74 312.826 147.225L312.914 147.282C312.914 147.282 325.374 159.988 326.534 162.923C326.845 163.76 326.88 164.918 326.757 166.185Z" fill="#EF293D"/>
<path opacity="0.1" d="M312.798 216.19C312.798 216.19 309.976 218.699 308.996 218.597C308.015 218.495 312.798 216.19 312.798 216.19Z" fill="black"/>
<path opacity="0.1" d="M313.549 218.597C313.549 218.597 310.573 219.976 309.67 220.18C308.767 220.384 312.4 218.241 313.549 218.597Z" fill="black"/>
<path opacity="0.1" d="M325.066 180.89C325.066 180.89 329.482 180.939 330.148 182.322C330.815 183.705 326.505 180.326 325.066 180.89Z" fill="black"/>
<path opacity="0.1" d="M324.449 183.296C324.449 183.296 327.838 184 328.865 184.834C329.891 185.668 324.449 183.296 324.449 183.296Z" fill="black"/>
<path opacity="0.1" d="M318.755 174.946C318.755 174.946 318.346 188.828 316.829 190.623C315.313 192.417 318.755 174.946 318.755 174.946Z" fill="black"/>
<path opacity="0.1" d="M314.951 214.188C314.951 214.188 312.13 226.43 317.805 227.207C323.479 227.985 321.73 213.273 321.73 213.273L314.951 214.188Z" fill="black"/>
<path d="M314.747 213.98C314.747 213.98 311.925 226.226 317.596 227C323.267 227.774 321.525 213.066 321.525 213.066L314.747 213.98Z" fill="#ECB4B6"/>
<path opacity="0.1" d="M319.601 162.585C319.308 155.227 308.989 153.707 306.58 160.667C306.563 160.713 306.549 160.758 306.531 160.808C304.958 165.519 305.642 177.451 305.642 177.451C305.642 177.451 305.847 185.464 306.601 188.127C307.356 190.791 309.476 198.441 309.476 199.673C309.476 200.904 311.444 205.616 312.272 205.957C313.101 206.298 313.521 208.962 313.722 209.441C313.923 209.919 314.544 216.126 314.544 216.126C314.544 216.126 322.278 215.648 322.415 214.42C322.553 213.192 320.705 207.185 320.705 207.185C320.705 207.185 319.34 204.722 319.167 202.744C318.994 200.767 317.898 199.877 318.109 198.522C318.321 197.167 317.492 196.47 317.492 195.584C317.492 194.697 316.878 192.304 316.878 192.304C316.878 192.304 315.577 191.28 315.782 190.052C315.986 188.824 313.934 186.365 314.48 185.478C315.027 184.591 315.164 182.406 315.164 182.406C315.164 182.406 315.849 172.553 316.328 169.904C316.808 167.254 319.615 162.94 319.615 162.94C319.615 162.94 319.608 162.803 319.601 162.585Z" fill="black"/>
<path opacity="0.1" d="M319.294 205.742C317.407 207.748 314.709 208.167 312.593 208.044C312.35 207.111 311.99 205.967 311.464 205.749C310.636 205.397 308.668 200.696 308.668 199.468C308.668 198.24 306.552 190.587 305.794 187.923C305.035 185.259 304.834 177.247 304.834 177.247C304.834 177.247 304.129 165.315 305.712 160.593C305.712 160.544 305.741 160.498 305.758 160.449C308.167 153.488 318.486 155.012 318.779 162.37C318.779 162.588 318.779 162.722 318.779 162.722C318.779 162.722 315.957 167.025 315.495 169.689C315.033 172.353 314.328 182.188 314.328 182.188C314.328 182.188 314.191 184.376 313.644 185.263C313.097 186.15 315.15 188.609 314.945 189.837C314.741 191.065 316.039 192.089 316.039 192.089C316.039 192.089 316.656 194.479 316.656 195.369C316.656 196.259 317.477 196.938 317.273 198.307C317.068 199.676 318.165 200.559 318.331 202.53C318.486 203.643 318.811 204.727 319.294 205.742V205.742Z" fill="black"/>
<path d="M319.187 162.381C318.895 155.023 308.579 153.499 306.17 160.459C306.17 160.509 306.135 160.554 306.121 160.604C304.548 165.315 305.232 177.248 305.232 177.248C305.232 177.248 305.437 185.26 306.188 187.923C306.939 190.587 309.066 198.244 309.066 199.469C309.066 200.693 311.03 205.408 311.862 205.75C312.695 206.091 313.111 208.758 313.312 209.233C313.513 209.708 314.13 215.919 314.13 215.919C314.13 215.919 321.868 215.44 322.002 214.209C322.136 212.977 320.291 206.971 320.291 206.971C320.291 206.971 318.93 204.507 318.753 202.53C318.577 200.552 317.484 199.662 317.695 198.307C317.907 196.953 317.078 196.256 317.078 195.369C317.078 194.482 316.461 192.09 316.461 192.09C316.461 192.09 315.16 191.066 315.368 189.838C315.576 188.61 313.516 186.146 314.066 185.263C314.617 184.38 314.751 182.191 314.751 182.191C314.751 182.191 315.435 172.339 315.914 169.689C316.394 167.04 319.201 162.722 319.201 162.722C319.201 162.722 319.198 162.599 319.187 162.381Z" fill="#EF293D"/>
<path opacity="0.1" d="M306.48 181.298C306.685 181.094 310.589 176.79 311.82 178.328C313.051 179.866 306.48 181.298 306.48 181.298Z" fill="black"/>
<path opacity="0.1" d="M306.842 184.627C306.993 184.475 310.742 184.32 311.666 182.22C312.59 180.119 306.842 184.627 306.842 184.627Z" fill="black"/>
<g opacity="0.1">
<path opacity="0.1" d="M302.571 146.869C302.664 146.977 302.733 147.103 302.775 147.239C302.852 147.004 302.874 146.755 302.838 146.511C302.803 146.267 302.711 146.034 302.571 145.831C302.387 145.62 302.119 145.497 301.953 145.275C301.953 145.258 301.932 145.237 301.918 145.216C301.825 145.383 301.78 145.571 301.786 145.762C301.792 145.953 301.85 146.139 301.953 146.299C302.119 146.518 302.387 146.644 302.571 146.869Z" fill="black"/>
<path opacity="0.1" d="M307.793 133.579C307.793 133.188 307.811 132.801 307.793 132.418C307.719 131.01 307.462 129.603 307.402 128.195C307.321 129.905 307.702 131.714 307.793 133.442V133.579Z" fill="black"/>
</g>
<path d="M344.126 169.105L344.337 169.253C344.153 169.125 344.026 168.929 343.985 168.709C343.944 168.488 343.992 168.26 344.119 168.074L353.641 154.295C353.704 154.203 353.785 154.125 353.878 154.065C353.971 154.005 354.076 153.964 354.185 153.944C354.295 153.924 354.407 153.926 354.516 153.949C354.624 153.972 354.727 154.017 354.819 154.08L354.611 153.932C354.758 154.033 354.885 154.162 354.982 154.312C355.08 154.461 355.147 154.629 355.18 154.804C355.212 154.98 355.21 155.16 355.173 155.335C355.136 155.509 355.065 155.675 354.963 155.822L346.034 168.757C345.932 168.906 345.802 169.033 345.651 169.132C345.5 169.23 345.33 169.297 345.153 169.33C344.975 169.362 344.793 169.359 344.617 169.32C344.44 169.282 344.274 169.209 344.126 169.105V169.105Z" fill="#464353"/>
<path d="M354.638 153.933L354.865 154.088L344.39 169.261L344.163 169.106C344.029 169.013 343.937 168.872 343.908 168.712C343.878 168.553 343.914 168.388 344.006 168.254L353.777 154.101C353.822 154.033 353.88 153.974 353.948 153.929C354.015 153.883 354.092 153.851 354.172 153.836C354.252 153.82 354.335 153.821 354.415 153.837C354.495 153.854 354.571 153.886 354.638 153.933V153.933Z" fill="#9F9EFF"/>
<path d="M353.54 156.056L353.497 156.026C353.469 156.007 353.432 156.014 353.413 156.041L352.627 157.18C352.608 157.207 352.615 157.244 352.642 157.263L352.686 157.293C352.713 157.312 352.751 157.305 352.769 157.278L353.556 156.139C353.574 156.112 353.567 156.075 353.54 156.056Z" fill="#464353"/>
<path opacity="0.1" d="M334.779 133.238C334.627 132.503 334.024 131.965 333.608 131.338C332.571 129.779 332.733 127.717 333.216 125.909C333.394 125.415 333.47 124.891 333.438 124.367C333.369 124.037 333.232 123.724 333.035 123.449C332.839 123.174 332.587 122.943 332.296 122.77C331.023 121.936 329.39 121.925 327.961 121.398C325.884 120.631 324.004 118.741 321.839 119.198C320.654 119.448 319.744 120.363 318.721 121.007C317.591 121.718 316.291 122.115 314.955 122.158C313.833 122.193 312.701 121.975 311.598 122.158C311.399 122.193 311.204 122.246 311.016 122.316C310.077 121.997 309.091 121.84 308.099 121.852C307.126 121.829 306.169 122.096 305.348 122.619C303.856 123.674 303.458 125.698 303.483 127.517C303.507 129.336 303.814 131.212 303.253 132.943C302.548 135.1 300.601 136.743 300.206 138.974C299.938 140.49 300.439 142.021 300.887 143.496C302.171 147.718 303.021 152.405 301.317 156.49C300.883 157.525 300.234 158.549 299.201 159.024L302.82 158.809C302.859 159.064 302.847 159.325 302.785 159.575C302.723 159.826 302.613 160.062 302.459 160.27C302.306 160.477 302.113 160.653 301.892 160.786C301.67 160.92 301.425 161.008 301.169 161.047C302.082 160.99 302.979 160.784 303.825 160.438C304.247 160.263 304.62 159.987 304.912 159.635C305.204 159.283 305.406 158.866 305.5 158.419C305.57 157.93 305.465 157.419 305.602 156.948C305.838 156.135 306.66 155.688 307.348 155.167C309.111 153.795 309.951 151.483 310.018 149.249C310.085 147.014 309.492 144.819 308.857 142.672C308.222 140.526 307.542 138.369 307.447 136.134C307.405 135.317 307.481 134.498 307.672 133.703C307.803 133.946 307.947 134.185 308.099 134.407C308.974 135.737 309.996 137 310.532 138.499C310.722 139.209 310.977 139.901 311.294 140.564C311.668 141.198 312.352 141.722 313.089 141.62C313.826 141.518 314.362 140.723 314.606 139.977C314.849 139.231 314.958 138.418 315.406 137.781C316.267 136.578 317.988 136.469 319.469 136.514C322.59 136.613 326.896 137.084 329.344 134.692C329.809 134.238 330.049 133.544 330.755 133.713C331.403 133.865 331.767 134.92 332.462 135.156C333.597 135.547 335.036 134.491 334.779 133.238Z" fill="black"/>
<path d="M334.779 132.84C334.627 132.105 334.024 131.563 333.608 130.94C332.571 129.378 332.733 127.316 333.216 125.511C333.394 125.017 333.47 124.493 333.438 123.97C333.369 123.639 333.232 123.326 333.035 123.051C332.839 122.776 332.587 122.545 332.296 122.372C331.023 121.538 329.39 121.524 327.961 121C325.884 120.233 324.004 118.343 321.839 118.801C320.654 119.05 319.744 119.965 318.721 120.609C317.59 121.319 316.29 121.716 314.955 121.76C313.833 121.795 312.701 121.577 311.598 121.76C311.399 121.795 311.204 121.848 311.016 121.918C310.077 121.599 309.091 121.442 308.099 121.454C307.127 121.432 306.17 121.698 305.348 122.217C303.856 123.273 303.458 125.3 303.483 127.119C303.507 128.938 303.814 130.814 303.253 132.545C302.548 134.702 300.601 136.345 300.206 138.576C299.938 140.093 300.439 141.623 300.887 143.098C302.171 147.32 303.021 152.007 301.317 156.089C300.883 157.127 300.234 158.151 299.201 158.626L302.82 158.411C302.859 158.666 302.847 158.926 302.785 159.177C302.723 159.427 302.612 159.663 302.459 159.87C302.306 160.078 302.113 160.253 301.891 160.386C301.67 160.519 301.425 160.608 301.169 160.646C302.082 160.591 302.979 160.387 303.825 160.041C304.247 159.865 304.62 159.589 304.912 159.237C305.204 158.885 305.406 158.468 305.5 158.021C305.57 157.532 305.465 157.021 305.602 156.55C305.838 155.737 306.66 155.29 307.348 154.769C309.111 153.397 309.951 151.085 310.018 148.851C310.085 146.616 309.492 144.417 308.857 142.274C308.222 140.131 307.542 137.971 307.447 135.736C307.405 134.919 307.481 134.101 307.672 133.305C307.803 133.548 307.947 133.787 308.099 134.009C308.974 135.339 309.996 136.602 310.532 138.101C310.721 138.811 310.976 139.501 311.294 140.163C311.668 140.796 312.352 141.324 313.089 141.219C313.826 141.113 314.362 140.325 314.606 139.579C314.849 138.833 314.958 138.02 315.406 137.383C316.267 136.18 317.988 136.071 319.469 136.116C322.59 136.215 326.896 136.686 329.344 134.294C329.809 133.84 330.049 133.147 330.755 133.316C331.403 133.467 331.767 134.522 332.462 134.758C333.597 135.149 335.036 134.093 334.779 132.84Z" fill="#464353"/>
<g opacity="0.1">
<path opacity="0.1" d="M303.494 126.426C303.494 126.66 303.494 126.895 303.494 127.13C303.494 127.89 303.558 128.66 303.586 129.424C303.618 128.439 303.529 127.429 303.494 126.426Z" fill="black"/>
<path opacity="0.1" d="M302.259 150.356C302.355 147.541 301.713 144.638 300.888 141.911C300.556 140.935 300.32 139.928 300.182 138.906C300.031 140.314 300.486 141.721 300.888 143.108C301.652 145.456 302.113 147.892 302.259 150.356V150.356Z" fill="black"/>
<path opacity="0.1" d="M332.865 127.495C332.923 126.825 333.042 126.161 333.218 125.511C333.396 125.017 333.472 124.493 333.44 123.97C333.425 123.878 333.403 123.787 333.373 123.699C333.331 123.906 333.274 124.11 333.218 124.314C332.919 125.347 332.799 126.423 332.865 127.495Z" fill="black"/>
<path opacity="0.1" d="M302.831 157.232L300.645 157.359C300.291 157.906 299.797 158.349 299.213 158.64L302.627 158.439C302.832 158.072 302.904 157.646 302.831 157.232V157.232Z" fill="black"/>
<path opacity="0.1" d="M334.685 132.53C334.498 132.939 334.171 133.268 333.764 133.458C333.356 133.648 332.893 133.688 332.459 133.568C331.754 133.333 331.401 132.277 330.752 132.126C330.047 131.957 329.807 132.654 329.342 133.107C326.898 135.497 322.592 135.025 319.467 134.927C317.986 134.881 316.265 134.99 315.404 136.193C314.946 136.83 314.844 137.647 314.604 138.393C314.364 139.139 313.863 139.913 313.087 140.032C312.311 140.152 311.677 139.621 311.292 138.977C310.975 138.314 310.72 137.624 310.53 136.915C309.994 135.416 308.972 134.149 308.097 132.819C307.945 132.594 307.801 132.354 307.67 132.115C307.479 132.912 307.403 133.732 307.445 134.55C307.445 134.606 307.445 134.666 307.445 134.723C307.472 134.248 307.543 133.777 307.656 133.315C307.787 133.558 307.931 133.797 308.083 134.019C308.957 135.349 309.98 136.612 310.516 138.111C310.705 138.821 310.96 139.511 311.278 140.173C311.652 140.807 312.336 141.334 313.073 141.229C313.81 141.123 314.346 140.335 314.59 139.589C314.833 138.843 314.942 138.03 315.39 137.393C316.251 136.19 317.972 136.081 319.453 136.127C322.574 136.225 326.88 136.697 329.328 134.304C329.793 133.85 330.033 133.157 330.738 133.326C331.387 133.477 331.751 134.533 332.445 134.768C333.584 135.152 335.023 134.096 334.766 132.844C334.746 132.737 334.719 132.633 334.685 132.53Z" fill="black"/>
<path opacity="0.1" d="M307.36 153.587C306.69 154.107 305.851 154.554 305.615 155.367C305.477 155.842 305.583 156.349 305.512 156.838C305.419 157.286 305.217 157.704 304.926 158.056C304.634 158.409 304.26 158.685 303.837 158.861C303.504 159.014 303.155 159.132 302.797 159.213C302.699 159.585 302.494 159.921 302.207 160.178C301.92 160.435 301.563 160.602 301.182 160.659C302.094 160.605 302.991 160.4 303.837 160.054C304.26 159.878 304.633 159.603 304.925 159.251C305.217 158.899 305.418 158.481 305.512 158.034C305.583 157.545 305.477 157.035 305.615 156.564C305.851 155.751 306.673 155.304 307.36 154.783C309.124 153.411 309.963 151.099 310.03 148.864C310.03 148.53 310.03 148.199 310.03 147.869C309.903 150.036 309.067 152.257 307.36 153.587Z" fill="black"/>
</g>
<path d="M160.641 288.117H160.722C160.722 288.117 147.772 253.077 144.147 248.316C144.147 248.316 140.348 246.103 140.521 242.363L135.862 220.061C135.862 220.061 135.933 219.994 136.049 219.867L136.148 219.758C136.183 219.719 136.222 219.677 136.261 219.628C136.883 218.907 137.404 218.106 137.809 217.246C137.834 217.189 137.862 217.136 137.887 217.08C138.06 216.69 138.205 216.288 138.32 215.877C138.646 215.989 139.003 215.971 139.315 215.824C139.315 215.824 139.315 215.704 139.315 215.49C139.315 215.49 139.269 214.17 139.266 212.108C139.266 211.531 139.266 210.905 139.266 210.24C139.416 209.704 139.54 209.162 139.636 208.614L139.445 208.526C139.445 208.498 139.445 208.473 139.463 208.445L139.304 208.371C139.431 203.48 139.855 197.231 141.068 192.973C141.11 192.822 141.152 192.674 141.198 192.526C142.637 187.878 142.669 182.202 143.039 177.395C143.33 177.997 143.58 178.618 143.787 179.253C143.97 179.052 144.181 178.877 144.415 178.736L145.861 190.14V203.575C145.861 203.575 143.441 220.926 151.038 217.696C158.634 214.466 153.111 202.565 153.111 202.565C153.111 202.565 153.111 195.932 154.148 192.53C154.829 190.292 154.388 183.029 154.007 178.353C154.734 178.483 155.182 178.585 155.182 178.585C155.35 177.902 155.426 177.201 155.407 176.498C155.562 168.658 145.748 156.019 141.745 151.198C140.599 149.476 139.006 148.097 137.135 147.208L129.458 143.545C129.458 143.545 125.843 142.648 124.432 139.903C124.432 139.857 124.408 139.808 124.397 139.759C124.556 139.688 124.714 139.614 124.87 139.533C126.038 138.978 127.064 138.165 127.871 137.155C129.507 135.107 130.287 132.542 131.045 130.043C131.923 127.109 132.808 124.107 132.692 121.046C132.575 117.985 131.281 114.804 128.633 113.178C126.379 111.791 123.24 111.528 121.844 109.307C121.466 108.709 121.237 107.998 120.733 107.513C120.737 107.41 120.703 107.31 120.638 107.23C120.573 107.15 120.482 107.097 120.38 107.08L116.465 106.327C116.356 106.306 116.242 106.329 116.149 106.391C116.056 106.453 115.991 106.548 115.968 106.658V106.71C112.514 106.805 109.123 107.654 106.033 109.198C104.938 109.724 103.886 110.336 102.888 111.028C101.477 112.02 100.066 113.329 99.8688 115.032C99.7665 115.88 99.9746 116.749 99.7982 117.58C99.3327 119.804 96.3103 121.25 96.7512 123.477C97.0474 124.99 98.7861 125.641 100.412 125.645C100.111 126.704 99.9578 127.799 99.9569 128.9C99.9711 131.693 100.951 134.395 102.732 136.55C104.513 138.705 106.984 140.18 109.729 140.726C110.913 142.366 111.951 144.106 112.829 145.927C110.84 147.789 106.675 152.11 109.229 153.563L103.939 166.491L104.453 179.823L102.214 181.797L102.704 182.403C100.197 185.281 94.3848 191.576 90.1386 193.251C89.5301 193.493 88.9406 193.78 88.3753 194.11C87.5965 194.595 86.7324 194.928 85.829 195.091C85.4342 195.132 85.0436 195.206 84.6616 195.313L83.6495 193.24C83.473 192.881 83.1614 192.605 82.7823 192.473C82.4033 192.341 81.9874 192.364 81.6251 192.537L81.0044 192.832L79.5267 193.536L78.9131 193.828L78.4441 194.05C78.2658 194.134 78.1059 194.252 77.9738 194.398C77.8417 194.544 77.7399 194.715 77.6743 194.901C77.6087 195.086 77.5806 195.283 77.5917 195.479C77.6027 195.676 77.6527 195.868 77.7387 196.045L78.966 198.554C77.2203 200.07 76.3668 201.883 78.7438 203.565C79.6665 204.228 80.7807 204.574 81.9179 204.55L82.6655 206.073C82.8413 206.433 83.1522 206.709 83.5307 206.84C83.9092 206.972 84.3245 206.949 84.6863 206.777L85.769 206.263L87.885 205.268C88.0635 205.184 88.2236 205.066 88.356 204.921C88.4883 204.775 88.5903 204.605 88.656 204.419C88.7216 204.234 88.7496 204.037 88.7384 203.841C88.7271 203.645 88.6768 203.453 88.5904 203.276L87.9767 202.02C89.3477 200.971 90.6054 199.782 91.7291 198.473C91.7291 198.473 94.8785 196.527 96.7335 196.094C97.9644 195.806 102.285 193.015 104.944 191.249L105.702 210.891C105.532 211.145 105.336 211.381 105.117 211.594L105.713 211.179V211.323C105.624 211.422 105.54 211.513 105.455 211.594L105.713 211.411V211.647C105.63 211.749 105.541 211.844 105.444 211.932L105.716 211.742L105.794 213.783L107.095 211.672L107.176 213.783L107.479 213.287C103.833 219.392 99.0823 228.379 96.5466 237.426C96.5466 237.426 92.5791 244.227 93.094 251.202L85.7937 285.721L85.9348 285.774C83.5683 287.452 78.5957 290.531 73.7112 290.654C73.7112 290.654 61.9708 290.302 65.2471 292.864C68.5234 295.426 97.6928 299.159 97.6928 299.159L98.8143 290.559L99.0753 290.654C99.0753 290.654 99.0753 290.605 99.0576 290.52L99.4103 290.654C99.4103 290.654 98.705 286.4 101.308 284.021C103.91 281.643 109.941 257.486 109.419 253.76C109.419 253.76 114.053 242.348 119.855 233.249L126.682 250.53L134.279 263.458C134.279 263.458 144.383 285.591 144.058 290.524C141.942 293.079 138.141 297.079 135.316 296.963C135.316 296.963 123.748 299.177 131.69 301.217C139.632 303.258 162.937 295.587 162.937 295.587L160.641 288.117ZM110.064 208.976L110.135 208.938C109.782 209.483 109.391 210.092 108.975 210.757L110.064 208.976Z" fill="url(#paint1_linear_2631_41147)"/>
<path d="M105.054 211.583C104.768 211.784 104.613 211.9 104.613 211.9C104.775 211.817 104.924 211.71 105.054 211.583Z" fill="url(#paint2_linear_2631_41147)"/>
<path d="M105.4 211.922L104.959 212.242C105.121 212.157 105.269 212.049 105.4 211.922V211.922Z" fill="url(#paint3_linear_2631_41147)"/>
<path d="M105.4 211.583C105.114 211.784 104.959 211.9 104.959 211.9C105.121 211.817 105.269 211.71 105.4 211.583Z" fill="url(#paint4_linear_2631_41147)"/>
<path d="M144.902 288.609C144.902 288.609 138.843 297.174 134.805 297.005C134.805 297.005 123.519 299.187 131.278 301.203C139.037 303.219 161.745 295.661 161.745 295.661L159.044 286.864L144.902 288.609Z" fill="#333333"/>
<path d="M117.803 229.16L126.383 251.16L133.789 263.922C133.789 263.922 143.974 286.509 143.311 290.876L159.534 288.272C159.534 288.272 146.912 253.679 143.378 248.978C143.378 248.978 139.675 246.793 139.852 243.098L135.309 221.116C135.309 221.116 139.728 216.862 137.26 211.531C137.128 211.248 136.982 210.972 136.822 210.704C133.458 204.997 120.666 208.185 120.666 208.185L117.803 229.16Z" fill="#535461"/>
<path opacity="0.03" d="M117.803 229.16L126.383 251.16L133.789 263.922C133.789 263.922 143.974 286.509 143.311 290.876L159.534 288.272C159.534 288.272 146.912 253.679 143.378 248.978C143.378 248.978 139.675 246.793 139.852 243.098L135.309 221.116C135.309 221.116 139.728 216.862 137.26 211.531C137.128 211.248 136.982 210.972 136.822 210.704C133.458 204.997 120.666 208.185 120.666 208.185L117.803 229.16Z" fill="black"/>
<g opacity="0.1">
<path opacity="0.1" d="M143.39 248.978C143.39 248.978 139.687 246.793 139.863 243.098L135.31 221.116C135.31 221.116 139.729 216.862 137.26 211.531C137.129 211.248 136.983 210.972 136.823 210.704C135.19 207.935 131.342 207.259 127.809 207.298C131.198 207.33 134.763 208.069 136.319 210.704C136.479 210.971 136.624 211.248 136.752 211.531C139.221 216.862 134.806 221.116 134.806 221.116L139.348 243.116C139.182 246.81 142.875 248.996 142.875 248.996C146.401 253.697 159.03 288.29 159.03 288.29L143.312 290.788C143.312 290.813 143.312 290.844 143.312 290.869L159.535 288.265C159.535 288.265 146.923 253.679 143.39 248.978Z" fill="black"/>
</g>
<path d="M88.0121 284.915C88.0121 284.915 81.2796 290.622 74.7164 290.791C74.7164 290.791 63.2722 290.439 66.4674 292.976C69.6626 295.513 98.1126 299.187 98.1126 299.187L99.3786 289.38L88.0121 284.915Z" fill="#333333"/>
<g opacity="0.1">
<path opacity="0.1" d="M112.755 206.827C112.755 206.827 101.646 222.443 97.2695 238.228C97.2695 238.228 93.3901 244.945 93.905 251.832L86.834 285.922L99.7946 290.788C99.7946 290.788 99.121 286.59 101.646 284.24C104.171 281.889 110.061 258.042 109.557 254.348C109.557 254.348 117.636 234.196 125.716 226.303C133.796 218.41 137.812 216.588 139.001 209.765C139.001 209.775 119.992 200.612 112.755 206.827Z" fill="black"/>
</g>
<path d="M112.417 206.827C112.417 206.827 101.308 222.443 96.9351 238.228C96.9351 238.228 93.0557 244.945 93.5671 251.832L86.5137 285.922L99.4567 290.788C99.4567 290.788 98.7866 286.59 101.308 284.24C103.83 281.889 109.726 258.042 109.219 254.348C109.219 254.348 117.298 234.196 125.378 226.303C133.458 218.41 137.478 216.588 138.667 209.765C138.667 209.775 119.654 200.612 112.417 206.827Z" fill="#535461"/>
<g opacity="0.1">
<path opacity="0.1" d="M119.594 204.5C127.938 204.599 138.328 209.61 138.328 209.61C137.14 216.422 133.119 218.245 125.043 226.148C116.967 234.051 108.884 254.192 108.884 254.192C109.388 257.887 103.498 281.734 100.973 284.084C98.7761 286.132 99.0018 289.577 99.097 290.436L99.626 290.633C99.626 290.633 98.9524 286.435 101.478 284.084C104.003 281.734 109.892 257.887 109.388 254.192C109.388 254.192 117.468 234.04 125.547 226.148C133.627 218.255 137.647 216.432 138.832 209.61C138.832 209.61 128.016 204.395 119.594 204.5Z" fill="black"/>
</g>
<path d="M104.165 182.473C104.165 182.473 96.1312 192.455 90.7071 194.623C90.1111 194.862 89.5335 195.144 88.9791 195.467C88.2256 195.945 87.3877 196.275 86.5104 196.439C85.861 196.499 85.2261 196.666 84.6306 196.931C81.8093 198.226 75.3096 201.731 79.6016 204.81C84.9868 208.68 92.2236 199.771 92.2236 199.771C92.2236 199.771 95.2954 197.85 97.1046 197.42C98.9138 196.991 107.202 191.206 107.202 191.206L104.165 182.473Z" fill="#ECB4B6"/>
<path d="M105.685 180.461L102.486 183.314L107.198 189.191L105.685 180.461Z" fill="#EF293D"/>
<g opacity="0.1">
<path opacity="0.1" d="M105.685 180.461L102.486 183.314L107.198 189.191L105.685 180.461Z" fill="black"/>
</g>
<path d="M113.788 147.039C113.788 147.039 106.128 153.591 109.338 155.438L104.164 168.201L105.945 214.884L113.249 202.794L108.259 176.597C108.259 176.597 106.848 160.98 110.932 157.286L114.85 149.544L113.788 147.039Z" fill="#EF293D"/>
<g opacity="0.1">
<path opacity="0.1" d="M114.801 144.699C114.801 144.699 107.141 151.251 110.346 153.098L105.18 165.872L106.961 212.555L114.264 200.465L109.278 174.257C109.278 174.257 107.867 158.64 111.947 154.946L115.869 147.204L114.801 144.699Z" fill="black"/>
</g>
<path d="M107.875 140.156C107.875 140.156 114.103 147.711 113.934 152.077C113.765 156.444 125.717 144.523 125.717 144.523C125.717 144.523 121.171 138.981 122.349 133.101C123.527 127.221 107.875 140.156 107.875 140.156Z" fill="#ECB4B6"/>
<path d="M143.389 178.109L145.074 191.558V204.824C145.074 204.824 142.719 221.953 150.125 218.762C157.531 215.57 152.128 203.803 152.128 203.803C152.128 203.803 152.128 197.252 153.14 193.895C154.152 190.538 152.636 175.755 152.636 175.755L143.389 178.109Z" fill="#ECB4B6"/>
<path d="M120.328 146.37C120.328 146.37 115.804 150.741 113.43 149.224L110.2 157.236C108.225 162.137 107.329 167.404 107.572 172.68L108.715 202.963L113.765 202.291L115.451 173.574L117.976 156.11L120.328 146.37Z" fill="#F2F2F2"/>
<g opacity="0.1">
<path opacity="0.1" d="M124.116 141.751C124.116 141.751 118.141 145.864 116.459 149.394C116.459 149.394 116.29 153.264 114.943 154.936C113.595 156.607 112.252 165.01 111.913 175.088C111.575 185.165 110.062 198.596 110.062 198.596C110.062 198.596 107.537 211.697 104.846 213.023C104.846 213.023 117.298 203.621 123.357 206.813C129.416 210.004 136.318 217.721 138.339 216.553C138.339 216.553 137.852 201.834 140.06 193.983C140.102 193.836 140.144 193.688 140.19 193.544C142.546 185.82 141.033 175.246 143.717 170.707C143.717 170.707 143.717 162.497 142.165 156.368C141.763 154.802 141.023 153.344 139.997 152.094C138.97 150.844 137.682 149.834 136.223 149.133L128.746 145.53C128.746 145.53 124.789 144.942 124.116 141.751Z" fill="black"/>
</g>
<g opacity="0.1">
<path opacity="0.1" d="M124.115 141.751C124.115 141.751 118.472 146.202 116.793 149.728C116.793 149.728 116.624 153.598 115.28 155.27C113.936 156.941 112.586 165.348 112.251 175.422C111.916 185.496 110.399 198.948 110.399 198.948C110.399 198.948 107.874 212.045 105.18 213.375C105.18 213.375 117.636 203.97 123.695 207.161C129.754 210.353 136.656 218.069 138.673 216.901C138.673 216.901 138.19 202.186 140.397 194.335C140.44 194.184 140.482 194.04 140.524 193.895C142.884 186.154 141.367 175.598 144.051 171.055C144.051 171.055 144.051 162.846 142.496 156.72C142.095 155.154 141.356 153.695 140.33 152.444C139.304 151.194 138.016 150.182 136.557 149.481L129.07 145.864C129.07 145.864 124.788 144.942 124.115 141.751Z" fill="black"/>
</g>
<path d="M124.03 141.665C124.03 141.665 118.475 145.863 116.793 149.406C116.793 149.406 116.624 153.277 115.28 154.948C113.936 156.62 112.586 165.023 112.251 175.1C111.916 185.178 110.399 198.595 110.399 198.595C110.399 198.595 107.874 211.696 105.18 213.022C105.18 213.022 117.636 203.62 123.695 206.812C129.754 210.003 136.656 217.72 138.673 216.552C138.673 216.552 138.19 201.833 140.397 193.982L140.524 193.542C142.884 185.819 141.367 175.245 144.051 170.705C144.051 170.705 144.051 162.496 142.496 156.366C142.095 154.801 141.356 153.342 140.33 152.093C139.304 150.843 138.016 149.832 136.557 149.132L129.07 145.515C129.07 145.515 125.292 144.603 124.03 141.665Z" fill="#EF293D"/>
<g opacity="0.1">
<path opacity="0.1" d="M139.433 151.49C139.433 151.49 156.516 170.885 154.16 180.122C154.16 180.122 145.407 178.109 143.051 180.794C143.051 180.794 141.2 174.58 135.645 171.054C130.09 167.528 124.973 144.941 139.433 151.49Z" fill="black"/>
</g>
<path d="M139.433 151.156C139.433 151.156 156.516 170.551 154.16 179.788C154.16 179.788 145.407 177.772 143.051 180.46C143.051 180.46 141.2 174.246 135.645 170.72C130.09 167.194 124.973 144.604 139.433 151.156Z" fill="#EF293D"/>
<g opacity="0.1">
<path opacity="0.1" d="M122.768 136.88C122.504 135.525 122.726 135.423 123.022 133.942C124.2 128.066 108.562 140.979 108.562 140.979C108.562 140.979 109.434 142.035 110.513 143.59C111.31 143.755 112.122 143.837 112.936 143.837C117.214 143.851 120.659 140.248 122.768 136.88Z" fill="black"/>
</g>
<path d="M112.247 143.006C118.846 143.006 124.196 137.669 124.196 131.085C124.196 124.5 118.846 119.163 112.247 119.163C105.648 119.163 100.299 124.5 100.299 131.085C100.299 137.669 105.648 143.006 112.247 143.006Z" fill="#ECB4B6"/>
<g opacity="0.1">
<path opacity="0.1" d="M101.512 127.822C99.7491 128.058 97.5096 127.471 97.171 125.732C96.7443 123.537 99.6891 122.104 100.144 119.912C100.317 119.089 100.112 118.23 100.211 117.396C100.409 115.714 101.77 114.419 103.156 113.445C107.546 110.371 112.888 108.95 118.229 109.437C118.895 109.444 119.545 109.649 120.095 110.025C120.677 110.503 120.899 111.274 121.294 111.911C122.659 114.11 125.716 114.374 127.913 115.739C130.484 117.34 131.754 120.482 131.87 123.505C131.987 126.528 131.123 129.487 130.266 132.39C129.539 134.853 128.777 137.386 127.183 139.406C125.589 141.426 122.951 142.841 120.437 142.221C121.586 141.394 120.754 139.48 119.509 138.808C118.264 138.136 116.723 138.02 115.662 137.094C114.6 136.169 114.279 134.649 113.93 133.27C113.493 131.51 112.872 129.751 111.588 128.487C109.102 126.003 104.581 127.411 101.512 127.822Z" fill="black"/>
</g>
<path d="M101.852 127.654C100.089 127.893 97.8491 127.302 97.507 125.567C97.0802 123.368 100.025 121.939 100.484 119.744C100.653 118.92 100.448 118.065 100.547 117.228C100.744 115.546 102.109 114.254 103.495 113.276C107.885 110.203 113.225 108.783 118.565 109.268C119.232 109.277 119.881 109.482 120.431 109.859C121.012 110.334 121.238 111.105 121.633 111.742C122.994 113.941 126.056 114.205 128.253 115.57C130.82 117.171 132.093 120.317 132.206 123.336C132.319 126.355 131.459 129.318 130.605 132.221C129.875 134.684 129.117 137.221 127.519 139.241C125.922 141.261 123.287 142.672 120.776 142.056C121.922 141.233 121.09 139.315 119.849 138.643C118.607 137.971 117.063 137.858 115.997 136.929C114.932 136 114.615 134.484 114.269 133.104C113.832 131.363 113.211 129.586 111.928 128.326C109.427 125.835 104.917 127.242 101.852 127.654Z" fill="#464353"/>
<path d="M119.463 115.553L120.546 110.021C120.556 109.968 120.556 109.914 120.545 109.861C120.534 109.808 120.513 109.757 120.482 109.712C120.452 109.668 120.413 109.629 120.367 109.6C120.322 109.57 120.271 109.549 120.218 109.539L116.402 108.797C116.349 108.786 116.294 108.786 116.241 108.796C116.188 108.807 116.138 108.828 116.093 108.858C116.048 108.888 116.009 108.927 115.979 108.972C115.95 109.017 115.929 109.068 115.919 109.121L114.836 114.649L111.137 128.301L117.919 129.628L119.463 115.553Z" fill="#EF293D"/>
<g opacity="0.1">
<path opacity="0.1" d="M100.352 120.184C100.6 119.807 100.779 119.389 100.881 118.949C101.05 118.125 100.845 117.267 100.944 116.433C100.981 116.136 101.053 115.844 101.159 115.564C100.833 116.066 100.623 116.635 100.546 117.228C100.447 118.066 100.651 118.921 100.479 119.744C100.449 119.894 100.407 120.041 100.352 120.184V120.184Z" fill="black"/>
<path opacity="0.1" d="M127.917 138.442C126.348 140.434 123.755 141.828 121.287 141.289C121.219 141.602 121.037 141.878 120.775 142.063C123.279 142.672 125.924 141.261 127.518 139.248C128.117 138.477 128.621 137.637 129.021 136.746C128.705 137.344 128.336 137.912 127.917 138.442V138.442Z" fill="black"/>
<path opacity="0.1" d="M121.304 141.152C122.246 140.28 121.435 138.499 120.246 137.855C119.001 137.183 117.46 137.067 116.395 136.141C115.33 135.216 115.012 133.696 114.667 132.313C114.23 130.571 113.609 128.794 112.325 127.535C109.825 125.04 105.314 126.447 102.249 126.859C100.486 127.095 98.2465 126.507 97.908 124.769C97.8279 124.358 97.862 123.933 98.0067 123.541C97.7937 123.829 97.6399 124.157 97.554 124.504C97.468 124.852 97.4517 125.213 97.5059 125.568C97.8586 127.306 100.091 127.893 101.851 127.654C104.916 127.243 109.426 125.835 111.927 128.333C113.196 129.604 113.831 131.37 114.268 133.112C114.621 134.491 114.921 136.001 115.996 136.937C117.072 137.873 118.603 137.992 119.848 138.65C120.74 139.129 121.413 140.255 121.304 141.152Z" fill="black"/>
</g>
<g opacity="0.1">
<path opacity="0.1" d="M113.849 137.215C117.101 137.215 119.738 134.584 119.738 131.338C119.738 128.093 117.101 125.462 113.849 125.462C110.596 125.462 107.959 128.093 107.959 131.338C107.959 134.584 110.596 137.215 113.849 137.215Z" fill="black"/>
</g>
<path d="M113.849 137.383C117.101 137.383 119.738 134.753 119.738 131.507C119.738 128.262 117.101 125.631 113.849 125.631C110.596 125.631 107.959 128.262 107.959 131.507C107.959 134.753 110.596 137.383 113.849 137.383Z" fill="#EF293D"/>
<path d="M113.848 135.356C115.979 135.356 117.707 133.633 117.707 131.507C117.707 129.381 115.979 127.657 113.848 127.657C111.718 127.657 109.99 129.381 109.99 131.507C109.99 133.633 111.718 135.356 113.848 135.356Z" fill="#333333"/>
<path d="M113.85 132.683C114.5 132.683 115.028 132.157 115.028 131.508C115.028 130.858 114.5 130.332 113.85 130.332C113.199 130.332 112.672 130.858 112.672 131.508C112.672 132.157 113.199 132.683 113.85 132.683Z" fill="#EF293D"/>
<path opacity="0.05" d="M119.562 115.062L114.938 114.161L114.905 114.327L119.529 115.228L119.562 115.062Z" fill="black"/>
<path d="M81.1066 194.556L79.9789 195.098C78.8666 195.633 78.3996 196.967 78.9359 198.076L83.0605 206.612C83.5968 207.722 84.9333 208.188 86.0456 207.653L87.1733 207.11C88.2857 206.575 88.7526 205.242 88.2164 204.132L84.0918 195.596C83.5555 194.486 82.219 194.02 81.1066 194.556Z" fill="#CBDAE3"/>
<path d="M82.6601 193.808L78.4255 195.845C78.1711 195.968 78.0643 196.273 78.1869 196.526L83.8094 208.162C83.9321 208.416 84.2378 208.523 84.4921 208.4L88.7268 206.363C88.9812 206.241 89.088 205.936 88.9653 205.682L83.3428 194.046C83.2201 193.792 82.9145 193.686 82.6601 193.808Z" fill="#535461"/>
<path d="M83.2002 193.549L78.937 195.6C78.6493 195.739 78.5285 196.084 78.6672 196.371L84.2315 207.886C84.3702 208.173 84.716 208.293 85.0037 208.155L89.2669 206.104C89.5546 205.966 89.6754 205.621 89.5367 205.334L83.9724 193.819C83.8337 193.532 83.488 193.411 83.2002 193.549Z" fill="#EF293D"/>
<path d="M83.513 194.517L79.5039 196.446L84.1094 205.977L88.1185 204.048L83.513 194.517Z" fill="#F2F2F2"/>
<path d="M86.9944 206.641C87.2453 206.521 87.3177 206.152 87.1562 205.818C86.9946 205.483 86.6602 205.31 86.4094 205.431C86.1585 205.551 86.086 205.92 86.2476 206.255C86.4092 206.589 86.7435 206.762 86.9944 206.641Z" fill="#F2F2F2"/>
<g opacity="0.1">
<path opacity="0.1" d="M117.707 196.094C120.075 196.121 122.418 196.581 124.619 197.453C128.146 198.881 131.881 197.453 131.881 197.453C131.881 197.453 121.244 194.374 117.707 196.094Z" fill="black"/>
</g>
<path d="M239.106 259.552C239.106 259.552 241.3 262.413 238.094 266.734C234.888 271.055 232.247 274.7 233.315 277.392C233.315 277.392 238.151 269.369 242.086 269.257C246.022 269.144 243.437 264.376 239.106 259.552Z" fill="#EF293D"/>
<path opacity="0.1" d="M239.106 259.552C239.298 259.828 239.449 260.13 239.554 260.449C243.395 264.95 245.444 269.151 241.751 269.246C238.313 269.345 234.187 275.481 233.199 277.03C233.231 277.149 233.27 277.266 233.316 277.381C233.316 277.381 238.151 269.359 242.087 269.246C246.022 269.133 243.437 264.376 239.106 259.552Z" fill="black"/>
<path d="M243.184 263.197C243.184 264.207 243.071 265.023 242.934 265.023C242.796 265.023 242.68 264.207 242.68 263.197C242.68 262.187 242.821 262.665 242.962 262.665C243.103 262.665 243.184 262.19 243.184 263.197Z" fill="#FFD037"/>
<path d="M244.585 264.397C243.699 264.879 242.927 265.171 242.86 265.048C242.793 264.925 243.456 264.436 244.341 263.954C245.227 263.472 244.881 263.823 244.948 263.954C245.015 264.084 245.47 263.918 244.585 264.397Z" fill="#FFD037"/>
<path d="M227.525 259.552C227.525 259.552 225.331 262.413 228.537 266.734C231.743 271.055 234.384 274.7 233.316 277.392C233.316 277.392 228.481 269.369 224.545 269.257C220.609 269.144 223.194 264.376 227.525 259.552Z" fill="#EF293D"/>
<path opacity="0.1" d="M227.525 259.552C227.333 259.828 227.183 260.13 227.077 260.449C223.236 264.95 221.191 269.151 224.883 269.246C228.322 269.345 232.445 275.481 233.432 277.03C233.4 277.149 233.361 277.266 233.316 277.381C233.316 277.381 228.481 269.359 224.545 269.246C220.609 269.133 223.194 264.376 227.525 259.552Z" fill="black"/>
<path d="M223.449 263.197C223.449 264.207 223.562 265.023 223.703 265.023C223.844 265.023 223.957 264.207 223.957 263.197C223.957 262.187 223.812 262.665 223.675 262.665C223.537 262.665 223.449 262.19 223.449 263.197Z" fill="#FFD037"/>
<path d="M222.05 264.397C222.938 264.879 223.711 265.171 223.778 265.048C223.845 264.925 223.178 264.436 222.293 263.954C221.408 263.472 221.757 263.823 221.69 263.954C221.623 264.084 221.164 263.918 222.05 264.397Z" fill="#FFD037"/>
<path d="M224.146 277.019C224.146 277.019 230.279 276.829 232.127 275.516C233.975 274.204 241.558 272.638 242.002 274.742C242.447 276.847 251.214 285.214 244.295 285.271C237.375 285.327 228.209 284.194 226.365 283.071C224.52 281.949 224.146 277.019 224.146 277.019Z" fill="#A8A8A8"/>
<path opacity="0.2" d="M244.432 284.535C237.509 284.591 228.347 283.462 226.502 282.339C225.092 281.488 224.538 278.423 224.351 277.012H224.146C224.146 277.012 224.534 281.938 226.379 283.064C228.223 284.19 237.386 285.32 244.309 285.263C246.305 285.246 246.996 284.538 246.957 283.486C246.682 284.127 245.917 284.524 244.432 284.535Z" fill="black"/>
<path d="M212.325 281.509C212.833 281.09 213.202 280.529 213.383 279.897C213.521 279.26 213.246 278.49 212.636 278.261C211.93 277.997 211.225 278.472 210.661 278.965C210.097 279.457 209.465 279.992 208.739 279.89C209.113 279.552 209.393 279.122 209.551 278.644C209.71 278.165 209.741 277.654 209.642 277.16C209.61 276.955 209.523 276.763 209.391 276.604C209.01 276.199 208.333 276.375 207.864 276.695C206.415 277.712 206.009 279.676 206.002 281.445C205.854 280.809 205.977 280.144 205.974 279.489C205.97 278.835 205.79 278.11 205.237 277.758C204.893 277.571 204.506 277.48 204.115 277.494C203.463 277.469 202.736 277.533 202.292 278.011C201.738 278.602 201.883 279.595 202.362 280.242C202.842 280.89 203.576 281.298 204.249 281.752C204.791 282.072 205.251 282.511 205.596 283.036C205.64 283.108 205.674 283.185 205.699 283.265H209.786C210.709 282.798 211.563 282.207 212.325 281.509V281.509Z" fill="#EF293D"/>
<path d="M184.621 279.225C184.621 279.225 180.699 265.949 185.354 256.177C187.329 252.09 187.922 247.473 187.043 243.021C186.61 240.91 185.986 238.843 185.178 236.845" stroke="#535461" stroke-width="2" stroke-miterlimit="10"/>
<path d="M188.101 230.67C188.101 232.295 185.145 237.003 185.145 237.003C185.145 237.003 182.193 232.285 182.193 230.67C182.22 229.906 182.543 229.182 183.094 228.651C183.645 228.12 184.381 227.823 185.147 227.823C185.913 227.823 186.649 228.12 187.2 228.651C187.751 229.182 188.074 229.906 188.101 230.67V230.67Z" fill="#EF293D"/>
<path d="M192.965 239.681C192.076 241.05 187.029 243.408 187.029 243.408C187.029 243.408 187.121 237.844 188.006 236.479C188.432 235.823 189.101 235.363 189.867 235.199C190.633 235.035 191.433 235.182 192.09 235.606C192.748 236.031 193.209 236.699 193.373 237.463C193.537 238.227 193.39 239.025 192.965 239.681V239.681Z" fill="#EF293D"/>
<path d="M192.748 255.082C191.291 255.818 185.74 255.311 185.74 255.311C185.74 255.311 188.632 250.554 190.089 249.822C190.435 249.647 190.812 249.543 191.199 249.514C191.585 249.485 191.974 249.533 192.342 249.654C192.71 249.775 193.051 249.967 193.345 250.22C193.639 250.472 193.88 250.78 194.054 251.125C194.229 251.471 194.334 251.847 194.363 252.233C194.391 252.619 194.344 253.006 194.222 253.374C194.101 253.741 193.908 254.081 193.655 254.374C193.402 254.668 193.094 254.908 192.748 255.082Z" fill="#EF293D"/>
<path d="M189.958 266.702C188.646 267.669 183.088 268.109 183.088 268.109C183.088 268.109 185.133 262.933 186.445 261.966C187.075 261.499 187.865 261.301 188.641 261.416C189.417 261.53 190.116 261.948 190.584 262.576C191.052 263.205 191.25 263.993 191.135 264.767C191.02 265.542 190.602 266.239 189.972 266.705L189.958 266.702Z" fill="#EF293D"/>
<path d="M180.829 243.724C181.996 244.858 187.449 246.033 187.449 246.033C187.449 246.033 186.112 240.631 184.945 239.498C184.668 239.224 184.339 239.006 183.978 238.859C183.616 238.712 183.229 238.637 182.838 238.64C182.448 238.644 182.062 238.724 181.702 238.877C181.343 239.03 181.018 239.253 180.746 239.532C180.474 239.812 180.26 240.142 180.116 240.505C179.973 240.867 179.903 241.254 179.911 241.644C179.918 242.034 180.004 242.418 180.161 242.774C180.319 243.131 180.546 243.453 180.829 243.721V243.724Z" fill="#EF293D"/>
<path d="M177.734 257.36C179.191 258.095 184.742 257.588 184.742 257.588C184.742 257.588 181.85 252.831 180.393 252.099C180.046 251.925 179.668 251.821 179.28 251.792C178.892 251.764 178.503 251.812 178.134 251.934C177.765 252.056 177.423 252.249 177.129 252.503C176.835 252.756 176.593 253.065 176.419 253.412C176.244 253.758 176.14 254.136 176.111 254.522C176.083 254.909 176.131 255.298 176.253 255.666C176.376 256.034 176.569 256.375 176.823 256.669C177.077 256.962 177.387 257.203 177.734 257.377V257.36Z" fill="#EF293D"/>
<path d="M176.549 271.005C177.861 271.973 183.419 272.413 183.419 272.413C183.419 272.413 181.374 267.237 180.062 266.269C179.75 266.038 179.396 265.87 179.019 265.776C178.643 265.681 178.251 265.662 177.867 265.718C177.483 265.775 177.114 265.906 176.781 266.105C176.447 266.304 176.157 266.567 175.925 266.878C175.694 267.189 175.526 267.542 175.431 267.918C175.336 268.294 175.317 268.684 175.373 269.068C175.43 269.451 175.562 269.819 175.761 270.152C175.961 270.484 176.224 270.774 176.535 271.005H176.549Z" fill="#EF293D"/>
<path d="M188.101 230.67C188.101 232.295 185.145 237.003 185.145 237.003C185.145 237.003 182.193 232.285 182.193 230.67C182.22 229.906 182.543 229.182 183.094 228.651C183.645 228.12 184.381 227.823 185.147 227.823C185.913 227.823 186.649 228.12 187.2 228.651C187.751 229.182 188.074 229.906 188.101 230.67V230.67Z" fill="#EF293D"/>
<path d="M192.965 239.681C192.076 241.05 187.029 243.408 187.029 243.408C187.029 243.408 187.121 237.844 188.006 236.479C188.432 235.823 189.101 235.363 189.867 235.199C190.633 235.035 191.433 235.182 192.09 235.606C192.748 236.031 193.209 236.699 193.373 237.463C193.537 238.227 193.39 239.025 192.965 239.681V239.681Z" fill="#EF293D"/>
<path d="M192.748 255.082C191.291 255.818 185.74 255.311 185.74 255.311C185.74 255.311 188.632 250.554 190.089 249.822C190.435 249.647 190.812 249.543 191.199 249.514C191.585 249.485 191.974 249.533 192.342 249.654C192.71 249.775 193.051 249.967 193.345 250.22C193.639 250.472 193.88 250.78 194.054 251.125C194.229 251.471 194.334 251.847 194.363 252.233C194.391 252.619 194.344 253.006 194.222 253.374C194.101 253.741 193.908 254.081 193.655 254.374C193.402 254.668 193.094 254.908 192.748 255.082Z" fill="#EF293D"/>
<path d="M189.958 266.702C188.646 267.669 183.088 268.109 183.088 268.109C183.088 268.109 185.133 262.933 186.445 261.966C187.075 261.499 187.865 261.301 188.641 261.416C189.417 261.53 190.116 261.948 190.584 262.576C191.052 263.205 191.25 263.993 191.135 264.767C191.02 265.542 190.602 266.239 189.972 266.705L189.958 266.702Z" fill="#EF293D"/>
<path d="M180.829 243.724C181.996 244.858 187.449 246.033 187.449 246.033C187.449 246.033 186.112 240.631 184.945 239.498C184.668 239.224 184.339 239.006 183.978 238.859C183.616 238.712 183.229 238.637 182.838 238.64C182.448 238.644 182.062 238.724 181.702 238.877C181.343 239.03 181.018 239.253 180.746 239.532C180.474 239.812 180.26 240.142 180.116 240.505C179.973 240.867 179.903 241.254 179.911 241.644C179.918 242.034 180.004 242.418 180.161 242.774C180.319 243.131 180.546 243.453 180.829 243.721V243.724Z" fill="#EF293D"/>
<path d="M177.734 257.36C179.191 258.095 184.742 257.588 184.742 257.588C184.742 257.588 181.85 252.831 180.393 252.099C180.046 251.925 179.668 251.821 179.28 251.792C178.892 251.764 178.503 251.812 178.134 251.934C177.765 252.056 177.423 252.249 177.129 252.503C176.835 252.756 176.593 253.065 176.419 253.412C176.244 253.758 176.14 254.136 176.111 254.522C176.083 254.909 176.131 255.298 176.253 255.666C176.376 256.034 176.569 256.375 176.823 256.669C177.077 256.962 177.387 257.203 177.734 257.377V257.36Z" fill="#EF293D"/>
<path d="M176.549 271.005C177.861 271.973 183.419 272.413 183.419 272.413C183.419 272.413 181.374 267.237 180.062 266.269C179.75 266.038 179.396 265.87 179.019 265.776C178.643 265.681 178.251 265.662 177.867 265.718C177.483 265.775 177.114 265.906 176.781 266.105C176.447 266.304 176.157 266.567 175.925 266.878C175.694 267.189 175.526 267.542 175.431 267.918C175.336 268.294 175.317 268.684 175.373 269.068C175.43 269.451 175.562 269.819 175.761 270.152C175.961 270.484 176.224 270.774 176.535 271.005H176.549Z" fill="#EF293D"/>
<path d="M175.355 278.388C175.355 278.388 180.127 277.441 181.4 276.181C182.673 274.922 188.401 272.715 189.036 274.288C189.67 275.861 197.627 281.224 192.21 282.17C186.793 283.117 179.485 283.43 177.895 282.8C176.304 282.17 175.355 278.388 175.355 278.388Z" fill="#A8A8A8"/>
<path opacity="0.2" d="M192.22 281.582C186.81 282.529 179.492 282.842 177.902 282.212C176.689 281.733 175.849 279.425 175.514 278.341L175.355 278.376C175.355 278.376 176.311 282.159 177.902 282.789C179.492 283.419 186.81 283.102 192.22 282.159C193.779 281.885 194.227 281.244 194.058 280.431C193.924 280.973 193.391 281.378 192.22 281.582Z" fill="black"/>
<defs>
<linearGradient id="paint0_linear_2631_41147" x1="314.179" y1="299.187" x2="314.179" y2="115.564" gradientUnits="userSpaceOnUse">
<stop stop-color="#808080" stop-opacity="0.25"/>
<stop offset="0.54" stop-color="#808080" stop-opacity="0.12"/>
<stop offset="1" stop-color="#808080" stop-opacity="0.1"/>
</linearGradient>
<linearGradient id="paint1_linear_2631_41147" x1="20899.2" y1="116503" x2="48287.2" y2="116503" gradientUnits="userSpaceOnUse">
<stop stop-color="#808080" stop-opacity="0.25"/>
<stop offset="0.54" stop-color="#808080" stop-opacity="0.12"/>
<stop offset="1" stop-color="#808080" stop-opacity="0.1"/>
</linearGradient>
<linearGradient id="paint2_linear_2631_41147" x1="248.001" y1="407.415" x2="248.552" y2="407.415" gradientUnits="userSpaceOnUse">
<stop stop-color="#808080" stop-opacity="0.25"/>
<stop offset="0.54" stop-color="#808080" stop-opacity="0.12"/>
<stop offset="1" stop-color="#808080" stop-opacity="0.1"/>
</linearGradient>
<linearGradient id="paint3_linear_2631_41147" x1="248.786" y1="410.272" x2="249.337" y2="410.272" gradientUnits="userSpaceOnUse">
<stop stop-color="#808080" stop-opacity="0.25"/>
<stop offset="0.54" stop-color="#808080" stop-opacity="0.12"/>
<stop offset="1" stop-color="#808080" stop-opacity="0.1"/>
</linearGradient>
<linearGradient id="paint4_linear_2631_41147" x1="248.786" y1="407.415" x2="249.337" y2="407.415" gradientUnits="userSpaceOnUse">
<stop stop-color="#808080" stop-opacity="0.25"/>
<stop offset="0.54" stop-color="#808080" stop-opacity="0.12"/>
<stop offset="1" stop-color="#808080" stop-opacity="0.1"/>
</linearGradient>
</defs>
</svg>
