<svg width="306" height="336" viewBox="0 0 306 336" fill="none" xmlns="http://www.w3.org/2000/svg">
<g clip-path="url(#clip0_2568_45563)">
<path d="M255.5 6.98755H0.625V127.93H255.5V6.98755Z" fill="#E6E6E6"/>
<path d="M248.212 17.3586H7.91309V118.265H248.212V17.3586Z" fill="white"/>
<path d="M255.391 0H0.516602V10.8278H255.391V0Z" fill="#DDE1EA"/>
<path d="M8.56158 8.37391C9.66997 8.37391 10.5685 7.47539 10.5685 6.36701C10.5685 5.25863 9.66997 4.36011 8.56158 4.36011C7.4532 4.36011 6.55469 5.25863 6.55469 6.36701C6.55469 7.47539 7.4532 8.37391 8.56158 8.37391Z" fill="white"/>
<path d="M16.1788 8.37391C17.2872 8.37391 18.1857 7.47539 18.1857 6.36701C18.1857 5.25863 17.2872 4.36011 16.1788 4.36011C15.0704 4.36011 14.1719 5.25863 14.1719 6.36701C14.1719 7.47539 15.0704 8.37391 16.1788 8.37391Z" fill="white"/>
<path d="M23.796 8.37391C24.9043 8.37391 25.8029 7.47539 25.8029 6.36701C25.8029 5.25863 24.9043 4.36011 23.796 4.36011C22.6876 4.36011 21.7891 5.25863 21.7891 6.36701C21.7891 7.47539 22.6876 8.37391 23.796 8.37391Z" fill="white"/>
<path d="M191.64 33.6868H151.688V101.938H191.64V33.6868Z" fill="#F2F2F2"/>
<path d="M145.07 33.6855H64.4854V52.4724H145.07V33.6855Z" fill="#DDE1EA"/>
<path d="M145.07 57.7041H64.4854V77.9178H145.07V57.7041Z" fill="#F2F2F2"/>
<path d="M145.07 83.1497H64.4854V101.937H145.07V83.1497Z" fill="#F2F2F2"/>
<path d="M121.099 201.805C121.107 200.421 120.822 199.052 120.263 197.786C119.705 196.52 118.885 195.386 117.858 194.459C116.831 193.532 115.62 192.832 114.303 192.406C112.987 191.98 111.595 191.836 110.22 191.985C109.785 192.035 109.353 192.114 108.929 192.223L75.6905 163.733L77.6768 153.026L61.294 147.717L56.3545 164.874C55.7702 166.933 55.8654 169.126 56.626 171.127C57.3865 173.128 58.7719 174.83 60.5765 175.981L101.466 201.843C101.466 202.164 101.483 202.486 101.516 202.806C101.665 204.181 102.104 205.51 102.802 206.705C103.501 207.899 104.444 208.932 105.57 209.737C106.696 210.541 107.979 211.099 109.335 211.373C110.691 211.647 112.09 211.632 113.44 211.327C113.833 211.241 114.219 211.129 114.597 210.993C116.49 210.309 118.127 209.062 119.29 207.419C120.452 205.776 121.083 203.817 121.099 201.805Z" fill="#9F616A"/>
<path d="M38.4656 234.847H81.3211C81.3211 236.079 125.489 237.079 125.489 237.079C126.182 237.601 126.814 238.2 127.372 238.864C129.05 240.865 129.967 243.394 129.961 246.005V247.791C129.96 250.75 128.784 253.587 126.692 255.679C124.6 257.772 121.762 258.948 118.803 258.949H38.4656C35.5071 258.946 32.6705 257.77 30.5786 255.678C28.4866 253.586 27.3102 250.749 27.3076 247.791V246.005C27.3117 243.047 28.4886 240.212 30.5802 238.12C32.6719 236.028 35.5076 234.852 38.4656 234.847Z" fill="#3F3D56"/>
<path d="M85.0819 258.506H73.4775V333.487H85.0819V258.506Z" fill="#3F3D56"/>
<path d="M118.11 334.42C118.11 335.824 100.525 334.963 78.8338 334.963C57.1422 334.963 39.5576 335.824 39.5576 334.42C39.5576 333.016 57.1422 321.883 78.8338 321.883C100.525 321.883 118.11 333.016 118.11 334.42Z" fill="#3F3D56"/>
<path d="M107.635 324.291L118.578 324.29L123.784 295.907L107.633 295.908L107.635 324.291Z" fill="#9F616A"/>
<path d="M104.843 334.899L140.13 334.898V334.451C140.13 332.648 139.775 330.862 139.085 329.196C138.394 327.529 137.383 326.015 136.107 324.74C134.832 323.464 133.318 322.453 131.652 321.763C129.985 321.072 128.2 320.717 126.396 320.717H126.395L104.843 320.718L104.843 334.899Z" fill="#2F2E41"/>
<path d="M124.002 306.69L145.819 257.767C147.641 253.643 147.842 248.985 146.383 244.719C144.924 240.454 141.912 236.895 137.947 234.751L90.6253 209.375L69.0312 207.538L49.1122 205.728L48.9686 205.971C48.7849 206.281 44.5022 213.678 47.3971 221.79C49.5931 227.942 55.3049 232.748 64.3741 236.074C85.5425 243.836 109.996 250.47 119.527 252.961C119.948 253.069 120.342 253.264 120.682 253.535C121.022 253.806 121.301 254.145 121.501 254.532C121.701 254.913 121.82 255.333 121.85 255.763C121.88 256.192 121.821 256.624 121.676 257.03L101.407 302.568C101.196 303.145 101.119 303.764 101.185 304.375C101.25 304.987 101.454 305.576 101.783 306.096C102.112 306.616 102.555 307.053 103.08 307.375C103.604 307.696 104.195 307.893 104.808 307.95L119.953 309.053C120.081 309.065 120.209 309.071 120.337 309.071C121.112 309.071 121.871 308.846 122.522 308.423C123.172 308.001 123.686 307.399 124.002 306.69Z" fill="#CBCBCB"/>
<path d="M100.493 324.291L111.436 324.29L116.643 295.907L100.491 295.908L100.493 324.291Z" fill="#9F616A"/>
<path d="M97.7038 334.899L132.99 334.898V334.451C132.99 332.648 132.635 330.862 131.945 329.196C131.255 327.529 130.243 326.015 128.968 324.74C127.692 323.464 126.178 322.453 124.512 321.763C122.846 321.072 121.06 320.717 119.256 320.717H119.255L97.7031 320.718L97.7038 334.899Z" fill="#2F2E41"/>
<path d="M115.969 309.368L137.786 260.445C139.607 256.321 139.808 251.663 138.35 247.397C136.891 243.132 133.879 239.573 129.914 237.428L82.5917 212.053L60.9977 210.216L45.3962 208.863L45.3983 208.649C45.2146 208.959 40.9318 216.356 43.8268 224.468C46.0227 230.62 47.2714 235.426 56.3406 238.752C77.509 246.514 101.963 253.147 111.494 255.639C111.915 255.746 112.308 255.942 112.649 256.213C112.989 256.484 113.268 256.823 113.467 257.21C113.667 257.591 113.786 258.01 113.816 258.44C113.847 258.87 113.787 259.302 113.643 259.708L93.3739 305.246C93.1622 305.823 93.086 306.442 93.1511 307.053C93.2162 307.665 93.421 308.254 93.7495 308.774C94.0781 309.294 94.5216 309.731 95.0461 310.053C95.5705 310.374 96.1618 310.571 96.7742 310.628L111.919 311.73C112.048 311.743 112.176 311.749 112.303 311.749C113.079 311.748 113.838 311.523 114.488 311.101C115.139 310.678 115.653 310.077 115.969 309.368Z" fill="#CBCBCB"/>
<path d="M74.853 209.755C75.899 209.015 90.9205 216.896 93.5984 210.648C81.1015 179.406 89.7132 165.914 82.0582 147.998C80.7099 144.908 78.6787 142.164 76.1174 139.972C73.556 137.779 70.5311 136.196 67.2699 135.341L47.4091 134.339L47.3062 134.388C42.8245 136.583 39.1695 140.164 36.8832 144.6C34.5969 149.036 33.801 154.091 34.6135 159.015C34.6841 178.513 46.3503 193.384 42.2711 207.526C42.1001 208.118 42.0502 208.737 42.1244 209.348C42.1986 209.959 42.3954 210.549 42.7031 211.082C43.0013 211.597 43.402 212.046 43.8803 212.401C44.3586 212.755 44.9045 213.008 45.4843 213.143L71.7087 209.645C72.3213 209.791 72.958 209.804 73.5762 209.685C74.1944 209.565 74.7801 209.315 75.2941 208.951L74.853 209.755Z" fill="#2F2E41"/>
<path d="M54.0375 126.921C66.1458 126.921 75.9616 117.105 75.9616 104.996C75.9616 92.8881 66.1458 83.0723 54.0375 83.0723C41.9291 83.0723 32.1133 92.8881 32.1133 104.996C32.1133 117.105 41.9291 126.921 54.0375 126.921Z" fill="#9F616A"/>
<path d="M47.0545 125.12C48.2194 125.63 50.6048 116.348 49.5363 114.491C47.9472 111.73 48.0411 111.75 46.9862 109.924C45.9312 108.097 45.6952 105.597 47.0613 103.99C48.4274 102.382 51.5887 102.596 52.2122 104.611C51.8112 100.783 55.597 97.7066 59.3471 96.842C63.0971 95.9774 67.0527 96.5142 70.8235 95.7448C75.1996 94.8519 79.7527 91.1836 78.0067 86.3714C77.7071 85.5702 77.2585 84.833 76.6847 84.1987C74.6674 81.9305 71.8455 80.962 69.0865 80.0255C63.3467 78.0774 57.45 76.1048 51.3924 76.3198C41.4395 76.6732 32.0314 83.5535 28.6781 92.9312C28.2606 94.1013 27.9372 95.3028 27.711 96.5244C25.6318 107.704 32.1239 118.731 42.6682 122.989L47.0545 125.12Z" fill="#2F2E41"/>
<path d="M162.028 160.376L164.542 175.304C164.57 175.471 164.552 175.642 164.489 175.798L144.765 225.083C144.687 225.278 144.544 225.441 144.361 225.543C144.177 225.646 143.964 225.683 143.757 225.647C143.55 225.612 143.361 225.507 143.222 225.349C143.083 225.191 143.002 224.99 142.994 224.78L142.158 204.975C142.152 204.844 142.175 204.712 142.225 204.59L160.271 160.183C160.346 159.997 160.48 159.842 160.651 159.739C160.823 159.637 161.024 159.593 161.222 159.615C161.421 159.637 161.607 159.723 161.753 159.86C161.898 159.998 161.995 160.179 162.028 160.376Z" fill="#3F3D56"/>
<path d="M160.629 161.522L163.019 174.347L145.515 219.32L143.242 204.853L160.629 161.522Z" fill="#DDE1EA"/>
<path d="M84.0499 224.854C84.4805 226.535 141.023 228.355 141.61 227.846C142.136 227.194 142.592 226.489 142.97 225.742C143.562 224.684 144.111 223.622 144.111 223.622L143.182 205.74L87.4829 199.788C87.4829 199.788 85.0187 214.711 84.2451 221.566C84.0703 222.653 84.0049 223.754 84.0499 224.854Z" fill="#3F3D56"/>
<path opacity="0.1" d="M135.895 207.632L135.9 223.038L111.265 221.287L112.355 205.958L135.895 207.632Z" fill="black"/>
<path opacity="0.1" d="M103.794 210.301L103.943 210.282L102.78 216.832L89.0938 215.859L89.561 209.289L103.794 210.301Z" fill="black"/>
<path opacity="0.1" d="M84.0499 224.854C84.4805 226.535 141.023 228.355 141.61 227.846C142.136 227.194 142.592 226.489 142.97 225.742L84.2451 221.566C84.0703 222.653 84.0049 223.754 84.0499 224.854Z" fill="black"/>
<path d="M61.3466 198.15L109.043 207.051C109.162 207.35 109.297 207.642 109.446 207.927C110.094 209.146 110.992 210.215 112.08 211.065C113.168 211.915 114.423 212.526 115.763 212.859C117.109 213.198 118.511 213.245 119.876 212.998C121.241 212.75 122.537 212.214 123.679 211.425C125.746 210.006 127.192 207.85 127.72 205.399C128.248 202.948 127.819 200.388 126.521 198.243C125.222 196.098 123.152 194.531 120.735 193.864C118.319 193.196 115.738 193.478 113.522 194.652C113.137 194.859 112.765 195.093 112.412 195.351L70.9842 181.199L68.8638 170.519L51.6797 171.656L53.4603 189.56C53.6763 191.65 54.5602 193.614 55.9809 195.161C57.4015 196.708 59.2831 197.756 61.3466 198.15Z" fill="#9F616A"/>
<path d="M51.0971 179.642L76.0668 171.435L70.2422 154.711C69.4688 152.49 67.9352 150.614 65.9125 149.415C63.8899 148.215 61.5083 147.77 59.1887 148.156C56.8423 148.547 54.713 149.764 53.1854 151.588C51.6579 153.412 50.8327 155.721 50.859 158.1L51.0971 179.642Z" fill="#2F2E41"/>
<path d="M209.495 335.774H0.0497248C-0.0960713 335.774 -0.235896 335.716 -0.33899 335.613C-0.442083 335.51 -0.5 335.37 -0.5 335.224C-0.5 335.078 -0.442083 334.938 -0.33899 334.835C-0.235896 334.732 -0.0960713 334.674 0.0497248 334.674H209.495C209.641 334.674 209.78 334.732 209.884 334.835C209.987 334.938 210.045 335.078 210.045 335.224C210.045 335.37 209.987 335.51 209.884 335.613C209.78 335.716 209.641 335.774 209.495 335.774Z" fill="#CBCBCB"/>
<path d="M230.968 318.454C241.013 323.653 245.48 334.973 245.48 334.973C245.48 334.973 233.659 337.863 223.613 332.664C213.568 327.465 209.102 316.146 209.102 316.146C209.102 316.146 220.922 313.255 230.968 318.454Z" fill="#F1F1F1"/>
<path d="M227.755 322.199C233.749 331.791 245.393 335.327 245.393 335.327C245.393 335.327 247.318 323.311 241.323 313.719C235.329 304.127 223.685 300.591 223.685 300.591C223.685 300.591 221.76 312.607 227.755 322.199Z" fill="#F1F1F1"/>
<path d="M263.836 335.556H201.167C201.021 335.556 200.881 335.498 200.778 335.395C200.675 335.292 200.617 335.152 200.617 335.006C200.617 334.86 200.675 334.721 200.778 334.618C200.881 334.514 201.021 334.457 201.167 334.457H263.836C263.981 334.457 264.121 334.514 264.224 334.618C264.327 334.721 264.385 334.86 264.385 335.006C264.385 335.152 264.327 335.292 264.224 335.395C264.121 335.498 263.981 335.556 263.836 335.556Z" fill="#CBCBCB"/>
</g>
<defs>
<clipPath id="clip0_2568_45563">
<rect width="306" height="336" fill="white"/>
</clipPath>
</defs>
</svg>
