<svg width="449" height="386" viewBox="0 0 449 386" fill="none" xmlns="http://www.w3.org/2000/svg">
<g clip-path="url(#clip0_2568_45534)">
<path d="M327.44 376.233H55.5379C55.3486 376.233 55.1671 376.158 55.0333 376.024C54.8994 375.89 54.8242 375.708 54.8242 375.519C54.8242 375.329 54.8994 375.147 55.0333 375.013C55.1671 374.879 55.3486 374.804 55.5379 374.804H327.44C327.629 374.804 327.811 374.879 327.945 375.013C328.079 375.147 328.154 375.329 328.154 375.519C328.154 375.708 328.079 375.89 327.945 376.024C327.811 376.158 327.629 376.233 327.44 376.233Z" fill="#CACACA"/>
<path d="M140.157 237.674L137.382 254.955C137.208 256.037 136.798 257.069 136.181 257.976C135.564 258.884 134.755 259.645 133.811 260.206C132.867 260.768 131.811 261.115 130.717 261.225C129.624 261.334 128.52 261.203 127.483 260.841C126.451 260.48 125.511 259.898 124.728 259.138C123.944 258.377 123.337 257.454 122.948 256.435C122.559 255.415 122.398 254.323 122.476 253.235C122.554 252.147 122.869 251.09 123.399 250.136L132.427 233.888L167.328 164.331C168.702 162.018 170.804 160.224 173.307 159.228C175.81 158.232 178.573 158.091 181.165 158.826L184.863 159.875L179.363 175.965L140.157 237.674Z" fill="#A0616A"/>
<path d="M236.468 359.163L244.638 358.733L235.608 328.7L222.708 331.275L236.468 359.163Z" fill="#A0616A"/>
<path d="M154.773 364.739H163.803L168.533 335.563H154.773V364.739Z" fill="#A0616A"/>
<path d="M169.086 118.289C169.086 124.694 171.618 130.839 176.132 135.392C180.646 139.944 186.778 142.536 193.196 142.604C199.614 142.672 205.8 140.21 210.41 135.755C215.02 131.299 217.682 125.208 217.818 118.805C217.825 118.636 217.825 118.459 217.825 118.289C217.826 115.095 217.197 111.932 215.973 108.981C214.749 106.029 212.954 103.347 210.691 101.088C208.428 98.8288 205.741 97.0367 202.784 95.814C199.827 94.5912 196.657 93.9619 193.455 93.9619C190.254 93.9619 187.084 94.5912 184.127 95.814C181.17 97.0367 178.483 98.8288 176.219 101.088C173.956 103.347 172.162 106.029 170.938 108.981C169.714 111.932 169.084 115.095 169.086 118.289Z" fill="#2F2E41"/>
<path d="M203.793 105.024C210.727 105.024 216.347 99.4162 216.347 92.498C216.347 85.5799 210.727 79.9717 203.793 79.9717C196.86 79.9717 191.239 85.5799 191.239 92.498C191.239 99.4162 196.86 105.024 203.793 105.024Z" fill="#2F2E41"/>
<path d="M202.484 102.074C204.907 102.958 207.544 103.075 210.036 102.41C212.528 101.745 214.754 100.329 216.411 98.3569C218.068 96.3844 219.076 93.9502 219.297 91.3858C219.519 88.8213 218.943 86.2511 217.648 84.0249C218.833 85.3242 219.731 86.8578 220.284 88.526C220.836 90.1943 221.031 91.9599 220.854 93.7081C220.678 95.4562 220.135 97.1478 219.261 98.6729C218.387 100.198 217.201 101.522 215.78 102.56C214.359 103.598 212.735 104.326 211.014 104.696C209.293 105.067 207.512 105.072 205.789 104.711C204.066 104.35 202.438 103.632 201.011 102.602C199.584 101.572 198.391 100.254 197.508 98.7341C198.87 100.234 200.578 101.381 202.484 102.074Z" fill="#2F2E41"/>
<path d="M191.533 144.98C199.31 144.98 205.614 138.69 205.614 130.931C205.614 123.172 199.31 116.882 191.533 116.882C183.757 116.882 177.453 123.172 177.453 130.931C177.453 138.69 183.757 144.98 191.533 144.98Z" fill="#A0616A"/>
<path d="M201.64 136.058C201.64 136.058 202.93 152.361 211.1 155.794L179.281 184.969L168.961 180.249L176.271 159.655C176.271 159.655 193.04 156.223 186.161 141.206L201.64 136.058Z" fill="#A0616A"/>
<path d="M147.458 338.138L170.677 339.426L181.427 258.765L209.377 338.997L237.326 329.987L209.807 238.171C202.721 212.773 208.682 184.861 218.407 156.224L207.657 153.22L183.147 156.653C180.613 156.656 178.126 157.335 175.943 158.619C173.759 159.902 171.959 161.744 170.728 163.954C164.69 174.74 160.325 185.205 163.884 194.144C149.615 231.409 146.538 282.334 147.458 338.138Z" fill="#2F2E41"/>
<path d="M216.26 245.035L210.288 261.491C209.914 262.522 209.772 263.622 209.87 264.714C209.969 265.807 210.307 266.864 210.859 267.812C211.412 268.759 212.167 269.574 213.07 270.199C213.973 270.824 215.003 271.244 216.086 271.428C217.163 271.612 218.268 271.559 219.323 271.272C220.378 270.985 221.357 270.472 222.193 269.769C223.028 269.066 223.7 268.189 224.16 267.199C224.621 266.21 224.86 265.133 224.86 264.042V245.464L228.139 167.746C228.062 165.058 227.095 162.471 225.39 160.39C223.685 158.308 221.338 156.847 218.713 156.236L214.97 155.365L211.96 172.097L216.26 245.035Z" fill="#A0616A"/>
<path d="M239.392 383.008C241.123 383.059 242.819 382.518 244.199 381.475C245.579 380.432 246.56 378.95 246.98 377.274L247.266 376.133C248.634 370.674 248.271 364.925 246.226 359.68L243.349 352.296L234.749 356.158L232.102 374.349C231.948 375.405 232.02 376.483 232.313 377.51C232.606 378.537 233.114 379.491 233.802 380.309C234.49 381.126 235.344 381.79 236.308 382.255C237.271 382.72 238.322 382.977 239.392 383.008Z" fill="#2F2E41"/>
<path d="M140.941 384.75C141.883 385.322 142.955 385.644 144.056 385.687C145.157 385.729 146.251 385.49 147.233 384.992L163.607 375.79C164.669 375.193 165.519 374.282 166.04 373.183C166.561 372.084 166.727 370.85 166.515 369.653L164.659 359.161H154.339L139.591 374.816C138.932 375.516 138.438 376.354 138.144 377.269C137.85 378.184 137.765 379.152 137.895 380.104C138.024 381.056 138.365 381.967 138.892 382.771C139.419 383.575 140.119 384.251 140.941 384.75Z" fill="#2F2E41"/>
<path d="M169.305 115.01C173.123 124.242 182.989 130.815 194.561 130.815C204.471 130.815 213.133 125.996 217.815 118.805C217.822 118.635 217.822 118.458 217.822 118.289C217.822 112.124 215.475 106.19 211.257 101.686C207.038 97.1821 201.263 94.4451 195.099 94.0285C188.935 93.6119 182.842 95.5469 178.054 99.442C173.265 103.337 170.138 108.902 169.305 115.01V115.01Z" fill="#2F2E41"/>
</g>
<g filter="url(#filter0_d_2568_45534)">
<g clip-path="url(#clip1_2568_45534)">
<mask id="mask0_2568_45534" style="mask-type:alpha" maskUnits="userSpaceOnUse" x="235" y="55" width="116" height="116">
<path d="M235.198 113.023C235.203 100.443 239.35 88.214 247.001 78.2155C254.652 68.2171 265.384 61.0032 277.545 57.6835C289.707 54.3637 302.625 55.122 314.312 59.8416C326 64.5612 335.81 72.9807 342.233 83.8053C348.656 94.6299 351.337 107.26 349.863 119.753C348.39 132.246 342.843 143.91 334.077 152.952C325.311 161.993 313.81 167.911 301.343 169.794C288.877 171.678 276.136 169.424 265.079 163.378C261.1 166.202 251.395 171.835 241.807 167.778L253.348 154.87C247.611 149.507 243.04 143.026 239.917 135.827C236.795 128.628 235.189 120.866 235.198 113.023Z" fill="#EF293D"/>
</mask>
<g mask="url(#mask0_2568_45534)">
<path fill-rule="evenodd" clip-rule="evenodd" d="M205.851 44.2993H452.132V54.242H205.851V44.2993ZM205.851 64.1847H452.132V74.1275H205.851V64.1847ZM205.851 84.0449H452.132V94.0129H205.851V84.0449ZM205.851 103.93H452.132V113.873H205.851V103.93ZM205.851 123.816H452.132V133.758H205.851V123.816ZM205.851 143.676H452.132V153.619H205.851V143.676ZM205.851 163.561H452.132V173.504H205.851V163.561Z" fill="#BD3D44"/>
<path fill-rule="evenodd" clip-rule="evenodd" d="M205.851 54.2432H452.132V64.1859H205.851V54.2432ZM205.851 74.1286H452.132V84.0461H205.851V74.1286ZM205.851 93.9888H452.132V103.931H205.851V93.9888ZM205.851 113.874H452.132V123.817H205.851V113.874ZM205.851 133.76H452.132V143.702H205.851V133.76ZM205.851 153.62H452.132V163.563H205.851V153.62Z" fill="white"/>
<path fill-rule="evenodd" clip-rule="evenodd" d="M205.851 44.2993H304.358V113.873H205.851V44.2993Z" fill="#192F5D"/>
<path fill-rule="evenodd" clip-rule="evenodd" d="M214.054 47.2773L214.966 50.028H217.852L215.523 51.7188L216.409 54.4946L214.054 52.7786L211.725 54.4694L212.611 51.7188L210.257 50.028H213.194L214.054 47.2773ZM230.485 47.2773L231.371 50.028H234.282L231.928 51.7188L232.814 54.4946L230.485 52.7786L228.13 54.4694L229.017 51.7188L226.687 50.028H229.574L230.485 47.2773ZM246.89 47.2773L247.802 50.028H250.662L248.333 51.7188L249.219 54.4946L246.865 52.7786L244.536 54.4694L245.422 51.7188L243.067 50.028H245.979L246.89 47.2773ZM263.321 47.2773L264.207 50.028H267.118L264.764 51.7188L265.675 54.4946L263.321 52.7786L260.966 54.4694L261.878 51.7188L259.523 50.028H262.409L263.321 47.2773ZM279.726 47.2773L280.637 50.028H283.524L281.194 51.7188L282.081 54.4946L279.726 52.7786L277.397 54.4694L278.283 51.7188L275.954 50.028H278.84L279.726 47.2773ZM296.157 47.2773L297.043 50.028H299.954L297.6 51.7188L298.511 54.4946L296.157 52.7786L293.802 54.4694L294.714 51.7188L292.359 50.028H295.271L296.157 47.2773ZM222.282 54.2423L223.168 56.9929H226.08L223.725 58.6837L224.586 61.4343L222.308 59.7436L219.953 61.4343L220.789 58.6837L218.51 56.9929H221.396L222.282 54.2423ZM238.688 54.2423L239.599 56.9929H242.485L240.131 58.6837L241.042 61.4343L238.688 59.7436L236.333 61.4343L237.245 58.6837L234.89 56.9929H237.801L238.688 54.2423ZM255.118 54.2423L256.004 56.9929H258.916L256.561 58.6837L257.447 61.4343L255.118 59.7436L252.764 61.4343L253.65 58.6837L251.321 56.9929H254.207L255.118 54.2423ZM271.523 54.2423L272.435 56.9929H275.321L272.966 58.6837L273.878 61.4343L271.523 59.7436L269.194 61.4343L270.08 58.6837L267.726 56.9929H270.663L271.523 54.2423ZM287.954 54.2423L288.84 56.9929H291.752L289.397 58.6837L290.283 61.4343L287.954 59.7436L285.6 61.4343L286.486 58.6837L284.156 56.9929H287.043L287.954 54.2423ZM214.054 61.182L214.966 63.9831H217.852L215.523 65.6739L216.409 68.4245L214.054 66.7085L211.725 68.4245L212.611 65.6486L210.257 63.9579H213.194L214.054 61.182ZM230.485 61.182L231.371 63.9579H234.282L231.928 65.6486L232.814 68.3993L230.485 66.6833L228.13 68.3993L229.017 65.6234L226.687 63.9326H229.574L230.485 61.182ZM246.89 61.182L247.802 63.9579H250.662L248.333 65.6486L249.219 68.3993L246.865 66.6833L244.536 68.3993L245.422 65.6234L243.067 63.9326H245.979L246.89 61.182ZM263.321 61.182L264.207 63.9579H267.118L264.764 65.6486L265.675 68.3993L263.321 66.6833L260.966 68.3993L261.878 65.6234L259.523 63.9326H262.409L263.321 61.182ZM279.726 61.182L280.637 63.9579H283.524L281.194 65.6486L282.081 68.3993L279.726 66.6833L277.397 68.3993L278.283 65.6234L275.954 63.9326H278.84L279.726 61.182ZM296.157 61.182L297.043 63.9579H299.954L297.6 65.6486L298.511 68.3993L296.157 66.6833L293.802 68.3993L294.714 65.6234L292.359 63.9326H295.271L296.157 61.182ZM222.282 68.1469L223.168 70.8976H226.08L223.725 72.5884L224.611 75.3642L222.282 73.6482L219.928 75.339L220.814 72.5884L218.485 70.8976H221.371L222.282 68.1469ZM238.688 68.1469L239.599 70.8976H242.485L240.131 72.5884L241.042 75.3642L238.688 73.6482L236.333 75.339L237.245 72.5884L234.89 70.8976H237.801L238.688 68.1469ZM255.118 68.1469L256.004 70.8976H258.916L256.561 72.5884L257.447 75.3642L255.118 73.6482L252.764 75.339L253.65 72.5884L251.321 70.8976H254.207L255.118 68.1469ZM271.523 68.1469L272.435 70.8976H275.321L272.992 72.5884L273.878 75.3642L271.523 73.6482L269.194 75.339L270.08 72.5884L267.726 70.8976H270.663L271.523 68.1469ZM287.954 68.1469L288.84 70.8976H291.752L289.397 72.5884L290.283 75.3642L287.954 73.6482L285.6 75.339L286.486 72.5884L284.156 70.8976H287.043L287.954 68.1469ZM214.054 75.1119L214.966 77.8625H217.852L215.523 79.5533L216.409 82.3292L214.054 80.6132L211.725 82.3039L212.611 79.5533L210.257 77.8625H213.194L214.054 75.1119ZM230.485 75.1119L231.371 77.8625H234.282L231.928 79.5533L232.814 82.3039L230.485 80.6132L228.13 82.3039L229.017 79.5533L226.687 77.8625H229.574L230.485 75.1119ZM246.89 75.1119L247.802 77.8625H250.662L248.333 79.5533L249.219 82.3292L246.865 80.6132L244.536 82.3039L245.422 79.5533L243.067 77.8625H245.979L246.89 75.1119ZM263.321 75.1119L264.207 77.8625H267.118L264.764 79.5533L265.675 82.3292L263.321 80.6132L260.966 82.3039L261.878 79.5533L259.523 77.8625H262.409L263.321 75.1119ZM279.726 75.1119L280.637 77.8625H283.524L281.194 79.5533L282.081 82.3292L279.726 80.6132L277.397 82.3039L278.283 79.5533L275.954 77.8625H278.84L279.726 75.1119ZM296.157 75.1119L297.043 77.8625H299.954L297.6 79.5533L298.511 82.3292L296.157 80.6132L293.802 82.3039L294.714 79.5533L292.359 77.8625H295.271L296.157 75.1119ZM222.282 82.0768L223.168 84.8275H226.08L223.725 86.5182L224.611 89.2689L222.282 87.5529L219.928 89.2689L220.814 86.493L218.485 84.8022H221.371L222.282 82.0768ZM238.688 82.0768L239.599 84.8275H242.485L240.131 86.5182L241.042 89.2689L238.688 87.5529L236.333 89.2689L237.245 86.493L234.89 84.8022H237.801L238.688 82.0768ZM255.118 82.0768L256.004 84.8275H258.916L256.561 86.5182L257.447 89.2689L255.118 87.5529L252.764 89.2689L253.65 86.493L251.321 84.8022H254.207L255.118 82.0768ZM271.523 82.0768L272.435 84.8275H275.321L272.992 86.5182L273.878 89.2689L271.523 87.5529L269.194 89.2689L270.08 86.493L267.726 84.8022H270.663L271.523 82.0768ZM287.954 82.0768L288.84 84.8275H291.752L289.397 86.5182L290.283 89.2689L287.954 87.5529L285.6 89.2689L286.486 86.493L284.156 84.8022H287.043L287.954 82.0768ZM214.054 89.0165L214.966 91.7924H217.852L215.523 93.4832L216.409 96.2086L214.054 94.5178L211.725 96.2086L212.611 93.4579L210.257 91.7672H213.194L214.054 89.0165ZM230.485 89.0165L231.371 91.7924H234.282L231.928 93.4832L232.839 96.2086L230.485 94.5178L228.13 96.2086L229.042 93.4579L226.687 91.7672H229.574L230.485 89.0165ZM246.89 89.0165L247.802 91.7924H250.662L248.333 93.4832L249.219 96.2086L246.865 94.5178L244.536 96.2086L245.422 93.4579L243.067 91.7672H245.979L246.89 89.0165ZM263.321 89.0165L264.207 91.7924H267.118L264.764 93.4832L265.675 96.2086L263.321 94.5178L260.966 96.2086L261.878 93.4579L259.523 91.7672H262.409L263.321 89.0165ZM279.726 89.0165L280.637 91.7924H283.524L281.194 93.4832L282.081 96.2086L279.726 94.5178L277.397 96.2086L278.283 93.4579L275.954 91.7672H278.84L279.726 89.0165ZM296.157 89.0165L297.043 91.7924H299.954L297.6 93.4832L298.511 96.2086L296.157 94.5178L293.802 96.2086L294.714 93.4579L292.359 91.7672H295.271L296.157 89.0165ZM222.282 95.9815L223.168 98.7321H226.08L223.725 100.423L224.611 103.199L222.282 101.483L219.928 103.174L220.814 100.423L218.485 98.7321H221.371L222.282 95.9815ZM238.688 95.9815L239.599 98.7321H242.485L240.131 100.423L241.042 103.199L238.688 101.483L236.333 103.174L237.245 100.423L234.89 98.7321H237.801L238.688 95.9815ZM255.118 95.9815L256.004 98.7321H258.916L256.561 100.423L257.447 103.199L255.118 101.483L252.764 103.174L253.65 100.423L251.321 98.7321H254.207L255.118 95.9815ZM271.523 95.9815L272.435 98.7321H275.321L272.992 100.423L273.878 103.199L271.523 101.483L269.194 103.174L270.08 100.423L267.726 98.7321H270.663L271.523 95.9815ZM287.954 95.9815L288.84 98.7321H291.752L289.397 100.423L290.283 103.199L287.954 101.483L285.6 103.174L286.486 100.423L284.156 98.7321H287.043L287.954 95.9815ZM214.054 102.946L214.966 105.697H217.852L215.523 107.388L216.409 110.138L214.054 108.448L211.725 110.138L212.611 107.363L210.257 105.672H213.194L214.054 102.946ZM230.485 102.946L231.371 105.697H234.282L231.928 107.388L232.839 110.138L230.485 108.448L228.13 110.138L229.042 107.363L226.687 105.672H229.574L230.485 102.946ZM246.89 102.946L247.802 105.697H250.662L248.384 107.388L249.27 110.138L246.916 108.448L244.586 110.138L245.472 107.363L243.118 105.672H246.029L246.89 102.946ZM263.321 102.946L264.207 105.697H267.118L264.764 107.388L265.675 110.138L263.321 108.448L260.966 110.138L261.878 107.363L259.523 105.672H262.409L263.321 102.946ZM279.726 102.946L280.637 105.697H283.524L281.194 107.388L282.081 110.138L279.726 108.448L277.397 110.138L278.283 107.363L275.954 105.672H278.84L279.726 102.946ZM296.157 102.946L297.043 105.697H299.954L297.6 107.388L298.511 110.138L296.157 108.448L293.802 110.138L294.714 107.363L292.359 105.672H295.271L296.157 102.946Z" fill="white"/>
</g>
</g>
</g>
<defs>
<filter id="filter0_d_2568_45534" x="183.82" y="51" width="170.361" height="137.361" filterUnits="userSpaceOnUse" color-interpolation-filters="sRGB">
<feFlood flood-opacity="0" result="BackgroundImageFix"/>
<feColorMatrix in="SourceAlpha" type="matrix" values="0 0 0 0 0 0 0 0 0 0 0 0 0 0 0 0 0 0 127 0" result="hardAlpha"/>
<feOffset dy="4.18045"/>
<feGaussianBlur stdDeviation="2.09023"/>
<feComposite in2="hardAlpha" operator="out"/>
<feColorMatrix type="matrix" values="0 0 0 0 0 0 0 0 0 0 0 0 0 0 0 0 0 0 0.25 0"/>
<feBlend mode="normal" in2="BackgroundImageFix" result="effect1_dropShadow_2568_45534"/>
<feBlend mode="normal" in="SourceGraphic" in2="effect1_dropShadow_2568_45534" result="shape"/>
</filter>
<clipPath id="clip0_2568_45534">
<rect width="412" height="386" fill="white" transform="translate(-29)"/>
</clipPath>
<clipPath id="clip1_2568_45534">
<rect x="188" y="51" width="162" height="129" fill="white"/>
</clipPath>
</defs>
</svg>
