<svg width="310" height="339" viewBox="0 0 310 339" fill="none" xmlns="http://www.w3.org/2000/svg">
<path d="M62.4496 276.197C66.7732 276.197 70.2782 272.696 70.2782 268.378C70.2782 264.06 66.7732 260.56 62.4496 260.56C58.1261 260.56 54.6211 264.06 54.6211 268.378C54.6211 272.696 58.1261 276.197 62.4496 276.197Z" fill="#F0F0F0"/>
<path d="M47.9614 277.597C50.9944 277.597 53.4531 275.141 53.4531 272.112C53.4531 269.083 50.9944 266.628 47.9614 266.628C44.9284 266.628 42.4697 269.083 42.4697 272.112C42.4697 275.141 44.9284 277.597 47.9614 277.597Z" fill="#F0F0F0"/>
<path d="M59.2456 32.4886C62.7229 32.4886 65.5419 29.6733 65.5419 26.2005C65.5419 22.7276 62.7229 19.9124 59.2456 19.9124C55.7682 19.9124 52.9492 22.7276 52.9492 26.2005C52.9492 29.6733 55.7682 32.4886 59.2456 32.4886Z" fill="#282828"/>
<path d="M285.915 105.85C289.392 105.85 292.211 103.034 292.211 99.5615C292.211 96.0887 289.392 93.2734 285.915 93.2734C282.437 93.2734 279.618 96.0887 279.618 99.5615C279.618 103.034 282.437 105.85 285.915 105.85Z" fill="#EF293D"/>
<path d="M69.2166 145.15H58.7227V155.631H69.2166V145.15Z" fill="#CCCCCC"/>
<path d="M4.67732 68.1211H3.62793V0H70.789V1.04802H4.67732V68.1211Z" fill="#282828"/>
<path d="M310 68.1211H308.95V1.04802H242.839V0H310V68.1211Z" fill="#CCCCCC"/>
<path d="M4.67732 125.762H3.62793V193.883H70.789V192.835H4.67732V125.762Z" fill="#CCCCCC"/>
<path d="M310 125.762H308.95V192.835H242.839V193.883H310V125.762Z" fill="#EF293D"/>
<path d="M95.973 31.9644H22.5156V33.0124H95.973V31.9644Z" fill="#CCCCCC"/>
<path d="M43.5064 22.5322H42.457V32.2264H43.5064V22.5322Z" fill="#CCCCCC"/>
<path d="M75.5103 22.5322H74.4609V32.2264H75.5103V22.5322Z" fill="#CCCCCC"/>
<path d="M294.309 105.85H220.852V106.898H294.309V105.85Z" fill="#CCCCCC"/>
<path d="M241.838 96.4175H240.789V106.112H241.838V96.4175Z" fill="#CCCCCC"/>
<path d="M273.846 96.4175H272.797V106.112H273.846V96.4175Z" fill="#CCCCCC"/>
<path d="M100.696 155.106H27.2383V156.154H100.696V155.106Z" fill="#CCCCCC"/>
<path d="M48.2291 145.674H47.1797V155.368H48.2291V145.674Z" fill="#CCCCCC"/>
<path d="M80.234 145.674H79.1846V155.368H80.234V145.674Z" fill="#CCCCCC"/>
<path d="M155.735 219.264C171.962 219.264 185.117 216.214 185.117 212.452C185.117 208.69 171.962 205.64 155.735 205.64C139.507 205.64 126.352 208.69 126.352 212.452C126.352 216.214 139.507 219.264 155.735 219.264Z" fill="#3F3D56"/>
<path d="M179.306 280.314L150.972 282.407L151.049 283.452L179.383 281.359L179.306 280.314Z" fill="#CACACA"/>
<path d="M132.377 276.708L131.871 277.626L142.365 283.39L142.871 282.472L132.377 276.708Z" fill="#CACACA"/>
<path d="M162.029 272.975H152.585V274.023H162.029V272.975Z" fill="#CACACA"/>
<path d="M127.922 338.512L126.875 338.44L134.745 218.442L135.793 218.514L127.922 338.512Z" fill="#CACACA"/>
<path d="M166.751 338.502L161.504 227.936L162.552 227.885L167.799 338.45L166.751 338.502Z" fill="#CACACA"/>
<path d="M177.245 217.911L176.199 217.997L186.168 338.519L187.214 338.433L177.245 217.911Z" fill="#CACACA"/>
<path d="M144.19 338.489L143.141 338.463L146.289 227.898L147.338 227.923L144.19 338.489Z" fill="#CACACA"/>
<path d="M139.168 269.179L132.199 273.3L112.962 248.417L123.248 242.333L139.168 269.179Z" fill="#FFB6B6"/>
<path d="M144.945 274.874L122.474 288.165L122.306 287.881C120.932 285.565 120.536 282.798 121.204 280.19C121.873 277.581 123.552 275.345 125.871 273.973L125.872 273.973L139.597 265.854L144.945 274.874Z" fill="#2F2E41"/>
<path d="M172.823 269.179L179.792 273.3L199.03 248.417L188.744 242.333L172.823 269.179Z" fill="#FFB6B6"/>
<path d="M172.392 265.854L186.116 273.973L186.117 273.973C188.436 275.345 190.115 277.581 190.784 280.19C191.453 282.798 191.056 285.565 189.683 287.881L189.514 288.165L167.043 274.874L172.392 265.854Z" fill="#2F2E41"/>
<path d="M177.613 174.233C177.613 174.233 154.875 190.227 132.743 175.794L132.396 185.855C132.396 185.855 84.9879 205.935 92.7703 221.622C100.553 237.309 116.906 253.587 116.906 253.587L125.826 246.251L115.857 221.098L142.974 209.625L166.615 209.744L199.579 223.069L183.838 246.649L197.709 250.967C197.709 250.967 230.765 220.574 223.682 211.928C218.004 204.998 184.018 189.46 184.018 189.46L177.613 174.233Z" fill="#2F2E41"/>
<path d="M185.527 115.558L165.846 109.043L160.981 102.148H146.815L142.617 109.152L124.368 115.558C123.373 115.842 122.518 116.483 121.968 117.358C121.417 118.233 121.21 119.28 121.385 120.299L129.5 187.037L142.617 185.989C142.617 185.989 160.29 199.761 170.951 183.893L171.52 175.891L182.494 186.513L188.51 120.299C188.685 119.28 188.478 118.233 187.927 117.358C187.376 116.483 186.522 115.842 185.527 115.558Z" fill="#EF293D"/>
<path d="M170.416 70.3008C164.597 60.4817 153.085 60.0241 153.085 60.0241C153.085 60.0241 141.867 58.5915 134.671 73.546C127.964 87.4849 118.707 96.2272 133.181 99.4902L135.795 91.3635L137.414 100.095C139.475 100.243 141.543 100.279 143.607 100.201C159.108 99.7011 173.87 100.347 173.395 94.7921C172.763 87.4076 176.015 79.7487 170.416 70.3008Z" fill="#2F2E41"/>
<path d="M154.423 99.4858C162.827 99.4858 169.639 92.6822 169.639 84.2895C169.639 75.8969 162.827 69.0933 154.423 69.0933C146.02 69.0933 139.207 75.8969 139.207 84.2895C139.207 92.6822 146.02 99.4858 154.423 99.4858Z" fill="#FFB8B8"/>
<path d="M168.368 68.8302L156.994 62.8806L141.288 65.3146L138.039 79.6478L146.128 79.3371L148.388 74.0713V79.2506L152.12 79.1071L154.286 70.7235L155.64 79.6478L168.91 79.3775L168.368 68.8302Z" fill="#2F2E41"/>
<path opacity="0.2" d="M130.645 129.954L142.45 176.062C142.45 176.062 136.941 135.718 130.645 129.954Z" fill="black"/>
<path opacity="0.2" d="M165.871 176.586L177.677 130.478C171.38 136.242 165.871 176.586 165.871 176.586Z" fill="black"/>
<path d="M168.617 216.867C169.253 216.531 169.808 216.061 170.242 215.488C170.676 214.915 170.979 214.255 171.13 213.552C171.281 212.85 171.276 212.123 171.115 211.423C170.954 210.723 170.642 210.066 170.199 209.5L180.917 180.225L172.713 176.054L162.985 208.827C162.082 209.632 161.505 210.74 161.365 211.942C161.225 213.143 161.531 214.354 162.225 215.345C162.92 216.336 163.954 217.038 165.132 217.319C166.31 217.599 167.55 217.438 168.617 216.867Z" fill="#FFB6B6"/>
<path d="M178.973 127.074L167.016 179.004C166.9 179.541 167 180.101 167.294 180.565C167.588 181.028 168.052 181.359 168.587 181.484L180.103 183.141C180.386 183.208 180.68 183.215 180.967 183.162C181.253 183.109 181.525 182.997 181.765 182.833C182.006 182.669 182.21 182.457 182.364 182.211C182.518 181.964 182.619 181.688 182.661 181.4L186.164 127.301L178.973 127.074Z" fill="#EF293D"/>
<path d="M141.273 217.915C140.637 217.579 140.082 217.109 139.648 216.536C139.213 215.963 138.91 215.303 138.759 214.6C138.608 213.898 138.614 213.171 138.775 212.471C138.935 211.771 139.248 211.114 139.69 210.548L128.973 181.274L137.177 177.103L146.904 209.875C147.808 210.68 148.384 211.789 148.524 212.99C148.664 214.191 148.358 215.402 147.664 216.393C146.97 217.384 145.936 218.086 144.758 218.367C143.58 218.647 142.34 218.486 141.273 217.915Z" fill="#FFB6B6"/>
<path d="M130.916 128.122L142.874 180.052C142.989 180.588 142.889 181.149 142.595 181.612C142.302 182.076 141.837 182.406 141.302 182.532L129.787 184.189C129.503 184.256 129.209 184.263 128.923 184.209C128.637 184.156 128.365 184.044 128.124 183.881C127.883 183.717 127.68 183.505 127.526 183.258C127.371 183.012 127.27 182.736 127.229 182.448L122.676 128.349L130.916 128.122Z" fill="#EF293D"/>
<path d="M306.422 339H0.524696C0.385538 339 0.252071 338.945 0.153671 338.846C0.0552719 338.748 0 338.615 0 338.476C0 338.337 0.0552719 338.204 0.153671 338.105C0.252071 338.007 0.385538 337.952 0.524696 337.952H306.422C306.561 337.952 306.695 338.007 306.793 338.105C306.892 338.204 306.947 338.337 306.947 338.476C306.947 338.615 306.892 338.748 306.793 338.846C306.695 338.945 306.561 339 306.422 339Z" fill="#E4E4E4"/>
<path d="M263.191 284.421L263.584 283.862C270.319 288.585 275.232 299.09 278.187 315.085C279.537 322.557 280.348 330.115 280.612 337.702L279.929 337.716C279.921 337.294 278.925 295.453 263.191 284.421Z" fill="#E4E4E4"/>
<path d="M264.219 314.609L264.611 314.051C271.632 318.973 272.059 336.783 272.073 337.539L271.39 337.552C271.387 337.371 270.956 319.333 264.219 314.609Z" fill="#E4E4E4"/>
<path d="M259.288 284.142C261.174 284.142 262.704 282.614 262.704 280.73C262.704 278.845 261.174 277.318 259.288 277.318C257.401 277.318 255.871 278.845 255.871 280.73C255.871 282.614 257.401 284.142 259.288 284.142Z" fill="#E4E4E4"/>
<path d="M260.997 313.826C262.884 313.826 264.414 312.298 264.414 310.414C264.414 308.529 262.884 307.002 260.997 307.002C259.111 307.002 257.581 308.529 257.581 310.414C257.581 312.298 259.111 313.826 260.997 313.826Z" fill="#E4E4E4"/>
<path d="M276.339 279.455C277.425 281.888 277.783 284.583 277.371 287.214C276.958 289.846 275.793 292.302 274.014 294.287C272.928 291.854 272.57 289.16 272.983 286.528C273.395 283.897 274.561 281.44 276.339 279.455Z" fill="#E4E4E4"/>
<path d="M255.426 291.942C258.014 291.298 260.733 291.416 263.256 292.28C265.779 293.144 267.997 294.718 269.645 296.813C267.057 297.457 264.338 297.34 261.815 296.475C259.292 295.611 257.073 294.037 255.426 291.942Z" fill="#E4E4E4"/>
<path d="M257.21 319.284C259.024 318.832 260.93 318.915 262.698 319.52C264.466 320.126 266.022 321.23 267.176 322.698C265.362 323.149 263.456 323.067 261.688 322.461C259.92 321.855 258.365 320.752 257.21 319.284Z" fill="#E4E4E4"/>
</svg>
