<svg width="460" height="448" viewBox="0 0 460 448" fill="none" xmlns="http://www.w3.org/2000/svg">
<path d="M177.607 408.045L165.628 419.085L175.148 403.094C167.647 389.477 155.38 377.709 155.38 377.709C155.38 377.709 129.931 402.119 129.931 421.306C129.931 440.493 141.325 447.192 155.38 447.192C169.436 447.192 180.83 440.493 180.83 421.306C180.83 417.035 179.567 412.506 177.607 408.045Z" fill="#F2F2F2"/>
<path d="M162.547 419.683V420.628C162.491 431.622 160.639 440.199 157.005 446.239C156.953 446.328 156.897 446.412 156.846 446.501L156.439 446.253L156.051 446.009C160.082 439.487 161.509 430.269 161.56 420.68C161.565 420.371 161.569 420.057 161.565 419.743C161.551 415.684 161.303 411.578 160.905 407.589C160.877 407.28 160.844 406.966 160.812 406.653C160.26 401.39 159.465 396.361 158.651 391.993C158.595 391.684 158.534 391.375 158.473 391.071C157.066 383.683 155.63 378.331 155.302 377.146C155.265 377.001 155.242 376.922 155.237 376.903L155.681 376.777L155.686 376.772L156.135 376.646C156.139 376.664 156.219 376.931 156.35 377.427C156.85 379.281 158.151 384.315 159.427 390.954C159.483 391.253 159.544 391.562 159.6 391.871C160.264 395.416 160.915 399.377 161.429 403.534C161.56 404.578 161.677 405.608 161.78 406.624C161.817 406.938 161.85 407.252 161.878 407.561C162.308 411.873 162.531 415.914 162.547 419.683Z" fill="white"/>
<path d="M159.427 390.953C159.114 390.996 158.796 391.038 158.473 391.07C157.597 391.161 156.717 391.206 155.836 391.206C152.081 391.211 148.373 390.373 144.985 388.753C144.789 389.001 144.592 389.249 144.391 389.502C147.955 391.244 151.87 392.147 155.836 392.143C156.776 392.142 157.716 392.092 158.651 391.993C158.969 391.96 159.287 391.918 159.6 391.871C162.187 391.5 164.702 390.737 167.06 389.61C166.859 389.352 166.663 389.099 166.471 388.851C164.239 389.895 161.866 390.604 159.427 390.953V390.953Z" fill="white"/>
<path d="M161.78 406.624C161.457 406.643 161.134 406.652 160.812 406.652C160.713 406.657 160.611 406.657 160.512 406.657C156.444 406.657 152.436 405.672 148.83 403.787C145.224 401.901 142.127 399.17 139.803 395.828C139.616 396.104 139.429 396.38 139.247 396.661C141.669 400.043 144.861 402.799 148.56 404.7C152.258 406.602 156.355 407.593 160.512 407.594C160.643 407.594 160.774 407.594 160.905 407.589C161.233 407.584 161.555 407.575 161.878 407.561C166.872 407.305 171.686 405.614 175.745 402.691C175.595 402.415 175.446 402.139 175.291 401.863C171.346 404.732 166.651 406.387 161.78 406.624V406.624Z" fill="white"/>
<path d="M162.547 419.682C162.219 419.71 161.892 419.729 161.565 419.743C161.214 419.757 160.863 419.766 160.512 419.766C155.046 419.76 149.728 417.981 145.356 414.696C140.983 411.411 137.792 406.797 136.258 401.544C136.048 401.923 135.837 402.298 135.636 402.677C137.364 407.918 140.697 412.48 145.163 415.716C149.629 418.952 155 420.697 160.512 420.703C160.863 420.703 161.214 420.698 161.56 420.679C161.892 420.67 162.219 420.651 162.547 420.628C169.16 420.11 175.329 417.096 179.805 412.196C179.706 411.849 179.594 411.507 179.482 411.161C175.158 416.098 169.084 419.154 162.547 419.682V419.682Z" fill="white"/>
<path d="M459.334 23.9916H0.665692C0.489535 23.9909 0.320813 23.9205 0.196465 23.7956C0.0721176 23.6706 0.00228882 23.5015 0.00228882 23.3251C0.00228882 23.1488 0.0721176 22.9796 0.196465 22.8547C0.320813 22.7298 0.489535 22.6593 0.665692 22.6587H459.334C459.51 22.6593 459.679 22.7298 459.804 22.8547C459.928 22.9796 459.998 23.1488 459.998 23.3251C459.998 23.5015 459.928 23.6706 459.804 23.7956C459.679 23.9205 459.51 23.9909 459.334 23.9916Z" fill="#CACACA"/>
<path d="M15.6492 14.6614C19.6934 14.6614 22.9719 11.3794 22.9719 7.33072C22.9719 3.28208 19.6934 0 15.6492 0C11.605 0 8.32651 3.28208 8.32651 7.33072C8.32651 11.3794 11.605 14.6614 15.6492 14.6614Z" fill="#3F3D56"/>
<path d="M40.9459 14.6614C44.9901 14.6614 48.2686 11.3794 48.2686 7.33072C48.2686 3.28208 44.9901 0 40.9459 0C36.9017 0 33.6232 3.28208 33.6232 7.33072C33.6232 11.3794 36.9017 14.6614 40.9459 14.6614Z" fill="#3F3D56"/>
<path d="M66.2426 14.6614C70.2868 14.6614 73.5653 11.3794 73.5653 7.33072C73.5653 3.28208 70.2868 0 66.2426 0C62.1983 0 58.9199 3.28208 58.9199 7.33072C58.9199 11.3794 62.1983 14.6614 66.2426 14.6614Z" fill="#3F3D56"/>
<path d="M444.178 4.48408H426.204C425.852 4.48286 425.514 4.3419 425.265 4.09207C425.017 3.84225 424.877 3.50392 424.877 3.15122C424.877 2.79852 425.017 2.4602 425.265 2.21037C425.514 1.96054 425.852 1.81959 426.204 1.81837H444.178C444.353 1.81776 444.527 1.85179 444.689 1.9185C444.851 1.98521 444.998 2.08329 445.122 2.20712C445.246 2.33095 445.345 2.47808 445.412 2.64009C445.479 2.8021 445.514 2.9758 445.514 3.15122C445.514 3.32664 445.479 3.50034 445.412 3.66235C445.345 3.82436 445.246 3.9715 445.122 4.09532C444.998 4.21915 444.851 4.31724 444.689 4.38395C444.527 4.45066 444.353 4.48468 444.178 4.48408Z" fill="#3F3D56"/>
<path d="M444.178 9.48212H426.204C425.852 9.4809 425.514 9.33995 425.265 9.09012C425.017 8.84029 424.877 8.50197 424.877 8.14927C424.877 7.79657 425.017 7.45824 425.265 7.20842C425.514 6.95859 425.852 6.81763 426.204 6.81641H444.178C444.353 6.81581 444.527 6.84983 444.689 6.91654C444.851 6.98325 444.998 7.08134 445.122 7.20517C445.246 7.32899 445.345 7.47613 445.412 7.63814C445.479 7.80015 445.514 7.97385 445.514 8.14927C445.514 8.32469 445.479 8.49839 445.412 8.6604C445.345 8.82241 445.246 8.96954 445.122 9.09337C444.998 9.2172 444.851 9.31528 444.689 9.38199C444.527 9.4487 444.353 9.48273 444.178 9.48212Z" fill="#3F3D56"/>
<path d="M444.178 14.4802H426.204C425.852 14.479 425.514 14.338 425.265 14.0882C425.017 13.8383 424.877 13.5 424.877 13.1473C424.877 12.7946 425.017 12.4563 425.265 12.2065C425.514 11.9567 425.852 11.8157 426.204 11.8145H444.178C444.353 11.8139 444.527 11.8479 444.689 11.9146C444.851 11.9813 444.998 12.0794 445.122 12.2032C445.246 12.327 445.345 12.4742 445.412 12.6362C445.479 12.7982 445.514 12.9719 445.514 13.1473C445.514 13.3227 445.479 13.4964 445.412 13.6584C445.345 13.8205 445.246 13.9676 445.122 14.0914C444.998 14.2153 444.851 14.3133 444.689 14.38C444.527 14.4468 444.353 14.4808 444.178 14.4802Z" fill="#3F3D56"/>
<path d="M434.148 54.1299H13.8177V277.07H434.148V54.1299Z" fill="#F0F0F0"/>
<path d="M434.148 95.8606V93.6743H352.326V54.1299H350.142V93.6743H268.32V54.1299H266.136V93.6743H184.315V54.1299H182.131V93.6743H100.309V54.1299H98.1249V93.6743H13.8177V95.8606H98.1249V139.547H13.8177V141.733H98.1249V185.42H13.8177V187.606H98.1249V231.285H13.8177V233.471H98.1249V277.07H100.309V233.471H182.131V277.07H184.315V233.471H266.136V277.07H268.32V233.471H350.142V277.07H352.326V233.471H434.148V231.285H352.326V187.606H434.148V185.42H352.326V141.734H434.148V139.547H352.326V95.8607L434.148 95.8606ZM182.131 231.285H100.309V187.606H182.131V231.285ZM182.131 185.42H100.309V141.734H182.131V185.42ZM182.131 139.547H100.309V95.8607H182.131V139.547ZM266.136 231.285H184.315V187.606H266.136V231.285ZM266.136 185.42H184.315V141.734H266.136V185.42ZM266.136 139.547H184.315V95.8607H266.136V139.547ZM350.142 231.285H268.32V187.606H350.142V231.285ZM350.142 185.42H268.32V141.734H350.142V185.42ZM350.142 139.547H268.32V95.8607H350.142V139.547Z" fill="white"/>
<path d="M144.706 106.485H116.586V133.738H144.706V106.485Z" fill="#CACACA"/>
<path d="M403.601 194.732H375.48V221.986H403.601V194.732Z" fill="#CACACA"/>
<path d="M153.442 240.049H125.322V267.302H153.442V240.049Z" fill="#CACACA"/>
<path d="M161.753 101.429H133.632V128.682H161.753V101.429Z" fill="#EF293D"/>
<path d="M344.408 157.08H316.288V184.334H344.408V157.08Z" fill="#EF293D"/>
<path d="M395.043 448H92.4705C92.2599 448 92.0579 447.916 91.909 447.767C91.7601 447.618 91.6764 447.416 91.6764 447.205C91.6764 446.994 91.7601 446.792 91.909 446.643C92.0579 446.494 92.2599 446.41 92.4705 446.41H395.043C395.254 446.41 395.456 446.494 395.605 446.643C395.754 446.792 395.838 446.994 395.838 447.205C395.838 447.416 395.754 447.618 395.605 447.767C395.456 447.916 395.254 448 395.043 448Z" fill="#CACACA"/>
<path d="M229.68 432.783L241.093 432.782L246.523 388.761L229.678 388.762L229.68 432.783Z" fill="#FFB8B8"/>
<path d="M249.246 429.521H227.235V443.38H263.104C263.104 439.704 261.644 436.179 259.045 433.58C256.446 430.981 252.921 429.521 249.246 429.521V429.521Z" fill="#282828"/>
<path d="M146.87 419.854L157.251 424.597L180.481 386.81L165.159 379.812L146.87 419.854Z" fill="#FFB8B8"/>
<path d="M166.021 425.017L146 415.872L140.242 428.478L172.869 443.381C173.625 441.725 174.048 439.937 174.113 438.118C174.178 436.3 173.884 434.486 173.248 432.781C172.612 431.075 171.647 429.512 170.407 428.18C169.167 426.848 167.676 425.773 166.021 425.017V425.017Z" fill="#282828"/>
<path d="M230.408 421.175H241.311C242.368 421.171 243.385 420.769 244.16 420.049C244.934 419.329 245.409 418.344 245.489 417.289L251.435 258.512C251.479 257.904 251.39 257.293 251.173 256.723C250.957 256.152 250.619 255.636 250.182 255.21C249.745 254.784 249.221 254.458 248.645 254.256C248.07 254.054 247.457 253.98 246.85 254.039L183.794 260.736C182.772 260.836 181.822 261.308 181.125 262.062C180.428 262.816 180.032 263.799 180.012 264.826L178.691 334.864C178.684 335.245 178.61 335.621 178.473 335.975L152.607 403.051C152.407 403.569 152.312 404.122 152.328 404.677C152.344 405.232 152.47 405.779 152.699 406.285C152.928 406.791 153.255 407.246 153.662 407.625C154.068 408.003 154.546 408.297 155.067 408.488L166.116 412.559C167.076 412.913 168.131 412.903 169.084 412.532C170.037 412.161 170.822 411.454 171.29 410.545L203.064 348.76C203.238 348.424 203.364 348.066 203.441 347.696L208.869 321.543C209.026 320.785 209.449 320.107 210.06 319.632C210.672 319.157 211.433 318.915 212.206 318.95C212.98 318.985 213.716 319.295 214.282 319.823C214.848 320.352 215.208 321.065 215.296 321.834L226.246 417.462C226.363 418.484 226.851 419.427 227.619 420.112C228.387 420.797 229.379 421.175 230.408 421.175V421.175Z" fill="#282828"/>
<path d="M224.979 134.364C212.351 134.364 202.114 124.127 202.114 111.499C202.114 98.8715 212.351 88.6348 224.979 88.6348C237.606 88.6348 247.843 98.8715 247.843 111.499C247.843 124.127 237.606 134.364 224.979 134.364Z" fill="#FFB8B8"/>
<path d="M209.215 273C229.44 273.001 245.276 264.581 251.009 261.056H251.009C251.659 260.656 252.187 260.085 252.535 259.406C252.882 258.727 253.036 257.965 252.98 257.204L247.42 177.728C247.063 172.364 245.456 167.159 242.727 162.527C239.999 157.896 236.224 153.967 231.705 151.055C227.389 148.198 222.464 146.391 217.324 145.779C212.185 145.166 206.973 145.765 202.106 147.528C199.959 148.269 197.93 149.32 196.086 150.647C183.769 159.821 177.833 173.635 179.799 188.547C183.877 219.471 179.257 261.186 178.717 265.841L178.678 266.176L178.985 266.317C188.455 270.719 198.772 273 209.215 273V273Z" fill="#EF293D"/>
<path d="M180.106 284.353C179.013 283.53 178.113 282.477 177.47 281.269C176.828 280.061 176.458 278.726 176.387 277.359C176.316 275.993 176.545 274.627 177.059 273.359C177.573 272.09 178.358 270.95 179.36 270.018L165.944 239.577L182.988 242.465L193.115 270.93C194.57 272.717 195.317 274.976 195.217 277.278C195.117 279.58 194.176 281.765 192.573 283.42C190.969 285.074 188.815 286.083 186.517 286.255C184.219 286.427 181.938 285.75 180.106 284.353V284.353Z" fill="#FFB8B8"/>
<path d="M178.823 265.549C179.403 265.549 179.977 265.428 180.508 265.194C181.039 264.96 181.515 264.618 181.906 264.189L186.908 258.733C187.394 258.199 187.735 257.549 187.898 256.846C188.061 256.142 188.04 255.409 187.837 254.716L176.382 215.945L193.811 179.344C194.575 177.735 194.762 175.912 194.341 174.181C193.97 172.662 193.146 171.291 191.98 170.25C190.814 169.208 189.359 168.544 187.808 168.346C186.256 168.148 184.681 168.425 183.29 169.14C181.9 169.855 180.758 170.975 180.017 172.352L156.456 210.582C155.539 212.067 155.001 213.755 154.889 215.497C154.777 217.239 155.095 218.981 155.814 220.571L175 263.082C175.284 263.715 175.722 264.266 176.272 264.687C176.823 265.109 177.47 265.386 178.155 265.495C178.376 265.53 178.599 265.548 178.823 265.549V265.549Z" fill="#EF293D"/>
<path d="M206.14 131.657C208.511 132.064 210.462 128.763 210.757 126.442C211.052 124.121 210.206 121.898 210.114 119.592C210.022 117.286 211.109 114.483 213.505 113.799C216.016 113.082 218.343 115.097 220.914 114.854C224.496 114.517 226.295 110.325 226.729 106.934C227.163 103.542 227.504 99.5265 230.606 97.5926C233.698 95.6648 237.524 97.0675 241.078 97.1275C247.084 97.2289 253.198 92.6488 254.601 86.9968C253.873 87.2069 253.095 87.1679 252.391 86.886C251.687 86.6041 251.097 86.0954 250.715 85.4405C250.414 84.7419 250.353 83.9633 250.541 83.2261C250.728 82.4889 251.154 81.8345 251.753 81.3647L244.945 84.6984C245.875 82.8048 244.47 80.6479 242.536 79.9308C240.602 79.2137 238.351 79.5357 236.217 79.8673C225.557 81.5233 213.211 80.7071 206.14 88.8346C201.243 94.4641 197.211 105.176 197.762 112.108C198.312 119.039 206.14 131.657 206.14 131.657Z" fill="#282828"/>
<path d="M327.378 170.636C326.189 169.958 324.865 169.55 323.501 169.439C322.137 169.329 320.765 169.519 319.483 169.995C318.2 170.472 317.037 171.225 316.077 172.199C315.116 173.174 314.381 174.348 313.923 175.637L280.658 175.398L290.07 189.898L320.217 187.902C322.434 188.528 324.804 188.318 326.878 187.313C328.951 186.308 330.584 184.578 331.467 182.45C332.349 180.321 332.421 177.943 331.667 175.766C330.913 173.588 329.387 171.763 327.378 170.636V170.636Z" fill="#FFB8B8"/>
<path d="M310.068 186.439C310.187 185.871 310.185 185.285 310.064 184.718C309.944 184.15 309.706 183.614 309.366 183.144L305.044 177.135C304.621 176.55 304.054 176.083 303.399 175.781C302.743 175.478 302.021 175.349 301.301 175.406L262.389 173.776L228.731 154.188C227.312 153.112 225.565 152.557 223.785 152.617C222.222 152.671 220.712 153.197 219.454 154.126C218.197 155.056 217.25 156.345 216.74 157.823C216.23 159.301 216.179 160.9 216.596 162.407C217.012 163.915 217.876 165.26 219.073 166.267L251.696 197.129C252.963 198.329 254.505 199.2 256.188 199.664C257.87 200.129 259.641 200.174 261.344 199.794L306.874 189.679C307.551 189.53 308.18 189.214 308.705 188.761C309.23 188.307 309.633 187.73 309.879 187.082C309.959 186.873 310.022 186.658 310.068 186.439V186.439Z" fill="#EF293D"/>
</svg>
