<svg width="506" height="409" viewBox="0 0 506 409" fill="none" xmlns="http://www.w3.org/2000/svg">
<path d="M332.948 228.992C322.273 235.4 303.255 243.43 283.821 235.178L271.258 229.843L296.433 201.593C276.344 179.42 265.23 150.549 265.26 120.614C265.291 90.6799 276.464 61.8312 296.599 39.6992C316.733 17.5672 344.384 3.74032 374.155 0.917465C403.925 -1.90539 433.678 6.47838 457.606 24.4324C481.533 42.3863 497.919 68.6219 503.564 98.0181C509.208 127.414 503.708 157.861 488.135 183.416C472.562 208.971 448.034 227.799 419.34 236.226C390.646 244.653 359.844 242.074 332.948 228.992V228.992ZM284.712 120.547C284.657 134.346 287.454 148.007 292.929 160.671C298.404 173.336 306.437 184.729 316.524 194.135L323.468 200.667L307.626 218.443C315.878 216.767 323.065 212.299 326.709 209.703L331.71 206.142L337.088 209.1C351.953 217.247 368.629 221.517 385.577 221.515C441.194 221.515 486.442 176.221 486.442 120.547C486.442 64.8727 441.194 19.5782 385.577 19.5782C329.96 19.5782 284.712 64.8727 284.712 120.547V120.547Z" fill="#282828"/>
<path d="M274.933 120.547C274.933 59.377 324.47 9.78906 385.577 9.78906C446.684 9.78906 496.221 59.377 496.221 120.547C496.221 181.717 446.684 231.305 385.577 231.305C366.98 231.332 348.678 226.645 332.379 217.68C324.73 223.127 306.072 233.993 287.64 226.166L309.827 201.269C298.798 190.924 290.009 178.421 284.007 164.535C278.004 150.649 274.916 135.677 274.933 120.547V120.547Z" fill="#DDE1EA"/>
<path opacity="0.1" d="M477.372 120.787C477.372 62.9168 433.033 15.4213 376.507 10.4648C379.73 10.1822 382.99 10.0293 386.287 10.0293C447.393 10.0293 496.93 59.6172 496.93 120.787C496.93 181.957 447.393 231.545 386.287 231.545C382.995 231.545 379.741 231.39 376.523 231.108C433.041 226.144 477.372 178.652 477.372 120.787Z" fill="black"/>
<path d="M130.61 382.858C102.964 382.871 76.153 373.371 54.6709 355.951C33.1888 338.531 18.3409 314.248 12.6157 287.173C6.89038 260.098 10.6356 231.876 23.2237 207.236C35.8117 182.597 56.4777 163.037 81.7581 151.835C107.039 140.633 135.397 138.47 162.081 145.707C188.766 152.945 212.154 169.144 228.326 191.59C244.499 214.036 252.473 241.364 250.912 268.995C249.352 296.625 238.351 322.88 219.754 343.357L244.929 371.607L232.366 376.942C212.932 385.194 193.914 377.164 183.24 370.756C166.835 378.717 148.841 382.854 130.61 382.858V382.858ZM130.61 161.342C74.9934 161.342 29.7456 206.637 29.7456 262.311C29.7456 317.985 74.9934 363.279 130.61 363.279C147.558 363.281 164.234 359.011 179.1 350.864L184.478 347.906L189.478 351.467C193.122 354.063 200.309 358.531 208.561 360.207L192.719 342.431L199.663 335.899C209.75 326.493 217.783 315.1 223.258 302.436C228.733 289.771 231.53 276.11 231.475 262.311C231.475 206.637 186.227 161.342 130.61 161.342V161.342Z" fill="#EF293D"/>
<path d="M241.254 262.311C241.254 201.141 191.717 151.553 130.61 151.553C69.5034 151.553 19.9664 201.141 19.9664 262.311C19.9664 323.481 69.5034 373.069 130.61 373.069C149.208 373.096 167.509 368.409 183.809 359.444C191.457 364.891 210.115 375.757 228.548 367.93L206.36 343.033C217.39 332.688 226.178 320.185 232.181 306.299C238.183 292.413 241.272 277.441 241.254 262.311Z" fill="#DDE1EA"/>
<path opacity="0.1" d="M39.5247 261.751C39.5247 203.881 83.864 156.386 140.389 151.429C137.166 151.147 133.906 150.994 130.61 150.994C69.5033 150.994 19.9664 200.582 19.9664 261.751C19.9664 322.921 69.5033 372.509 130.61 372.509C133.901 372.509 137.156 372.354 140.374 372.072C83.856 367.108 39.5247 319.616 39.5247 261.751Z" fill="black"/>
<path d="M411.552 85.3591C404.312 73.1144 389.99 72.5437 389.99 72.5437C389.99 72.5437 376.034 70.7572 367.081 89.406C358.736 106.788 347.22 123.571 365.227 127.64L368.48 117.506L370.494 128.395C373.058 128.579 375.63 128.623 378.199 128.526C397.483 127.903 415.849 128.709 415.258 121.782C414.471 112.573 418.517 97.1409 411.552 85.3591Z" fill="#2F2E41"/>
<path d="M364.199 192.592C363.986 193.938 363.678 195.268 363.275 196.571C362.822 197.846 362.123 199.025 361.709 200.314C360.389 204.42 362.219 208.999 365.142 212.168C367.677 214.906 370.949 216.851 374.564 217.769C377.225 218.339 379.94 218.625 382.661 218.621C390.187 218.876 397.906 219.105 405.037 216.684C407.29 215.9 409.466 214.91 411.538 213.727C412.192 213.415 412.768 212.961 413.224 212.398C413.702 211.573 413.915 210.621 413.833 209.67C413.817 206.477 413.17 203.299 413.324 200.11C413.409 198.343 413.739 196.577 413.577 194.816C413.352 192.815 412.514 190.933 411.18 189.427C409.845 187.921 408.078 186.865 406.121 186.403C404.098 185.968 402 186.205 399.94 186.404C394.594 186.918 389.226 187.158 383.855 187.124C378.368 187.089 372.915 186.25 367.455 186.162C365.84 186.137 365.873 186.635 365.359 188.199C364.885 189.639 364.498 191.106 364.199 192.592V192.592Z" fill="#2F2E41"/>
<path d="M379.771 113.734C379.507 115.117 379.222 116.549 378.393 117.685C377.438 118.992 375.882 119.738 374.855 120.989C373.309 122.872 373.22 125.521 373.214 127.957C373.208 130.202 373.253 132.597 374.504 134.46C375.394 135.618 376.499 136.592 377.757 137.331C382.447 140.495 387.515 143.716 393.17 143.82C395.512 143.863 398.025 143.258 399.566 141.491C400.232 140.661 400.755 139.727 401.115 138.725C402.561 135.158 403.437 131.384 403.712 127.544C403.92 125.739 403.752 123.91 403.218 122.173C402.531 120.256 401.142 118.678 400.224 116.861C399.139 114.699 398.742 112.257 399.087 109.862C399.132 109.694 399.118 109.515 399.047 109.355C398.971 109.27 398.877 109.203 398.772 109.161C398.666 109.118 398.552 109.1 398.439 109.109L387.227 108.301C386.182 108.249 385.143 108.13 384.114 107.944C383.509 107.821 381.913 106.962 381.337 107.19C380.27 107.613 379.99 112.588 379.771 113.734Z" fill="#A0616A"/>
<path opacity="0.1" d="M379.771 114.085C379.507 115.467 379.222 116.9 378.393 118.036C377.438 119.342 375.882 120.089 374.855 121.34C373.309 123.222 373.22 125.871 373.214 128.308C373.208 130.553 373.253 132.947 374.504 134.811C375.394 135.968 376.499 136.943 377.757 137.682C382.447 140.846 387.515 144.066 393.17 144.171C395.512 144.214 398.025 143.608 399.566 141.842C400.232 141.012 400.755 140.077 401.115 139.076C402.561 135.508 403.437 131.735 403.712 127.895C403.92 126.089 403.752 124.261 403.218 122.524C402.531 120.607 401.142 119.029 400.224 117.211C399.139 115.05 398.742 112.607 399.087 110.213C399.132 110.044 399.118 109.865 399.047 109.706C398.971 109.621 398.877 109.554 398.772 109.511C398.666 109.468 398.552 109.451 398.439 109.459L387.227 108.651C386.182 108.599 385.143 108.48 384.114 108.295C383.509 108.172 381.913 107.312 381.337 107.541C380.27 107.964 379.99 112.939 379.771 114.085Z" fill="black"/>
<path d="M390.493 115.239C399.578 115.239 406.942 107.867 406.942 98.7733C406.942 89.6793 399.578 82.3071 390.493 82.3071C381.409 82.3071 374.044 89.6793 374.044 98.7733C374.044 107.867 381.409 115.239 390.493 115.239Z" fill="#A0616A"/>
<path d="M382.078 135.653C382.891 136.595 383.87 137.379 384.967 137.964C386.111 138.438 387.339 138.672 388.577 138.652C391.542 138.736 394.756 138.192 396.819 136.058C399.478 133.307 399.39 128.871 401.474 125.662C401.642 125.371 401.872 125.12 402.146 124.926C402.496 124.736 402.891 124.645 403.288 124.663C405.92 124.639 408.213 126.348 410.283 127.976C411.257 128.647 412.092 129.5 412.745 130.487C413.154 131.286 413.434 132.145 413.575 133.032C414.602 138.05 414.934 143.181 415.264 148.292C415.447 151.116 415.629 153.942 415.615 156.771C415.571 166.092 413.407 175.257 411.254 184.326C410.977 185.494 410.597 186.8 409.536 187.36C409.063 187.573 408.555 187.697 408.037 187.726C401.872 188.451 395.695 189.177 389.489 189.272C387.067 189.31 384.646 189.251 382.226 189.096C381.81 189.091 381.397 189.019 381.003 188.883C380.469 188.626 380.009 188.235 379.669 187.749C376.312 183.514 376.114 177.66 376.136 172.254C376.188 159.038 376.66 145.831 377.551 132.636C377.624 131.547 377.641 130.224 376.857 129.367C378.383 131.632 380.132 133.738 382.078 135.653V135.653Z" fill="white"/>
<path d="M378.594 116.641C378.038 117.648 373.942 120.148 373.152 120.982C368.734 125.644 360.67 125.469 356.629 130.462C355.208 132.219 354.469 134.426 353.926 136.62C353.157 139.724 352.747 143.109 354.034 146.035C355.273 148.851 357.88 150.798 359.65 153.313C361.593 156.075 362.467 159.429 363.304 162.701C363.923 165.118 364.546 167.594 364.305 170.076C364.031 172.899 362.667 175.484 361.861 178.203C361.056 180.922 360.917 184.16 362.779 186.297C364.148 187.867 366.295 188.489 368.346 188.839C370.974 189.234 373.624 189.465 376.281 189.531C378.627 189.634 381.212 189.654 383.015 188.149C384.438 186.962 385.056 185.034 385.136 183.182C385.216 181.329 384.831 179.493 384.59 177.654C384.34 175.748 384.244 173.825 384.163 171.905C383.803 163.287 383.753 154.663 384.016 146.034C384.148 144.241 384.06 142.438 383.754 140.666C383.251 138.357 382.005 136.295 380.965 134.174C378.887 130.179 377.945 125.689 378.244 121.196C378.559 116.577 380.571 113.059 378.594 116.641Z" fill="white"/>
<path d="M401.693 116.991C402.539 117.862 405.414 118.149 406.491 118.71C407.503 119.178 408.56 119.544 409.645 119.803C413.572 120.937 417.306 122.653 420.725 124.894C421.436 125.31 422.064 125.853 422.578 126.496C423.12 127.378 423.47 128.366 423.603 129.393C424.13 132.007 424.66 134.652 424.542 137.316C424.416 140.143 423.565 142.881 422.721 145.583L419.567 155.676C417.213 163.21 414.844 170.818 414.182 178.683C413.815 183.043 413.978 187.431 414.667 191.751C414.732 191.961 414.751 192.183 414.724 192.401C414.696 192.619 414.623 192.829 414.508 193.017C414.3 193.222 414.027 193.348 413.736 193.372C412.213 193.611 410.74 192.834 409.361 192.146C405.146 190.046 400.647 188.573 396.008 187.772C397.821 185.149 399.22 182.263 400.155 179.214C400.686 177.277 401.105 175.312 401.408 173.327L402.875 164.833C403.472 161.729 403.892 158.592 404.134 155.44C404.245 154.257 404.176 153.064 403.93 151.902C403.592 150.796 403.143 149.726 402.59 148.711C400.172 143.676 399.037 137.931 399.989 132.426C400.405 130.017 401.214 127.605 400.877 125.184C400.552 122.856 400.89 121.047 400.293 118.743C397.843 109.284 400.101 115.353 401.693 116.991Z" fill="white"/>
<path d="M356.587 138.422C355.485 140.711 353.642 142.662 353.015 145.125C352.771 146.276 352.666 147.453 352.704 148.629C352.595 150.401 352.77 152.18 353.223 153.897C353.573 154.983 354.142 155.985 354.553 157.05C355.125 158.537 355.379 160.128 355.301 161.72C355.19 163.926 354.441 166.067 354.383 168.274C354.291 171.746 355.895 175.01 357.46 178.109C357.854 177.132 358.457 176.254 359.225 175.534C359.994 174.815 360.91 174.273 361.91 173.945C362.91 173.617 363.969 173.512 365.014 173.637C366.059 173.762 367.064 174.114 367.958 174.668C368.317 174.228 368.487 173.663 368.431 173.098C368.547 169.07 368.659 165.042 368.766 161.014C368.936 154.785 369.097 148.472 367.665 142.408C367.019 139.669 366.014 136.942 364.17 134.818C363.199 133.7 359.904 130.754 358.31 132.007C357.593 132.57 357.761 134.104 357.647 134.88C357.476 136.108 357.118 137.302 356.587 138.422V138.422Z" fill="white"/>
<path d="M424.864 131.824C425.307 133.475 425.497 135.184 425.427 136.892C425.448 140.374 425.402 143.855 425.289 147.336C425.306 149.121 425.078 150.901 424.611 152.624C424.255 153.744 423.706 154.795 423.338 155.912C422.236 159.259 422.838 162.888 422.933 166.411C422.999 167.551 422.902 168.695 422.644 169.807C422.063 171.991 420.5 173.756 419.409 175.735C418.374 177.614 417.749 179.72 416.512 181.473C415.275 183.227 413.133 184.616 411.057 184.078C409.485 183.67 408.367 182.276 407.594 180.846C405.908 177.701 405.331 174.078 405.957 170.564C406.733 166.288 409.242 162.496 410.147 158.246C411.389 152.409 409.501 146.387 409.557 140.42C409.531 139.485 409.658 138.551 409.932 137.657C410.407 136.294 411.426 135.205 412.368 134.112C413.544 132.746 414.637 131.31 415.641 129.812C416.315 128.806 417.231 126.217 418.426 126.002C421.094 125.521 424.202 129.76 424.864 131.824Z" fill="white"/>
<path d="M342.742 189.996C341.266 189.625 339.746 189.463 338.225 189.515C336.628 189.604 335.067 190.032 333.648 190.771C332.228 191.509 330.982 192.542 329.992 193.801C329.002 195.059 328.291 196.514 327.906 198.069C327.521 199.623 327.472 201.242 327.76 202.818C328.129 204.524 328.731 206.171 329.55 207.713C330.748 210.146 332.184 212.574 334.401 214.133C335.737 214.99 337.176 215.676 338.683 216.173L350.362 220.577C352.08 221.225 353.798 221.873 355.533 222.474C364.25 225.49 373.337 227.299 382.544 227.849C385.345 228.112 388.17 227.969 390.93 227.424C391.598 227.337 392.209 227.006 392.648 226.495C392.87 226.107 393.002 225.673 393.032 225.226L393.75 220.19C393.911 219.489 393.89 218.758 393.689 218.067C393.36 217.221 392.535 216.688 391.748 216.236C384.07 211.822 375.106 209.386 368.643 203.328C367.122 201.902 365.848 199.641 364 198.672C361.904 197.573 359.435 196.946 357.269 195.934C352.532 193.721 347.875 191.177 342.742 189.996Z" fill="#2F2E41"/>
<path opacity="0.1" d="M354.401 196.786C358.529 198.08 375.957 207.051 378.944 210.183C378.544 210.327 364.958 202.706 364.551 202.583C360.814 201.556 357.155 200.265 353.6 198.721C352.892 198.393 349.001 196.852 349.177 195.958C349.376 194.949 353.668 196.556 354.401 196.786Z" fill="black"/>
<path d="M405.899 230.461C406.133 230.478 406.365 230.41 406.553 230.268C406.635 230.163 406.696 230.042 406.731 229.912C406.766 229.783 406.775 229.648 406.757 229.515L406.738 222.654C404.767 221.714 402.563 221.412 400.399 221.123L390.302 219.772C390.534 219.803 388.724 224.125 389.001 224.702C389.491 225.719 393.23 226.62 394.285 227.101C397.954 228.77 401.766 230.605 405.899 230.461Z" fill="#A0616A"/>
<path d="M374.221 222.63C372.315 222.934 370.187 223.202 368.952 224.688C367.387 226.572 368.053 229.38 368.8 231.714C368.846 232.015 368.951 232.304 369.11 232.564C369.269 232.823 369.479 233.048 369.726 233.226C369.974 233.403 370.254 233.528 370.551 233.595C370.848 233.662 371.155 233.669 371.455 233.614C373.193 233.725 375.043 233.811 376.562 232.957C377.25 232.502 377.913 232.009 378.547 231.481C379.667 230.735 380.898 230.171 382.195 229.811C384.578 229.061 387.032 228.555 389.517 228.301C390.497 228.256 391.466 228.085 392.402 227.792C392.869 227.641 393.296 227.384 393.648 227.042C394 226.7 394.269 226.28 394.433 225.817C394.785 224.57 394.061 223.299 393.367 222.206C392.567 220.774 391.529 219.489 390.297 218.407C388.415 216.944 387.485 218.067 385.59 219.003C382.003 220.775 378.171 221.998 374.221 222.63V222.63Z" fill="#A0616A"/>
<path d="M369.239 224.349L357.135 220.767C355.683 220.261 354.166 219.967 352.63 219.894C351.861 219.862 351.095 219.995 350.381 220.284C349.668 220.573 349.024 221.011 348.493 221.568C347.555 222.671 347.286 224.178 347.052 225.608L346.552 228.666C346.218 230.208 346.123 231.792 346.271 233.363C346.352 234.148 346.61 234.905 347.027 235.575C347.444 236.246 348.008 236.812 348.676 237.232C350.351 238.147 352.404 237.7 354.273 237.317C358.049 236.544 361.89 236.132 365.744 236.086C367.193 236.068 368.713 236.087 369.993 235.407C370.736 234.966 371.36 234.35 371.811 233.613C372.263 232.875 372.527 232.039 372.582 231.176C372.82 228.563 371.95 225.151 369.239 224.349Z" fill="#2F2E41"/>
<path d="M410.657 221.228C412.226 220.953 413.611 220.06 415.114 219.533C417.231 218.791 419.524 218.791 421.766 218.799C422.591 218.724 423.419 218.89 424.151 219.278C425.139 219.936 425.392 221.253 425.56 222.429L426.573 229.523C426.844 230.847 426.872 232.209 426.656 233.542C426.359 234.857 425.464 236.124 424.16 236.464C422.578 236.876 421.026 235.863 419.531 235.199C415.796 233.537 411.454 233.961 407.559 232.719C407.187 232.645 406.835 232.492 406.526 232.271C406.217 232.05 405.959 231.765 405.768 231.437C405.634 231.043 405.587 230.625 405.628 230.211C405.695 227.931 405.214 224.817 405.9 222.637C406.517 220.677 408.905 221.228 410.657 221.228Z" fill="#2F2E41"/>
<path d="M436.272 187.141C438.691 186.534 441.198 186.362 443.677 186.634C445.656 186.853 447.696 187.404 449.141 188.775C450.9 190.445 451.465 193.027 451.513 195.453C451.59 200.285 449.989 204.993 446.983 208.775C446.249 209.732 445.376 210.573 444.394 211.27C443.333 211.934 442.204 212.479 441.024 212.896L414.871 223.222C407.99 225.939 401.086 228.663 393.909 230.454C393.713 230.549 393.5 230.604 393.282 230.615C393.065 230.626 392.847 230.593 392.642 230.519C392.437 230.444 392.249 230.33 392.089 230.182C391.93 230.034 391.801 229.855 391.711 229.656C389.419 226.38 387.497 222.86 385.979 219.16C385.907 219.072 385.857 218.968 385.834 218.857C385.811 218.746 385.815 218.631 385.845 218.521C385.876 218.412 385.932 218.311 386.01 218.228C386.088 218.146 386.184 218.083 386.291 218.045L404.79 207.405C406.146 206.697 407.41 205.825 408.555 204.808C409.354 204.033 410.009 203.12 410.488 202.114C410.871 201.313 410.907 199.421 411.397 198.828C411.876 198.248 413.517 198.202 414.274 197.973C415.343 197.646 416.389 197.25 417.407 196.788C421.545 194.935 425.23 192.242 429.197 190.073C431.422 188.799 433.799 187.814 436.272 187.141V187.141Z" fill="#2F2E41"/>
<path opacity="0.1" d="M425.785 195.086C422.607 197.476 418.492 199.672 415.342 202.125C414.267 202.962 396.346 213.047 396.093 214.387C399.032 214.882 417.751 201.773 420.429 200.465C423.108 199.157 425.482 197.312 427.834 195.481C428.434 195.015 430.975 193.612 429.254 193.091C428.284 192.797 426.501 194.609 425.785 195.086Z" fill="black"/>
<path d="M403.917 117.223H376.019C374.886 117.223 373.799 117.673 372.998 118.476C372.196 119.278 371.746 120.366 371.746 121.501V123.067H371.443V126.571H371.746V129.023H371.443V131.125H371.746V156.975C371.746 158.11 372.196 159.198 372.998 160C373.799 160.803 374.886 161.253 376.019 161.253H403.917C405.051 161.253 406.138 160.803 406.939 160C407.741 159.198 408.191 158.11 408.191 156.975V121.501C408.191 120.366 407.741 119.278 406.939 118.476C406.138 117.673 405.051 117.223 403.917 117.223V117.223Z" fill="#D0CDE1"/>
<path d="M408.351 84.1789L394.202 76.7593L374.661 79.7946L370.619 97.6687L380.682 97.2807L383.493 90.7144V97.173L388.137 96.9942L390.832 86.5392L392.517 97.6687L409.025 97.3312L408.351 84.1789Z" fill="#2F2E41"/>
<path d="M360.289 184.826C360.929 185.915 361.839 186.821 362.93 187.456C363.646 187.783 364.428 187.943 365.215 187.921C366.002 187.9 366.773 187.699 367.471 187.334C368.864 186.586 370.004 185.442 370.747 184.046C372.285 181.327 372.604 178.075 372.412 174.957C372.22 171.839 371.555 168.768 371.26 165.658C371.046 163.398 371.029 161.123 371.012 158.853C370.959 158.375 371.059 157.893 371.297 157.476C371.709 157.067 372.241 156.801 372.814 156.718C375.918 155.795 377.978 152.883 379.455 149.999C380.441 148.073 381.299 145.968 381.109 143.812C380.918 141.656 379.37 139.484 377.22 139.264C375.447 139.083 373.809 140.21 372.53 141.453C369.304 144.607 367.23 148.756 366.643 153.232C366.362 155.424 366.442 157.675 365.847 159.803C364.575 164.347 360.596 167.132 358.614 171.221C356.429 175.725 357.635 180.84 360.289 184.826Z" fill="#A0616A"/>
<path d="M418.839 167.467C418.387 168.521 417.728 169.473 416.902 170.268C416.075 171.063 415.099 171.684 414.029 172.094C412.699 172.629 411.232 172.719 409.847 172.351C409.16 172.16 408.526 171.813 407.995 171.338C407.464 170.862 407.049 170.27 406.784 169.608C406.572 168.941 406.456 168.247 406.439 167.548C406.24 164.484 406.316 161.326 407.428 158.465C407.857 157.361 408.435 156.314 408.774 155.179C409.106 153.869 409.276 152.522 409.28 151.17L409.646 142.81C409.706 142.203 409.664 141.59 409.522 140.997C409.157 139.788 408.028 139.002 406.992 138.28C404.489 136.538 402.016 134.505 400.803 131.706C400.387 130.863 400.237 129.912 400.376 128.982C400.718 127.322 402.391 126.248 404.045 125.885C405.128 125.649 406.247 125.633 407.335 125.841C408.423 126.049 409.458 126.474 410.378 127.093C411.297 127.712 412.082 128.51 412.685 129.441C413.288 130.371 413.697 131.414 413.886 132.507C414.05 133.45 414.048 134.414 414.143 135.367C414.347 137.388 414.987 139.336 415.388 141.327C416.376 146.232 415.864 151.302 416.841 156.206C417.658 160.306 420.737 162.981 418.839 167.467Z" fill="#A0616A"/>
<path d="M390.342 136.03C392.275 136.03 393.842 134.461 393.842 132.526C393.842 130.591 392.275 129.023 390.342 129.023C388.409 129.023 386.842 130.591 386.842 132.526C386.842 134.461 388.409 136.03 390.342 136.03Z" fill="#EF293D"/>
<path d="M47.7481 278.786L42.548 273.727L32.1061 276.973L33.109 289.076L54.5791 288.078L47.9834 279.107L47.7481 278.786Z" fill="#FBBEBE"/>
<path d="M36.3751 278.682C45.5934 278.682 53.0663 271.202 53.0663 261.974C53.0663 252.746 45.5934 245.266 36.3751 245.266C27.1569 245.266 19.684 252.746 19.684 261.974C19.684 271.202 27.1569 278.682 36.3751 278.682Z" fill="#FBBEBE"/>
<path d="M139.995 300.232C139.995 300.232 160.5 335.507 165.38 340.803C167.701 343.409 170.174 345.876 172.785 348.19C172.785 348.19 170.49 355.808 166.836 355.536C164.754 355.41 162.711 354.907 160.809 354.049C160.809 354.049 159.178 349.817 156.334 347.961C153.489 346.105 130.248 323.218 130.791 315.903C131.335 308.587 139.995 300.232 139.995 300.232Z" fill="#2F2E41"/>
<path d="M66.9688 350.571C66.9688 350.571 88.8321 367.558 118.545 351.596L121.106 349.71C121.106 349.71 116.785 359.441 116.384 362.08C115.919 365.139 104.668 383.058 102.832 383.917C100.996 384.775 100.592 385.567 100.592 385.567L108.383 394.152L111.264 392.03C111.264 392.03 122.496 376.099 125.781 373.185C129.067 370.271 144.719 340.217 144.719 340.217C144.719 340.217 150.704 328.894 135.768 328.042C120.833 327.19 113.96 331.265 113.96 331.265L87.4537 335.48L66.9688 350.571Z" fill="#2F2E41"/>
<path d="M173.039 346.521L184.097 354.181C184.097 354.181 198.205 358.605 189.515 361.55C180.824 364.495 157.923 365.56 157.403 361.497C156.884 357.435 158.307 351.04 159.449 351.39C160.592 351.739 168.521 353.801 173.039 346.521Z" fill="#2F2E41"/>
<path d="M112.242 389.398L114.289 400.65C114.289 400.65 120.109 411.792 113.121 408.335C106.133 404.878 91.7362 391.745 93.8622 388.992C95.9881 386.239 100.68 383.254 101.157 384.151C101.633 385.048 105.16 391.055 112.242 389.398Z" fill="#2F2E41"/>
<path d="M91.156 339.174C91.156 339.174 76.2939 356.543 67.2708 352.324C58.2478 348.105 21.3327 299.234 25.5478 290.201C29.7629 281.169 31.1762 283.091 31.1762 283.091L50.2366 284.856L44.7524 276.054C44.7524 276.054 47.313 274.167 49.753 276.815C52.1931 279.463 61.9893 286.076 65.402 295.417C68.8147 304.757 78.834 304.291 78.834 304.291L91.156 339.174Z" fill="white"/>
<path d="M151.174 303.357L125.411 330.733L102.332 289.944L124.272 263.409L151.174 303.357Z" fill="#3F3D56"/>
<path d="M149.229 303.06L125.961 327.117L104.875 290.046L124.212 265.676L149.229 303.06Z" fill="white"/>
<path d="M124.149 329.687L125.411 330.732L124.602 332.316L88.5772 343.049L88.2366 341.814L89.8755 340.117L124.149 329.687Z" fill="#B3B3B3"/>
<path d="M125.731 330.497L88.4266 342.172L65.6863 299.159L102.332 289.944L125.731 330.497Z" fill="#D0CDE1"/>
<path d="M122.923 324.663L121.322 325.842L103.559 294.968L105.395 294.109L122.923 324.663Z" fill="#3F3D56"/>
<path d="M119.25 326.379L103.47 331.09L85.5558 299.339L101.167 295.742L119.25 326.379Z" fill="#3F3D56"/>
<path d="M74.7936 302.822L78.0608 301.897C78.0608 301.897 96.2816 299.835 96.5476 305.566C96.8136 311.297 75.6152 308.638 75.6152 308.638L72.7886 304.793L74.7936 302.822Z" fill="#FBBEBE"/>
<path d="M90.775 328.588L95.3226 326.72C95.3226 326.72 109.05 320.559 105.112 316.545C101.174 312.53 89.0292 319.502 89.0292 319.502L86.7041 321.708L90.775 328.588Z" fill="#FBBEBE"/>
<path d="M86.7221 319.719C86.7221 319.719 94.1268 327.106 92.4419 328.842C90.757 330.577 63.1278 353.4 56.2788 346.097C49.4298 338.795 16.0604 302.13 29.045 298.985C42.0295 295.841 45.4602 303.192 45.4602 303.192L62.6014 332.549L86.7221 319.719Z" fill="white"/>
<path d="M64.5506 297.279L76.7138 301.408L76.5152 310.198L63.6512 308.808L64.5506 297.279Z" fill="white"/>
<path opacity="0.2" d="M75.5134 324.272L62.4084 331.951L47.4355 308.899L61.8886 327.888L75.5134 324.272Z" fill="black"/>
<path d="M136.413 305.093L122.5 284.719L128.398 277.41L142.855 298.372L136.413 305.093Z" fill="#EF293D"/>
<path d="M136.021 313.284L114.84 282.459L115.884 281.195L136.967 312.093L136.021 313.284Z" fill="#E6E6E6"/>
<path d="M133.292 316.283L112.11 285.458L113.155 284.194L134.238 315.093L133.292 316.283Z" fill="#E6E6E6"/>
<path d="M130.967 318.49L109.785 287.664L110.83 286.401L131.912 317.299L130.967 318.49Z" fill="#E6E6E6"/>
<path d="M122.521 236.376L121.407 236.292C121.363 236.872 121.332 237.456 121.296 238.038L116.294 237.87L121.541 247.712L127.433 238.244L122.413 238.075C122.449 237.509 122.479 236.941 122.521 236.376Z" fill="#3F3D56"/>
<path d="M151.859 156.15L152.747 156.829C154.08 155.082 155.472 153.338 156.884 151.645L156.026 150.928C154.603 152.633 153.201 154.39 151.859 156.15Z" fill="#3F3D56"/>
<path d="M160.42 145.894L161.245 146.649C162.727 145.023 164.267 143.409 165.82 141.85L165.028 141.061C163.464 142.631 161.913 144.257 160.42 145.894Z" fill="#3F3D56"/>
<path d="M169.844 136.435L170.6 137.259C172.222 135.768 173.896 134.296 175.576 132.883L174.857 132.026C173.165 133.45 171.478 134.933 169.844 136.435Z" fill="#3F3D56"/>
<path d="M144.23 167.126L145.175 167.724C146.35 165.863 147.583 164.002 148.841 162.192L147.924 161.553C146.656 163.377 145.414 165.252 144.23 167.126Z" fill="#3F3D56"/>
<path d="M180.058 127.844L180.739 128.731C182.485 127.388 184.282 126.07 186.078 124.811L185.438 123.895C183.627 125.163 181.818 126.491 180.058 127.844Z" fill="#3F3D56"/>
<path d="M137.599 178.738L138.592 179.25C139.599 177.29 140.664 175.326 141.757 173.413L140.786 172.857C139.685 174.785 138.613 176.763 137.599 178.738Z" fill="#3F3D56"/>
<path d="M126.819 210.229L125.737 209.95C125.184 212.096 124.673 214.285 124.217 216.456L125.31 216.687C125.763 214.532 126.271 212.359 126.819 210.229Z" fill="#3F3D56"/>
<path d="M190.984 120.188L191.584 121.132C193.436 119.952 195.341 118.798 197.245 117.701L196.687 116.731C194.769 117.837 192.85 119 190.984 120.188Z" fill="#3F3D56"/>
<path d="M124.09 223.205L122.987 223.024C122.629 225.208 122.314 227.433 122.051 229.639L123.161 229.771C123.421 227.583 123.734 225.373 124.09 223.205Z" fill="#3F3D56"/>
<path d="M132.02 190.9L133.055 191.321C133.884 189.279 134.771 187.227 135.69 185.223L134.675 184.756C133.748 186.776 132.855 188.843 132.02 190.9Z" fill="#3F3D56"/>
<path d="M127.544 203.518L128.613 203.845C129.257 201.734 129.958 199.61 130.695 197.532L129.641 197.158C128.899 199.251 128.193 201.391 127.544 203.518Z" fill="#3F3D56"/>
<path d="M266.585 97.8893C268.776 97.8134 271.007 97.7831 273.214 97.8038L273.224 96.6851C271.002 96.6643 268.754 96.6946 266.547 96.7711L266.585 97.8893Z" fill="#3F3D56"/>
<path d="M202.536 113.531L203.05 114.524C205.002 113.511 207 112.531 208.989 111.608L208.519 110.593C206.515 111.522 204.502 112.511 202.536 113.531Z" fill="#3F3D56"/>
<path d="M293.031 99.2841C295.211 99.593 297.412 99.9547 299.571 100.359L299.776 99.2595C297.601 98.852 295.384 98.4874 293.187 98.1763L293.031 99.2841Z" fill="#3F3D56"/>
<path d="M306.057 101.724C308.198 102.224 310.357 102.781 312.476 103.377L312.778 102.3C310.644 101.699 308.468 101.139 306.312 100.635L306.057 101.724Z" fill="#3F3D56"/>
<path d="M318.813 105.314C320.9 106.003 323.002 106.749 325.059 107.532L325.456 106.487C323.383 105.698 321.266 104.946 319.164 104.251L318.813 105.314Z" fill="#3F3D56"/>
<path d="M279.84 98.0068C282.04 98.1223 284.264 98.2884 286.45 98.4998L286.558 97.3865C284.356 97.1732 282.115 97.006 279.899 96.8896L279.84 98.0068Z" fill="#3F3D56"/>
<path d="M253.242 97.8179L253.379 98.9285C255.557 98.6602 257.774 98.4365 259.97 98.2639L259.883 97.1484C257.67 97.3224 255.436 97.5478 253.242 97.8179Z" fill="#3F3D56"/>
<path d="M227.17 103.415L227.501 104.483C229.601 103.833 231.744 103.22 233.871 102.663L233.589 101.581C231.446 102.142 229.286 102.759 227.17 103.415Z" fill="#3F3D56"/>
<path d="M214.624 107.926L215.048 108.961C217.08 108.126 219.156 107.327 221.217 106.586L220.84 105.533C218.762 106.28 216.671 107.085 214.624 107.926Z" fill="#3F3D56"/>
<path d="M240.082 100.035L240.316 101.129C242.464 100.668 244.653 100.249 246.823 99.8833L246.638 98.7798C244.451 99.1485 242.245 99.5708 240.082 100.035Z" fill="#3F3D56"/>
<path d="M341.735 114.449L335.489 105.21L333.293 109.735C332.761 109.497 332.233 109.255 331.702 109.024L331.258 110.051C331.776 110.276 332.289 110.512 332.804 110.742L330.619 115.245L341.735 114.449Z" fill="#3F3D56"/>
<path d="M21.8248 266.379L21.4479 272.764C21.4479 272.764 16.7821 262.287 16.059 251.518C15.3359 240.749 27.6283 238.595 34.8591 237.877C42.0898 237.159 54.3822 242.185 54.3822 247.928C54.3822 253.672 41.3668 252.236 36.3052 250.8C31.2437 249.364 29.0744 261.57 29.0744 261.57L26.1821 262.288L21.8248 266.379Z" fill="#2F2E41"/>
</svg>
