<svg width="366" height="393" viewBox="0 0 366 393" fill="none" xmlns="http://www.w3.org/2000/svg">
<g clip-path="url(#clip0_1103:49175)">
<path d="M255.802 242.156L252.981 259.767C252.805 260.87 252.388 261.921 251.761 262.846C251.134 263.771 250.311 264.547 249.352 265.119C248.392 265.691 247.318 266.045 246.207 266.157C245.095 266.269 243.973 266.135 242.919 265.765V265.765C241.87 265.398 240.914 264.805 240.118 264.03C239.322 263.254 238.705 262.314 238.31 261.275C237.914 260.236 237.75 259.124 237.83 258.015C237.909 256.906 238.229 255.828 238.768 254.856L247.945 238.298L283.421 167.413C284.818 165.056 286.955 163.227 289.499 162.212C292.043 161.197 294.851 161.053 297.486 161.803L301.245 162.872L295.655 179.269L255.802 242.156Z" fill="#A0616A"/>
<path d="M353.703 365.963L362.008 365.525L352.829 334.919L339.716 337.542L353.703 365.963Z" fill="#A0616A"/>
<path d="M270.658 371.648H279.837L284.645 341.915H270.658V371.648Z" fill="#A0616A"/>
<path d="M285.207 120.491C285.207 127.018 287.781 133.281 292.37 137.92C296.958 142.56 303.191 145.201 309.715 145.27C316.239 145.339 322.526 142.831 327.213 138.29C331.899 133.749 334.604 127.542 334.743 121.017C334.75 120.844 334.75 120.664 334.75 120.491C334.752 117.236 334.112 114.012 332.868 111.005C331.624 107.997 329.799 105.264 327.499 102.961C325.198 100.659 322.467 98.8327 319.461 97.5866C316.455 96.3406 313.233 95.6992 309.979 95.6992C306.725 95.6992 303.503 96.3406 300.496 97.5866C297.49 98.8327 294.759 100.659 292.459 102.961C290.158 105.264 288.334 107.997 287.09 111.005C285.845 114.012 285.206 117.236 285.207 120.491Z" fill="#2F2E41"/>
<path d="M320.489 106.974C327.536 106.974 333.25 101.259 333.25 94.2084C333.25 87.1582 327.536 81.4429 320.489 81.4429C313.441 81.4429 307.728 87.1582 307.728 94.2084C307.728 101.259 313.441 106.974 320.489 106.974Z" fill="#2F2E41"/>
<path d="M319.157 103.967C321.62 104.868 324.3 104.987 326.834 104.309C329.367 103.631 331.629 102.189 333.314 100.179C334.998 98.1687 336.023 95.6881 336.248 93.0747C336.473 90.4612 335.887 87.8419 334.571 85.5732C335.776 86.8973 336.689 88.4602 337.25 90.1603C337.812 91.8605 338.01 93.6598 337.831 95.4413C337.651 97.2229 337.1 98.9468 336.211 100.501C335.322 102.055 334.116 103.405 332.672 104.463C331.228 105.52 329.577 106.262 327.828 106.639C326.078 107.017 324.268 107.022 322.517 106.654C320.765 106.287 319.11 105.554 317.66 104.505C316.21 103.455 314.996 102.113 314.099 100.563C315.484 102.092 317.22 103.261 319.157 103.967V103.967Z" fill="#2F2E41"/>
<path d="M308.025 147.693C315.929 147.693 322.337 141.283 322.337 133.375C322.337 125.468 315.929 119.058 308.025 119.058C300.12 119.058 293.712 125.468 293.712 133.375C293.712 141.283 300.12 147.693 308.025 147.693Z" fill="#A0616A"/>
<path d="M318.301 138.6C318.301 138.6 319.612 155.215 327.916 158.713L295.573 188.445L285.083 183.636L292.513 162.648C292.513 162.648 309.559 159.15 302.566 143.847L318.301 138.6Z" fill="#A0616A"/>
<path d="M263.227 344.539L286.83 345.85L297.757 263.65L326.167 345.413L354.577 336.231L326.604 242.662C319.402 216.779 325.461 188.334 335.346 159.15L324.419 156.089L299.505 159.587C296.929 159.591 294.401 160.283 292.182 161.591C289.962 162.899 288.132 164.776 286.881 167.028C280.744 178.021 276.306 188.685 279.924 197.795C265.42 235.771 262.292 287.669 263.227 344.539Z" fill="#2F2E41"/>
<path d="M333.16 249.658L327.09 266.428C326.71 267.478 326.565 268.6 326.665 269.713C326.766 270.826 327.109 271.903 327.671 272.869C328.233 273.835 329 274.665 329.918 275.302C330.836 275.939 331.882 276.367 332.983 276.555V276.555C334.079 276.742 335.202 276.687 336.274 276.395C337.346 276.103 338.342 275.581 339.191 274.864C340.04 274.147 340.723 273.253 341.191 272.245C341.659 271.237 341.902 270.139 341.902 269.027V250.095L345.236 170.892C345.157 168.153 344.174 165.517 342.441 163.396C340.708 161.274 338.322 159.786 335.654 159.163L331.849 158.275L328.789 175.327L333.16 249.658Z" fill="#A0616A"/>
<path d="M356.675 390.266C358.434 390.318 360.158 389.767 361.561 388.704C362.964 387.641 363.961 386.13 364.388 384.422L364.679 383.26C366.069 377.696 365.7 371.838 363.622 366.493L360.697 358.968L351.955 362.903L349.265 381.441C349.109 382.518 349.182 383.616 349.48 384.663C349.777 385.71 350.293 386.682 350.993 387.515C351.692 388.348 352.56 389.024 353.54 389.498C354.519 389.973 355.587 390.234 356.675 390.266V390.266Z" fill="#2F2E41"/>
<path d="M256.603 392.041C257.559 392.624 258.649 392.952 259.768 392.995C260.888 393.039 261.999 392.795 262.998 392.288L279.642 382.91C280.722 382.302 281.586 381.373 282.115 380.253C282.644 379.133 282.813 377.876 282.598 376.655L280.712 365.963H270.222L255.23 381.917C254.56 382.631 254.058 383.484 253.759 384.417C253.461 385.349 253.374 386.336 253.506 387.306C253.637 388.276 253.983 389.205 254.519 390.024C255.055 390.843 255.767 391.532 256.603 392.041V392.041Z" fill="#2F2E41"/>
<path d="M285.433 117.15C289.314 126.559 299.343 133.257 311.105 133.257C321.179 133.257 329.984 128.346 334.743 121.017C334.751 120.844 334.751 120.664 334.751 120.491C334.751 114.209 332.365 108.161 328.077 103.571C323.789 98.9815 317.919 96.1922 311.653 95.7676C305.387 95.3431 299.194 97.315 294.327 101.284C289.459 105.254 286.28 110.925 285.433 117.15V117.15Z" fill="#2F2E41"/>
<g filter="url(#filter0_d_1103:49175)">
<mask id="mask0_1103:49175" style="mask-type:alpha" maskUnits="userSpaceOnUse" x="141" y="11" width="139" height="139">
<path d="M279.717 80.5003C279.711 65.3214 274.72 50.5648 265.513 38.5C256.305 26.4353 243.39 17.7306 228.755 13.7248C214.119 9.71904 198.573 10.634 184.508 16.3289C170.443 22.0239 158.638 32.1834 150.908 45.245C143.178 58.3066 139.952 73.5468 141.725 88.6217C143.498 103.697 150.173 117.771 160.723 128.681C171.273 139.591 185.113 146.731 200.116 149.005C215.118 151.278 230.451 148.558 243.758 141.263C248.545 144.67 260.225 151.467 271.763 146.571L257.874 130.996C264.778 124.525 270.28 116.704 274.037 108.017C277.795 99.331 279.728 89.965 279.717 80.5003Z" fill="#EF293D"/>
</mask>
<g mask="url(#mask0_1103:49175)">
<path fill-rule="evenodd" clip-rule="evenodd" d="M105.933 -2.42529H402.314V9.57218H105.933V-2.42529ZM105.933 21.5696H402.314V33.5671H105.933V21.5696ZM105.933 45.5341H402.314V57.5621H105.933V45.5341ZM105.933 69.5291H402.314V81.5266H105.933V69.5291ZM105.933 93.524H402.314V105.521H105.933V93.524ZM105.933 117.489H402.314V129.486H105.933V117.489ZM105.933 141.483H402.314V153.481H105.933V141.483Z" fill="#BD3D44"/>
<path fill-rule="evenodd" clip-rule="evenodd" d="M105.933 9.57227H402.315V21.5697H105.933V9.57227ZM105.933 33.5672H402.315V45.5342H105.933V33.5672ZM105.933 57.5317H402.315V69.5292H105.933V57.5317ZM105.933 81.5266H402.315V93.5241H105.933V81.5266ZM105.933 105.522H402.315V117.519H105.933V105.522ZM105.933 129.486H402.315V141.484H105.933V129.486Z" fill="white"/>
<path fill-rule="evenodd" clip-rule="evenodd" d="M105.933 -2.42529H224.479V81.5265H105.933V-2.42529Z" fill="#192F5D"/>
<path fill-rule="evenodd" clip-rule="evenodd" d="M115.805 1.16748L116.902 4.48658H120.375L117.572 6.52675L118.638 9.8763L115.805 7.80567L113.002 9.84585L114.068 6.52675L111.235 4.48658H114.769L115.805 1.16748ZM135.578 1.16748L136.644 4.48658H140.148L137.315 6.52675L138.381 9.8763L135.578 7.80567L132.745 9.84585L133.811 6.52675L131.008 4.48658H134.481L135.578 1.16748ZM155.321 1.16748L156.417 4.48658H159.86L157.057 6.52675L158.123 9.8763L155.29 7.80567L152.487 9.84585L153.553 6.52675L150.72 4.48658H154.224L155.321 1.16748ZM175.094 1.16748L176.16 4.48658H179.664L176.83 6.52675L177.927 9.8763L175.094 7.80567L172.26 9.84585L173.357 6.52675L170.524 4.48658H173.997L175.094 1.16748ZM194.836 1.16748L195.933 4.48658H199.406L196.603 6.52675L197.669 9.8763L194.836 7.80567L192.033 9.84585L193.099 6.52675L190.296 4.48658H193.77L194.836 1.16748ZM214.609 1.16748L215.675 4.48658H219.179L216.346 6.52675L217.442 9.8763L214.609 7.80567L211.776 9.84585L212.872 6.52675L210.039 4.48658H213.543L214.609 1.16748ZM125.707 9.5718L126.773 12.8909H130.277L127.443 14.9311L128.479 18.2502L125.737 16.21L122.904 18.2502L123.909 14.9311L121.167 12.8909H124.64L125.707 9.5718ZM145.449 9.5718L146.546 12.8909H150.019L147.186 14.9311L148.283 18.2502L145.449 16.21L142.616 18.2502L143.713 14.9311L140.879 12.8909H144.383L145.449 9.5718ZM165.222 9.5718L166.289 12.8909H169.792L166.959 14.9311L168.025 18.2502L165.222 16.21L162.389 18.2502L163.455 14.9311L160.652 12.8909H164.125L165.222 9.5718ZM184.965 9.5718L186.062 12.8909H189.535L186.701 14.9311L187.798 18.2502L184.965 16.21L182.162 18.2502L183.228 14.9311L180.395 12.8909H183.929L184.965 9.5718ZM204.738 9.5718L205.804 12.8909H209.308L206.474 14.9311L207.541 18.2502L204.738 16.21L201.904 18.2502L202.971 14.9311L200.168 12.8909H203.641L204.738 9.5718ZM115.805 17.9457L116.902 21.3257H120.375L117.572 23.3658L118.638 26.6849L115.805 24.6143L113.002 26.6849L114.068 23.3354L111.235 21.2952H114.769L115.805 17.9457ZM135.578 17.9457L136.644 21.2952H140.148L137.315 23.3354L138.381 26.6545L135.578 24.5839L132.745 26.6545L133.811 23.3049L131.008 21.2648H134.481L135.578 17.9457ZM155.321 17.9457L156.417 21.2952H159.86L157.057 23.3354L158.123 26.6545L155.29 24.5839L152.487 26.6545L153.553 23.3049L150.72 21.2648H154.224L155.321 17.9457ZM175.094 17.9457L176.16 21.2952H179.664L176.83 23.3354L177.927 26.6545L175.094 24.5839L172.26 26.6545L173.357 23.3049L170.524 21.2648H173.997L175.094 17.9457ZM194.836 17.9457L195.933 21.2952H199.406L196.603 23.3354L197.669 26.6545L194.836 24.5839L192.033 26.6545L193.099 23.3049L190.296 21.2648H193.77L194.836 17.9457ZM214.609 17.9457L215.675 21.2952H219.179L216.346 23.3354L217.442 26.6545L214.609 24.5839L211.776 26.6545L212.872 23.3049L210.039 21.2648H213.543L214.609 17.9457ZM125.707 26.35L126.773 29.6691H130.277L127.443 31.7093L128.51 35.0588L125.707 32.9882L122.873 35.0283L123.94 31.7093L121.137 29.6691H124.61L125.707 26.35ZM145.449 26.35L146.546 29.6691H150.019L147.186 31.7093L148.283 35.0588L145.449 32.9882L142.616 35.0283L143.713 31.7093L140.879 29.6691H144.383L145.449 26.35ZM165.222 26.35L166.289 29.6691H169.792L166.959 31.7093L168.025 35.0588L165.222 32.9882L162.389 35.0283L163.455 31.7093L160.652 29.6691H164.125L165.222 26.35ZM184.965 26.35L186.062 29.6691H189.535L186.732 31.7093L187.798 35.0588L184.965 32.9882L182.162 35.0283L183.228 31.7093L180.395 29.6691H183.929L184.965 26.35ZM204.738 26.35L205.804 29.6691H209.308L206.474 31.7093L207.541 35.0588L204.738 32.9882L201.904 35.0283L202.971 31.7093L200.168 29.6691H203.641L204.738 26.35ZM115.805 34.7543L116.902 38.0734H120.375L117.572 40.1136L118.638 43.4631L115.805 41.3925L113.002 43.4327L114.068 40.1136L111.235 38.0734H114.769L115.805 34.7543ZM135.578 34.7543L136.644 38.0734H140.148L137.315 40.1136L138.381 43.4327L135.578 41.3925L132.745 43.4327L133.811 40.1136L131.008 38.0734H134.481L135.578 34.7543ZM155.321 34.7543L156.417 38.0734H159.86L157.057 40.1136L158.123 43.4631L155.29 41.3925L152.487 43.4327L153.553 40.1136L150.72 38.0734H154.224L155.321 34.7543ZM175.094 34.7543L176.16 38.0734H179.664L176.83 40.1136L177.927 43.4631L175.094 41.3925L172.26 43.4327L173.357 40.1136L170.524 38.0734H173.997L175.094 34.7543ZM194.836 34.7543L195.933 38.0734H199.406L196.603 40.1136L197.669 43.4631L194.836 41.3925L192.033 43.4327L193.099 40.1136L190.296 38.0734H193.77L194.836 34.7543ZM214.609 34.7543L215.675 38.0734H219.179L216.346 40.1136L217.442 43.4631L214.609 41.3925L211.776 43.4327L212.872 40.1136L210.039 38.0734H213.543L214.609 34.7543ZM125.707 43.1586L126.773 46.4777H130.277L127.443 48.5179L128.51 51.837L125.707 49.7664L122.873 51.837L123.94 48.4874L121.137 46.4473H124.61L125.707 43.1586ZM145.449 43.1586L146.546 46.4777H150.019L147.186 48.5179L148.283 51.837L145.449 49.7664L142.616 51.837L143.713 48.4874L140.879 46.4473H144.383L145.449 43.1586ZM165.222 43.1586L166.289 46.4777H169.792L166.959 48.5179L168.025 51.837L165.222 49.7664L162.389 51.837L163.455 48.4874L160.652 46.4473H164.125L165.222 43.1586ZM184.965 43.1586L186.062 46.4777H189.535L186.732 48.5179L187.798 51.837L184.965 49.7664L182.162 51.837L183.228 48.4874L180.395 46.4473H183.929L184.965 43.1586ZM204.738 43.1586L205.804 46.4777H209.308L206.474 48.5179L207.541 51.837L204.738 49.7664L201.904 51.837L202.971 48.4874L200.168 46.4473H203.641L204.738 43.1586ZM115.805 51.5325L116.902 54.882H120.375L117.572 56.9222L118.638 60.2108L115.805 58.1707L113.002 60.2108L114.068 56.8918L111.235 54.8516H114.769L115.805 51.5325ZM135.578 51.5325L136.644 54.882H140.148L137.315 56.9222L138.411 60.2108L135.578 58.1707L132.745 60.2108L133.841 56.8918L131.008 54.8516H134.481L135.578 51.5325ZM155.321 51.5325L156.417 54.882H159.86L157.057 56.9222L158.123 60.2108L155.29 58.1707L152.487 60.2108L153.553 56.8918L150.72 54.8516H154.224L155.321 51.5325ZM175.094 51.5325L176.16 54.882H179.664L176.83 56.9222L177.927 60.2108L175.094 58.1707L172.26 60.2108L173.357 56.8918L170.524 54.8516H173.997L175.094 51.5325ZM194.836 51.5325L195.933 54.882H199.406L196.603 56.9222L197.669 60.2108L194.836 58.1707L192.033 60.2108L193.099 56.8918L190.296 54.8516H193.77L194.836 51.5325ZM214.609 51.5325L215.675 54.882H219.179L216.346 56.9222L217.442 60.2108L214.609 58.1707L211.776 60.2108L212.872 56.8918L210.039 54.8516H213.543L214.609 51.5325ZM125.707 59.9368L126.773 63.2559H130.277L127.443 65.2961L128.51 68.6456L125.707 66.575L122.873 68.6152L123.94 65.2961L121.137 63.2559H124.61L125.707 59.9368ZM145.449 59.9368L146.546 63.2559H150.019L147.186 65.2961L148.283 68.6456L145.449 66.575L142.616 68.6152L143.713 65.2961L140.879 63.2559H144.383L145.449 59.9368ZM165.222 59.9368L166.289 63.2559H169.792L166.959 65.2961L168.025 68.6456L165.222 66.575L162.389 68.6152L163.455 65.2961L160.652 63.2559H164.125L165.222 59.9368ZM184.965 59.9368L186.062 63.2559H189.535L186.732 65.2961L187.798 68.6456L184.965 66.575L182.162 68.6152L183.228 65.2961L180.395 63.2559H183.929L184.965 59.9368ZM204.738 59.9368L205.804 63.2559H209.308L206.474 65.2961L207.541 68.6456L204.738 66.575L201.904 68.6152L202.971 65.2961L200.168 63.2559H203.641L204.738 59.9368ZM115.805 68.3411L116.902 71.6602H120.375L117.572 73.7004L118.638 77.0195L115.805 74.9793L113.002 77.0195L114.068 73.6699L111.235 71.6298H114.769L115.805 68.3411ZM135.578 68.3411L136.644 71.6602H140.148L137.315 73.7004L138.411 77.0195L135.578 74.9793L132.745 77.0195L133.841 73.6699L131.008 71.6298H134.481L135.578 68.3411ZM155.321 68.3411L156.417 71.6602H159.86L157.118 73.7004L158.184 77.0195L155.351 74.9793L152.548 77.0195L153.614 73.6699L150.781 71.6298H154.285L155.321 68.3411ZM175.094 68.3411L176.16 71.6602H179.664L176.83 73.7004L177.927 77.0195L175.094 74.9793L172.26 77.0195L173.357 73.6699L170.524 71.6298H173.997L175.094 68.3411ZM194.836 68.3411L195.933 71.6602H199.406L196.603 73.7004L197.669 77.0195L194.836 74.9793L192.033 77.0195L193.099 73.6699L190.296 71.6298H193.77L194.836 68.3411ZM214.609 68.3411L215.675 71.6602H219.179L216.346 73.7004L217.442 77.0195L214.609 74.9793L211.776 77.0195L212.872 73.6699L210.039 71.6298H213.543L214.609 68.3411Z" fill="white"/>
</g>
</g>
</g>
<defs>
<filter id="filter0_d_1103:49175" x="102.698" y="5.66064" width="214.456" height="162.375" filterUnits="userSpaceOnUse" color-interpolation-filters="sRGB">
<feFlood flood-opacity="0" result="BackgroundImageFix"/>
<feColorMatrix in="SourceAlpha" type="matrix" values="0 0 0 0 0 0 0 0 0 0 0 0 0 0 0 0 0 0 127 0" result="hardAlpha"/>
<feOffset dy="3.23457"/>
<feGaussianBlur stdDeviation="1.61728"/>
<feComposite in2="hardAlpha" operator="out"/>
<feColorMatrix type="matrix" values="0 0 0 0 0 0 0 0 0 0 0 0 0 0 0 0 0 0 0.25 0"/>
<feBlend mode="normal" in2="BackgroundImageFix" result="effect1_dropShadow_1103:49175"/>
<feBlend mode="normal" in="SourceGraphic" in2="effect1_dropShadow_1103:49175" result="shape"/>
</filter>
<clipPath id="clip0_1103:49175">
<rect width="365.506" height="393" fill="white"/>
</clipPath>
</defs>
</svg>
