<svg width="191" height="213" viewBox="0 0 191 213" fill="none" xmlns="http://www.w3.org/2000/svg">
<path d="M182.015 200.765C180.825 201.183 179.546 201.288 178.303 201.069C177.06 200.85 175.895 200.316 174.919 199.516C172.434 197.432 171.653 193.998 171.02 190.819L169.145 181.414L173.071 184.116C175.895 186.058 178.782 188.063 180.737 190.876C182.692 193.69 183.545 197.531 181.975 200.575" fill="#E6E6E6"/>
<path d="M181.679 212.15C182.076 209.258 182.485 206.329 182.206 203.406C181.959 200.81 181.166 198.275 179.552 196.196C178.695 195.094 177.653 194.15 176.472 193.407C176.164 193.213 175.88 193.7 176.187 193.894C178.231 195.184 179.812 197.09 180.702 199.336C181.684 201.834 181.842 204.556 181.672 207.21C181.569 208.814 181.352 210.408 181.133 212C181.116 212.072 181.126 212.148 181.163 212.213C181.199 212.277 181.259 212.325 181.33 212.347C181.403 212.367 181.48 212.357 181.545 212.32C181.61 212.283 181.657 212.222 181.678 212.15L181.679 212.15Z" fill="#F2F2F2"/>
<path d="M167.449 164.115H3.18542V0H167.449V164.115Z" fill="white"/>
<path d="M167.449 164.115H3.18542V0H167.449V164.115ZM5.61239 161.69H165.022V2.42479H5.61239V161.69Z" fill="#DDE1EA"/>
<path d="M138.349 25.6758H67.2161V27.8896H138.349V25.6758Z" fill="#DDE1EA"/>
<path d="M138.349 31.4319H67.2161V33.6457H138.349V31.4319Z" fill="#DDE1EA"/>
<path d="M138.349 37.1875H67.2161V39.4013H138.349V37.1875Z" fill="#DDE1EA"/>
<path d="M138.349 75.1008H67.2161V77.3147H138.349V75.1008Z" fill="#DDE1EA"/>
<path d="M138.349 80.8567H67.2161V83.0705H138.349V80.8567Z" fill="#DDE1EA"/>
<path d="M138.349 86.6128H67.2161V88.8266H138.349V86.6128Z" fill="#DDE1EA"/>
<path d="M138.349 124.526H67.2161V126.74H138.349V124.526Z" fill="#DDE1EA"/>
<path d="M138.349 130.282H67.2161V132.496H138.349V130.282Z" fill="#DDE1EA"/>
<path d="M138.349 136.038H67.2161V138.252H138.349V136.038Z" fill="#DDE1EA"/>
<path d="M38.7398 43.3141C37.5246 42.6743 36.2562 42.141 34.9487 41.7202L34.782 39.8777L28.0209 39.1499L27.1616 41.5049L24.7352 42.4147C24.6484 42.4476 24.5657 42.4906 24.489 42.5428H24.4864C24.351 42.6342 24.2356 42.7523 24.1474 42.8898C24.0592 43.0272 24 43.1812 23.9734 43.3423C23.9475 43.5025 23.9536 43.6663 23.9914 43.8241L24.1197 44.3494C24.3043 44.4596 24.4941 44.5647 24.6839 44.6646L24.8045 44.7261C25.0815 44.8696 25.3637 45.0055 25.6535 45.131C25.7125 45.1567 25.7766 45.1823 25.8356 45.2079C25.8407 45.2105 25.8432 45.2105 25.8484 45.213C25.9844 45.2694 26.1203 45.3232 26.2588 45.3745C26.7138 45.5481 27.1778 45.6969 27.649 45.8204C28.8513 46.1405 30.0904 46.3025 31.3348 46.3022C31.7888 46.3022 32.2376 46.2816 32.6814 46.2381C33.6953 46.1446 34.6962 45.9427 35.667 45.6359C35.6695 45.6359 35.6721 45.6333 35.6746 45.6333C36.2879 45.4381 36.887 45.2009 37.4676 44.9235C37.4701 44.9209 37.4752 44.9209 37.4779 44.9184C37.6086 44.8568 37.7343 44.7902 37.8626 44.7261L37.9241 44.6954C38.0267 44.6416 38.1293 44.5877 38.2319 44.5314C38.4884 44.3904 38.7398 44.2418 38.9885 44.0829C39.0578 44.0419 39.1245 43.9984 39.1938 43.9522C39.2912 43.8882 39.3886 43.8215 39.4836 43.7523C39.245 43.5986 38.9963 43.4525 38.7398 43.3141Z" fill="#DDE1EA"/>
<path d="M26.0515 44.4499L25.6283 42.5408H24.5228C24.5116 42.5409 24.5005 42.5418 24.4895 42.5433H24.4868C24.0896 42.5769 23.707 42.709 23.3737 42.9277C23.1477 43.0719 22.9467 43.2519 22.7787 43.4607C23.1069 43.7093 23.4481 43.94 23.7995 44.1603L23.8149 44.168C23.9149 44.2295 24.0176 44.291 24.1201 44.35C24.3048 44.4602 24.4946 44.5652 24.6844 44.6652L24.805 44.7267C25.082 44.8702 25.3642 45.006 25.654 45.1316C25.713 45.1572 25.7771 45.1828 25.8361 45.2084C25.8412 45.211 25.8437 45.211 25.8489 45.2136C25.9849 45.27 26.1207 45.3238 26.2593 45.375L26.0515 44.4499Z" fill="#DDE1EA"/>
<path d="M31.1364 37.9847C33.8257 37.9847 36.0058 35.8065 36.0058 33.1197C36.0058 30.4328 33.8257 28.2546 31.1364 28.2546C28.4471 28.2546 26.267 30.4328 26.267 33.1197C26.267 35.8065 28.4471 37.9847 31.1364 37.9847Z" fill="#FFB8B8"/>
<path d="M27.8671 30.7505C28.3712 31.3465 29.2242 31.5147 30.0111 31.5837C31.8509 31.6852 33.696 31.5347 35.4949 31.1363C35.6064 32.2157 35.3025 33.3796 35.9388 34.2675C36.2371 33.1925 36.4106 32.0868 36.4558 30.9722C36.5033 30.494 36.4408 30.0113 36.2731 29.5608C36.1834 29.3351 36.0321 29.1391 35.8365 28.995C35.6408 28.8509 35.4086 28.7645 35.1663 28.7456C35.5291 28.4707 35.954 28.2892 36.4036 28.2171L34.8575 27.4408L35.2545 27.0336L32.4553 26.8624L33.2661 26.3478C32.0458 26.1803 30.8113 26.1414 29.5829 26.2317C29.0089 26.2319 28.4458 26.3883 27.9539 26.6841C27.4918 27.0143 27.2247 27.6706 27.5116 28.1554C27.1524 28.2143 26.8142 28.3639 26.529 28.5899C26.2439 28.816 26.0212 29.1111 25.8821 29.4472C25.7062 29.9814 25.6637 30.5505 25.7584 31.1049C25.8639 31.9943 26.0707 32.8688 26.3751 33.7113L27.8671 30.7505Z" fill="#282828"/>
<path d="M44.8293 27.8461C44.1461 25.8851 43.043 24.0967 41.5968 22.6055C40.1507 21.1142 38.3964 19.9561 36.4563 19.2118C34.5162 18.4676 32.4369 18.1551 30.3634 18.2962C28.29 18.4373 26.2724 19.0286 24.4511 20.0288C22.6299 21.029 21.049 22.4141 19.8186 24.0875C18.5883 25.7608 17.7381 27.6822 17.3273 29.7176C16.9165 31.753 16.9551 33.8534 17.4403 35.8724C17.9255 37.8914 18.8457 39.7803 20.1367 41.4074C20.2649 41.5689 20.3983 41.7303 20.5343 41.8867C20.5446 41.8969 20.5522 41.9072 20.5625 41.9174C20.8968 42.3023 21.2522 42.6684 21.6269 43.0142C21.7245 43.1039 21.8271 43.1961 21.9296 43.2833C22.1245 43.4575 22.3246 43.6241 22.5324 43.783C22.6144 43.847 22.694 43.9111 22.7786 43.9726C23.1069 44.2212 23.448 44.4518 23.7995 44.6722L23.8149 44.6799C23.9148 44.7414 24.0175 44.8029 24.1201 44.8619C24.3047 44.972 24.4946 45.0771 24.6843 45.177L24.8049 45.2386C25.0819 45.3821 25.3641 45.5179 25.6539 45.6434C25.7129 45.6691 25.777 45.6947 25.836 45.7203C25.8412 45.7229 25.8437 45.7229 25.8488 45.7255C25.9848 45.7818 26.1207 45.8356 26.2592 45.8869C26.7142 46.0605 27.1783 46.2094 27.6494 46.3328C28.8518 46.653 30.0908 46.8149 31.3352 46.8146C31.7892 46.8146 32.2381 46.7941 32.6818 46.7505C33.6957 46.657 34.6966 46.4551 35.6674 46.1483C35.6699 46.1483 35.6726 46.1457 35.6751 46.1457C36.2883 45.9505 36.8874 45.7133 37.468 45.4359C37.4705 45.4333 37.4756 45.4333 37.4783 45.4308C37.609 45.3693 37.7348 45.3026 37.863 45.2386L37.9245 45.2078C38.0271 45.154 38.1298 45.1002 38.2324 45.0438C38.4888 44.9028 38.7402 44.7542 38.9889 44.5953C39.0582 44.5543 39.1249 44.5108 39.1942 44.4646C39.2916 44.4006 39.3891 44.3339 39.484 44.2647C39.6096 44.1776 39.7354 44.0879 39.8585 43.9957C39.8969 43.9675 39.938 43.9393 39.9765 43.9086C42.3795 42.0863 44.1433 39.5506 45.015 36.6651C45.8868 33.7796 45.8218 30.6924 44.8293 27.8461V27.8461ZM39.5046 43.2858C39.4199 43.3525 39.3327 43.4165 39.2454 43.4755C39.1608 43.5395 39.0762 43.601 38.9889 43.6574C38.9145 43.7112 38.8401 43.7625 38.7632 43.8112L38.7402 43.8266C38.6837 43.865 38.6274 43.9009 38.5709 43.9367C38.358 44.07 38.1425 44.1981 37.9245 44.3211L37.8553 44.3596C37.7578 44.4134 37.6604 44.4647 37.5629 44.5159C37.55 44.5236 37.5346 44.5287 37.5219 44.5364L37.5065 44.5441C37.3834 44.6082 37.2576 44.6697 37.132 44.7286C36.647 44.9619 36.1475 45.1639 35.6366 45.3334C35.5699 45.3564 35.5032 45.3795 35.4366 45.4C34.5177 45.692 33.5701 45.8844 32.61 45.974C32.1894 46.0125 31.7636 46.033 31.3352 46.033C30.1583 46.0354 28.9862 45.882 27.8495 45.5768C27.2662 45.4247 26.6945 45.2312 26.1387 44.9977C26.1104 44.9849 26.0796 44.9746 26.0514 44.9618C26.0207 44.949 25.9924 44.9387 25.9643 44.9259C25.9335 44.9131 25.9053 44.9003 25.8745 44.8849C25.6334 44.7799 25.3948 44.6645 25.1615 44.5441L25.0486 44.4852C24.7638 44.3365 24.4843 44.1776 24.2124 44.0085C24.1329 43.9598 24.0508 43.9086 23.9738 43.8547C23.9534 43.8419 23.9354 43.8291 23.9148 43.8163C23.7327 43.6959 23.5506 43.5703 23.3737 43.4396C23.2532 43.3499 23.1326 43.2602 23.0146 43.168C22.8171 43.0193 22.6272 42.8604 22.4426 42.6964C22.3452 42.6144 22.2502 42.5247 22.1579 42.4402C21.7943 42.1047 21.45 41.7488 21.1268 41.3741C21.0191 41.2511 20.9139 41.1281 20.8139 41C20.7911 40.9747 20.7697 40.9481 20.7497 40.9206C19.0832 38.8195 18.0808 36.2702 17.8704 33.5976C17.66 30.9251 18.251 28.2505 19.5682 25.9149C20.8854 23.5794 22.869 21.6887 25.266 20.4841C27.6631 19.2794 30.3649 18.8154 33.027 19.1511C35.6891 19.4868 38.1908 20.6071 40.213 22.3691C42.2352 24.1311 43.6864 26.455 44.3813 29.0443C45.0763 31.6336 44.9835 34.3711 44.115 36.9075C43.2464 39.444 41.6414 41.6645 39.5045 43.2859L39.5046 43.2858Z" fill="#DDE1EA"/>
<path d="M44.8293 77.2714C44.1461 75.3104 43.0429 73.522 41.5968 72.0307C40.1507 70.5395 38.3964 69.3814 36.4563 68.6371C34.5162 67.8929 32.4369 67.5804 30.3634 67.7215C28.29 67.8626 26.2723 68.4539 24.4511 69.4541C22.6299 70.4543 21.049 71.8394 19.8186 73.5127C18.5883 75.1861 17.7381 77.1075 17.3273 79.1429C16.9165 81.1783 16.9551 83.2787 17.4403 85.2977C17.9255 87.3166 18.8457 89.2056 20.1367 90.8327C20.2649 90.9942 20.3983 91.1556 20.5342 91.3119C20.5444 91.3222 20.5521 91.3324 20.5624 91.3427C20.8968 91.7275 21.2522 92.0937 21.6269 92.4395C21.7243 92.5292 21.8269 92.6214 21.9295 92.7086C22.1245 92.8828 22.3245 93.0494 22.5323 93.2083C22.9379 93.5277 23.3609 93.8246 23.7993 94.0975L23.8147 94.1052C24.0994 94.282 24.3892 94.446 24.6843 94.6023L24.8048 94.6638C25.0818 94.8073 25.364 94.9432 25.6538 95.0687C25.7128 95.0944 25.7769 95.12 25.8359 95.1456C25.841 95.1482 25.8436 95.1482 25.8488 95.1507C26.4344 95.394 27.036 95.5969 27.6494 95.7581C28.8517 96.0782 30.0908 96.2402 31.3351 96.2398C31.7891 96.2398 32.2379 96.2193 32.6817 96.1758C33.6956 96.0823 34.6965 95.8804 35.6673 95.5736C35.6699 95.5736 35.6724 95.571 35.6749 95.571C36.2882 95.3758 36.8873 95.1386 37.4679 94.8611C37.4704 94.8586 37.4756 94.8586 37.4781 94.856C37.6089 94.7945 37.7346 94.7279 37.8629 94.6638L37.9245 94.6331C38.0271 94.5792 38.1296 94.5254 38.2322 94.4691C38.4887 94.3281 38.7401 94.1795 38.9889 94.0206C39.0582 93.9796 39.1248 93.936 39.1941 93.8899C39.4197 93.7413 39.6429 93.5824 39.8583 93.4209C39.8969 93.3928 39.9379 93.3646 39.9764 93.3338C42.3794 91.5115 44.1431 88.9758 45.0149 86.0903C45.8866 83.2048 45.8217 80.1177 44.8293 77.2714V77.2714Z" fill="white"/>
<path d="M36.0505 87.8482C37.2332 87.8482 38.192 86.8903 38.192 85.7086C38.192 84.527 37.2332 83.5691 36.0505 83.5691C34.8678 83.5691 33.9091 84.527 33.9091 85.7086C33.9091 86.8903 34.8678 87.8482 36.0505 87.8482Z" fill="#282828"/>
<path d="M36.6463 83.6282C37.017 83.6282 37.3812 83.7243 37.7036 83.9071C38.0259 84.0899 38.2952 84.3532 38.4852 84.6712C38.6752 84.9891 38.7793 85.3509 38.7875 85.7211C38.7956 86.0913 38.7074 86.4573 38.5315 86.7833C38.7171 86.5512 38.8523 86.283 38.9285 85.9959C39.0046 85.7087 39.0201 85.4089 38.9738 85.1154C38.9276 84.822 38.8206 84.5413 38.6599 84.2914C38.4991 84.0416 38.288 83.8279 38.04 83.664C37.792 83.5001 37.5125 83.3896 37.2194 83.3396C36.9263 83.2896 36.626 83.3011 36.3376 83.3735C36.0492 83.4458 35.7791 83.5773 35.5444 83.7597C35.3097 83.9421 35.1156 84.1714 34.9745 84.4329C35.1747 84.1817 35.429 83.979 35.7185 83.8396C36.008 83.7003 36.3252 83.6281 36.6466 83.6282L36.6463 83.6282Z" fill="#282828"/>
<path d="M32.0472 85.7042C35.5215 85.7042 38.338 82.8902 38.338 79.4191C38.338 75.948 35.5215 73.134 32.0472 73.134C28.5729 73.134 25.7565 75.948 25.7565 79.4191C25.7565 82.8902 28.5729 85.7042 32.0472 85.7042Z" fill="#282828"/>
<path d="M27.1115 75.5198C28.1954 74.3018 29.7106 73.5523 31.3372 73.4293C32.9638 73.3063 34.5746 73.8195 35.8296 74.8606C35.7783 74.8117 35.727 74.7625 35.674 74.7151C34.4313 73.6028 32.7973 73.0294 31.1314 73.1208C29.4655 73.2122 27.9041 73.9611 26.7909 75.2027C25.6776 76.4442 25.1036 78.0768 25.1951 79.7412C25.2867 81.4055 26.0362 82.9654 27.2789 84.0777C27.2908 84.0884 27.3028 84.099 27.3148 84.1096C27.3682 84.157 27.4231 84.2019 27.4777 84.2472C26.2959 83.1239 25.597 81.5858 25.5288 79.9574C25.4605 78.3291 26.028 76.7379 27.1117 75.5197L27.1115 75.5198Z" fill="#282828"/>
<path d="M31.995 85.6512C34.2327 85.6512 36.0466 83.8389 36.0466 81.6033C36.0466 79.3677 34.2327 77.5554 31.995 77.5554C29.7574 77.5554 27.9435 79.3677 27.9435 81.6033C27.9435 83.8389 29.7574 85.6512 31.995 85.6512Z" fill="#A0616A"/>
<path d="M39.2452 92.1497V93.5079C38.9963 93.6668 38.7449 93.8154 38.4885 93.9564C38.3859 94.0128 38.2833 94.0666 38.1807 94.1204L38.1191 94.1511C37.9909 94.2152 37.8651 94.2818 37.7344 94.3433C37.7319 94.3459 37.7266 94.3459 37.7241 94.3485C37.1435 94.626 36.5444 94.8631 35.9312 95.0583C35.9287 95.0583 35.9262 95.0609 35.9235 95.0609C34.9527 95.3677 33.9518 95.5696 32.9379 95.6631C32.4942 95.7067 32.0453 95.7271 31.5913 95.7271C30.347 95.7275 29.108 95.5656 27.9056 95.2454C27.2922 95.0843 26.6906 94.8814 26.105 94.638C26.0999 94.6355 26.0973 94.6355 26.0921 94.6329C26.0331 94.6073 25.969 94.5817 25.91 94.556C25.6202 94.4305 25.338 94.2947 25.061 94.1512L24.9405 94.0897C24.6455 93.9333 24.3557 93.7693 24.071 93.5925L24.0556 93.5848C23.6172 93.3119 23.1942 93.015 22.7885 92.6956C22.5807 92.5367 22.3807 92.3701 22.1857 92.1959C22.0832 92.1087 21.9806 92.0165 21.8832 91.9268C21.5084 91.581 21.153 91.2149 20.8186 90.83C20.863 90.5631 20.9282 90.3 21.0136 90.0433L21.0161 90.0407C21.0315 89.997 21.0494 89.9542 21.07 89.9126C21.0841 89.8758 21.1004 89.8399 21.1187 89.805C21.5778 88.9465 22.4089 88.7338 23.44 88.6877C24.0223 88.662 24.666 88.6902 25.3458 88.6825C25.7049 88.68 26.0767 88.6672 26.4487 88.6338C28.7956 88.4212 28.3699 87.0373 28.475 86.2916C28.5802 85.569 29.2317 86.1942 29.2753 86.2352L29.2778 86.2378C30.6059 86.8588 32.0752 87.1161 33.5356 86.9835C33.7869 86.9528 34.0383 86.9348 34.2896 86.9271C34.9514 86.9195 34.8078 87.1091 34.5796 87.2654C34.4688 87.3383 34.3531 87.4033 34.2333 87.4602C34.2333 87.4602 34.1281 88.1008 34.0204 89.0592C33.9178 89.9766 35.6773 90.4072 35.8235 90.4405C35.8265 90.4425 35.8301 90.4434 35.8337 90.443C36.4763 90.2766 37.1528 90.2943 37.7858 90.4943H37.7883C38.1499 90.6272 38.4726 90.8482 38.727 91.1373C38.9814 91.4264 39.1595 91.7744 39.2452 92.1497Z" fill="#EF293D"/>
<path d="M26.1309 93.7976C26.1309 93.9872 26.1259 94.1692 26.1181 94.3409C26.1156 94.4434 26.1105 94.5433 26.1053 94.6381C26.1002 94.6356 26.0976 94.6356 26.0924 94.633C26.0334 94.6074 25.9693 94.5818 25.9103 94.5561C25.6205 94.4306 25.3383 94.2948 25.0613 94.1513L24.9408 94.0898C24.6458 93.9334 24.356 93.7694 24.0713 93.5926C24.0789 93.5029 24.0918 93.4132 24.1046 93.3235C24.1328 93.1262 24.1559 92.9263 24.1713 92.729C24.2722 91.3427 24.0207 89.9535 23.4403 88.6903V88.6878C23.389 88.5853 23.3583 88.5289 23.3583 88.5289C23.3583 88.5289 24.1046 87.8882 25.169 88.5289C25.237 88.5688 25.297 88.6209 25.3461 88.6826C25.9873 89.4386 26.1617 91.9807 26.1309 93.7976Z" fill="#282828"/>
<path d="M37.7775 93.4492C37.7672 93.7362 37.7518 94.036 37.7339 94.341V94.3435C37.7314 94.3461 37.7262 94.3461 37.7236 94.3487C37.143 94.6262 36.544 94.8633 35.9307 95.0585C35.9282 95.0585 35.9257 95.0611 35.9231 95.0611L35.8949 94.341L35.8922 94.2462L35.7564 90.7405C35.7527 90.6612 35.7652 90.5819 35.7931 90.5075C35.821 90.4331 35.8636 90.3651 35.9185 90.3076C35.9734 90.2501 36.0394 90.2044 36.1125 90.1731C36.1856 90.1418 36.2642 90.1256 36.3437 90.1255H37.6441C37.7082 90.1255 37.7545 90.2562 37.7853 90.4919V90.4945C37.8483 91.4785 37.8457 92.4656 37.7775 93.4492Z" fill="#282828"/>
<path d="M28.5298 76.543V80.5919H29.468L30.662 79.3137L30.5022 80.5919H34.6497L34.3932 79.3137L34.9062 80.5919H35.5675V76.543H28.5298Z" fill="#282828"/>
<path d="M27.8894 81.3371C28.0661 81.3371 28.2093 81.0749 28.2093 80.7513C28.2093 80.4278 28.0661 80.1655 27.8894 80.1655C27.7128 80.1655 27.5696 80.4278 27.5696 80.7513C27.5696 81.0749 27.7128 81.3371 27.8894 81.3371Z" fill="#A0616A"/>
<path d="M36.1001 81.3371C36.2768 81.3371 36.42 81.0749 36.42 80.7513C36.42 80.4278 36.2768 80.1655 36.1001 80.1655C35.9235 80.1655 35.7803 80.4278 35.7803 80.7513C35.7803 81.0749 35.9235 81.3371 36.1001 81.3371Z" fill="#A0616A"/>
<path d="M40.1143 92.9083C39.8988 93.0697 39.6757 93.2286 39.45 93.3772C39.3807 93.4234 39.3141 93.4669 39.2448 93.5079C38.996 93.6668 38.7446 93.8154 38.4881 93.9564C38.3856 94.0128 38.283 94.0666 38.1804 94.1204V91.2964C38.1804 91.2964 38.5907 91.6244 39.2448 92.1702C39.3269 92.2394 39.4115 92.3112 39.5013 92.3881C39.6911 92.547 39.8963 92.7212 40.1143 92.9083Z" fill="#EF293D"/>
<path d="M44.8293 77.2714C44.1461 75.3104 43.0429 73.522 41.5968 72.0307C40.1507 70.5395 38.3964 69.3814 36.4563 68.6371C34.5162 67.8929 32.4369 67.5804 30.3634 67.7215C28.29 67.8626 26.2723 68.4539 24.4511 69.4541C22.6299 70.4543 21.049 71.8394 19.8186 73.5127C18.5883 75.1861 17.7381 77.1075 17.3273 79.1429C16.9165 81.1783 16.9551 83.2787 17.4403 85.2977C17.9255 87.3166 18.8457 89.2056 20.1367 90.8327C20.2649 90.9942 20.3983 91.1556 20.5342 91.3119C20.5444 91.3222 20.5521 91.3324 20.5624 91.3427C20.8968 91.7275 21.2522 92.0937 21.6269 92.4395C21.7243 92.5292 21.8269 92.6214 21.9295 92.7086C22.1245 92.8828 22.3245 93.0494 22.5323 93.2083C22.9379 93.5277 23.3609 93.8246 23.7993 94.0975L23.8147 94.1052C24.0994 94.282 24.3892 94.446 24.6843 94.6023L24.8048 94.6638C25.0818 94.8073 25.364 94.9432 25.6538 95.0687C25.7128 95.0944 25.7769 95.12 25.8359 95.1456C25.841 95.1482 25.8436 95.1482 25.8488 95.1507C26.4344 95.394 27.036 95.5969 27.6494 95.7581C28.8517 96.0782 30.0908 96.2402 31.3351 96.2398C31.7891 96.2398 32.2379 96.2193 32.6817 96.1758C33.6956 96.0823 34.6965 95.8804 35.6673 95.5736C35.6699 95.5736 35.6724 95.571 35.6749 95.571C36.2882 95.3758 36.8873 95.1386 37.4679 94.8611C37.4704 94.8586 37.4756 94.8586 37.4781 94.856C37.6089 94.7945 37.7346 94.7279 37.8629 94.6638L37.9245 94.6331C38.0271 94.5792 38.1296 94.5254 38.2322 94.4691C38.4887 94.3281 38.7401 94.1795 38.9889 94.0206C39.0582 93.9796 39.1248 93.936 39.1941 93.8899C39.4197 93.7413 39.6429 93.5824 39.8583 93.4209C39.8969 93.3928 39.9379 93.3646 39.9764 93.3338C42.3794 91.5115 44.1431 88.9758 45.0149 86.0903C45.8866 83.2048 45.8217 80.1177 44.8293 77.2714V77.2714ZM39.5044 92.7111C39.4197 92.7777 39.3326 92.8418 39.2454 92.9007C39.1607 92.9648 39.0761 93.0263 38.9889 93.0827C38.9145 93.1365 38.8401 93.1878 38.7631 93.2364C38.699 93.28 38.6349 93.321 38.5707 93.362C38.3579 93.4953 38.1425 93.6234 37.9245 93.7464L37.8551 93.7848C37.7577 93.8386 37.6602 93.8899 37.5628 93.9412C37.5499 93.9488 37.5345 93.954 37.5217 93.9617L37.5063 93.9693C37.3832 94.0334 37.2576 94.0949 37.1319 94.1539C36.6469 94.3872 36.1474 94.5892 35.6365 94.7586C35.5699 94.7817 35.5031 94.8048 35.4365 94.8253C34.5176 95.1172 33.57 95.3097 32.6099 95.3993C32.1892 95.4377 31.7634 95.4582 31.3351 95.4582C30.1581 95.4606 28.986 95.3073 27.8494 95.0021C27.266 94.85 26.6943 94.6564 26.1386 94.4229C26.0796 94.3999 26.0206 94.3742 25.9641 94.3512C25.9334 94.3384 25.9051 94.3255 25.8743 94.3102C25.6332 94.2051 25.3948 94.0898 25.1613 93.9693L25.0485 93.9104C24.7638 93.7618 24.4842 93.6029 24.2123 93.4338C24.1123 93.3722 24.0122 93.3082 23.9148 93.2416C23.607 93.0391 23.3069 92.8213 23.0145 92.5932C22.8169 92.4446 22.6272 92.2857 22.4425 92.1217C22.345 92.0397 22.2501 91.95 22.1578 91.8654C21.7941 91.5299 21.4499 91.174 21.1267 90.7994C21.019 90.6764 20.9138 90.5534 20.8137 90.4253C20.791 90.3999 20.7696 90.3734 20.7496 90.3458C19.0831 88.2448 18.0807 85.6954 17.8703 83.0229C17.6598 80.3504 18.2509 77.6758 19.5681 75.3402C20.8852 73.0047 22.8689 71.114 25.2659 69.9093C27.6629 68.7047 30.3648 68.2406 33.0269 68.5764C35.689 68.9121 38.1906 70.0324 40.2129 71.7944C42.2351 73.5564 43.6862 75.8802 44.3812 78.4696C45.0761 81.0589 44.9834 83.7963 44.1148 86.3328C43.2463 88.8692 41.6412 91.0897 39.5044 92.7111V92.7111Z" fill="#EF293D"/>
<path d="M31.415 137.805C34.5069 137.805 37.0133 135.301 37.0133 132.212C37.0133 129.123 34.5069 126.619 31.415 126.619C28.3231 126.619 25.8167 129.123 25.8167 132.212C25.8167 135.301 28.3231 137.805 31.415 137.805Z" fill="#282828"/>
<path d="M27.0461 129.196C27.9507 128.292 28.1341 127.01 27.4556 126.332C26.7771 125.654 25.4937 125.838 24.589 126.741C23.6843 127.645 23.501 128.927 24.1795 129.605C24.858 130.283 26.1414 130.1 27.0461 129.196Z" fill="#282828"/>
<path d="M37.2503 127.421C37.6272 126.539 36.979 125.417 35.8025 124.915C34.6259 124.413 33.3666 124.721 32.9896 125.602C32.6127 126.484 33.2609 127.606 34.4375 128.108C35.614 128.61 36.8734 128.302 37.2503 127.421Z" fill="#282828"/>
<path d="M38.1121 143.061L37.4525 142.024C37.1726 141.4 36.6563 140.911 36.0168 140.666C35.3772 140.421 34.6665 140.439 34.0402 140.717C33.414 140.994 32.9233 141.508 32.6756 142.146C32.428 142.784 32.4435 143.494 32.7188 144.121L32.9064 144.793L33.1199 145.555C33.984 145.446 34.8367 145.26 35.6677 145C35.6701 144.999 35.6724 144.998 35.6741 144.996C36.2884 144.802 36.8881 144.565 37.4687 144.286C37.4719 144.282 37.475 144.282 37.4784 144.279C37.6077 144.218 37.7338 144.153 37.8631 144.089C37.8842 144.079 37.9047 144.068 37.9245 144.056C38.0279 144.005 38.1315 143.95 38.2317 143.895C38.3352 143.84 38.4353 143.782 38.5323 143.72L38.1121 143.061Z" fill="#CACACA"/>
<path d="M31.5923 138.294C34.2164 138.294 36.3436 136.169 36.3436 133.547C36.3436 130.926 34.2164 128.8 31.5923 128.8C28.9683 128.8 26.8411 130.926 26.8411 133.547C26.8411 136.169 28.9683 138.294 31.5923 138.294Z" fill="#FFB6B6"/>
<path d="M38.4542 142.859C37.9301 141.988 37.2795 141.2 36.5238 140.52C36.0062 140.058 35.3362 139.802 34.6421 139.803H27.949C27.5634 139.803 27.1818 139.881 26.8278 140.034C26.4738 140.187 26.1551 140.411 25.8911 140.692C25.6272 140.973 25.4237 141.305 25.2933 141.668C25.1629 142.031 25.1082 142.416 25.1328 142.801C25.1474 143.017 25.1865 143.232 25.2493 143.44C25.297 143.591 25.3565 143.738 25.4271 143.879L25.7569 144.538C25.7828 144.548 25.8087 144.561 25.8344 144.571C25.8409 144.574 25.8442 144.574 25.8473 144.577C25.9831 144.632 26.119 144.687 26.258 144.739C26.713 144.913 27.1771 145.061 27.6484 145.185C28.407 145.388 29.1814 145.527 29.9633 145.601C30.4193 145.643 30.8752 145.666 31.3343 145.666C31.7903 145.666 32.2364 145.643 32.6826 145.601C32.8282 145.588 32.9736 145.572 33.1191 145.556C33.9833 145.447 34.8359 145.261 35.667 145C35.6694 145 35.6717 144.999 35.6734 144.997C36.2877 144.803 36.8874 144.565 37.468 144.287C37.4712 144.283 37.4743 144.283 37.4776 144.28C37.6069 144.219 37.7331 144.154 37.8624 144.089C37.8835 144.08 37.904 144.069 37.9238 144.057C38.0272 144.005 38.1308 143.951 38.231 143.896C38.3344 143.841 38.4346 143.783 38.5316 143.721C38.6352 143.666 38.7321 143.605 38.8324 143.544C38.7096 143.301 38.5835 143.075 38.4542 142.859Z" fill="#CACACA"/>
<path d="M29.1621 140.668C28.5427 140.379 27.8338 140.346 27.1904 140.577C26.5469 140.808 26.0213 141.285 25.7284 141.902L25.1334 142.8L24.8489 143.23L24.4156 143.882C24.5061 143.931 24.5934 143.979 24.684 144.028L24.8036 144.089C25.0817 144.231 25.3629 144.367 25.654 144.493C25.6862 144.509 25.7219 144.522 25.7574 144.538C25.7833 144.548 25.8092 144.561 25.835 144.57C25.8414 144.574 25.8448 144.574 25.8479 144.577C25.9837 144.632 26.1196 144.687 26.2585 144.738C26.7135 144.912 27.1777 145.061 27.649 145.184C28.4075 145.388 29.1819 145.527 29.9639 145.601L30.1903 144.835L30.4102 144.105C30.7001 143.484 30.7314 142.773 30.4975 142.129C30.2635 141.484 29.7832 140.959 29.1621 140.668Z" fill="#CACACA"/>
<path d="M26.6005 130.562C27.6862 131.309 28.9749 131.707 30.2935 131.702C29.8231 132.028 29.2877 132.248 28.7239 132.347C30.4772 132.723 32.2891 132.733 34.0465 132.377C34.4371 132.314 34.814 132.185 35.1606 131.994C35.3334 131.898 35.4839 131.766 35.6024 131.608C35.7209 131.45 35.8047 131.268 35.8484 131.076C35.9652 130.409 35.4453 129.804 34.9051 129.395C34.078 128.78 33.1244 128.356 32.1132 128.154C31.102 127.952 30.0585 127.978 29.0583 128.228C28.3918 128.362 27.7854 128.704 27.3267 129.206C27.1047 129.461 26.9707 129.781 26.9445 130.118C26.9182 130.455 27.0011 130.791 27.181 131.077L26.6005 130.562Z" fill="#282828"/>
<path d="M44.831 126.696C44.1479 124.735 43.0449 122.947 41.5988 121.455C40.1527 119.964 38.3983 118.805 36.4581 118.061C34.5178 117.317 32.4384 117.004 30.3648 117.145C28.2913 117.286 26.2734 117.877 24.4521 118.878C22.6307 119.878 21.0497 121.263 19.8193 122.937C18.5889 124.61 17.7386 126.532 17.3279 128.567C16.9172 130.603 16.9559 132.703 17.4413 134.722C17.9266 136.741 18.847 138.63 20.1382 140.258C20.2642 140.419 20.4001 140.581 20.5359 140.736C20.5437 140.747 20.5524 140.758 20.5618 140.768C20.8967 141.153 21.2529 141.518 21.6287 141.863C21.7257 141.954 21.8259 142.047 21.9295 142.135C22.1234 142.309 22.3239 142.474 22.534 142.632C22.6148 142.697 22.6957 142.761 22.7798 142.823C23.1063 143.071 23.4491 143.301 23.7983 143.524C23.8043 143.524 23.81 143.526 23.8144 143.53C23.9146 143.591 24.0182 143.653 24.1216 143.711C24.2186 143.769 24.3188 143.827 24.4159 143.882C24.5064 143.931 24.5937 143.979 24.6843 144.028L24.8038 144.089C25.082 144.231 25.3632 144.367 25.6543 144.493C25.6865 144.509 25.7222 144.522 25.7577 144.538C25.7836 144.548 25.8095 144.561 25.8352 144.57C25.8417 144.573 25.845 144.573 25.8481 144.577C25.9839 144.632 26.1199 144.687 26.2588 144.738C26.7138 144.912 27.1779 145.061 27.6492 145.184C28.4078 145.388 29.1822 145.527 29.9642 145.601C30.4201 145.643 30.8761 145.665 31.3352 145.665C31.7911 145.665 32.2373 145.643 32.6834 145.601C32.829 145.588 32.9744 145.572 33.12 145.555C33.9841 145.446 34.8368 145.261 35.6678 145C35.6702 145 35.6725 144.998 35.6742 144.997C36.2885 144.802 36.8882 144.565 37.4688 144.286C37.472 144.283 37.4751 144.283 37.4785 144.279C37.6078 144.218 37.7339 144.154 37.8632 144.089C37.8843 144.079 37.9048 144.069 37.9246 144.057C38.028 144.005 38.1316 143.95 38.2318 143.895C38.3353 143.84 38.4355 143.782 38.5324 143.721C38.636 143.666 38.7329 143.604 38.8332 143.543C38.885 143.511 38.9367 143.478 38.9884 143.446C39.0596 143.404 39.1242 143.362 39.1954 143.314C39.2923 143.252 39.3894 143.184 39.483 143.117C39.6092 143.029 39.7353 142.939 39.8581 142.845C39.8995 142.818 39.9395 142.789 39.9778 142.758C42.379 140.934 44.1414 138.399 45.0131 135.514C45.8847 132.629 45.821 129.543 44.831 126.696L44.831 126.696ZM39.5058 142.135C39.4216 142.202 39.3343 142.267 39.2472 142.325C39.1597 142.39 39.0757 142.451 38.9884 142.509C38.914 142.561 38.8397 142.613 38.7622 142.661C38.7551 142.667 38.7475 142.673 38.7394 142.677C38.6845 142.716 38.6262 142.752 38.5713 142.787C38.5325 142.81 38.4938 142.836 38.455 142.858C38.3418 142.929 38.2286 142.997 38.1122 143.062C38.0508 143.1 37.9861 143.136 37.9246 143.171C37.9021 143.184 37.8793 143.197 37.8567 143.21C37.7565 143.265 37.6596 143.314 37.5625 143.365C37.5497 143.375 37.5334 143.378 37.5238 143.388C37.5178 143.388 37.512 143.39 37.5075 143.394C37.3847 143.459 37.2586 143.52 37.1326 143.579C36.6471 143.812 36.147 144.014 35.6354 144.183C35.5708 144.205 35.503 144.231 35.4382 144.25C34.6136 144.512 33.7658 144.694 32.9065 144.793C32.8096 144.806 32.7093 144.816 32.6091 144.825C32.1888 144.864 31.7652 144.884 31.3352 144.884C30.9536 144.884 30.5688 144.867 30.1906 144.835C29.3997 144.769 28.6163 144.633 27.8497 144.428C27.2662 144.276 26.6945 144.082 26.1393 143.847C26.1101 143.834 26.081 143.824 26.052 143.811C26.0196 143.798 25.9937 143.788 25.9647 143.776C25.9323 143.763 25.9064 143.75 25.8741 143.734C25.6639 143.643 25.4538 143.543 25.2501 143.44C25.2209 143.423 25.1919 143.411 25.1629 143.394L25.0497 143.336C24.9818 143.301 24.9139 143.265 24.8491 143.23C24.6325 143.113 24.4191 142.987 24.2123 142.858C24.1346 142.81 24.0506 142.758 23.9729 142.706L23.9147 142.668C23.7336 142.545 23.5527 142.422 23.3747 142.29C23.2551 142.199 23.1322 142.112 23.0159 142.018C22.8187 141.87 22.6278 141.711 22.4436 141.547C22.3465 141.466 22.2496 141.375 22.1591 141.291C21.795 140.956 21.4506 140.6 21.1277 140.225C21.021 140.103 20.9142 139.98 20.814 139.851C20.7914 139.825 20.772 139.799 20.7493 139.77C19.0824 137.669 18.0796 135.119 17.869 132.446C17.6583 129.773 18.2493 127.098 19.5665 124.762C20.8837 122.426 22.8675 120.535 25.2648 119.33C27.6621 118.125 30.3643 117.661 33.0268 117.997C35.6892 118.333 38.1913 119.453 40.2139 121.215C42.2364 122.977 43.6878 125.301 44.3829 127.891C45.078 130.481 44.9854 133.218 44.1168 135.755C43.2481 138.292 41.6429 140.513 39.5058 142.135H39.5058Z" fill="#DDE1EA"/>
<path d="M55.24 56.9481C50.2646 52.7536 44.1762 50.0943 37.7157 49.2939C31.2551 48.4935 24.701 49.5864 18.8508 52.4397C13.0006 55.2929 8.10667 59.7836 4.76441 65.3651C1.42216 70.9466 -0.224278 77.3784 0.0254587 83.8777C0.275195 90.3771 2.41033 96.6638 6.17106 101.973C9.93178 107.282 15.156 111.384 21.2079 113.781C27.2598 116.178 33.8785 116.766 40.2586 115.473C46.6387 114.18 52.5051 111.062 57.144 106.499L98.3366 141.225C98.9637 141.752 99.7742 142.009 100.59 141.939C101.407 141.87 102.162 141.48 102.691 140.855C103.22 140.23 103.479 139.421 103.412 138.605C103.345 137.789 102.957 137.034 102.332 136.503L102.328 136.499L61.1353 101.773C65.9206 94.9111 67.9687 86.5113 66.8782 78.2195C65.7876 69.9278 61.6371 62.3417 55.24 56.9481ZM52.5845 98.4288C49.3754 102.229 45.1106 104.992 40.3294 106.37C35.5482 107.748 30.4654 107.679 25.7237 106.171C20.982 104.663 16.7943 101.784 13.6903 97.8981C10.5863 94.0122 8.70527 89.294 8.2852 84.3401C7.86512 79.3862 8.92483 74.419 11.3303 70.0668C13.7358 65.7146 17.3789 62.1728 21.7992 59.8893C26.2194 57.6058 31.2181 56.6831 36.1632 57.2379C41.1083 57.7927 45.7776 59.8002 49.5808 63.0064C54.6807 67.3057 57.8622 73.4531 58.4255 80.0961C58.9888 86.7391 56.8877 93.3336 52.5845 98.4288Z" fill="#282828"/>
<path opacity="0.3" d="M17.1293 101.43C12.3026 97.3604 9.18418 91.6263 8.39325 85.366C7.60232 79.1058 9.19671 72.7773 12.8598 67.6372C12.3788 68.1212 11.9137 68.6282 11.4647 69.158C9.3339 71.6809 7.72139 74.5984 6.71918 77.744C5.71697 80.8895 5.34471 84.2015 5.62362 87.4907C5.90254 90.78 6.82719 93.9822 8.34477 96.9145C9.86235 99.8467 11.9431 102.452 14.4683 104.58C16.9936 106.709 19.9137 108.32 23.0621 109.322C26.2105 110.323 29.5255 110.695 32.8177 110.416C36.11 110.138 39.3151 109.214 42.25 107.698C45.1849 106.181 47.7922 104.102 49.9229 101.579C50.3709 101.049 50.7929 100.506 51.1887 99.9496C46.7335 104.422 40.7578 107.057 34.4481 107.331C28.1385 107.605 21.9563 105.499 17.1293 101.43Z" fill="black"/>
<path d="M138.284 142.524C138.606 142.131 138.837 141.673 138.963 141.182C139.088 140.69 139.104 140.177 139.009 139.678C138.915 139.18 138.712 138.708 138.415 138.297C138.118 137.885 137.735 137.543 137.291 137.296L129.783 106.591L124.306 108.338L132.413 138.833C132.047 139.605 131.976 140.484 132.214 141.304C132.453 142.124 132.984 142.829 133.708 143.283C134.431 143.738 135.297 143.912 136.14 143.772C136.984 143.632 137.746 143.188 138.284 142.524H138.284Z" fill="#FFB6B6"/>
<path d="M134.403 122.883L130.4 126.334L124.8 131.157L122.327 118.513L122.068 117.198L121.865 116.155L127.539 106.28L132.269 106.551L132.593 106.57L132.599 106.641L132.673 107.304L133.643 116.019L133.666 116.229L134.403 122.883Z" fill="#282828"/>
<path d="M108.239 208.707L104.276 208.707L102.39 193.431L108.24 193.431L108.239 208.707Z" fill="#FFB6B6"/>
<path d="M109.251 212.546L96.4696 212.546V212.384C96.4697 211.066 96.9939 209.802 97.9268 208.87C98.8598 207.938 100.125 207.414 101.445 207.414H101.445L109.251 207.414L109.251 212.546Z" fill="#282828"/>
<path d="M149.627 209.03L145.663 209.03L143.777 193.754L149.628 193.754L149.627 209.03Z" fill="#FFB6B6"/>
<path d="M150.638 212.869L137.856 212.869V212.707C137.856 211.389 138.38 210.125 139.313 209.193C140.246 208.261 141.512 207.737 142.831 207.737H142.831L150.638 207.737L150.638 212.869Z" fill="#282828"/>
<path d="M152.795 202.949L142.125 204.564L126.602 152.077L110.115 204.887L98.1515 203.272L113.671 141.895V137.049L115.773 129.781L115.553 127.813L114.024 114.055L113.361 108.089L113.318 107.703C113.282 107.38 113.368 107.054 113.559 106.791C113.749 106.527 114.032 106.344 114.35 106.276L119.33 105.23H127.468L132.27 106.551L132.599 106.641L132.748 106.683L132.674 107.304L131.548 116.73L131.487 117.247L130.401 126.334L130.161 128.327C139.538 135.111 139.861 141.895 139.861 141.895L152.795 202.949Z" fill="#333333"/>
<path d="M122.415 101.143C126.8 101.143 130.356 97.5905 130.356 93.2086C130.356 88.8267 126.8 85.2744 122.415 85.2744C118.029 85.2744 114.473 88.8267 114.473 93.2086C114.473 97.5905 118.029 101.143 122.415 101.143Z" fill="#FFB6B6"/>
<path d="M130.756 126.504L115.047 128.557L115.34 130.799L131.05 128.746L130.756 126.504Z" fill="#282828"/>
<path d="M93.9742 129.233C94.1244 129.33 94.2667 129.439 94.3998 129.558L109.938 125.601L110.998 121.855L116.864 122.715L115.633 129.527C115.533 130.078 115.258 130.581 114.848 130.961C114.437 131.342 113.915 131.579 113.358 131.638L95.2155 133.547C94.9198 134.169 94.4416 134.686 93.8444 135.03C93.2473 135.374 92.5595 135.528 91.8725 135.472C91.1856 135.415 90.5321 135.152 89.9989 134.715C89.4657 134.279 89.0781 133.691 88.8877 133.029C88.6973 132.367 88.7131 131.663 88.9329 131.01C89.1527 130.358 89.5663 129.787 90.1184 129.375C90.6706 128.963 91.3353 128.729 92.0241 128.703C92.7128 128.678 93.393 128.863 93.9742 129.233Z" fill="#FFB6B6"/>
<path d="M117.875 108.299L115.126 106.199C114.383 105.917 113.365 106.718 113.186 107.491L109.306 123.32L117.39 129.135L118.521 127.358L117.875 108.299Z" fill="#282828"/>
<g opacity="0.2">
<path opacity="0.2" d="M133.644 116.019C132.958 116.291 132.259 116.528 131.549 116.73C131.322 116.798 131.09 116.862 130.86 116.924C129.347 117.343 127.792 117.595 126.223 117.673C125.548 117.702 124.872 117.683 124.199 117.618C123.477 117.546 122.764 117.406 122.069 117.198C122.046 117.192 122.02 117.185 121.997 117.179C120.552 116.769 119.226 116.016 118.134 114.986C117.889 114.748 117.662 114.494 117.451 114.226C116.848 113.488 116.405 112.631 116.151 111.712C115.897 110.792 115.838 109.83 115.977 108.887C116.004 108.716 116.041 108.546 116.087 108.379C116.209 107.925 116.37 107.482 116.569 107.055C116.656 106.855 116.753 106.658 116.857 106.464L120.51 105.23H127.468L132.27 106.551L132.593 106.57L132.6 106.641L132.748 106.683L132.674 107.304L133.644 116.019Z" fill="black"/>
</g>
<path d="M116.33 86.6398C114.845 86.458 113.215 86.5866 112.057 87.5338C110.9 88.481 110.526 90.4502 111.622 91.4679C112.592 92.3689 114.11 92.157 115.409 92.4132C116.529 92.6639 117.532 93.2826 118.258 94.1703C118.984 95.058 119.391 96.1633 119.413 97.3094C119.394 100.596 116.237 103.085 115.67 106.322C115.283 108.532 116.215 110.857 117.828 112.418C119.44 113.979 121.657 114.822 123.891 115.051C126.124 115.279 128.383 114.93 130.553 114.357C132.733 113.781 134.879 112.965 136.708 111.647C138.536 110.33 140.036 108.473 140.623 106.299C141.21 104.124 140.788 101.63 139.275 99.9606C137.543 98.0485 134.66 97.391 133.161 95.2908C131.481 92.9366 132.103 89.5839 130.743 87.0316C129.835 85.3275 128.116 84.1652 126.284 83.5529C124.451 82.9406 122.494 82.8198 120.563 82.7605C119.548 82.7293 118.502 82.7189 117.556 83.0887C116.61 83.4584 115.779 84.3011 115.73 85.3146C115.681 86.3281 116.33 86.6398 116.33 86.6398Z" fill="#282828"/>
<path d="M190.676 213H67.4867C67.4009 213 67.3187 212.966 67.258 212.905C67.1974 212.845 67.1633 212.762 67.1633 212.677C67.1633 212.591 67.1974 212.509 67.258 212.448C67.3187 212.388 67.4009 212.354 67.4867 212.354H190.676C190.762 212.354 190.844 212.388 190.905 212.448C190.965 212.509 191 212.591 191 212.677C191 212.762 190.965 212.845 190.905 212.905C190.844 212.966 190.762 213 190.676 213Z" fill="#CACACA"/>
</svg>
