<svg width="543" height="439" viewBox="0 0 543 439" fill="none" xmlns="http://www.w3.org/2000/svg">
<g clip-path="url(#clip0_1794_65068)">
<path d="M526.478 387.343C540.309 374.297 547.441 354.754 540.01 338.222C529.193 354.857 511.385 367.959 490.739 374.471C482.698 377.008 473.45 379.1 469.076 385.499C466.355 389.48 466.157 394.465 467.383 398.973C468.609 403.481 471.134 407.628 473.634 411.718L473.648 412.874C493.22 407.885 512.647 400.389 526.478 387.343Z" fill="#F2F2F2"/>
<path d="M539.594 338.31C537.262 352.707 529.631 366.548 517.964 376.983C515.432 379.343 512.558 381.306 509.44 382.806C506.231 384.23 502.733 384.878 499.228 384.697C495.927 384.592 492.564 384.151 489.291 384.746C487.685 385.029 486.153 385.633 484.786 386.523C483.42 387.412 482.246 388.569 481.335 389.924C479.165 393.122 478.444 396.808 477.884 400.433C477.261 404.459 476.688 408.649 474.042 412.113C473.722 412.532 474.488 412.94 474.808 412.522C479.411 406.496 477.871 398.796 480.977 392.298C482.426 389.266 484.933 386.596 488.682 385.681C491.96 384.88 495.428 385.332 498.77 385.463C502.195 385.681 505.626 385.162 508.834 383.939C512.028 382.584 514.983 380.721 517.584 378.422C523.279 373.545 528.146 367.773 531.994 361.333C536.263 354.276 539.148 346.468 540.493 338.326C540.574 337.829 539.674 337.816 539.594 338.31V338.31Z" fill="white"/>
<path d="M521.962 373.765C524.337 375.24 527.113 375.937 529.902 375.759C532.691 375.58 535.355 374.535 537.523 372.769C537.934 372.415 537.321 371.843 536.909 372.197C534.893 373.845 532.412 374.818 529.815 374.98C527.218 375.141 524.636 374.483 522.432 373.098C521.967 372.799 521.499 373.468 521.962 373.765V373.765Z" fill="white"/>
<path d="M500.894 384.942C500.432 382.427 500.507 379.843 501.114 377.359C501.72 374.875 502.845 372.548 504.414 370.531C504.733 370.111 503.966 369.702 503.648 370.122C502.019 372.224 500.854 374.648 500.229 377.234C499.604 379.82 499.533 382.509 500.02 385.125C500.116 385.622 500.99 385.437 500.894 384.942Z" fill="white"/>
<path d="M535.124 354.066C534.144 353.716 533.269 353.12 532.582 352.336C531.896 351.552 531.421 350.605 531.202 349.585C531.113 349.087 530.24 349.272 530.328 349.767C530.575 350.893 531.1 351.937 531.856 352.805C532.613 353.673 533.575 354.336 534.654 354.733C534.757 354.785 534.874 354.8 534.986 354.776C535.098 354.753 535.199 354.692 535.272 354.604C535.302 354.56 535.323 354.51 535.331 354.458C535.34 354.405 535.337 354.352 535.323 354.3C535.309 354.249 535.284 354.202 535.25 354.161C535.215 354.121 535.173 354.088 535.124 354.066V354.066Z" fill="white"/>
<path d="M474.423 319.425C474.468 319.738 474.513 320.05 474.553 320.367C475.136 324.565 475.325 328.808 475.12 333.041C475.11 333.368 475.094 333.7 475.073 334.026C474.422 344.325 471.621 354.372 466.85 363.518C464.91 367.251 462.668 370.821 460.149 374.19C456.639 378.891 452.403 383.746 450.926 389.026C450.765 389.574 450.643 390.132 450.561 390.696L472.026 412.799C472.104 412.828 472.176 412.862 472.254 412.891L473.064 413.807C473.21 413.64 473.356 413.463 473.501 413.296C473.586 413.199 473.666 413.097 473.75 413C473.805 412.934 473.86 412.867 473.914 412.81C473.932 412.788 473.95 412.766 473.963 412.749C474.017 412.692 474.06 412.634 474.108 412.581C474.93 411.596 475.745 410.604 476.553 409.606C476.559 409.602 476.559 409.602 476.56 409.592C482.698 401.971 488.16 393.837 492.029 385.241C492.145 384.982 492.267 384.719 492.374 384.45C494.083 380.597 495.436 376.594 496.416 372.492C496.938 370.265 497.332 368.01 497.594 365.737C498.256 359.871 497.854 353.933 496.407 348.211C493.517 336.745 486.446 326.211 475.281 319.9C474.996 319.739 474.714 319.582 474.423 319.425Z" fill="#F2F2F2"/>
<path d="M474.149 319.712C482.245 332.429 485.726 347.48 483.627 361.926C483.247 365.106 482.307 368.193 480.849 371.043C479.227 373.907 476.861 376.278 474.004 377.904C471.295 379.55 468.305 380.961 466.103 383.152C465.02 384.218 464.204 385.527 463.723 386.97C463.241 388.413 463.107 389.95 463.332 391.455C463.811 395.146 465.785 398.466 467.846 401.655C470.133 405.196 472.573 408.842 472.856 412.993C472.891 413.496 473.785 413.421 473.751 412.919C473.259 405.696 466.703 400.354 464.688 393.539C463.748 390.359 463.903 386.912 466.263 384.217C468.327 381.86 471.409 380.403 474.168 378.757C476.989 377.196 479.385 374.967 481.149 372.265C482.766 369.497 483.842 366.446 484.319 363.274C485.491 356.248 485.385 349.066 484.004 342.078C482.434 333.959 479.337 326.213 474.878 319.254C474.598 318.815 473.871 319.276 474.149 319.712V319.712Z" fill="white"/>
<path d="M484.594 357.262C490.473 357.208 495.49 353.369 496.33 348.312C496.413 347.813 495.527 347.678 495.444 348.177C494.657 352.915 490.004 356.433 484.508 356.483C483.93 356.488 484.019 357.267 484.594 357.262V357.262Z" fill="white"/>
<path d="M475.504 377.227C473.47 375.604 471.787 373.583 470.557 371.288C469.327 368.993 468.575 366.472 468.346 363.876C468.31 363.374 467.415 363.449 467.452 363.951C467.695 366.652 468.484 369.275 469.77 371.661C471.055 374.047 472.812 376.146 474.932 377.831C475.353 378.178 475.922 377.572 475.504 377.227V377.227Z" fill="white"/>
<path d="M481.478 334.635C480.392 334.856 479.27 334.834 478.193 334.571C477.116 334.308 476.11 333.81 475.247 333.113C474.832 332.761 474.263 333.367 474.676 333.716C475.632 334.483 476.744 335.032 477.934 335.325C479.123 335.618 480.362 335.648 481.565 335.414C481.803 335.367 481.992 335.217 481.969 334.987C481.947 334.877 481.885 334.779 481.794 334.713C481.702 334.648 481.59 334.62 481.478 334.635V334.635Z" fill="white"/>
<path d="M441.88 151.967C452.043 151.967 460.282 143.712 460.282 133.529C460.282 123.345 452.043 115.09 441.88 115.09C431.716 115.09 423.477 123.345 423.477 133.529C423.477 143.712 431.716 151.967 441.88 151.967Z" fill="#A0616A"/>
<path d="M522.519 218.714C519.932 212.698 516.381 207.146 512.005 202.28C515.71 208.197 517.828 214.973 518.153 221.951C516.811 222.791 515.408 223.526 513.954 224.151C509.586 225.987 504.928 227.036 500.196 227.248C497.645 218.734 493.243 210.892 487.305 204.286C491.584 211.123 493.736 219.082 493.487 227.148C488.208 226.691 483.008 225.574 478.006 223.824C470.496 221.235 463.206 217.369 458.013 211.356C452.392 204.848 449.621 196.26 448.727 187.698C447.832 179.144 448.673 170.509 449.521 161.947C449.922 157.867 446.531 153.172 446.931 149.092H447.198C448.98 146.643 450.796 144.135 451.671 141.232C452.539 138.336 452.312 134.918 450.316 132.637C449.197 131.446 447.786 130.569 446.223 130.096C446.077 129.908 445.916 129.728 445.749 129.547C442.727 126.33 439.169 123.664 435.235 121.668C438.073 123.815 439.968 126.243 440.85 128.751C438.393 128.21 435.936 127.67 433.48 127.133C432.659 126.26 431.794 125.43 430.89 124.645C429.842 123.794 428.733 123.023 427.572 122.337C428.838 123.453 429.82 124.857 430.436 126.43C427.278 125.634 424.12 124.437 422.478 121.715C419.755 117.213 422.992 111.14 427.512 108.451C430.799 106.591 434.587 105.812 438.34 106.226C442.093 106.64 445.622 108.226 448.426 110.759C454.962 105.936 464.268 106.017 471.537 109.622C476.337 112.108 480.471 115.712 483.593 120.13C481.782 119.897 479.959 119.769 478.133 119.748C480.703 120.125 483.151 121.096 485.282 122.584C486.225 124.051 487.09 125.567 487.872 127.126C488.386 128.149 488.872 129.186 489.328 130.236C492.125 136.617 493.947 143.413 495.836 150.128C498.039 157.954 500.403 165.833 504.528 172.836C510.854 183.485 520.832 191.462 532.599 195.277C533.58 204.126 529.268 212.781 522.519 218.714Z" fill="#2F2E41"/>
<path d="M479.814 418.491L473.134 421.607L457.96 397.274L467.82 392.675L479.814 418.491Z" fill="#A0616A"/>
<path d="M488.728 428.443L483.937 430.677L480.977 426.545L480.892 432.098L468.187 438.024C467.578 438.308 466.894 438.39 466.235 438.257C465.577 438.124 464.978 437.784 464.526 437.286C464.074 436.788 463.793 436.158 463.723 435.489C463.654 434.819 463.8 434.145 464.14 433.565L471.024 421.811L468.896 417.23L479.864 412.89L488.728 428.443Z" fill="#2F2E41"/>
<path d="M412.755 425.527H405.386L401.879 397.052H412.755V425.527Z" fill="#A0616A"/>
<path d="M416.644 438.319H411.36L410.416 433.32L408.001 438.319H393.986C393.314 438.319 392.66 438.104 392.119 437.705C391.578 437.306 391.178 436.744 390.978 436.102C390.778 435.459 390.789 434.769 391.008 434.133C391.227 433.497 391.643 432.947 392.196 432.565L403.388 424.82V419.767L415.159 420.471L416.644 438.319Z" fill="#2F2E41"/>
<path d="M446.788 209.758L440.684 228.422L438.666 243.551L406.237 233.519L409.236 199.76L415.981 193.074L446.788 209.758Z" fill="#A0616A"/>
<path d="M136.331 35.2314C138.14 32.5075 137.069 28.6082 133.94 26.5222C130.811 24.4362 126.808 24.9534 124.999 27.6773C123.19 30.4012 124.261 34.3004 127.39 36.3864C130.52 38.4724 134.523 37.9553 136.331 35.2314Z" fill="#FD6584"/>
<path d="M202.107 262.188C203.916 259.464 202.845 255.565 199.716 253.479C196.587 251.393 192.584 251.91 190.775 254.634C188.966 257.358 190.037 261.257 193.166 263.343C196.295 265.429 200.298 264.912 202.107 262.188Z" fill="#E6E6E6"/>
<path d="M17.8606 67.5485C19.6693 64.8246 18.5988 60.9254 15.4694 58.8394C12.3401 56.7534 8.33708 57.2705 6.52837 59.9944C4.71967 62.7183 5.79023 66.6176 8.91954 68.7036C12.0488 70.7896 16.0519 70.2725 17.8606 67.5485Z" fill="#E6E6E6"/>
<path d="M250.083 229.021H27.6222C20.2989 229.013 13.2779 226.094 8.09955 220.905C2.92118 215.717 0.00831655 208.682 0 201.345V105.534C0.00826895 98.1962 2.92112 91.1615 8.0995 85.973C13.2779 80.7845 20.2989 77.8659 27.6222 77.8576C98.6078 58.153 173.058 59.999 250.083 77.8576C257.406 77.8659 264.427 80.7845 269.605 85.973C274.784 91.1615 277.697 98.1962 277.705 105.534V201.345C277.696 208.682 274.784 215.717 269.605 220.905C264.427 226.094 257.406 229.013 250.083 229.021Z" fill="#F2F2F2"/>
<path d="M23.6983 204.607C23.6106 204.607 23.5238 204.59 23.4428 204.556C23.3618 204.523 23.2882 204.473 23.2262 204.411C23.1642 204.349 23.1151 204.275 23.0815 204.194C23.048 204.113 23.0307 204.026 23.0308 203.938V102.94C23.0308 102.762 23.1011 102.592 23.2263 102.467C23.3515 102.341 23.5213 102.271 23.6983 102.271C23.8754 102.271 24.0452 102.341 24.1704 102.467C24.2955 102.592 24.3659 102.762 24.3659 102.94V203.938C24.3659 204.026 24.3487 204.113 24.3151 204.194C24.2816 204.275 24.2324 204.349 24.1704 204.411C24.1084 204.473 24.0348 204.523 23.9538 204.556C23.8728 204.59 23.786 204.607 23.6983 204.607V204.607Z" fill="white"/>
<path d="M255.341 204.607C255.429 204.607 255.516 204.59 255.597 204.556C255.678 204.523 255.751 204.473 255.813 204.411C255.875 204.349 255.925 204.275 255.958 204.194C255.992 204.113 256.009 204.026 256.009 203.938V102.94C256.009 102.762 255.939 102.592 255.813 102.467C255.688 102.341 255.518 102.271 255.341 102.271C255.164 102.271 254.995 102.341 254.869 102.467C254.744 102.592 254.674 102.762 254.674 102.94V203.938C254.674 204.026 254.691 204.113 254.725 204.194C254.758 204.275 254.807 204.349 254.869 204.411C254.931 204.473 255.005 204.523 255.086 204.556C255.167 204.59 255.254 204.607 255.341 204.607V204.607Z" fill="white"/>
<path d="M211.283 124.344H211.281C211.103 124.343 210.934 124.272 210.809 124.146C210.684 124.02 210.615 123.85 210.615 123.672L210.949 21.3363C210.95 21.1593 211.02 20.9897 211.145 20.8648C211.271 20.7399 211.44 20.6697 211.617 20.6697H211.619C211.796 20.6703 211.965 20.7413 212.09 20.8672C212.215 20.9931 212.285 21.1634 212.284 21.3408L211.95 123.677C211.95 123.854 211.879 124.024 211.754 124.148C211.629 124.273 211.459 124.344 211.283 124.344V124.344Z" fill="#3F3D56"/>
<path d="M125.835 270.825H125.833C125.656 270.824 125.486 270.753 125.362 270.627C125.237 270.502 125.167 270.331 125.167 270.154L125.501 170.493C125.502 170.316 125.572 170.146 125.698 170.022C125.823 169.897 125.992 169.826 126.169 169.826H126.171C126.348 169.827 126.518 169.898 126.642 170.024C126.767 170.15 126.837 170.32 126.836 170.498L126.503 270.158C126.502 270.335 126.432 270.505 126.306 270.63C126.181 270.755 126.012 270.825 125.835 270.825V270.825Z" fill="#3F3D56"/>
<path d="M62.4166 143.072H62.4143C62.2373 143.071 62.0677 143 61.943 142.874C61.8182 142.748 61.7484 142.578 61.749 142.401L62.0828 41.4022C62.0835 41.2252 62.1541 41.0557 62.2792 40.9307C62.4043 40.8058 62.5737 40.7356 62.7504 40.7356H62.7527C62.9297 40.7362 63.0992 40.8073 63.224 40.9331C63.3488 41.059 63.4185 41.2293 63.4179 41.4067L63.0841 142.405C63.0835 142.582 63.0129 142.752 62.8878 142.877C62.7627 143.002 62.5932 143.072 62.4166 143.072V143.072Z" fill="#3F3D56"/>
<path d="M34.8525 169.96C36.1382 163.005 44.0294 159.798 50.4235 160.343C59.5612 161.122 67.1874 167.149 75.6919 169.991C79.8016 171.364 84.2233 172.118 88.53 171.328C91.925 170.627 95.073 169.035 97.6516 166.714C102.596 162.479 105.939 156.704 110.888 152.474C113.534 150.087 116.882 148.622 120.428 148.301C124.794 148.01 129.07 149.492 132.898 151.48C140.501 155.427 146.725 161.709 154.823 164.756C158.541 166.192 162.575 166.61 166.507 165.965C170.433 165.182 174.165 163.63 177.491 161.398C184.463 156.985 190.21 150.86 197.541 146.989C201.146 145.086 205.151 143.63 209.269 143.601C213.249 143.606 217.075 145.141 219.959 147.89C225.512 152.947 229.889 160.93 238.37 161.07C240.138 161.103 241.879 160.624 243.383 159.691C244.477 159.013 243.472 157.277 242.372 157.959C238.915 160.1 234.752 158.749 231.602 156.672C228.246 154.46 225.864 151.078 223.126 148.198C220.406 145.336 217.232 142.926 213.319 142.033C209.409 141.259 205.361 141.598 201.633 143.011C193.623 145.808 187.559 151.564 180.91 156.572C174.358 161.508 166.708 165.778 158.254 163.722C149.837 161.676 143.451 155.289 136.171 151.002C129.134 146.858 120.507 144.212 112.929 148.572C107.203 151.867 103.582 157.686 99.1843 162.426C97.0141 164.765 94.5941 166.939 91.6626 168.268C87.5894 170.114 82.986 169.899 78.7433 168.804C69.8929 166.522 62.4281 160.551 53.4159 158.764C46.7266 157.439 38.8089 159.109 34.7261 165.034C33.8232 166.355 33.2083 167.851 32.9214 169.426C32.688 170.688 34.6177 171.23 34.8525 169.96L34.8525 169.96Z" fill="#3F3D56"/>
<path d="M62.7505 174.341C67.5434 174.341 71.4288 170.448 71.4288 165.646C71.4288 160.844 67.5434 156.951 62.7505 156.951C57.9577 156.951 54.0723 160.844 54.0723 165.646C54.0723 170.448 57.9577 174.341 62.7505 174.341Z" fill="#EF293D"/>
<path d="M125.168 155.947C129.96 155.947 133.846 152.054 133.846 147.252C133.846 142.45 129.96 138.557 125.168 138.557C120.375 138.557 116.489 142.45 116.489 147.252C116.489 152.054 120.375 155.947 125.168 155.947Z" fill="#EF293D"/>
<path d="M210.615 149.928C215.408 149.928 219.293 146.035 219.293 141.232C219.293 136.43 215.408 132.537 210.615 132.537C205.822 132.537 201.937 136.43 201.937 141.232C201.937 146.035 205.822 149.928 210.615 149.928Z" fill="#EF293D"/>
<path d="M136.173 296.297H117.138C116.091 296.296 115.079 295.917 114.289 295.229C113.499 294.541 112.983 293.59 112.836 292.552C111.66 283.886 111.66 275.101 112.836 266.435C112.98 265.411 113.484 264.471 114.257 263.785C115.029 263.099 116.02 262.711 117.052 262.689C123.251 259.354 129.71 259.354 136.255 262.689C136.879 262.7 137.494 262.847 138.056 263.12C138.618 263.393 139.114 263.785 139.509 264.269C139.923 264.776 140.22 265.368 140.376 266.003C140.533 266.638 140.547 267.3 140.417 267.942C138.888 275.566 138.888 283.42 140.417 291.044C140.547 291.685 140.533 292.348 140.376 292.983C140.22 293.618 139.923 294.21 139.509 294.716C139.105 295.212 138.596 295.61 138.019 295.884C137.442 296.157 136.812 296.298 136.173 296.297V296.297Z" fill="#EF293D"/>
<path d="M223.623 35.6248H204.588C203.541 35.624 202.53 35.2448 201.739 34.5567C200.949 33.8687 200.433 32.918 200.286 31.8794C199.11 23.2134 199.11 14.428 200.286 5.76201C200.431 4.73584 200.937 3.79517 201.712 3.10885C202.487 2.42253 203.481 2.03552 204.515 2.01729C210.504 -0.67254 216.954 -0.672211 223.689 2.01696C224.316 2.0253 224.934 2.1711 225.499 2.44412C226.064 2.71713 226.562 3.11076 226.96 3.59735C227.374 4.10355 227.67 4.69579 227.827 5.33106C227.984 5.96632 227.997 6.62865 227.867 7.2699C226.338 14.8942 226.338 22.7472 227.867 30.3715C227.997 31.0128 227.984 31.6751 227.827 32.3103C227.67 32.9456 227.374 33.5378 226.96 34.044C226.556 34.5393 226.046 34.9381 225.469 35.2115C224.892 35.4849 224.262 35.6261 223.623 35.6248V35.6248Z" fill="#EF293D"/>
<path d="M71.9026 52.9946H52.8674C52.229 52.9959 51.5984 52.8547 51.0213 52.5813C50.4443 52.3079 49.9352 51.9091 49.5312 51.4139C49.1172 50.9077 48.821 50.3154 48.664 49.6802C48.5071 49.0449 48.4933 48.3826 48.6238 47.7413C50.1528 40.117 50.1528 32.2641 48.6238 24.6397C48.4933 23.9984 48.5071 23.336 48.664 22.7007C48.821 22.0654 49.1172 21.4731 49.5312 20.9668C49.9268 20.4821 50.4231 20.0896 50.9856 19.8167C51.5482 19.5439 52.1633 19.3973 52.7882 19.3871C58.5752 16.5474 65.0279 16.5474 71.9694 19.3871C73.0048 19.4037 74.0002 19.79 74.7766 20.4765C75.553 21.163 76.0594 22.1046 76.2046 23.1318C77.38 31.7977 77.38 40.583 76.2046 49.2489C76.0578 50.2876 75.5418 51.2383 74.7515 51.9264C73.9612 52.6146 72.9496 52.9938 71.9026 52.9946V52.9946Z" fill="#CCCCCC"/>
<path d="M221.63 11.9744H205.608C205.343 11.9744 205.088 11.8687 204.9 11.6805C204.712 11.4923 204.607 11.2372 204.607 10.9711C204.607 10.705 204.712 10.4498 204.9 10.2616C205.088 10.0735 205.343 9.96777 205.608 9.96777H221.63C221.895 9.96777 222.15 10.0735 222.338 10.2616C222.526 10.4498 222.631 10.705 222.631 10.9711C222.631 11.2372 222.526 11.4923 222.338 11.6805C222.15 11.8687 221.895 11.9744 221.63 11.9744V11.9744Z" fill="white"/>
<path d="M221.63 20.0007H205.608C205.343 20.0007 205.088 19.895 204.9 19.7069C204.712 19.5187 204.607 19.2635 204.607 18.9974C204.607 18.7313 204.712 18.4761 204.9 18.288C205.088 18.0998 205.343 17.9941 205.608 17.9941H221.63C221.895 17.9941 222.15 18.0998 222.338 18.288C222.526 18.4761 222.631 18.7313 222.631 18.9974C222.631 19.2635 222.526 19.5187 222.338 19.7069C222.15 19.895 221.895 20.0007 221.63 20.0007V20.0007Z" fill="white"/>
<path d="M221.63 28.0271H205.608C205.343 28.0271 205.088 27.9214 204.9 27.7332C204.712 27.5451 204.607 27.2899 204.607 27.0238C204.607 26.7577 204.712 26.5025 204.9 26.3144C205.088 26.1262 205.343 26.0205 205.608 26.0205H221.63C221.895 26.0205 222.15 26.1262 222.338 26.3144C222.526 26.5025 222.631 26.7577 222.631 27.0238C222.631 27.2899 222.526 27.5451 222.338 27.7332C222.15 27.9214 221.895 28.0271 221.63 28.0271V28.0271Z" fill="white"/>
<path d="M72.1937 28.0271H56.1722C55.9067 28.0271 55.652 27.9214 55.4642 27.7332C55.2764 27.5451 55.1709 27.2899 55.1709 27.0238C55.1709 26.7577 55.2764 26.5025 55.4642 26.3144C55.652 26.1262 55.9067 26.0205 56.1722 26.0205H72.1937C72.4592 26.0205 72.7139 26.1262 72.9017 26.3144C73.0895 26.5025 73.195 26.7577 73.195 27.0238C73.195 27.2899 73.0895 27.5451 72.9017 27.7332C72.7139 27.9214 72.4592 28.0271 72.1937 28.0271Z" fill="white"/>
<path d="M72.1937 36.0535H56.1722C55.9067 36.0535 55.652 35.9478 55.4642 35.7596C55.2764 35.5714 55.1709 35.3163 55.1709 35.0502C55.1709 34.7841 55.2764 34.5289 55.4642 34.3407C55.652 34.1526 55.9067 34.0469 56.1722 34.0469H72.1937C72.4592 34.0469 72.7139 34.1526 72.9017 34.3407C73.0895 34.5289 73.195 34.7841 73.195 35.0502C73.195 35.3163 73.0895 35.5714 72.9017 35.7596C72.7139 35.9478 72.4592 36.0535 72.1937 36.0535Z" fill="white"/>
<path d="M72.1937 44.0798H56.1722C55.9067 44.0798 55.652 43.9741 55.4642 43.786C55.2764 43.5978 55.1709 43.3426 55.1709 43.0765C55.1709 42.8104 55.2764 42.5552 55.4642 42.3671C55.652 42.1789 55.9067 42.0732 56.1722 42.0732H72.1937C72.4592 42.0732 72.7139 42.1789 72.9017 42.3671C73.0895 42.5552 73.195 42.8104 73.195 43.0765C73.195 43.3426 73.0895 43.5978 72.9017 43.786C72.7139 43.9741 72.4592 44.0798 72.1937 44.0798Z" fill="white"/>
<path d="M134.944 270.825H118.923C118.657 270.825 118.402 270.719 118.215 270.531C118.027 270.343 117.921 270.088 117.921 269.822C117.921 269.556 118.027 269.3 118.215 269.112C118.402 268.924 118.657 268.818 118.923 268.818H134.944C135.21 268.818 135.464 268.924 135.652 269.112C135.84 269.3 135.945 269.556 135.945 269.822C135.945 270.088 135.84 270.343 135.652 270.531C135.464 270.719 135.21 270.825 134.944 270.825Z" fill="white"/>
<path d="M134.944 278.851H118.923C118.657 278.851 118.402 278.746 118.215 278.557C118.027 278.369 117.921 278.114 117.921 277.848C117.921 277.582 118.027 277.327 118.215 277.139C118.402 276.95 118.657 276.845 118.923 276.845H134.944C135.21 276.845 135.464 276.95 135.652 277.139C135.84 277.327 135.945 277.582 135.945 277.848C135.945 278.114 135.84 278.369 135.652 278.557C135.464 278.746 135.21 278.851 134.944 278.851Z" fill="white"/>
<path d="M134.944 286.878H118.923C118.657 286.878 118.402 286.772 118.215 286.584C118.027 286.396 117.921 286.14 117.921 285.874C117.921 285.608 118.027 285.353 118.215 285.165C118.402 284.977 118.657 284.871 118.923 284.871H134.944C135.21 284.871 135.464 284.977 135.652 285.165C135.84 285.353 135.945 285.608 135.945 285.874C135.945 286.14 135.84 286.396 135.652 286.584C135.464 286.772 135.21 286.878 134.944 286.878Z" fill="white"/>
<path d="M449.95 240.532L405.37 230.428L388.854 268.818L384.181 347.075L396.356 410.617H420.754L409.548 347.075L412.218 298.917L424.728 356.751L457.877 404.733L473.172 391.497L446.931 346.407C446.931 346.407 457.917 265.458 446.264 251.428L449.95 240.532Z" fill="#2F2E41"/>
<path d="M423.348 164.298L426.919 162.954L431.423 155.657L447.466 156.971L451.365 164.794L460.759 171.982L456.651 193.66L450.269 219.991L407.545 214.64L407.59 194.818C407.59 194.818 399.87 179.158 412.341 173.29L423.348 164.298Z" fill="#E6E6E6"/>
<path d="M357.493 233.055C358.322 233.388 359.215 233.536 360.107 233.486C360.999 233.437 361.87 233.192 362.658 232.769C363.446 232.346 364.131 231.756 364.666 231.038C365.202 230.321 365.573 229.495 365.755 228.619L413.392 199.738L404.685 189.672L360.598 221.226C359.107 221.017 357.593 221.363 356.34 222.199C355.088 223.034 354.184 224.301 353.802 225.759C353.419 227.217 353.583 228.765 354.264 230.11C354.944 231.454 356.093 232.502 357.493 233.055V233.055Z" fill="#A0616A"/>
<path d="M429.266 186.042C429.266 186.042 431.542 188.337 425.83 192.111C421.257 195.132 400.859 210.062 393.628 212.423C393.718 213.487 393.453 214.552 392.873 215.448C392.294 216.344 391.433 217.022 390.427 217.374L383.88 202.959C385.297 199.663 387.564 200.427 388.757 201.174L396.664 195.216L416.08 175.789L427.649 184.354L429.266 186.042Z" fill="#E6E6E6"/>
<path d="M356.26 235.392H337.224C336.586 235.393 335.955 235.252 335.378 234.979C334.801 234.705 334.292 234.306 333.888 233.811C333.474 233.305 333.178 232.713 333.021 232.077C332.864 231.442 332.85 230.78 332.981 230.139C334.51 222.514 334.51 214.661 332.981 207.037C332.85 206.396 332.864 205.733 333.021 205.098C333.178 204.463 333.474 203.87 333.888 203.364C334.284 202.879 334.78 202.487 335.343 202.214C335.905 201.941 336.52 201.794 337.145 201.784C342.932 198.945 349.385 198.945 356.326 201.784C357.362 201.801 358.357 202.187 359.134 202.874C359.91 203.56 360.416 204.502 360.562 205.529C361.737 214.195 361.737 222.98 360.562 231.646C360.415 232.685 359.899 233.636 359.108 234.324C358.318 235.012 357.307 235.391 356.26 235.392V235.392Z" fill="#EF293D"/>
<path d="M356.551 210.424H340.53C340.264 210.424 340.009 210.319 339.822 210.13C339.634 209.942 339.528 209.687 339.528 209.421C339.528 209.155 339.634 208.9 339.822 208.712C340.009 208.523 340.264 208.418 340.53 208.418H356.551C356.817 208.418 357.071 208.523 357.259 208.712C357.447 208.9 357.552 209.155 357.552 209.421C357.552 209.687 357.447 209.942 357.259 210.13C357.071 210.319 356.817 210.424 356.551 210.424Z" fill="white"/>
<path d="M356.551 218.451H340.53C340.264 218.451 340.009 218.345 339.822 218.157C339.634 217.969 339.528 217.713 339.528 217.447C339.528 217.181 339.634 216.926 339.822 216.738C340.009 216.55 340.264 216.444 340.53 216.444H356.551C356.817 216.444 357.071 216.55 357.259 216.738C357.447 216.926 357.552 217.181 357.552 217.447C357.552 217.713 357.447 217.969 357.259 218.157C357.071 218.345 356.817 218.451 356.551 218.451Z" fill="white"/>
<path d="M356.551 226.477H340.53C340.264 226.477 340.009 226.371 339.822 226.183C339.634 225.995 339.528 225.74 339.528 225.474C339.528 225.208 339.634 224.952 339.822 224.764C340.009 224.576 340.264 224.47 340.53 224.47H356.551C356.817 224.47 357.071 224.576 357.259 224.764C357.447 224.952 357.552 225.208 357.552 225.474C357.552 225.74 357.447 225.995 357.259 226.183C357.071 226.371 356.817 226.477 356.551 226.477Z" fill="white"/>
<path d="M448.383 292.914H429.347C428.709 292.915 428.078 292.774 427.501 292.501C426.924 292.227 426.415 291.829 426.011 291.333C425.597 290.827 425.301 290.235 425.144 289.6C424.987 288.964 424.973 288.302 425.104 287.661C426.633 280.036 426.633 272.184 425.104 264.559C424.973 263.918 424.987 263.256 425.144 262.62C425.301 261.985 425.597 261.393 426.011 260.886C426.407 260.401 426.903 260.009 427.466 259.736C428.028 259.463 428.643 259.317 429.268 259.307C435.055 256.467 441.508 256.467 448.449 259.307C449.485 259.323 450.48 259.709 451.257 260.396C452.033 261.082 452.539 262.024 452.685 263.051C453.86 271.717 453.86 280.502 452.685 289.168C452.538 290.207 452.022 291.158 451.232 291.846C450.441 292.534 449.43 292.913 448.383 292.914Z" fill="#CCCCCC"/>
<path d="M448.674 267.947H432.653C432.387 267.947 432.132 267.841 431.945 267.653C431.757 267.465 431.651 267.21 431.651 266.943C431.651 266.677 431.757 266.422 431.945 266.234C432.132 266.046 432.387 265.94 432.653 265.94H448.674C448.94 265.94 449.194 266.046 449.382 266.234C449.57 266.422 449.675 266.677 449.675 266.943C449.675 267.21 449.57 267.465 449.382 267.653C449.194 267.841 448.94 267.947 448.674 267.947V267.947Z" fill="white"/>
<path d="M448.674 275.973H432.653C432.387 275.973 432.132 275.867 431.945 275.679C431.757 275.491 431.651 275.236 431.651 274.97C431.651 274.704 431.757 274.449 431.945 274.26C432.132 274.072 432.387 273.967 432.653 273.967H448.674C448.94 273.967 449.194 274.072 449.382 274.26C449.57 274.449 449.675 274.704 449.675 274.97C449.675 275.236 449.57 275.491 449.382 275.679C449.194 275.867 448.94 275.973 448.674 275.973V275.973Z" fill="white"/>
<path d="M448.674 284H432.653C432.387 284 432.132 283.894 431.945 283.706C431.757 283.517 431.651 283.262 431.651 282.996C431.651 282.73 431.757 282.475 431.945 282.287C432.132 282.099 432.387 281.993 432.653 281.993H448.674C448.94 281.993 449.194 282.099 449.382 282.287C449.57 282.475 449.675 282.73 449.675 282.996C449.675 283.262 449.57 283.517 449.382 283.706C449.194 283.894 448.94 284 448.674 284V284Z" fill="white"/>
<path d="M439.932 264.194C440.765 263.87 441.517 263.366 442.135 262.719C442.752 262.072 443.221 261.297 443.507 260.449C443.794 259.601 443.891 258.7 443.793 257.81C443.694 256.92 443.402 256.062 442.937 255.298L458.007 201.592L444.785 200.208L434.129 253.434C432.899 254.302 432.029 255.592 431.685 257.059C431.34 258.527 431.545 260.07 432.26 261.397C432.976 262.723 434.152 263.74 435.566 264.256C436.98 264.771 438.533 264.749 439.932 264.194V264.194Z" fill="#A0616A"/>
<path d="M460.237 172.111C460.237 172.111 463.464 172.227 461.869 178.894C460.592 184.231 455.901 217.712 452.234 224.388C453.026 225.103 453.558 226.061 453.747 227.112C453.935 228.164 453.769 229.248 453.275 230.194L438.662 224.155C437.449 220.779 438.388 217.714 439.769 217.443L441.476 207.678L443.992 174.922L457.905 171.986L460.237 172.111Z" fill="#E6E6E6"/>
<path d="M448.31 111.26C450.521 114.531 451.95 118.268 452.485 122.183C453.02 126.097 452.646 130.082 451.393 133.827" fill="#FD6584"/>
<path d="M526.253 438.204C526.253 438.309 526.233 438.412 526.193 438.509C526.153 438.606 526.095 438.694 526.021 438.768C525.947 438.842 525.859 438.9 525.763 438.94C525.666 438.98 525.563 439 525.458 439H338.348C338.244 439 338.14 438.979 338.044 438.939C337.948 438.899 337.86 438.841 337.786 438.767C337.713 438.693 337.654 438.605 337.614 438.509C337.574 438.412 337.554 438.309 337.554 438.204C337.554 438.1 337.574 437.996 337.614 437.9C337.654 437.803 337.713 437.715 337.786 437.641C337.86 437.567 337.948 437.509 338.044 437.469C338.14 437.429 338.244 437.408 338.348 437.408H525.458C525.563 437.408 525.666 437.428 525.763 437.468C525.859 437.508 525.947 437.567 526.021 437.641C526.095 437.715 526.153 437.802 526.193 437.899C526.233 437.996 526.253 438.1 526.253 438.204V438.204Z" fill="#CCCCCC"/>
</g>
<defs>
<clipPath id="clip0_1794_65068">
<rect width="543" height="439" fill="white"/>
</clipPath>
</defs>
</svg>
