<svg width="657" height="406" viewBox="0 0 657 406" fill="none" xmlns="http://www.w3.org/2000/svg">
<g clip-path="url(#clip0_2085_91709)">
<path fill-rule="evenodd" clip-rule="evenodd" d="M256.793 14.8157C308.603 20.0673 360.406 27.4945 395.512 59.4771C433.634 94.207 455.732 140.575 445.504 186.735C434.76 235.224 394.025 273.738 342.547 298.51C284.645 326.374 215.638 349.597 154.642 326.703C92.5314 303.39 68.4444 244.578 52.5655 189.667C36.4013 133.769 19.5014 67.5726 67.7602 26.2554C113.969 -13.3066 190.815 8.12804 256.793 14.8157Z" fill="#DDE1EA"/>
<path d="M607.871 305.81C607.157 307.389 606.445 308.948 605.735 310.485C604.627 312.873 603.533 315.215 602.454 317.51C601.974 318.527 601.494 319.525 601.026 320.523C595.732 331.623 590.789 341.44 586.59 349.513C582.781 356.829 577.124 362.958 570.213 367.26C563.302 371.561 555.392 373.876 547.31 373.962L453.955 375.004H452.97L444.968 375.092L438.122 375.168L417.131 375.402H416.281L405.594 375.522H405.268L339.4 376.255L280.605 376.886L273.766 376.962L231.29 377.436H231.241L203.693 377.739H203.398L116.292 378.706L90.2336 378.996C84.6728 379.061 79.1354 378.247 73.8158 376.583C64.5586 373.714 56.2391 368.308 49.7524 360.948C38.5609 348.294 30.4044 333.531 24.9256 317.51C24.1335 315.198 23.3948 312.856 22.7095 310.485C3.74313 244.69 26.8647 159.804 68.4786 102.998C70.2228 100.623 71.9957 98.3065 73.7973 96.0491L73.8404 95.9986C86.6385 79.8767 100.988 66.4082 116.273 56.8311C143.359 39.8311 173.369 35.0426 202.887 49.3135C227.861 61.3922 251.18 67.0715 273.784 68.6129C276.068 68.7645 278.352 68.8783 280.623 68.9477C332.475 70.6218 381.069 51.4487 438.135 39.0731C440.406 38.5803 442.684 38.0939 444.98 37.6327C485.689 29.3191 530.849 24.9349 584.553 34.1518C590.132 35.0872 595.638 36.4385 601.026 38.1949C603.394 38.9783 605.676 39.8206 607.871 40.7219C633.504 51.4235 647.485 71.1967 653.425 95.9733C653.987 98.2728 654.474 100.612 654.884 102.992C665.417 162.59 634.569 247.128 607.871 305.81Z" fill="url(#paint0_linear_2085_91709)"/>
<g opacity="0.1">
<path opacity="0.1" d="M125.685 48.5652V387.842L98.2458 388.149C92.3903 388.217 86.5595 387.359 80.958 385.605V89.8414H81.0034C94.4797 72.8316 109.589 58.6379 125.685 48.5652Z" fill="#EF293D"/>
<path opacity="0.1" d="M692.869 97.2177H75.3574C77.194 94.7145 79.0609 92.2735 80.958 89.8946V89.8413H691.332C691.924 92.2513 692.437 94.7101 692.869 97.2177Z" fill="#DDE1EA"/>
<path opacity="0.1" d="M643.332 31.5951V315.868H641.083C639.916 318.385 638.764 320.853 637.628 323.272C637.122 324.343 636.617 325.395 636.124 326.447V28.9055C638.617 29.731 641.02 30.6276 643.332 31.5951Z" fill="#DDE1EA"/>
<path opacity="0.1" d="M471.81 28.313V383.988L464.602 384.067V29.8309C466.993 29.3116 469.392 28.799 471.81 28.313Z" fill="#EF293D"/>
<path opacity="0.1" d="M298.744 61.3143V385.918L291.542 385.998V60.9614C293.947 61.1212 296.352 61.2144 298.744 61.3143Z" fill="#EF293D"/>
<path opacity="0.1" d="M641.083 315.875C639.916 318.392 638.765 320.86 637.628 323.279H29.4966C28.6626 320.842 27.8848 318.374 27.1631 315.875H641.083Z" fill="#EF293D"/>
</g>
<path d="M169.567 196.187H157.251V234.574H169.567V196.187Z" fill="#282828"/>
<path d="M501.017 194.19H488.701V234.801H501.017V194.19Z" fill="#282828"/>
<path d="M579.561 374.487V383.142L481.085 384.074L480.035 384.094L442.608 384.447L441.713 384.46L430.337 384.56H430L360.654 385.219L246.822 386.304H246.725L217.782 386.584L217.471 386.59L88.8662 387.802V377.816L119.105 359.175L179.778 358.656L181.074 358.649L181.502 358.642L182.798 358.622L211.929 358.376L213.232 358.369L213.647 358.363L214.943 358.356L224.284 358.276L224.53 358.27L247.574 358.07H247.762L427.576 356.512L431.977 356.479H432.418L435.775 356.445L460.181 356.239L461.477 356.219L462.676 356.206H463.298L470.889 356.146L472.393 356.126L474.409 356.113L480.729 356.053L490.757 355.966L492.053 355.953L494.309 355.94H494.73L543.158 355.513L579.561 374.487Z" fill="#282828"/>
<path opacity="0.2" d="M579.561 374.487V383.142L481.085 384.074L480.035 384.094L442.608 384.447L441.713 384.46L430.337 384.56H430L360.654 385.219L246.822 386.304H246.725L217.782 386.584L217.471 386.59L88.8662 387.802V377.816L119.105 359.175L179.778 358.656L181.074 358.649L181.502 358.642L182.798 358.622L211.929 358.376L213.232 358.369L213.647 358.363L214.943 358.356L224.284 358.276L224.53 358.27L247.574 358.07H247.762L427.576 356.512L431.977 356.479H432.418L435.775 356.445L460.181 356.239L461.477 356.219L462.676 356.206H463.298L470.889 356.146L472.393 356.126L474.409 356.113L480.729 356.053L490.757 355.966L492.053 355.953L494.309 355.94H494.73L543.158 355.513L579.561 374.487Z" fill="#DDE1EA"/>
<path d="M212.026 341.207V357.511C212.027 358.283 211.814 359.039 211.412 359.692C211.01 360.345 210.437 360.868 209.758 361.199C209.252 361.451 208.699 361.587 208.137 361.598L185.514 362.091C184.91 362.106 184.311 361.976 183.764 361.712C183.073 361.386 182.488 360.864 182.077 360.206C181.667 359.549 181.449 358.784 181.45 358.003V341.207H212.026Z" fill="#282828"/>
<path opacity="0.1" d="M212.026 341.207V357.511C212.027 358.283 211.814 359.039 211.412 359.692C211.01 360.345 210.437 360.868 209.758 361.199C209.252 361.451 208.699 361.587 208.137 361.598L185.514 362.091C184.91 362.106 184.311 361.976 183.764 361.712C183.073 361.386 182.488 360.864 182.077 360.206C181.667 359.549 181.449 358.784 181.45 358.003V341.207H212.026Z" fill="#DDE1EA"/>
<path d="M213.321 341.207V357.511C213.322 358.283 213.109 359.039 212.707 359.692C212.305 360.345 211.732 360.868 211.052 361.199C210.547 361.451 209.994 361.587 209.432 361.598L186.809 362.091C186.205 362.106 185.606 361.976 185.059 361.712C184.368 361.386 183.783 360.864 183.372 360.206C182.962 359.549 182.744 358.784 182.745 358.003V341.207H213.321Z" fill="#282828"/>
<path d="M492.052 341.207H461.476V362.178H492.052V341.207Z" fill="#282828"/>
<path opacity="0.1" d="M492.052 341.207H461.476V362.178H492.052V341.207Z" fill="#DDE1EA"/>
<path d="M490.755 341.207H460.179V362.178H490.755V341.207Z" fill="#282828"/>
<path opacity="0.1" d="M169.567 196.181V199.996L157.251 199.67V196.181H169.567Z" fill="#DDE1EA"/>
<path d="M250.633 88.7158L235.834 197.898C235.74 198.595 235.4 199.233 234.877 199.689C234.354 200.144 233.687 200.386 233.001 200.368L114.509 197.212L112.259 197.152C111.868 197.143 111.482 197.049 111.129 196.876C110.775 196.703 110.46 196.456 110.206 196.15C109.952 195.844 109.763 195.486 109.652 195.101C109.541 194.715 109.511 194.309 109.563 193.91L126.176 79.6151C126.284 78.9071 126.645 78.2661 127.19 77.8187C127.735 77.3713 128.423 77.15 129.119 77.1985L248.04 85.467C248.424 85.4898 248.799 85.5941 249.141 85.7732C249.483 85.9524 249.786 86.2025 250.03 86.5077C250.273 86.813 250.453 87.1668 250.557 87.5469C250.66 87.9269 250.686 88.325 250.633 88.7158Z" fill="#282828"/>
<path d="M134.13 85.2273L121.601 185.975L230.5 189.523L243.892 92.3241L134.13 85.2273Z" fill="#DDE1EA"/>
<path d="M398.607 83.6697H272.848C270.939 83.6697 269.393 85.2584 269.393 87.2181V195.515C269.393 197.475 270.939 199.063 272.848 199.063H398.607C400.515 199.063 402.062 197.475 402.062 195.515V87.2181C402.062 85.2584 400.515 83.6697 398.607 83.6697Z" fill="#282828"/>
<path d="M396.22 91.4395H275.653V187.526H396.22V91.4395Z" fill="#EDEDED"/>
<path opacity="0.1" d="M501.017 194.184V196.708L488.701 196.967V194.184H501.017Z" fill="#DDE1EA"/>
<path d="M556.588 192.053C556.606 192.329 556.569 192.606 556.48 192.867C556.391 193.128 556.251 193.367 556.069 193.571C555.888 193.775 555.668 193.939 555.423 194.054C555.178 194.168 554.913 194.231 554.644 194.237L433.299 196.814C432.795 196.824 432.305 196.639 431.929 196.294C431.553 195.95 431.317 195.472 431.27 194.956L420.84 83.5902C420.814 83.3139 420.844 83.0351 420.926 82.7707C421.008 82.5063 421.142 82.2618 421.319 82.0521C421.496 81.8423 421.712 81.6716 421.955 81.5503C422.198 81.4291 422.463 81.3598 422.733 81.3466L543.157 75.1951L544.454 75.1286C544.969 75.1007 545.475 75.2795 545.864 75.6273C546.254 75.9751 546.496 76.4646 546.541 76.9927L556.588 192.053Z" fill="#282828"/>
<path d="M427.769 87.8907L537.751 82.3384L547.039 183.532L437.926 186.195L427.769 87.8907Z" fill="#DDE1EA"/>
<path opacity="0.1" d="M556.589 192.053C556.607 192.329 556.57 192.606 556.481 192.867C556.391 193.128 556.252 193.367 556.07 193.571C555.888 193.775 555.669 193.939 555.424 194.054C555.179 194.168 554.914 194.231 554.644 194.237L543.158 75.1951L544.455 75.1286C544.97 75.1007 545.476 75.2795 545.865 75.6273C546.255 75.9751 546.497 76.4646 546.542 76.9927L556.589 192.053Z" fill="#DDE1EA"/>
<path opacity="0.1" d="M129.139 77.192L114.509 197.213L112.259 197.153C111.868 197.143 111.482 197.049 111.129 196.876C110.775 196.703 110.46 196.456 110.206 196.15C109.952 195.844 109.763 195.487 109.652 195.101C109.541 194.715 109.511 194.309 109.563 193.91L126.176 79.6153C126.282 78.9024 126.646 78.2569 127.195 77.8076C127.745 77.3583 128.439 77.1385 129.139 77.192Z" fill="#DDE1EA"/>
<path opacity="0.1" d="M169.567 223.203H157.251V234.574H169.567V223.203Z" fill="#DDE1EA"/>
<path opacity="0.1" d="M213.321 341.2V344.508L182.745 345.347V341.2H213.321Z" fill="#DDE1EA"/>
<path d="M267.285 227.165V339.143C267.277 339.826 267.013 340.481 266.549 340.97C266.084 341.46 265.454 341.747 264.789 341.773L140.56 345.168H140.527C139.851 345.159 139.204 344.88 138.726 344.388C138.248 343.897 137.975 343.233 137.967 342.538V227.165C137.975 226.47 138.248 225.806 138.726 225.315C139.204 224.823 139.851 224.544 140.527 224.535H264.724C265.401 224.544 266.047 224.823 266.525 225.315C267.004 225.806 267.276 226.47 267.285 227.165Z" fill="#282828"/>
<path opacity="0.1" d="M140.56 224.535V345.168H140.527C139.851 345.159 139.204 344.88 138.726 344.388C138.248 343.897 137.975 343.233 137.967 342.538V227.165C137.975 226.47 138.248 225.806 138.726 225.315C139.204 224.823 139.851 224.544 140.527 224.535H140.56Z" fill="#DDE1EA"/>
<path d="M146.231 231.685H261.289V330.381L146.231 333.044V231.685Z" fill="#DDE1EA"/>
<path opacity="0.1" d="M501.017 223.203H488.701V234.8H501.017V223.203Z" fill="#DDE1EA"/>
<path opacity="0.1" d="M490.755 341.2V345.467L460.179 344.628V341.2H490.755Z" fill="#DDE1EA"/>
<path d="M531.108 227.165V342.538C531.099 343.239 530.822 343.908 530.337 344.4C529.852 344.892 529.197 345.168 528.515 345.168L404.259 341.773C403.594 341.747 402.964 341.46 402.5 340.97C402.035 340.481 401.772 339.826 401.764 339.143V227.165C401.772 226.47 402.045 225.806 402.523 225.315C403.001 224.823 403.648 224.544 404.324 224.535H528.521C529.202 224.537 529.855 224.813 530.339 225.305C530.823 225.797 531.099 226.465 531.108 227.165Z" fill="#282828"/>
<path opacity="0.1" d="M531.107 227.165V342.538C531.098 343.239 530.821 343.908 530.336 344.4C529.85 344.892 529.196 345.168 528.514 345.168V224.535C529.196 224.535 529.85 224.811 530.336 225.303C530.821 225.795 531.098 226.464 531.107 227.165Z" fill="#DDE1EA"/>
<path d="M522.843 231.685H407.785V330.381L522.843 333.044V231.685Z" fill="#DDE1EA"/>
<path d="M398.548 227.165V339.143C398.54 339.826 398.276 340.481 397.812 340.97C397.347 341.46 396.717 341.747 396.052 341.773L271.822 345.168C271.14 345.168 270.486 344.892 270 344.4C269.515 343.908 269.238 343.239 269.229 342.538V227.165C269.238 226.47 269.51 225.806 269.989 225.315C270.467 224.823 271.113 224.544 271.79 224.535H395.987C396.664 224.544 397.31 224.823 397.788 225.315C398.267 225.806 398.539 226.47 398.548 227.165Z" fill="#282828"/>
<path d="M277.495 231.685H392.553V330.381L277.495 333.044V231.685Z" fill="#DDE1EA"/>
<path opacity="0.1" d="M579.561 374.488V383.142L481.085 384.074L480.035 384.094L442.608 384.447L441.713 384.46L430.337 384.56H430L360.654 385.219L246.822 386.305H246.725L217.782 386.584L217.471 386.591L88.8662 387.802V377.816L220.135 376.931H220.446L247.017 376.744H247.14L430.635 375.499H430.823L430.933 375.493H431.238L434.343 375.473H435.289L483.574 375.14L486.427 375.127L487.062 375.12L579.561 374.488Z" fill="#DDE1EA"/>
<path d="M335.937 234.574C354.313 234.574 369.209 219.275 369.209 200.402C369.209 181.529 354.313 166.229 335.937 166.229C317.561 166.229 302.664 181.529 302.664 200.402C302.664 219.275 317.561 234.574 335.937 234.574Z" fill="#EDEDED"/>
<path d="M369.216 270.305C369.216 270.305 304.719 278.294 310.877 270.305C313.107 267.416 313.723 258.854 313.6 249.101C313.561 246.138 313.457 243.069 313.308 240.013C312.595 225.367 310.877 211.054 310.877 211.054C310.877 211.054 367.272 183.758 360.79 205.395C358.197 214.136 359.046 226.412 361.016 237.936C361.593 241.298 362.261 244.594 362.961 247.723C364.67 255.355 366.757 262.892 369.216 270.305Z" fill="#EDEDED"/>
<path opacity="0.1" d="M369.216 270.305C369.216 270.305 304.719 278.294 310.877 270.305C313.107 267.416 313.723 258.854 313.6 249.101C323.433 244.787 335.944 248.003 335.944 248.003C349.115 245.306 357.562 245.832 362.961 247.723C364.67 255.355 366.757 262.892 369.216 270.305Z" fill="#DDE1EA"/>
<path d="M246.796 387.057V386.498L360.634 385.226L429.993 384.56H430.187L430.116 385.546L430.213 384.56H430.336V384.447L431.224 375.493L431.561 372.104L431.665 371.046L431.756 370.16L435.762 356.439L439.768 342.738L443.139 331.201L448.285 313.572C448.285 313.572 445.368 306.581 443.748 304.584C442.127 302.587 440.507 288.939 440.507 288.939C440.507 288.939 426.674 275.405 420.626 273.847C418.092 273.181 413.087 272.296 407.772 271.184C405.782 270.771 403.74 270.332 401.776 269.852C400.668 269.593 399.579 269.32 398.535 269.047C396.504 268.526 394.502 267.89 392.539 267.143C391.51 266.759 390.53 266.247 389.622 265.618C384.858 262.03 372.918 261.624 372.458 261.624C372.456 261.608 372.456 261.593 372.458 261.577V261.517C372.474 261.238 372.474 260.958 372.458 260.678C372.458 260.412 372.458 260.099 372.399 259.746C372.399 259.64 372.399 259.527 372.354 259.413C372.322 259.174 372.283 258.921 372.224 258.654C372.205 258.535 372.179 258.418 372.147 258.302C371.959 257.499 371.687 256.72 371.336 255.978C371.291 255.872 371.233 255.758 371.181 255.652C370.863 255.037 370.494 254.451 370.079 253.901C369.995 253.788 369.904 253.668 369.806 253.555C369.276 252.912 368.685 252.323 368.043 251.797C367.868 251.657 367.687 251.511 367.499 251.378C367.394 251.29 367.284 251.21 367.168 251.138L366.591 250.752L366.053 250.432C365.58 250.166 365.081 249.907 364.537 249.66C364.368 249.58 364.187 249.507 364.005 249.434C363.824 249.361 363.538 249.247 363.298 249.154H363.26L362.773 248.955C362.404 248.828 362.028 248.715 361.633 248.602L361.03 248.442L360.382 248.289L359.733 248.149C359.085 248.016 358.392 247.896 357.666 247.803L356.927 247.71L356.168 247.63L355.384 247.563L354.269 247.497L352.973 247.45C347.255 247.449 341.553 248.072 335.963 249.307C332.08 248.42 328.103 248.044 324.127 248.189H323.563L322.915 248.229H322.5L321.664 248.309C321.385 248.309 321.1 248.369 320.821 248.409C320.543 248.449 320.251 248.482 319.972 248.528L319.544 248.602C319.123 248.675 318.695 248.755 318.248 248.848C318.105 248.875 317.963 248.908 317.82 248.948C317.256 249.074 316.692 249.227 316.135 249.401C315.856 249.48 315.577 249.574 315.299 249.674C315.156 249.714 315.02 249.767 314.884 249.82L314.469 249.973L314.06 250.14L313.574 250.339C313.328 250.446 313.088 250.559 312.848 250.679C312.712 250.739 312.576 250.805 312.446 250.879C312.317 250.952 312.181 251.012 312.057 251.085C310.592 251.863 309.237 252.844 308.032 254.001L307.701 254.327L307.377 254.667C307.267 254.78 307.163 254.9 307.06 255.019C306.637 255.494 306.243 255.994 305.88 256.517C305.776 256.657 305.679 256.797 305.582 256.943C305.171 257.567 304.798 258.216 304.467 258.887C304.383 259.047 304.305 259.214 304.227 259.373C303.698 260.498 303.264 261.668 302.931 262.869C302.81 263.312 302.699 263.756 302.6 264.2C302.6 264.2 288.877 270.418 277.495 274.919C274.468 276.117 271.616 277.202 269.23 278.021C268.537 278.261 267.888 278.48 267.286 278.687C265.978 279.172 264.617 279.494 263.234 279.645C262.582 279.656 261.932 279.719 261.29 279.832C256.059 280.704 247.094 284.492 246.115 288.293C246.036 288.597 246.014 288.913 246.05 289.225C246.05 289.225 246.05 289.272 246.05 289.299C246.698 293.959 242.161 293.293 242.161 293.293C242.161 293.293 240.54 305.609 238.272 308.938C236.632 311.335 235.51 316.681 235.368 320.715C235.286 321.972 235.382 323.235 235.653 324.463C235.653 324.497 235.653 324.53 235.653 324.557C235.912 325.449 235.29 327.885 234.233 331.008C233.086 334.436 231.414 338.697 229.806 342.718C227.382 348.79 225.1 354.302 224.957 355.514C224.899 356.053 224.731 357.018 224.497 358.263C223.551 363.336 221.451 372.996 220.414 376.904C219.642 379.82 218.521 383.815 217.749 386.557C217.749 386.637 217.704 386.717 217.685 386.79L246.744 386.498V387.057H246.835H246.796Z" fill="#EF293D"/>
<path opacity="0.1" d="M257.4 308.586C257.4 308.586 294.348 328.225 307.637 325.895L257.4 308.586Z" fill="#DDE1EA"/>
<path opacity="0.1" d="M332.592 300.597C332.592 300.597 368.568 312.58 380.559 314.245C392.551 315.909 332.592 300.597 332.592 300.597Z" fill="#DDE1EA"/>
<path opacity="0.1" d="M372.497 262.036C353.699 265.592 318.307 264.826 303.009 264.287C308.616 243.648 335.957 250.665 335.957 250.665C369.8 243.728 372.393 258.122 372.497 262.036Z" fill="#DDE1EA"/>
<path d="M372.497 260.705C353.699 264.26 318.307 263.494 303.009 262.955C308.616 242.317 335.957 249.334 335.957 249.334C369.8 242.397 372.393 256.79 372.497 260.705Z" fill="#EF293D"/>
<path d="M472.281 351.693C472.281 351.693 494.424 348.198 494.859 358.184C495.293 368.17 483.567 375.147 483.567 375.147L472.281 351.693Z" fill="#EDEDED"/>
<path opacity="0.1" d="M361.017 237.936C360.064 238.374 359.091 238.76 358.1 239.095C351.112 241.571 344.066 244.068 336.709 244.973C329.352 245.879 321.632 245.08 315.214 241.312C314.54 240.921 313.891 240.487 313.27 240.013C312.557 225.367 310.839 211.054 310.839 211.054C310.839 211.054 367.233 183.758 360.751 205.395C358.171 214.136 359.046 226.412 361.017 237.936Z" fill="#DDE1EA"/>
<path d="M326.811 146.989C325.886 147.24 324.917 147.266 323.98 147.063C323.044 146.861 322.166 146.437 321.418 145.824L322.766 147.748C321.972 147.842 321.167 147.757 320.408 147.498C319.648 147.24 318.954 146.814 318.371 146.25C318.249 147.973 318.319 149.704 318.579 151.41C316.348 151.52 314.151 150.813 312.382 149.413C312.347 150.013 312.493 150.61 312.799 151.123C313.105 151.636 313.557 152.041 314.093 152.282C311.852 152.007 309.59 152.579 307.73 153.891C305.869 155.203 304.537 157.165 303.981 159.412L307.365 159.732C304.706 160.315 302.319 161.811 300.598 163.973C299.56 165.304 298.77 167.008 299.223 168.633C299.677 170.257 301.868 171.296 303.061 170.137C301.364 172.217 300.131 174.653 299.448 177.274C298.765 179.895 298.648 182.638 299.107 185.31C299.414 186.448 299.515 187.635 299.405 188.811C299.191 189.91 298.517 190.862 298.18 191.934C297.531 193.878 298.147 195.988 298.724 197.926L301.764 208.191C302.866 211.9 303.962 215.614 305.401 219.203C306.42 221.471 307.286 223.809 307.994 226.2C308.81 229.422 308.843 232.95 310.586 235.767C311.781 237.539 313.379 238.985 315.241 239.981C321.651 243.749 329.398 244.548 336.735 243.642C344.073 242.737 351.113 240.24 358.094 237.764C359.645 237.284 361.133 236.613 362.528 235.767C367.357 232.518 368.433 225.874 369.334 220.022C370.339 213.497 371.68 206.986 374.059 200.848C375.472 197.193 377.3 193.485 376.989 189.57C376.594 184.371 372.588 180.157 371.596 175.044C371.264 173.335 371.28 171.574 371.641 169.871C371.949 168.857 372.121 167.804 372.154 166.742C372.043 164.598 370.332 162.947 368.724 161.569C365.237 158.578 361.637 155.751 357.925 153.088C357.737 151.756 359.5 151.184 360.298 150.132C361.426 148.647 360.259 146.29 358.548 145.598C356.836 144.906 354.918 145.358 353.135 145.818C353.251 144.881 353.07 143.93 352.618 143.107C352.166 142.285 351.467 141.634 350.626 141.252C349.785 140.869 348.846 140.776 347.949 140.986C347.052 141.196 346.245 141.697 345.648 142.416C345.175 141.301 344.418 140.337 343.458 139.625C342.498 138.913 341.37 138.479 340.19 138.368C335.893 138.022 335.808 141.397 333.06 143.255C330.311 145.112 328.043 142.662 325.93 140.878C325.541 141.886 325.418 142.982 325.573 144.055C325.728 145.128 326.155 146.14 326.811 146.989Z" fill="#282828"/>
<path d="M488.702 371.665C488.702 371.665 488.125 373.076 487.062 375.12C485.454 378.264 483.496 381.206 481.228 383.888L481.053 384.081H480.003L442.575 384.434H441.68L441.57 384.3L434.31 375.453L431.575 372.117L431.465 371.977L431.231 371.698L431.102 371.538L430.933 371.332L425.611 364.847L427.556 356.525L430.868 342.505L430.953 342.165L431.601 339.502L432.061 337.505L433.604 330.994L438.893 308.592L448.292 313.585L458.203 331.56L463.525 341.213H466.442C466.993 341.213 468.257 342.305 469.528 343.563C469.981 344.009 470.435 344.482 470.824 344.895C471.978 346.12 472.892 347.172 472.892 347.172C472.892 347.172 477.617 347.278 478.888 351.1C478.953 351.285 479.007 351.474 479.05 351.666C479.472 353.168 480.02 354.629 480.69 356.033C481.526 357.904 482.576 360.027 483.639 362.151C485.616 366.046 487.626 369.754 488.365 371.099L488.455 371.265L488.702 371.665Z" fill="#EF293D"/>
<path opacity="0.1" d="M433.019 341.606L432.954 342.558V342.625L432.844 344.156L431.982 356.479L430.939 371.325L430.64 375.506L429.992 384.454V384.567L360.634 385.233L246.814 386.497V387.057H246.724V386.497V386.311L247.015 376.751L247.573 358.07L248.052 342.232L248.098 340.654C248.126 339.702 248.343 338.766 248.736 337.902C249.128 337.039 249.688 336.267 250.381 335.633C251.074 335 251.885 334.518 252.765 334.217C253.645 333.916 254.576 333.803 255.5 333.884C258.56 334.15 262.533 334.476 267.285 334.822L269.229 334.969C296.668 336.926 347.378 339.456 398.547 336.3C399.623 336.24 400.706 336.174 401.789 336.094C409.723 335.581 417.65 334.922 425.5 334.097C426.492 333.99 427.495 334.108 428.439 334.442C429.382 334.777 430.242 335.319 430.959 336.032C431.676 336.745 432.232 337.611 432.588 338.568C432.944 339.525 433.091 340.551 433.019 341.573V341.606Z" fill="#DDE1EA"/>
<path d="M246.796 387.057V386.497L360.635 385.226L429.993 384.56H430.188V384.447L430.836 375.499L431.115 371.505L432.178 356.452L433.014 344.535V344.242C433.052 343.693 433.029 343.141 432.943 342.598C432.946 342.576 432.946 342.554 432.943 342.531C432.764 341.408 432.319 340.347 431.646 339.442C430.932 338.502 429.997 337.765 428.929 337.299C427.861 336.833 426.694 336.654 425.54 336.779C417.69 337.605 409.763 338.264 401.828 338.777C400.746 338.857 399.663 338.923 398.587 338.983C347.418 342.105 296.708 339.576 269.269 337.652L267.325 337.505C262.573 337.159 258.6 336.839 255.54 336.566C253.857 336.42 252.181 336.92 250.836 337.969C249.49 339.018 248.571 340.541 248.254 342.245C248.189 342.606 248.15 342.971 248.138 343.337L247.697 358.09L247.094 376.777L246.809 386.338V386.524V387.083L246.796 387.057Z" fill="#282828"/>
<path opacity="0.1" d="M433.215 346.273L432.417 356.479L431.231 371.691L430.933 375.499L430.285 384.028L430.246 384.454V384.567L430.149 385.552L430.22 384.567H430.032L360.674 385.233L246.815 386.498V386.311L247.133 376.751L247.781 358.07L248.196 345.654C248.217 344.948 248.409 344.258 248.755 343.647C249.102 343.037 249.591 342.525 250.18 342.159C250.914 341.697 251.772 341.487 252.63 341.56C253.991 341.673 255.663 341.806 257.615 341.953C260.784 342.192 264.693 342.472 269.244 342.765C277.67 343.311 288.243 343.897 300.358 344.376C334.065 345.707 379.569 346.153 422.792 342.265C424.736 342.092 426.746 341.899 428.71 341.706C429.487 341.627 430.27 341.779 430.965 342.146C431.162 342.246 431.349 342.367 431.523 342.505C432.087 342.925 432.534 343.49 432.819 344.143C432.885 344.273 432.94 344.409 432.981 344.549C433.176 345.101 433.256 345.688 433.215 346.273Z" fill="#DDE1EA"/>
<path opacity="0.1" d="M213.321 355.387V357.511C213.322 358.283 213.109 359.04 212.707 359.693C212.305 360.345 211.732 360.868 211.052 361.199L185.059 361.712C184.368 361.386 183.783 360.864 183.372 360.207C182.962 359.549 182.744 358.784 182.745 358.004V356.006L213.321 355.387Z" fill="#DDE1EA"/>
<path d="M213.646 362.451L179.777 363.116V357.344L213.646 356.679V362.451Z" fill="#282828"/>
<path opacity="0.1" d="M213.646 362.451L179.777 363.116V357.344L213.646 356.679V362.451Z" fill="#DDE1EA"/>
<path d="M214.942 362.451L181.073 363.116V357.344L214.942 356.679V362.451Z" fill="#282828"/>
<g opacity="0.1">
<path opacity="0.1" d="M327.076 144.805C326.443 143.96 326.022 142.967 325.851 141.916C325.695 142.944 325.788 143.996 326.123 144.978C326.445 144.947 326.764 144.89 327.076 144.805Z" fill="#DDE1EA"/>
<path opacity="0.1" d="M318.843 149.225C318.721 148.409 318.641 147.587 318.604 146.762C318.604 147.581 318.604 148.406 318.604 149.232L318.843 149.225Z" fill="#DDE1EA"/>
<path opacity="0.1" d="M371.673 171.441C371.708 170.848 371.786 170.258 371.906 169.677C372.213 168.664 372.387 167.614 372.425 166.554C372.41 166.316 372.375 166.08 372.321 165.849C372.211 166.461 372.036 167.074 371.906 167.679C371.647 168.914 371.568 170.182 371.673 171.441Z" fill="#DDE1EA"/>
<path opacity="0.1" d="M358.19 150.87L358.896 151.396C359.492 150.953 360.049 150.459 360.562 149.918C360.806 149.571 360.957 149.165 361 148.74C361.044 148.315 360.977 147.885 360.808 147.494C360.744 147.646 360.661 147.789 360.562 147.92C359.765 148.972 358.002 149.552 358.19 150.87Z" fill="#DDE1EA"/>
<path opacity="0.1" d="M304.926 157.274C304.69 157.76 304.501 158.268 304.362 158.792C305.376 158.211 306.469 157.787 307.603 157.534L304.926 157.274Z" fill="#DDE1EA"/>
<path opacity="0.1" d="M313.866 150.031C313.44 149.79 313.033 149.516 312.647 149.212C312.631 149.476 312.65 149.74 312.706 149.998C313.093 149.979 313.48 149.99 313.866 150.031Z" fill="#DDE1EA"/>
<path opacity="0.1" d="M377.241 189.257C376.975 192.485 375.51 195.595 374.324 198.657C371.945 204.795 370.603 211.306 369.599 217.837C368.698 223.689 367.654 230.333 362.792 233.575C361.403 234.428 359.916 235.099 358.365 235.573C351.377 238.056 344.331 240.546 336.974 241.451C329.617 242.356 321.897 241.564 315.479 237.796C313.619 236.799 312.022 235.353 310.825 233.582C309.095 230.766 309.062 227.237 308.232 224.015C307.525 221.623 306.659 219.283 305.64 217.012C304.207 213.43 303.105 209.688 302.01 206.007C300.994 202.585 299.981 199.161 298.97 195.734C298.636 194.704 298.389 193.646 298.231 192.572C297.978 194.276 298.47 196.061 298.97 197.732C299.981 201.162 300.994 204.586 302.01 208.004C303.105 211.712 304.207 215.427 305.64 219.009C306.659 221.28 307.525 223.62 308.232 226.012C309.049 229.235 309.082 232.763 310.825 235.579C312.022 237.35 313.619 238.796 315.479 239.793C321.897 243.561 329.636 244.354 336.974 243.448C344.312 242.543 351.351 240.053 358.365 237.57C359.916 237.096 361.403 236.425 362.792 235.573C367.622 232.33 368.698 225.686 369.599 219.834C370.603 213.303 371.945 206.792 374.324 200.654C375.737 197.006 377.565 193.298 377.254 189.376C377.254 189.336 377.241 189.297 377.241 189.257Z" fill="#DDE1EA"/>
<path opacity="0.1" d="M299.656 186.68C299.656 186.68 299.656 186.634 299.656 186.607C299.773 185.433 299.672 184.247 299.358 183.112C299.229 182.381 299.144 181.643 299.105 180.902C299.031 182.309 299.116 183.721 299.358 185.109C299.462 185.628 299.579 186.154 299.656 186.68Z" fill="#DDE1EA"/>
<path opacity="0.1" d="M301.634 170.396C302.133 169.536 302.698 168.719 303.326 167.953C302.14 169.118 299.949 168.079 299.489 166.461C299.319 167.116 299.319 167.804 299.489 168.459C299.648 168.947 299.931 169.384 300.307 169.724C300.684 170.064 301.142 170.296 301.634 170.396Z" fill="#DDE1EA"/>
</g>
<path opacity="0.1" d="M463.531 341.207C463.531 341.207 465.586 348.863 463.531 355.52C461.477 362.178 463.531 341.207 463.531 341.207Z" fill="#DDE1EA"/>
<path opacity="0.1" d="M472.282 349.016C472.282 349.016 473.144 358.736 471.2 360.46C469.255 362.184 472.282 349.016 472.282 349.016Z" fill="#DDE1EA"/>
<path d="M149.078 247.47L214.943 246.804" stroke="#EF293D" stroke-width="1.59603" stroke-miterlimit="10"/>
<path d="M149.078 255.772L214.943 255.113" stroke="#EF293D" stroke-width="1.59603" stroke-miterlimit="10"/>
<path d="M149.078 264.08L214.943 263.415" stroke="#EF293D" stroke-width="1.59603" stroke-miterlimit="10"/>
</g>
<defs>
<linearGradient id="paint0_linear_2085_91709" x1="336.5" y1="312.384" x2="336.815" y2="417.859" gradientUnits="userSpaceOnUse">
<stop offset="0.412277" stop-color="white"/>
<stop offset="1" stop-color="#C6C6C6"/>
</linearGradient>
<clipPath id="clip0_2085_91709">
<rect width="657" height="406" fill="white"/>
</clipPath>
</defs>
</svg>
