<svg width="533" height="470" viewBox="0 0 533 470" fill="none" xmlns="http://www.w3.org/2000/svg">
<path fill-rule="evenodd" clip-rule="evenodd" d="M195.282 51.4298C238.704 55.8436 282.119 62.086 311.541 88.9664C343.491 118.156 362.011 157.127 353.439 195.923C344.434 236.677 310.295 269.047 267.152 289.867C218.624 313.285 160.79 332.804 109.67 313.562C57.6157 293.968 37.4286 244.539 24.1207 198.387C10.5736 151.407 -3.59004 95.7704 36.8552 61.0445C75.5823 27.7938 139.987 45.809 195.282 51.4298Z" fill="#DDE1EA"/>
<path d="M223.56 162.409C198.421 160.431 191.939 157.899 166.978 154.328C135.712 149.868 120.114 145.872 89.0948 151.826C58.0757 157.78 27.5992 176.137 15.5823 205.393C0.477236 242.186 19.1143 286.16 49.8374 311.341C80.5605 336.523 120.656 346.68 159.707 353.752C193.626 359.904 228.089 364.266 262.502 362.466C296.915 360.665 331.466 352.486 361.163 334.92C398.121 313.042 425.579 277.911 446.702 240.465C462.024 213.316 474.683 183.703 475.995 152.528C477.307 121.353 465.586 88.299 440.21 70.2388C408.254 47.4905 362.475 53.959 329.71 75.5204C300.18 94.9652 289.436 108.031 272.319 134.785C265.723 145.257 256.139 153.499 244.812 158.443C238.15 161.462 230.859 162.822 223.56 162.409Z" fill="white"/>
<path d="M365.497 97.1709C365.353 95.5144 365.086 93.87 364.697 92.2503C364.187 90.3669 363.391 88.5661 362.335 86.9061C359.841 82.9125 355.979 79.8792 351.413 78.3275C346.847 76.7759 341.862 76.8028 337.314 78.4036C335.428 79.0479 333.656 79.9669 332.06 81.1286C330.37 82.307 328.89 83.741 327.676 85.3751C325.057 88.7933 323.644 92.9287 323.644 97.1757C323.644 101.423 325.057 105.558 327.676 108.976C330.102 112.166 333.456 114.592 337.314 115.948C341.863 117.537 346.844 117.558 351.407 116.008C355.97 114.457 359.833 111.431 362.335 107.445C363.391 105.785 364.187 103.985 364.697 102.101C365.086 100.478 365.354 98.8306 365.497 97.1709C365.513 97.2827 365.513 97.396 365.497 97.5079C365.497 97.7679 365.497 98.0857 365.497 98.4708C365.502 98.9999 365.458 99.5282 365.367 100.05C365.296 100.765 365.165 101.473 364.977 102.168C364.511 104.098 363.738 105.946 362.685 107.647C361.31 109.925 359.484 111.921 357.311 113.521C354.669 115.485 351.583 116.821 348.303 117.421C344.538 118.107 340.65 117.811 337.044 116.564C335.091 115.904 333.254 114.959 331.6 113.762C329.85 112.55 328.316 111.073 327.056 109.39C324.333 105.857 322.863 101.574 322.863 97.1757C322.863 92.7769 324.333 88.4947 327.056 84.961C329.573 81.6627 333.059 79.1644 337.064 77.7873C340.671 76.5403 344.558 76.2444 348.323 76.9303C351.3 77.4843 354.12 78.6426 356.595 80.3279C359.07 82.0132 361.142 84.1869 362.675 86.7039C363.728 88.4055 364.501 90.2538 364.967 92.183C365.155 92.878 365.286 93.5864 365.357 94.3014C365.448 94.82 365.491 95.3451 365.487 95.8709C365.487 96.2657 365.487 96.5835 365.487 96.8339C365.507 96.9452 365.511 97.0586 365.497 97.1709Z" fill="white"/>
<path d="M393.861 131.084C393.751 131.248 386.274 126.616 377.177 120.742C368.079 114.868 360.793 109.967 360.904 109.804C361.014 109.64 368.49 114.271 377.587 120.155C386.685 126.038 393.971 130.92 393.861 131.084Z" fill="white"/>
<path fill-rule="evenodd" clip-rule="evenodd" d="M408.007 310.714V306.111H399.941V310.714C399.933 311.66 400.289 312.576 400.938 313.286C401.588 313.996 402.487 314.452 403.463 314.565V318.571H401.652C401.021 318.571 400.511 318.918 400.511 319.341H407.397C407.397 318.918 406.886 318.571 406.256 318.571H404.464V314.556C405.443 314.447 406.345 313.995 406.998 313.286C407.652 312.577 408.011 311.661 408.007 310.714Z" fill="white"/>
<path d="M208.014 65.542H16.3672C12.8518 65.542 10.002 68.2839 10.002 71.6662V331.684C10.002 335.066 12.8518 337.808 16.3672 337.808H208.014C211.53 337.808 214.379 335.066 214.379 331.684V71.6662C214.379 68.2839 211.53 65.542 208.014 65.542Z" fill="#EF293D"/>
<g opacity="0.3">
<path opacity="0.85" d="M208.014 65.542H16.3672C12.8518 65.542 10.002 68.2839 10.002 71.6662V331.684C10.002 335.066 12.8518 337.808 16.3672 337.808H208.014C211.53 337.808 214.379 335.066 214.379 331.684V71.6662C214.379 68.2839 211.53 65.542 208.014 65.542Z" fill="black"/>
</g>
<path d="M200.04 80.1028H24.3457V328.276H200.04V80.1028Z" fill="white"/>
<path d="M197.617 78.1189H21.9229V321.555H197.617V78.1189Z" fill="white"/>
<path d="M197.627 321.545C197.627 319.514 197.526 221.748 197.386 78.119L197.627 78.3405H21.9526L22.2128 78.0901C22.2128 169.5 22.2128 253.948 22.1628 321.517L21.9526 321.314L197.657 321.517L21.9526 321.719H21.7424V321.517C21.7424 253.948 21.7424 169.5 21.6924 78.0901V77.8687H21.9826H197.657H197.887V78.0998C197.717 221.748 197.627 319.514 197.627 321.545Z" fill="#263238"/>
<path d="M135.296 321.546C135.296 321.546 180.443 305.012 197.207 277.588C192.011 281.073 186.136 283.51 179.935 284.751C173.734 285.992 167.336 286.012 161.127 284.81C161.127 284.81 149.177 315.498 135.296 321.546Z" fill="white"/>
<path d="M135.296 321.546L136.047 321.141C136.796 320.746 137.518 320.306 138.209 319.822C140.75 317.949 143.021 315.761 144.964 313.313C150.068 307.083 155.843 297.146 160.907 284.734L160.987 284.551H161.177C166.562 285.591 172.097 285.699 177.521 284.868C178.952 284.695 180.353 284.329 181.794 284.04C183.235 283.751 184.637 283.289 186.038 282.788C188.906 281.815 191.671 280.58 194.294 279.1C195.295 278.532 196.226 277.955 197.047 277.358L198.128 276.558L197.427 277.675C194.673 282.039 191.421 286.093 187.729 289.76C184.289 293.145 180.611 296.299 176.72 299.197C170.149 304.063 163.188 308.423 155.903 312.234C149.718 315.499 144.544 317.81 140.951 319.322C139.149 320.082 137.728 320.631 136.767 320.987L135.676 321.392C135.55 321.442 135.42 321.481 135.286 321.507C135.286 321.507 135.406 321.44 135.656 321.344L136.737 320.901C137.678 320.506 139.079 319.938 140.871 319.148C144.434 317.579 149.578 315.22 155.733 311.926C162.985 308.099 169.918 303.737 176.47 298.879C180.333 295.988 183.981 292.841 187.389 289.461C191.05 285.817 194.279 281.793 197.017 277.463L197.397 277.781C196.496 278.425 195.56 279.022 194.595 279.572C191.941 281.062 189.146 282.307 186.248 283.289C184.827 283.8 183.376 284.175 181.944 284.56C180.513 284.945 179.072 285.225 177.621 285.388C172.141 286.217 166.552 286.096 161.117 285.032L161.378 284.888C156.263 297.338 150.368 307.266 145.214 313.477C143.239 315.928 140.918 318.103 138.319 319.938C137.373 320.576 136.36 321.115 135.296 321.546V321.546Z" fill="#263238"/>
<path d="M60.5333 144.454H45.9013C44.011 144.454 42.4785 145.929 42.4785 147.748V161.825C42.4785 163.644 44.011 165.119 45.9013 165.119H60.5333C62.4237 165.119 63.9561 163.644 63.9561 161.825V147.748C63.9561 145.929 62.4237 144.454 60.5333 144.454Z" fill="#EF293D"/>
<path d="M51.8679 157.77C51.7986 157.767 51.7308 157.75 51.6688 157.72C51.6068 157.69 51.5519 157.648 51.5076 157.597L48.5051 154.227C48.4204 154.128 48.3793 154.001 48.3905 153.873C48.4017 153.746 48.4644 153.627 48.5652 153.543C48.6108 153.498 48.6653 153.463 48.7255 153.438C48.7856 153.414 48.8502 153.402 48.9155 153.402C48.9807 153.402 49.0453 153.414 49.1054 153.438C49.1656 153.463 49.2201 153.498 49.2657 153.543L51.9179 156.528L58.9237 149.663C59.0189 149.574 59.1463 149.524 59.279 149.524C59.4116 149.524 59.539 149.574 59.6343 149.663C59.6812 149.707 59.7184 149.761 59.7438 149.819C59.7692 149.878 59.7823 149.941 59.7823 150.005C59.7823 150.068 59.7692 150.131 59.7438 150.19C59.7184 150.248 59.6812 150.302 59.6343 150.346L52.2882 157.588C52.2361 157.645 52.1715 157.692 52.0989 157.723C52.0264 157.755 51.9475 157.771 51.8679 157.77V157.77Z" fill="white"/>
<path d="M177.129 146.969C177.129 147.113 154.27 147.219 126.087 147.219C97.9037 147.219 75.0449 147.113 75.0449 146.969C75.0449 146.824 97.8937 146.718 126.087 146.718C154.28 146.718 177.129 146.815 177.129 146.969Z" fill="#263238"/>
<path d="M118.041 162.084C117.48 162.157 116.915 162.189 116.349 162.181L111.735 162.258C107.852 162.306 102.468 162.335 96.533 162.335C90.5982 162.335 85.2137 162.335 81.3205 162.258L76.7068 162.181C76.1446 162.189 75.5826 162.156 75.0254 162.084C75.582 162.006 76.1445 161.974 76.7068 161.988L81.3205 161.901C85.2137 161.901 90.5882 161.834 96.533 161.834C102.478 161.834 107.852 161.834 111.735 161.901L116.349 161.988C116.915 161.974 117.481 162.006 118.041 162.084V162.084Z" fill="#263238"/>
<path d="M177.129 153.669C177.129 153.804 154.27 153.919 126.087 153.919C97.9037 153.919 75.0449 153.804 75.0449 153.669C75.0449 153.534 97.8937 153.419 126.087 153.419C154.28 153.419 177.129 153.554 177.129 153.669Z" fill="#263238"/>
<path d="M60.5333 180.728H45.9013C44.011 180.728 42.4785 182.203 42.4785 184.021V198.099C42.4785 199.918 44.011 201.393 45.9013 201.393H60.5333C62.4237 201.393 63.9561 199.918 63.9561 198.099V184.021C63.9561 182.203 62.4237 180.728 60.5333 180.728Z" fill="#EF293D"/>
<path d="M51.8676 193.995C51.7987 193.995 51.7305 193.981 51.6681 193.953C51.6058 193.924 51.5508 193.883 51.5073 193.831L48.5049 190.451C48.4622 190.403 48.4297 190.348 48.4094 190.288C48.389 190.227 48.3812 190.164 48.3863 190.101C48.3914 190.038 48.4094 189.977 48.4392 189.92C48.469 189.864 48.51 189.814 48.5599 189.773C48.6099 189.731 48.6677 189.7 48.7302 189.681C48.7927 189.661 48.8586 189.654 48.9241 189.658C48.9896 189.663 49.0535 189.681 49.1121 189.709C49.1707 189.738 49.2228 189.777 49.2655 189.825L51.9177 192.801L58.9234 185.945C58.9679 185.894 59.0228 185.853 59.0847 185.824C59.1465 185.794 59.214 185.778 59.2829 185.775C59.3518 185.772 59.4206 185.782 59.4849 185.806C59.5493 185.83 59.6079 185.866 59.657 185.913C59.7061 185.959 59.7447 186.015 59.7703 186.077C59.7959 186.138 59.808 186.204 59.8058 186.271C59.8037 186.337 59.7873 186.402 59.7577 186.462C59.7281 186.522 59.686 186.575 59.634 186.619L52.288 193.85C52.2339 193.904 52.1679 193.944 52.0951 193.969C52.0223 193.994 51.9445 194.003 51.8676 193.995V193.995Z" fill="white"/>
<path d="M177.129 183.24C177.129 183.375 154.27 183.49 126.087 183.49C97.9037 183.49 75.0449 183.375 75.0449 183.24C75.0449 183.105 97.8937 182.99 126.087 182.99C154.28 182.99 177.129 183.105 177.129 183.24Z" fill="#263238"/>
<path d="M118.041 198.358C117.48 198.43 116.915 198.463 116.349 198.454L111.735 198.531C107.852 198.531 102.468 198.608 96.533 198.608C90.5982 198.608 85.2137 198.608 81.3205 198.531L76.7068 198.454C76.1446 198.462 75.5826 198.43 75.0254 198.358C75.5819 198.279 76.1443 198.243 76.7068 198.252L81.3205 198.175C85.2137 198.127 90.5882 198.108 96.533 198.108C102.478 198.108 107.852 198.108 111.735 198.175L116.349 198.252C116.915 198.243 117.481 198.279 118.041 198.358V198.358Z" fill="#263238"/>
<path d="M177.129 189.943C177.129 190.078 154.27 190.193 126.087 190.193C97.9037 190.193 75.0449 190.078 75.0449 189.943C75.0449 189.808 97.8937 189.692 126.087 189.692C154.28 189.692 177.129 189.798 177.129 189.943Z" fill="#263238"/>
<path d="M60.5333 217.001H45.9013C44.011 217.001 42.4785 218.476 42.4785 220.294V234.372C42.4785 236.191 44.011 237.666 45.9013 237.666H60.5333C62.4237 237.666 63.9561 236.191 63.9561 234.372V220.294C63.9561 218.476 62.4237 217.001 60.5333 217.001Z" fill="#EF293D"/>
<path d="M51.8676 230.308C51.799 230.306 51.7315 230.291 51.6694 230.263C51.6074 230.235 51.5521 230.194 51.5073 230.144L48.5049 226.764C48.4186 226.667 48.376 226.541 48.3863 226.414C48.3966 226.287 48.4591 226.169 48.5599 226.086C48.6608 226.003 48.7918 225.962 48.9241 225.971C49.0564 225.981 49.1792 226.041 49.2655 226.139L51.9177 229.114L58.9234 222.258C58.9679 222.207 59.0228 222.166 59.0847 222.137C59.1465 222.107 59.214 222.091 59.2829 222.088C59.3518 222.085 59.4206 222.095 59.4849 222.119C59.5493 222.143 59.6079 222.179 59.657 222.226C59.7061 222.272 59.7447 222.328 59.7703 222.39C59.7959 222.451 59.808 222.517 59.8058 222.584C59.8037 222.65 59.7873 222.715 59.7577 222.775C59.7281 222.835 59.686 222.888 59.634 222.932L52.288 230.164C52.2339 230.217 52.1679 230.257 52.0951 230.282C52.0223 230.307 51.9445 230.316 51.8676 230.308Z" fill="white"/>
<path d="M177.129 219.515C177.129 219.649 154.27 219.765 126.087 219.765C97.9037 219.765 75.0449 219.649 75.0449 219.515C75.0449 219.38 97.8937 219.264 126.087 219.264C154.28 219.264 177.129 219.37 177.129 219.515Z" fill="#263238"/>
<path d="M118.041 234.623C117.481 234.702 116.915 234.734 116.349 234.72L111.735 234.806C107.852 234.806 102.468 234.874 96.533 234.874C90.5982 234.874 85.2137 234.874 81.3205 234.806L76.7068 234.72C76.1445 234.734 75.582 234.702 75.0254 234.623C75.5826 234.551 76.1446 234.519 76.7068 234.527L81.3205 234.45C85.2137 234.45 90.5882 234.373 96.533 234.373C102.478 234.373 107.852 234.373 111.735 234.45L116.349 234.527C116.915 234.519 117.48 234.551 118.041 234.623Z" fill="#263238"/>
<path d="M177.129 226.206C177.129 226.35 154.27 226.456 126.087 226.456C97.9037 226.456 75.0449 226.35 75.0449 226.206C75.0449 226.061 97.8937 225.955 126.087 225.955C154.28 225.955 177.129 226.071 177.129 226.206Z" fill="#263238"/>
<path d="M60.5333 253.264H45.9013C44.011 253.264 42.4785 254.738 42.4785 256.557V270.635C42.4785 272.454 44.011 273.928 45.9013 273.928H60.5333C62.4237 273.928 63.9561 272.454 63.9561 270.635V256.557C63.9561 254.738 62.4237 253.264 60.5333 253.264Z" fill="#EF293D"/>
<path d="M51.8679 266.582C51.7986 266.578 51.7308 266.561 51.6688 266.531C51.6068 266.502 51.5519 266.46 51.5076 266.408L48.5051 263.038C48.4204 262.939 48.3793 262.812 48.3905 262.685C48.4017 262.557 48.4644 262.438 48.5652 262.354C48.6147 262.313 48.6724 262.282 48.7347 262.262C48.7971 262.243 48.8628 262.236 48.9281 262.241C48.9935 262.246 49.057 262.264 49.115 262.294C49.173 262.323 49.2242 262.363 49.2657 262.412L51.9179 265.388L58.9237 258.522C58.9702 258.477 59.0255 258.441 59.0865 258.417C59.1475 258.392 59.2129 258.38 59.2789 258.38C59.345 258.38 59.4104 258.392 59.4714 258.417C59.5324 258.441 59.5877 258.477 59.6342 258.522C59.6808 258.566 59.7179 258.618 59.7431 258.676C59.7684 258.734 59.7814 258.796 59.7814 258.859C59.7814 258.922 59.7684 258.984 59.7431 259.042C59.7179 259.1 59.6808 259.152 59.6342 259.196L52.2882 266.437C52.2325 266.488 52.1664 266.527 52.094 266.552C52.0216 266.577 51.9445 266.587 51.8679 266.582V266.582Z" fill="white"/>
<path d="M177.129 255.788C177.129 255.922 154.27 256.038 126.087 256.038C97.9037 256.038 75.0449 255.922 75.0449 255.788C75.0449 255.653 97.8937 255.528 126.087 255.528C154.28 255.528 177.129 255.624 177.129 255.788Z" fill="#263238"/>
<path d="M118.041 270.895C117.481 270.973 116.915 271.005 116.349 270.991L111.735 271.068C107.852 271.068 102.468 271.145 96.533 271.145C90.5982 271.145 85.2137 271.145 81.3205 271.068L76.7068 270.991C76.1445 271.005 75.582 270.973 75.0254 270.895C75.582 270.816 76.1445 270.784 76.7068 270.798L81.3205 270.721C85.2137 270.673 90.5882 270.644 96.533 270.644C102.478 270.644 107.852 270.644 111.735 270.721L116.349 270.798C116.915 270.784 117.481 270.816 118.041 270.895V270.895Z" fill="#263238"/>
<path d="M177.129 262.479C177.129 262.614 154.27 262.73 126.087 262.73C97.9037 262.73 75.0449 262.614 75.0449 262.479C75.0449 262.345 97.8937 262.229 126.087 262.229C154.28 262.229 177.129 262.364 177.129 262.479Z" fill="#263238"/>
<path d="M77.2569 125.1C76.9802 125.412 76.6343 125.661 76.2446 125.828C75.8549 125.994 75.4313 126.075 75.005 126.063C73.8341 126.063 73.0034 125.63 71.7023 124.349C70.5758 124.297 69.5143 123.826 68.7415 123.035C67.9686 122.245 67.5447 121.197 67.5589 120.112C67.5589 118.93 68.0472 117.796 68.9162 116.96C69.7852 116.124 70.9638 115.654 72.1927 115.654C73.4217 115.654 74.6003 116.124 75.4693 116.96C76.3383 117.796 76.8265 118.93 76.8265 120.112C76.8422 121.042 76.5331 121.949 75.9488 122.69C75.3644 123.43 74.5387 123.96 73.6039 124.195C73.7748 124.408 73.9928 124.581 74.2421 124.703C74.4914 124.824 74.7657 124.891 75.0451 124.898C75.325 124.892 75.6005 124.83 75.8539 124.716C76.1073 124.601 76.333 124.437 76.5163 124.233L77.2569 125.1ZM72.1927 123.049C72.7866 123.049 73.3671 122.88 73.8608 122.562C74.3546 122.245 74.7394 121.794 74.9666 121.266C75.1939 120.738 75.2534 120.157 75.1375 119.597C75.0217 119.036 74.7357 118.522 74.3158 118.118C73.8959 117.714 73.3609 117.438 72.7785 117.327C72.1961 117.216 71.5924 117.273 71.0438 117.491C70.4951 117.71 70.0262 118.08 69.6963 118.555C69.3664 119.03 69.1903 119.589 69.1903 120.16C69.1807 120.542 69.2518 120.922 69.3993 121.277C69.5468 121.631 69.7676 121.953 70.0483 122.223C70.329 122.494 70.6639 122.706 71.0325 122.848C71.4011 122.99 71.7958 123.058 72.1927 123.049Z" fill="#263238"/>
<path d="M84.7229 117.925V124.242H83.2617V123.443C83.0007 123.733 82.6756 123.963 82.3102 124.116C81.9448 124.269 81.5483 124.342 81.15 124.329C80.7626 124.365 80.3719 124.316 80.0065 124.188C79.6411 124.059 79.3104 123.853 79.0386 123.585C78.7669 123.317 78.561 122.994 78.4363 122.64C78.3115 122.285 78.2709 121.908 78.3176 121.536V117.925H79.8589V121.334C79.8589 122.48 80.4194 123.029 81.4002 123.029C81.6572 123.04 81.9136 122.997 82.1509 122.901C82.3882 122.806 82.6003 122.66 82.7719 122.476C82.9435 122.291 83.0702 122.072 83.1428 121.835C83.2154 121.597 83.2321 121.347 83.1917 121.103V117.925H84.7229Z" fill="#263238"/>
<path d="M92.2393 120.573V124.271H90.7881V123.51C90.5446 123.808 90.2271 124.041 89.865 124.189C89.5029 124.337 89.1079 124.395 88.7164 124.358C87.2252 124.358 86.2744 123.568 86.2744 122.432C86.2744 121.296 87.015 120.554 89.0066 120.554H90.698V120.458C90.698 119.601 90.1576 119.091 89.0667 119.091C88.3454 119.077 87.6403 119.297 87.0651 119.716L86.4646 118.638C87.2781 118.099 88.2498 117.826 89.2368 117.858C91.1384 117.925 92.2393 118.754 92.2393 120.573ZM90.698 122.297V121.565H89.1167C88.0659 121.565 87.7856 121.941 87.7856 122.403C87.7856 122.865 88.256 123.279 89.0367 123.279C89.3856 123.303 89.7336 123.222 90.0316 123.045C90.3297 122.869 90.5628 122.607 90.698 122.297V122.297Z" fill="#263238"/>
<path d="M94.2012 115.5H95.7424V124.272H94.2012V115.5Z" fill="#263238"/>
<path d="M97.5439 116C97.5464 115.878 97.5746 115.757 97.6267 115.646C97.6789 115.534 97.7541 115.434 97.8476 115.351C97.9411 115.269 98.0511 115.205 98.1709 115.164C98.2908 115.123 98.4179 115.106 98.5448 115.114C98.6697 115.104 98.7957 115.118 98.9148 115.156C99.0339 115.194 99.1436 115.255 99.2373 115.335C99.3311 115.415 99.4067 115.513 99.4598 115.622C99.5128 115.732 99.542 115.851 99.5456 115.971C99.5456 116.227 99.4401 116.472 99.2524 116.652C99.0648 116.833 98.8102 116.934 98.5448 116.934C98.2793 116.934 98.0248 116.833 97.8371 116.652C97.6494 116.472 97.5439 116.227 97.5439 115.971V116ZM97.7541 117.926H99.2954V124.243H97.7541V117.926Z" fill="#263238"/>
<path d="M105.249 123.935C104.819 124.224 104.303 124.373 103.778 124.358C103.476 124.398 103.168 124.371 102.878 124.279C102.588 124.187 102.324 124.033 102.105 123.827C101.887 123.622 101.72 123.371 101.618 123.094C101.516 122.818 101.481 122.522 101.516 122.23V119.187H100.405V118.003H101.486V116.559H103.017V118.003H104.779V119.187H103.017V122.192C103.017 122.808 103.338 123.155 103.928 123.155C104.238 123.166 104.542 123.074 104.789 122.895L105.249 123.935Z" fill="#263238"/>
<path d="M112.547 117.925L109.474 124.752C109.336 125.294 109.009 125.775 108.549 126.114C108.089 126.454 107.522 126.632 106.942 126.62C106.303 126.634 105.679 126.429 105.181 126.043L105.791 124.955C106.1 125.228 106.502 125.383 106.922 125.388C107.463 125.388 107.783 125.147 108.083 124.521L108.193 124.271L105.331 117.925H106.922L108.994 122.605L111.065 117.925H112.547Z" fill="#263238"/>
<path d="M116.349 120.13C116.342 119.564 116.455 119.003 116.681 118.48C116.907 117.958 117.241 117.485 117.664 117.091C118.086 116.697 118.588 116.39 119.138 116.189C119.688 115.988 120.275 115.898 120.863 115.922C121.446 115.902 122.028 115.998 122.571 116.206C123.113 116.413 123.605 116.726 124.015 117.126L123.435 117.685C123.103 117.365 122.705 117.114 122.268 116.949C121.831 116.783 121.363 116.706 120.893 116.722C120.408 116.697 119.924 116.768 119.469 116.929C119.013 117.09 118.597 117.339 118.245 117.66C117.893 117.981 117.613 118.368 117.421 118.797C117.23 119.226 117.131 119.688 117.131 120.155C117.131 120.621 117.23 121.083 117.421 121.512C117.613 121.941 117.893 122.328 118.245 122.649C118.597 122.97 119.013 123.219 119.469 123.38C119.924 123.542 120.408 123.612 120.893 123.587C121.363 123.605 121.831 123.529 122.269 123.363C122.707 123.197 123.104 122.946 123.435 122.624L124.015 123.173C123.606 123.578 123.113 123.896 122.569 124.107C122.024 124.318 121.44 124.416 120.853 124.396C120.261 124.42 119.67 124.327 119.117 124.122C118.564 123.917 118.06 123.604 117.638 123.204C117.216 122.804 116.883 122.325 116.662 121.796C116.44 121.268 116.334 120.7 116.349 120.13V120.13Z" fill="#263238"/>
<path d="M124.836 121.161C124.838 120.535 125.033 119.923 125.396 119.404C125.759 118.884 126.274 118.479 126.876 118.241C127.478 118.003 128.139 117.941 128.778 118.065C129.416 118.188 130.001 118.491 130.461 118.934C130.92 119.377 131.233 119.942 131.359 120.556C131.485 121.17 131.42 121.807 131.17 122.385C130.921 122.964 130.499 123.458 129.957 123.805C129.416 124.153 128.78 124.339 128.129 124.339C127.692 124.354 127.256 124.282 126.849 124.127C126.441 123.972 126.072 123.739 125.763 123.44C125.454 123.142 125.212 122.786 125.053 122.394C124.893 122.002 124.82 121.582 124.836 121.161ZM130.521 121.161C130.497 120.709 130.337 120.274 130.058 119.909C129.78 119.544 129.397 119.266 128.956 119.109C128.515 118.952 128.035 118.923 127.577 119.026C127.119 119.128 126.703 119.358 126.379 119.686C126.056 120.015 125.839 120.427 125.757 120.873C125.675 121.318 125.73 121.777 125.917 122.192C126.103 122.608 126.412 122.961 126.805 123.209C127.198 123.457 127.659 123.589 128.129 123.588C128.456 123.594 128.781 123.534 129.083 123.413C129.385 123.291 129.657 123.111 129.882 122.882C130.107 122.654 130.28 122.383 130.39 122.087C130.5 121.79 130.545 121.475 130.521 121.161Z" fill="#263238"/>
<path d="M139.139 120.67V124.271H138.268V120.747C138.309 120.488 138.288 120.223 138.206 119.972C138.125 119.722 137.985 119.493 137.798 119.302C137.611 119.111 137.382 118.963 137.127 118.87C136.872 118.777 136.599 118.74 136.327 118.764C136.018 118.742 135.708 118.786 135.419 118.893C135.13 118.999 134.868 119.165 134.653 119.378C134.437 119.592 134.273 119.849 134.171 120.13C134.07 120.412 134.034 120.711 134.065 121.007V124.271H133.194V118.051H134.025V119.197C134.289 118.806 134.655 118.489 135.088 118.279C135.521 118.069 136.003 117.974 136.487 118.003C136.853 117.974 137.222 118.025 137.565 118.15C137.909 118.276 138.219 118.474 138.473 118.729C138.727 118.985 138.918 119.292 139.034 119.627C139.149 119.963 139.185 120.319 139.139 120.67V120.67Z" fill="#263238"/>
<path d="M144.924 123.896C144.537 124.196 144.051 124.353 143.553 124.339C143.299 124.366 143.041 124.338 142.799 124.257C142.558 124.176 142.338 124.043 142.157 123.87C141.975 123.696 141.836 123.485 141.751 123.253C141.665 123.021 141.635 122.773 141.662 122.528V118.763H140.511V118.051H141.662V116.693H142.532V118.051H144.534V118.763H142.532V122.48C142.502 122.631 142.51 122.786 142.554 122.933C142.599 123.08 142.68 123.215 142.789 123.326C142.899 123.437 143.034 123.521 143.185 123.572C143.335 123.622 143.496 123.638 143.653 123.617C144.018 123.636 144.377 123.519 144.654 123.289L144.924 123.896Z" fill="#263238"/>
<path d="M149.758 118.003V118.821H149.557C149.249 118.805 148.941 118.856 148.655 118.968C148.369 119.08 148.113 119.252 147.904 119.471C147.696 119.691 147.54 119.951 147.449 120.235C147.357 120.519 147.332 120.819 147.376 121.113V124.281H146.505V118.06H147.336V119.283C147.559 118.86 147.909 118.512 148.341 118.283C148.773 118.055 149.267 117.957 149.758 118.003V118.003Z" fill="#263238"/>
<path d="M150.618 121.161C150.62 120.535 150.814 119.924 151.177 119.405C151.539 118.885 152.054 118.481 152.655 118.242C153.256 118.003 153.917 117.941 154.555 118.064C155.193 118.187 155.779 118.488 156.239 118.931C156.698 119.373 157.012 119.937 157.139 120.55C157.267 121.164 157.202 121.8 156.954 122.379C156.706 122.957 156.286 123.452 155.746 123.801C155.206 124.15 154.571 124.337 153.92 124.339C153.482 124.355 153.045 124.284 152.637 124.13C152.228 123.976 151.858 123.742 151.547 123.444C151.237 123.146 150.995 122.789 150.835 122.396C150.675 122.003 150.601 121.583 150.618 121.161V121.161ZM156.312 121.161C156.289 120.709 156.128 120.274 155.85 119.909C155.571 119.544 155.188 119.266 154.747 119.109C154.306 118.952 153.827 118.923 153.369 119.026C152.911 119.128 152.494 119.358 152.17 119.686C151.847 120.015 151.631 120.427 151.548 120.873C151.466 121.318 151.522 121.777 151.708 122.192C151.894 122.608 152.203 122.961 152.596 123.209C152.99 123.457 153.45 123.589 153.92 123.588C154.247 123.594 154.572 123.534 154.874 123.413C155.176 123.291 155.448 123.111 155.673 122.882C155.898 122.654 156.071 122.383 156.181 122.087C156.291 121.79 156.336 121.475 156.312 121.161V121.161Z" fill="#263238"/>
<path d="M158.974 115.5H159.854V124.272H158.974V115.5Z" fill="#263238"/>
<path d="M47.3623 62.9624V75.7019C47.361 77.4604 47.7199 79.2019 48.4184 80.8269C49.1169 82.4519 50.1414 83.9285 51.4333 85.1724C52.7252 86.4163 54.2593 87.4031 55.9477 88.0763C57.6362 88.7496 59.446 89.0961 61.2737 89.0961H158.453C162.146 89.0961 165.686 87.6849 168.297 85.173C170.908 82.6611 172.375 79.2542 172.375 75.7019V63.0394L47.3623 62.9624Z" fill="#263238"/>
<path d="M109.774 66.7269C107.201 66.7269 104.686 65.9927 102.546 64.6172C100.406 63.2417 98.7388 61.2867 97.7541 58.9993C96.7693 56.712 96.5117 54.195 97.0137 51.7668C97.5157 49.3385 98.7548 47.108 100.574 45.3574C102.394 43.6067 104.712 42.4145 107.236 41.9315C109.76 41.4484 112.376 41.6963 114.753 42.6438C117.131 43.5913 119.163 45.1957 120.592 47.2543C122.022 49.3129 122.785 51.7331 122.785 54.2089C122.769 57.5242 121.393 60.6994 118.957 63.0437C116.52 65.3879 113.22 66.7117 109.774 66.7269V66.7269ZM109.774 46.4285C108.191 46.4285 106.643 46.8803 105.326 47.7267C104.009 48.5732 102.983 49.7763 102.377 51.1839C101.771 52.5915 101.613 54.1404 101.922 55.6347C102.231 57.129 102.993 58.5016 104.113 59.579C105.233 60.6563 106.659 61.39 108.212 61.6872C109.765 61.9845 111.375 61.8319 112.838 61.2489C114.301 60.6658 115.552 59.6784 116.432 58.4116C117.311 57.1448 117.781 55.6554 117.781 54.1319C117.768 52.0927 116.92 50.1406 115.421 48.6987C113.923 47.2568 111.894 46.4411 109.774 46.4285V46.4285Z" fill="#263238"/>
<path d="M469.888 427.989L475.092 449.288L485.39 466.284C485.567 466.574 485.679 466.895 485.72 467.229C485.761 467.562 485.731 467.9 485.63 468.222C485.53 468.544 485.362 468.842 485.136 469.098C484.911 469.354 484.633 469.563 484.32 469.712V469.712C483.96 469.894 483.56 469.989 483.154 469.989C482.747 469.989 482.347 469.894 481.988 469.712C477.364 467.314 460.41 458.407 460.07 456.693C459.669 454.7 452.964 432.283 452.964 432.283L469.888 427.989Z" fill="#EF293D"/>
<g opacity="0.6">
<path opacity="0.6" d="M484.32 469.741L459.62 455.124L459.9 456.086C460.141 456.929 460.683 457.662 461.432 458.157C463.433 459.466 469.098 462.971 481.918 469.712C482.288 469.901 482.7 470.001 483.119 470.001C483.538 470.001 483.951 469.901 484.32 469.712V469.741Z" fill="white"/>
</g>
<g opacity="0.6">
<path opacity="0.6" d="M462.393 446.389C462.749 446.519 463.042 446.771 463.217 447.096C463.393 447.42 463.438 447.796 463.344 448.151C463.22 448.494 462.965 448.779 462.63 448.948C462.295 449.116 461.906 449.155 461.543 449.056C461.165 448.923 460.852 448.658 460.667 448.314C460.482 447.97 460.437 447.572 460.542 447.198C460.706 446.845 461.008 446.568 461.383 446.428C461.757 446.287 462.174 446.294 462.543 446.447" fill="white"/>
</g>
<path d="M475.953 461.131C476.322 460.26 476.859 459.463 477.534 458.782C478.318 458.218 479.204 457.796 480.146 457.54C480.146 457.482 479.796 457.386 479.215 457.453C478.467 457.587 477.774 457.921 477.214 458.416C476.638 458.905 476.221 459.544 476.013 460.255C475.833 460.785 475.893 461.131 475.953 461.131Z" fill="#263238"/>
<path d="M478.546 463.76C478.687 463.837 479.247 462.884 480.378 462.21C481.112 461.848 481.868 461.526 482.64 461.247C482.206 461.124 481.748 461.102 481.304 461.184C480.86 461.267 480.443 461.45 480.088 461.719C478.797 462.537 478.406 463.731 478.546 463.76Z" fill="#263238"/>
<path d="M471.64 458.021C472.468 457.103 473.361 456.241 474.312 455.44C475.376 454.786 476.487 454.203 477.635 453.697C476.311 453.796 475.044 454.255 473.98 455.021C472.917 455.786 472.102 456.827 471.63 458.021H471.64Z" fill="#263238"/>
<path d="M469.187 451.099C469.287 451.224 470.458 450.338 472.189 449.818C473.92 449.298 475.372 449.337 475.382 449.182C474.269 448.942 473.109 448.993 472.025 449.332C470.94 449.671 469.97 450.285 469.217 451.108L469.187 451.099Z" fill="#263238"/>
<path d="M467.226 444.357C468.131 443.682 469.174 443.2 470.287 442.942C471.4 442.685 472.557 442.659 473.682 442.865C473.682 442.807 473.361 442.585 472.681 442.422C471.838 442.232 470.961 442.235 470.12 442.431C469.278 442.626 468.496 443.009 467.837 443.548C467.376 443.982 467.176 444.357 467.226 444.357Z" fill="#263238"/>
<path d="M469.877 441.681C469.868 441.377 469.793 441.078 469.657 440.804C469.347 440.028 468.881 439.318 468.286 438.715C467.887 438.236 467.334 437.898 466.715 437.752C466.514 437.73 466.311 437.767 466.132 437.858C465.953 437.949 465.808 438.09 465.714 438.262C465.547 438.62 465.522 439.024 465.644 439.398C465.921 440.158 466.464 440.801 467.18 441.217C467.895 441.634 468.74 441.797 469.567 441.681C470.382 441.545 471.136 441.18 471.735 440.631C472.334 440.083 472.75 439.376 472.93 438.599C472.977 438.405 472.979 438.204 472.936 438.009C472.893 437.814 472.805 437.631 472.68 437.473C472.538 437.322 472.35 437.219 472.143 437.177C471.937 437.136 471.721 437.158 471.529 437.241C470.975 437.523 470.508 437.942 470.178 438.455C469.671 439.127 469.291 439.88 469.057 440.679C468.945 440.965 468.897 441.27 468.917 441.575C469.287 440.543 469.813 439.57 470.478 438.686C470.786 438.253 471.203 437.902 471.689 437.665C471.791 437.615 471.907 437.598 472.02 437.619C472.133 437.64 472.235 437.697 472.309 437.781C472.383 437.891 472.433 438.014 472.455 438.143C472.477 438.272 472.472 438.405 472.44 438.532C472.259 439.196 471.885 439.797 471.363 440.265C470.84 440.732 470.189 441.046 469.487 441.17C468.782 441.266 468.065 441.127 467.453 440.777C466.842 440.427 466.373 439.886 466.124 439.244C466.023 438.987 466.023 438.703 466.124 438.445C466.175 438.344 466.257 438.262 466.36 438.21C466.463 438.158 466.58 438.139 466.695 438.156C467.216 438.28 467.685 438.555 468.036 438.946C468.811 439.747 469.435 440.672 469.877 441.681V441.681Z" fill="#263238"/>
<g opacity="0.3">
<path opacity="0.3" d="M453.727 434.815L454.667 438.003L471.461 434.45L470.901 432.129L453.727 434.815Z" fill="black"/>
</g>
<path d="M403.116 433.582L404.277 450.597C404.277 450.597 386.693 457.453 386.643 460.621L421.021 459.658L420.33 433.062L403.116 433.582Z" fill="#EF293D"/>
<g opacity="0.6">
<path opacity="0.6" d="M414.864 448.854C415.193 448.946 415.476 449.15 415.66 449.429C415.844 449.707 415.917 450.04 415.865 450.366C415.781 450.686 415.575 450.963 415.286 451.142C414.998 451.321 414.651 451.388 414.313 451.329C413.961 451.234 413.657 451.018 413.459 450.721C413.262 450.425 413.185 450.069 413.242 449.721C413.361 449.391 413.607 449.119 413.93 448.959C414.252 448.799 414.626 448.765 414.974 448.864" fill="white"/>
</g>
<g opacity="0.6">
<path opacity="0.6" d="M420.969 459.631L420.899 456.973L387.872 458.899C387.872 458.899 386.361 459.582 386.571 460.613L420.969 459.631Z" fill="white"/>
</g>
<path d="M403.713 450.444C403.713 450.607 404.564 450.656 405.415 451.156C406.266 451.657 406.716 452.312 406.866 452.244C407.016 452.177 406.736 451.281 405.705 450.665C404.674 450.049 403.653 450.299 403.713 450.444Z" fill="#263238"/>
<path d="M400.152 451.984C400.152 452.138 400.863 452.398 401.453 453.063C402.044 453.727 402.224 454.449 402.394 454.44C402.564 454.43 402.644 453.477 401.894 452.687C401.143 451.898 400.152 451.83 400.152 451.984Z" fill="#263238"/>
<path d="M398.239 456.191C398.389 456.191 398.6 455.411 398.139 454.535C397.679 453.659 396.888 453.341 396.818 453.476C396.748 453.611 397.248 454.073 397.619 454.795C397.989 455.517 398.069 456.182 398.239 456.191Z" fill="#263238"/>
<path d="M403.893 446.534C403.973 446.688 404.734 446.437 405.685 446.476C406.636 446.514 407.386 446.774 407.466 446.63C407.546 446.485 406.826 445.937 405.705 445.908C404.584 445.879 403.813 446.418 403.893 446.534Z" fill="#263238"/>
<g opacity="0.3">
<path opacity="0.3" d="M403.184 434.189L403.384 437.213L420.378 436.741V433.727L403.184 434.189Z" fill="black"/>
</g>
<path d="M403.723 443.096C404.291 443.232 404.887 443.212 405.444 443.039C406.064 442.921 406.667 442.727 407.235 442.461C407.582 442.304 407.916 442.124 408.236 441.922C408.429 441.815 408.601 441.678 408.747 441.517C408.852 441.4 408.914 441.252 408.923 441.097C408.932 440.942 408.888 440.788 408.797 440.66C408.708 440.55 408.594 440.462 408.464 440.402C408.334 440.341 408.191 440.311 408.046 440.314C407.828 440.315 407.612 440.351 407.406 440.42C407.041 440.514 406.686 440.64 406.345 440.795C405.773 441.068 405.246 441.421 404.784 441.845C404.013 442.586 403.783 443.193 403.783 443.222C403.783 443.25 404.233 442.759 405.034 442.143C405.495 441.793 405.999 441.499 406.535 441.267C406.86 441.139 407.195 441.032 407.536 440.949C407.896 440.843 408.206 440.834 408.306 440.949C408.406 441.065 408.306 441.026 408.306 441.132C408.195 441.245 408.071 441.345 407.936 441.431C407.647 441.624 407.346 441.801 407.035 441.96C406.51 442.227 405.961 442.446 405.394 442.615C404.827 442.741 404.268 442.901 403.723 443.096Z" fill="#263238"/>
<path d="M403.954 443.327C404.261 442.842 404.401 442.276 404.354 441.71C404.37 441.098 404.272 440.488 404.064 439.909C403.943 439.573 403.785 439.25 403.593 438.946C403.495 438.73 403.34 438.541 403.144 438.399C402.947 438.258 402.716 438.167 402.473 438.137C402.319 438.145 402.171 438.195 402.046 438.28C401.92 438.365 401.822 438.482 401.762 438.619C401.683 438.817 401.633 439.024 401.612 439.235C401.556 439.605 401.556 439.982 401.612 440.352C401.729 440.967 402.001 441.545 402.402 442.037C403.103 442.875 403.804 443.048 403.824 443C403.844 442.952 403.273 442.624 402.733 441.816C402.425 441.348 402.224 440.823 402.142 440.275C402.096 439.955 402.096 439.631 402.142 439.312C402.192 438.956 402.312 438.667 402.453 438.696C402.593 438.725 402.923 438.946 403.073 439.225C403.256 439.505 403.41 439.802 403.533 440.111C403.74 440.64 403.868 441.194 403.914 441.758C404.024 442.692 403.864 443.308 403.954 443.327Z" fill="#263238"/>
<path d="M446.3 156.887C445.798 157.373 445.484 158.01 445.409 158.691C445.334 159.372 445.504 160.057 445.89 160.633C446.677 161.782 447.698 162.764 448.892 163.522C450.103 164.26 451.052 165.335 451.614 166.603C452.435 169.011 450.613 171.745 451.614 174.095C452.455 176.136 455.067 176.984 456.228 178.909C457.389 180.835 456.759 183.349 455.898 185.457C455.037 187.566 453.976 189.771 454.427 191.996C454.677 193.218 455.427 194.393 455.237 195.635C455.027 197.436 453.146 198.524 451.364 199.169C448.439 200.146 445.302 200.378 442.257 199.843C440.055 199.449 437.793 198.543 436.622 196.714C435.621 195.154 435.621 193.199 435.621 191.35C435.862 180.652 437.237 170.004 439.724 159.574" fill="#263238"/>
<path d="M384.518 229.762L395.137 205.429C395.137 205.429 402.533 183.282 414.313 183.638L417.155 203.57L400.832 237.378L383.327 230.137" fill="#DDE1EA"/>
<path d="M404.176 242.905C404.176 242.905 384.99 279.313 385.311 290.705C385.491 297.041 395.549 434.479 395.549 434.479H424.493L419.138 291.119L449.503 435.47L475.134 431.465L454.697 277.099C454.697 277.099 451.195 256.088 443.989 247.47L404.176 242.905Z" fill="#263238"/>
<path d="M418.556 276.058C418.91 278.551 419.094 281.063 419.106 283.579C419.283 286.089 419.283 288.608 419.106 291.118C418.752 288.626 418.568 286.114 418.556 283.598C418.379 281.088 418.379 278.569 418.556 276.058V276.058Z" fill="#455A64"/>
<path d="M456.047 290.146C455.76 290.261 455.456 290.329 455.146 290.349C454.306 290.45 453.459 290.479 452.614 290.435C449.793 290.298 447.066 289.416 444.731 287.888C442.396 286.359 440.542 284.243 439.373 281.769C439.021 281.028 438.74 280.257 438.533 279.467C438.44 279.181 438.393 278.882 438.393 278.582C438.493 278.582 438.763 279.804 439.704 281.615C440.926 283.973 442.756 285.991 445.02 287.474C447.284 288.958 449.906 289.858 452.634 290.089C454.696 290.291 456.037 290.06 456.047 290.146Z" fill="#455A64"/>
<path d="M396.977 276.905C396.76 277.694 396.423 278.446 395.976 279.139C394.984 280.861 393.767 282.453 392.353 283.877C390.937 285.302 389.332 286.542 387.58 287.565C386.883 288.027 386.117 288.385 385.308 288.624C390.233 285.811 394.267 281.76 396.977 276.905Z" fill="#455A64"/>
<path d="M421.777 436.366C421.746 436.24 421.729 436.111 421.727 435.981C421.727 435.702 421.667 435.336 421.627 434.854C421.547 433.834 421.437 432.38 421.297 430.521C421.036 426.737 420.656 421.297 420.196 414.585C419.315 401.104 418.094 382.51 416.753 361.99C415.412 341.47 414.261 322.838 413.49 309.367C413.28 302.626 414.001 297.109 415.242 293.507C415.668 292.105 416.375 290.797 417.323 289.656C417.566 289.357 417.849 289.092 418.164 288.866L418.484 288.625C418.398 288.728 418.301 288.821 418.194 288.904C417.897 289.142 417.632 289.414 417.403 289.713C416.495 290.867 415.816 292.173 415.402 293.565C414.241 297.157 413.57 302.636 413.821 309.357C414.701 322.838 415.912 341.422 417.243 361.952C418.574 382.481 419.685 401.075 420.536 414.566C420.926 421.306 421.247 426.718 421.467 430.512C421.567 432.37 421.647 433.834 421.697 434.854C421.697 435.326 421.697 435.702 421.747 435.981C421.77 436.108 421.781 436.237 421.777 436.366Z" fill="#455A64"/>
<path d="M473.564 433.832C473.423 433.832 468.69 401.737 462.995 362.104C457.3 322.47 452.797 290.289 452.937 290.289C453.077 290.289 457.811 322.374 463.505 362.017C469.2 401.66 473.714 433.812 473.564 433.832Z" fill="#455A64"/>
<path d="M443.408 243.916L448.862 217.359L453.076 188.798C449.262 185.586 444.6 183.45 439.605 182.626L414.314 183.637L404.786 205.149L405.787 249.607L443.408 243.916Z" fill="white"/>
<path d="M441.746 183.079C441.746 183.079 429.676 208.876 423.3 210.58C420.448 221.51 417.916 279.314 417.916 279.314L457.699 277.773L445.939 240.219L450.693 221.432C450.693 221.432 445.529 191.688 451.063 186.546C447.921 184.562 445.359 183.291 441.746 183.079Z" fill="#EF293D"/>
<path d="M417.155 182.627C416.409 187.695 416.075 192.81 416.154 197.928C416.344 202.531 418.26 206.913 421.548 210.263V210.263L416.264 279.314L388.091 275.366C388.091 275.366 393.906 258.091 398.539 250.571C398.539 250.571 400.741 246.998 404.785 240.239C404.785 240.239 401.962 218.197 401.862 215.087C401.862 213.912 409.158 184.928 409.158 184.928C410.258 184.041 411.535 183.38 412.91 182.984C414.285 182.589 415.729 182.467 417.155 182.627V182.627Z" fill="#EF293D"/>
<path d="M409.59 150.156C405.977 149.241 403.755 148.009 403.755 146.641C403.755 143.83 413.203 141.557 424.852 141.557C436.502 141.557 445.939 143.83 445.939 146.641C445.939 147.999 443.748 149.232 440.175 150.146" fill="#EF293D"/>
<g opacity="0.4">
<path opacity="0.4" d="M411.6 150.061C408.397 149.252 406.345 148.135 406.435 146.951C406.656 143.59 414.802 142.435 425.131 142.435C435.459 142.435 443.816 144.457 443.816 146.951C443.816 148.145 441.875 149.242 438.702 150.051" fill="black"/>
</g>
<path d="M440.056 147.268C439.615 148.722 440.706 150.157 441.957 151.12C443.208 152.082 444.71 152.66 445.68 153.845C446.289 154.694 446.659 155.68 446.754 156.708C446.849 157.736 446.665 158.77 446.221 159.709C445.293 161.591 443.922 163.239 442.218 164.523C440.997 165.544 439.405 166.546 437.874 166.035" fill="#263238"/>
<path d="M451.042 186.544C450.542 186.544 448.69 191.079 447.309 195.21C446.082 198.827 445.654 202.651 446.052 206.437C446.45 210.223 447.666 213.886 449.621 217.194L458.378 232.003L432.017 240.516L435.88 252.389L472.77 242.865C474.454 242.434 476.003 241.613 477.283 240.476C478.563 239.338 479.535 237.917 480.116 236.337V236.337C480.644 234.921 480.843 233.412 480.699 231.915C480.556 230.418 480.073 228.969 479.285 227.67L460.049 195.894C460.049 195.894 453.804 186.534 451.042 186.544Z" fill="#DDE1EA"/>
<path d="M439.774 149.059C439.745 147.214 439.328 145.394 438.551 143.708C437.773 142.022 436.65 140.505 435.248 139.246C433.847 137.987 432.195 137.014 430.394 136.383C428.592 135.753 426.676 135.479 424.762 135.578C421.058 135.826 417.594 137.427 415.078 140.053C412.562 142.68 411.186 146.132 411.231 149.704C411.231 156.155 411.321 162.636 411.701 164.947C412.842 171.899 417.496 174.018 419.337 174.576C419.995 174.71 420.666 174.774 421.339 174.769V174.769V174.817L420.949 183.04C421.009 188.384 424.762 192.669 430.316 192.669C435.871 192.669 439.554 188.038 439.584 182.674L439.774 149.059Z" fill="#FFBE9D"/>
<path d="M413.944 153.276C413.942 153.568 414.057 153.848 414.267 154.059C414.476 154.269 414.763 154.393 415.065 154.403C415.357 154.427 415.647 154.339 415.872 154.159C416.096 153.979 416.238 153.72 416.266 153.44C416.271 153.148 416.157 152.866 415.947 152.655C415.737 152.443 415.449 152.321 415.145 152.313C414.854 152.289 414.564 152.377 414.339 152.557C414.114 152.737 413.972 152.996 413.944 153.276V153.276Z" fill="#263238"/>
<path d="M413.192 151.323C413.342 151.477 414.193 150.841 415.474 150.851C416.755 150.86 417.646 151.457 417.776 151.303C417.906 151.149 417.696 150.976 417.295 150.697C416.755 150.335 416.112 150.144 415.454 150.148C414.802 150.143 414.166 150.342 413.642 150.716C413.252 150.995 413.122 151.265 413.192 151.323Z" fill="#263238"/>
<path d="M426.194 153.276C426.192 153.568 426.307 153.848 426.517 154.059C426.726 154.269 427.013 154.393 427.315 154.403C427.607 154.427 427.897 154.339 428.121 154.159C428.346 153.979 428.488 153.72 428.516 153.44C428.519 153.149 428.403 152.868 428.194 152.657C427.984 152.447 427.698 152.323 427.395 152.313C427.104 152.289 426.814 152.377 426.589 152.557C426.364 152.737 426.222 152.996 426.194 153.276V153.276Z" fill="#263238"/>
<path d="M425.502 151.553C425.653 151.697 426.503 151.071 427.784 151.071C429.065 151.071 429.956 151.678 430.096 151.534C430.236 151.389 430.016 151.206 429.616 150.917C429.072 150.557 428.425 150.369 427.764 150.378C427.114 150.374 426.48 150.57 425.953 150.937C425.563 151.225 425.432 151.485 425.502 151.553Z" fill="#263238"/>
<path d="M420.958 160.489C420.309 160.289 419.637 160.17 418.957 160.132C418.636 160.132 418.336 160.046 418.276 159.834C418.241 159.499 418.319 159.161 418.496 158.871L419.437 156.531C420.313 154.544 421.022 152.493 421.559 150.397C420.523 152.312 419.643 154.302 418.927 156.348C418.616 157.176 418.316 157.956 418.026 158.707C417.825 159.077 417.765 159.503 417.856 159.911C417.901 160.021 417.973 160.119 418.065 160.198C418.157 160.276 418.267 160.333 418.386 160.363C418.562 160.41 418.744 160.436 418.927 160.441C419.599 160.534 420.281 160.55 420.958 160.489V160.489Z" fill="#263238"/>
<path d="M421.37 174.74C421.37 174.74 426.204 175.115 432.249 171.62C432.249 171.62 430.348 177.773 421.24 176.954L421.37 174.74Z" fill="#EB996E"/>
<path d="M421.488 163.397C421.722 163.109 422.029 162.884 422.38 162.742C422.73 162.601 423.112 162.548 423.49 162.588C423.765 162.611 424.034 162.688 424.278 162.814C424.522 162.94 424.737 163.112 424.911 163.32C425.079 163.52 425.178 163.765 425.196 164.022C425.214 164.279 425.149 164.534 425.011 164.755C424.811 164.973 424.548 165.129 424.255 165.201C423.962 165.273 423.654 165.258 423.369 165.159C422.776 164.941 422.232 164.614 421.768 164.196C421.629 164.099 421.51 163.979 421.418 163.84C421.369 163.775 421.343 163.698 421.343 163.618C421.343 163.539 421.369 163.461 421.418 163.397" fill="#EB996E"/>
<path d="M424.672 161.326C424.472 161.326 424.472 162.616 423.311 163.55C422.15 164.484 420.699 164.33 420.689 164.513C420.679 164.696 421.009 164.764 421.619 164.783C422.417 164.794 423.193 164.535 423.811 164.051C424.399 163.581 424.779 162.913 424.872 162.183C424.892 161.634 424.742 161.316 424.672 161.326Z" fill="#263238"/>
<path d="M424.94 149.445C425.061 149.772 426.312 149.618 427.783 149.782C429.254 149.946 430.445 150.34 430.635 150.042C430.725 149.907 430.515 149.599 430.035 149.281C429.4 148.885 428.676 148.641 427.923 148.569C427.172 148.477 426.41 148.563 425.701 148.819C425.161 149.031 424.89 149.281 424.94 149.445Z" fill="#263238"/>
<path d="M413.661 148.866C413.882 149.135 414.742 148.866 415.783 148.866C416.824 148.866 417.705 149.049 417.905 148.769C418.105 148.49 417.855 148.355 417.465 148.095C416.95 147.784 416.351 147.626 415.743 147.643C415.135 147.661 414.546 147.851 414.052 148.192C413.661 148.452 413.551 148.74 413.661 148.866Z" fill="#263238"/>
<path d="M426.604 160.757C426.631 160.748 426.661 160.746 426.69 160.75C426.719 160.753 426.747 160.764 426.771 160.779C426.795 160.795 426.815 160.816 426.83 160.841C426.844 160.865 426.852 160.893 426.854 160.921C426.851 160.948 426.841 160.975 426.826 160.998C426.811 161.021 426.791 161.041 426.767 161.056C426.743 161.071 426.716 161.08 426.688 161.083C426.659 161.087 426.631 161.084 426.604 161.075C426.578 161.063 426.556 161.045 426.539 161.023C426.522 161.001 426.51 160.976 426.504 160.949C426.498 160.922 426.499 160.895 426.506 160.868C426.512 160.842 426.525 160.817 426.543 160.796" fill="#263238"/>
<path d="M419.249 143.926C419.918 144.857 420.792 145.635 421.81 146.204C422.827 146.773 423.962 147.12 425.134 147.219C426.665 147.334 428.417 147.074 429.578 148.047C430.311 148.875 430.814 149.869 431.039 150.936C431.567 152.519 432.668 153.869 434.141 154.739C435.302 155.365 436.753 155.635 437.594 156.665C438.435 157.695 438.395 159.217 438.425 160.575C438.455 161.932 438.775 163.511 440.046 164.099C440.093 159.162 440.14 154.216 440.186 149.26C440.238 148.525 440.146 147.787 439.916 147.084C439.295 145.534 437.474 144.792 435.803 144.359C431.079 143.117 426.135 142.972 421.241 142.828" fill="#263238"/>
<path d="M406.657 145.322C406.657 145.322 409.66 133.392 409.93 132.804C410.2 132.217 413.723 127.027 422.17 125.505H429.176C429.176 125.505 439.084 128.577 440.895 130.898C442.707 133.218 443.477 144.494 443.477 144.494L423.901 140.402L410.59 143.522L406.657 145.322Z" fill="#DDE1EA"/>
<path d="M424.452 124.148H421.449C420.689 124.99 420.266 126.066 420.258 127.181C420.118 129.271 419.628 143.551 419.628 143.551L428.375 143.175L428.095 125.477L431.098 126.112L431.007 125.149L430.217 124.254L424.452 124.148Z" fill="#EF293D"/>
<path d="M410.381 146.381L410.551 142.048L423.722 138.274L440.175 142.963V147.624C430.77 143.577 420.115 143.133 410.381 146.381V146.381Z" fill="#455A64"/>
<path d="M411.37 141.124L410.79 141.673L406.056 144.561C412.104 143.032 418.327 142.237 424.581 142.193C434.009 142.289 444.787 145.351 444.787 145.351L438.542 141.74C437.562 140.73 436.381 139.918 435.07 139.354C433.758 138.79 432.342 138.485 430.906 138.457L419.066 138.235C416.205 138.179 413.437 139.218 411.37 141.124Z" fill="#EF293D"/>
<path d="M419.838 137.91C419.699 135.888 419.729 133.86 419.928 131.843C419.958 129.821 420.162 127.805 420.538 125.815C420.678 127.833 420.648 129.859 420.448 131.872C420.417 133.897 420.213 135.916 419.838 137.91V137.91Z" fill="#263238"/>
<path d="M431.077 126.15C430.336 126.128 429.598 126.038 428.875 125.88C428.732 125.887 428.598 125.946 428.498 126.044C428.398 126.142 428.339 126.272 428.335 126.41C428.335 126.814 428.335 127.228 428.335 127.662C428.335 128.576 428.335 129.539 428.405 130.55C428.405 132.611 428.405 134.469 428.405 135.817C428.438 136.546 428.388 137.276 428.255 137.994C428.097 137.278 428.023 136.549 428.034 135.817C427.964 134.469 427.904 132.611 427.864 130.56C427.864 129.539 427.864 128.576 427.864 127.671V126.39C427.891 126.154 428.009 125.935 428.194 125.777C428.378 125.619 428.618 125.532 428.865 125.533C429.629 125.637 430.374 125.844 431.077 126.15V126.15Z" fill="#263238"/>
<path d="M405.756 144.475C405.872 144.39 405.996 144.316 406.126 144.254C406.376 144.119 406.757 143.946 407.257 143.734C407.757 143.522 408.368 143.3 409.039 142.963C409.802 142.62 410.463 142.097 410.96 141.442C411.521 140.749 411.601 139.651 412.381 138.727C412.793 138.251 413.368 137.934 414.003 137.831C414.624 137.728 415.253 137.674 415.884 137.667C418.436 137.542 421.249 137.504 424.201 137.581C427.153 137.658 429.946 137.831 432.498 138.043C433.765 138.039 434.993 138.462 435.971 139.237C436.344 139.633 436.679 140.062 436.971 140.518L437.412 141.124L437.632 141.413C437.697 141.481 437.775 141.537 437.862 141.577C439.554 142.415 441.015 143.002 441.966 143.503C442.446 143.734 442.816 143.926 443.056 144.061C443.191 144.124 443.315 144.205 443.427 144.302C443.427 144.302 442.866 144.08 441.875 143.676C440.885 143.272 439.443 142.713 437.682 141.904C437.548 141.847 437.428 141.761 437.332 141.654L437.102 141.365C436.951 141.172 436.791 140.97 436.641 140.758C436.344 140.33 436.01 139.927 435.64 139.555C434.724 138.86 433.584 138.496 432.418 138.524C429.886 138.332 427.093 138.178 424.151 138.101C421.209 138.024 418.416 138.043 415.884 138.101C414.623 138.101 413.342 138.101 412.682 138.967C412.021 139.834 411.871 140.835 411.23 141.625C410.68 142.307 409.961 142.847 409.139 143.194C408.428 143.503 407.808 143.714 407.297 143.888C406.316 144.263 405.776 144.514 405.756 144.475Z" fill="#263238"/>
<path d="M407.528 145.148C407.528 145.148 407.608 145.052 407.819 144.907C408.128 144.679 408.464 144.485 408.819 144.329C410.052 143.741 411.356 143.304 412.703 143.029C417.129 142.109 421.675 141.849 426.184 142.259C428.806 142.442 431.328 142.567 433.6 142.875C435.623 143.173 437.628 143.578 439.605 144.089C440.36 144.283 441.105 144.514 441.836 144.782C442.418 144.953 442.949 145.253 443.388 145.658C443.653 145.916 443.809 146.259 443.828 146.621C443.844 146.753 443.812 146.885 443.738 146.997C443.759 146.766 443.726 146.534 443.641 146.317C443.556 146.1 443.422 145.905 443.248 145.745C442.811 145.388 442.293 145.134 441.736 145.003C441.096 144.792 440.345 144.58 439.515 144.378C437.853 144.002 435.822 143.588 433.58 143.289C431.338 142.991 428.826 142.895 426.194 142.712C421.732 142.31 417.234 142.517 412.833 143.328C411.504 143.57 410.205 143.948 408.959 144.455C407.979 144.888 407.558 145.206 407.528 145.148Z" fill="#263238"/>
<path d="M421.229 138.468C421.435 138.453 421.642 138.453 421.849 138.468H423.55C424.982 138.468 426.963 138.602 429.145 138.776C430.226 138.862 431.267 138.959 432.208 139.065C433.049 139.12 433.884 139.252 434.7 139.459C435.259 139.613 435.742 139.955 436.061 140.422C436.179 140.59 436.245 140.788 436.251 140.99C436.185 140.805 436.098 140.627 435.991 140.461C435.663 140.028 435.194 139.713 434.659 139.565C433.847 139.384 433.02 139.268 432.187 139.219L429.125 138.949C426.943 138.776 424.972 138.66 423.54 138.583L421.849 138.496C421.642 138.511 421.433 138.501 421.229 138.468V138.468Z" fill="#FAFAFA"/>
<path d="M427.814 136.79C427.775 136.651 427.748 136.51 427.735 136.366C427.735 136.097 427.645 135.692 427.585 135.201C427.485 134.238 427.375 132.861 427.325 131.35C427.275 129.838 427.325 128.461 427.325 127.498C427.325 127.007 427.325 126.602 427.395 126.333C427.397 126.186 427.417 126.041 427.455 125.899C427.47 126.043 427.47 126.189 427.455 126.333C427.455 126.718 427.455 127.103 427.455 127.498C427.455 128.461 427.455 129.847 427.455 131.35C427.455 132.852 427.585 134.238 427.655 135.201L427.735 136.366C427.786 136.502 427.813 136.645 427.814 136.79V136.79Z" fill="#FAFAFA"/>
<path d="M437.682 142.135C437.824 142.159 437.961 142.201 438.092 142.26L439.163 142.665L442.676 144.061C443.333 144.299 443.969 144.589 444.577 144.927C445.094 145.211 445.486 145.666 445.678 146.208C445.819 146.568 445.819 146.965 445.678 147.325C445.626 147.456 445.536 147.57 445.418 147.653C445.418 147.653 445.508 147.537 445.598 147.296C445.722 146.957 445.722 146.586 445.598 146.247C445.403 145.748 445.026 145.334 444.537 145.082C443.931 144.761 443.302 144.481 442.656 144.244L439.163 142.79L438.162 142.328C437.995 142.28 437.834 142.215 437.682 142.135V142.135Z" fill="#FAFAFA"/>
<path d="M422.721 124.513C423.13 124.472 423.541 124.456 423.952 124.465H426.954C427.957 124.444 428.961 124.493 429.957 124.61C430.266 124.668 430.548 124.816 430.767 125.033C430.85 125.112 430.905 125.213 430.927 125.322C430.812 125.165 430.663 125.033 430.49 124.935C430.318 124.837 430.126 124.776 429.927 124.754C429.206 124.629 428.135 124.706 426.924 124.658C425.713 124.61 424.722 124.61 423.922 124.581C423.52 124.594 423.118 124.571 422.721 124.513V124.513Z" fill="#FAFAFA"/>
<path d="M410.381 146.382C409.441 150.196 409.738 154.195 411.232 157.841C411.242 155.461 411.47 153.086 411.912 150.744C412.077 149.596 412.461 148.486 413.043 147.47C413.814 146.508 415.185 146.276 416.416 146.016C417.647 145.756 419.008 145.574 419.418 144.437C416.315 144.692 413.259 145.34 410.331 146.363" fill="#263238"/>
<path d="M421.261 176.964C419.905 177.039 418.624 177.587 417.658 178.505C416.817 179.516 416.286 180.768 415.226 181.557C414.165 182.347 412.874 182.52 411.973 183.368C410.191 185.014 411.062 187.903 410.292 190.108C409.705 191.378 408.955 192.571 408.06 193.661C407.618 194.211 407.318 194.854 407.184 195.537C407.05 196.22 407.086 196.923 407.289 197.59C407.546 198.111 407.936 198.56 408.423 198.897C408.909 199.234 409.476 199.447 410.071 199.516C411.26 199.628 412.46 199.469 413.574 199.054L413.434 196.377C413.545 196.896 413.767 197.388 414.085 197.821C414.252 198.034 414.482 198.192 414.744 198.276C415.007 198.361 415.29 198.366 415.556 198.293C416.357 197.985 416.377 196.916 416.296 196.088C415.986 193.026 416.136 189.723 417.948 187.191C418.799 185.987 420.25 184.716 420.95 183.445L421.231 176.945" fill="#263238"/>
<path d="M369.835 225.033C369.835 225.033 371.627 221.278 374.239 221.432C376.851 221.586 384.177 222.395 384.177 222.395L384.988 225.842L368.975 225.053" fill="#FFBE9D"/>
<path d="M377.444 225.071L381.918 211.734C382.03 211.398 382.251 211.105 382.548 210.897C382.845 210.69 383.202 210.578 383.569 210.579V210.579C383.839 210.578 384.104 210.638 384.346 210.752C384.587 210.867 384.797 211.034 384.96 211.24C385.123 211.447 385.234 211.686 385.285 211.941C385.335 212.195 385.323 212.458 385.251 212.707L381.378 225.822L377.444 225.071Z" fill="#EF293D"/>
<path d="M361.521 225.061H404.996L433.83 262.759L393.166 262.191L361.521 225.061Z" fill="#263238"/>
<path d="M415.365 238.823C417.298 238.607 419.246 238.549 421.19 238.649C423.461 238.871 432.018 240.739 432.018 240.739L435.681 251.668L431.438 251.302L428.586 252.631C424.032 253.209 418.798 253.796 417.797 253.594C417.797 253.594 416.085 252.631 416.596 251.726C416.596 251.726 412.713 251.292 413.113 248.317C412.453 248.18 411.855 247.847 411.402 247.365C410.95 246.883 410.666 246.276 410.591 245.631L403.475 245.255C403.135 245.236 402.814 245.099 402.57 244.872C402.326 244.644 402.174 244.339 402.144 244.013V244.013C402.074 243.242 403.145 242.973 403.955 242.944L415.055 242.482C415.352 242.469 415.641 242.378 415.889 242.218C416.136 242.058 416.334 241.836 416.46 241.576C416.586 241.316 416.635 241.028 416.602 240.743C416.57 240.458 416.457 240.187 416.275 239.959L415.365 238.823Z" fill="#FFBE9D"/>
<g opacity="0.5">
<path opacity="0.5" d="M418.607 265.235L451.664 258.436L455.357 270.203L418.156 274.151L418.607 265.235Z" fill="white"/>
</g>
<g opacity="0.5">
<path opacity="0.5" d="M417.253 265.032L395.035 257.425L389.961 269L416.693 273.756L417.253 265.032Z" fill="white"/>
</g>
<path d="M445.89 160.634C446.011 160.854 446.081 161.097 446.096 161.346C446.112 161.595 446.072 161.845 445.98 162.078C445.818 162.661 445.523 163.202 445.116 163.662C444.709 164.122 444.201 164.489 443.628 164.736C443.034 164.924 442.404 164.986 441.782 164.918C441.16 164.85 440.561 164.653 440.025 164.341C439.215 163.84 439.024 163.272 439.024 163.253C439.024 163.233 439.425 163.657 440.205 164.033C441.212 164.504 442.368 164.59 443.438 164.273C443.941 164.047 444.393 163.727 444.767 163.332C445.142 162.937 445.431 162.475 445.62 161.972C445.749 161.534 445.84 161.086 445.89 160.634V160.634Z" fill="#455A64"/>
<path d="M445.809 160.373C445.58 160.907 445.203 161.37 444.719 161.711C444.223 162.128 443.634 162.428 442.997 162.587C442.189 162.798 441.328 162.709 440.585 162.337C439.869 161.953 439.287 161.374 438.914 160.671C438.615 160.114 438.419 159.511 438.333 158.89C438.204 158.335 438.204 157.759 438.333 157.205C438.496 157.734 438.616 158.275 438.694 158.822C438.801 159.45 439.046 160.048 439.412 160.577C439.778 161.107 440.256 161.555 440.815 161.894C441.451 162.208 442.182 162.293 442.877 162.135C443.46 162.013 444.009 161.773 444.488 161.432C445.329 160.844 445.739 160.296 445.809 160.373Z" fill="#455A64"/>
<path d="M450.372 222.086C450.372 222.086 450.262 222 450.092 221.797C449.921 221.595 449.671 221.297 449.391 220.834C448.565 219.694 447.832 218.493 447.199 217.243C445.073 213.104 443.944 208.557 443.897 203.941C443.85 199.324 444.887 194.757 446.929 190.579C447.536 189.315 448.246 188.098 449.051 186.94C449.261 186.624 449.488 186.318 449.731 186.025C449.891 185.813 449.991 185.717 450.001 185.726C449.769 186.181 449.508 186.621 449.221 187.045C448.493 188.232 447.841 189.46 447.269 190.724C445.098 195.53 444.172 200.771 444.571 205.998C444.97 211.224 446.683 216.279 449.561 220.728C449.859 221.165 450.129 221.619 450.372 222.086V222.086Z" fill="#263238"/>
<path d="M422.419 214.403C422.781 214.048 423.176 213.725 423.6 213.44C424.687 212.61 425.73 211.726 426.722 210.792C429.965 207.668 432.74 204.126 434.969 200.267C437.195 196.4 439.16 192.398 440.854 188.289C441.505 186.787 442.045 185.535 442.455 184.572C442.626 184.108 442.841 183.66 443.096 183.233C442.992 183.715 442.841 184.185 442.646 184.639C442.315 185.544 441.835 186.835 441.194 188.424C439.588 192.587 437.661 196.63 435.43 200.518C433.182 204.416 430.334 207.964 426.983 211.043C425.959 211.966 424.869 212.819 423.72 213.594C423.32 213.883 422.989 214.066 422.769 214.201C422.664 214.286 422.546 214.354 422.419 214.403V214.403Z" fill="#263238"/>
<path d="M414.304 183.946C414.404 183.946 413.843 185.592 413.443 188.308C413.213 189.903 413.109 191.512 413.133 193.122C413.182 195.082 413.403 197.034 413.793 198.958C414.215 200.876 414.8 202.756 415.545 204.581C416.172 206.065 416.914 207.5 417.766 208.876C419.228 211.225 420.399 212.516 420.319 212.573C419.996 212.315 419.707 212.021 419.458 211.697C419.135 211.349 418.834 210.983 418.557 210.599C418.217 210.147 417.816 209.637 417.446 209.059C416.541 207.69 415.758 206.25 415.104 204.755C413.495 201.065 412.665 197.104 412.662 193.103C412.659 191.49 412.8 189.879 413.082 188.289C413.173 187.605 413.353 186.998 413.473 186.459C413.577 186 413.708 185.547 413.863 185.101C413.96 184.7 414.108 184.312 414.304 183.946V183.946Z" fill="#263238"/>
<path d="M410.662 182.251C410.802 182.251 409.161 189.877 406.999 199.227C404.838 208.577 402.996 216.126 402.816 216.097C402.636 216.068 404.317 208.461 406.489 199.111C408.661 189.761 410.522 182.222 410.662 182.251Z" fill="#263238"/>
<path d="M360.218 175.547L363.551 164.377C363.551 164.377 364.762 159.842 365.052 158.783C365.422 157.377 364.411 156.924 363.791 157.878C363.561 158.244 360.959 162.846 360.959 162.846L363.15 155.008C363.831 152.543 362.23 152.784 361.759 153.66C361.289 154.536 358.317 162.009 358.317 162.009C361.109 152.283 360.318 151.416 359.518 151.253C358.717 151.089 356.285 159.986 356.285 159.986C355.679 158.967 354.853 158.083 353.863 157.396C351.431 155.75 347.338 157.338 347.127 158.446C346.917 159.553 348.378 159.871 348.378 159.871C348.957 159.457 349.649 159.215 350.369 159.175C351.089 159.136 351.805 159.301 352.428 159.65C353.052 159.998 353.555 160.515 353.876 161.137C354.197 161.758 354.321 162.456 354.233 163.145C354.184 163.659 353.948 164.141 353.567 164.505C353.186 164.87 352.685 165.094 352.149 165.138C351.614 165.183 351.08 165.046 350.639 164.75C350.199 164.454 349.881 164.019 349.74 163.52C348.739 159.12 347.177 160.526 347.177 160.526L348.669 170.242L346.947 175.056" fill="#B78876"/>
<path d="M306.174 136.915C309.967 135.952 312.309 134.643 312.309 133.218C312.309 130.252 302.361 127.854 290.101 127.854C277.841 127.854 267.893 130.252 267.893 133.218C267.893 134.643 270.194 135.933 273.968 136.896" fill="#EF293D"/>
<g opacity="0.4">
<path opacity="0.4" d="M304.054 136.81C307.427 135.953 309.578 134.798 309.488 133.527C309.258 130.002 300.681 128.779 289.802 128.779C278.923 128.779 270.126 130.907 270.126 133.527C270.126 134.798 272.128 135.943 275.51 136.791" fill="black"/>
</g>
<path d="M309.258 131.821C309.258 131.821 306.076 119.303 305.806 118.648C305.535 117.993 301.802 112.533 292.915 110.945H285.559C285.559 110.945 275.121 114.18 273.219 116.626C271.318 119.072 270.547 130.964 270.547 130.964L291.154 126.65L305.165 129.933L309.258 131.821Z" fill="#DDE1EA"/>
<path d="M290.563 109.528H293.715C294.519 110.411 294.966 111.542 294.976 112.716C295.116 114.911 295.637 130 295.637 130L286.419 129.596L286.719 110.963L283.587 111.637L283.687 110.578L284.518 109.615L290.563 109.528Z" fill="#EF293D"/>
<path d="M242.203 423.856L236.128 447.024L225.84 464.02C225.66 464.31 225.546 464.634 225.503 464.969C225.459 465.305 225.489 465.645 225.59 465.969C225.69 466.293 225.86 466.593 226.087 466.851C226.315 467.109 226.595 467.319 226.911 467.467V467.467C227.272 467.645 227.671 467.738 228.077 467.738C228.482 467.738 228.882 467.645 229.243 467.467C233.857 465.069 250.82 456.162 251.161 454.439C251.561 452.455 259.247 430.366 259.247 430.366L242.203 423.856Z" fill="#EF293D"/>
<g opacity="0.6">
<path opacity="0.6" d="M226.911 467.467L251.611 452.849L251.331 453.812C251.086 454.655 250.54 455.388 249.79 455.883C247.788 457.202 242.134 460.697 229.313 467.438C228.944 467.63 228.532 467.73 228.112 467.73C227.693 467.73 227.28 467.63 226.911 467.438V467.467Z" fill="white"/>
</g>
<g opacity="0.6">
<path opacity="0.6" d="M248.829 444.096C248.476 444.226 248.185 444.477 248.012 444.8C247.838 445.123 247.794 445.496 247.888 445.848C248.008 446.195 248.262 446.484 248.598 446.654C248.933 446.825 249.325 446.864 249.69 446.763C250.068 446.628 250.381 446.361 250.566 446.016C250.751 445.67 250.796 445.27 250.69 444.895C250.524 444.544 250.222 444.269 249.848 444.129C249.474 443.988 249.058 443.994 248.689 444.144" fill="white"/>
</g>
<path d="M235.268 458.801C234.902 457.927 234.365 457.129 233.686 456.451C232.903 455.885 232.017 455.464 231.074 455.209C231.074 455.151 231.424 455.055 232.005 455.122C232.755 455.249 233.451 455.584 234.007 456.085C234.586 456.574 235.006 457.212 235.218 457.924C235.398 458.483 235.338 458.801 235.268 458.801Z" fill="#263238"/>
<path d="M232.686 461.468C232.536 461.535 231.985 460.582 230.845 459.918C230.114 459.555 229.362 459.233 228.593 458.955C229.025 458.832 229.481 458.81 229.924 458.892C230.366 458.975 230.781 459.158 231.135 459.427C232.426 460.245 232.826 461.439 232.686 461.468Z" fill="#263238"/>
<path d="M239.582 455.728C238.762 454.806 237.872 453.944 236.92 453.148C235.86 452.487 234.75 451.904 233.598 451.405C234.94 451.412 236.235 451.88 237.251 452.724C238.37 453.431 239.196 454.495 239.582 455.728V455.728Z" fill="#263238"/>
<path d="M242.044 448.834C241.934 448.959 240.763 448.073 239.041 447.553C237.32 447.033 235.859 447.072 235.849 446.918C236.951 446.577 238.143 446.625 239.211 447.052C240.344 447.307 241.347 447.938 242.044 448.834V448.834Z" fill="#263238"/>
<path d="M243.993 442.075C243.043 441.476 242.013 441.003 240.931 440.669C239.809 440.491 238.667 440.465 237.538 440.592C237.538 440.524 237.858 440.313 238.539 440.149C239.383 439.962 240.26 439.965 241.102 440.159C241.944 440.353 242.728 440.732 243.393 441.266C243.843 441.69 244.043 442.036 243.993 442.075Z" fill="#263238"/>
<path d="M241.353 439.387C241.353 439.083 241.425 438.784 241.563 438.51C241.876 437.733 242.345 437.023 242.944 436.421C243.338 435.942 243.888 435.603 244.505 435.458C244.705 435.435 244.907 435.47 245.086 435.56C245.264 435.649 245.411 435.788 245.506 435.959C245.681 436.317 245.71 436.727 245.586 437.105C245.311 437.864 244.768 438.508 244.051 438.923C243.334 439.338 242.49 439.498 241.663 439.377C240.847 439.245 240.091 438.883 239.49 438.336C238.889 437.789 238.472 437.082 238.29 436.305C238.247 436.109 238.248 435.906 238.293 435.71C238.338 435.514 238.426 435.33 238.55 435.169C238.693 435.02 238.882 434.919 239.088 434.879C239.295 434.839 239.51 434.863 239.701 434.948C240.256 435.23 240.722 435.648 241.052 436.161C241.559 436.83 241.938 437.58 242.173 438.376C242.284 438.662 242.332 438.967 242.313 439.271C241.941 438.239 241.412 437.265 240.742 436.382C240.435 435.95 240.023 435.596 239.541 435.352C239.436 435.305 239.318 435.292 239.204 435.315C239.091 435.337 238.988 435.394 238.911 435.477C238.839 435.588 238.791 435.712 238.77 435.841C238.75 435.97 238.757 436.102 238.79 436.228C238.968 436.893 239.341 437.495 239.865 437.961C240.388 438.427 241.04 438.738 241.743 438.857C242.448 438.955 243.166 438.817 243.778 438.466C244.39 438.116 244.859 437.574 245.106 436.931C245.197 436.672 245.197 436.391 245.106 436.132C245.051 436.033 244.966 435.953 244.862 435.903C244.758 435.853 244.64 435.836 244.525 435.853C244.002 435.972 243.532 436.248 243.184 436.642C242.41 437.446 241.79 438.375 241.353 439.387V439.387Z" fill="#263238"/>
<path d="M306.926 430.501L305.575 448.989C305.575 448.989 324.661 456.5 324.761 459.938L287.42 458.744L288.261 429.856L306.926 430.501Z" fill="#EF293D"/>
<path d="M294.106 447.063C293.742 447.154 293.427 447.373 293.221 447.675C293.016 447.978 292.935 448.343 292.995 448.7C293.077 449.054 293.297 449.363 293.61 449.564C293.924 449.765 294.305 449.842 294.676 449.779C295.06 449.679 295.392 449.445 295.606 449.123C295.821 448.801 295.903 448.413 295.837 448.036C295.717 447.672 295.454 447.368 295.105 447.188C294.755 447.008 294.346 446.967 293.965 447.073" fill="white"/>
<g opacity="0.6">
<path opacity="0.6" d="M287.439 458.743L287.64 455.854L323.369 458.089C323.369 458.089 325.01 458.84 324.78 459.957L287.439 458.743Z" fill="white"/>
</g>
<path d="M306.207 448.825C306.207 448.998 305.286 449.056 304.365 449.585C303.445 450.115 302.944 450.847 302.784 450.77C302.624 450.693 302.924 449.691 304.045 449.065C305.166 448.44 306.257 448.671 306.207 448.825Z" fill="#263238"/>
<path d="M310.07 450.51C310.07 450.683 309.309 450.953 308.668 451.675C308.028 452.397 307.818 453.177 307.668 453.167C307.517 453.158 307.407 452.205 308.228 451.242C309.049 450.279 310.08 450.346 310.07 450.51Z" fill="#263238"/>
<path d="M312.14 455.093C311.97 455.093 311.75 454.236 312.251 453.292C312.751 452.348 313.622 451.992 313.692 452.136C313.762 452.281 313.221 452.782 312.821 453.571C312.421 454.361 312.321 455.083 312.14 455.093Z" fill="#263238"/>
<path d="M306.024 444.578C305.944 444.742 305.113 444.472 304.082 444.501C303.051 444.53 302.241 444.828 302.151 444.674C302.06 444.52 302.851 443.914 304.072 443.894C305.293 443.875 306.124 444.443 306.024 444.578Z" fill="#263238"/>
<path d="M306.226 440.852C305.606 440.986 304.96 440.959 304.354 440.775C303.684 440.646 303.035 440.432 302.423 440.139C302.054 439.969 301.7 439.773 301.362 439.552C301.152 439.437 300.966 439.287 300.811 439.109C300.69 438.978 300.619 438.811 300.61 438.636C300.601 438.461 300.655 438.288 300.761 438.146C300.857 438.027 300.98 437.931 301.12 437.866C301.261 437.8 301.416 437.768 301.572 437.77C301.81 437.779 302.045 437.818 302.273 437.886C302.668 437.996 303.053 438.138 303.423 438.31C304.043 438.604 304.611 438.99 305.105 439.455C305.946 440.255 306.226 440.919 306.156 440.948C306.086 440.977 305.675 440.447 304.815 439.773C304.312 439.386 303.761 439.063 303.173 438.81C302.829 438.667 302.475 438.548 302.112 438.454C301.722 438.348 301.382 438.329 301.272 438.454C301.162 438.579 301.272 438.55 301.272 438.666C301.393 438.785 301.528 438.891 301.672 438.984C302.002 439.205 302.323 439.388 302.673 439.561C303.244 439.851 303.84 440.092 304.454 440.284C305.06 440.427 305.652 440.617 306.226 440.852V440.852Z" fill="#263238"/>
<path d="M305.974 441.092C305.645 440.565 305.494 439.952 305.543 439.339C305.538 438.685 305.646 438.034 305.863 437.413C305.999 437.038 306.174 436.677 306.384 436.335C306.491 436.1 306.66 435.897 306.874 435.745C307.088 435.593 307.34 435.497 307.605 435.468C307.77 435.475 307.93 435.528 308.065 435.62C308.2 435.713 308.304 435.84 308.365 435.988C308.46 436.203 308.517 436.43 308.535 436.662C308.601 437.061 308.601 437.467 308.535 437.866C308.409 438.538 308.114 439.169 307.675 439.705C306.914 440.61 306.144 440.793 306.134 440.735C306.124 440.678 306.724 440.331 307.315 439.455C307.652 438.947 307.874 438.376 307.965 437.779C308.01 437.434 308.01 437.085 307.965 436.739C307.915 436.354 307.775 436.046 307.625 436.075C307.475 436.104 307.114 436.345 306.954 436.643C306.76 436.95 306.592 437.272 306.454 437.606C306.228 438.178 306.087 438.778 306.034 439.387C305.903 440.408 306.074 441.063 305.974 441.092Z" fill="#263238"/>
<path d="M276.273 180.044L298.721 179.081C298.851 176.79 297.63 162.615 297.63 162.615C297.63 162.615 306.117 161.344 306.227 153.179C306.337 145.013 305.046 128.711 305.046 128.711L304.896 127.998C295.078 123.945 283.699 123.579 275.232 129.857L273.971 130.82L276.273 180.044Z" fill="#B78876"/>
<path d="M297.65 162.461C293.723 162.538 289.861 161.485 286.561 159.437C286.561 159.437 289.183 165.311 297.65 164.579V162.461Z" fill="#AA6550"/>
<path d="M275.011 139.208C274.871 139.15 269.186 137.551 269.366 143.136C269.547 148.721 275.372 147.383 275.372 147.229C275.372 147.075 275.011 139.208 275.011 139.208Z" fill="#B78876"/>
<path d="M273.552 145.167C273.552 145.167 273.461 145.234 273.291 145.311C273.048 145.408 272.774 145.408 272.531 145.311C272.149 145.095 271.835 144.785 271.62 144.412C271.406 144.04 271.298 143.619 271.31 143.193C271.275 142.714 271.354 142.233 271.54 141.787C271.589 141.611 271.682 141.448 271.811 141.314C271.94 141.18 272.101 141.078 272.28 141.017C272.395 140.986 272.517 140.994 272.627 141.04C272.736 141.085 272.826 141.166 272.881 141.267C272.961 141.421 272.931 141.537 272.961 141.546C272.991 141.556 273.081 141.45 273.031 141.219C272.994 141.081 272.909 140.959 272.791 140.872C272.711 140.817 272.62 140.777 272.524 140.756C272.427 140.735 272.328 140.732 272.23 140.747C271.998 140.804 271.784 140.917 271.609 141.076C271.434 141.234 271.303 141.432 271.23 141.652C270.998 142.141 270.895 142.676 270.929 143.212C270.92 143.71 271.062 144.199 271.337 144.62C271.613 145.04 272.01 145.375 272.481 145.581C272.638 145.619 272.802 145.623 272.961 145.593C273.12 145.563 273.271 145.5 273.401 145.408C273.552 145.302 273.552 145.177 273.552 145.167Z" fill="#AA6550"/>
<path d="M302.072 138.889C302.078 139.192 301.959 139.485 301.742 139.705C301.525 139.925 301.226 140.054 300.911 140.064C300.757 140.077 300.601 140.06 300.454 140.014C300.306 139.968 300.17 139.893 300.053 139.795C299.937 139.697 299.842 139.578 299.774 139.443C299.706 139.309 299.668 139.163 299.66 139.014C299.657 138.712 299.777 138.42 299.994 138.201C300.21 137.982 300.507 137.852 300.821 137.84C300.976 137.826 301.131 137.843 301.279 137.89C301.426 137.936 301.562 138.01 301.679 138.108C301.796 138.206 301.891 138.326 301.958 138.46C302.026 138.594 302.065 138.74 302.072 138.889V138.889Z" fill="#263238"/>
<path d="M303.253 137.723C303.103 137.877 302.183 137.222 300.882 137.222C299.58 137.222 298.62 137.858 298.48 137.704C298.34 137.55 298.56 137.357 298.98 137.068C299.543 136.691 300.215 136.492 300.902 136.5C301.581 136.496 302.244 136.702 302.793 137.088C303.193 137.376 303.323 137.656 303.253 137.723Z" fill="#263238"/>
<path d="M289.263 139.332C289.266 139.636 289.145 139.93 288.926 140.149C288.707 140.369 288.408 140.497 288.092 140.507C287.938 140.519 287.783 140.501 287.636 140.454C287.489 140.408 287.353 140.333 287.237 140.236C287.12 140.138 287.025 140.019 286.957 139.885C286.889 139.751 286.85 139.606 286.841 139.458C286.838 139.152 286.959 138.858 287.177 138.637C287.396 138.416 287.695 138.286 288.012 138.273C288.324 138.255 288.63 138.356 288.865 138.554C289.099 138.753 289.242 139.033 289.263 139.332V139.332Z" fill="#263238"/>
<path d="M290.43 137.955C290.28 138.109 289.359 137.455 288.058 137.464C286.757 137.474 285.796 138.09 285.656 137.936C285.516 137.782 285.736 137.599 286.157 137.301C286.722 136.927 287.393 136.729 288.078 136.733C288.758 136.726 289.422 136.932 289.97 137.32C290.37 137.618 290.56 137.888 290.43 137.955Z" fill="#263238"/>
<path d="M295.167 147.267C295.854 147.051 296.567 146.925 297.289 146.892C297.619 146.892 297.929 146.796 297.989 146.584C298.021 146.249 297.944 145.912 297.769 145.621C297.459 144.841 297.129 144.032 296.768 143.185C295.862 141.114 295.123 138.98 294.557 136.801C295.645 138.789 296.562 140.86 297.299 142.992C297.629 143.849 297.949 144.668 298.24 145.448C298.454 145.834 298.518 146.281 298.42 146.709C298.371 146.822 298.296 146.922 298.201 147.002C298.105 147.082 297.992 147.14 297.869 147.171C297.687 147.222 297.499 147.248 297.309 147.248C296.598 147.336 295.879 147.342 295.167 147.267V147.267Z" fill="#263238"/>
<path d="M291.333 148.134C291.544 148.134 291.544 149.482 292.755 150.445C293.966 151.408 295.477 151.264 295.487 151.408C295.497 151.553 295.147 151.668 294.486 151.687C293.656 151.699 292.849 151.43 292.204 150.927C291.588 150.449 291.192 149.757 291.103 149.001C291.073 148.462 291.233 148.125 291.333 148.134Z" fill="#263238"/>
<path d="M290.773 133.045C290.643 133.382 289.341 133.218 287.77 133.401C286.199 133.584 285.008 133.979 284.768 133.671C284.678 133.527 284.898 133.209 285.398 132.872C286.06 132.459 286.815 132.205 287.6 132.13C288.381 132.041 289.173 132.13 289.912 132.39C290.562 132.612 290.823 132.881 290.773 133.045Z" fill="#263238"/>
<path d="M302.772 134.094C302.542 134.383 301.641 134.094 300.56 134.094C299.479 134.094 298.559 134.287 298.359 133.988C298.268 133.844 298.359 133.565 298.809 133.295C299.339 132.96 299.966 132.794 300.6 132.823C301.236 132.832 301.853 133.034 302.362 133.401C302.752 133.661 302.872 133.95 302.772 134.094Z" fill="#263238"/>
<path d="M314.983 257.484L311.27 441.931C311.259 442.528 311.004 443.097 310.56 443.513C310.115 443.93 309.518 444.161 308.898 444.156L286.569 443.963C286.258 443.961 285.95 443.899 285.664 443.781C285.377 443.663 285.118 443.492 284.901 443.277C284.684 443.062 284.514 442.807 284.4 442.528C284.286 442.25 284.231 441.952 284.237 441.652L287.7 282.895L258.656 440.506C258.479 441.47 257.946 442.339 257.155 442.955C256.364 443.57 255.369 443.891 254.353 443.857L235.628 443.231C235.033 443.21 234.45 443.067 233.916 442.813C233.383 442.559 232.912 442.199 232.533 441.757C232.155 441.314 231.879 440.8 231.722 440.248C231.565 439.695 231.532 439.117 231.624 438.552L261.038 256.752L314.983 257.484Z" fill="#263238"/>
<path d="M360.619 175.307L346.737 172.091L337.6 196L312.289 174.209C309.597 172.283 304.953 172.072 301.42 171.658H301.15C299.779 171.494 299.148 171.311 298.288 171.215C292.183 175.625 281.744 175.904 275.749 171.349C275.749 171.349 271.206 172.312 268.493 172.842C259.946 174.421 253.791 180.411 252.09 185.938L262.789 209.674L264.84 232.225L258.915 252.447C258.771 252.929 258.737 253.435 258.814 253.931C258.892 254.427 259.079 254.902 259.364 255.322C259.649 255.742 260.024 256.098 260.465 256.367C260.906 256.635 261.401 256.809 261.918 256.876L314.961 257.656L315.822 257.242C316.943 255.258 317.764 252.976 317.243 250.781C314.961 241.152 316.553 212.264 316.072 203.463C326.471 213.179 337.94 221.238 346.317 216.25C353.303 212.042 360.619 175.307 360.619 175.307Z" fill="#DDE1EA"/>
<path d="M274.059 133.959C274.279 136.222 274.209 138.514 274.439 140.776C274.574 141.631 274.859 142.458 275.28 143.222C275.435 143.669 275.732 144.057 276.128 144.332C276.525 144.607 277.002 144.755 277.491 144.755C277.981 144.755 278.457 144.607 278.854 144.332C279.251 144.057 279.548 143.669 279.703 143.222C280.097 142.308 280.275 141.322 280.224 140.333C280.163 139.335 280.271 138.333 280.544 137.368C281.022 136.349 281.609 135.381 282.295 134.479C282.638 134.027 282.866 133.504 282.962 132.953C283.057 132.401 283.018 131.836 282.846 131.301C279.693 131.244 276.791 132.466 274.059 133.969" fill="#263238"/>
<path d="M305.336 132.938L305.156 128.373L291.285 124.396L273.971 129.307V134.218C283.875 129.965 295.093 129.507 305.336 132.938V132.938Z" fill="#455A64"/>
<path d="M304.283 127.402L304.894 127.97L309.898 130.994C303.526 129.387 296.969 128.555 290.382 128.519C280.454 128.615 269.104 131.841 269.104 131.841L275.68 127.99C276.707 126.929 277.945 126.077 279.32 125.485C280.695 124.893 282.18 124.572 283.686 124.542L296.147 124.302C297.649 124.272 299.142 124.532 300.539 125.064C301.936 125.596 303.209 126.391 304.283 127.402V127.402Z" fill="#EF293D"/>
<path d="M295.377 124.012C294.995 121.913 294.784 119.788 294.747 117.657C294.542 115.535 294.505 113.401 294.637 111.273C295.026 113.371 295.236 115.497 295.267 117.628C295.472 119.75 295.509 121.885 295.377 124.012V124.012Z" fill="#263238"/>
<path d="M283.558 111.638C284.303 111.318 285.091 111.097 285.9 110.984C286.153 110.983 286.398 111.075 286.584 111.241C286.769 111.408 286.883 111.636 286.9 111.879V113.227C286.9 114.19 286.9 115.153 286.9 116.27C286.9 118.437 286.8 120.391 286.73 121.807C286.737 122.576 286.66 123.345 286.5 124.099C286.367 123.342 286.32 122.573 286.36 121.807C286.36 120.391 286.36 118.437 286.36 116.27C286.36 115.201 286.41 114.181 286.43 113.227C286.43 112.775 286.43 112.332 286.48 111.908C286.471 111.76 286.405 111.621 286.297 111.516C286.188 111.412 286.043 111.349 285.89 111.34C285.123 111.504 284.342 111.603 283.558 111.638V111.638Z" fill="#263238"/>
<path d="M310.197 130.936C310.197 130.936 309.617 130.705 308.546 130.339C308.016 130.146 307.355 129.934 306.615 129.597C305.745 129.24 304.987 128.673 304.413 127.951C303.742 127.123 303.622 125.967 302.881 125.149C302.141 124.33 300.83 124.282 299.509 124.234C296.836 124.128 293.884 124.099 290.802 124.186C287.719 124.272 284.797 124.426 282.094 124.629C280.863 124.599 279.66 124.984 278.692 125.717C278.32 126.111 277.985 126.537 277.691 126.988L277.21 127.633L276.96 127.931C276.858 128.039 276.736 128.127 276.6 128.191C274.748 129.058 273.227 129.607 272.186 130.059C271.145 130.512 270.575 130.753 270.565 130.724C270.555 130.695 270.685 130.618 270.945 130.474C271.206 130.329 271.596 130.127 272.096 129.886C273.097 129.385 274.638 128.76 276.42 127.883C276.511 127.837 276.596 127.779 276.67 127.71L276.9 127.411C277.05 127.2 277.21 126.988 277.361 126.766C277.676 126.287 278.034 125.836 278.431 125.418C279.462 124.6 280.759 124.157 282.094 124.166C284.767 123.945 287.719 123.762 290.822 123.675C293.924 123.589 296.887 123.675 299.569 123.772C300.24 123.781 300.909 123.839 301.57 123.945C302.238 124.056 302.84 124.398 303.262 124.908C304.082 125.871 304.172 127.026 304.763 127.797C305.28 128.485 305.968 129.038 306.765 129.405C307.475 129.751 308.116 129.992 308.646 130.214C309.177 130.435 309.567 130.618 309.827 130.753C310.087 130.888 310.207 130.916 310.197 130.936Z" fill="#263238"/>
<path d="M308.347 131.638C308.347 131.638 308.207 131.589 307.977 131.464C307.655 131.273 307.321 131.102 306.976 130.954C305.662 130.418 304.294 130.018 302.893 129.76C298.258 128.904 293.52 128.684 288.821 129.105C286.039 129.298 283.407 129.413 281.035 129.712C278.663 130.01 276.541 130.463 274.789 130.867C273.919 131.079 273.128 131.3 272.448 131.522C271.864 131.664 271.323 131.934 270.866 132.312C270.681 132.479 270.538 132.685 270.448 132.913C270.357 133.142 270.323 133.387 270.346 133.631C270.272 133.512 270.24 133.373 270.256 133.236C270.266 132.84 270.43 132.462 270.716 132.177C271.173 131.735 271.732 131.405 272.347 131.214C273.028 130.963 273.819 130.713 274.699 130.482C276.765 129.946 278.86 129.522 280.975 129.211C283.367 128.884 285.979 128.749 288.781 128.556C293.527 128.122 298.313 128.395 302.973 129.365C304.388 129.654 305.76 130.114 307.056 130.732C307.412 130.895 307.748 131.095 308.057 131.329C308.167 131.42 308.264 131.523 308.347 131.638V131.638Z" fill="#263238"/>
<path d="M292.345 109.915C291.917 109.978 291.486 110.01 291.054 110.011L287.921 110.088C286.71 110.088 285.579 110.088 284.818 110.184C284.609 110.209 284.407 110.275 284.226 110.38C284.045 110.484 283.889 110.624 283.768 110.791C283.768 110.791 283.768 110.666 283.928 110.492C284.154 110.26 284.452 110.104 284.778 110.05C285.821 109.925 286.871 109.874 287.921 109.895H291.044C291.477 109.865 291.912 109.871 292.345 109.915V109.915Z" fill="#FAFAFA"/>
<path d="M293.916 124.6C293.698 124.642 293.477 124.662 293.255 124.657L291.474 124.754C289.973 124.831 287.891 124.946 285.599 125.129L282.366 125.418C281.493 125.468 280.626 125.591 279.774 125.784C279.204 125.942 278.707 126.282 278.363 126.747C278.247 126.924 278.156 127.115 278.093 127.315C278.106 127.1 278.175 126.891 278.293 126.708C278.629 126.212 279.136 125.844 279.724 125.669C280.582 125.45 281.46 125.312 282.346 125.254C283.347 125.149 284.438 125.043 285.579 124.946C287.881 124.763 289.962 124.667 291.464 124.629H293.255C293.474 124.605 293.695 124.595 293.916 124.6V124.6Z" fill="#FAFAFA"/>
<path d="M286.97 122.836C286.955 122.685 286.955 122.534 286.97 122.383C286.97 121.979 287.03 121.574 287.06 121.151C287.13 120.12 287.22 118.686 287.27 117.107C287.32 115.527 287.27 114.083 287.27 113.043V111.81C287.243 111.661 287.243 111.508 287.27 111.358C287.302 111.507 287.322 111.658 287.33 111.81C287.33 112.099 287.38 112.523 287.4 113.043C287.45 114.083 287.47 115.518 287.4 117.107C287.33 118.695 287.24 120.13 287.13 121.17C287.13 121.68 287.03 122.133 286.98 122.393C287.001 122.54 286.997 122.69 286.97 122.836V122.836Z" fill="#FAFAFA"/>
<path d="M276.55 128.461C276.55 128.461 276.42 128.548 276.16 128.663L275.059 129.154L271.386 130.676C270.697 130.924 270.028 131.22 269.384 131.562C268.87 131.834 268.47 132.27 268.253 132.794C268.129 133.154 268.129 133.542 268.253 133.901C268.311 134.031 268.377 134.156 268.453 134.277C268.334 134.185 268.241 134.066 268.183 133.93C268.042 133.547 268.042 133.129 268.183 132.746C268.392 132.181 268.803 131.706 269.344 131.407C269.984 131.049 270.653 130.743 271.346 130.493L275.039 129.019L276.17 128.596C276.293 128.541 276.42 128.496 276.55 128.461Z" fill="#FAFAFA"/>
<path d="M274.059 172.804L275.29 164.648L286.839 168.721L290.102 174.248L292.123 168.182L298.459 166.082L301.171 171.513L296.517 177.84L287.8 179.534L274.059 172.804Z" fill="#DDE1EA"/>
<path d="M290.302 175.518C290.302 175.518 290.132 175.422 289.872 175.181C289.498 174.833 289.144 174.467 288.811 174.084C287.623 172.697 286.68 171.132 286.018 169.452H286.449L283.777 175.923C283.316 177.03 282.866 178.099 282.435 179.12L282.295 179.457L282.025 179.206C279.693 177.04 277.682 175.133 276.26 173.766L274.609 172.148C274.397 171.965 274.211 171.754 274.059 171.522C274.307 171.66 274.533 171.832 274.729 172.032L276.481 173.544C277.962 174.854 280.024 176.703 282.375 178.85L281.965 178.937C282.385 177.916 282.836 176.847 283.296 175.74L286.028 169.288L286.249 168.759L286.449 169.298C287.069 170.947 287.936 172.501 289.021 173.91C289.812 174.95 290.342 175.48 290.302 175.518Z" fill="#263238"/>
<path d="M301.171 171.513C300.8 172.163 300.346 172.764 299.819 173.304C298.562 174.772 297.069 176.037 295.396 177.05L295.136 177.195L295.035 176.925C294.655 175.962 294.215 174.864 293.754 173.757C293.064 172.091 292.413 170.512 291.903 169.106H292.353C291.973 170.945 291.503 172.457 291.212 173.516C291.095 174.087 290.927 174.648 290.712 175.192C290.714 174.607 290.792 174.025 290.942 173.458C291.152 172.37 291.563 170.849 291.893 169.029L292.043 168.21L292.343 168.99C292.874 170.377 293.544 171.937 294.235 173.603C294.705 174.72 295.136 175.798 295.496 176.8L295.136 176.675C296.778 175.697 298.276 174.512 299.589 173.15C300.078 172.572 300.607 172.025 301.171 171.513V171.513Z" fill="#263238"/>
<path d="M294.498 258.6C294.49 258.316 294.506 258.033 294.548 257.752C294.621 257.155 294.711 256.346 294.818 255.326C294.968 254.276 295.048 252.976 295.158 251.474C295.218 250.723 295.278 249.924 295.338 249.076C295.338 248.219 295.408 247.314 295.448 246.371C295.629 242.586 295.619 238.08 295.528 233.073C295.438 228.065 295.108 222.557 294.698 216.79C293.827 205.235 292.646 194.835 291.755 187.305C291.315 183.569 290.955 180.564 290.695 178.379C290.581 177.358 290.491 176.549 290.424 175.952C290.384 175.671 290.364 175.388 290.364 175.105C290.45 175.378 290.507 175.658 290.534 175.942C290.624 176.539 290.745 177.339 290.895 178.359C291.205 180.459 291.635 183.501 292.126 187.257C293.127 194.787 294.348 205.206 295.218 216.751C295.629 222.529 295.899 228.046 296.009 233.063C296.119 238.08 296.009 242.596 295.819 246.39C295.769 247.353 295.719 248.239 295.669 249.096C295.619 249.953 295.518 250.742 295.448 251.503C295.308 253.005 295.198 254.295 295.018 255.355L294.658 257.772C294.62 258.05 294.566 258.327 294.498 258.6V258.6Z" fill="#263238"/>
<path d="M285.229 172.437L287.851 173.756L287.361 178.003L283.277 177.175L285.229 172.437Z" fill="#EF293D"/>
<g opacity="0.4">
<path opacity="0.4" d="M285.229 172.437L287.851 173.756L287.361 178.003L283.277 177.175L285.229 172.437Z" fill="black"/>
</g>
<path d="M291.243 173.487L293.225 171.812L295.046 176.251L292.444 177.455L291.243 173.487Z" fill="#EF293D"/>
<path d="M288.341 179.033L287.12 229.278L295.947 237.675L300.211 226.524L291.744 178.773L288.341 179.033Z" fill="#EF293D"/>
<path d="M288.402 172.196C289.002 172.129 289.833 171.975 290.483 171.84C290.79 171.778 291.11 171.813 291.395 171.94C291.679 172.067 291.914 172.278 292.065 172.543L293.175 174.517C293.341 174.811 293.394 175.152 293.326 175.48L292.875 177.695C292.822 177.966 292.686 178.216 292.484 178.413C292.283 178.61 292.026 178.746 291.744 178.802L289.222 179.293C288.911 179.353 288.587 179.313 288.302 179.179C288.016 179.045 287.784 178.825 287.641 178.552L286.38 176.163C286.286 175.977 286.237 175.773 286.237 175.566C286.237 175.36 286.286 175.156 286.38 174.969L287.251 173.044C287.349 172.818 287.507 172.622 287.709 172.473C287.911 172.324 288.15 172.229 288.402 172.196V172.196Z" fill="#EF293D"/>
<path d="M292.064 172.736C291.868 173.023 291.644 173.291 291.394 173.536C290.963 174.017 290.393 174.672 289.672 175.375L287.901 177.185C287.663 177.441 287.402 177.677 287.12 177.888C287.309 177.599 287.53 177.331 287.781 177.089C288.221 176.607 288.781 175.952 289.512 175.24C290.243 174.527 290.823 173.892 291.283 173.439C291.521 173.183 291.782 172.948 292.064 172.736V172.736Z" fill="#263238"/>
<path d="M289.482 175.048C288.63 174.443 287.863 173.734 287.2 172.939C288.052 173.544 288.82 174.253 289.482 175.048Z" fill="#263238"/>
<path d="M292.432 178.261C292.585 177.288 292.792 176.324 293.053 175.372C293.096 174.677 292.871 173.992 292.422 173.446C292.245 173.202 292.141 172.915 292.122 172.618C292.122 172.618 292.242 172.926 292.552 173.369C292.737 173.633 292.908 173.907 293.063 174.188C293.263 174.547 293.333 174.96 293.263 175.362C293.093 176.191 292.873 176.884 292.723 177.404C292.666 177.701 292.569 177.989 292.432 178.261V178.261Z" fill="#263238"/>
<g opacity="0.3">
<path opacity="0.3" d="M262.77 242.077C263.924 243.11 265.314 243.867 266.829 244.285C268.344 244.703 269.94 244.771 271.487 244.484C273.679 244.06 275.761 242.914 277.993 243.049C280.445 243.203 282.466 244.85 284.698 245.822C288.862 247.642 293.706 247.065 298.149 245.928C300.151 245.408 302.303 244.696 303.614 243.117C304.549 241.82 305.128 240.315 305.295 238.745C305.806 235.884 306.027 232.981 305.956 230.079C305.956 228.259 305.705 226.314 304.504 224.908C303.465 223.81 302.038 223.123 300.501 222.982C298.962 222.849 297.411 222.933 295.897 223.232C283.79 225.154 272.345 229.865 262.54 236.964" fill="black" fill-opacity="0.8"/>
</g>
<path d="M284.267 232.514C284.267 232.514 256.244 244.579 253.372 245.186C243.904 247.179 233.075 238.58 236.088 228.768C237.198 225.118 252.291 184.772 252.291 184.772L266.652 203.867L260.538 223.395L276.441 222.374L284.267 232.514Z" fill="#DDE1EA"/>
<path d="M275.191 222.539C274.826 222.623 274.454 222.671 274.08 222.684L271.007 222.934C268.405 223.136 264.752 223.377 260.589 223.628H260.238L260.338 223.3C260.649 222.337 260.959 221.307 261.279 220.277C262.7 215.712 264.011 211.61 264.982 208.616C265.453 207.2 265.853 206.016 266.153 205.101C266.28 204.664 266.447 204.238 266.654 203.83C266.59 204.277 266.487 204.719 266.343 205.149C266.073 206.112 265.733 207.277 265.342 208.712C264.462 211.716 263.201 215.847 261.79 220.411C261.459 221.451 261.149 222.462 260.789 223.435L260.539 223.136C264.702 222.896 268.355 222.713 270.967 222.607L274.05 222.491C274.431 222.466 274.813 222.483 275.191 222.539V222.539Z" fill="#263238"/>
<path d="M281.136 234.074C281.186 234.199 275.031 236.76 267.385 239.784C259.739 242.807 253.533 245.176 253.443 245.032C253.353 244.887 259.548 242.345 267.195 239.312C274.841 236.279 281.086 233.958 281.136 234.074Z" fill="#263238"/>
<path d="M277.743 221.643L275.551 211.33C275.509 211.136 275.513 210.936 275.562 210.744C275.612 210.551 275.705 210.372 275.835 210.219C275.966 210.065 276.13 209.942 276.317 209.858C276.503 209.774 276.706 209.731 276.912 209.732L304.785 209.857C304.98 209.859 305.171 209.9 305.348 209.977C305.525 210.054 305.684 210.166 305.813 210.306C305.942 210.446 306.039 210.61 306.098 210.788C306.158 210.966 306.177 211.154 306.156 211.34L303.274 235.076C303.222 235.53 302.996 235.948 302.641 236.251C302.286 236.553 301.827 236.718 301.352 236.713L283.177 236.578C282.752 236.574 282.34 236.435 282.005 236.183C281.671 235.93 281.432 235.578 281.326 235.182L277.743 221.643Z" fill="#455A64"/>
<path d="M275.29 216.192C275.88 216.189 276.458 216.359 276.946 216.679C277.434 216.998 277.809 217.453 278.022 217.983C278.483 219.129 279.153 220.468 279.894 220.872C281.265 221.594 283.627 222.162 284.898 221.585C286.169 221.007 291.123 216.683 291.994 217.165C292.864 217.646 293.605 218.725 292.734 219.678C291.864 220.631 287.26 223.53 288.131 224.493C289.001 225.455 298.709 221.238 300.2 221.604C301.692 221.97 302.562 222.856 301.692 223.433C300.821 224.011 294.226 226.399 293.855 227.237C293.855 227.237 303.813 224.724 304.184 225.311C304.554 225.898 305.185 226.871 304.184 227.237C303.183 227.603 294.606 229.75 293.855 230.126C292.622 230.616 291.337 230.975 290.022 231.194C289.752 231.194 287.8 231.83 286.019 232.417C284.006 233.09 281.808 233.035 279.834 232.263L278.833 231.869C278.068 231.57 277.42 231.047 276.98 230.375C276.54 229.703 276.331 228.915 276.381 228.123L276.551 224.81L275.47 222.114L275.29 216.192Z" fill="#B78876"/>
<path d="M292.014 213.679C292.014 213.87 291.956 214.056 291.846 214.214C291.736 214.373 291.579 214.496 291.396 214.569C291.214 214.642 291.012 214.661 290.818 214.624C290.624 214.587 290.446 214.495 290.306 214.36C290.166 214.226 290.071 214.054 290.032 213.867C289.993 213.681 290.013 213.487 290.089 213.311C290.165 213.135 290.293 212.985 290.458 212.879C290.622 212.773 290.816 212.717 291.014 212.717C291.279 212.717 291.534 212.818 291.721 212.999C291.909 213.179 292.014 213.424 292.014 213.679Z" fill="#FAFAFA"/>
<path d="M310.829 197.146H299.42V200.7H310.829V197.146Z" fill="#263238"/>
<path d="M272.197 263.425L260.077 263.136L260.648 259.602L272.618 260.055L272.197 263.425Z" fill="#455A64"/>
<path d="M305.844 263.346L275.399 263.134L275.8 259.899L305.814 259.976L305.844 263.346Z" fill="#455A64"/>
<path d="M287.499 259.707V263.607C287.477 263.886 287.569 264.162 287.757 264.377C287.944 264.591 288.211 264.726 288.5 264.753H296.887C297.177 264.726 297.444 264.591 297.631 264.377C297.818 264.162 297.91 263.886 297.888 263.607V259.707C297.91 259.428 297.818 259.152 297.631 258.938C297.444 258.723 297.177 258.588 296.887 258.561H288.5C288.211 258.588 287.944 258.723 287.757 258.938C287.569 259.152 287.477 259.428 287.499 259.707ZM296.567 263.328H288.8V260.025H296.567V263.328Z" fill="#FAFAFA"/>
<path d="M308.458 260.005V263.308L314.883 263.423L314.973 259.899L308.458 260.005Z" fill="#455A64"/>
<path d="M244.705 434.062C244.705 434.062 244.705 433.908 244.755 433.619L244.955 432.358C245.145 431.212 245.426 429.585 245.776 427.485C246.517 423.229 247.577 417.124 248.879 409.585C251.501 394.448 255.114 373.581 259.107 350.538C263.1 327.496 266.573 306.571 269.055 291.434C270.276 283.885 271.267 277.761 271.957 273.505C272.308 271.405 272.568 269.768 272.758 268.632C272.858 268.093 272.928 267.669 272.978 267.371C273.028 267.072 273.068 266.938 273.068 266.938C273.078 267.082 273.078 267.227 273.068 267.371C273.068 267.679 272.978 268.103 272.898 268.651C272.738 269.788 272.508 271.434 272.198 273.534C271.587 277.78 270.636 283.914 269.455 291.482C267.073 306.639 263.621 327.544 259.657 350.615C255.694 373.687 252.011 394.554 249.289 409.642C247.908 417.173 246.797 423.277 246.016 427.514C245.626 429.604 245.316 431.241 245.095 432.329C244.995 432.868 244.905 433.292 244.845 433.59C244.785 433.889 244.705 434.062 244.705 434.062Z" fill="#455A64"/>
<path d="M301.942 434.728C301.792 434.728 302.052 397.174 302.503 350.896C302.953 304.618 303.443 267.064 303.583 267.064C303.723 267.064 303.473 304.618 303.023 350.906C302.573 397.193 302.082 434.728 301.942 434.728Z" fill="#455A64"/>
<path d="M311.95 435.383C311.95 435.518 305.865 435.634 298.349 435.634C290.833 435.634 284.758 435.518 284.758 435.383C284.758 435.248 290.843 435.133 298.349 435.133C305.855 435.133 311.95 435.239 311.95 435.383Z" fill="#455A64"/>
<path d="M259.988 434.38C259.629 434.452 259.263 434.484 258.897 434.477L255.895 434.573L246.077 434.804C242.243 434.881 238.771 434.91 236.259 434.891C234.998 434.891 233.987 434.891 233.256 434.833C232.887 434.841 232.517 434.809 232.155 434.737C232.513 434.658 232.879 434.622 233.246 434.631L236.249 434.534L246.057 434.303C249.89 434.226 253.363 434.197 255.875 434.226C257.136 434.226 258.146 434.226 258.877 434.284C259.25 434.269 259.624 434.301 259.988 434.38Z" fill="#455A64"/>
<path d="M337.322 205.224C337.067 203.632 336.98 202.019 337.062 200.41C336.98 198.8 337.067 197.187 337.322 195.595C337.582 197.187 337.669 198.8 337.582 200.41C337.669 202.019 337.582 203.632 337.322 205.224V205.224Z" fill="#263238"/>
<path d="M340.856 205.841C339.895 204.27 339.139 202.591 338.604 200.843C337.912 199.147 337.441 197.374 337.203 195.566C337.94 197.232 338.572 198.94 339.095 200.679C339.787 202.365 340.375 204.088 340.856 205.841Z" fill="#263238"/>
</svg>
