<svg width="531" height="319" viewBox="0 0 531 319" fill="none" xmlns="http://www.w3.org/2000/svg">
<g clip-path="url(#clip0_1829_61436)">
<path opacity="0.1" d="M487.591 239.694C486.999 240.971 486.408 242.231 485.819 243.473C484.901 245.404 483.994 247.296 483.098 249.152C482.7 249.974 482.302 250.781 481.914 251.588C477.524 260.56 473.424 268.495 469.943 275.021C466.783 280.935 462.092 285.889 456.361 289.366C450.63 292.843 444.069 294.714 437.367 294.783L359.947 295.626H359.13L352.494 295.697L346.817 295.759L329.408 295.948H328.704L319.841 296.045H319.57L264.945 296.637L216.186 297.148L210.514 297.209L175.289 297.592H175.248L152.403 297.837H152.157L79.9197 298.618L58.3096 298.853C53.698 298.905 49.1058 298.248 44.6942 296.903C37.0171 294.583 30.1177 290.213 24.7382 284.264C15.457 274.036 8.69272 262.102 4.14914 249.152C3.49228 247.283 2.87967 245.39 2.31129 243.473C-13.4177 190.289 5.75727 121.673 40.268 75.7554C41.7145 73.8354 43.1848 71.963 44.6789 70.1383L44.7146 70.0974C55.3282 57.0657 67.2283 46.1786 79.9044 38.4372C102.367 24.6956 127.255 20.8248 151.734 32.3604C172.445 42.1241 191.784 46.7148 210.53 47.9608C212.424 48.0833 214.318 48.1752 216.202 48.2314C259.202 49.5846 299.502 34.0864 346.827 24.0828C348.711 23.6845 350.6 23.2913 352.504 22.9185C386.264 16.1984 423.715 12.6544 468.253 20.1048C472.88 20.8609 477.446 21.9532 481.914 23.373C483.878 24.0062 485.77 24.6871 487.591 25.4156C508.849 34.066 520.443 50.0493 525.369 70.077C525.835 71.9358 526.239 73.8269 526.579 75.7503C535.314 123.925 509.732 192.26 487.591 239.694Z" fill="#EF293D"/>
<g opacity="0.1">
<path opacity="0.1" d="M80.4938 52.2356V305.448L59.4698 305.677C54.9832 305.728 50.5156 305.088 46.2236 303.779V83.0413H46.2584C56.5842 70.3464 68.1615 59.7532 80.4938 52.2356Z" fill="#EF293D"/>
<path opacity="0.1" d="M515.08 88.5465H41.9326C43.3398 86.6783 44.7703 84.8565 46.2238 83.081V83.0413H513.902C514.356 84.8399 514.748 86.675 515.08 88.5465Z" fill="#EF293D"/>
<path opacity="0.1" d="M477.124 39.5703V251.732H475.4C474.506 253.61 473.624 255.452 472.753 257.257C472.365 258.057 471.978 258.842 471.601 259.627V37.563C473.511 38.1791 475.352 38.8482 477.124 39.5703Z" fill="#EF293D"/>
<path opacity="0.1" d="M345.7 37.1208V302.571L340.177 302.631V38.2537C342.009 37.8661 343.847 37.4836 345.7 37.1208Z" fill="#EF293D"/>
<path opacity="0.1" d="M213.094 61.7506V304.013L207.576 304.072V61.4873C209.419 61.6066 211.261 61.6761 213.094 61.7506Z" fill="#EF293D"/>
<path opacity="0.1" d="M475.4 251.737C474.506 253.615 473.624 255.457 472.753 257.262H6.79289C6.15384 255.444 5.55784 253.602 5.00488 251.737H475.4Z" fill="#EF293D"/>
</g>
<path d="M114.117 162.41H104.681V191.059H114.117V162.41Z" fill="#282828"/>
<path d="M368.079 160.92H358.643V191.229H368.079V160.92Z" fill="#282828"/>
<path d="M428.261 295.481V301.94L352.807 302.636L352.002 302.651L323.325 302.914L322.639 302.924L313.923 302.999H313.664L260.531 303.49L173.311 304.3H173.236L151.06 304.509L150.821 304.514L52.2822 305.418V297.965L75.4518 284.053L121.94 283.666L122.933 283.661L123.261 283.656L124.255 283.641L146.575 283.457L147.573 283.452L147.891 283.447L148.884 283.442L156.041 283.382L156.23 283.377L173.887 283.228H174.031L311.807 282.066L315.179 282.041H315.517L318.09 282.016L336.789 281.862L337.783 281.847L338.701 281.837H339.178L344.994 281.792L346.146 281.777L347.691 281.767L352.534 281.723L360.217 281.658L361.21 281.648L362.939 281.638H363.262L400.368 281.32L428.261 295.481Z" fill="#282828"/>
<path opacity="0.2" d="M428.261 295.481V301.94L352.807 302.636L352.002 302.651L323.325 302.914L322.639 302.924L313.923 302.999H313.664L260.531 303.49L173.311 304.3H173.236L151.06 304.509L150.821 304.514L52.2822 305.418V297.965L75.4518 284.053L121.94 283.666L122.933 283.661L123.261 283.656L124.255 283.641L146.575 283.457L147.573 283.452L147.891 283.447L148.884 283.442L156.041 283.382L156.23 283.377L173.887 283.228H174.031L311.807 282.066L315.179 282.041H315.517L318.09 282.016L336.789 281.862L337.783 281.847L338.701 281.837H339.178L344.994 281.792L346.146 281.777L347.691 281.767L352.534 281.723L360.217 281.658L361.21 281.648L362.939 281.638H363.262L400.368 281.32L428.261 295.481Z" fill="#DDE1EA"/>
<path d="M146.65 270.643V282.811C146.65 283.387 146.487 283.952 146.179 284.439C145.871 284.927 145.432 285.316 144.911 285.564C144.524 285.752 144.1 285.853 143.67 285.862L126.336 286.23C125.873 286.241 125.414 286.144 124.995 285.946C124.465 285.703 124.017 285.314 123.702 284.823C123.388 284.332 123.221 283.762 123.222 283.179V270.643H146.65Z" fill="#282828"/>
<path opacity="0.1" d="M146.65 270.643V282.811C146.65 283.387 146.487 283.952 146.179 284.439C145.871 284.927 145.432 285.316 144.911 285.564C144.524 285.752 144.1 285.853 143.67 285.862L126.336 286.23C125.873 286.241 125.414 286.144 124.995 285.946C124.465 285.703 124.017 285.314 123.702 284.823C123.388 284.332 123.221 283.762 123.222 283.179V270.643H146.65Z" fill="#DDE1EA"/>
<path d="M147.643 270.643V282.811C147.643 283.387 147.48 283.952 147.172 284.439C146.864 284.927 146.425 285.316 145.904 285.564C145.517 285.752 145.093 285.853 144.663 285.862L127.329 286.23C126.866 286.241 126.407 286.144 125.988 285.946C125.458 285.703 125.01 285.314 124.695 284.823C124.381 284.332 124.214 283.762 124.215 283.179V270.643H147.643Z" fill="#282828"/>
<path d="M361.21 270.643H337.782V286.294H361.21V270.643Z" fill="#282828"/>
<path opacity="0.1" d="M361.21 270.643H337.782V286.294H361.21V270.643Z" fill="#DDE1EA"/>
<path d="M360.217 270.643H336.789V286.294H360.217V270.643Z" fill="#282828"/>
<path opacity="0.1" d="M114.117 162.406V165.253L104.681 165.009V162.406H114.117Z" fill="#DDE1EA"/>
<path d="M176.231 82.2013L164.892 163.687C164.82 164.208 164.559 164.683 164.159 165.024C163.758 165.364 163.247 165.544 162.722 165.531L71.9306 163.175L70.2071 163.131C69.9071 163.124 69.6119 163.053 69.3408 162.924C69.0697 162.795 68.8288 162.611 68.6339 162.383C68.4389 162.154 68.2943 161.887 68.2093 161.599C68.1244 161.311 68.1011 161.009 68.141 160.711L80.8706 75.4091C80.9527 74.8807 81.2298 74.4023 81.6473 74.0684C82.0648 73.7345 82.5922 73.5693 83.1255 73.6055L174.244 79.7766C174.538 79.7936 174.826 79.8714 175.088 80.0051C175.35 80.1388 175.582 80.3254 175.769 80.5533C175.956 80.7811 176.093 81.0452 176.173 81.3288C176.252 81.6125 176.272 81.9095 176.231 82.2013V82.2013Z" fill="#282828"/>
<path d="M86.9649 79.5979L77.3643 154.789L160.805 157.437L171.066 84.8945L86.9649 79.5979Z" fill="#282828"/>
<path d="M289.611 78.4351H193.252C191.79 78.4351 190.604 79.6207 190.604 81.0834V161.909C190.604 163.371 191.79 164.557 193.252 164.557H289.611C291.073 164.557 292.258 163.371 292.258 161.909V81.0834C292.258 79.6207 291.073 78.4351 289.611 78.4351Z" fill="#282828"/>
<path d="M287.783 84.2336H195.402V155.946H287.783V84.2336Z" fill="#EF293D"/>
<path opacity="0.1" d="M368.079 160.915V162.798L358.643 162.992V160.915H368.079Z" fill="#DDE1EA"/>
<path d="M410.659 159.325C410.672 159.531 410.644 159.737 410.576 159.932C410.508 160.127 410.401 160.305 410.261 160.458C410.122 160.61 409.954 160.732 409.766 160.818C409.578 160.903 409.375 160.95 409.169 160.955L316.193 162.878C315.806 162.886 315.431 162.747 315.143 162.49C314.855 162.233 314.674 161.876 314.638 161.491L306.647 78.3756C306.627 78.1694 306.649 77.9614 306.712 77.764C306.775 77.5667 306.878 77.3842 307.013 77.2277C307.149 77.0711 307.315 76.9437 307.501 76.8532C307.687 76.7627 307.89 76.711 308.097 76.7012L400.368 72.1102L401.361 72.0605C401.756 72.0397 402.144 72.1731 402.442 72.4327C402.741 72.6922 402.926 73.0576 402.961 73.4517L410.659 159.325Z" fill="#282828"/>
<path d="M311.955 81.5853L396.225 77.4414L403.342 152.965L319.738 154.952L311.955 81.5853Z" fill="#282828"/>
<path opacity="0.1" d="M410.659 159.325C410.673 159.531 410.644 159.737 410.576 159.932C410.508 160.127 410.401 160.305 410.261 160.458C410.122 160.61 409.954 160.732 409.766 160.818C409.578 160.903 409.375 160.95 409.169 160.955L400.368 72.1102L401.361 72.0605C401.756 72.0397 402.144 72.1731 402.442 72.4327C402.741 72.6922 402.927 73.0576 402.961 73.4517L410.659 159.325Z" fill="#DDE1EA"/>
<path opacity="0.1" d="M83.1404 73.6006L71.9306 163.176L70.2071 163.131C69.9071 163.124 69.6119 163.053 69.3408 162.925C69.0697 162.796 68.8288 162.611 68.6339 162.383C68.4389 162.154 68.2943 161.887 68.2093 161.599C68.1244 161.311 68.1011 161.009 68.141 160.711L80.8706 75.4092C80.9517 74.8772 81.2305 74.3954 81.6513 74.0601C82.0721 73.7248 82.6039 73.5607 83.1404 73.6006V73.6006Z" fill="#DDE1EA"/>
<path opacity="0.1" d="M114.117 182.573H104.681V191.059H114.117V182.573Z" fill="#DDE1EA"/>
<path opacity="0.1" d="M147.643 270.638V273.107L124.215 273.733V270.638H147.643Z" fill="#DDE1EA"/>
<path d="M188.991 185.53V269.103C188.985 269.613 188.783 270.101 188.427 270.466C188.071 270.832 187.588 271.046 187.079 271.065L91.892 273.599H91.8671C91.3488 273.593 90.8535 273.384 90.487 273.017C90.1205 272.651 89.9117 272.155 89.9053 271.637V185.53C89.9117 185.011 90.1205 184.516 90.487 184.149C90.8535 183.782 91.3488 183.574 91.8671 183.567H187.029C187.547 183.574 188.043 183.782 188.409 184.149C188.776 184.516 188.984 185.011 188.991 185.53V185.53Z" fill="#282828"/>
<path opacity="0.1" d="M91.892 183.567V273.599H91.8671C91.3488 273.593 90.8535 273.384 90.487 273.017C90.1205 272.651 89.9117 272.155 89.9053 271.637V185.53C89.9117 185.011 90.1205 184.516 90.487 184.149C90.8535 183.782 91.3488 183.574 91.8671 183.567H91.892Z" fill="#DDE1EA"/>
<path d="M96.2373 188.903H184.396V262.564L96.2373 264.551V188.903Z" fill="#DDE1EA"/>
<path opacity="0.1" d="M368.079 182.573H358.643V191.228H368.079V182.573Z" fill="#DDE1EA"/>
<path opacity="0.1" d="M360.217 270.638V273.823L336.789 273.197V270.638H360.217Z" fill="#DDE1EA"/>
<path d="M391.135 185.53V271.637C391.128 272.159 390.916 272.659 390.544 273.026C390.172 273.393 389.671 273.599 389.148 273.599V273.599L293.941 271.065C293.432 271.046 292.949 270.832 292.593 270.466C292.237 270.101 292.035 269.613 292.029 269.103V185.53C292.036 185.011 292.244 184.516 292.611 184.149C292.978 183.782 293.473 183.574 293.991 183.567H389.153C389.675 183.568 390.175 183.775 390.546 184.142C390.917 184.509 391.128 185.008 391.135 185.53V185.53Z" fill="#282828"/>
<path opacity="0.1" d="M391.134 185.53V271.637C391.128 272.159 390.915 272.659 390.544 273.026C390.172 273.393 389.67 273.599 389.147 273.599V273.599V183.567C389.67 183.567 390.172 183.773 390.544 184.14C390.915 184.508 391.128 185.007 391.134 185.53Z" fill="#DDE1EA"/>
<path d="M384.802 188.903H296.644V262.564L384.802 264.551V188.903Z" fill="#DDE1EA"/>
<path d="M289.566 185.53V269.103C289.56 269.613 289.358 270.101 289.002 270.466C288.646 270.832 288.163 271.046 287.654 271.065L192.467 273.599C191.945 273.599 191.443 273.393 191.071 273.026C190.699 272.659 190.487 272.159 190.48 271.637V185.53C190.487 185.011 190.696 184.516 191.062 184.149C191.429 183.782 191.924 183.574 192.442 183.567H287.604C288.122 183.574 288.618 183.782 288.984 184.149C289.351 184.516 289.56 185.011 289.566 185.53V185.53Z" fill="#282828"/>
<path d="M196.813 188.903H284.972V262.564L196.813 264.551V188.903Z" fill="#DDE1EA"/>
<path opacity="0.1" d="M428.261 295.481V301.94L352.807 302.636L352.002 302.651L323.325 302.914L322.639 302.924L313.923 302.999H313.664L260.531 303.491L173.311 304.301H173.236L151.06 304.509L150.821 304.514L52.2822 305.418V297.966L152.863 297.305H153.101L173.46 297.166H173.554L314.151 296.236H314.295L314.38 296.231H314.613L316.992 296.217H317.717L354.714 295.968L356.899 295.958L357.386 295.953L428.261 295.481Z" fill="#DDE1EA"/>
<path d="M241.593 191.06C255.673 191.06 267.087 179.641 267.087 165.556C267.087 151.47 255.673 140.052 241.593 140.052C227.513 140.052 216.099 151.47 216.099 165.556C216.099 179.641 227.513 191.06 241.593 191.06Z" fill="#EDEDED"/>
<path d="M267.092 217.727C267.092 217.727 217.673 223.689 222.392 217.727C224.1 215.57 224.572 209.181 224.478 201.902C224.448 199.691 224.369 197.4 224.254 195.119C223.708 184.188 222.392 173.506 222.392 173.506C222.392 173.506 265.602 153.134 260.635 169.282C258.649 175.806 259.299 184.968 260.809 193.569C261.251 196.078 261.763 198.538 262.299 200.873C263.608 206.569 265.208 212.194 267.092 217.727V217.727Z" fill="#EDEDED"/>
<path opacity="0.1" d="M267.092 217.727C267.092 217.727 217.673 223.689 222.392 217.727C224.1 215.571 224.572 209.181 224.478 201.902C232.012 198.682 241.598 201.082 241.598 201.082C251.69 199.07 258.162 199.462 262.299 200.873C263.608 206.569 265.208 212.195 267.092 217.727V217.727Z" fill="#DDE1EA"/>
<path d="M173.291 304.862V304.445L260.516 303.496L313.659 302.999H313.808L313.754 303.734L313.828 302.999H313.923V302.914L314.603 296.231L314.861 293.702L314.941 292.912L315.01 292.252L318.08 282.011L321.149 271.786L323.732 263.175L327.675 250.018C327.675 250.018 325.44 244.801 324.199 243.31C322.957 241.82 321.715 231.634 321.715 231.634C321.715 231.634 311.116 221.533 306.482 220.37C304.541 219.873 300.706 219.212 296.634 218.382C295.109 218.074 293.544 217.746 292.039 217.389C291.19 217.195 290.356 216.991 289.556 216.788C288 216.399 286.466 215.924 284.962 215.366C284.173 215.08 283.423 214.698 282.727 214.229C279.076 211.551 269.928 211.247 269.575 211.247C269.574 211.236 269.574 211.224 269.575 211.213V211.168C269.588 210.959 269.588 210.75 269.575 210.542C269.575 210.343 269.575 210.11 269.53 209.846C269.53 209.767 269.53 209.682 269.496 209.598C269.471 209.419 269.441 209.23 269.396 209.031C269.381 208.943 269.361 208.855 269.337 208.768C269.193 208.169 268.985 207.588 268.716 207.034C268.681 206.955 268.636 206.87 268.597 206.791C268.353 206.332 268.071 205.894 267.752 205.484C267.688 205.399 267.618 205.31 267.544 205.225C267.137 204.746 266.684 204.306 266.193 203.914C266.059 203.809 265.92 203.7 265.775 203.601C265.695 203.536 265.611 203.476 265.522 203.422L265.08 203.134L264.668 202.895C264.305 202.696 263.923 202.503 263.506 202.319C263.377 202.259 263.238 202.204 263.098 202.15C262.959 202.095 262.741 202.011 262.557 201.941H262.527L262.155 201.792C261.872 201.698 261.584 201.613 261.281 201.529L260.819 201.41L260.322 201.295L259.825 201.191C259.329 201.092 258.797 201.002 258.241 200.933L257.675 200.863L257.094 200.803L256.493 200.754L255.638 200.704L254.645 200.669C250.264 200.669 245.896 201.133 241.613 202.055C238.637 201.393 235.59 201.113 232.543 201.221H232.111L231.615 201.251H231.297L230.656 201.31C230.442 201.31 230.224 201.355 230.01 201.385C229.797 201.414 229.573 201.439 229.36 201.474L229.032 201.529C228.709 201.583 228.381 201.643 228.039 201.713C227.929 201.733 227.82 201.757 227.711 201.787C227.279 201.882 226.847 201.996 226.419 202.125C226.206 202.185 225.992 202.254 225.779 202.329C225.669 202.359 225.565 202.398 225.461 202.438L225.143 202.552L224.83 202.677L224.458 202.826C224.269 202.905 224.085 202.99 223.901 203.079C223.797 203.124 223.693 203.173 223.593 203.228C223.494 203.283 223.39 203.327 223.295 203.382C222.172 203.963 221.135 204.695 220.211 205.558L219.958 205.802L219.709 206.055C219.625 206.14 219.546 206.229 219.466 206.319C219.142 206.673 218.841 207.046 218.562 207.437C218.483 207.541 218.408 207.645 218.334 207.755C218.018 208.22 217.733 208.704 217.479 209.205C217.415 209.325 217.355 209.449 217.296 209.568C216.89 210.407 216.558 211.28 216.302 212.177C216.21 212.508 216.125 212.839 216.049 213.17C216.049 213.17 205.535 217.811 196.813 221.17C194.494 222.064 192.308 222.874 190.48 223.485C189.949 223.664 189.452 223.828 188.99 223.982C187.988 224.345 186.946 224.585 185.886 224.698C185.387 224.706 184.889 224.752 184.396 224.837C180.388 225.488 173.519 228.315 172.769 231.152C172.708 231.378 172.691 231.615 172.72 231.848C172.72 231.848 172.72 231.882 172.72 231.902C173.216 235.38 169.74 234.883 169.74 234.883C169.74 234.883 168.498 244.075 166.76 246.56C165.503 248.348 164.644 252.338 164.534 255.349C164.472 256.287 164.546 257.23 164.753 258.147C164.753 258.171 164.753 258.196 164.753 258.216C164.952 258.882 164.475 260.701 163.665 263.031C162.786 265.59 161.505 268.77 160.273 271.771C158.416 276.302 156.667 280.416 156.558 281.32C156.513 281.723 156.384 282.443 156.205 283.373C155.48 287.159 153.871 294.368 153.076 297.285C152.485 299.461 151.626 302.442 151.035 304.489C151.035 304.549 151 304.609 150.985 304.663L173.251 304.445V304.862H173.321H173.291Z" fill="#EF293D"/>
<path opacity="0.1" d="M181.416 246.297C181.416 246.297 209.726 260.954 219.908 259.215L181.416 246.297Z" fill="#DDE1EA"/>
<path opacity="0.1" d="M239.03 240.334C239.03 240.334 266.595 249.278 275.784 250.52C284.972 251.762 239.03 240.334 239.03 240.334Z" fill="#DDE1EA"/>
<path opacity="0.1" d="M269.605 211.556C255.202 214.209 228.084 213.637 216.362 213.235C220.658 197.832 241.608 203.069 241.608 203.069C267.539 197.892 269.526 208.634 269.605 211.556Z" fill="#DDE1EA"/>
<path d="M269.605 210.562C255.202 213.215 228.084 212.644 216.362 212.241C220.658 196.838 241.608 202.075 241.608 202.075C267.539 196.898 269.526 207.64 269.605 210.562Z" fill="#EF293D"/>
<path d="M346.062 278.469C346.062 278.469 363.028 275.86 363.361 283.313C363.693 290.766 354.709 295.973 354.709 295.973L346.062 278.469Z" fill="#EDEDED"/>
<path opacity="0.1" d="M260.808 193.569C260.079 193.895 259.333 194.184 258.573 194.434C253.219 196.282 247.821 198.145 242.183 198.821C236.546 199.497 230.631 198.901 225.714 196.088C225.198 195.797 224.7 195.473 224.224 195.119C223.678 184.188 222.361 173.506 222.361 173.506C222.361 173.506 265.572 153.134 260.605 169.282C258.628 175.806 259.299 184.968 260.808 193.569Z" fill="#DDE1EA"/>
<path d="M234.6 125.692C233.891 125.88 233.148 125.899 232.43 125.748C231.713 125.597 231.041 125.28 230.467 124.823L231.5 126.259C230.892 126.329 230.275 126.265 229.693 126.072C229.111 125.879 228.579 125.561 228.133 125.141C228.039 126.426 228.093 127.718 228.292 128.992C226.583 129.074 224.9 128.546 223.544 127.501C223.517 127.949 223.629 128.395 223.863 128.778C224.098 129.161 224.444 129.462 224.855 129.642C223.138 129.437 221.405 129.864 219.979 130.843C218.553 131.822 217.532 133.287 217.107 134.964L219.7 135.202C217.662 135.638 215.833 136.754 214.514 138.367C213.72 139.361 213.114 140.633 213.461 141.845C213.809 143.058 215.488 143.833 216.402 142.968C215.102 144.521 214.157 146.338 213.633 148.295C213.11 150.251 213.021 152.298 213.372 154.292C213.608 155.142 213.685 156.028 213.6 156.905C213.437 157.725 212.92 158.436 212.662 159.236C212.165 160.687 212.637 162.262 213.079 163.708L215.408 171.369C216.253 174.137 217.092 176.909 218.195 179.587C218.975 181.281 219.639 183.025 220.181 184.809C220.807 187.214 220.832 189.848 222.168 191.949C223.084 193.272 224.308 194.352 225.734 195.095C230.646 197.907 236.581 198.503 242.204 197.827C247.826 197.152 253.22 195.288 258.569 193.44C259.757 193.082 260.898 192.581 261.966 191.949C265.666 189.525 266.491 184.566 267.181 180.199C267.951 175.329 268.979 170.47 270.802 165.889C271.885 163.161 273.285 160.393 273.047 157.472C272.744 153.591 269.674 150.446 268.915 146.63C268.66 145.355 268.672 144.04 268.949 142.77C269.185 142.013 269.317 141.227 269.342 140.434C269.257 138.834 267.946 137.602 266.714 136.574C264.042 134.341 261.284 132.231 258.44 130.244C258.296 129.25 259.647 128.823 260.258 128.038C261.122 126.93 260.228 125.171 258.917 124.654C257.605 124.137 256.135 124.475 254.769 124.818C254.858 124.118 254.719 123.409 254.373 122.795C254.027 122.181 253.491 121.695 252.847 121.41C252.202 121.125 251.483 121.055 250.796 121.212C250.109 121.368 249.49 121.743 249.033 122.279C248.67 121.447 248.091 120.727 247.355 120.196C246.619 119.665 245.754 119.341 244.851 119.258C241.558 119 241.493 121.519 239.387 122.905C237.282 124.291 235.543 122.463 233.924 121.131C233.627 121.884 233.532 122.702 233.651 123.502C233.77 124.303 234.097 125.058 234.6 125.692V125.692Z" fill="#282828"/>
<path d="M358.643 293.375C358.643 293.375 358.2 294.428 357.386 295.953C356.154 298.3 354.654 300.496 352.916 302.497L352.782 302.641H351.977L323.3 302.904H322.614L322.53 302.805L316.967 296.202L314.871 293.712L314.787 293.608L314.608 293.399L314.509 293.28L314.379 293.126L310.302 288.287L311.792 282.076L314.33 271.612L314.394 271.358L314.891 269.371L315.244 267.88L316.426 263.021L320.478 246.302L327.68 250.028L335.274 263.443L339.352 270.648H341.587C342.009 270.648 342.978 271.463 343.951 272.402C344.299 272.735 344.646 273.088 344.944 273.396C345.828 274.31 346.529 275.095 346.529 275.095C346.529 275.095 350.149 275.174 351.123 278.026C351.173 278.164 351.215 278.305 351.247 278.449C351.57 279.57 351.991 280.66 352.504 281.708C353.144 283.104 353.949 284.689 354.764 286.274C356.278 289.181 357.818 291.949 358.384 292.952L358.454 293.076L358.643 293.375Z" fill="#EF293D"/>
<path opacity="0.1" d="M315.979 270.941L315.929 271.652V271.701L315.845 272.844L315.184 282.041L314.385 293.121L314.156 296.241L313.66 302.919V303.004L260.516 303.501L173.306 304.445V304.862H173.236V304.445V304.306L173.46 297.171L173.887 283.229L174.254 271.408L174.289 270.23C174.311 269.52 174.477 268.821 174.778 268.177C175.079 267.532 175.508 266.956 176.039 266.483C176.569 266.01 177.191 265.651 177.865 265.426C178.54 265.202 179.253 265.117 179.961 265.177C182.306 265.376 185.35 265.62 188.991 265.878L190.481 265.987C211.505 267.448 250.359 269.336 289.566 266.981C290.391 266.936 291.22 266.887 292.05 266.827C298.129 266.444 304.203 265.952 310.218 265.336C310.978 265.257 311.747 265.345 312.469 265.594C313.192 265.844 313.851 266.249 314.4 266.781C314.95 267.313 315.376 267.959 315.648 268.673C315.921 269.388 316.034 270.153 315.979 270.916V270.941Z" fill="#DDE1EA"/>
<path d="M173.291 304.862V304.445L260.516 303.496L313.66 302.999H313.809V302.914L314.305 296.236L314.519 293.255L315.333 282.021L315.974 273.127V272.909C316.004 272.499 315.985 272.087 315.92 271.681C315.922 271.665 315.922 271.648 315.92 271.632C315.783 270.793 315.442 270.001 314.926 269.326C314.379 268.625 313.663 268.074 312.844 267.726C312.026 267.378 311.132 267.245 310.248 267.339C304.233 267.955 298.159 268.447 292.079 268.829C291.25 268.889 290.421 268.939 289.596 268.983C250.389 271.314 211.535 269.426 190.511 267.99L189.021 267.88C185.38 267.622 182.335 267.383 179.991 267.18C178.701 267.071 177.417 267.444 176.386 268.226C175.355 269.009 174.651 270.146 174.409 271.418C174.358 271.687 174.328 271.959 174.319 272.233L173.981 283.243L173.519 297.19L173.301 304.325V304.465V304.882L173.291 304.862Z" fill="#282828"/>
<path opacity="0.1" d="M316.128 274.424L315.517 282.041L314.608 293.394L314.38 296.237L313.883 302.601L313.853 302.919V303.004L313.779 303.739L313.833 303.004H313.689L260.546 303.501L173.306 304.445V304.306L173.549 297.171L174.046 283.229L174.364 273.962C174.379 273.435 174.526 272.92 174.792 272.464C175.057 272.009 175.433 271.627 175.883 271.353C176.446 271.009 177.103 270.852 177.761 270.906C178.804 270.991 180.085 271.09 181.58 271.199C184.009 271.378 187.004 271.587 190.49 271.806C196.947 272.213 205.048 272.65 214.331 273.008C240.157 274.002 275.024 274.335 308.141 271.433C309.631 271.304 311.171 271.16 312.676 271.016C313.272 270.956 313.872 271.07 314.404 271.344C314.555 271.419 314.698 271.509 314.832 271.612C315.264 271.925 315.606 272.347 315.825 272.834C315.876 272.931 315.917 273.033 315.949 273.137C316.098 273.549 316.159 273.987 316.128 274.424V274.424Z" fill="#DDE1EA"/>
<path opacity="0.1" d="M147.643 281.226V282.811C147.643 283.387 147.48 283.952 147.172 284.439C146.864 284.927 146.425 285.316 145.904 285.564L125.988 285.946C125.458 285.703 125.01 285.314 124.695 284.823C124.381 284.332 124.214 283.762 124.215 283.179V281.688L147.643 281.226Z" fill="#DDE1EA"/>
<path d="M147.891 286.498L121.94 286.995V282.687L147.891 282.19V286.498Z" fill="#282828"/>
<path opacity="0.1" d="M147.891 286.498L121.94 286.995V282.687L147.891 282.19V286.498Z" fill="#DDE1EA"/>
<path d="M148.885 286.498L122.934 286.995V282.687L148.885 282.19V286.498Z" fill="#282828"/>
<g opacity="0.1">
<path opacity="0.1" d="M234.803 124.062C234.317 123.431 233.995 122.691 233.864 121.906C233.744 122.673 233.816 123.458 234.073 124.191C234.319 124.169 234.563 124.125 234.803 124.062Z" fill="#DDE1EA"/>
<path opacity="0.1" d="M228.495 127.361C228.402 126.752 228.34 126.139 228.312 125.523C228.312 126.134 228.312 126.75 228.312 127.366L228.495 127.361Z" fill="#DDE1EA"/>
<path opacity="0.1" d="M268.974 143.941C269.001 143.499 269.061 143.059 269.152 142.625C269.387 141.869 269.521 141.085 269.55 140.294C269.539 140.117 269.512 139.941 269.47 139.768C269.386 140.225 269.252 140.682 269.152 141.134C268.954 142.056 268.894 143.002 268.974 143.941Z" fill="#DDE1EA"/>
<path opacity="0.1" d="M258.643 128.588L259.184 128.981C259.64 128.651 260.067 128.282 260.46 127.878C260.647 127.619 260.763 127.316 260.796 126.999C260.829 126.681 260.779 126.361 260.649 126.069C260.6 126.183 260.536 126.29 260.46 126.387C259.849 127.172 258.498 127.605 258.643 128.588Z" fill="#DDE1EA"/>
<path opacity="0.1" d="M217.832 133.368C217.65 133.731 217.506 134.11 217.399 134.501C218.176 134.067 219.013 133.751 219.883 133.562L217.832 133.368Z" fill="#DDE1EA"/>
<path opacity="0.1" d="M224.68 127.963C224.354 127.783 224.042 127.579 223.746 127.352C223.734 127.548 223.749 127.745 223.791 127.938C224.088 127.924 224.385 127.932 224.68 127.963V127.963Z" fill="#DDE1EA"/>
<path opacity="0.1" d="M273.24 157.238C273.036 159.648 271.914 161.968 271.005 164.254C269.182 168.835 268.154 173.694 267.384 178.568C266.694 182.936 265.894 187.894 262.169 190.314C261.105 190.95 259.965 191.451 258.777 191.805C253.423 193.658 248.024 195.516 242.387 196.192C236.75 196.868 230.834 196.277 225.917 193.464C224.492 192.72 223.268 191.641 222.351 190.319C221.025 188.217 221 185.584 220.364 183.179C219.822 181.393 219.159 179.647 218.378 177.952C217.28 175.279 216.436 172.487 215.596 169.739C214.818 167.185 214.042 164.63 213.267 162.072C213.012 161.303 212.822 160.514 212.701 159.712C212.507 160.984 212.885 162.316 213.267 163.563C214.042 166.123 214.818 168.679 215.596 171.23C216.436 173.997 217.28 176.77 218.378 179.443C219.159 181.138 219.822 182.884 220.364 184.67C220.99 187.075 221.015 189.708 222.351 191.81C223.268 193.131 224.492 194.211 225.917 194.955C230.834 197.767 236.765 198.358 242.387 197.683C248.009 197.007 253.403 195.149 258.777 193.295C259.965 192.942 261.105 192.441 262.169 191.805C265.869 189.385 266.694 184.426 267.384 180.059C268.154 175.185 269.182 170.325 271.005 165.744C272.088 163.021 273.488 160.254 273.25 157.327C273.25 157.297 273.24 157.268 273.24 157.238Z" fill="#DDE1EA"/>
<path opacity="0.1" d="M213.794 155.315C213.794 155.315 213.794 155.28 213.794 155.26C213.883 154.384 213.806 153.499 213.565 152.652C213.466 152.107 213.402 151.556 213.372 151.002C213.314 152.053 213.379 153.107 213.565 154.142C213.645 154.53 213.734 154.922 213.794 155.315Z" fill="#DDE1EA"/>
<path opacity="0.1" d="M215.309 143.162C215.691 142.52 216.124 141.91 216.605 141.338C215.696 142.208 214.017 141.432 213.665 140.225C213.535 140.713 213.535 141.227 213.665 141.716C213.787 142.08 214.004 142.406 214.292 142.66C214.581 142.914 214.932 143.087 215.309 143.162V143.162Z" fill="#DDE1EA"/>
</g>
<path opacity="0.1" d="M339.357 270.643C339.357 270.643 340.931 276.357 339.357 281.325C337.783 286.294 339.357 270.643 339.357 270.643Z" fill="#DDE1EA"/>
<path opacity="0.1" d="M346.062 276.471C346.062 276.471 346.723 283.725 345.233 285.012C343.743 286.299 346.062 276.471 346.062 276.471Z" fill="#DDE1EA"/>
<path d="M98.418 200.684L148.885 200.188" stroke="#EF293D" stroke-width="1.59603" stroke-miterlimit="10"/>
<path d="M98.418 206.88L148.885 206.388" stroke="#EF293D" stroke-width="1.59603" stroke-miterlimit="10"/>
<path d="M98.418 213.081L148.885 212.584" stroke="#EF293D" stroke-width="1.59603" stroke-miterlimit="10"/>
</g>
<defs>
<clipPath id="clip0_1829_61436">
<rect width="531" height="319" fill="white"/>
</clipPath>
</defs>
</svg>
