<svg width="663" height="462" viewBox="0 0 663 462" fill="none" xmlns="http://www.w3.org/2000/svg">
<path d="M39.0329 62.072L41.735 57.6006C64.478 20.0887 105.535 -2.51867 148.919 0.224275C154.501 0.566522 160.05 1.32428 165.52 2.49128C204.926 10.933 239.216 40.7672 253.427 78.9805C261.783 101.45 264.123 127.326 279.985 145.162C300.626 168.383 335.667 169.109 366.491 168.145C397.315 167.181 432.393 168.045 452.909 191.354C465.781 205.945 469.922 226.686 468.834 246.25C466.082 298.003 430.053 344.282 384.255 367.278C338.456 390.273 284.514 392.327 234.387 382.22C164.156 368.042 97.3664 329.127 57.2223 268.995C17.0782 208.863 6.92014 126.963 39.0329 62.072Z" fill="#DDE1EA"/>
<path fill-rule="evenodd" clip-rule="evenodd" d="M307.556 5.77284C355.654 13.392 368.665 83.1241 408.606 112.727C450.067 143.458 520.68 131.088 542.312 179.769C563.588 227.654 532.31 285.41 505.002 329.671C482.059 366.855 439.704 379.774 404.341 403.387C372.171 424.868 345.501 461.715 307.556 461.514C269.655 461.313 245.882 419.313 211.467 402.364C164.081 379.029 98.8482 389.572 68.8751 343.972C38.0313 297.048 40.7618 228.561 62.8954 176.334C84.2039 126.053 138.796 107.02 182.082 76.8438C222.719 48.5142 259.546 -1.83243 307.556 5.77284Z" fill="white"/>
<path d="M75.0401 106.548H550.694C552.358 106.548 553.954 107.209 555.131 108.386C556.308 109.563 556.969 111.159 556.969 112.823V416.515C556.969 420.113 555.54 423.563 552.996 426.107C550.452 428.651 547.001 430.081 543.403 430.081H81.4274C79.6427 430.086 77.8747 429.738 76.2245 429.059C74.5743 428.379 73.0744 427.381 71.8107 426.12C70.5471 424.86 69.5445 423.363 68.8604 421.715C68.1763 420.066 67.8242 418.299 67.8242 416.515V113.773C67.823 112.824 68.0087 111.885 68.3708 111.009C68.7329 110.132 69.2642 109.335 69.9344 108.664C70.6046 107.993 71.4005 107.461 72.2766 107.098C73.1526 106.735 74.0917 106.548 75.0401 106.548Z" fill="#455A64"/>
<path d="M47.3672 406.114H577.35V421.635C577.35 425.023 576.004 428.273 573.608 430.668C571.212 433.064 567.963 434.41 564.575 434.41H60.1417C56.7537 434.41 53.5044 433.064 51.1087 430.668C48.7131 428.273 47.3672 425.023 47.3672 421.635V406.114Z" fill="#455A64"/>
<path d="M542.491 119.406H80.9531V392.586H542.491V119.406Z" fill="#E0E0E0"/>
<path d="M264.187 406.114L270.76 416.57H363.3L369.408 406.114H264.187Z" fill="#263238"/>
<path d="M529.912 135.234H94.6484V392.586H529.912V135.234Z" fill="#263238"/>
<path d="M128.042 385.026C127.819 385.026 127.633 330.222 127.633 262.625C127.633 195.029 127.819 140.197 128.042 140.197C128.266 140.197 128.452 195.001 128.452 262.625C128.452 330.25 128.266 385.026 128.042 385.026Z" fill="#E0E0E0"/>
<path d="M119.263 162.394C119.263 162.617 116.098 162.804 112.196 162.804C108.295 162.804 105.12 162.617 105.12 162.394C105.12 162.171 108.286 161.984 112.196 161.984C116.107 161.984 119.263 162.171 119.263 162.394Z" fill="#E0E0E0"/>
<path d="M119.806 148.503C119.806 148.726 116.64 148.912 112.739 148.912C108.838 148.912 105.672 148.726 105.672 148.503C105.672 148.279 108.838 148.093 112.739 148.093C116.64 148.093 119.806 148.279 119.806 148.503Z" fill="#E0E0E0"/>
<path d="M119.263 177.366C119.263 177.589 116.098 177.776 112.196 177.776C108.295 177.776 105.12 177.589 105.12 177.366C105.12 177.142 108.286 176.956 112.196 176.956C116.107 176.956 119.263 177.142 119.263 177.366Z" fill="#E0E0E0"/>
<path d="M119.263 192.338C119.263 192.57 116.098 192.747 112.196 192.747C108.295 192.747 105.12 192.57 105.12 192.338C105.12 192.105 108.286 191.937 112.196 191.937C116.107 191.937 119.263 192.123 119.263 192.338Z" fill="#E0E0E0"/>
<path d="M119.263 207.319C119.263 207.542 116.098 207.728 112.196 207.728C108.295 207.728 105.12 207.542 105.12 207.319C105.12 207.095 108.286 206.909 112.196 206.909C116.107 206.909 119.263 207.086 119.263 207.319Z" fill="#E0E0E0"/>
<path d="M119.263 222.291C119.263 222.514 116.098 222.701 112.196 222.701C108.295 222.701 105.12 222.514 105.12 222.291C105.12 222.067 108.286 221.881 112.196 221.881C116.107 221.881 119.263 222.067 119.263 222.291Z" fill="#E0E0E0"/>
<path d="M119.263 237.263C119.263 237.486 116.098 237.672 112.196 237.672C108.295 237.672 105.12 237.486 105.12 237.263C105.12 237.039 108.286 236.853 112.196 236.853C116.107 236.853 119.263 237.039 119.263 237.263Z" fill="#E0E0E0"/>
<path d="M119.263 252.234C119.263 252.467 116.098 252.644 112.196 252.644C108.295 252.644 105.12 252.467 105.12 252.234C105.12 252.002 108.286 251.834 112.196 251.834C116.107 251.834 119.263 252.011 119.263 252.234Z" fill="#E0E0E0"/>
<path d="M119.263 267.216C119.263 267.439 116.098 267.616 112.196 267.616C108.295 267.616 105.12 267.439 105.12 267.216C105.12 266.992 108.286 266.806 112.196 266.806C116.107 266.806 119.263 266.983 119.263 267.216Z" fill="#E0E0E0"/>
<path d="M119.263 282.187C119.263 282.411 116.098 282.597 112.196 282.597C108.295 282.597 105.12 282.411 105.12 282.187C105.12 281.964 108.286 281.778 112.196 281.778C116.107 281.778 119.263 281.964 119.263 282.187Z" fill="#E0E0E0"/>
<path d="M119.263 297.159C119.263 297.383 116.098 297.569 112.196 297.569C108.295 297.569 105.12 297.383 105.12 297.159C105.12 296.936 108.286 296.75 112.196 296.75C116.107 296.75 119.263 296.936 119.263 297.159Z" fill="#E0E0E0"/>
<path d="M119.263 312.131C119.263 312.364 116.098 312.541 112.196 312.541C108.295 312.541 105.12 312.364 105.12 312.131C105.12 311.898 108.286 311.731 112.196 311.731C116.107 311.731 119.263 311.908 119.263 312.131Z" fill="#E0E0E0"/>
<path d="M119.263 327.131C119.263 327.354 116.098 327.531 112.196 327.531C108.295 327.531 105.12 327.354 105.12 327.131C105.12 326.907 108.286 326.721 112.196 326.721C116.107 326.721 119.263 326.879 119.263 327.131Z" fill="#E0E0E0"/>
<path d="M119.263 342.084C119.263 342.307 116.098 342.494 112.196 342.494C108.295 342.494 105.12 342.307 105.12 342.084C105.12 341.861 108.286 341.674 112.196 341.674C116.107 341.674 119.263 341.861 119.263 342.084Z" fill="#E0E0E0"/>
<path d="M119.263 357.056C119.263 357.279 116.098 357.465 112.196 357.465C108.295 357.465 105.12 357.279 105.12 357.056C105.12 356.832 108.286 356.646 112.196 356.646C116.107 356.646 119.263 356.832 119.263 357.056Z" fill="#E0E0E0"/>
<path d="M119.263 372.028C119.263 372.26 116.098 372.437 112.196 372.437C108.295 372.437 105.12 372.26 105.12 372.028C105.12 371.795 108.286 371.618 112.196 371.618C116.107 371.618 119.263 371.823 119.263 372.028Z" fill="#E0E0E0"/>
<path d="M175.941 161.509C175.941 161.733 167.729 161.919 157.599 161.919C147.469 161.919 139.247 161.733 139.247 161.509C139.247 161.286 147.459 161.1 157.599 161.1C167.738 161.1 175.941 161.286 175.941 161.509Z" fill="#EF293D"/>
<path d="M175.941 372.028C175.941 372.26 167.729 372.437 157.599 372.437C147.469 372.437 139.247 372.26 139.247 372.028C139.247 371.795 147.459 371.618 157.599 371.618C167.738 371.618 175.941 371.823 175.941 372.028Z" fill="#EF293D"/>
<path d="M227.049 192.338C227.049 192.57 211.677 192.747 192.72 192.747C173.763 192.747 158.391 192.57 158.391 192.338C158.391 192.105 173.754 191.937 192.72 191.937C211.686 191.937 227.049 192.123 227.049 192.338Z" fill="#EF293D"/>
<path d="M306.453 192.338C306.453 192.57 291.08 192.747 272.124 192.747C253.167 192.747 237.785 192.57 237.785 192.338C237.785 192.105 253.157 191.937 272.124 191.937C291.09 191.937 306.453 192.123 306.453 192.338Z" fill="#E0E0E0"/>
<path d="M276.108 207.319C276.108 207.542 253.455 207.728 225.513 207.728C197.571 207.728 174.918 207.542 174.918 207.319C174.918 207.095 197.562 206.909 225.513 206.909C253.464 206.909 276.108 207.086 276.108 207.319Z" fill="#E0E0E0"/>
<path d="M276.108 222.291C276.108 222.514 253.455 222.701 225.513 222.701C197.571 222.701 174.918 222.514 174.918 222.291C174.918 222.067 197.562 221.881 225.513 221.881C253.464 221.881 276.108 222.067 276.108 222.291Z" fill="#E0E0E0"/>
<path d="M345.754 267.216C345.754 267.439 323.092 267.616 295.159 267.616C267.227 267.616 244.555 267.439 244.555 267.216C244.555 266.992 267.208 266.806 295.159 266.806C323.11 266.806 345.754 266.983 345.754 267.216Z" fill="#E0E0E0"/>
<path d="M315.697 237.263C315.697 237.486 293.044 237.672 265.111 237.672C237.179 237.672 214.507 237.486 214.507 237.263C214.507 237.039 237.16 236.853 265.111 236.853C293.062 236.853 315.697 237.039 315.697 237.263Z" fill="#E0E0E0"/>
<path d="M439.354 237.263C439.354 237.486 416.701 237.672 388.768 237.672C360.836 237.672 338.164 237.486 338.164 237.263C338.164 237.039 360.817 236.853 388.768 236.853C416.72 236.853 439.354 237.039 439.354 237.263Z" fill="#E0E0E0"/>
<path d="M396.358 207.319C396.358 207.542 373.696 207.729 345.763 207.729C317.831 207.729 295.168 207.542 295.168 207.319C295.168 207.095 317.812 206.909 345.763 206.909C373.714 206.909 396.358 207.086 396.358 207.319Z" fill="#FAFAFA"/>
<path d="M466.253 267.216C466.253 267.439 443.599 267.616 415.658 267.616C387.716 267.616 365.062 267.439 365.062 267.216C365.062 266.992 387.706 266.806 415.658 266.806C443.609 266.806 466.253 266.983 466.253 267.216Z" fill="#FAFAFA"/>
<path d="M452.298 222.291C452.298 222.514 417.121 222.7 373.733 222.7C330.344 222.7 295.168 222.514 295.168 222.291C295.168 222.067 330.335 221.881 373.733 221.881C417.131 221.881 452.298 222.067 452.298 222.291Z" fill="#455A64"/>
<path d="M175.941 177.366C175.941 177.589 167.729 177.776 157.599 177.776C147.469 177.776 139.247 177.589 139.247 177.366C139.247 177.142 147.459 176.956 157.599 176.956C167.738 176.956 175.941 177.142 175.941 177.366Z" fill="#FAFAFA"/>
<path d="M175.941 357.056C175.941 357.279 167.729 357.465 157.599 357.465C147.469 357.465 139.247 357.279 139.247 357.056C139.247 356.832 147.459 356.646 157.599 356.646C167.738 356.646 175.941 356.832 175.941 357.056Z" fill="#FAFAFA"/>
<path d="M194.082 237.263C194.082 237.486 185.87 237.672 175.731 237.672C165.591 237.672 157.379 237.486 157.379 237.263C157.379 237.039 165.6 236.853 175.731 236.853C185.861 236.853 194.082 237.039 194.082 237.263Z" fill="#FAFAFA"/>
<path d="M488.245 237.263C488.245 237.486 480.033 237.672 469.902 237.672C459.772 237.672 451.551 237.486 451.551 237.263C451.551 237.039 459.763 236.853 469.902 236.853C480.042 236.853 488.245 237.039 488.245 237.263Z" fill="#EF293D"/>
<path d="M227.049 297.075C227.049 297.299 211.677 297.485 192.72 297.485C173.763 297.485 158.391 297.299 158.391 297.075C158.391 296.852 173.754 296.666 192.72 296.666C211.686 296.666 227.049 296.843 227.049 297.075Z" fill="#EF293D"/>
<path d="M306.453 297.075C306.453 297.299 291.08 297.485 272.124 297.485C253.167 297.485 237.785 297.299 237.785 297.075C237.785 296.852 253.157 296.666 272.124 296.666C291.09 296.666 306.453 296.843 306.453 297.075Z" fill="#E0E0E0"/>
<path d="M276.108 312.047C276.108 312.271 253.455 312.457 225.513 312.457C197.571 312.457 174.918 312.271 174.918 312.047C174.918 311.824 197.562 311.638 225.513 311.638C253.464 311.638 276.108 311.824 276.108 312.047Z" fill="#E0E0E0"/>
<path d="M276.108 327.019C276.108 327.242 253.455 327.429 225.513 327.429C197.571 327.429 174.918 327.242 174.918 327.019C174.918 326.796 197.562 326.609 225.513 326.609C253.464 326.609 276.108 326.796 276.108 327.019Z" fill="#E0E0E0"/>
<path d="M315.697 342.028C315.697 342.261 293.044 342.438 265.111 342.438C237.179 342.438 214.507 342.261 214.507 342.028C214.507 341.795 237.16 341.628 265.111 341.628C293.062 341.628 315.697 341.767 315.697 342.028Z" fill="#E0E0E0"/>
<path d="M439.354 342.028C439.354 342.261 416.701 342.438 388.768 342.438C360.836 342.438 338.164 342.261 338.164 342.028C338.164 341.795 360.817 341.628 388.768 341.628C416.72 341.628 439.354 341.767 439.354 342.028Z" fill="#E0E0E0"/>
<path d="M396.358 312.047C396.358 312.271 373.696 312.457 345.763 312.457C317.831 312.457 295.168 312.271 295.168 312.047C295.168 311.824 317.812 311.637 345.763 311.637C373.714 311.637 396.358 311.824 396.358 312.047Z" fill="#FAFAFA"/>
<path d="M452.298 327.019C452.298 327.243 417.121 327.429 373.733 327.429C330.344 327.429 295.168 327.243 295.168 327.019C295.168 326.796 330.335 326.609 373.733 326.609C417.131 326.609 452.298 326.796 452.298 327.019Z" fill="#455A64"/>
<path d="M194.082 342.028C194.082 342.261 185.87 342.438 175.731 342.438C165.591 342.438 157.379 342.261 157.379 342.028C157.379 341.795 165.6 341.628 175.731 341.628C185.861 341.628 194.082 341.767 194.082 342.028Z" fill="#FAFAFA"/>
<path d="M488.245 342.028C488.245 342.261 480.033 342.438 469.902 342.438C459.772 342.438 451.551 342.261 451.551 342.028C451.551 341.795 459.763 341.628 469.902 341.628C480.042 341.628 488.245 341.767 488.245 342.028Z" fill="#EF293D"/>
<path d="M498.032 415.584C498.032 415.714 404.328 415.826 288.762 415.826C173.196 415.826 79.4727 415.695 79.4727 415.584C79.4727 415.472 173.158 415.342 288.762 415.342C404.365 415.342 498.032 415.435 498.032 415.584Z" fill="#263238"/>
<path d="M633.994 434.652C633.994 434.792 492.059 434.904 317.015 434.904C141.972 434.904 0 434.792 0 434.652C0 434.512 141.953 434.41 316.997 434.41C492.041 434.41 633.994 434.522 633.994 434.652Z" fill="#263238"/>
<path d="M547.009 80.5146H297.488V235.037H507.541L520.548 264.953L532.075 235.037H547.009V80.5146Z" fill="#FAFAFA"/>
<path d="M546.972 80.5051C546.972 82.0041 547.037 140.094 547.158 235.065V235.251H532.075L532.252 235.13C528.648 244.506 524.756 254.608 520.734 265.046L520.557 265.521L520.352 265.055C516.274 255.688 511.87 245.549 507.317 235.139L507.513 235.27H317.572H297.246V235.028C297.246 179.954 297.246 127.692 297.246 80.4678V80.2537H297.47L547 80.4678L297.47 80.6913L297.693 80.4678C297.693 127.664 297.693 179.926 297.693 235.028L297.451 234.786H317.544H507.485H507.625L507.68 234.916L520.716 264.841H520.334L531.898 234.953L531.944 234.823H546.972L546.786 235.009C546.972 140.057 546.972 82.0041 546.972 80.5051Z" fill="#263238"/>
<path d="M546.881 95.5884C546.881 95.7747 491.127 95.9329 422.376 95.9329C353.625 95.9329 297.862 95.7747 297.862 95.5884C297.862 95.4022 353.606 95.2905 422.376 95.2905C491.146 95.2905 546.881 95.4022 546.881 95.5884Z" fill="#263238"/>
<path d="M310.74 88.7733C310.74 89.1788 310.62 89.5752 310.394 89.9123C310.169 90.2493 309.848 90.5119 309.474 90.6666C309.099 90.8214 308.686 90.8614 308.289 90.7816C307.891 90.7018 307.526 90.5058 307.24 90.2184C306.954 89.931 306.76 89.5651 306.682 89.1672C306.604 88.7692 306.646 88.3571 306.802 87.9829C306.959 87.6088 307.223 87.2895 307.561 87.0656C307.899 86.8416 308.296 86.7231 308.701 86.7249C309.243 86.7274 309.762 86.9443 310.144 87.3281C310.526 87.712 310.74 88.2316 310.74 88.7733Z" fill="#263238"/>
<path d="M318.147 88.7733C318.147 89.1788 318.026 89.5752 317.801 89.9123C317.575 90.2493 317.255 90.5119 316.88 90.6666C316.505 90.8214 316.093 90.8614 315.695 90.7816C315.298 90.7018 314.933 90.5058 314.646 90.2184C314.36 89.931 314.166 89.5651 314.088 89.1672C314.01 88.7692 314.052 88.3571 314.208 87.9829C314.365 87.6088 314.629 87.2895 314.967 87.0656C315.305 86.8416 315.702 86.7231 316.107 86.7249C316.649 86.7274 317.168 86.9443 317.55 87.3281C317.932 87.712 318.147 88.2316 318.147 88.7733Z" fill="#263238"/>
<path d="M325.55 88.7732C325.55 89.1784 325.43 89.5744 325.205 89.9113C324.98 90.2481 324.66 90.5107 324.285 90.6657C323.911 90.8207 323.499 90.8613 323.102 90.7823C322.705 90.7032 322.34 90.5081 322.053 90.2217C321.767 89.9352 321.572 89.5702 321.492 89.1729C321.413 88.7755 321.454 88.3636 321.609 87.9894C321.764 87.6151 322.027 87.2951 322.363 87.0701C322.7 86.845 323.096 86.7249 323.502 86.7249C324.045 86.7249 324.566 86.9407 324.95 87.3248C325.334 87.709 325.55 88.23 325.55 88.7732Z" fill="#263238"/>
<path d="M324.706 123.223L318.785 125.513L324.706 127.795V129.182L317.258 126.23V124.806L324.706 121.845V123.223Z" fill="#263238"/>
<path d="M330.868 117.311H332.321L326.809 133.027H325.375L330.868 117.311Z" fill="#263238"/>
<path d="M340.269 124.806V126.24L332.82 129.192V127.804L338.761 125.523L332.82 123.223V121.836L340.269 124.806Z" fill="#263238"/>
<path d="M342.188 130.308C342.185 130.158 342.213 130.009 342.269 129.871C342.325 129.732 342.409 129.605 342.515 129.499C342.621 129.393 342.747 129.31 342.886 129.254C343.025 129.197 343.174 129.17 343.324 129.172C343.472 129.171 343.619 129.2 343.756 129.257C343.893 129.314 344.016 129.398 344.12 129.504C344.224 129.61 344.305 129.736 344.358 129.874C344.412 130.012 344.437 130.16 344.432 130.308C344.437 130.457 344.412 130.606 344.358 130.745C344.305 130.884 344.224 131.012 344.121 131.119C344.018 131.227 343.894 131.313 343.757 131.372C343.62 131.431 343.473 131.462 343.324 131.463C343.173 131.463 343.024 131.433 342.885 131.375C342.746 131.316 342.619 131.231 342.514 131.123C342.408 131.016 342.325 130.889 342.269 130.749C342.213 130.609 342.185 130.459 342.188 130.308Z" fill="#263238"/>
<path d="M345.989 130.308C345.985 130.158 346.012 130.009 346.067 129.869C346.123 129.73 346.207 129.603 346.313 129.497C346.419 129.39 346.546 129.307 346.685 129.251C346.825 129.195 346.974 129.169 347.125 129.173C347.272 129.172 347.418 129.202 347.554 129.26C347.69 129.317 347.812 129.401 347.915 129.507C348.017 129.613 348.098 129.739 348.151 129.877C348.203 130.014 348.228 130.161 348.223 130.308C348.228 130.457 348.204 130.604 348.151 130.743C348.098 130.882 348.018 131.009 347.916 131.116C347.814 131.224 347.691 131.31 347.555 131.369C347.419 131.429 347.273 131.461 347.125 131.463C346.973 131.464 346.824 131.435 346.684 131.377C346.544 131.32 346.418 131.234 346.312 131.127C346.206 131.019 346.123 130.891 346.067 130.75C346.012 130.61 345.985 130.46 345.989 130.308Z" fill="#263238"/>
<path d="M349.777 130.308C349.773 130.158 349.8 130.009 349.855 129.869C349.911 129.73 349.995 129.603 350.101 129.497C350.207 129.39 350.334 129.307 350.473 129.251C350.613 129.195 350.762 129.169 350.913 129.173C351.06 129.172 351.206 129.202 351.342 129.26C351.478 129.317 351.6 129.401 351.703 129.507C351.806 129.613 351.886 129.739 351.939 129.877C351.992 130.014 352.016 130.161 352.011 130.308C352.016 130.457 351.992 130.604 351.939 130.743C351.886 130.882 351.806 131.009 351.704 131.116C351.602 131.224 351.479 131.31 351.343 131.369C351.207 131.429 351.061 131.461 350.913 131.463C350.762 131.464 350.612 131.435 350.472 131.377C350.332 131.32 350.206 131.234 350.1 131.127C349.994 131.019 349.911 130.891 349.855 130.75C349.8 130.61 349.773 130.46 349.777 130.308Z" fill="#263238"/>
<path d="M482.262 145.299C482.262 145.485 445.382 145.634 399.889 145.634C354.396 145.634 317.507 145.485 317.507 145.299C317.507 145.113 354.387 144.955 399.889 144.955C445.391 144.955 482.262 145.104 482.262 145.299Z" fill="#455A64"/>
<path d="M509.164 145.783C509.164 145.969 505.626 146.128 501.25 146.128C496.874 146.128 493.336 145.969 493.336 145.783C493.336 145.597 496.883 145.439 501.25 145.439C505.617 145.439 509.164 145.569 509.164 145.783Z" fill="#263238"/>
<path d="M532.302 145.783C532.302 145.969 528.429 146.128 523.661 146.128C518.894 146.128 515.012 145.969 515.012 145.783C515.012 145.597 518.885 145.439 523.661 145.439C528.438 145.439 532.302 145.569 532.302 145.783Z" fill="#263238"/>
<path d="M422.418 159.182C422.418 159.368 398.974 159.517 370.054 159.517C341.135 159.517 317.699 159.368 317.699 159.182C317.699 158.995 341.135 158.837 370.054 158.837C398.974 158.837 422.418 158.986 422.418 159.182Z" fill="#455A64"/>
<path d="M421.664 210.978C421.664 211.164 398.22 211.313 369.309 211.313C340.399 211.313 316.945 211.164 316.945 210.978C316.945 210.792 340.39 210.633 369.309 210.633C398.229 210.633 421.664 210.792 421.664 210.978Z" fill="#455A64"/>
<path d="M460.461 159.182C460.461 159.368 454.083 159.517 446.215 159.517C438.348 159.517 431.97 159.368 431.97 159.182C431.97 158.995 438.348 158.837 446.215 158.837C454.083 158.837 460.461 158.986 460.461 159.182Z" fill="#263238"/>
<path d="M460.163 210.978C460.163 211.164 453.785 211.313 445.917 211.313C438.05 211.313 431.672 211.164 431.672 210.978C431.672 210.792 438.05 210.633 445.917 210.633C453.785 210.633 460.163 210.792 460.163 210.978Z" fill="#263238"/>
<path d="M324.574 166.239C324.574 166.425 322.991 166.584 321.036 166.584C319.08 166.584 317.507 166.425 317.507 166.239C317.507 166.053 319.09 165.904 321.036 165.904C322.982 165.904 324.574 166.053 324.574 166.239Z" fill="#EF293D"/>
<path d="M348.918 166.388C348.918 166.574 345.483 166.723 341.246 166.723C337.01 166.723 333.574 166.574 333.574 166.388C333.574 166.202 337.01 166.044 341.246 166.044C345.483 166.044 348.918 166.202 348.918 166.388Z" fill="#263238"/>
<path d="M364.479 166.388C364.479 166.574 361.537 166.723 357.905 166.723C354.274 166.723 351.332 166.574 351.332 166.388C351.332 166.202 354.274 166.044 357.905 166.044C361.537 166.044 364.479 166.202 364.479 166.388Z" fill="#263238"/>
<path d="M384.234 166.388C384.234 166.574 381.236 166.723 377.54 166.723C373.843 166.723 370.836 166.574 370.836 166.388C370.836 166.202 373.834 166.044 377.54 166.044C381.245 166.044 384.234 166.202 384.234 166.388Z" fill="#263238"/>
<path d="M401.525 166.388C401.525 166.574 398.797 166.723 395.436 166.723C392.075 166.723 389.347 166.574 389.347 166.388C389.347 166.202 392.075 166.044 395.436 166.044C398.797 166.044 401.525 166.202 401.525 166.388Z" fill="#263238"/>
<path d="M458.76 166.388C458.76 166.574 446.767 166.723 431.972 166.723C417.177 166.723 405.176 166.574 405.176 166.388C405.176 166.202 417.168 166.044 431.972 166.044C446.777 166.044 458.76 166.202 458.76 166.388Z" fill="#263238"/>
<path d="M323.596 175.252C323.596 175.438 322.237 175.596 320.551 175.596C318.866 175.596 317.507 175.438 317.507 175.252C317.507 175.066 318.866 174.907 320.551 174.907C322.237 174.907 323.596 175.066 323.596 175.252Z" fill="#EF293D"/>
<path d="M323.838 184.507C323.838 184.693 322.423 184.851 320.673 184.851C318.922 184.851 317.507 184.693 317.507 184.507C317.507 184.321 318.922 184.162 320.673 184.162C322.423 184.162 323.838 184.321 323.838 184.507Z" fill="#EF293D"/>
<path d="M323.838 194.982C323.838 195.168 322.423 195.317 320.673 195.317C318.922 195.317 317.507 195.168 317.507 194.982C317.507 194.796 318.922 194.637 320.673 194.637C322.423 194.637 323.838 194.786 323.838 194.982Z" fill="#EF293D"/>
<path d="M381.559 194.488C381.559 194.684 370.982 194.833 357.937 194.833C344.893 194.833 334.315 194.684 334.315 194.488C334.315 194.293 344.893 194.153 357.937 194.153C370.982 194.153 381.559 194.302 381.559 194.488Z" fill="#263238"/>
<path d="M377.421 184.507C377.421 184.693 367.328 184.851 354.889 184.851C342.45 184.851 332.366 184.693 332.366 184.507C332.366 184.321 342.45 184.162 354.889 184.162C367.328 184.162 377.421 184.321 377.421 184.507Z" fill="#263238"/>
<path d="M486.281 174.768C486.281 174.954 451.924 175.103 409.569 175.103C367.214 175.103 332.848 174.954 332.848 174.768C332.848 174.582 367.186 174.424 409.569 174.424C451.952 174.424 486.281 174.573 486.281 174.768Z" fill="#263238"/>
<path d="M562.333 143.707V275.027L541.914 292.057H562.333H564.344H648.7V143.707H562.333Z" fill="#FAFAFA"/>
<path d="M562.33 143.707C562.33 143.707 562.842 143.707 563.838 143.707H568.308H585.505L648.697 143.614H648.884V143.8C648.884 183.436 648.884 235.205 648.94 292.15V292.392H633.726H541.911H541.297L541.772 291.991L562.2 274.962L562.116 275.129C562.163 235.866 562.2 203.017 562.228 179.973C562.228 168.474 562.274 159.424 562.284 153.241C562.284 150.169 562.284 147.813 562.284 146.202C562.284 145.42 562.284 144.815 562.284 144.405C562.284 143.996 562.284 143.809 562.284 143.809C562.284 143.809 562.284 144.024 562.284 144.433C562.284 144.843 562.284 145.457 562.284 146.295C562.284 147.906 562.284 150.28 562.284 153.372C562.284 159.563 562.284 168.632 562.339 180.14C562.339 203.157 562.395 236.005 562.442 275.167V275.26L562.367 275.325L541.958 292.373L541.809 291.973H633.623H648.595L648.353 292.215C648.353 235.27 648.353 183.502 648.409 143.865L648.595 144.042L585.514 143.949L568.382 143.707H563.876H562.33Z" fill="#263238"/>
<path d="M570.184 150.224C570.184 150.571 570.082 150.909 569.889 151.197C569.697 151.485 569.424 151.709 569.104 151.842C568.784 151.974 568.432 152.009 568.093 151.941C567.753 151.874 567.441 151.707 567.196 151.462C566.951 151.217 566.785 150.905 566.717 150.566C566.65 150.226 566.684 149.874 566.817 149.554C566.949 149.235 567.174 148.961 567.462 148.769C567.749 148.577 568.088 148.474 568.434 148.474C568.898 148.474 569.343 148.658 569.672 148.987C570 149.315 570.184 149.76 570.184 150.224Z" fill="#263238"/>
<path d="M576.519 150.224C576.519 150.571 576.417 150.909 576.224 151.197C576.032 151.485 575.759 151.709 575.439 151.842C575.119 151.974 574.767 152.009 574.428 151.941C574.088 151.874 573.776 151.707 573.531 151.462C573.286 151.217 573.12 150.905 573.052 150.566C572.985 150.226 573.019 149.874 573.152 149.554C573.284 149.235 573.509 148.961 573.797 148.769C574.084 148.577 574.423 148.474 574.769 148.474C575.233 148.474 575.679 148.658 576.007 148.987C576.335 149.315 576.519 149.76 576.519 150.224Z" fill="#263238"/>
<path d="M582.845 150.224C582.845 150.571 582.742 150.909 582.55 151.197C582.357 151.485 582.084 151.709 581.764 151.842C581.444 151.974 581.092 152.009 580.753 151.941C580.413 151.874 580.101 151.707 579.856 151.462C579.612 151.217 579.445 150.905 579.377 150.566C579.31 150.226 579.344 149.874 579.477 149.554C579.609 149.235 579.834 148.961 580.122 148.769C580.41 148.577 580.748 148.474 581.094 148.474C581.558 148.474 582.004 148.658 582.332 148.987C582.66 149.315 582.845 149.76 582.845 150.224Z" fill="#263238"/>
<path d="M624.958 190.699C624.958 190.857 614.009 190.978 600.508 190.978C587.007 190.978 576.058 190.857 576.058 190.699C576.058 190.54 586.998 190.419 600.508 190.419C614.018 190.419 624.958 190.54 624.958 190.699Z" fill="#EF293D"/>
<path d="M635.165 202.579C635.165 202.728 621.841 202.859 605.37 202.859C588.899 202.859 575.575 202.728 575.575 202.579C575.575 202.43 588.899 202.3 605.37 202.3C621.841 202.3 635.165 202.421 635.165 202.579Z" fill="#EF293D"/>
<path d="M637.584 246.899C637.584 247.057 623.375 247.178 605.852 247.178C588.329 247.178 574.121 247.057 574.121 246.899C574.121 246.741 588.329 246.62 605.852 246.62C623.375 246.62 637.584 246.75 637.584 246.899Z" fill="#EF293D"/>
<path d="M580.64 208.622C578.643 208.995 576.595 208.995 574.598 208.622C576.595 208.25 578.643 208.25 580.64 208.622Z" fill="#EF293D"/>
<path d="M601.487 208.743C601.487 208.901 598.545 209.022 594.97 209.022C591.394 209.022 588.452 208.901 588.452 208.743C592.82 208.371 597.212 208.371 601.58 208.743H601.487Z" fill="#EF293D"/>
<path d="M614.821 208.743C614.821 208.901 612.307 209.023 609.235 209.023C606.162 209.023 603.602 208.901 603.602 208.743C607.345 208.371 611.115 208.371 614.858 208.743H614.821Z" fill="#EF293D"/>
<path d="M579.812 216.331C578.094 216.704 576.316 216.704 574.598 216.331C576.316 215.959 578.094 215.959 579.812 216.331Z" fill="#EF293D"/>
<path d="M580.017 224.255C578.229 224.627 576.385 224.627 574.598 224.255C576.383 223.87 578.231 223.87 580.017 224.255Z" fill="#EF293D"/>
<path d="M580.017 233.212C578.229 233.585 576.385 233.585 574.598 233.212C576.385 232.84 578.229 232.84 580.017 233.212Z" fill="#EF293D"/>
<path d="M629.409 232.793C629.409 232.951 620.359 233.072 609.195 233.072C598.032 233.072 588.981 232.951 588.981 232.793C588.981 232.634 598.032 232.513 609.195 232.513C620.359 232.513 629.409 232.644 629.409 232.793Z" fill="#EF293D"/>
<path d="M625.859 224.255C625.859 224.404 617.228 224.534 606.586 224.534C595.944 224.534 587.312 224.404 587.312 224.255C587.312 224.106 595.934 223.966 606.586 223.966C617.238 223.966 625.859 224.096 625.859 224.255Z" fill="#EF293D"/>
<path d="M583.966 258.733C582.179 259.106 580.334 259.106 578.547 258.733C580.334 258.361 582.179 258.361 583.966 258.733Z" fill="#EF293D"/>
<path d="M583.966 267.699C582.179 268.072 580.334 268.072 578.547 267.699C580.333 267.314 582.18 267.314 583.966 267.699Z" fill="#EF293D"/>
<path d="M633.353 267.281C633.353 267.43 624.303 267.56 613.14 267.56C601.976 267.56 592.926 267.43 592.926 267.281C592.926 267.132 601.967 267.001 613.14 267.001C624.313 267.001 633.353 267.122 633.353 267.281Z" fill="#EF293D"/>
<path d="M629.84 258.733C629.84 258.891 621.209 259.012 610.567 259.012C599.925 259.012 591.284 258.891 591.284 258.733C591.284 258.575 599.915 258.454 610.567 258.454C621.218 258.454 629.84 258.575 629.84 258.733Z" fill="#EF293D"/>
<path d="M640.206 215.913C640.206 216.071 628.456 216.192 613.968 216.192C599.481 216.192 587.73 216.071 587.73 215.913C587.73 215.754 599.481 215.633 613.968 215.633C628.456 215.633 640.206 215.764 640.206 215.913Z" fill="#EF293D"/>
<path d="M647.891 157.096C647.891 157.245 628.925 157.375 605.536 157.375C582.147 157.375 563.181 157.245 563.181 157.096C563.181 156.947 582.138 156.817 605.536 156.817C628.934 156.817 647.891 156.938 647.891 157.096Z" fill="#263238"/>
<path d="M593.923 183.539C587.963 183.911 581.987 183.911 576.027 183.539C576.027 183.381 580.031 183.26 584.975 183.26C589.919 183.26 593.923 183.381 593.923 183.539Z" fill="#EF293D"/>
<path d="M583.795 167.329C583.795 167.487 581.933 167.608 579.577 167.608C577.222 167.608 575.359 167.487 575.359 167.329C578.159 166.956 580.995 166.956 583.795 167.329Z" fill="#EF293D"/>
<path d="M509.053 358.565L527.805 340.027L494.361 282.756C490.88 278.773 486.474 275.707 481.53 273.827L469.752 269.348L440.47 263.976L419.688 272.197C417.131 273.203 414.979 275.028 413.569 277.386C412.159 279.745 411.57 282.504 411.895 285.232L417.332 331.005L420.535 390.594L496.074 377.484L488.476 355.445L488.728 321.07L509.053 358.565Z" fill="#FFA412"/>
<path d="M489.165 353.965C489.341 353.965 489.388 342.056 489.267 327.373C489.146 312.69 488.913 300.781 488.736 300.781C488.559 300.781 488.513 312.69 488.634 327.373C488.755 342.056 488.988 353.965 489.165 353.965Z" fill="#263238"/>
<path d="M486.401 362.698L440.778 344.328C438.972 343.601 437.405 342.384 436.254 340.815C435.103 339.246 434.412 337.386 434.26 335.446L430.927 291.685C430.927 291.685 431.318 273.063 419.698 272.132L413.078 274.73C404.521 279.311 402.408 291.75 403.59 301.359C405.238 315.008 405.927 334.328 407.78 346.181C409.298 355.874 415.117 363.536 424.335 366.898L480.553 379.067L486.401 362.698Z" fill="#FFA412"/>
<path d="M431.571 298.36C431.64 298.688 431.687 299.021 431.711 299.356C431.785 300.073 431.888 301.032 432.009 302.243C432.242 304.803 432.567 308.416 432.94 312.857C433.312 317.298 433.778 322.689 434.29 328.602C434.411 330.082 434.541 331.6 434.672 333.155C434.763 334.718 434.959 336.273 435.258 337.81C435.574 339.376 436.364 340.806 437.521 341.907C438.775 343.002 440.2 343.886 441.739 344.523C454.318 349.97 465.947 354.467 474.327 357.623L484.326 361.348L487.045 362.344C487.367 362.445 487.679 362.576 487.976 362.735C487.66 362.667 487.349 362.576 487.045 362.465L484.252 361.534C481.859 360.743 478.414 359.551 474.178 358.033C465.714 354.97 454.094 350.584 441.469 345.082C439.871 344.413 438.393 343.488 437.093 342.344C435.847 341.163 434.998 339.624 434.662 337.94C434.36 336.367 434.167 334.774 434.085 333.173C433.955 331.621 433.834 330.104 433.722 328.62C433.256 322.698 432.847 317.363 432.493 312.857C432.139 308.35 431.916 304.803 431.72 302.233C431.646 301.023 431.59 300.054 431.543 299.338C431.531 299.011 431.54 298.685 431.571 298.36Z" fill="#263238"/>
<path d="M405.454 322.15C405.519 322.338 405.55 322.537 405.547 322.736C405.547 323.193 405.64 323.751 405.696 324.422C405.836 325.986 406.022 328.081 406.236 330.632C406.45 333.183 406.804 336.367 407.26 339.812C407.711 343.549 408.401 347.253 409.327 350.902C409.753 352.779 410.506 354.566 411.553 356.181C412.561 357.676 413.702 359.079 414.96 360.371C417.093 362.572 419.56 364.423 422.269 365.855C424.791 367.137 427.495 368.022 430.286 368.48C430.088 368.503 429.888 368.503 429.69 368.48C429.121 368.449 428.555 368.377 427.996 368.266C425.921 367.874 423.911 367.191 422.027 366.237C419.246 364.833 416.712 362.987 414.523 360.771C413.226 359.465 412.054 358.04 411.022 356.516C409.931 354.849 409.143 353.002 408.694 351.06C407.765 347.386 407.087 343.653 406.664 339.887C406.245 336.423 405.966 333.295 405.733 330.669C405.501 328.044 405.445 325.911 405.389 324.44C405.389 323.761 405.389 323.202 405.389 322.736C405.386 322.539 405.408 322.342 405.454 322.15Z" fill="#263238"/>
<path d="M424.933 352.773C425.047 351.913 425.328 351.085 425.761 350.333C426.698 348.465 427.999 346.802 429.589 345.444C431.178 344.087 433.024 343.061 435.016 342.429C435.824 342.12 436.684 341.971 437.549 341.991C437.549 342.093 436.618 342.28 435.165 342.838C433.281 343.569 431.532 344.607 429.988 345.911C428.453 347.234 427.153 348.809 426.143 350.566C425.361 351.888 424.998 352.801 424.933 352.773Z" fill="#263238"/>
<g opacity="0.3">
<path opacity="0.3" d="M473.28 357.485C468.402 354.691 463.625 352.606 458.523 350.287C453.42 347.969 448.421 344.989 445.087 340.492C438.784 332.001 439.501 319.748 433.058 311.368L434.315 328.267C434.706 333.435 433.914 338.509 437.238 342.047C440.031 344.999 445.506 347.271 449.342 348.565C457.117 351.125 465.487 354.933 473.253 357.503" fill="black"/>
</g>
<path opacity="0.3" d="M488.74 304.003L492.688 328.36L488.954 321.461L488.74 304.003Z" fill="black"/>
<path d="M430.19 288.957C429.845 289.031 429.491 289.059 429.138 289.04L426.252 289.115C423.821 289.18 420.47 289.301 416.773 289.562C413.077 289.822 409.743 290.186 407.323 290.493L404.464 290.828C404.117 290.888 403.764 290.913 403.412 290.902C403.739 290.767 404.084 290.68 404.436 290.642C405.107 290.502 406.075 290.335 407.23 290.148C409.641 289.776 412.984 289.366 416.689 289.096C420.395 288.826 423.766 288.761 426.205 288.789C427.425 288.789 428.412 288.835 429.091 288.873C429.46 288.861 429.828 288.889 430.19 288.957Z" fill="#455A64"/>
<path d="M431.518 312.29C431.518 312.42 425.54 313.025 418.157 313.631C410.773 314.236 404.758 314.636 404.749 314.497C404.74 314.357 410.717 313.761 418.11 313.146C425.503 312.532 431.518 312.15 431.518 312.29Z" fill="#455A64"/>
<path d="M433.691 336.786C433.401 336.999 433.089 337.18 432.76 337.326C432.136 337.652 431.223 338.08 430.06 338.564C424.018 341.091 417.579 342.534 411.038 342.829C409.781 342.885 408.766 342.885 408.067 342.829C407.705 342.849 407.342 342.821 406.987 342.745C407.343 342.674 407.705 342.64 408.067 342.642C408.766 342.642 409.771 342.559 411.019 342.456C414.244 342.229 417.448 341.775 420.609 341.097C423.775 340.39 426.887 339.456 429.92 338.304C431.084 337.857 432.024 337.484 432.713 337.214C433.022 337.034 433.35 336.891 433.691 336.786Z" fill="#455A64"/>
<path d="M449.919 349.356C448.269 350.378 446.749 351.598 445.394 352.987C444.158 354.484 443.099 356.118 442.237 357.857C442.299 357.275 442.469 356.709 442.74 356.19C443.894 353.59 445.853 351.43 448.327 350.026C448.807 349.698 449.348 349.47 449.919 349.356Z" fill="#455A64"/>
<path d="M466.43 365.482C467.154 362.103 468.85 359.009 471.309 356.581C471.42 356.674 469.986 358.443 468.646 360.91C467.305 363.378 466.569 365.529 466.43 365.482Z" fill="#455A64"/>
<path d="M440.414 275.269C438.3 275.895 436.144 276.368 433.962 276.685C431.815 277.152 429.637 277.464 427.444 277.616C429.557 276.983 431.714 276.51 433.897 276.2C436.044 275.733 438.222 275.421 440.414 275.269Z" fill="#455A64"/>
<path d="M484.113 277.262C481.114 277.149 478.124 276.875 475.156 276.443C472.17 276.172 469.201 275.737 466.264 275.139C469.261 275.258 472.251 275.531 475.221 275.959C478.206 276.235 481.174 276.67 484.113 277.262Z" fill="#455A64"/>
<path d="M487.83 297.578C487.642 297.606 487.45 297.606 487.262 297.578H485.623H479.599C474.515 297.578 467.495 297.578 459.739 297.811C451.983 298.044 444.972 298.332 439.888 298.602L433.874 298.919L432.244 298.984C432.053 299.013 431.858 299.013 431.667 298.984C431.853 298.939 432.043 298.911 432.235 298.9L433.864 298.733C435.28 298.602 437.328 298.444 439.87 298.267C444.944 297.913 451.974 297.541 459.73 297.336C467.486 297.131 474.515 297.15 479.609 297.243C482.15 297.29 484.208 297.345 485.623 297.411L487.262 297.485C487.454 297.498 487.644 297.529 487.83 297.578Z" fill="#455A64"/>
<path d="M488.369 323.323C488.369 323.453 476.405 324.347 461.629 325.325C446.852 326.302 434.86 326.973 434.851 326.842C434.841 326.712 446.815 325.809 461.591 324.84C476.368 323.872 488.36 323.183 488.369 323.323Z" fill="#455A64"/>
<path d="M487.095 345.995C486.775 346.171 486.438 346.315 486.089 346.423C485.428 346.674 484.469 347 483.296 347.354C480.903 348.136 477.56 349.114 473.827 350.017C470.093 350.92 466.676 351.562 464.19 351.944C462.942 352.149 461.937 352.289 461.238 352.363C460.875 352.424 460.507 352.449 460.14 352.438C460.486 352.311 460.845 352.224 461.21 352.177L464.125 351.609C466.592 351.134 469.991 350.436 473.715 349.542C477.439 348.648 480.782 347.726 483.193 347.028L486.052 346.199C486.39 346.089 486.74 346.02 487.095 345.995Z" fill="#455A64"/>
<path d="M506.254 304.897C503.403 305.885 500.499 306.718 497.558 307.392C494.657 308.225 491.713 308.903 488.74 309.422C491.593 308.436 494.496 307.603 497.437 306.926C500.336 306.089 503.28 305.412 506.254 304.897Z" fill="#455A64"/>
<path d="M497.124 287.495C495.886 287.964 494.594 288.277 493.279 288.426C491.987 288.741 490.661 288.897 489.331 288.892C490.575 288.43 491.868 288.117 493.186 287.961C494.475 287.646 495.797 287.49 497.124 287.495Z" fill="#455A64"/>
<path d="M431.71 292.895C431.617 292.895 431.468 291.35 430.621 289.013C429.521 285.958 427.682 283.223 425.268 281.052C422.854 278.881 419.939 277.343 416.785 276.573C414.364 275.977 412.791 276.005 412.8 275.912C413.162 275.847 413.532 275.832 413.899 275.866C414.895 275.906 415.885 276.034 416.859 276.247C420.11 276.936 423.122 278.468 425.593 280.689C428.064 282.91 429.907 285.742 430.937 288.901C431.257 289.846 431.488 290.818 431.626 291.806C431.704 292.163 431.732 292.53 431.71 292.895Z" fill="#263238"/>
<path d="M486.088 280.484C486.789 283.287 487.327 286.128 487.699 288.994C488.239 291.834 488.615 294.704 488.825 297.588C488.135 294.78 487.601 291.935 487.224 289.068C486.684 286.23 486.305 283.364 486.088 280.484Z" fill="#263238"/>
<path d="M536.96 417.716C536.96 417.716 572.043 427.418 573.449 427.958C575.562 428.703 575.209 436.44 571.922 436.338C570.367 436.282 544.976 437.269 541.764 437.083C538.552 436.897 528.878 433.07 528.878 433.07L536.96 417.716Z" fill="#FFA412"/>
<path d="M551.571 431.096C551.748 431.096 551.98 429.233 553.116 427.371C554.252 425.509 555.705 424.28 555.593 424.14C555.481 424.001 553.787 424.997 552.604 427.073C551.422 429.15 551.422 431.114 551.571 431.096Z" fill="#263238"/>
<path d="M547.906 429.438C548.074 429.438 548.428 427.809 549.368 425.975C550.308 424.141 551.407 422.865 551.23 422.744C550.144 423.474 549.296 424.507 548.791 425.714C547.906 427.688 547.766 429.429 547.906 429.438Z" fill="#263238"/>
<path d="M544.478 428.526C544.655 428.526 544.478 426.757 545.298 424.801C546.117 422.846 547.337 421.654 547.216 421.524C547.095 421.394 545.568 422.455 544.758 424.597C543.948 426.738 544.339 428.619 544.478 428.526Z" fill="#263238"/>
<path d="M545.117 423.964C545.43 423.129 545.56 422.237 545.499 421.348C545.488 420.384 545.366 419.425 545.136 418.489C545.005 417.933 544.831 417.388 544.615 416.86C544.508 416.529 544.315 416.234 544.056 416.003C543.881 415.869 543.665 415.801 543.445 415.811C543.225 415.821 543.016 415.909 542.855 416.059C542.58 416.322 542.411 416.676 542.38 417.055C542.362 417.365 542.362 417.676 542.38 417.986C542.382 418.567 542.454 419.145 542.594 419.709C542.831 420.648 543.194 421.55 543.674 422.39C544.065 423.185 544.598 423.901 545.248 424.504C545.332 424.448 544.745 423.629 544.037 422.195C543.627 421.365 543.314 420.49 543.106 419.588C542.997 419.061 542.941 418.524 542.939 417.986C542.939 417.446 542.939 416.776 543.265 416.515C543.327 416.455 543.41 416.421 543.497 416.421C543.584 416.421 543.668 416.455 543.73 416.515C543.909 416.683 544.041 416.895 544.112 417.13C544.323 417.632 544.5 418.149 544.643 418.675C544.889 419.57 545.045 420.487 545.108 421.413C545.173 423.033 545.015 423.964 545.117 423.964Z" fill="#263238"/>
<path d="M545.116 423.638C544.399 423.335 543.62 423.208 542.844 423.266C542.006 423.266 541.171 423.369 540.358 423.573C539.857 423.681 539.374 423.86 538.924 424.103C538.637 424.249 538.404 424.484 538.262 424.772C538.119 425.061 538.074 425.388 538.133 425.705C538.211 426.008 538.37 426.284 538.593 426.504C538.816 426.723 539.095 426.878 539.399 426.953C539.915 427.083 540.456 427.083 540.972 426.953C541.802 426.738 542.579 426.355 543.254 425.826C543.889 425.391 544.44 424.845 544.883 424.215C544.232 424.591 543.609 425.014 543.021 425.481C542.37 425.927 541.64 426.243 540.87 426.413C540.442 426.52 539.994 426.52 539.566 426.413C539.364 426.361 539.178 426.257 539.028 426.112C538.878 425.967 538.768 425.785 538.71 425.584C538.678 425.385 538.712 425.182 538.806 425.004C538.9 424.826 539.049 424.683 539.231 424.597C539.635 424.381 540.063 424.215 540.507 424.103C541.279 423.888 542.072 423.75 542.872 423.694C544.185 423.591 545.051 423.731 545.116 423.638Z" fill="#263238"/>
<path d="M556.964 431.478C557.131 431.478 556.964 429.96 557.653 428.312C558.342 426.664 559.515 425.696 559.366 425.565C559.217 425.435 557.848 426.254 557.113 428.088C556.377 429.923 556.815 431.533 556.964 431.478Z" fill="#263238"/>
<path d="M532.494 433.098C532.921 433.355 533.373 433.568 533.844 433.731C535.118 434.225 536.425 434.629 537.755 434.941C542.15 435.904 546.646 436.329 551.144 436.208C556.404 436.152 561.144 435.919 564.579 435.779L568.639 435.565C569.139 435.56 569.638 435.507 570.129 435.407C569.633 435.327 569.13 435.302 568.63 435.332H564.561L551.144 435.593C546.683 435.704 542.223 435.342 537.839 434.513C534.487 433.852 532.531 432.986 532.494 433.098Z" fill="#263238"/>
<path d="M531.444 433.898C531.444 433.973 532.45 433.414 534.07 432.707C536.135 431.721 538.436 431.337 540.709 431.599C542.944 432.084 544.96 433.283 546.453 435.016C547.079 435.75 547.754 436.441 548.474 437.083C548.008 436.224 547.429 435.431 546.751 434.727C546.064 433.918 545.286 433.19 544.433 432.558C543.362 431.764 542.117 431.237 540.802 431.021C538.433 430.745 536.036 431.207 533.94 432.344C533.03 432.724 532.187 433.249 531.444 433.898Z" fill="#263238"/>
<path d="M495.438 409.569C495.438 409.569 462.244 431.3 461.043 432.204C459.256 433.554 461.304 439.987 464.405 438.87C465.866 438.349 493.724 430.593 496.723 429.429C499.721 428.265 507.784 421.692 507.784 421.692L495.438 409.569Z" fill="#FFA412"/>
<path d="M485.581 426.757C485.721 426.757 485.135 424.811 483.356 423.209C481.578 421.608 479.632 421.17 479.632 421.347C479.632 421.524 481.326 422.148 482.974 423.665C484.622 425.183 485.423 426.84 485.581 426.757Z" fill="#263238"/>
<path d="M488.564 424.066C488.704 424.019 488.061 422.343 486.543 420.807C485.026 419.271 483.378 418.573 483.322 418.712C483.266 418.852 484.691 419.736 486.115 421.217C487.54 422.697 488.406 424.15 488.564 424.066Z" fill="#263238"/>
<path d="M491.544 422.148C491.693 422.148 491.544 420.286 490.092 418.498C488.639 416.71 486.852 416.179 486.824 416.328C486.796 416.477 488.332 417.26 489.617 418.87C490.902 420.481 491.377 422.194 491.544 422.148Z" fill="#263238"/>
<path d="M489.59 418.023C489.674 418.023 489.218 417.092 488.836 415.537C488.618 414.636 488.487 413.717 488.445 412.791C488.413 412.245 488.413 411.698 488.445 411.152C488.446 410.908 488.506 410.668 488.622 410.454C488.671 410.382 488.745 410.332 488.83 410.313C488.915 410.294 489.003 410.308 489.078 410.351C489.46 410.5 489.655 411.143 489.832 411.655C489.997 412.166 490.106 412.694 490.158 413.228C490.244 414.159 490.216 415.097 490.074 416.021C489.842 417.595 489.534 418.554 489.628 418.582C490.066 417.814 490.357 416.971 490.484 416.096C490.687 415.148 490.759 414.177 490.698 413.21C490.658 412.631 490.552 412.06 490.382 411.506C490.292 411.21 490.183 410.921 490.056 410.64C489.913 410.291 489.649 410.006 489.311 409.839C489.112 409.744 488.886 409.723 488.673 409.779C488.46 409.836 488.273 409.966 488.147 410.146C487.971 410.446 487.874 410.786 487.868 411.133C487.831 411.704 487.831 412.276 487.868 412.846C487.933 413.795 488.111 414.733 488.399 415.64C488.615 416.512 489.022 417.326 489.59 418.023Z" fill="#263238"/>
<path d="M489.507 417.669C489.553 417.753 490.326 417.362 491.667 417.036C492.445 416.848 493.241 416.739 494.041 416.71C494.499 416.682 494.959 416.71 495.41 416.794C495.607 416.821 495.79 416.911 495.933 417.05C496.075 417.189 496.169 417.37 496.201 417.567C496.208 417.777 496.161 417.985 496.063 418.172C495.965 418.358 495.82 418.515 495.643 418.628C495.268 418.861 494.844 419.001 494.404 419.038C493.621 419.11 492.83 419.031 492.077 418.805C491.369 418.542 490.644 418.327 489.907 418.163C490.518 418.634 491.213 418.985 491.956 419.196C492.754 419.501 493.608 419.631 494.46 419.578C494.994 419.544 495.511 419.381 495.969 419.103C496.234 418.936 496.449 418.701 496.593 418.423C496.737 418.145 496.805 417.833 496.788 417.52C496.749 417.2 496.608 416.902 496.384 416.67C496.161 416.438 495.868 416.286 495.55 416.235C495.046 416.146 494.532 416.124 494.023 416.17C493.184 416.224 492.355 416.38 491.555 416.636C490.803 416.82 490.102 417.173 489.507 417.669Z" fill="#263238"/>
<path d="M468.636 437.66C468.636 437.716 469.195 437.325 469.455 436.375C469.722 435.138 469.498 433.847 468.832 432.772C468.504 432.19 468.13 431.636 467.714 431.114C467.397 430.66 467.018 430.253 466.588 429.904C466.284 429.656 465.916 429.501 465.526 429.457C465.256 429.457 465.107 429.513 465.117 429.55C465.565 429.682 465.978 429.911 466.327 430.221C466.675 430.593 466.987 430.999 467.258 431.431C467.633 431.953 467.981 432.494 468.301 433.051C468.892 434.022 469.147 435.161 469.027 436.291C468.922 436.754 468.791 437.211 468.636 437.66Z" fill="#263238"/>
<path d="M480.559 428.759C480.717 428.759 480.671 427.083 479.395 425.574C478.12 424.066 476.481 423.712 476.472 423.861C476.462 424.01 477.812 424.569 478.939 425.956C480.066 427.343 480.392 428.787 480.559 428.759Z" fill="#263238"/>
<path d="M504.37 422.865C503.855 423.158 503.366 423.495 502.908 423.87C501.594 424.782 500.229 425.618 498.821 426.375C496.714 427.482 494.536 428.449 492.303 429.271C489.789 430.202 486.968 431.086 483.988 431.952C478.011 433.675 472.601 435.248 468.7 436.421L464.045 437.837C463.472 437.983 462.914 438.183 462.378 438.433C462.964 438.352 463.544 438.224 464.11 438.051L468.765 436.822C472.694 435.751 478.076 434.243 484.091 432.52C487.08 431.654 489.91 430.751 492.471 429.773C494.714 428.922 496.893 427.908 498.988 426.738C500.398 425.945 501.746 425.045 503.02 424.047C503.51 423.702 503.963 423.305 504.37 422.865Z" fill="#263238"/>
<path d="M505.601 423.312C504.716 422.915 503.773 422.664 502.808 422.567C500.452 422.122 498.015 422.418 495.834 423.414C494.648 424.021 493.623 424.902 492.845 425.984C492.222 426.853 491.7 427.79 491.29 428.777C490.855 429.662 490.542 430.602 490.359 431.571C490.851 430.742 491.283 429.881 491.654 428.992C492.445 427.446 493.693 425.183 496.086 423.992C498.178 423.067 500.487 422.745 502.752 423.061C504.503 423.163 505.583 423.405 505.601 423.312Z" fill="#263238"/>
<path d="M564.45 355.213C564.45 355.213 574.403 358.788 574.45 369.961C574.524 391.376 531.229 414.932 531.229 414.932L473.604 376.758L469.991 375.296C469.991 375.296 547.774 346.041 564.45 355.213Z" fill="#263238"/>
<path d="M502.8 396.031C503.331 395.742 503.833 395.402 504.299 395.016C505.23 394.337 506.589 393.312 508.247 392.037C511.543 389.495 516.031 385.873 520.863 381.73C525.695 377.586 529.941 373.694 532.967 370.817C534.475 369.383 535.686 368.201 536.505 367.372C536.955 366.968 537.367 366.522 537.734 366.041C537.241 366.391 536.777 366.78 536.347 367.205L532.688 370.51C529.596 373.303 525.304 377.149 520.481 381.283C515.658 385.417 511.226 389.085 507.995 391.72L504.15 394.811C503.667 395.18 503.216 395.588 502.8 396.031Z" fill="#455A64"/>
<path d="M548.187 363.201C546.312 362.907 544.392 363.083 542.601 363.713C539.594 364.588 537.573 366.19 537.666 366.301C537.759 366.413 539.864 365.119 542.768 364.272C545.673 363.424 548.187 363.387 548.187 363.201Z" fill="#455A64"/>
<path d="M543.256 359.831C541.882 360.316 540.692 361.213 539.848 362.4C538.312 364.263 537.902 366.264 538.051 366.283C538.2 366.302 538.852 364.551 540.304 362.773C541.757 360.994 543.312 359.989 543.256 359.831Z" fill="#455A64"/>
<path d="M567.616 427.567C567.616 427.502 566.927 427.362 566.126 428.014C565.193 428.895 564.605 430.081 564.469 431.357C564.269 432.622 564.45 433.919 564.99 435.081C565.4 435.956 565.847 436.375 565.921 436.329C565.996 436.282 565.688 435.789 565.4 434.932C565.026 433.821 564.915 432.639 565.074 431.478C565.204 430.325 565.678 429.238 566.433 428.359C567.02 427.688 567.625 427.688 567.616 427.567Z" fill="#263238"/>
<path d="M560.327 324.831L543.94 369.03C543.483 370.262 542.656 371.322 541.573 372.066C540.489 372.809 539.202 373.199 537.888 373.182L447.647 371.991V365.138L481.166 366.358L495.375 322.28C495.611 321.555 496.07 320.923 496.687 320.474C497.305 320.026 498.048 319.785 498.811 319.785L557.022 319.952C557.6 319.963 558.166 320.112 558.674 320.387C559.182 320.662 559.617 321.056 559.941 321.534C560.265 322.012 560.469 322.562 560.536 323.135C560.604 323.709 560.532 324.291 560.327 324.831Z" fill="#E0E0E0"/>
<path d="M560.329 324.831C560.329 324.831 560.329 324.831 560.329 324.691C560.379 324.558 560.416 324.421 560.441 324.282C560.576 323.734 560.576 323.163 560.441 322.615C560.253 321.89 559.84 321.244 559.261 320.768C558.682 320.293 557.967 320.014 557.219 319.971C556.605 319.971 555.925 319.971 555.218 319.971H530.935H513.924H504.362H499.343C498.507 319.888 497.665 320.074 496.941 320.502C496.221 320.954 495.689 321.652 495.442 322.466L481.271 366.469V366.572H481.159L447.64 365.361L447.789 365.212V372.065L447.65 371.925L504.39 372.68L529.054 373.024L534.743 373.099H537.536C538.425 373.151 539.316 373.021 540.153 372.717C540.966 372.421 541.708 371.958 542.332 371.358C542.955 370.759 543.447 370.035 543.775 369.235C544.371 367.633 544.957 366.06 545.534 364.533C550.106 352.27 553.802 342.363 556.354 335.511C557.638 332.103 558.625 329.449 559.305 327.643C559.985 325.837 560.348 324.915 560.348 324.915C560.348 324.915 560.022 325.846 559.361 327.708L556.437 335.511C553.905 342.373 550.246 352.27 545.702 364.56L543.952 369.281C543.614 370.107 543.109 370.853 542.468 371.474C541.827 372.094 541.064 372.574 540.227 372.884C539.361 373.202 538.439 373.341 537.518 373.294H534.725L529.045 373.22L504.38 372.912L447.631 372.177H447.491V365.026H447.64L481.159 366.255L481.02 366.357L495.228 322.364C495.488 321.494 496.058 320.748 496.829 320.269C497.593 319.82 498.48 319.624 499.362 319.71H504.38H513.943L530.954 319.785L555.236 319.896C555.944 319.896 556.614 319.896 557.247 319.896C558.011 319.946 558.739 320.238 559.326 320.728C559.913 321.218 560.33 321.882 560.515 322.624C560.653 323.175 560.653 323.75 560.515 324.3C560.469 324.482 560.406 324.66 560.329 324.831Z" fill="#263238"/>
<path d="M520.318 341.525C521.016 341.172 521.802 341.028 522.58 341.111C523.358 341.193 524.095 341.499 524.704 341.991C525.218 342.481 525.574 343.113 525.726 343.806C525.879 344.499 525.821 345.223 525.56 345.883C525.277 346.534 524.819 347.093 524.237 347.499C523.656 347.905 522.973 348.142 522.264 348.183C521.512 348.231 520.765 348.033 520.137 347.618C519.508 347.203 519.032 346.593 518.782 345.883C518.363 344.44 518.782 342.289 520.318 341.525Z" fill="white"/>
<path d="M540.946 417.307C540.946 417.307 459.625 365.222 456.041 363.173C452.987 361.432 444.812 356.404 436.758 358.63C428.704 360.855 421.479 368.099 417.866 378.629C415.809 384.663 414.831 394.951 414.375 402.67C413.759 411.913 416.765 421.032 422.754 428.098C425.405 431.393 428.918 433.888 432.903 435.305C433.751 435.565 434.635 435.789 435.538 435.984C450.929 439.327 466.748 432.418 475.398 419.225L477.26 416.338C477.26 416.338 530.518 435.891 531.347 435.621L540.946 417.307Z" fill="#263238"/>
<path d="M460.235 366.059C460.235 366.059 460.161 366.059 460.03 365.938L459.463 365.547C458.96 365.203 458.224 364.7 457.265 364.076C454.557 362.298 451.659 360.827 448.625 359.691C446.53 358.921 444.334 358.46 442.107 358.322C439.567 358.216 437.032 358.631 434.658 359.542C432.024 360.559 429.591 362.034 427.47 363.899C426.335 364.871 425.268 365.919 424.277 367.037C423.274 368.188 422.388 369.435 421.633 370.761C420.136 373.405 418.961 376.219 418.132 379.141C417.359 381.981 416.744 384.784 416.167 387.428C415.093 392.112 414.469 396.889 414.305 401.692C414.247 404.933 414.493 408.171 415.04 411.366C415.217 412.502 415.422 413.368 415.543 413.964L415.674 414.643C415.686 414.72 415.686 414.799 415.674 414.876C415.642 414.804 415.617 414.729 415.599 414.653C415.599 414.476 415.487 414.252 415.422 413.982C415.264 413.396 415.031 412.539 414.826 411.403C414.189 408.206 413.877 404.952 413.895 401.692C414.02 396.868 414.622 392.068 415.692 387.363C416.27 384.7 416.865 381.916 417.629 379.039C418.474 376.079 419.665 373.229 421.176 370.547C421.948 369.186 422.853 367.904 423.876 366.72C424.884 365.585 425.97 364.521 427.126 363.536C429.292 361.644 431.776 360.15 434.463 359.123C436.907 358.196 439.515 357.784 442.126 357.912C444.381 358.079 446.601 358.568 448.718 359.365C451.766 360.532 454.664 362.061 457.349 363.918C458.28 364.57 459.016 365.1 459.5 365.473L460.04 365.901C460.113 365.944 460.179 365.997 460.235 366.059Z" fill="#455A64"/>
<path d="M440.229 402.604C440.374 402.681 440.524 402.749 440.676 402.809L442.008 403.33L447.166 405.342L466.346 412.567C474.493 415.602 484.26 419.224 495.21 423.209C506.16 427.194 518.292 431.589 531.252 435.946L531.494 436.021L531.606 435.807C533.636 431.915 535.787 427.818 537.965 423.656L541.206 417.446L541.336 417.204L541.103 417.064L479.009 377.642L460.387 365.873L455.322 362.707L454 361.907C453.853 361.812 453.701 361.725 453.544 361.646C453.544 361.646 453.684 361.758 453.972 361.953L455.266 362.81L460.276 366.059L478.832 377.977L540.824 417.557L540.721 417.176C539.697 419.14 538.599 421.244 537.481 423.367L531.131 435.518L531.476 435.369C518.524 430.993 506.383 426.645 495.424 422.697L466.561 412.185L447.315 405.127L442.12 403.265L440.77 402.79L440.229 402.604Z" fill="#455A64"/>
<path d="M444.44 229.805C442.915 227.066 441.703 224.165 440.827 221.155C439.953 218.121 440.123 214.881 441.311 211.956C442.065 210.289 443.257 208.827 443.853 207.096C444.663 204.712 444.328 201.9 445.808 199.861C448.108 196.667 453.043 197.412 456.609 195.746C459.402 194.442 461.329 191.64 464.244 190.699C466.795 189.88 469.579 190.699 472.037 191.723C474.495 192.748 476.906 194.116 479.56 194.461C481.467 194.568 483.379 194.568 485.286 194.461C487.22 194.38 489.11 195.047 490.565 196.323C491.906 197.673 492.186 200.178 490.733 201.416C494.076 200.848 497.251 204.209 497.176 207.57C497.102 210.932 494.578 213.939 491.497 215.354C488.415 216.77 484.904 216.853 481.525 216.583C471.962 215.839 462.354 212.207 455.845 205.168" fill="#EF293D"/>
<path d="M446.494 217.84L439.976 265.186C439.713 267.094 439.84 269.035 440.35 270.892C440.86 272.75 441.742 274.484 442.943 275.989C444.144 277.495 445.638 278.741 447.336 279.651C449.033 280.561 450.897 281.117 452.816 281.284C456.454 281.6 460.074 280.505 462.926 278.226C465.779 275.947 467.646 272.658 468.142 269.041C468.626 265.475 469.073 262.523 469.073 262.141C469.073 262.141 481.279 262.663 483.793 250.857C485.004 245.149 486.586 233.166 487.816 222.356C488.469 216.755 486.994 211.112 483.683 206.547C480.372 201.982 475.466 198.828 469.939 197.71L468.793 197.487C456.336 195.727 447.891 205.336 446.494 217.84Z" fill="#FFBE9D"/>
<path d="M469.19 261.955C463.706 260.969 458.637 258.376 454.628 254.506C454.628 254.506 456.574 263.761 468.594 265.055L469.19 261.955Z" fill="#EB996E"/>
<path d="M482.563 232.421C482.479 232.863 482.226 233.254 481.857 233.512C481.488 233.769 481.033 233.872 480.589 233.799C480.372 233.772 480.162 233.703 479.972 233.595C479.782 233.487 479.615 233.342 479.482 233.168C479.348 232.995 479.251 232.797 479.195 232.585C479.139 232.374 479.125 232.153 479.155 231.937C479.237 231.495 479.488 231.103 479.855 230.843C480.222 230.584 480.676 230.479 481.12 230.549C481.339 230.574 481.55 230.643 481.742 230.752C481.934 230.86 482.102 231.006 482.237 231.18C482.371 231.355 482.47 231.554 482.526 231.767C482.582 231.981 482.594 232.203 482.563 232.421Z" fill="#263238"/>
<path d="M484.162 227.654C483.911 227.831 482.821 226.63 480.997 226.276C479.172 225.923 477.663 226.556 477.514 226.276C477.44 226.155 477.728 225.802 478.445 225.494C479.325 225.113 480.3 225.012 481.239 225.206C482.187 225.39 483.052 225.873 483.706 226.584C484.181 227.142 484.293 227.58 484.162 227.654Z" fill="#263238"/>
<path d="M465.607 229.488C465.523 229.93 465.27 230.322 464.901 230.579C464.532 230.837 464.077 230.94 463.633 230.866C463.416 230.841 463.205 230.772 463.014 230.664C462.824 230.557 462.657 230.412 462.523 230.238C462.389 230.064 462.292 229.866 462.236 229.654C462.181 229.442 462.168 229.221 462.199 229.004C462.281 228.563 462.533 228.171 462.9 227.913C463.268 227.656 463.721 227.553 464.164 227.626C464.382 227.651 464.593 227.72 464.784 227.827C464.975 227.935 465.143 228.08 465.277 228.253C465.412 228.427 465.51 228.625 465.567 228.837C465.623 229.049 465.637 229.271 465.607 229.488Z" fill="#263238"/>
<path d="M466.226 224.423C465.966 224.6 464.876 223.399 463.051 223.036C461.226 222.673 459.718 223.324 459.569 223.036C459.495 222.915 459.783 222.561 460.5 222.254C461.379 221.872 462.355 221.771 463.293 221.965C464.239 222.15 465.103 222.629 465.761 223.334C466.236 223.911 466.347 224.339 466.226 224.423Z" fill="#263238"/>
<path d="M470.132 239.237C471.151 239.124 472.181 239.143 473.195 239.293C473.67 239.339 474.126 239.293 474.266 239.032C474.414 238.562 474.414 238.058 474.266 237.589C474.061 236.378 473.838 235.112 473.605 233.781C472.674 228.362 472.152 223.948 472.366 223.911C472.581 223.874 473.493 228.241 474.396 233.66C474.601 234.991 474.806 236.257 475.001 237.477C475.176 238.093 475.133 238.751 474.88 239.339C474.776 239.493 474.638 239.621 474.477 239.713C474.315 239.805 474.135 239.859 473.949 239.87C473.678 239.887 473.406 239.868 473.139 239.814C472.116 239.75 471.106 239.556 470.132 239.237Z" fill="#263238"/>
<path d="M464.518 239.423C464.816 239.423 464.425 241.443 465.841 243.147C467.256 244.851 469.397 245.093 469.351 245.372C469.351 245.503 468.811 245.661 467.917 245.512C466.755 245.293 465.708 244.674 464.956 243.762C464.256 242.88 463.923 241.763 464.025 240.642C464.109 239.832 464.388 239.386 464.518 239.423Z" fill="#263238"/>
<path d="M468.117 217.384C467.837 217.84 466.068 217.244 463.88 217.077C461.692 216.909 459.858 217.142 459.663 216.649C459.579 216.406 459.97 216.006 460.761 215.662C461.809 215.266 462.932 215.111 464.048 215.21C465.163 215.308 466.242 215.657 467.204 216.23C467.921 216.695 468.238 217.17 468.117 217.384Z" fill="#EF293D"/>
<path d="M484.597 222.254C484.187 222.607 483.024 221.928 481.525 221.602C480.025 221.276 478.731 221.323 478.471 220.838C478.387 220.596 478.666 220.224 479.309 219.907C480.151 219.589 481.068 219.528 481.945 219.731C482.822 219.935 483.619 220.395 484.234 221.053C484.644 221.621 484.737 222.086 484.597 222.254Z" fill="#EF293D"/>
<path d="M445.711 226.797C445.525 226.667 438.058 222.766 436.699 230.913C435.339 239.06 443.803 238.743 443.849 238.51C443.896 238.278 445.711 226.797 445.711 226.797Z" fill="#FFBE9D"/>
<path d="M441.878 235.009C441.878 235.009 441.719 235.084 441.468 235.149C441.105 235.24 440.721 235.186 440.397 235C439.587 234.534 439.094 233.054 439.299 231.573C439.397 230.872 439.648 230.202 440.034 229.609C440.153 229.365 440.328 229.153 440.545 228.991C440.762 228.829 441.015 228.722 441.282 228.678C441.452 228.662 441.623 228.707 441.764 228.804C441.905 228.901 442.008 229.044 442.055 229.208C442.129 229.46 442.055 229.609 442.055 229.627C442.055 229.646 442.25 229.525 442.241 229.18C442.23 228.97 442.148 228.77 442.008 228.612C441.811 228.405 441.54 228.285 441.254 228.277C440.908 228.287 440.571 228.386 440.274 228.564C439.977 228.741 439.731 228.992 439.559 229.292C439.095 229.939 438.798 230.691 438.693 231.48C438.47 233.128 439.057 234.804 440.174 235.344C440.384 235.443 440.613 235.494 440.844 235.494C441.076 235.494 441.305 235.443 441.515 235.344C441.831 235.205 441.906 235.028 441.878 235.009Z" fill="#EB996E"/>
<path d="M490.183 211.36C488.786 214.367 481.598 215.531 476.328 213.939C471.477 212.477 469.708 209.395 466.626 206.704C464.671 205 464.671 205 461.478 204.675C458.898 204.405 456.822 206.974 454.876 208.678C455.966 215.196 453.088 221.564 450.277 227.495C450.04 228.188 449.578 228.782 448.964 229.181C447.865 229.721 446.543 228.864 445.882 227.821C444.954 226.067 444.556 224.081 444.737 222.104C444.763 217.598 445.684 213.142 447.446 208.995C449.213 204.817 452.173 201.255 455.956 198.753C460.804 195.79 466.613 194.828 472.157 196.071C477.668 197.347 482.637 200.328 486.356 204.591C488.172 206.477 489.488 208.788 490.183 211.313" fill="#EF293D"/>
<path d="M473.646 231.043C473.72 231.043 473.646 230.345 474.018 229.181C474.494 227.505 475.508 226.033 476.905 224.991C477.926 224.235 479.12 223.745 480.377 223.565C481.635 223.385 482.918 223.52 484.111 223.958C485.519 224.473 486.741 225.397 487.621 226.611C488.571 227.906 489.082 229.47 489.082 231.076C489.082 232.681 488.571 234.245 487.621 235.54C486.741 236.754 485.519 237.678 484.111 238.194C482.918 238.632 481.634 238.766 480.376 238.584C479.118 238.402 477.925 237.91 476.905 237.151C475.508 236.114 474.493 234.644 474.018 232.97C473.692 231.779 473.72 231.108 473.646 231.108C473.624 231.278 473.624 231.45 473.646 231.62C473.643 232.106 473.699 232.591 473.813 233.064C474.206 234.85 475.215 236.442 476.662 237.561C477.521 238.216 478.502 238.694 479.547 238.965C480.593 239.236 481.682 239.295 482.751 239.139C483.82 238.983 484.847 238.614 485.771 238.056C486.695 237.497 487.499 236.759 488.133 235.885C489.178 234.485 489.743 232.785 489.743 231.038C489.743 229.292 489.178 227.592 488.133 226.192C487.493 225.319 486.683 224.582 485.753 224.027C484.823 223.472 483.791 223.109 482.718 222.959C481.645 222.81 480.553 222.878 479.506 223.158C478.46 223.438 477.48 223.925 476.625 224.591C475.178 225.706 474.17 227.295 473.776 229.079C473.662 229.554 473.606 230.042 473.609 230.531C473.597 230.703 473.61 230.875 473.646 231.043Z" fill="#263238"/>
<path d="M454.324 227.673C454.398 227.673 454.324 226.974 454.696 225.81C455.17 224.134 456.185 222.661 457.583 221.62C458.604 220.863 459.797 220.372 461.055 220.192C462.313 220.012 463.597 220.147 464.789 220.587C466.196 221.099 467.419 222.02 468.299 223.231C469.25 224.528 469.762 226.093 469.762 227.7C469.762 229.308 469.25 230.873 468.299 232.17C467.422 233.384 466.199 234.306 464.789 234.814C463.597 235.254 462.313 235.389 461.055 235.209C459.797 235.029 458.604 234.538 457.583 233.78C456.185 232.74 455.17 231.267 454.696 229.591C454.37 228.408 454.398 227.728 454.324 227.728C454.302 227.895 454.302 228.064 454.324 228.231C454.321 228.72 454.377 229.208 454.491 229.684C454.885 231.47 455.893 233.062 457.341 234.181C458.197 234.845 459.177 235.332 460.224 235.611C461.271 235.891 462.364 235.958 463.437 235.809C464.51 235.66 465.543 235.297 466.474 234.742C467.405 234.188 468.216 233.452 468.858 232.579C469.901 231.177 470.464 229.476 470.464 227.728C470.464 225.981 469.901 224.28 468.858 222.877C468.217 222.004 467.408 221.268 466.478 220.712C465.548 220.157 464.515 219.794 463.442 219.645C462.369 219.495 461.277 219.563 460.231 219.843C459.184 220.123 458.205 220.611 457.35 221.276C455.904 222.396 454.896 223.987 454.501 225.773C454.387 226.249 454.33 226.736 454.333 227.226C454.312 227.374 454.309 227.524 454.324 227.673Z" fill="#263238"/>
<path d="M470.244 227.952C470.328 228.11 471.361 227.626 472.562 227.998C473.763 228.371 474.368 229.33 474.527 229.237C474.685 229.143 474.527 228.892 474.294 228.482C473.923 227.946 473.381 227.552 472.757 227.364C472.133 227.177 471.463 227.206 470.858 227.449C470.402 227.635 470.197 227.877 470.244 227.952Z" fill="#263238"/>
<path d="M443.383 225.587C443.383 225.773 445.981 225.876 449.183 225.839C452.386 225.801 454.975 225.606 454.975 225.42C454.975 225.233 452.377 225.131 449.174 225.177C445.971 225.224 443.383 225.401 443.383 225.587Z" fill="#263238"/>
<path d="M494.025 203.585C494.025 203.848 493.981 204.109 493.895 204.358C493.664 205.046 493.241 205.653 492.675 206.108C491.84 206.794 490.818 207.213 489.742 207.31C488.445 207.414 487.139 207.345 485.86 207.105C483.534 206.761 481.228 206.298 478.951 205.717C478.076 205.485 477.368 205.289 476.893 205.14L476.335 204.963L476.148 204.889C476.148 204.889 476.223 204.889 476.344 204.889L476.912 205.028L478.979 205.541C480.729 205.96 483.169 206.472 485.888 206.881C487.152 207.119 488.441 207.191 489.724 207.095C490.769 207.01 491.767 206.618 492.591 205.969C493.146 205.536 493.571 204.96 493.82 204.302C493.988 203.865 493.997 203.576 494.025 203.585Z" fill="white"/>
<path d="M495.835 205.429C495.72 206.206 495.484 206.96 495.137 207.664C494.329 209.392 493.022 210.839 491.384 211.817C489.745 212.794 487.851 213.258 485.947 213.148C485.165 213.121 484.392 212.974 483.656 212.71C483.864 212.734 484.069 212.775 484.271 212.831C484.827 212.935 485.39 212.997 485.956 213.017C487.827 213.086 489.678 212.61 491.284 211.648C492.89 210.687 494.183 209.28 495.006 207.598C495.266 207.095 495.478 206.568 495.639 206.025C495.691 205.822 495.756 205.623 495.835 205.429Z" fill="white"/>
</svg>
