<svg width="89" height="89" viewBox="0 0 89 89" fill="none" xmlns="http://www.w3.org/2000/svg">
<path d="M60.7531 30.6807H56.6768C55.7903 30.6807 54.9472 31.1065 54.4257 31.8366L40.7628 50.7839L34.5745 42.1968C34.0531 41.4754 33.2187 41.0408 32.3235 41.0408H28.2472C27.6823 41.0408 27.352 41.684 27.6823 42.1446L38.5118 57.1634C38.7676 57.5205 39.1048 57.8114 39.4956 58.0121C39.8863 58.2128 40.3192 58.3175 40.7585 58.3175C41.1977 58.3175 41.6307 58.2128 42.0214 58.0121C42.4121 57.8114 42.7494 57.5205 43.0052 57.1634L61.3093 31.7845C61.6483 31.3238 61.318 30.6807 60.7531 30.6807Z" fill="#EF293D"/>
<path d="M44.5 5.5625C22.9975 5.5625 5.5625 22.9975 5.5625 44.5C5.5625 66.0025 22.9975 83.4375 44.5 83.4375C66.0025 83.4375 83.4375 66.0025 83.4375 44.5C83.4375 22.9975 66.0025 5.5625 44.5 5.5625ZM44.5 76.832C26.6479 76.832 12.168 62.3521 12.168 44.5C12.168 26.6479 26.6479 12.168 44.5 12.168C62.3521 12.168 76.832 26.6479 76.832 44.5C76.832 62.3521 62.3521 76.832 44.5 76.832Z" fill="#DDE1EA"/>
</svg>
