<svg width="594" height="404" viewBox="0 0 594 404" fill="none" xmlns="http://www.w3.org/2000/svg">
<path d="M442.428 58.4697L440.367 55.0662C423.023 26.513 391.713 9.30477 358.628 11.3926C354.371 11.6531 350.139 12.2299 345.968 13.1182C315.916 19.5439 289.767 42.253 278.929 71.3401C272.557 88.4434 270.773 108.14 258.676 121.716C242.934 139.391 216.213 139.944 192.706 139.21C169.199 138.476 142.448 139.134 126.803 156.876C116.986 167.982 113.828 183.77 114.658 198.662C116.757 238.055 144.232 273.281 179.159 290.785C214.085 308.289 255.222 309.852 293.449 302.159C347.008 291.367 397.942 261.746 428.557 215.975C459.171 170.204 466.918 107.863 442.428 58.4697Z" fill="#EDEDED"/>
<path d="M522.836 403.27C522.836 403.543 421.71 403.744 297.011 403.744C172.312 403.744 71.168 403.525 71.168 403.27C71.168 403.014 172.293 402.796 297.011 402.796C421.729 402.796 522.836 402.996 522.836 403.27Z" fill="#282828"/>
<path d="M435.859 209.94L439.971 202.942C437.897 196.834 438.183 190.172 440.775 184.265C443.366 178.358 448.075 173.633 453.975 171.019C459.875 168.405 466.54 168.091 472.661 170.139C478.781 172.186 483.914 176.447 487.05 182.084C490.186 187.722 491.099 194.327 489.609 200.603C488.119 206.878 484.334 212.37 478.998 215.998C473.662 219.627 467.161 221.13 460.773 220.211C454.384 219.293 448.57 216.02 444.474 211.036L435.859 209.94Z" fill="white"/>
<path d="M466.804 205.943V209.56H463.549V206.041C460.659 205.931 457.859 205.018 455.465 203.407L457.276 199.475C459.134 200.782 461.303 201.585 463.568 201.805V196.408C459.967 195.524 455.95 194.305 455.969 189.685C455.969 186.254 458.512 183.335 463.657 182.804V179.217H466.913V182.736C469.234 182.869 471.491 183.542 473.502 184.701L471.85 188.633C470.33 187.745 468.649 187.164 466.903 186.923V192.418C470.514 193.273 474.472 194.492 474.442 199.043C474.432 202.463 471.939 205.353 466.804 205.943ZM463.638 191.651V187.06C461.916 187.434 461.223 188.368 461.223 189.439C461.223 190.511 462.242 191.189 463.667 191.651H463.638ZM469.188 199.465C469.188 198.335 468.258 197.716 466.863 197.224V201.677C468.486 201.333 469.208 200.497 469.218 199.465H469.188Z" fill="#282828"/>
<path d="M435.859 209.94L436.384 210.035L438.015 210.264L444.465 211.16C444.494 211.163 444.522 211.155 444.545 211.137C444.568 211.119 444.584 211.093 444.589 211.065C444.593 211.043 444.593 211.02 444.589 210.998L444.398 211.112C447.118 214.478 450.646 217.101 454.653 218.739C457.232 219.799 459.969 220.424 462.753 220.589C465.899 220.808 469.059 220.446 472.074 219.521C475.754 218.398 479.139 216.472 481.984 213.882C484.829 211.292 487.062 208.103 488.523 204.545C489.984 200.987 490.635 197.15 490.43 193.309C490.225 189.469 489.169 185.722 487.338 182.34C485.337 178.61 482.443 175.433 478.914 173.092C475.553 170.85 471.721 169.412 467.714 168.888C461.063 168.061 454.349 169.828 448.969 173.822C443.589 177.815 439.956 183.727 438.826 190.329C438.104 194.58 438.465 198.944 439.876 203.018V202.933C438.569 205.221 437.558 206.984 436.852 208.205L436.098 209.539C435.926 209.835 435.859 209.978 435.859 209.978C435.859 209.978 435.964 209.825 436.155 209.52L436.966 208.176L440.067 203.037C440.073 203.024 440.077 203.009 440.077 202.994C440.077 202.98 440.073 202.965 440.067 202.952C438.994 199.728 438.572 196.324 438.826 192.936C439.079 189.548 440.003 186.245 441.544 183.217C443.084 180.188 445.211 177.496 447.8 175.295C450.389 173.094 453.39 171.428 456.628 170.394C460.179 169.254 463.938 168.909 467.638 169.384C471.561 169.91 475.313 171.321 478.609 173.512C482.065 175.813 484.899 178.93 486.861 182.588C489.032 186.599 490.088 191.118 489.92 195.675C489.753 200.232 488.368 204.661 485.908 208.502C483.449 212.343 480.005 215.456 475.935 217.518C471.865 219.58 467.317 220.515 462.763 220.226C460.019 220.076 457.318 219.477 454.768 218.453C450.796 216.853 447.285 214.291 444.55 210.998C444.54 210.987 444.527 210.979 444.513 210.973C444.499 210.967 444.484 210.964 444.469 210.964C444.454 210.964 444.439 210.967 444.425 210.973C444.412 210.979 444.399 210.987 444.388 210.998C444.374 211.017 444.367 211.041 444.367 211.065C444.367 211.089 444.374 211.112 444.388 211.131L444.503 210.979L438.12 210.226L436.451 210.035L435.859 209.94Z" fill="#282828"/>
<path d="M491.725 259.686C491.037 256.154 489.511 252.838 487.276 250.015C485.042 247.193 482.163 244.947 478.881 243.465C475.599 241.983 472.009 241.308 468.413 241.497C464.817 241.687 461.318 242.734 458.21 244.552C455.102 246.37 452.475 248.906 450.549 251.947C448.623 254.988 447.454 258.446 447.14 262.031C446.827 265.617 447.377 269.225 448.745 272.554C450.114 275.883 452.26 278.836 455.005 281.166C455.11 281.26 455.222 281.346 455.339 281.423C460.593 285.085 467.009 286.693 473.37 285.942C475.428 285.7 477.437 285.14 479.323 284.283C483.819 282.128 487.473 278.546 489.717 274.096C491.961 269.646 492.667 264.579 491.725 259.686Z" fill="white"/>
<path d="M491.726 259.686C491.76 259.802 491.785 259.92 491.802 260.039C491.85 260.297 491.917 260.649 491.993 261.097C492.192 262.457 492.266 263.833 492.213 265.206C491.937 270.316 489.963 275.188 486.603 279.049C485.488 280.314 484.237 281.453 482.873 282.443C481.4 283.517 479.797 284.401 478.103 285.075C474.269 286.394 470.163 286.722 466.168 286.028C464.011 285.653 461.909 285.012 459.91 284.121C458.875 283.68 457.871 283.17 456.905 282.596C456.408 282.319 455.951 282.005 455.445 281.69C454.96 281.361 454.507 280.987 454.09 280.575C450.539 277.288 448.149 272.939 447.279 268.181C446.814 265.789 446.762 263.335 447.126 260.926C447.291 259.747 447.54 258.581 447.87 257.437L448.462 255.778C448.643 255.225 448.939 254.71 449.167 254.176C450.147 252.113 451.434 250.21 452.984 248.532L453.546 247.912L454.157 247.35C454.567 246.978 454.949 246.587 455.378 246.254C456.22 245.574 457.109 244.956 458.04 244.404C461.513 242.306 465.496 241.201 469.555 241.21C470.486 241.198 471.416 241.249 472.34 241.363C473.247 241.458 474.124 241.687 474.993 241.84C475.861 241.992 476.662 242.316 477.454 242.602C478.246 242.888 479.009 243.203 479.715 243.556C482.311 244.857 484.638 246.636 486.574 248.799C487.345 249.7 488.05 250.656 488.683 251.659C489.224 252.493 489.702 253.367 490.114 254.271C490.307 254.645 490.47 255.034 490.6 255.434C490.743 255.806 490.867 256.159 490.982 256.483C491.183 257.03 491.343 257.59 491.459 258.161C491.564 258.6 491.64 258.943 491.707 259.2C491.738 259.319 491.76 259.44 491.774 259.563C491.724 259.449 491.685 259.331 491.659 259.21C491.583 258.962 491.487 258.619 491.363 258.18C491.232 257.617 491.057 257.066 490.839 256.531C490.724 256.216 490.591 255.873 490.448 255.501C490.308 255.106 490.136 254.723 489.932 254.357C489.516 253.463 489.032 252.602 488.482 251.783C487.845 250.799 487.137 249.862 486.364 248.98C484.432 246.872 482.126 245.14 479.562 243.87C478.866 243.498 478.084 243.25 477.33 242.917C476.576 242.583 475.727 242.431 474.897 242.183C474.067 241.935 473.19 241.811 472.293 241.735C471.385 241.619 470.47 241.572 469.555 241.592C465.549 241.638 461.633 242.778 458.231 244.89C457.326 245.435 456.459 246.04 455.636 246.702C455.216 247.035 454.844 247.426 454.443 247.788L453.842 248.341L453.298 248.952C451.787 250.595 450.535 252.46 449.587 254.481C449.329 254.992 449.1 255.517 448.9 256.054L448.328 257.675C447.997 258.792 447.752 259.933 447.593 261.088C447.24 263.447 447.291 265.849 447.746 268.19C448.607 272.84 450.95 277.087 454.424 280.298C454.823 280.693 455.257 281.051 455.722 281.366C456.189 281.671 456.676 281.986 457.143 282.262C458.099 282.821 459.086 283.324 460.1 283.768C462.068 284.624 464.13 285.241 466.244 285.608C470.167 286.283 474.197 285.955 477.96 284.655C479.649 284.008 481.252 283.153 482.73 282.11C486.378 279.438 489.143 275.735 490.667 271.48C491.394 269.445 491.843 267.322 492.003 265.168C492.072 263.804 492.031 262.436 491.879 261.078L491.736 260.02C491.722 259.909 491.718 259.798 491.726 259.686Z" fill="#282828"/>
<path d="M462.227 259.972H465.652C465.651 259.582 465.728 259.195 465.879 258.835C466.03 258.475 466.251 258.149 466.531 257.876C466.81 257.603 467.141 257.389 467.505 257.246C467.869 257.104 468.257 257.035 468.648 257.046C469.224 257.024 469.793 257.183 470.273 257.501C470.754 257.82 471.123 258.28 471.328 258.819C471.51 259.267 471.584 259.753 471.542 260.235C471.501 260.717 471.346 261.182 471.09 261.593C470.508 262.547 469.182 263.424 466.921 263.014V270.736H470.308V266.217C471.702 265.812 472.924 264.959 473.786 263.791C474.648 262.623 475.102 261.204 475.078 259.753C475.078 254.739 470.575 253.575 468.657 253.575C467.179 253.575 462.16 253.928 462.227 259.972Z" fill="#282828"/>
<path d="M470.354 272.328H466.91V275.54H470.354V272.328Z" fill="#282828"/>
<path d="M443.061 263.852C443.063 264.756 442.797 265.641 442.295 266.393C441.794 267.146 441.08 267.732 440.245 268.079C439.409 268.426 438.49 268.517 437.602 268.341C436.715 268.165 435.9 267.73 435.26 267.091C434.621 266.452 434.185 265.637 434.009 264.751C433.833 263.864 433.924 262.945 434.272 262.11C434.619 261.275 435.206 260.562 435.959 260.061C436.712 259.56 437.596 259.294 438.501 259.295C439.711 259.295 440.87 259.776 441.726 260.63C442.581 261.485 443.061 262.644 443.061 263.852Z" fill="white"/>
<path d="M443.061 263.853C443.013 263.853 443.061 263.452 442.822 262.766C442.544 261.807 441.957 260.966 441.153 260.373C440.506 259.891 439.738 259.598 438.934 259.527C438.13 259.456 437.322 259.61 436.601 259.972C435.88 260.333 435.273 260.888 434.849 261.574C434.426 262.261 434.201 263.051 434.201 263.858C434.201 264.664 434.426 265.455 434.849 266.141C435.273 266.827 435.88 267.382 436.601 267.743C437.322 268.105 438.13 268.259 438.934 268.188C439.738 268.117 440.506 267.824 441.153 267.342C441.957 266.749 442.544 265.908 442.822 264.949C443.023 264.263 443.013 263.853 443.061 263.853C443.108 263.853 443.061 263.958 443.061 264.148C443.067 264.434 443.038 264.719 442.975 264.997C442.752 266.038 442.167 266.967 441.324 267.619C440.699 268.112 439.959 268.438 439.173 268.567C438.387 268.695 437.581 268.621 436.831 268.353C435.9 268.025 435.095 267.416 434.525 266.611C433.955 265.806 433.648 264.844 433.648 263.858C433.648 262.871 433.955 261.909 434.525 261.104C435.095 260.299 435.9 259.691 436.831 259.362C437.581 259.094 438.387 259.02 439.173 259.149C439.959 259.277 440.699 259.603 441.324 260.097C442.167 260.748 442.752 261.677 442.975 262.718C443.039 262.997 443.067 263.282 443.061 263.567C443.089 263.729 443.08 263.853 443.061 263.853Z" fill="#282828"/>
<path d="M449.395 135.425C448.683 131.785 447.108 128.368 444.803 125.461C442.498 122.554 439.53 120.24 436.147 118.715C432.763 117.189 429.064 116.495 425.357 116.692C421.651 116.888 418.045 117.969 414.842 119.843C411.64 121.718 408.933 124.332 406.948 127.466C404.964 130.601 403.759 134.165 403.436 137.86C403.113 141.555 403.68 145.274 405.09 148.705C406.499 152.136 408.711 155.18 411.54 157.581L411.883 157.848C417.296 161.627 423.91 163.286 430.467 162.51C432.592 162.262 434.665 161.683 436.611 160.794C441.247 158.57 445.015 154.875 447.328 150.286C449.64 145.696 450.367 140.471 449.395 135.425Z" fill="white"/>
<path d="M449.394 135.425C449.434 135.546 449.463 135.67 449.479 135.797C449.527 136.064 449.584 136.426 449.67 136.884C449.874 138.285 449.947 139.702 449.89 141.116C449.614 146.395 447.579 151.429 444.108 155.417C442.963 156.714 441.684 157.886 440.292 158.916C438.76 160.019 437.097 160.928 435.341 161.623C431.39 162.996 427.156 163.343 423.034 162.634C420.815 162.263 418.649 161.622 416.585 160.727C415.521 160.266 414.485 159.741 413.485 159.154C412.979 158.859 412.483 158.544 411.987 158.201C411.49 157.864 411.024 157.485 410.594 157.066C406.935 153.679 404.469 149.202 403.563 144.301C403.089 141.836 403.037 139.308 403.41 136.826C403.576 135.61 403.834 134.409 404.183 133.232L404.784 131.516C404.975 130.944 405.271 130.42 405.509 129.867C406.513 127.741 407.835 125.78 409.43 124.051L410.002 123.413L410.632 122.831C411.061 122.45 411.453 122.04 411.901 121.696C412.766 120.996 413.681 120.359 414.639 119.79C418.219 117.628 422.324 116.49 426.507 116.501C427.463 116.492 428.419 116.546 429.369 116.663C430.323 116.758 431.21 116.996 432.097 117.149C432.985 117.301 433.824 117.635 434.645 117.94C435.465 118.245 436.247 118.56 436.972 118.951C439.646 120.296 442.044 122.129 444.042 124.356C444.838 125.281 445.565 126.262 446.217 127.293C446.776 128.153 447.267 129.055 447.686 129.991C447.89 130.38 448.063 130.785 448.201 131.202C448.335 131.583 448.468 131.936 448.592 132.279C448.802 132.84 448.964 133.417 449.079 134.004C449.193 134.452 449.27 134.815 449.336 135.072C449.367 135.194 449.389 135.319 449.403 135.444C449.352 135.33 449.31 135.212 449.279 135.091C449.212 134.824 449.107 134.472 448.983 134.023C448.848 133.445 448.669 132.878 448.449 132.326C448.325 131.993 448.182 131.64 448.039 131.259C447.897 130.851 447.721 130.456 447.514 130.077C447.082 129.157 446.582 128.271 446.016 127.426C445.358 126.421 444.628 125.465 443.832 124.566C441.842 122.389 439.464 120.602 436.82 119.294C436.095 118.913 435.293 118.655 434.511 118.341C433.729 118.026 432.861 117.835 432.011 117.578C431.162 117.321 430.247 117.197 429.321 117.111C428.372 116.999 427.415 116.951 426.459 116.968C422.354 116.98 418.33 118.11 414.82 120.238C413.885 120.809 412.993 121.446 412.149 122.145C411.71 122.488 411.329 122.888 410.909 123.26L410.298 123.832L409.735 124.461C408.18 126.163 406.893 128.092 405.919 130.181C405.69 130.725 405.395 131.24 405.213 131.802C405.032 132.365 404.822 132.918 404.622 133.48C404.284 134.632 404.032 135.808 403.868 136.998C403.503 139.43 403.558 141.906 404.03 144.32C404.91 149.113 407.316 153.493 410.89 156.809C411.303 157.211 411.75 157.578 412.225 157.905C412.712 158.229 413.179 158.544 413.694 158.859C414.677 159.442 415.697 159.962 416.747 160.413C418.772 161.307 420.9 161.948 423.082 162.319C427.127 163.023 431.285 162.695 435.169 161.366C436.892 160.689 438.525 159.805 440.035 158.735C441.428 157.732 442.707 156.582 443.851 155.303C445.807 153.097 447.329 150.542 448.335 147.771C449.091 145.674 449.553 143.483 449.708 141.259C449.783 139.854 449.741 138.444 449.584 137.046C449.518 136.588 449.47 136.226 449.432 135.959C449.394 135.784 449.381 135.604 449.394 135.425Z" fill="#282828"/>
<path d="M418.981 135.73H422.521C422.518 135.328 422.596 134.929 422.751 134.557C422.905 134.185 423.133 133.849 423.421 133.567C423.708 133.285 424.049 133.064 424.424 132.916C424.799 132.768 425.199 132.698 425.602 132.708C426.195 132.687 426.78 132.851 427.276 133.178C427.771 133.504 428.153 133.976 428.369 134.529C428.556 134.991 428.631 135.492 428.588 135.989C428.545 136.486 428.385 136.966 428.121 137.389C427.52 138.342 426.213 139.296 423.828 138.857V146.818H427.319V142.156C428.755 141.734 430.013 140.852 430.899 139.647C431.785 138.441 432.25 136.978 432.223 135.482C432.223 130.325 427.586 129.123 425.602 129.123C424.085 129.133 418.914 129.495 418.981 135.73Z" fill="#282828"/>
<path d="M427.365 148.467H423.816V151.775H427.365V148.467Z" fill="#282828"/>
<path d="M411.055 166.704C411.053 167.634 410.776 168.541 410.258 169.313C409.74 170.085 409.005 170.686 408.145 171.04C407.285 171.394 406.34 171.486 405.428 171.304C404.517 171.121 403.679 170.673 403.023 170.015C402.366 169.357 401.919 168.52 401.738 167.608C401.557 166.697 401.651 165.752 402.007 164.894C402.364 164.036 402.966 163.302 403.74 162.786C404.513 162.27 405.422 161.995 406.352 161.995C406.97 161.995 407.583 162.117 408.154 162.354C408.725 162.59 409.244 162.937 409.681 163.375C410.118 163.812 410.464 164.332 410.7 164.903C410.936 165.474 411.056 166.086 411.055 166.704Z" fill="white"/>
<path d="M411.054 166.705C411.006 166.705 411.054 166.286 410.815 165.58C410.528 164.587 409.922 163.715 409.089 163.101C408.421 162.603 407.627 162.301 406.797 162.227C405.967 162.154 405.132 162.313 404.387 162.687C403.642 163.06 403.016 163.633 402.578 164.342C402.14 165.051 401.908 165.867 401.908 166.7C401.908 167.533 402.14 168.35 402.578 169.059C403.016 169.767 403.642 170.341 404.387 170.714C405.132 171.088 405.967 171.247 406.797 171.173C407.627 171.1 408.421 170.797 409.089 170.299C409.916 169.684 410.522 168.818 410.815 167.83C411.016 167.125 411.006 166.696 411.054 166.705C411.102 166.715 411.054 166.8 411.054 167.001C411.061 167.293 411.029 167.585 410.959 167.868C410.732 168.943 410.13 169.903 409.26 170.576C408.617 171.084 407.854 171.419 407.045 171.551C406.235 171.683 405.405 171.607 404.634 171.329C403.676 170.99 402.847 170.363 402.261 169.534C401.674 168.706 401.359 167.715 401.359 166.7C401.359 165.685 401.674 164.695 402.261 163.866C402.847 163.037 403.676 162.41 404.634 162.072C405.406 161.797 406.235 161.722 407.044 161.853C407.853 161.985 408.616 162.319 409.26 162.825C410.128 163.499 410.729 164.458 410.959 165.532C411.029 165.816 411.061 166.108 411.054 166.4C411.083 166.61 411.073 166.705 411.054 166.705Z" fill="#282828"/>
<path d="M224.983 95.9939H161.065C156.641 95.9939 152.398 97.7493 149.269 100.874C146.141 103.999 144.381 108.238 144.379 112.659V144.186C144.375 146.382 144.805 148.556 145.644 150.585C146.484 152.614 147.716 154.457 149.269 156.009C150.823 157.561 152.668 158.791 154.699 159.628C156.73 160.466 158.906 160.894 161.103 160.889H208.613L216.817 174.484L224.497 160.889H224.983C227.177 160.891 229.35 160.459 231.377 159.62C233.404 158.781 235.245 157.55 236.795 155.998C238.345 154.447 239.573 152.605 240.41 150.578C241.246 148.551 241.674 146.379 241.669 144.186V112.659C241.669 110.469 241.238 108.302 240.399 106.279C239.56 104.257 238.331 102.419 236.781 100.872C235.232 99.3239 233.392 98.0966 231.368 97.2597C229.344 96.4228 227.174 95.9926 224.983 95.9939Z" fill="white"/>
<path d="M224.985 95.9945C224.985 95.9945 225.118 95.9945 225.376 95.9945H226.549C227.064 95.9945 227.694 96.1375 228.457 96.2615C229.321 96.4435 230.169 96.6921 230.995 97.0051C233.299 97.8707 235.382 99.2385 237.091 101.009C238.168 102.135 239.092 103.398 239.839 104.765C240.663 106.325 241.236 108.004 241.537 109.742C241.81 111.68 241.902 113.64 241.813 115.596C241.813 117.636 241.813 119.771 241.813 121.993C241.813 126.445 241.813 131.259 241.813 136.388C241.813 138.931 241.813 141.578 241.813 144.33C241.773 147.174 241.022 149.963 239.629 152.443C238.894 153.724 238.003 154.909 236.976 155.971C235.913 157.042 234.714 157.968 233.408 158.726C232.079 159.511 230.643 160.098 229.144 160.47C228.382 160.67 227.608 160.816 226.826 160.909C226.043 160.976 225.242 161.023 224.46 161.023L224.651 160.909C222.237 165.209 219.642 169.794 217.019 174.513L216.818 174.857L216.618 174.523C214.013 170.223 211.237 165.628 208.404 160.928L208.604 161.042H160.903C158.217 161 155.577 160.33 153.195 159.088C150.877 157.86 148.876 156.111 147.349 153.978C145.823 151.846 144.813 149.388 144.399 146.799L144.256 145.846L144.208 144.892C144.208 144.254 144.208 143.625 144.208 142.986V139.239C144.208 136.76 144.208 134.301 144.208 131.86V117.56C144.208 116.396 144.208 115.243 144.208 114.099C144.188 112.95 144.229 111.801 144.332 110.657C144.588 108.397 145.305 106.213 146.441 104.241C148.62 100.443 152.186 97.6344 156.391 96.4045C156.897 96.2805 157.402 96.128 157.908 96.0326L159.444 95.8134C160.474 95.7466 161.495 95.7085 162.487 95.7276H168.364H179.411L212.802 95.8038H221.874H224.231C224.765 95.8038 225.032 95.8038 225.032 95.8038H224.231H221.874L212.802 95.8515L179.411 95.9278H168.364H160.98L159.482 96.004L157.984 96.2233C157.488 96.3187 157.03 96.4712 156.506 96.5856C153.398 97.4942 150.627 99.2984 148.54 101.772C146.453 104.246 145.142 107.281 144.771 110.495C144.662 111.719 144.62 112.947 144.647 114.175V117.636C144.647 122.288 144.647 127.055 144.647 131.936C144.647 134.377 144.647 136.837 144.647 139.315V143.062C144.647 143.691 144.647 144.32 144.647 144.969V145.922L144.79 146.875C145.195 149.395 146.182 151.785 147.673 153.857C149.163 155.929 151.116 157.625 153.376 158.812C155.685 160.016 158.242 160.669 160.846 160.718H208.68L208.757 160.833L216.952 174.437H216.551C219.222 169.728 221.817 165.142 224.24 160.842L224.307 160.737H224.498C225.29 160.737 226.053 160.737 226.816 160.632C227.576 160.544 228.329 160.4 229.068 160.203C230.532 159.847 231.937 159.278 233.237 158.516C234.51 157.775 235.68 156.872 236.719 155.828C237.724 154.796 238.595 153.643 239.314 152.395C240.682 149.976 241.421 147.252 241.46 144.473C241.46 141.756 241.46 139.106 241.46 136.541C241.46 131.412 241.46 126.597 241.46 122.145C241.46 119.924 241.46 117.788 241.46 115.748C241.555 113.809 241.472 111.866 241.212 109.942C240.678 106.689 239.164 103.676 236.872 101.305C235.196 99.5342 233.146 98.1598 230.871 97.2815C230.056 96.9684 229.221 96.7104 228.371 96.5093C227.627 96.3854 226.997 96.271 226.463 96.2138L225.299 96.1375L224.985 95.9945Z" fill="#282828"/>
<path d="M228.312 113.117C228.312 113.26 212.513 113.365 193.013 113.365C173.513 113.365 157.715 113.26 157.715 113.117C157.715 112.974 173.513 112.869 193.013 112.869C212.513 112.869 228.312 112.983 228.312 113.117Z" fill="#282828"/>
<path d="M228.312 120.772C228.312 120.905 212.513 121.02 193.013 121.02C173.513 121.02 157.715 120.905 157.715 120.772C157.715 120.638 173.513 120.524 193.013 120.524C212.513 120.524 228.312 120.629 228.312 120.772Z" fill="#282828"/>
<path d="M228.312 128.418C228.312 128.561 212.513 128.666 193.013 128.666C173.513 128.666 157.715 128.561 157.715 128.418C157.715 128.275 173.513 128.17 193.013 128.17C212.513 128.17 228.312 128.285 228.312 128.418Z" fill="#282828"/>
<path d="M228.312 136.102C228.312 136.236 212.513 136.35 193.013 136.35C173.513 136.35 157.715 136.236 157.715 136.102C157.715 135.969 173.513 135.854 193.013 135.854C212.513 135.854 228.312 135.94 228.312 136.102Z" fill="#282828"/>
<path d="M228.312 143.729C228.312 143.872 212.513 143.986 193.013 143.986C173.513 143.986 157.715 143.872 157.715 143.729C157.715 143.586 173.513 143.481 193.013 143.481C212.513 143.481 228.312 143.586 228.312 143.729Z" fill="#282828"/>
<path d="M274.762 35.1602H202.668C199.334 35.1602 196.138 36.4827 193.78 38.8371C191.422 41.1915 190.096 44.3851 190.094 47.7159V73.0563C190.094 76.3889 191.418 79.5849 193.777 81.9413C196.135 84.2978 199.333 85.6216 202.668 85.6216H254.289L262.494 99.2166L270.126 85.6216H274.715C278.049 85.6216 281.248 84.2978 283.606 81.9413C285.964 79.5849 287.289 76.3889 287.289 73.0563V47.7159C287.286 44.3933 285.967 41.2069 283.619 38.8539C281.272 36.5009 278.087 35.1728 274.762 35.1602Z" fill="white"/>
<path d="M274.764 35.1601C274.764 35.1601 275.193 35.1601 276.033 35.1601C277.27 35.2826 278.484 35.5778 279.639 36.0372C281.483 36.8149 283.118 38.017 284.409 39.5456C285.26 40.5274 285.967 41.6252 286.508 42.8061C287.062 44.1466 287.385 45.5715 287.462 47.02C287.548 53.0929 287.519 60.4528 287.548 68.9473C287.548 69.996 287.548 71.0733 287.548 72.1697C287.576 73.2902 287.496 74.4108 287.309 75.516C286.863 77.8322 285.78 79.9783 284.18 81.7128C283.347 82.6237 282.383 83.4046 281.318 84.0295C280.246 84.6859 279.078 85.1685 277.855 85.4595C277.228 85.6152 276.59 85.7267 275.947 85.7932C275.308 85.7932 274.659 85.8695 274.039 85.86H270.166L270.347 85.7551L262.715 99.3596L262.524 99.6932L262.324 99.3691C259.719 95.0599 256.953 90.4742 254.1 85.7742L254.31 85.8886H203.041C200.53 85.9616 198.053 85.2988 195.915 83.9818C193.806 82.6813 192.125 80.7922 191.078 78.5477C190.087 76.335 189.667 73.9094 189.857 71.4928V57.5832C189.857 55.3142 189.857 53.0897 189.857 50.9097C189.857 49.7942 189.857 48.6979 189.857 47.6015C189.871 46.4921 190.031 45.3894 190.334 44.3219C190.925 42.2182 192.041 40.299 193.577 38.7448C195.095 37.2564 196.946 36.1517 198.977 35.5224C199.974 35.2324 201.002 35.0628 202.04 35.0171C203.07 34.9599 204.053 35.0171 205.054 35.0171H210.931H232.349L263.373 35.1029H271.807H274.001C274.497 35.1029 274.745 35.1029 274.745 35.1029H274.001H271.807H263.373L232.349 35.1792H210.931H205.054C203.055 35.053 201.048 35.2297 199.101 35.7035C197.147 36.3743 195.386 37.5096 193.969 39.0117C192.486 40.5138 191.41 42.3671 190.839 44.3982C190.229 46.4384 190.401 48.6407 190.382 50.862V57.5355C190.382 62.0672 190.382 66.6878 190.382 71.3974C190.336 72.5659 190.387 73.7362 190.534 74.8963C190.706 76.0561 191.051 77.1839 191.555 78.2426C192.569 80.3971 194.186 82.2118 196.211 83.467C198.267 84.755 200.653 85.4175 203.079 85.3737H254.463L254.529 85.4881L262.658 99.1022H262.266L269.956 85.5072L270.023 85.4023H274.02C274.669 85.4023 275.289 85.4023 275.928 85.3451C276.542 85.2836 277.151 85.1785 277.75 85.0305C278.933 84.7512 280.063 84.2845 281.099 83.6482C282.125 83.0471 283.054 82.2951 283.856 81.4173C285.414 79.7355 286.472 77.6519 286.909 75.4016C287.097 74.3223 287.177 73.2268 287.147 72.1315C287.147 71.0352 287.147 69.9579 287.147 68.9092C287.147 60.4433 287.214 53.0643 287.147 46.9818C287.064 45.5589 286.741 44.1601 286.193 42.8442C285.689 41.6958 285.031 40.6213 284.237 39.6505C282.964 38.1237 281.345 36.9212 279.515 36.1421C278.003 35.5343 276.394 35.2018 274.764 35.1601Z" fill="#282828"/>
<path d="M276.015 52.9212C276.015 53.0547 260.216 53.1691 240.716 53.1691C221.216 53.1691 205.418 53.0547 205.418 52.9212C205.418 52.7877 221.216 52.6733 240.716 52.6733C260.216 52.6733 276.015 52.7877 276.015 52.9212Z" fill="#282828"/>
<path d="M276.015 60.567C276.015 60.71 260.216 60.8148 240.716 60.8148C221.216 60.8148 205.418 60.71 205.418 60.567C205.418 60.424 221.216 60.3191 240.716 60.3191C260.216 60.3191 276.015 60.4335 276.015 60.567Z" fill="#282828"/>
<path d="M276.015 68.223C276.015 68.3564 260.216 68.4708 240.716 68.4708C221.216 68.4708 205.418 68.3564 205.418 68.223C205.418 68.0895 221.216 67.9751 240.716 67.9751C260.216 67.9751 276.015 68.0895 276.015 68.223Z" fill="#282828"/>
<path d="M428.656 237.082C427.749 236.005 426.566 235.023 426.271 233.64C425.975 232.258 426.633 230.99 426.919 229.665C427.262 227.798 426.939 225.871 426.006 224.218C425.074 222.565 423.591 221.291 421.815 220.617C419.755 219.912 417.112 219.855 416.091 217.939C415.071 216.022 416.368 213.849 417.131 211.856C417.749 210.193 417.996 208.414 417.855 206.646C417.713 204.877 417.186 203.161 416.311 201.617C416.065 200.913 415.775 200.225 415.443 199.558C414.153 196.979 412.192 194.795 409.767 193.235C407.341 191.675 404.54 190.796 401.657 190.691C401.209 188.599 400.171 186.678 398.664 185.158C397.158 183.637 395.246 182.58 393.157 182.111C393.169 180.564 392.816 179.035 392.127 177.649C390.114 173.731 385.83 171.357 381.48 170.652C378.318 170.168 375.086 170.44 372.049 171.446C369.013 172.452 366.258 174.163 364.012 176.439C361.608 178.908 359.662 182.159 356.38 183.265C353.518 184.218 350.35 183.36 347.345 183.751C343.319 184.275 339.866 187.135 337.805 190.625C335.744 194.114 334.886 198.194 334.409 202.227C333.97 205.926 333.684 209.987 331.117 212.714C328.551 215.441 324.649 215.908 321.577 217.776C315.72 221.304 313.821 230.027 317.685 235.662C318.916 237.463 320.69 239.113 320.833 241.286C320.957 243.269 319.679 245.033 319.078 246.93C317.532 251.811 321.53 257.617 326.643 257.913C329.229 258.056 331.995 257.055 334.275 258.209C336.555 259.362 337.433 262.127 338.902 264.234C340.419 266.269 342.591 267.721 345.052 268.346C347.514 268.971 350.115 268.731 352.421 267.666C354.329 266.713 356.122 265.197 358.231 265.34C360.339 265.483 361.999 267.246 364.069 267.675C366.788 268.2 369.364 266.207 370.976 263.967C372.588 261.726 373.714 259.076 375.746 257.236C378.446 254.834 382.243 254.243 385.668 253.06C390.592 251.33 394.941 248.271 398.232 244.223L397.898 263.29C400.76 263.29 402.382 262.337 403.432 260.84C404.021 261.243 404.663 261.563 405.34 261.793C407.024 262.313 408.828 262.31 410.511 261.784C412.194 261.258 413.677 260.234 414.765 258.847C415.862 257.379 416.549 255.501 418.104 254.548C419.469 253.709 421.176 253.775 422.75 253.489C424.489 253.173 426.114 252.406 427.462 251.264C428.811 250.123 429.835 248.648 430.433 246.986C431.031 245.324 431.182 243.535 430.87 241.796C430.558 240.058 429.794 238.432 428.656 237.082Z" fill="#282828"/>
<path d="M364.675 192.57C360.725 195.058 351.758 206.012 351.586 209.235L352.54 274.759C352.387 279.688 351.586 283.921 354.448 287.925C362.443 297.459 380.941 298.632 385.167 290.785C385.452 290.285 385.679 289.754 385.845 289.203C385.998 288.673 386.122 288.135 386.217 287.592C386.915 284.003 387.235 280.35 387.171 276.695C387.724 270.288 387.915 267.657 387.915 267.724C387.915 267.79 401.614 266.475 405.726 249.047C407.777 240.372 408.397 225.957 408.531 214.145C408.473 211.823 407.998 209.53 407.129 207.376C402.044 193.781 390.347 187.184 376.295 188.385C372.736 188.68 367.346 190.253 364.675 192.57Z" fill="#FFBF9D"/>
<path d="M388.336 238.77C388.336 238.636 389.872 238.484 392.343 238.35C392.972 238.35 393.573 238.255 393.707 237.835C393.817 237.187 393.72 236.519 393.43 235.929C392.953 234.384 392.476 232.754 391.942 231.057C389.881 224.126 388.45 218.444 388.727 218.368C389.004 218.291 390.902 223.84 392.953 230.761C393.449 232.471 393.92 234.101 394.365 235.652C394.698 236.431 394.748 237.3 394.508 238.112C394.401 238.326 394.247 238.513 394.057 238.658C393.867 238.803 393.646 238.904 393.411 238.951C393.06 239.023 392.7 239.046 392.343 239.018C389.872 239.065 388.336 238.913 388.336 238.77Z" fill="#282828"/>
<path d="M387.883 267.713C379.571 267.219 371.559 264.43 364.738 259.657C364.738 259.657 369.775 272.309 387.568 271.965L387.883 267.713Z" fill="#FF9A6C"/>
<path d="M386.866 244.566C386.442 243.953 385.87 243.456 385.203 243.123C384.536 242.79 383.795 242.63 383.05 242.659C382.511 242.67 381.979 242.79 381.488 243.011C380.996 243.232 380.554 243.55 380.188 243.946C379.835 244.324 379.607 244.801 379.533 245.312C379.46 245.824 379.545 246.345 379.778 246.807C380.137 247.271 380.626 247.619 381.183 247.806C381.74 247.993 382.34 248.01 382.907 247.855C384.089 247.535 385.196 246.98 386.16 246.225C386.449 246.049 386.704 245.823 386.914 245.558C387.013 245.43 387.071 245.275 387.081 245.114C387.091 244.952 387.053 244.791 386.971 244.652" fill="#FF9A6C"/>
<path d="M381.038 239.923C381.438 239.923 381.248 242.574 383.375 244.623C385.502 246.673 388.336 246.578 388.326 246.95C388.326 247.121 387.659 247.417 386.418 247.36C384.866 247.271 383.396 246.636 382.268 245.567C381.189 244.537 380.55 243.129 380.484 241.639C380.513 240.533 380.856 239.895 381.038 239.923Z" fill="#282828"/>
<path d="M380.599 213.457C380.303 214.106 377.899 213.61 375.018 213.743C372.137 213.877 369.762 214.477 369.428 213.858C369.275 213.562 369.723 212.971 370.706 212.399C372.008 211.706 373.451 211.318 374.926 211.265C376.4 211.212 377.867 211.495 379.216 212.094C380.237 212.59 380.723 213.152 380.599 213.457Z" fill="#282828"/>
<path d="M404.889 213.448C404.336 213.963 402.38 213.248 399.976 213.038C397.572 212.828 395.502 213.086 395.073 212.466C394.891 212.171 395.254 211.646 396.179 211.189C397.454 210.622 398.858 210.412 400.243 210.579C401.619 210.692 402.938 211.177 404.059 211.98C404.899 212.609 405.137 213.2 404.889 213.448Z" fill="#282828"/>
<path d="M355.137 232.01C355.232 230.704 353.944 227.491 352.657 227.195C349.232 226.395 342.964 226.242 342.248 235.003C341.294 247.025 353.553 245.49 353.611 245.176C353.668 244.861 354.813 236.548 355.137 232.01Z" fill="#FFBF9D"/>
<path d="M350.302 240.333C350.254 240.285 350.083 240.457 349.711 240.59C349.197 240.765 348.635 240.73 348.146 240.495C346.906 239.932 346 237.825 346.124 235.652C346.176 234.62 346.459 233.613 346.954 232.706C347.093 232.338 347.321 232.01 347.617 231.751C347.913 231.491 348.268 231.309 348.652 231.219C348.898 231.174 349.153 231.217 349.371 231.341C349.589 231.464 349.757 231.661 349.844 231.896C349.978 232.248 349.844 232.477 349.949 232.506C350.054 232.534 350.216 232.325 350.169 231.819C350.119 231.517 349.972 231.239 349.749 231.028C349.438 230.75 349.03 230.606 348.614 230.628C348.113 230.687 347.635 230.873 347.226 231.168C346.817 231.464 346.49 231.858 346.276 232.315C345.693 233.316 345.365 234.446 345.322 235.604C345.198 238.035 346.276 240.371 347.955 241.048C348.266 241.159 348.598 241.203 348.927 241.175C349.256 241.147 349.576 241.048 349.863 240.886C350.254 240.619 350.34 240.352 350.302 240.333Z" fill="#FF9A6C"/>
<path d="M350.308 209.234C350.308 208.634 350.089 209.797 350.308 209.234V209.234Z" fill="#DDE1EA"/>
<path d="M399.622 192.35C395.148 189.337 391.465 185.857 380.542 185.838C372.099 185.838 365.917 190.739 359.267 196.535C350.681 203.981 345.31 216.127 348.907 226.871L352.503 228.273L355.909 220.026C361.786 207.251 374.036 196.506 387.201 195.877C388.416 195.813 389.633 195.833 390.845 195.934C399.565 196.812 408.504 212.676 408.504 212.676C408.504 212.676 410.116 199.424 399.622 192.35Z" fill="#EF293D"/>
<path d="M352.516 228.225C352.706 230.713 353.088 232.992 353.279 235.461C353.365 236.519 353.632 237.806 354.643 238.092C355.021 238.159 355.411 238.102 355.754 237.93C356.098 237.758 356.377 237.481 356.551 237.139C356.888 236.463 357.07 235.72 357.085 234.965C357.83 227.405 358.459 221.618 359.203 214.077C357 217.137 354.767 222.352 352.516 228.225Z" fill="#282828"/>
<path d="M350.52 247.178C350.52 247.178 350.587 247.417 350.434 247.808C350.185 248.364 349.736 248.807 349.175 249.047C348.349 249.411 347.413 249.435 346.57 249.114C346.048 248.933 345.572 248.638 345.178 248.25C344.783 247.863 344.48 247.392 344.29 246.873C344.115 246.352 344.051 245.8 344.104 245.253C344.156 244.706 344.324 244.177 344.595 243.699C345.059 242.927 345.793 242.356 346.656 242.097C347.22 241.914 347.821 241.881 348.402 242.002C348.812 242.097 349.003 242.211 348.993 242.24C348.247 242.136 347.488 242.201 346.77 242.431C346.02 242.698 345.39 243.226 344.996 243.918C344.767 244.342 344.627 244.809 344.586 245.29C344.545 245.77 344.603 246.254 344.757 246.711C344.924 247.162 345.186 247.571 345.525 247.912C345.864 248.252 346.273 248.516 346.723 248.685C347.465 248.975 348.289 248.975 349.031 248.685C349.533 248.512 349.963 248.176 350.253 247.731C350.424 247.398 350.472 247.169 350.52 247.178Z" fill="#E0E0E0"/>
<path d="M375.879 198.9C375.879 198.9 385.419 201.521 388.615 200.52C390.75 199.871 392.59 198.495 393.814 196.631C393.814 196.631 386.43 193.37 375.879 198.9Z" fill="#282828"/>
<path d="M428.654 223.306C429.014 222.925 429.349 222.52 429.656 222.095C430.443 220.87 430.798 219.417 430.667 217.967C430.542 216.881 430.188 215.833 429.629 214.893C429.07 213.954 428.318 213.143 427.423 212.514C425.137 210.926 422.362 210.199 419.591 210.464H419.171L419.352 210.083C420.427 208.042 421.183 205.85 421.594 203.581C421.896 201.749 421.769 199.873 421.222 198.099C420.671 196.46 419.681 195.002 418.36 193.885C416.065 192.023 413.249 190.917 410.299 190.72C408.304 190.576 406.3 190.634 404.317 190.891L402.686 191.101C402.498 191.14 402.305 191.157 402.113 191.149C402.295 191.077 402.483 191.026 402.676 190.996C403.039 190.92 403.63 190.815 404.288 190.701C406.282 190.362 408.309 190.254 410.327 190.377C413.37 190.519 416.288 191.628 418.656 193.542C420.051 194.703 421.098 196.227 421.68 197.946C422.265 199.794 422.403 201.755 422.081 203.666C421.664 205.995 420.892 208.246 419.791 210.34L419.553 209.987C422.444 209.72 425.334 210.498 427.7 212.18C428.625 212.844 429.399 213.698 429.968 214.684C430.537 215.671 430.889 216.767 431.001 217.9C431.11 219.409 430.692 220.908 429.818 222.143C429.516 222.608 429.119 223.004 428.654 223.306Z" fill="#282828"/>
<path d="M329.907 243.584H329.649H328.886C328.209 243.584 327.216 243.489 325.948 243.346C324.395 243.18 322.867 242.831 321.397 242.307C319.42 241.603 317.685 240.35 316.398 238.693C315.002 236.558 314.361 234.018 314.576 231.476C314.64 230.085 314.777 228.697 314.986 227.32C315.146 225.845 315.449 224.388 315.892 222.972C316.373 221.449 317.321 220.115 318.602 219.159C319.975 218.148 321.769 218.091 323.372 218.11C324.974 218.129 326.72 218.177 328.046 217.224C328.68 216.694 329.197 216.038 329.563 215.297C329.929 214.557 330.137 213.749 330.174 212.924C330.243 211.218 330.18 209.51 329.983 207.814C329.894 206.13 329.965 204.441 330.193 202.771C330.609 199.608 331.602 196.548 333.122 193.742C334.485 191.195 336.321 188.93 338.531 187.069C340.46 185.456 342.664 184.203 345.037 183.37C348.459 182.1 352.159 181.771 355.751 182.416C357.073 182.642 358.357 183.049 359.567 183.627L359.319 183.56L358.594 183.312C357.659 183.006 356.702 182.771 355.732 182.607C352.18 182.03 348.539 182.391 345.171 183.656C342.846 184.5 340.688 185.75 338.798 187.345C336.648 189.191 334.862 191.422 333.532 193.923C332.045 196.686 331.075 199.698 330.67 202.809C330.45 204.448 330.382 206.105 330.47 207.757C330.664 209.478 330.727 211.212 330.66 212.943C330.619 213.838 330.391 214.714 329.99 215.516C329.589 216.317 329.025 217.026 328.333 217.595C327.598 218.091 326.753 218.399 325.871 218.492C325.034 218.574 324.193 218.599 323.353 218.568C321.82 218.296 320.241 218.614 318.933 219.457C317.626 220.301 316.686 221.608 316.302 223.115C315.862 224.503 315.559 225.93 315.396 227.377C315.182 228.738 315.038 230.11 314.967 231.486C314.742 233.942 315.34 236.403 316.665 238.484C317.899 240.102 319.571 241.332 321.483 242.03C322.926 242.574 324.427 242.948 325.957 243.145C327.216 243.317 328.199 243.403 328.867 243.47L329.63 243.546C329.724 243.542 329.817 243.555 329.907 243.584Z" fill="#282828"/>
<path d="M360.459 196.555C360.237 196.938 359.979 197.299 359.686 197.632C359.429 197.956 359.105 198.366 358.732 198.862C358.36 199.358 357.969 199.901 357.559 200.54C356.577 202.02 355.678 203.554 354.869 205.135C353.891 207.072 353.043 209.072 352.331 211.122C351.65 213.185 351.105 215.29 350.7 217.424C350.377 219.167 350.157 220.927 350.041 222.696C349.975 223.459 349.975 224.145 349.946 224.746C349.917 225.346 349.946 225.871 349.946 226.29C349.99 226.731 349.99 227.175 349.946 227.615C349.857 227.182 349.806 226.742 349.793 226.3C349.793 225.871 349.727 225.346 349.727 224.746C349.727 224.145 349.727 223.449 349.727 222.686C349.796 220.893 349.984 219.106 350.289 217.338C350.67 215.176 351.209 213.044 351.902 210.96C352.623 208.89 353.49 206.873 354.497 204.925C355.331 203.338 356.271 201.809 357.311 200.349C357.731 199.71 358.179 199.176 358.551 198.7C358.862 198.284 359.196 197.886 359.553 197.508C359.821 197.16 360.125 196.84 360.459 196.555Z" fill="#282828"/>
<path d="M370.087 191.998C369.732 192.397 369.346 192.766 368.932 193.103C368.541 193.437 368.074 193.857 367.559 194.381C367.043 194.905 366.423 195.449 365.803 196.126C364.31 197.669 362.906 199.296 361.596 200.997C360.01 203.092 358.56 205.286 357.255 207.566C355.978 209.863 354.846 212.238 353.869 214.678C353.086 216.679 352.417 218.722 351.865 220.799C351.598 221.676 351.445 222.496 351.274 223.201C351.102 223.907 350.978 224.526 350.883 225.032C350.805 225.56 350.69 226.083 350.539 226.595C350.543 226.06 350.597 225.527 350.701 225.003C350.758 224.488 350.854 223.859 350.997 223.144C351.14 222.429 351.283 221.599 351.522 220.713C352.029 218.61 352.667 216.54 353.43 214.516C355.321 209.553 357.949 204.903 361.224 200.721C362.562 199.018 364.005 197.4 365.546 195.878C366.185 195.21 366.824 194.667 367.358 194.171C367.893 193.675 368.389 193.275 368.789 192.951C369.196 192.599 369.63 192.28 370.087 191.998Z" fill="#282828"/>
<path d="M336.354 248.598C336.354 248.598 336.278 248.674 336.097 248.789C335.839 248.968 335.564 249.121 335.276 249.246C334.178 249.76 332.978 250.017 331.765 250C329.829 249.997 327.939 249.405 326.347 248.303C324.268 246.776 322.836 244.528 322.33 242.001C322.009 240.551 321.96 239.054 322.187 237.587C322.442 235.994 322.989 234.462 323.799 233.068C324.656 231.574 325.752 230.231 327.043 229.092C328.428 227.916 329.946 226.904 331.565 226.08C333.245 225.267 334.781 224.189 336.116 222.886C337.419 221.446 338.347 219.707 338.816 217.824C339.314 215.861 339.598 213.85 339.665 211.827C339.77 209.768 339.76 207.651 339.97 205.516C340.121 203.388 340.604 201.297 341.401 199.319C342.201 197.379 343.559 195.72 345.303 194.552C346.992 193.48 348.84 192.682 350.779 192.188C352.687 191.654 354.5 191.234 356.245 190.7C357.947 190.224 359.559 189.47 361.015 188.47C361.358 188.229 361.677 187.958 361.969 187.659C362.278 187.376 362.568 187.074 362.838 186.753C363.347 186.104 363.81 185.419 364.221 184.704C364.957 183.286 365.846 181.953 366.873 180.728C367.897 179.644 369.13 178.778 370.498 178.183C372.553 177.251 374.853 177.006 377.057 177.483C379.262 177.961 381.254 179.135 382.738 180.833C383.546 181.729 384.192 182.758 384.646 183.874C384.815 184.257 384.943 184.656 385.028 185.066C385.028 185.066 384.894 184.656 384.551 183.912C384.062 182.824 383.394 181.826 382.576 180.957C381.289 179.58 379.664 178.561 377.863 178.002C375.463 177.302 372.892 177.481 370.613 178.507C369.299 179.094 368.115 179.936 367.131 180.986C366.136 182.2 365.272 183.517 364.555 184.913C364.136 185.649 363.665 186.354 363.143 187.02C362.867 187.359 362.567 187.677 362.246 187.974C361.934 188.289 361.593 188.573 361.225 188.822C359.726 189.858 358.066 190.641 356.312 191.139C354.538 191.701 352.687 192.092 350.836 192.645C348.949 193.13 347.149 193.909 345.503 194.952C343.835 196.076 342.537 197.669 341.773 199.529C341 201.459 340.533 203.498 340.39 205.573C340.18 207.68 340.189 209.777 340.084 211.856C340.011 213.915 339.717 215.96 339.207 217.957C338.715 219.915 337.748 221.723 336.392 223.22C335.014 224.551 333.433 225.655 331.708 226.49C330.113 227.29 328.617 228.275 327.253 229.426C325.998 230.521 324.926 231.808 324.076 233.239C323.283 234.588 322.746 236.072 322.492 237.615C322.263 239.037 322.299 240.488 322.597 241.896C323.062 244.348 324.422 246.539 326.413 248.045C327.95 249.14 329.783 249.745 331.67 249.78C332.861 249.813 334.046 249.589 335.143 249.122C335.992 248.865 336.335 248.598 336.354 248.598Z" fill="#DDE1EA"/>
<path d="M402.113 227.481C402.121 228.1 401.887 228.697 401.461 229.146C401.035 229.594 400.451 229.859 399.833 229.884C399.53 229.91 399.225 229.875 398.936 229.781C398.647 229.687 398.379 229.536 398.15 229.337C397.92 229.137 397.733 228.894 397.599 228.621C397.466 228.349 397.388 228.052 397.371 227.748C397.366 227.129 397.602 226.532 398.029 226.084C398.456 225.635 399.042 225.371 399.661 225.346C399.963 225.321 400.267 225.357 400.555 225.452C400.843 225.547 401.109 225.698 401.337 225.897C401.566 226.096 401.752 226.339 401.885 226.611C402.019 226.883 402.096 227.179 402.113 227.481Z" fill="#282828"/>
<path d="M404.126 220.236C403.83 220.551 402.027 219.226 399.47 219.235C396.914 219.245 395.044 220.532 394.757 220.189C394.624 220.046 394.92 219.493 395.711 218.892C396.817 218.124 398.133 217.715 399.48 217.719C400.809 217.714 402.105 218.131 403.181 218.911C404.002 219.54 404.269 220.103 404.126 220.236Z" fill="#282828"/>
<path d="M379.999 227.482C380.007 228.102 379.772 228.7 379.344 229.149C378.916 229.598 378.33 229.862 377.71 229.884C377.408 229.909 377.104 229.873 376.816 229.778C376.528 229.684 376.262 229.532 376.033 229.333C375.805 229.134 375.618 228.891 375.485 228.619C375.352 228.347 375.275 228.051 375.258 227.749C375.25 227.13 375.484 226.533 375.91 226.085C376.336 225.636 376.92 225.371 377.538 225.346C377.841 225.32 378.146 225.355 378.435 225.449C378.724 225.543 378.991 225.694 379.221 225.894C379.45 226.093 379.638 226.336 379.771 226.609C379.905 226.882 379.983 227.178 379.999 227.482Z" fill="#282828"/>
<path d="M379.905 220.236C379.61 220.551 377.807 219.226 375.25 219.235C372.693 219.245 370.823 220.532 370.547 220.189C370.413 220.046 370.709 219.493 371.501 218.892C372.607 218.126 373.922 217.716 375.269 217.719C376.601 217.714 377.9 218.131 378.98 218.911C379.781 219.54 380.049 220.103 379.905 220.236Z" fill="#282828"/>
<path d="M423.302 300.242C412.265 286.809 402.715 284.902 402.715 284.902L402.782 332.809L437.985 377.302L452.295 340.684C452.295 340.684 430.782 309.337 423.302 300.242Z" fill="#2C9CDB"/>
<path d="M387.076 281.109L402.856 284.922C402.856 284.922 411.003 332.142 408.046 344.355C405.536 354.747 397.466 402.701 397.466 402.701H300.156L332.774 309.138C332.774 309.138 332.965 288.564 327.928 279.059C330.98 278.325 341.284 276.428 350.185 274.76C350.185 274.76 356.1 282.139 370.028 284.293C383.957 286.448 387.076 281.109 387.076 281.109Z" fill="#2C9CDB"/>
<path d="M406.397 320.663H345.274C339.931 351.895 326.918 363.879 303.984 381.965L300.168 402.719H397.477L403.125 370.105L402.791 358.102L406.397 320.663Z" fill="#DDE1EA"/>
<path d="M330.277 278.601C330.277 278.601 307.037 280.46 298.689 318.518C294.873 335.736 290.103 355.909 288.777 369.466C287.823 379.305 291.305 392.9 300.759 395.15L317.989 397.323C325.669 397.438 330.935 391.212 332.547 384.529L335.161 373.928C337.012 360.943 327.119 359.818 321.557 359.932L333.787 311.597L336.163 288.201L330.277 278.601Z" fill="#2C9CDB"/>
<path d="M409.687 310.967C409.736 311.142 409.771 311.321 409.792 311.501L410.021 313.036C410.021 313.369 410.126 313.741 410.184 314.142C410.241 314.542 410.269 315 410.317 315.476C410.412 316.43 410.536 317.507 410.584 318.718C410.75 321.537 410.769 324.363 410.641 327.184C410.462 330.638 410.105 334.081 409.573 337.499C409.039 341.131 408.371 344.573 407.665 347.691C406.959 350.808 406.31 353.582 405.757 355.928C405.204 358.273 404.679 360.141 404.326 361.438C404.154 362.067 404.011 362.563 403.906 362.935C403.872 363.113 403.814 363.286 403.734 363.45C403.759 363.27 403.794 363.091 403.839 362.916L404.183 361.409L405.509 355.861C406.053 353.516 406.711 350.732 407.36 347.614C408.008 344.497 408.686 341.074 409.21 337.442C409.735 333.81 410.164 330.339 410.269 327.165C410.374 323.99 410.432 321.13 410.269 318.727C410.269 317.526 410.145 316.439 410.069 315.496C410.069 315.019 409.993 314.542 409.964 314.161C409.935 313.779 409.869 313.389 409.83 313.055C409.764 312.416 409.706 311.901 409.668 311.51C409.656 311.329 409.662 311.147 409.687 310.967Z" fill="#282828"/>
<path d="M303.223 373.289C303.247 372.965 303.308 372.645 303.404 372.335C303.632 371.479 303.932 370.644 304.301 369.837C305.522 367.135 307.427 364.798 309.827 363.056C312.228 361.314 315.042 360.227 317.991 359.903C318.871 359.8 319.758 359.772 320.643 359.818C320.964 359.822 321.284 359.86 321.597 359.932C321.597 360.018 320.204 359.846 318 360.161C315.127 360.559 312.396 361.66 310.051 363.366C307.706 365.073 305.819 367.332 304.558 369.942C304.055 371.034 303.61 372.151 303.223 373.289Z" fill="#282828"/>
<path d="M308.594 354.327C308.78 354.295 308.97 354.295 309.157 354.327C309.67 354.312 310.183 354.334 310.693 354.394C312.378 354.564 314.03 354.978 315.596 355.623C317.161 356.272 318.625 357.139 319.946 358.197C320.35 358.515 320.733 358.859 321.091 359.227C321.233 359.351 321.355 359.496 321.454 359.656C321.406 359.704 320.824 359.16 319.794 358.407C317.102 356.425 313.963 355.135 310.654 354.651C309.405 354.422 308.594 354.422 308.594 354.327Z" fill="#282828"/>
<path d="M332.658 305.047C332.602 304.71 332.583 304.368 332.6 304.027C332.6 303.369 332.553 302.426 332.476 301.262C332.058 295.192 330.392 289.272 327.582 283.873C327.048 282.844 326.58 282.014 326.247 281.452C326.053 281.172 325.893 280.872 325.77 280.555C325.995 280.81 326.196 281.084 326.371 281.375C326.743 281.919 327.239 282.729 327.811 283.749C330.779 289.141 332.464 295.143 332.734 301.291C332.782 302.464 332.782 303.408 332.734 304.065C332.736 304.394 332.71 304.723 332.658 305.047Z" fill="#282828"/>
<g opacity="0.3">
<path opacity="0.3" d="M408.621 342.924C414.555 332.885 414.679 319.843 409.508 309.404C411.172 320.538 410.813 331.88 408.449 342.886" fill="black"/>
</g>
<path d="M328.187 393.138C328.187 393.138 327.787 393.624 326.918 394.339C325.655 395.301 324.207 395.993 322.664 396.369C320.376 396.939 318.013 397.148 315.661 396.989C313.009 396.798 310.08 396.484 307.075 396.036C304.211 395.676 301.39 395.038 298.651 394.129C297.508 393.628 296.462 392.931 295.56 392.07C294.759 391.323 294.034 390.499 293.394 389.61C292.462 388.323 291.666 386.943 291.019 385.492C290.799 384.967 290.628 384.538 290.523 384.29C290.476 384.144 290.412 384.003 290.332 383.871C290.355 384.024 290.394 384.174 290.447 384.319C290.532 384.605 290.685 385.015 290.885 385.549C291.49 387.015 292.262 388.406 293.185 389.696C293.817 390.611 294.542 391.458 295.35 392.222C296.269 393.124 297.342 393.853 298.517 394.377C301.275 395.332 304.123 396 307.018 396.369C310.08 396.827 313.009 397.123 315.68 397.323C318.069 397.466 320.465 397.228 322.778 396.617C324.342 396.206 325.799 395.465 327.052 394.444C327.4 394.157 327.72 393.838 328.006 393.49C328.079 393.38 328.14 393.261 328.187 393.138Z" fill="#282828"/>
<path d="M332.03 317.174C331.926 317.174 329.474 326.66 326.554 338.415C323.635 350.17 321.336 359.723 321.441 359.742C321.546 359.761 323.988 350.265 326.917 338.501C329.846 326.736 332.126 317.241 332.03 317.174Z" fill="#282828"/>
<path d="M334.991 370.848C335.058 370.592 335.096 370.33 335.106 370.066C335.185 369.348 335.201 368.623 335.153 367.902C335.072 366.831 334.713 365.8 334.113 364.909C333.769 364.369 333.37 363.868 332.921 363.412C332.425 362.934 331.87 362.521 331.27 362.182C329.158 361.062 326.866 360.323 324.497 359.999C323.786 359.89 323.069 359.826 322.35 359.808C322.088 359.765 321.821 359.765 321.559 359.808C321.559 359.865 322.684 359.913 324.421 360.228C326.729 360.631 328.962 361.387 331.041 362.468C331.618 362.789 332.15 363.183 332.625 363.641C333.059 364.075 333.448 364.551 333.789 365.061C334.378 365.91 334.746 366.894 334.858 367.921C334.922 368.628 334.945 369.338 334.924 370.047C334.915 370.316 334.938 370.585 334.991 370.848Z" fill="#282828"/>
<path d="M381.952 369.533L381.742 369.638L381.952 369.533Z" fill="#FFBF9D"/>
<path d="M382.09 369.466L382.004 369.514L382.09 369.466Z" fill="#FFBF9D"/>
<path d="M403.927 389.515C402.066 385.988 387.48 376.683 387.48 376.683L391.429 375.729L395.789 377.579C396.127 379.059 396.778 380.45 397.697 381.659C399.3 383.938 402.019 381.574 402.019 381.574L400.177 372.755L391.591 367.569C391.591 367.569 383.482 368.808 382.166 369.428L378.712 372.593C377.195 373.785 372.807 378.475 371.614 378.618C370.422 378.761 332.767 370.295 332.767 370.295C327.606 374.376 324.887 382.489 324.066 388.342C324.066 388.342 323.112 391.202 324.143 392.785L370.365 396.408L380.153 399.106C382.774 400.192 385.46 401.115 388.195 401.871C391.458 402.557 393.652 401.508 393.738 399.706C393.824 397.905 391.296 397.704 391.296 397.704C389.136 396.928 387.032 396.004 384.999 394.94C383.517 393.947 382.299 392.609 381.45 391.04L384.942 391.46C384.942 391.46 392.364 396.608 395.15 398.133C397.936 399.659 398.489 396.875 398.718 396.027C398.947 395.178 390.303 386.836 390.303 386.836C390.303 386.836 398.441 391.851 399.91 393.119C401.38 394.387 403.545 394.759 404.013 393.91C404.48 393.062 405.758 393.042 403.927 389.515Z" fill="#FFBF9D"/>
<path d="M363.779 390.325C363.751 390.135 363.751 389.942 363.779 389.753C363.774 389.529 363.79 389.306 363.827 389.086C363.849 388.789 363.901 388.495 363.98 388.208C364.441 386.541 365.247 384.989 366.346 383.651C367.412 382.305 368.607 381.066 369.914 379.952C370.425 379.461 370.988 379.026 371.593 378.656C371.113 379.174 370.607 379.667 370.076 380.133C368.831 381.286 367.676 382.532 366.622 383.861C365.551 385.165 364.735 386.66 364.218 388.266C363.779 389.505 363.837 390.325 363.779 390.325Z" fill="#FF9A6C"/>
<path d="M387.147 376.407C386.314 376.584 385.446 376.507 384.657 376.187C383.833 375.97 383.094 375.508 382.539 374.862C382.596 374.776 383.493 375.444 384.762 375.863C386.031 376.283 387.147 376.35 387.147 376.407Z" fill="#FF9A6C"/>
<path d="M389.54 386.064C388.265 385.724 387.021 385.277 385.82 384.73C384.582 384.281 383.385 383.726 382.242 383.071C383.518 383.4 384.76 383.847 385.953 384.406C387.193 384.858 388.393 385.413 389.54 386.064Z" fill="#FF9A6C"/>
<path d="M381.747 391.003C381.087 390.851 380.447 390.623 379.839 390.326C379.192 390.138 378.571 389.872 377.988 389.534C378.673 389.55 379.347 389.712 379.963 390.011C380.623 390.207 381.232 390.545 381.747 391.003Z" fill="#FF9A6C"/>
<path d="M388.363 386.712C387.835 387.073 387.352 387.495 386.923 387.97C386.581 388.508 386.303 389.084 386.093 389.686C386.093 389.686 386.007 389.457 386.093 389.086C386.179 388.603 386.378 388.149 386.675 387.759C386.972 387.369 387.358 387.056 387.801 386.845C388.115 386.693 388.354 386.674 388.363 386.712Z" fill="#FF9A6C"/>
<path d="M391.792 381.317C391.84 381.412 391.201 381.755 390.781 382.489C390.569 382.963 390.391 383.45 390.247 383.948C390.147 383.678 390.117 383.387 390.159 383.102C390.2 382.818 390.313 382.548 390.485 382.318C390.972 381.479 391.773 381.231 391.792 381.317Z" fill="#FF9A6C"/>
<path d="M390.627 371.687C390.627 371.687 390.455 371.544 390.35 371.229C390.243 370.807 390.243 370.365 390.35 369.942C390.452 369.518 390.666 369.13 390.97 368.817C391.199 368.579 391.39 368.493 391.419 368.531C391.113 368.998 390.866 369.501 390.684 370.028C390.596 370.577 390.576 371.134 390.627 371.687Z" fill="#FF9A6C"/>
<path d="M323.712 394.139C323.756 393.788 323.775 393.434 323.77 393.08C323.77 392.737 323.77 392.327 323.817 391.841C323.865 391.355 323.865 390.802 323.932 390.201C324.205 387.042 324.885 383.93 325.954 380.944C326.557 379.301 327.288 377.707 328.139 376.177C328.568 375.5 328.94 374.833 329.36 374.271L329.952 373.422L330.553 372.679C332.079 370.772 333.262 369.818 333.205 369.761C332.907 369.956 332.629 370.18 332.375 370.429C332.055 370.696 331.753 370.982 331.469 371.287C331.056 371.682 330.664 372.099 330.295 372.536L329.685 373.279C329.475 373.546 329.274 373.832 329.064 374.118C328.616 374.69 328.234 375.367 327.796 376.025C326.916 377.548 326.166 379.143 325.554 380.792C324.479 383.807 323.837 386.959 323.646 390.154C323.588 390.764 323.598 391.317 323.579 391.803C323.56 392.289 323.579 392.709 323.579 393.052C323.585 393.418 323.63 393.782 323.712 394.139Z" fill="#282828"/>
<g opacity="0.3">
<path opacity="0.3" d="M355.682 327.099V328.357L348.651 328.815L345.083 300.519C345.083 300.519 343.576 290.985 342.593 287.524C341.61 284.064 337.441 277.152 337.441 277.152L340.532 276.57L346.609 286.371L355.682 327.099Z" fill="black"/>
</g>
<path d="M356.607 327.061C356.607 327.061 353.487 300.776 350.539 290.28C347.591 279.783 343.012 276.046 343.012 276.046L338.48 276.895C338.48 276.895 342.993 282.376 344.729 292.044C346.466 301.711 349.738 327.375 349.738 327.375L356.607 327.061Z" fill="#DDE1EA"/>
<path d="M356.608 327.06H356.178L354.881 327.146L349.748 327.451H349.643V327.346C348.985 322.579 347.983 315.362 346.781 306.553C346.133 302.139 345.455 297.315 344.559 292.253C344.106 289.647 343.396 287.092 342.441 284.626C341.476 282.052 340.194 279.609 338.625 277.352L338.357 277.008L338.109 276.675L338.501 276.608L343.032 275.75H343.156L343.232 275.826C344.594 277.126 345.761 278.616 346.696 280.25C347.618 281.804 348.422 283.427 349.1 285.102C350.352 288.255 351.31 291.517 351.962 294.846C353.259 301.157 354.099 306.858 354.824 311.625C355.549 316.392 355.978 320.205 356.293 322.903C356.446 324.209 356.55 325.23 356.636 325.964C356.636 326.288 356.694 326.555 356.713 326.755C356.732 326.955 356.713 327.031 356.713 327.031C356.685 326.941 356.666 326.849 356.655 326.755C356.655 326.555 356.579 326.297 356.531 325.973C356.426 325.249 356.283 324.229 356.102 322.932C355.73 320.282 355.205 316.44 354.48 311.673C353.755 306.906 352.858 301.186 351.542 294.932C350.883 291.635 349.925 288.406 348.68 285.284C348.008 283.636 347.21 282.043 346.295 280.517C345.382 278.934 344.252 277.486 342.937 276.217L343.147 276.265L338.615 277.123L338.758 276.722L339.044 277.085C340.653 279.374 341.967 281.856 342.956 284.473C343.915 286.966 344.63 289.546 345.093 292.176C345.97 297.277 346.638 302.091 347.249 306.477C348.47 315.315 349.367 322.551 349.939 327.298L349.825 327.203L354.9 327.031H356.226L356.608 327.06Z" fill="#282828"/>
<path d="M402.717 284.903C402.717 284.903 403.766 313.627 400.17 328.357L393.301 328.138C393.301 328.138 398.405 292.415 397.727 283.511C399.483 283.537 401.201 284.017 402.717 284.903Z" fill="#DDE1EA"/>
<path d="M402.714 284.903C402.714 284.903 402.332 284.664 401.511 284.331C400.291 283.872 398.999 283.63 397.695 283.616L397.8 283.501C398.058 287.515 397.571 293.788 396.846 301.491C396.121 309.194 394.938 318.366 393.546 328.185L393.307 327.899H393.488L400.166 328.119L399.918 328.309C401.113 322.705 401.862 317.015 402.16 311.292C402.494 306.067 402.618 301.386 402.675 297.478C402.733 293.569 402.723 290.423 402.675 288.268C402.675 287.21 402.675 286.361 402.675 285.78C402.675 285.198 402.675 284.931 402.675 284.912C402.727 285.199 402.753 285.489 402.752 285.78C402.752 286.38 402.809 287.21 402.847 288.259C402.914 290.423 402.981 293.569 402.971 297.478C402.962 301.386 402.866 306.058 402.551 311.32C402.291 317.072 401.56 322.792 400.367 328.424L400.319 328.614H400.119L393.441 328.395H392.992V328.119C394.366 318.318 395.52 309.166 396.36 301.472C397.199 293.779 397.724 287.515 397.562 283.53V283.416H397.676C398.989 283.455 400.282 283.736 401.492 284.245C401.8 284.382 402.096 284.541 402.38 284.722L402.714 284.903Z" fill="#282828"/>
<path d="M395.551 324.191C395.553 324.596 395.675 324.991 395.901 325.327C396.128 325.663 396.449 325.924 396.824 326.078C397.199 326.231 397.611 326.271 398.008 326.191C398.405 326.11 398.77 325.914 399.056 325.627C399.342 325.34 399.536 324.975 399.614 324.578C399.693 324.18 399.652 323.769 399.496 323.395C399.34 323.021 399.078 322.701 398.74 322.476C398.403 322.252 398.007 322.132 397.602 322.132C397.332 322.132 397.064 322.185 396.815 322.289C396.565 322.392 396.339 322.544 396.148 322.735C395.958 322.927 395.807 323.154 395.704 323.404C395.602 323.653 395.55 323.921 395.551 324.191Z" fill="#E0E0E0"/>
<path d="M397.599 326.269C397.188 326.269 396.786 326.147 396.444 325.919C396.102 325.69 395.835 325.366 395.678 324.986C395.52 324.606 395.479 324.188 395.559 323.785C395.64 323.382 395.838 323.012 396.129 322.721C396.42 322.43 396.79 322.232 397.194 322.152C397.597 322.072 398.015 322.113 398.395 322.271C398.775 322.428 399.1 322.694 399.329 323.036C399.557 323.378 399.679 323.78 399.679 324.191C399.677 324.741 399.457 325.268 399.067 325.657C398.678 326.047 398.15 326.266 397.599 326.269ZM397.599 322.16C397.197 322.16 396.805 322.279 396.47 322.502C396.136 322.725 395.876 323.042 395.722 323.414C395.568 323.785 395.528 324.193 395.606 324.587C395.685 324.981 395.878 325.343 396.162 325.627C396.447 325.911 396.809 326.104 397.203 326.182C397.597 326.261 398.006 326.22 398.377 326.067C398.748 325.913 399.066 325.653 399.289 325.319C399.512 324.985 399.631 324.592 399.631 324.191C399.631 323.652 399.417 323.136 399.036 322.755C398.655 322.374 398.138 322.16 397.599 322.16Z" fill="#282828"/>
<path d="M352.696 325.554C353.828 325.554 354.747 324.636 354.747 323.504C354.747 322.372 353.828 321.454 352.696 321.454C351.563 321.454 350.645 322.372 350.645 323.504C350.645 324.636 351.563 325.554 352.696 325.554Z" fill="#E0E0E0"/>
<path d="M352.697 325.583C352.286 325.583 351.884 325.461 351.541 325.232C351.199 325.004 350.933 324.679 350.775 324.3C350.618 323.92 350.577 323.502 350.657 323.099C350.737 322.696 350.935 322.325 351.226 322.035C351.517 321.744 351.888 321.546 352.291 321.466C352.695 321.386 353.113 321.427 353.493 321.584C353.873 321.742 354.198 322.008 354.426 322.35C354.655 322.691 354.777 323.093 354.777 323.504C354.774 324.055 354.554 324.582 354.165 324.971C353.775 325.36 353.248 325.58 352.697 325.583ZM352.697 321.474C352.295 321.474 351.902 321.593 351.568 321.816C351.234 322.039 350.973 322.356 350.82 322.727C350.666 323.098 350.626 323.507 350.704 323.901C350.782 324.294 350.976 324.656 351.26 324.94C351.544 325.224 351.906 325.418 352.301 325.496C352.695 325.574 353.103 325.534 353.475 325.38C353.846 325.227 354.163 324.966 354.387 324.633C354.61 324.299 354.729 323.906 354.729 323.504C354.729 322.966 354.515 322.449 354.134 322.068C353.753 321.688 353.236 321.474 352.697 321.474Z" fill="#282828"/>
<path d="M393.728 345.222C393.739 345.326 393.739 345.432 393.728 345.536V346.49C393.728 347.3 393.728 348.492 393.576 350.027C393.452 351.901 393.133 353.758 392.622 355.566C391.876 357.957 390.641 360.168 388.996 362.058C385.552 366.434 379.323 369.79 372.053 370.715C370.184 370.931 368.298 370.957 366.425 370.791C364.44 370.653 362.499 370.145 360.7 369.294C356.975 367.426 353.941 364.421 352.038 360.714C350.181 357.017 349.174 352.952 349.09 348.816C349.038 347.825 349.038 346.832 349.09 345.842C349.132 345.331 349.261 344.831 349.472 344.364C349.702 343.875 350.097 343.483 350.588 343.258C351.518 342.993 352.492 342.922 353.45 343.048L356.217 343.163L375.545 343.954L388.567 344.526L392.107 344.717L393.061 344.774C393.165 344.759 393.271 344.759 393.375 344.774H392.135L388.586 344.688L375.554 344.268L356.226 343.573L353.469 343.477C352.569 343.356 351.654 343.418 350.779 343.658C350.394 343.877 350.078 344.198 349.864 344.584C349.651 344.971 349.548 345.41 349.567 345.851C349.514 346.82 349.514 347.79 349.567 348.759C349.638 352.819 350.616 356.813 352.429 360.447C354.278 364.069 357.232 367.011 360.863 368.846C362.597 369.673 364.47 370.171 366.386 370.314C368.225 370.477 370.075 370.458 371.91 370.257C379.084 369.361 385.219 366.1 388.643 361.829C390.269 359.979 391.502 357.819 392.269 355.48C392.8 353.693 393.148 351.856 393.309 349.998C393.452 348.473 393.509 347.281 393.557 346.471C393.557 346.089 393.557 345.784 393.604 345.517C393.636 345.415 393.677 345.316 393.728 345.222Z" fill="#282828"/>
<g opacity="0.3">
<path opacity="0.3" d="M340.4 371.983C340.645 370.244 340.524 368.474 340.046 366.785C339.568 365.096 338.743 363.525 337.624 362.172C336.487 360.788 335.079 359.651 333.485 358.831C331.892 358.011 330.148 357.526 328.36 357.406C327.962 345.369 328.845 333.324 330.993 321.473L321.453 359.608C321.453 359.608 334.733 359.789 334.991 370.848L340.4 371.983Z" fill="black"/>
</g>
<g opacity="0.3">
<path opacity="0.3" d="M350.543 226.786C351.555 218.948 354.281 211.43 358.528 204.763C358.996 204.029 359.482 203.105 359.053 202.351C358.833 202.06 358.519 201.854 358.164 201.769C357.809 201.684 357.435 201.724 357.107 201.884C356.451 202.236 355.903 202.76 355.523 203.4C353.199 206.727 351.57 210.489 350.732 214.459C349.895 218.429 349.866 222.528 350.648 226.51" fill="black"/>
</g>
<path d="M515.413 336.661L501.924 402.872H384.771C384.151 402.872 383.557 402.626 383.118 402.188C382.68 401.75 382.434 401.156 382.434 400.536C382.432 400.229 382.492 399.925 382.609 399.641C382.726 399.357 382.898 399.099 383.115 398.882C383.333 398.665 383.591 398.493 383.875 398.376C384.159 398.259 384.464 398.199 384.771 398.201H408.354L420.871 336.613C420.985 336.041 421.293 335.526 421.743 335.154C422.193 334.782 422.758 334.577 423.342 334.573L512.885 333.62C513.264 333.617 513.638 333.698 513.981 333.858C514.325 334.017 514.628 334.251 514.87 334.542C515.112 334.833 515.286 335.174 515.38 335.54C515.474 335.907 515.486 336.29 515.413 336.661Z" fill="#E0E0E0"/>
<path d="M515.413 336.661C515.417 336.594 515.417 336.527 515.413 336.461C515.438 336.261 515.438 336.059 515.413 335.86C515.367 335.468 515.231 335.093 515.016 334.762C514.801 334.431 514.512 334.154 514.173 333.953C513.935 333.808 513.673 333.705 513.4 333.648C513.086 333.587 512.765 333.568 512.446 333.591H510.338L505.062 333.639L471.213 333.963L447.611 334.192L434.389 334.335L427.453 334.401H423.904C423.608 334.401 423.322 334.401 422.998 334.401C422.525 334.458 422.075 334.636 421.692 334.918C421.309 335.201 421.006 335.578 420.813 336.013C420.695 336.304 420.612 336.608 420.565 336.918L420.384 337.805C420.26 338.396 420.145 338.997 420.021 339.597C419.773 340.789 419.535 342 419.287 343.21C418.79 345.632 418.291 348.089 417.789 350.58C416.778 355.55 415.741 360.635 414.679 365.834C412.57 376.216 410.376 387.008 408.106 398.134L408.268 398.01H385.162C384.843 397.99 384.523 398.006 384.208 398.057C383.583 398.194 383.034 398.562 382.672 399.087C382.474 399.377 382.339 399.705 382.276 400.05C382.212 400.395 382.222 400.749 382.304 401.09C382.385 401.432 382.538 401.752 382.75 402.031C382.963 402.31 383.232 402.541 383.54 402.71C383.879 402.889 384.254 402.99 384.637 403.005H446.877H501.885H501.98V402.91C506.111 382.556 509.46 365.996 511.788 354.527L514.516 341.285C514.821 339.778 515.05 338.625 515.203 337.834C515.356 337.042 515.422 336.661 515.422 336.661L515.165 337.834L514.449 341.275C513.82 344.307 512.904 348.759 511.721 354.489C509.364 365.929 505.997 382.508 501.809 402.853L501.933 402.748H446.924H384.694C384.361 402.733 384.035 402.645 383.74 402.491C383.471 402.344 383.236 402.143 383.05 401.9C382.864 401.657 382.732 401.378 382.66 401.08C382.589 400.783 382.582 400.474 382.638 400.173C382.694 399.872 382.813 399.587 382.986 399.335C383.302 398.88 383.78 398.563 384.322 398.448C384.602 398.398 384.887 398.382 385.171 398.401H408.497V398.277L415.06 365.967C416.11 360.781 417.14 355.696 418.151 350.713C418.654 348.222 419.153 345.766 419.649 343.344C419.888 342.133 420.136 340.922 420.374 339.731C420.498 339.13 420.622 338.529 420.737 337.938L420.918 337.052C420.966 336.762 421.043 336.478 421.147 336.203C421.376 335.676 421.785 335.246 422.301 334.993C422.555 334.868 422.83 334.79 423.112 334.764C423.379 334.764 423.694 334.764 423.99 334.764H427.529L434.465 334.687L447.735 334.401L471.338 334.125L505.186 333.705L510.462 333.639H512.57C512.873 333.625 513.176 333.641 513.476 333.686C513.741 333.746 513.995 333.845 514.23 333.982C514.569 334.183 514.858 334.46 515.073 334.79C515.288 335.121 515.424 335.497 515.47 335.889C515.482 336.147 515.463 336.407 515.413 336.661Z" fill="#282828"/>
<path d="M461.43 366.958C461.419 367.727 461.636 368.481 462.056 369.125C462.475 369.769 463.076 370.274 463.783 370.576C464.491 370.877 465.272 370.962 466.027 370.818C466.782 370.675 467.478 370.31 468.025 369.77C468.572 369.23 468.946 368.539 469.099 367.786C469.252 367.033 469.177 366.252 468.884 365.541C468.591 364.831 468.094 364.224 467.454 363.797C466.815 363.37 466.063 363.143 465.294 363.145C464.277 363.145 463.302 363.545 462.579 364.259C461.855 364.973 461.443 365.943 461.43 366.958Z" fill="white"/>
<path d="M515.306 337.194H509.163L492.41 337.28L437.154 337.671L429.159 337.738H427.194C426.858 337.728 426.523 337.75 426.192 337.805C425.853 337.871 425.53 338.001 425.238 338.186C424.654 338.554 424.231 339.13 424.055 339.797C423.902 340.445 423.797 341.055 423.664 341.704C422.71 346.69 421.756 351.504 420.802 356.09L416.032 380.448C414.677 387.37 413.57 392.985 412.807 396.875C412.445 398.782 412.149 400.307 411.949 401.337C411.863 401.842 411.786 402.233 411.739 402.5C411.691 402.767 411.672 402.9 411.672 402.9C411.672 402.9 411.672 402.767 411.767 402.509L412.015 401.356C412.225 400.326 412.54 398.82 412.969 396.894C413.761 393.014 414.877 387.408 416.299 380.487C417.72 373.565 419.342 365.309 421.183 356.147C422.137 351.562 423.091 346.757 424.045 341.77C424.169 341.151 424.293 340.503 424.427 339.864C424.546 339.42 424.788 339.018 425.126 338.706C425.463 338.394 425.883 338.184 426.335 338.1C426.651 338.051 426.97 338.032 427.289 338.043H429.254L437.249 337.986L492.505 337.499L509.258 337.318L513.809 337.252H515.001L515.306 337.194Z" fill="#282828"/>
<path d="M325.179 161.614C326.831 162.606 328.793 162.948 330.683 162.572C332.573 162.196 334.255 161.13 335.4 159.581C336.546 158.033 337.073 156.113 336.878 154.197C336.683 152.282 335.781 150.507 334.347 149.22C335.923 148.601 337.262 147.502 338.177 146.078C339.091 144.655 339.533 142.979 339.44 141.29C339.347 139.602 338.724 137.985 337.659 136.67C336.594 135.355 335.141 134.409 333.508 133.967C334.117 132.423 334.317 130.747 334.089 129.104C333.86 127.46 333.211 125.902 332.203 124.583C331.196 123.264 329.864 122.226 328.338 121.572C326.811 120.918 325.142 120.668 323.491 120.848C322.409 118.686 320.634 116.947 318.448 115.91C316.263 114.874 313.793 114.598 311.432 115.128C310.077 114.196 308.46 113.721 306.816 113.773C305.172 113.825 303.588 114.401 302.295 115.418C301.002 116.434 300.068 117.836 299.63 119.421C299.192 121.005 299.272 122.688 299.86 124.223" fill="#282828"/>
<path d="M325.752 163.064C328.537 155.292 328.29 146.757 325.06 139.16C321.83 131.562 315.853 125.46 308.322 122.069L306.777 121.373C289.604 114.804 274.445 125.711 268.349 143.034L241.637 202.743L255.413 247.007L276 225.08L286.008 213.516C286.008 213.516 303.18 218.282 310.66 202.295C314.275 194.544 320.39 178.051 325.752 163.064Z" fill="#AE7461"/>
<path d="M286.171 213.515C278.699 210.158 272.351 204.724 267.883 197.861C267.883 197.861 266.204 211.132 282.899 216.928L286.171 213.515Z" fill="#6F4439"/>
<path d="M314.944 175.771C314.68 176.373 314.191 176.847 313.581 177.093C312.971 177.339 312.29 177.336 311.682 177.087C311.379 176.979 311.101 176.811 310.864 176.594C310.627 176.376 310.436 176.113 310.303 175.821C310.169 175.528 310.096 175.212 310.087 174.891C310.078 174.57 310.134 174.25 310.251 173.95C310.517 173.351 311.006 172.878 311.615 172.632C312.224 172.387 312.905 172.388 313.513 172.635C313.816 172.744 314.093 172.912 314.329 173.13C314.565 173.348 314.755 173.61 314.889 173.902C315.022 174.194 315.096 174.51 315.105 174.831C315.115 175.152 315.06 175.472 314.944 175.771Z" fill="#282828"/>
<path d="M318.749 169.365C318.33 169.537 317.175 167.459 314.704 166.362C312.233 165.266 309.858 165.666 309.724 165.247C309.658 165.056 310.192 164.646 311.241 164.427C312.646 164.169 314.095 164.352 315.391 164.951C316.675 165.528 317.743 166.496 318.444 167.716C318.94 168.641 318.94 169.299 318.749 169.365Z" fill="#282828"/>
<path d="M292.229 166.085C291.965 166.684 291.477 167.157 290.87 167.403C290.262 167.648 289.583 167.648 288.976 167.401C288.673 167.294 288.395 167.127 288.158 166.911C287.921 166.694 287.73 166.433 287.595 166.141C287.461 165.85 287.387 165.534 287.376 165.214C287.366 164.893 287.42 164.573 287.535 164.274C287.802 163.674 288.291 163.201 288.899 162.954C289.508 162.707 290.188 162.705 290.798 162.949C291.101 163.057 291.379 163.225 291.616 163.442C291.853 163.66 292.044 163.922 292.177 164.215C292.311 164.507 292.384 164.823 292.393 165.145C292.402 165.466 292.346 165.786 292.229 166.085Z" fill="#282828"/>
<path d="M294.261 158.878C293.841 159.05 292.687 156.971 290.216 155.875C287.745 154.779 285.37 155.189 285.236 154.76C285.169 154.569 285.704 154.159 286.753 153.94C288.157 153.682 289.607 153.865 290.903 154.464C292.187 155.041 293.255 156.009 293.956 157.229C294.452 158.154 294.461 158.811 294.261 158.878Z" fill="#282828"/>
<path d="M294.966 181.225C294.966 181.082 296.674 181.511 299.298 182.312C299.965 182.531 300.614 182.674 300.919 182.312C301.264 181.683 301.41 180.966 301.339 180.253C301.435 178.46 301.536 176.582 301.644 174.618C302.131 166.61 302.799 160.146 303.123 160.175C303.448 160.204 303.304 166.696 302.808 174.704C302.665 176.668 302.541 178.518 302.417 180.339C302.467 181.278 302.187 182.205 301.625 182.96C301.433 183.14 301.203 183.273 300.952 183.351C300.701 183.429 300.435 183.448 300.175 183.408C299.781 183.348 299.396 183.236 299.03 183.075C296.464 182.064 294.909 181.378 294.966 181.225Z" fill="#282828"/>
<path d="M298.799 150.812C298.198 151.289 296.385 149.659 293.819 148.4C291.252 147.142 288.858 146.579 288.915 145.826C288.915 145.473 289.669 145.111 290.823 145.035C292.309 144.979 293.784 145.308 295.107 145.988C296.424 146.639 297.546 147.626 298.36 148.848C298.97 149.811 299.085 150.583 298.799 150.812Z" fill="#282828"/>
<path d="M322.999 160.766C322.226 161.09 320.452 159.584 318.01 158.459C315.567 157.334 313.316 156.79 313.106 155.99C313.02 155.608 313.602 155.198 314.747 155.036C316.303 154.951 317.853 155.28 319.24 155.99C320.643 156.635 321.846 157.646 322.722 158.916C323.333 159.937 323.352 160.594 322.999 160.766Z" fill="#282828"/>
<path d="M263.875 159.841C264.123 159.243 264.247 158.601 264.239 157.954C264.231 157.306 264.091 156.667 263.827 156.076C263.564 155.485 263.183 154.953 262.707 154.514C262.232 154.074 261.671 153.736 261.061 153.52C257.932 152.452 253.829 152.653 251.234 158.926C246.626 170.071 258.771 172.397 258.924 172.082C259.076 171.768 261.986 164.522 263.875 159.841Z" fill="#AE7461"/>
<path d="M258.23 166.886C258.23 166.886 257.982 166.943 257.591 166.962C257.046 166.964 256.521 166.76 256.122 166.39C255.168 165.437 254.91 163.196 255.683 161.165C256.047 160.196 256.628 159.322 257.381 158.61C257.627 158.304 257.944 158.063 258.305 157.909C258.666 157.754 259.06 157.691 259.451 157.724C259.696 157.747 259.926 157.855 260.1 158.029C260.274 158.203 260.382 158.432 260.405 158.677C260.405 159.049 260.262 159.249 260.319 159.287C260.377 159.325 260.634 159.202 260.73 158.706C260.785 158.406 260.735 158.096 260.587 157.829C260.376 157.469 260.034 157.206 259.633 157.095C259.138 156.997 258.626 157.029 258.147 157.186C257.667 157.343 257.236 157.62 256.895 157.991C256.032 158.772 255.376 159.755 254.987 160.851C254.128 163.129 254.405 165.703 255.826 166.838C256.091 167.049 256.4 167.198 256.73 167.274C257.06 167.35 257.403 167.351 257.734 167.276C258.097 167.153 258.259 166.924 258.23 166.886Z" fill="#6F4439"/>
<path d="M326.933 136.102C326.966 135.785 326.966 135.466 326.933 135.149C326.73 133.97 326.257 132.853 325.553 131.886C324.848 130.919 323.93 130.127 322.869 129.572C321.917 128.374 320.874 127.252 319.749 126.216C319.591 124.437 318.981 122.728 317.976 121.251C316.972 119.774 315.606 118.578 314.01 117.776C312.413 116.974 310.638 116.593 308.853 116.668C307.067 116.744 305.331 117.273 303.808 118.207L302.358 117.817C301.558 116.383 300.44 115.152 299.09 114.219C297.739 113.286 296.192 112.675 294.568 112.434C292.944 112.192 291.286 112.327 289.722 112.827C288.158 113.327 286.73 114.18 285.548 115.319C284.364 114.36 282.924 113.77 281.407 113.621C279.89 113.473 278.363 113.772 277.015 114.483C275.667 115.193 274.558 116.284 273.824 117.619C273.09 118.954 272.765 120.474 272.888 121.992C270.398 122.231 267.822 123.432 266.754 125.682C265.685 127.932 266.754 130.792 268.939 131.469C266.182 136.55 263.949 143.004 261.755 148.629C260.209 152.557 264.083 157.057 263.234 159.812C258.931 173.912 266.62 168.516 280.749 141.698C281.121 141.613 281.503 141.508 281.904 141.384C282.715 141.126 283.153 140.526 283.926 140.163C284.699 139.801 285.834 140.449 286.721 140.955C288.269 141.804 290.062 142.095 291.8 141.779C293.537 141.463 295.113 140.56 296.262 139.22C296.529 140.802 298.456 141.603 300.078 141.365C301.699 141.126 303.054 140.192 304.514 139.515C305.973 138.838 307.777 138.476 309.141 139.334C309.894 139.811 310.438 140.64 311.287 140.936C312.795 141.46 314.254 140.087 315.103 138.752C315.828 137.637 316.611 136.331 317.775 135.816C318.843 135.778 319.909 135.933 320.923 136.274C321.447 136.588 321.944 136.951 322.44 137.227C322.681 137.376 322.933 137.507 323.193 137.618C323.486 137.885 323.76 138.172 324.014 138.476C327.83 143.014 327.505 154.979 327.505 154.979C330.749 148.782 329.681 141.908 326.933 136.102Z" fill="#282828"/>
<path d="M295.359 118.465C295.359 118.465 295.436 118.37 295.617 118.227C295.881 118.021 296.158 117.833 296.447 117.664C297.826 116.885 299.386 116.482 300.97 116.495C302.554 116.509 304.106 116.938 305.472 117.74C307.535 118.986 309.036 120.981 309.66 123.308L309.336 123.136C310.46 122.722 311.634 122.456 312.827 122.345C314.225 122.188 315.64 122.316 316.987 122.723C318.333 123.129 319.583 123.805 320.66 124.71C321.548 125.442 322.269 126.356 322.775 127.391C323.28 128.425 323.557 129.556 323.589 130.706C323.613 132.254 323.138 133.768 322.234 135.025C321.991 135.376 321.706 135.697 321.385 135.978C321.165 136.159 321.051 136.245 321.032 136.236C321.013 136.226 321.49 135.835 322.072 134.958C322.881 133.705 323.287 132.235 323.236 130.744C323.181 129.654 322.898 128.588 322.405 127.614C321.912 126.64 321.22 125.781 320.374 125.091C319.335 124.24 318.137 123.605 316.849 123.225C315.561 122.845 314.209 122.728 312.875 122.879C311.729 122.989 310.6 123.242 309.517 123.632L309.259 123.728L309.193 123.47C308.61 121.261 307.204 119.357 305.262 118.15C303.7 117.189 301.873 116.749 300.044 116.892C298.825 116.978 297.636 117.302 296.542 117.845C295.77 118.208 295.388 118.494 295.359 118.465Z" fill="white"/>
<path d="M271.242 121.954C271.242 121.954 271.299 121.954 271.414 121.84C271.528 121.725 271.71 121.678 271.958 121.573C272.684 121.283 273.456 121.121 274.238 121.096C275.472 121.061 276.696 121.326 277.806 121.868C279.295 122.562 280.496 123.752 281.202 125.234H280.859C281.72 124.196 282.793 123.352 284.005 122.759C285.217 122.166 286.541 121.836 287.89 121.792C289.407 121.696 290.929 121.891 292.374 122.364C293.889 122.884 295.307 123.65 296.571 124.633C298.911 126.508 300.878 128.803 302.372 131.402L302.009 131.354C303.979 129.481 306.588 128.424 309.307 128.399C311.433 128.392 313.509 129.041 315.251 130.258C316.391 131.045 317.363 132.049 318.113 133.213C318.306 133.519 318.478 133.837 318.628 134.167C318.733 134.395 318.781 134.519 318.762 134.519C318.742 134.519 318.514 134.071 317.979 133.29C317.207 132.189 316.237 131.241 315.117 130.496C313.411 129.356 311.398 128.761 309.345 128.79C306.742 128.836 304.25 129.857 302.362 131.65L302.152 131.85L302 131.602C300.513 129.062 298.573 126.816 296.275 124.976C295.056 124.022 293.69 123.272 292.23 122.755C290.845 122.295 289.385 122.101 287.928 122.183C286.641 122.218 285.375 122.523 284.213 123.078C283.051 123.633 282.019 124.426 281.183 125.405L280.983 125.663L280.849 125.367C280.192 123.955 279.071 122.811 277.672 122.126C276.613 121.582 275.439 121.297 274.247 121.296C273.213 121.328 272.194 121.551 271.242 121.954Z" fill="white"/>
<path d="M318.233 135.148C318.114 135.269 317.987 135.38 317.852 135.482C317.507 135.82 317.188 136.183 316.898 136.569C316.497 137.065 316.039 137.713 315.486 138.476C314.889 139.374 314.105 140.132 313.187 140.697C312.592 140.988 311.906 141.033 311.279 140.821C310.641 140.572 310.033 140.252 309.466 139.868C308.901 139.472 308.244 139.229 307.558 139.162C306.812 139.184 306.078 139.359 305.402 139.677C304.677 139.982 303.952 140.373 303.198 140.735C302.446 141.199 301.625 141.54 300.765 141.746C299.831 141.887 298.877 141.792 297.989 141.469C297.525 141.313 297.09 141.081 296.701 140.783C296.265 140.465 295.971 139.989 295.881 139.458L296.31 139.572C295.419 140.776 294.149 141.646 292.704 142.041C291.196 142.428 289.611 142.388 288.125 141.927C287.509 141.737 286.912 141.492 286.341 141.193C285.865 140.841 285.318 140.597 284.738 140.478C284.174 140.424 283.608 140.565 283.135 140.878C282.594 141.161 282.033 141.403 281.456 141.603C279.266 142.496 276.82 142.53 274.606 141.698C272.714 140.745 271.235 139.135 270.447 137.17C269.751 135.507 269.571 133.673 269.932 131.907L270.065 132.107C269.386 131.953 268.749 131.652 268.198 131.226C267.648 130.799 267.197 130.257 266.879 129.638C266.502 128.881 266.344 128.034 266.422 127.192C266.499 126.351 266.809 125.547 267.318 124.871C267.418 124.741 267.526 124.617 267.642 124.499L267.776 124.385C267.242 125.042 266.873 125.817 266.698 126.644C266.502 127.618 266.651 128.628 267.117 129.505C267.426 130.077 267.855 130.576 268.376 130.966C268.896 131.356 269.496 131.629 270.132 131.764H270.304V131.936C269.984 133.631 270.177 135.384 270.857 136.969C271.621 138.827 273.03 140.347 274.826 141.25C276.937 142.012 279.256 141.961 281.332 141.107C281.889 140.919 282.429 140.683 282.944 140.401C283.51 140.038 284.183 139.877 284.852 139.944C285.187 139.985 285.51 140.089 285.806 140.249L286.608 140.716C287.151 141.001 287.719 141.234 288.306 141.412C289.705 141.849 291.198 141.889 292.618 141.526C293.296 141.337 293.94 141.04 294.526 140.649C295.08 140.258 295.572 139.785 295.986 139.248L296.339 138.8L296.415 139.362C296.53 140.173 297.369 140.707 298.199 140.993C299.013 141.292 299.888 141.384 300.746 141.26C301.565 141.068 302.348 140.746 303.065 140.306C303.818 139.944 304.543 139.563 305.297 139.257C306.032 138.924 306.827 138.746 307.634 138.733C308.389 138.811 309.111 139.08 309.733 139.515C310.271 139.897 310.85 140.217 311.46 140.468C311.73 140.57 312.019 140.616 312.307 140.603C312.596 140.59 312.879 140.518 313.139 140.392C314.025 139.862 314.79 139.151 315.381 138.304C315.953 137.58 316.43 136.95 316.86 136.464C317.18 136.083 317.534 135.732 317.918 135.415C318.014 135.316 318.12 135.227 318.233 135.148Z" fill="#DDE1EA"/>
<path d="M85.2083 344.936C85.2083 344.936 80.2856 358.054 78.5302 361.582C76.7748 365.109 78.5302 403.043 78.5302 403.043H190.817L192.401 369.676L138.337 337.099L85.2083 344.936Z" fill="#282828"/>
<path d="M323.816 291.815L368.015 300.147C368.015 300.147 367.176 319.214 367.739 318.776C368.302 318.337 305.785 318.194 305.785 318.194L323.816 291.815Z" fill="#AE7461"/>
<path d="M367.234 300.081L397.867 309.528L411.328 318.976L423.311 331.923C423.311 331.923 423.177 335.517 418.645 333.248C415.403 331.468 412.405 329.276 409.725 326.727L418.645 343.096C418.645 343.096 415.049 346.691 412.12 341.504C409.191 336.318 404.803 329.635 404.803 329.635L402.141 327.642C402.141 327.642 404.936 332.562 404.936 333.896C404.936 335.231 402.141 342.686 402.141 342.686L397.733 348.702C397.369 348.667 397.016 348.559 396.694 348.385C396.372 348.211 396.088 347.975 395.858 347.689C395.629 347.404 395.459 347.076 395.359 346.725C395.258 346.373 395.228 346.005 395.272 345.642C395.425 343.918 396.049 342.269 397.075 340.875L391.742 345.537C391.742 345.537 389.882 344.469 391.475 341.008L393.479 338.882L394.137 335.555L392.544 333.019C392.544 333.019 388.413 333.286 385.217 328.5C382.021 323.714 377.089 324.687 370.162 320.511C363.236 316.335 363.904 311.855 363.904 311.855L367.234 300.081Z" fill="#AE7461"/>
<path d="M383.678 311.778C383.893 313.053 384.285 314.292 384.842 315.458C385.477 316.708 386.283 317.863 387.237 318.89C388.42 320.144 389.696 321.307 391.053 322.37C392.48 323.398 393.777 324.596 394.917 325.936C395.381 326.512 395.709 327.187 395.874 327.909C396.039 328.631 396.038 329.381 395.871 330.102C395.728 330.585 395.47 331.027 395.12 331.388C394.769 331.75 394.336 332.022 393.858 332.18C393.601 332.258 393.333 332.287 393.066 332.266C392.884 332.266 392.789 332.218 392.789 332.199C393.132 332.169 393.471 332.102 393.8 331.999C394.222 331.823 394.598 331.552 394.899 331.209C395.2 330.865 395.418 330.457 395.537 330.016C395.67 329.35 395.654 328.662 395.489 328.002C395.324 327.343 395.015 326.728 394.583 326.203C393.441 324.916 392.162 323.758 390.767 322.752C389.399 321.673 388.123 320.483 386.951 319.195C385.985 318.125 385.185 316.917 384.575 315.611C384.169 314.731 383.896 313.796 383.764 312.837C383.673 312.492 383.644 312.133 383.678 311.778Z" fill="#6F4439"/>
<path d="M409.439 326.003C409.145 325.925 408.865 325.803 408.609 325.64C408.094 325.383 407.359 324.992 406.453 324.487C404.65 323.486 402.188 322.037 399.536 320.349C397.409 319.005 395.482 317.708 393.955 316.641H394.137C392.763 317.06 391.637 317.394 390.845 317.594C390.438 317.739 390.016 317.835 389.586 317.88C389.96 317.668 390.357 317.498 390.769 317.375L394.013 316.24H394.098L394.184 316.297L399.794 319.911C402.456 321.598 404.879 323.085 406.634 324.163C407.606 324.718 408.543 325.332 409.439 326.003Z" fill="#6F4439"/>
<path d="M401.941 326.527C401.359 327.338 400.482 327.889 399.499 328.062C398.564 328.39 397.537 328.342 396.637 327.928C396.637 327.776 397.925 327.976 399.394 327.575C400.863 327.175 401.884 326.412 401.941 326.527Z" fill="#6F4439"/>
<path d="M396.855 329.635C397.679 331.437 398.346 333.306 398.849 335.222C399.058 336.025 398.963 336.877 398.582 337.615C398.277 338.282 397.953 338.816 397.724 339.293C397.498 339.81 397.329 340.35 397.218 340.904C397.051 340.317 397.116 339.689 397.399 339.15C397.59 338.635 397.905 338.072 398.162 337.434C398.481 336.785 398.556 336.044 398.372 335.346C397.713 333.486 397.206 331.576 396.855 329.635Z" fill="#6F4439"/>
<path d="M82.1094 338.348L121.51 295.857C121.51 295.857 173.351 206.899 183.664 198.7C209.422 178.193 238.711 188.928 238.711 188.928L249.147 184.971L266.72 229.579C266.72 229.579 260.204 239.113 259.556 241.019C258.907 242.926 180.754 361.095 180.754 361.095L152.84 400.183C152.84 400.183 109.566 392.08 91.0389 368.465C82.5768 357.616 82.1094 338.348 82.1094 338.348Z" fill="#DDE1EA"/>
<path d="M271.076 228.579L276.858 223.65L276.963 238.684L286.951 252.794C286.951 252.794 257.701 287.992 251.653 293.865C245.604 299.738 197.512 356.787 197.512 356.787C197.512 356.787 194.965 383.862 191.731 391.537C188.497 399.211 166.641 397.19 166.641 397.19L177.497 366.12L182.01 343.697L236.617 271.48L258.045 243.441L271.076 228.579Z" fill="#DDE1EA"/>
<path d="M256.453 276.894C256.453 277.791 286.171 306.182 286.171 306.182C286.171 306.182 288.317 311.559 290.769 312.455C293.221 313.351 305.47 319.024 305.47 319.024L324.665 291.5C324.665 291.5 314.963 282.538 312.206 281.013C309.449 279.488 302.818 271.804 302.818 271.804L280.571 245.109L263.503 253.814L256.453 276.894Z" fill="#DDE1EA"/>
<path d="M258.045 243.48C258.079 243.386 258.124 243.296 258.178 243.213L258.608 242.469C259.028 241.783 259.562 240.829 260.306 239.609C261.823 237.13 263.95 233.651 266.545 229.437L266.765 229.732L250.604 234.041L250.365 234.108L250.298 233.87C249.755 231.791 249.182 229.627 248.6 227.416C245.834 216.805 243.334 207.204 241.512 200.197L239.413 191.941L238.869 189.681C238.797 189.422 238.743 189.157 238.707 188.89C238.815 189.14 238.901 189.398 238.965 189.662C239.127 190.215 239.337 190.949 239.604 191.884C240.148 193.876 240.911 196.651 241.846 200.111C243.706 207.109 246.263 216.69 249.077 227.292C249.659 229.503 250.232 231.668 250.775 233.746L250.48 233.565L266.698 229.351L267.194 229.217L266.917 229.646C264.275 233.832 262.09 237.273 260.535 239.723L258.751 242.498L258.264 243.213C258.121 243.403 258.054 243.489 258.045 243.48Z" fill="#282828"/>
<path d="M276.965 238.112C276.809 238.296 276.633 238.462 276.44 238.608L274.895 239.904L269.314 244.433L268.913 244.757L268.97 244.242C269.276 241.382 269.629 238.036 270.01 234.461C270.125 233.421 270.239 232.392 270.344 231.41L270.764 231.61C267.329 234.87 264.286 237.721 262.101 239.752L259.497 242.126C259.207 242.43 258.887 242.704 258.543 242.945C258.802 242.601 259.092 242.282 259.411 241.992L261.901 239.513C264.038 237.416 267.034 234.518 270.487 231.248L270.974 230.781L270.897 231.448C270.792 232.401 270.678 233.459 270.564 234.508C270.163 238.074 269.781 241.411 269.457 244.28L269.113 244.089L274.838 239.694L276.459 238.493C276.613 238.348 276.783 238.22 276.965 238.112Z" fill="#282828"/>
<path d="M280.572 259.363C280.572 259.363 280.496 259.515 280.315 259.773C280.133 260.03 279.809 260.431 279.485 260.869C278.75 261.822 277.672 263.186 276.337 264.854C273.646 268.2 269.878 272.767 265.604 277.725C261.33 282.682 257.371 287.087 254.461 290.233C253.011 291.806 251.828 293.093 250.988 293.941L250.034 294.895C249.924 295.014 249.803 295.123 249.672 295.219C249.746 295.074 249.843 294.942 249.958 294.828L250.855 293.779L254.213 289.966C257.075 286.753 260.967 282.339 265.241 277.362C269.515 272.386 273.322 267.876 276.069 264.597L279.342 260.717L280.296 259.668C280.377 259.557 280.47 259.455 280.572 259.363Z" fill="#282828"/>
<path d="M310.849 281.222C310.64 281.61 310.394 281.977 310.115 282.319C309.619 283.015 308.875 283.997 307.94 285.179C306.032 287.572 303.389 290.804 300.231 294.198C297.074 297.592 294.04 300.509 291.788 302.549C290.663 303.569 289.737 304.38 289.079 304.923C288.756 305.222 288.408 305.493 288.039 305.733C288.323 305.383 288.642 305.063 288.993 304.78L291.588 302.292C293.773 300.185 296.749 297.248 299.907 293.864C303.065 290.48 305.765 287.286 307.711 284.96L310 282.195C310.253 281.845 310.537 281.519 310.849 281.222Z" fill="#282828"/>
<path d="M162.188 388.085C162.188 388.085 162.264 387.942 162.426 387.695L163.142 386.589L165.946 382.375L176.345 366.93C185.141 353.888 197.333 335.927 210.689 315.983C224.046 296.038 236.009 277.905 243.956 264.329C248.049 257.608 251.588 252.317 254.269 248.818C255.585 247.055 256.663 245.72 257.407 244.843L258.266 243.842C258.361 243.725 258.463 243.613 258.571 243.508L258.304 243.87L257.493 244.9C256.768 245.806 255.719 247.159 254.421 248.933C251.807 252.46 248.306 257.77 244.261 264.511C236.381 278.153 224.408 296.267 211.138 316.288C197.868 336.308 185.542 354.165 176.679 367.15L166.185 382.508L163.323 386.674L162.56 387.752C162.292 387.962 162.188 388.085 162.188 388.085Z" fill="#282828"/>
<path d="M164.388 340.761C164.388 340.761 164.235 340.675 163.978 340.475L162.871 339.579C161.917 338.797 160.562 337.672 158.912 336.166C155.621 333.229 151.185 329.025 146.51 324.125C141.835 319.224 137.924 314.591 135.186 311.102C133.812 309.376 132.724 307.956 131.99 306.964C131.656 306.497 131.389 306.116 131.16 305.811C130.931 305.506 130.883 305.401 130.902 305.382C131.028 305.491 131.143 305.612 131.246 305.744C131.484 306.039 131.78 306.402 132.152 306.84L135.462 310.882C138.267 314.276 142.245 318.891 146.911 323.791C151.576 328.691 155.916 332.905 159.151 335.899L162.967 339.436C163.377 339.827 163.73 340.141 164.006 340.389C164.149 340.497 164.277 340.622 164.388 340.761Z" fill="#282828"/>
<path d="M225.258 203.038C225.211 203.038 224.839 202.418 223.99 201.369C222.77 199.917 221.316 198.68 219.687 197.708C217.243 196.307 214.603 195.278 211.855 194.658C208.511 193.769 205.057 193.367 201.599 193.466C198.155 193.579 194.782 194.472 191.734 196.078C189.26 197.417 187.051 199.197 185.219 201.331C183.983 202.773 182.914 204.35 182.032 206.031C181.402 207.223 181.078 207.938 181.078 207.938C181.107 207.759 181.162 207.586 181.24 207.423C181.374 207.089 181.555 206.594 181.86 205.983C183.614 202.194 186.39 198.969 189.877 196.67C193.364 194.371 197.423 193.09 201.599 192.97C205.101 192.878 208.596 193.312 211.969 194.257C214.753 194.907 217.421 195.981 219.878 197.441C221.513 198.451 222.957 199.742 224.142 201.255C224.458 201.669 224.748 202.102 225.01 202.551C225.106 202.706 225.189 202.869 225.258 203.038Z" fill="#282828"/>
<path d="M177.5 215.699C177.5 215.699 175.821 274.645 177.5 302.578C178.015 311.111 181.183 316.745 181.841 316.936C183.558 317.441 218.189 314.515 218.189 314.515C218.189 314.515 218.465 303.942 221.051 299.966C223.636 295.991 216.968 297.659 216.968 297.659C216.968 297.659 231.278 225.003 229.484 211.628" fill="#DDE1EA"/>
<path d="M229.51 211.628C229.51 211.628 229.605 212.2 229.681 213.296C229.758 214.392 229.748 216.023 229.624 218.13C229.424 222.343 228.785 228.474 227.716 236.129C225.627 251.45 221.992 272.91 217.222 297.707L216.926 297.43C217.808 297.217 218.71 297.099 219.617 297.078C220.092 297.061 220.567 297.129 221.019 297.278C221.27 297.365 221.494 297.516 221.668 297.716C221.84 297.943 221.928 298.223 221.916 298.508C221.854 298.995 221.681 299.461 221.41 299.871C221.172 300.281 220.962 300.634 220.761 301.034C220.392 301.849 220.092 302.695 219.865 303.56C218.995 307.153 218.512 310.829 218.424 314.524V314.743H218.205L203.503 315.954C199.239 316.278 195.032 316.593 190.872 316.908C188.792 317.041 186.732 317.174 184.671 317.241C184.165 317.241 183.65 317.241 183.135 317.241C182.872 317.26 182.607 317.26 182.343 317.241H181.933C181.828 317.241 181.542 317.079 181.494 316.993C180.855 316.171 180.335 315.262 179.949 314.295C178.422 310.607 177.532 306.688 177.316 302.702C177.22 300.796 177.125 298.889 177.029 296.982C176.972 295.076 176.905 293.169 176.848 291.367C176.486 276.552 176.581 263.214 176.705 252.022C176.829 240.829 177.049 231.763 177.211 225.509C177.306 222.391 177.382 219.96 177.43 218.301C177.43 217.491 177.487 216.862 177.506 216.394C177.526 215.927 177.506 215.756 177.506 215.756C177.506 215.756 177.506 215.975 177.506 216.394C177.506 216.814 177.506 217.462 177.506 218.301C177.506 219.97 177.44 222.391 177.382 225.509C177.278 231.772 177.125 240.829 177.039 252.022C176.953 263.214 176.905 276.552 177.287 291.348C177.354 293.197 177.411 295.076 177.478 296.963C177.545 298.851 177.669 300.777 177.764 302.683C177.978 306.618 178.862 310.487 180.378 314.124C180.743 315.035 181.227 315.895 181.819 316.679C181.844 316.714 181.876 316.743 181.914 316.765C181.914 316.765 181.914 316.765 182.028 316.765H182.372C182.62 316.779 182.868 316.779 183.116 316.765C183.622 316.765 184.127 316.765 184.642 316.765C186.684 316.688 188.745 316.555 190.824 316.421C194.974 316.154 199.182 315.84 203.446 315.516L218.195 314.324L217.966 314.562C218.061 310.831 218.554 307.121 219.435 303.494C219.681 302.598 220.001 301.725 220.389 300.881C220.872 300.162 221.245 299.375 221.496 298.546C221.505 298.37 221.451 298.198 221.345 298.058C221.238 297.919 221.086 297.821 220.914 297.783C220.516 297.657 220.1 297.599 219.683 297.611C218.815 297.632 217.952 297.744 217.108 297.945L216.755 298.031L216.821 297.669C221.591 272.881 225.341 251.44 227.506 236.148C228.584 228.521 229.271 222.382 229.519 218.177C229.672 216.08 229.672 214.45 229.653 213.353C229.653 212.81 229.596 212.4 229.586 212.114C229.576 211.828 229.51 211.628 229.51 211.628Z" fill="#282828"/>
<path d="M218.093 298.021C217.604 298.168 217.103 298.27 216.595 298.326C215.641 298.488 214.22 298.698 212.474 298.908C208.982 299.337 204.146 299.775 198.794 300.004C193.441 300.233 188.576 300.214 185.065 300.081C183.31 300.014 181.888 299.938 180.915 299.852C180.406 299.836 179.898 299.779 179.398 299.68C179.906 299.635 180.417 299.635 180.925 299.68L185.075 299.747C188.576 299.795 193.422 299.747 198.774 299.528C204.126 299.308 208.944 298.917 212.436 298.574L216.567 298.155C217.071 298.071 217.582 298.026 218.093 298.021Z" fill="#282828"/>
<path d="M181.84 316.936L202.198 402.605H222.567L216.871 314.762L181.84 316.936Z" fill="#AE7461"/>
<path d="M220.755 390.488L241.056 394.034L259.326 399.554C261.024 400.136 262.102 401.108 261.424 403.234L202.199 402.605V392.318L220.755 390.488Z" fill="#AE7461"/>
<path d="M253.229 403.148C253.25 402.761 253.25 402.373 253.229 401.985C253.117 401.474 252.871 401.003 252.515 400.619C252.159 400.235 251.708 399.953 251.207 399.802C249.678 399.423 248.115 399.203 246.541 399.144L240.732 398.553C236.61 398.115 232.88 397.695 230.18 397.371L226.984 396.951C226.589 396.924 226.198 396.851 225.82 396.732C226.214 396.695 226.61 396.695 227.003 396.732L230.218 396.99C232.918 397.228 236.658 397.6 240.779 398.029L246.589 398.658L249.127 398.954C249.882 399.012 250.624 399.179 251.331 399.449C251.862 399.639 252.331 399.97 252.688 400.407C253.044 400.844 253.274 401.37 253.353 401.928C253.386 402.227 253.37 402.53 253.305 402.824C253.293 402.935 253.268 403.044 253.229 403.148Z" fill="#6F4439"/>
<g opacity="0.3">
<path opacity="0.3" d="M218.091 332.838L225.256 301.597V291.815L222.565 290.099L228.862 226.014L216.994 297.659L218.425 297.535C220.056 297.402 222.088 297.02 221.697 298.603L219.465 303.503L216.984 316.479L218.091 332.838Z" fill="black"/>
</g>
<path d="M285.311 182.073C283.05 184.437 282.382 187.841 284.262 190.52C285.038 191.513 286.176 192.16 287.427 192.317C288.679 192.474 289.942 192.129 290.94 191.359C291.998 190.469 292.826 189.338 293.353 188.06C291.15 186.306 287.534 183.827 285.311 182.073Z" fill="#6F4439"/>
<path d="M290.227 191.922C289.938 192.106 289.612 192.227 289.273 192.274C288.35 192.437 287.401 192.348 286.525 192.017C285.2 191.518 284.124 190.518 283.53 189.233C283.168 188.455 282.971 187.61 282.951 186.752C282.931 185.894 283.089 185.041 283.415 184.247C283.741 183.408 284.212 182.634 284.808 181.959L284.951 181.797L285.132 181.93C287.451 183.646 289.473 185.162 290.856 186.268C291.647 186.823 292.397 187.435 293.098 188.099C292.249 187.637 291.439 187.108 290.675 186.516C289.196 185.486 287.136 184.018 284.808 182.321H285.132C284.578 182.955 284.139 183.681 283.835 184.466C283.534 185.2 283.386 185.988 283.399 186.781C283.412 187.574 283.586 188.357 283.911 189.081C284.437 190.278 285.404 191.227 286.611 191.731C287.43 192.075 288.322 192.209 289.206 192.122C289.874 192.007 290.208 191.883 290.227 191.922Z" fill="#282828"/>
</svg>
