<svg width="122" height="16" viewBox="0 0 122 16" fill="none" xmlns="http://www.w3.org/2000/svg">
<path d="M0 15C6.77417 15 6.77417 9.00001 13.5483 9.00001C20.3225 9.00001 20.3225 15 27.0967 15C33.8708 15 33.8708 9.00001 40.645 9.00001C47.4192 9.00001 47.4192 15 54.1934 15C60.9675 15 60.9675 9.00001 67.7417 9.00001C74.5159 9.00001 74.5159 15 81.29 15C88.0642 15 88.0642 9.00001 94.8384 9.00001C101.613 9.00001 101.613 15 108.387 15C115.161 15 115.161 9.00001 121.935 9.00001" stroke="#EF293D" stroke-width="1.28806" stroke-miterlimit="10"/>
<path d="M0 7C6.77417 7 6.77417 1.00001 13.5483 1.00001C20.3225 1.00001 20.3225 7 27.0967 7C33.8708 7 33.8708 1.00001 40.645 1.00001C47.4192 1.00001 47.4192 7 54.1934 7C60.9675 7 60.9675 1.00001 67.7417 1.00001C74.5159 1.00001 74.5159 7 81.29 7C88.0642 7 88.0642 1.00001 94.8384 1.00001C101.613 1.00001 101.613 7 108.387 7C115.161 7 115.161 1.00001 121.935 1.00001" stroke="#282828" stroke-width="1.28806" stroke-miterlimit="10"/>
</svg>
