<svg width="661" height="463" viewBox="0 0 661 463" fill="none" xmlns="http://www.w3.org/2000/svg">
<g clip-path="url(#clip0_2049_84938)">
<path fill-rule="evenodd" clip-rule="evenodd" d="M255.223 99.6991C299.892 104.226 344.554 110.629 374.822 138.199C407.689 168.138 426.741 208.109 417.923 247.901C408.659 289.7 373.54 322.901 329.157 344.256C279.236 368.275 219.741 388.295 167.152 368.559C113.603 348.462 92.8366 297.764 79.1464 250.428C65.2102 202.242 50.6398 145.178 92.2467 109.561C132.086 75.4564 198.34 93.934 255.223 99.6991Z" fill="#DDE1EA"/>
<path d="M549.234 160.568C559.95 160.568 568.637 151.87 568.637 141.14C568.637 130.41 559.95 121.712 549.234 121.712C538.519 121.712 529.832 130.41 529.832 141.14C529.832 151.87 538.519 160.568 549.234 160.568Z" fill="#A0616A"/>
<path fill-rule="evenodd" clip-rule="evenodd" d="M222.123 0.621826C260.887 6.75225 271.374 62.8589 303.563 86.6777C336.978 111.403 393.888 101.45 411.322 140.62C428.469 179.148 403.261 225.619 381.252 261.231C362.762 291.15 328.626 301.544 300.126 320.543C274.199 337.827 252.705 367.475 222.123 367.313C191.577 367.151 172.418 333.357 144.681 319.721C106.492 300.945 53.918 309.428 29.7616 272.738C4.90343 234.982 7.10405 179.878 24.9423 137.856C42.1156 97.4 86.1136 82.0855 120.999 57.8057C153.75 35.0117 183.43 -5.4974 222.123 0.621826Z" fill="white"/>
<path d="M634.257 230.895C631.53 224.556 627.785 218.707 623.171 213.579C627.078 219.814 629.311 226.954 629.654 234.306C628.239 235.191 626.759 235.966 625.227 236.625C620.621 238.559 615.71 239.664 610.72 239.888C608.031 230.916 603.389 222.654 597.129 215.694C601.641 222.898 603.909 231.283 603.647 239.782C598.081 239.3 592.598 238.124 587.324 236.279C579.406 233.552 571.72 229.478 566.244 223.143C560.318 216.286 557.397 207.237 556.454 198.216C555.51 189.202 556.397 180.104 557.291 171.083C557.713 166.784 554.138 161.837 554.56 157.538H554.842C556.721 154.958 558.635 152.316 559.557 149.257C560.473 146.205 560.233 142.604 558.129 140.201C556.95 138.945 555.462 138.022 553.814 137.523C553.659 137.326 553.49 137.135 553.314 136.945C550.127 133.556 546.376 130.746 542.229 128.643C545.22 130.905 547.219 133.463 548.148 136.106C545.558 135.535 542.968 134.967 540.378 134.401C539.512 133.481 538.601 132.606 537.647 131.779C536.542 130.883 535.373 130.07 534.149 129.348C535.484 130.524 536.519 132.003 537.168 133.661C533.839 132.822 530.51 131.561 528.778 128.692C525.906 123.949 529.32 117.55 534.085 114.717C537.551 112.757 541.545 111.936 545.503 112.373C549.46 112.809 553.18 114.48 556.137 117.149C563.027 112.067 572.839 112.152 580.504 115.95C585.564 118.57 589.923 122.367 593.216 127.022C591.306 126.777 589.383 126.643 587.458 126.62C590.168 127.017 592.749 128.041 594.996 129.609C595.99 131.154 596.902 132.751 597.727 134.394C598.269 135.472 598.781 136.564 599.262 137.671C602.211 144.394 604.132 151.554 606.124 158.63C608.447 166.876 610.938 175.178 615.288 182.556C621.958 193.776 632.478 202.181 644.885 206.201C645.92 215.524 641.373 224.644 634.257 230.895Z" fill="#2F2E41"/>
<path d="M589.231 441.391L582.188 444.674L566.19 419.035L576.585 414.19L589.231 441.391Z" fill="#A0616A"/>
<path d="M598.629 451.877L593.578 454.231L590.457 449.877L590.368 455.728L576.972 461.972C576.33 462.271 575.609 462.357 574.914 462.217C574.22 462.077 573.588 461.719 573.112 461.194C572.635 460.669 572.339 460.006 572.266 459.301C572.193 458.595 572.347 457.885 572.705 457.273L579.963 444.889L577.719 440.062L589.284 435.49L598.629 451.877Z" fill="#EF293D"/>
<path d="M518.527 448.805H510.758L507.061 418.801H518.527V448.805Z" fill="#A0616A"/>
<path d="M522.627 462.282H517.055L516.061 457.016L513.514 462.282H498.737C498.029 462.282 497.339 462.056 496.769 461.636C496.198 461.215 495.777 460.623 495.566 459.946C495.355 459.269 495.366 458.542 495.597 457.872C495.828 457.202 496.267 456.623 496.85 456.22L508.65 448.06V442.735L521.062 443.477L522.627 462.282Z" fill="#EF293D"/>
<path d="M554.41 221.46L547.974 241.124L545.846 257.065L511.654 246.495L514.817 210.925L521.928 203.88L554.41 221.46Z" fill="#A0616A"/>
<path d="M227.076 37.5691C228.983 34.699 227.854 30.5906 224.555 28.3927C221.255 26.1947 217.035 26.7396 215.128 29.6097C213.221 32.4798 214.35 36.5882 217.649 38.7861C220.948 40.984 225.169 40.4392 227.076 37.5691Z" fill="#FD6584"/>
<path d="M296.428 276.702C298.335 273.832 297.206 269.723 293.907 267.525C290.607 265.328 286.387 265.872 284.48 268.742C282.573 271.613 283.702 275.721 287.001 277.919C290.3 280.117 294.521 279.572 296.428 276.702Z" fill="#A8184F"/>
<path d="M102.165 71.6199C104.072 68.7498 102.944 64.6414 99.6443 62.4435C96.3448 60.2455 92.1242 60.7904 90.2171 63.6605C88.3101 66.5305 89.4389 70.639 92.7383 72.8369C96.0377 75.0348 100.258 74.4899 102.165 71.6199Z" fill="#6D3EB7"/>
<g filter="url(#filter0_d_2049_84938)">
<path d="M347.011 241.755H112.458C104.736 241.746 97.3337 238.671 91.8738 233.204C86.414 227.738 83.3428 220.325 83.334 212.594V111.643C83.3427 103.912 86.4139 96.4996 91.8738 91.0327C97.3337 85.5658 104.736 82.4907 112.458 82.482C187.302 61.7202 265.8 63.6653 347.011 82.482C354.733 82.4907 362.135 85.5658 367.595 91.0327C373.055 96.4996 376.126 103.912 376.135 111.643V212.594C376.126 220.325 373.055 227.738 367.595 233.204C362.135 238.671 354.733 241.746 347.011 241.755Z" fill="#DDE1EA"/>
</g>
<path d="M108.32 216.032C108.228 216.032 108.136 216.014 108.051 215.978C107.965 215.943 107.888 215.891 107.822 215.826C107.757 215.76 107.705 215.682 107.67 215.597C107.634 215.511 107.616 215.42 107.616 215.327V108.91C107.616 108.723 107.69 108.544 107.822 108.412C107.954 108.28 108.133 108.205 108.32 108.205C108.507 108.205 108.686 108.28 108.818 108.412C108.95 108.544 109.024 108.723 109.024 108.91V215.327C109.024 215.42 109.006 215.511 108.97 215.597C108.935 215.682 108.883 215.76 108.818 215.826C108.752 215.891 108.675 215.943 108.589 215.978C108.504 216.014 108.413 216.032 108.32 216.032Z" fill="#B2B1B1"/>
<path d="M352.556 216.032C352.648 216.032 352.74 216.014 352.825 215.978C352.911 215.943 352.988 215.891 353.054 215.826C353.119 215.76 353.171 215.682 353.206 215.597C353.242 215.511 353.26 215.42 353.26 215.327V108.91C353.26 108.723 353.186 108.544 353.054 108.412C352.922 108.28 352.743 108.205 352.556 108.205C352.369 108.205 352.19 108.28 352.058 108.412C351.926 108.544 351.852 108.723 351.852 108.91V215.327C351.852 215.42 351.87 215.511 351.906 215.597C351.941 215.682 351.993 215.76 352.058 215.826C352.123 215.891 352.201 215.943 352.286 215.978C352.372 216.014 352.463 216.032 352.556 216.032Z" fill="#B2B1B1"/>
<path d="M306.102 131.462H306.099C305.913 131.461 305.734 131.386 305.602 131.254C305.471 131.121 305.397 130.942 305.398 130.755L305.75 22.9282C305.751 22.7417 305.825 22.5631 305.957 22.4314C306.089 22.2998 306.267 22.2259 306.454 22.2258H306.456C306.643 22.2265 306.822 22.3013 306.953 22.434C307.085 22.5666 307.158 22.7461 307.158 22.933L306.806 130.76C306.805 130.946 306.731 131.125 306.599 131.256C306.467 131.388 306.288 131.462 306.102 131.462Z" fill="#3F3D56"/>
<path d="M216.01 285.802H216.007C215.82 285.802 215.642 285.727 215.51 285.594C215.379 285.462 215.305 285.282 215.306 285.095L215.658 180.087C215.658 179.901 215.733 179.722 215.865 179.591C215.997 179.459 216.175 179.385 216.361 179.385H216.364C216.551 179.386 216.729 179.461 216.861 179.593C216.992 179.726 217.066 179.905 217.065 180.092L216.713 285.099C216.713 285.286 216.638 285.465 216.506 285.596C216.375 285.728 216.196 285.802 216.01 285.802Z" fill="#3F3D56"/>
<path d="M149.143 151.195H149.141C148.954 151.194 148.775 151.119 148.644 150.987C148.512 150.854 148.439 150.675 148.439 150.488L148.791 44.0707C148.792 43.8843 148.867 43.7057 148.998 43.574C149.13 43.4424 149.309 43.3685 149.495 43.3684H149.498C149.684 43.3691 149.863 43.4439 149.995 43.5765C150.126 43.7091 150.2 43.8886 150.199 44.0756L149.847 150.493C149.846 150.679 149.772 150.858 149.64 150.989C149.508 151.121 149.33 151.195 149.143 151.195Z" fill="#3F3D56"/>
<path d="M120.081 179.525C121.437 172.198 129.757 168.819 136.499 169.393C146.133 170.213 154.174 176.564 163.141 179.558C167.474 181.005 172.136 181.799 176.677 180.967C180.256 180.229 183.575 178.551 186.294 176.105C191.508 171.644 195.032 165.559 200.25 161.102C203.04 158.586 206.569 157.043 210.309 156.704C214.912 156.398 219.421 157.96 223.456 160.054C231.473 164.214 238.035 170.832 246.573 174.042C250.494 175.556 254.746 175.996 258.893 175.317C263.032 174.491 266.967 172.856 270.473 170.504C277.825 165.854 283.884 159.401 291.613 155.323C295.414 153.317 299.637 151.783 303.979 151.753C308.176 151.758 312.21 153.376 315.25 156.271C321.105 161.6 325.72 170.011 334.662 170.159C336.526 170.193 338.361 169.689 339.947 168.706C341.101 167.992 340.042 166.162 338.882 166.881C335.237 169.137 330.848 167.713 327.526 165.525C323.988 163.194 321.477 159.631 318.59 156.596C315.721 153.581 312.375 151.041 308.249 150.1C304.126 149.285 299.858 149.642 295.928 151.131C287.482 154.077 281.089 160.143 274.079 165.419C267.17 170.62 259.105 175.119 250.191 172.953C241.316 170.797 234.583 164.068 226.907 159.551C219.487 155.184 210.392 152.396 202.402 156.99C196.364 160.462 192.547 166.593 187.91 171.587C185.622 174.052 183.07 176.343 179.979 177.743C175.685 179.688 170.831 179.461 166.358 178.308C157.026 175.903 149.156 169.612 139.654 167.73C132.601 166.333 124.253 168.093 119.948 174.336C118.996 175.727 118.348 177.304 118.045 178.963C117.799 180.293 119.834 180.863 120.081 179.525L120.081 179.525Z" fill="#3F3D56"/>
<path d="M149.496 184.142C154.549 184.142 158.646 180.04 158.646 174.98C158.646 169.92 154.549 165.818 149.496 165.818C144.442 165.818 140.346 169.92 140.346 174.98C140.346 180.04 144.442 184.142 149.496 184.142Z" fill="#EF293D"/>
<path d="M215.305 164.761C220.359 164.761 224.455 160.659 224.455 155.599C224.455 150.54 220.359 146.438 215.305 146.438C210.252 146.438 206.155 150.54 206.155 155.599C206.155 160.659 210.252 164.761 215.305 164.761Z" fill="#EF293D"/>
<path d="M305.399 158.419C310.452 158.419 314.549 154.317 314.549 149.257C314.549 144.197 310.452 140.095 305.399 140.095C300.345 140.095 296.249 144.197 296.249 149.257C296.249 154.317 300.345 158.419 305.399 158.419Z" fill="#EF293D"/>
<path d="M226.91 312.641H206.84C205.736 312.64 204.669 312.241 203.836 311.516C203.003 310.791 202.458 309.789 202.303 308.695C201.064 299.564 201.064 290.307 202.303 281.176C202.456 280.097 202.987 279.108 203.802 278.385C204.616 277.662 205.661 277.252 206.749 277.23C213.285 273.716 220.096 273.715 226.996 277.23C227.654 277.241 228.302 277.396 228.895 277.683C229.488 277.971 230.01 278.384 230.427 278.895C230.864 279.428 231.176 280.052 231.341 280.721C231.507 281.391 231.521 282.089 231.384 282.764C229.772 290.798 229.772 299.072 231.384 307.106C231.521 307.782 231.507 308.48 231.341 309.149C231.176 309.818 230.864 310.442 230.427 310.975C230.001 311.497 229.465 311.917 228.856 312.205C228.248 312.494 227.583 312.642 226.91 312.641Z" fill="#CCCCCC"/>
<path d="M319.113 37.9833H299.043C297.939 37.9825 296.873 37.5829 296.04 36.858C295.206 36.133 294.662 35.1314 294.507 34.037C293.268 24.9061 293.268 15.6493 294.507 6.51841C294.66 5.43719 295.193 4.44604 296.011 3.7229C296.828 2.99976 297.876 2.59199 298.966 2.57278C305.281 -0.261356 312.081 -0.26101 319.182 2.57244C319.844 2.58123 320.495 2.73485 321.091 3.02251C321.686 3.31018 322.212 3.72492 322.631 4.23762C323.067 4.77097 323.38 5.39499 323.545 6.06434C323.711 6.73368 323.725 7.43154 323.588 8.1072C321.975 16.1406 321.975 24.4148 323.588 32.4482C323.725 33.1239 323.711 33.8217 323.545 34.4911C323.38 35.1604 323.067 35.7844 322.631 36.3178C322.205 36.8396 321.668 37.2598 321.06 37.5479C320.451 37.836 319.786 37.9847 319.113 37.9833Z" fill="#2C9CDB"/>
<path d="M159.145 56.2852H139.075C138.402 56.2866 137.737 56.1379 137.129 55.8498C136.52 55.5617 135.984 55.1415 135.558 54.6197C135.121 54.0863 134.809 53.4623 134.643 52.793C134.478 52.1236 134.463 51.4258 134.601 50.7501C136.213 42.7167 136.213 34.4425 134.601 26.4091C134.463 25.7334 134.478 25.0355 134.643 24.3661C134.809 23.6967 135.121 23.0726 135.558 22.5392C135.975 22.0284 136.498 21.6148 137.091 21.3273C137.684 21.0399 138.333 20.8854 138.992 20.8747C145.093 17.8826 151.897 17.8826 159.216 20.8747C160.307 20.8922 161.357 21.2992 162.175 22.0225C162.994 22.7458 163.528 23.7379 163.681 24.8203C164.92 33.9511 164.92 43.2078 163.681 52.3386C163.526 53.433 162.982 54.4347 162.149 55.1598C161.316 55.8848 160.249 56.2844 159.145 56.2852Z" fill="#FFA412"/>
<path d="M317.011 13.0642H300.119C299.839 13.0642 299.57 12.9528 299.372 12.7546C299.174 12.5563 299.063 12.2874 299.063 12.0071C299.063 11.7267 299.174 11.4578 299.372 11.2596C299.57 11.0613 299.839 10.95 300.119 10.95H317.011C317.291 10.95 317.56 11.0613 317.758 11.2596C317.956 11.4578 318.067 11.7267 318.067 12.0071C318.067 12.2874 317.956 12.5563 317.758 12.7546C317.56 12.9528 317.291 13.0642 317.011 13.0642Z" fill="white"/>
<path d="M317.011 21.5212H300.119C299.839 21.5212 299.57 21.4099 299.372 21.2116C299.174 21.0134 299.063 20.7445 299.063 20.4641C299.063 20.1837 299.174 19.9149 299.372 19.7166C299.57 19.5184 299.839 19.407 300.119 19.407H317.011C317.291 19.407 317.56 19.5184 317.758 19.7166C317.956 19.9149 318.067 20.1837 318.067 20.4641C318.067 20.7445 317.956 21.0134 317.758 21.2116C317.56 21.4099 317.291 21.5212 317.011 21.5212Z" fill="white"/>
<path d="M317.011 29.9785H300.119C299.839 29.9785 299.57 29.8671 299.372 29.6689C299.174 29.4706 299.063 29.2018 299.063 28.9214C299.063 28.641 299.174 28.3721 299.372 28.1739C299.57 27.9756 299.839 27.8643 300.119 27.8643H317.011C317.291 27.8643 317.56 27.9756 317.758 28.1739C317.956 28.3721 318.067 28.641 318.067 28.9214C318.067 29.2018 317.956 29.4706 317.758 29.6689C317.56 29.8671 317.291 29.9785 317.011 29.9785Z" fill="white"/>
<path d="M159.452 29.9785H142.56C142.28 29.9785 142.011 29.8671 141.813 29.6689C141.615 29.4706 141.504 29.2018 141.504 28.9214C141.504 28.641 141.615 28.3721 141.813 28.1739C142.011 27.9756 142.28 27.8643 142.56 27.8643H159.452C159.732 27.8643 160.001 27.9756 160.199 28.1739C160.397 28.3721 160.508 28.641 160.508 28.9214C160.508 29.2018 160.397 29.4706 160.199 29.6689C160.001 29.8671 159.732 29.9785 159.452 29.9785Z" fill="white"/>
<path d="M159.452 38.4353H142.56C142.28 38.4353 142.011 38.3239 141.813 38.1257C141.615 37.9274 141.504 37.6585 141.504 37.3782C141.504 37.0978 141.615 36.8289 141.813 36.6307C142.011 36.4324 142.28 36.321 142.56 36.321H159.452C159.732 36.321 160.001 36.4324 160.199 36.6307C160.397 36.8289 160.508 37.0978 160.508 37.3782C160.508 37.6585 160.397 37.9274 160.199 38.1257C160.001 38.3239 159.732 38.4353 159.452 38.4353Z" fill="white"/>
<path d="M159.452 46.8921H142.56C142.28 46.8921 142.011 46.7807 141.813 46.5825C141.615 46.3842 141.504 46.1153 141.504 45.835C141.504 45.5546 141.615 45.2857 141.813 45.0875C142.011 44.8892 142.28 44.7778 142.56 44.7778H159.452C159.732 44.7778 160.001 44.8892 160.199 45.0875C160.397 45.2857 160.508 45.5546 160.508 45.835C160.508 46.1153 160.397 46.3842 160.199 46.5825C160.001 46.7807 159.732 46.8921 159.452 46.8921Z" fill="white"/>
<path d="M225.614 285.802H208.721C208.441 285.802 208.173 285.691 207.975 285.493C207.777 285.294 207.666 285.025 207.666 284.745C207.666 284.465 207.777 284.196 207.975 283.998C208.173 283.799 208.441 283.688 208.721 283.688H225.614C225.894 283.688 226.162 283.799 226.36 283.998C226.558 284.196 226.669 284.465 226.669 284.745C226.669 285.025 226.558 285.294 226.36 285.493C226.162 285.691 225.894 285.802 225.614 285.802Z" fill="white"/>
<path d="M225.614 294.259H208.721C208.441 294.259 208.173 294.148 207.975 293.95C207.777 293.751 207.666 293.483 207.666 293.202C207.666 292.922 207.777 292.653 207.975 292.455C208.173 292.256 208.441 292.145 208.721 292.145H225.614C225.894 292.145 226.162 292.256 226.36 292.455C226.558 292.653 226.669 292.922 226.669 293.202C226.669 293.483 226.558 293.751 226.36 293.95C226.162 294.148 225.894 294.259 225.614 294.259Z" fill="white"/>
<path d="M225.614 302.716H208.721C208.441 302.716 208.173 302.605 207.975 302.406C207.777 302.208 207.666 301.939 207.666 301.659C207.666 301.379 207.777 301.11 207.975 300.911C208.173 300.713 208.441 300.602 208.721 300.602H225.614C225.894 300.602 226.162 300.713 226.36 300.911C226.558 301.11 226.669 301.379 226.669 301.659C226.669 301.939 226.558 302.208 226.36 302.406C226.162 302.605 225.894 302.716 225.614 302.716Z" fill="white"/>
<path d="M557.743 253.884L510.74 243.238L493.326 283.688L488.399 366.143L501.237 433.095H526.961L515.145 366.143L517.961 315.401L531.151 376.338L566.102 426.894L582.228 412.948L554.561 365.439C554.561 365.439 566.144 280.147 553.857 265.364L557.743 253.884Z" fill="#2F2E41"/>
<path d="M529.696 173.559L533.461 172.143L538.21 164.455L555.125 165.839L559.236 174.083L569.141 181.656L564.809 204.497L558.08 232.241L513.034 226.603L513.081 205.718C513.081 205.718 504.941 189.217 518.09 183.034L529.696 173.559Z" fill="#E6E6E6"/>
<path d="M460.261 246.006C461.135 246.357 462.076 246.512 463.017 246.46C463.958 246.408 464.876 246.151 465.706 245.705C466.537 245.259 467.26 244.637 467.824 243.881C468.388 243.125 468.78 242.255 468.972 241.331L519.199 210.901L510.018 200.295L463.534 233.542C461.963 233.322 460.366 233.687 459.045 234.567C457.725 235.447 456.772 236.782 456.369 238.318C455.965 239.855 456.139 241.486 456.856 242.902C457.573 244.319 458.785 245.423 460.261 246.006V246.006Z" fill="#A0616A"/>
<path d="M535.935 196.471C535.935 196.471 538.335 198.889 532.313 202.865C527.491 206.048 505.984 221.779 498.36 224.267C498.455 225.389 498.176 226.51 497.565 227.454C496.953 228.399 496.046 229.113 494.985 229.484L488.082 214.295C489.576 210.823 491.966 211.627 493.224 212.414L501.561 206.136L522.033 185.668L534.231 194.692L535.935 196.471Z" fill="#E6E6E6"/>
<path d="M458.96 248.468H438.89C438.217 248.47 437.552 248.321 436.944 248.033C436.335 247.745 435.798 247.324 435.372 246.803C434.936 246.269 434.624 245.645 434.458 244.976C434.293 244.307 434.278 243.609 434.416 242.933C436.028 234.9 436.028 226.625 434.416 218.592C434.278 217.916 434.293 217.218 434.458 216.549C434.624 215.88 434.936 215.255 435.372 214.722C435.79 214.211 436.313 213.798 436.906 213.51C437.499 213.223 438.148 213.068 438.807 213.058C444.908 210.065 451.712 210.065 459.03 213.058C460.122 213.075 461.172 213.482 461.99 214.205C462.809 214.929 463.343 215.921 463.496 217.003C464.735 226.134 464.735 235.391 463.496 244.521C463.341 245.616 462.797 246.618 461.964 247.343C461.131 248.068 460.064 248.467 458.96 248.468Z" fill="#FFA412"/>
<path d="M459.267 222.161H442.375C442.095 222.161 441.827 222.05 441.629 221.852C441.431 221.653 441.319 221.384 441.319 221.104C441.319 220.824 441.431 220.555 441.629 220.356C441.827 220.158 442.095 220.047 442.375 220.047H459.267C459.547 220.047 459.816 220.158 460.014 220.356C460.212 220.555 460.323 220.824 460.323 221.104C460.323 221.384 460.212 221.653 460.014 221.852C459.816 222.05 459.547 222.161 459.267 222.161Z" fill="white"/>
<path d="M459.267 230.618H442.375C442.095 230.618 441.827 230.507 441.629 230.309C441.431 230.11 441.319 229.841 441.319 229.561C441.319 229.281 441.431 229.012 441.629 228.814C441.827 228.615 442.095 228.504 442.375 228.504H459.267C459.547 228.504 459.816 228.615 460.014 228.814C460.212 229.012 460.323 229.281 460.323 229.561C460.323 229.841 460.212 230.11 460.014 230.309C459.816 230.507 459.547 230.618 459.267 230.618Z" fill="white"/>
<path d="M459.267 239.075H442.375C442.095 239.075 441.827 238.964 441.629 238.766C441.431 238.567 441.319 238.298 441.319 238.018C441.319 237.738 441.431 237.469 441.629 237.271C441.827 237.072 442.095 236.961 442.375 236.961H459.267C459.547 236.961 459.816 237.072 460.014 237.271C460.212 237.469 460.323 237.738 460.323 238.018C460.323 238.298 460.212 238.567 460.014 238.766C459.816 238.964 459.547 239.075 459.267 239.075Z" fill="white"/>
<path d="M556.091 309.076H536.021C535.348 309.078 534.683 308.929 534.075 308.641C533.467 308.353 532.93 307.933 532.504 307.411C532.067 306.878 531.755 306.254 531.589 305.584C531.424 304.915 531.409 304.217 531.547 303.541C533.159 295.508 533.159 287.234 531.547 279.2C531.409 278.525 531.424 277.827 531.589 277.157C531.755 276.488 532.067 275.864 532.504 275.33C532.921 274.82 533.444 274.406 534.037 274.119C534.63 273.831 535.279 273.677 535.938 273.666C542.04 270.674 548.843 270.674 556.162 273.666C557.254 273.683 558.303 274.09 559.122 274.814C559.94 275.537 560.474 276.529 560.627 277.612C561.867 286.742 561.867 295.999 560.627 305.13C560.473 306.224 559.929 307.226 559.095 307.951C558.262 308.676 557.195 309.076 556.091 309.076Z" fill="#CCCCCC"/>
<path d="M556.398 282.77H539.506C539.226 282.77 538.957 282.658 538.759 282.46C538.561 282.262 538.45 281.993 538.45 281.712C538.45 281.432 538.561 281.163 538.759 280.965C538.957 280.767 539.226 280.655 539.506 280.655H556.398C556.678 280.655 556.947 280.767 557.145 280.965C557.343 281.163 557.454 281.432 557.454 281.712C557.454 281.993 557.343 282.262 557.145 282.46C556.947 282.658 556.678 282.77 556.398 282.77Z" fill="white"/>
<path d="M556.398 291.227H539.506C539.226 291.227 538.957 291.115 538.759 290.917C538.561 290.719 538.45 290.45 538.45 290.169C538.45 289.889 538.561 289.62 538.759 289.422C538.957 289.224 539.226 289.112 539.506 289.112H556.398C556.678 289.112 556.947 289.224 557.145 289.422C557.343 289.62 557.454 289.889 557.454 290.169C557.454 290.45 557.343 290.719 557.145 290.917C556.947 291.115 556.678 291.227 556.398 291.227Z" fill="white"/>
<path d="M556.398 299.684H539.506C539.226 299.684 538.957 299.572 538.759 299.374C538.561 299.176 538.45 298.907 538.45 298.626C538.45 298.346 538.561 298.077 538.759 297.879C538.957 297.681 539.226 297.569 539.506 297.569H556.398C556.678 297.569 556.947 297.681 557.145 297.879C557.343 298.077 557.454 298.346 557.454 298.626C557.454 298.907 557.343 299.176 557.145 299.374C556.947 299.572 556.678 299.684 556.398 299.684Z" fill="white"/>
<path d="M547.181 278.816C548.06 278.474 548.852 277.943 549.503 277.261C550.155 276.58 550.649 275.763 550.951 274.869C551.253 273.976 551.356 273.027 551.252 272.089C551.148 271.151 550.84 270.248 550.349 269.442L566.239 212.855L552.298 211.397L541.063 267.478C539.766 268.393 538.849 269.752 538.486 271.298C538.122 272.845 538.338 274.471 539.093 275.868C539.847 277.266 541.087 278.338 542.578 278.881C544.068 279.424 545.706 279.401 547.181 278.816Z" fill="#A0616A"/>
<path d="M568.589 181.792C568.589 181.792 571.992 181.915 570.31 188.939C568.964 194.563 564.018 229.84 560.152 236.874C560.987 237.627 561.548 238.637 561.747 239.744C561.945 240.852 561.77 241.994 561.249 242.991L545.842 236.629C544.563 233.071 545.553 229.842 547.009 229.556L548.809 219.268L551.462 184.754L566.131 181.66L568.589 181.792Z" fill="#E6E6E6"/>
<path d="M556.014 117.677C558.346 121.123 559.853 125.061 560.417 129.185C560.981 133.309 560.586 137.508 559.265 141.455" fill="#FFA412"/>
<path d="M638.194 462.161C638.195 462.272 638.173 462.381 638.131 462.483C638.089 462.585 638.028 462.677 637.95 462.755C637.872 462.833 637.779 462.895 637.678 462.937C637.576 462.979 637.467 463 637.357 463H440.075C439.965 463 439.856 462.978 439.754 462.936C439.653 462.894 439.56 462.832 439.483 462.754C439.405 462.677 439.343 462.584 439.301 462.482C439.259 462.381 439.237 462.272 439.237 462.161C439.237 462.051 439.259 461.942 439.301 461.84C439.343 461.739 439.405 461.646 439.483 461.568C439.56 461.491 439.653 461.429 439.754 461.387C439.856 461.344 439.965 461.323 440.075 461.323H637.357C637.467 461.322 637.576 461.344 637.678 461.386C637.779 461.428 637.872 461.49 637.95 461.568C638.028 461.646 638.089 461.738 638.131 461.84C638.173 461.942 638.195 462.051 638.194 462.161Z" fill="#CCCCCC"/>
</g>
<defs>
<filter id="filter0_d_2049_84938" x="59.334" y="49.6311" width="340.801" height="222.124" filterUnits="userSpaceOnUse" color-interpolation-filters="sRGB">
<feFlood flood-opacity="0" result="BackgroundImageFix"/>
<feColorMatrix in="SourceAlpha" type="matrix" values="0 0 0 0 0 0 0 0 0 0 0 0 0 0 0 0 0 0 127 0" result="hardAlpha"/>
<feOffset dy="6"/>
<feGaussianBlur stdDeviation="12"/>
<feComposite in2="hardAlpha" operator="out"/>
<feColorMatrix type="matrix" values="0 0 0 0 0 0 0 0 0 0 0 0 0 0 0 0 0 0 0.25 0"/>
<feBlend mode="normal" in2="BackgroundImageFix" result="effect1_dropShadow_2049_84938"/>
<feBlend mode="normal" in="SourceGraphic" in2="effect1_dropShadow_2049_84938" result="shape"/>
</filter>
<clipPath id="clip0_2049_84938">
<rect width="661" height="463" fill="white"/>
</clipPath>
</defs>
</svg>
